G04 #@! TF.FileFunction,Legend,Top*
%FSLAX46Y46*%
G04 Gerber Fmt 4.6, Leading zero omitted, Abs format (unit mm)*
G04 Created by KiCad (PCBNEW 4.0.1-stable) date 2016/09/09 20:04:21*
%MOMM*%
G01*
G04 APERTURE LIST*
%ADD10C,0.100000*%
%ADD11C,0.200000*%
%ADD12C,0.150000*%
G04 APERTURE END LIST*
D10*
D11*
X167000000Y-74000000D02*
X163000000Y-74000000D01*
X167000000Y-102000000D02*
X167000000Y-74000000D01*
X163000000Y-102000000D02*
X167000000Y-102000000D01*
X123000000Y-102000000D02*
X119000000Y-102000000D01*
X123000000Y-74000000D02*
X123000000Y-102000000D01*
X119000000Y-74000000D02*
X123000000Y-74000000D01*
X119000000Y-102000000D02*
X119000000Y-74000000D01*
X163000000Y-87500000D02*
X144000000Y-87500000D01*
X144000000Y-96000000D02*
X163000000Y-96000000D01*
X144000000Y-79000000D02*
X144000000Y-96000000D01*
X163000000Y-79000000D02*
X144000000Y-79000000D01*
X142000000Y-87500000D02*
X123000000Y-87500000D01*
X142000000Y-96000000D02*
X123000000Y-96000000D01*
X142000000Y-79000000D02*
X142000000Y-96000000D01*
X123000000Y-79000000D02*
X142000000Y-79000000D01*
X163000000Y-102000000D02*
X163000000Y-74000000D01*
X123000000Y-96000000D02*
X123000000Y-99000000D01*
X119000000Y-99000000D02*
X119000000Y-96000000D01*
D12*
X151965000Y-118367500D02*
G75*
G03X151965000Y-118367500I-250000J0D01*
G01*
X151115000Y-121917500D02*
X146315000Y-121917500D01*
X152215000Y-120017500D02*
X152215000Y-119017500D01*
X152215000Y-119017500D02*
X151315000Y-119017500D01*
X151715000Y-119017500D02*
X151715000Y-120017500D01*
X151715000Y-120017500D02*
X151715000Y-120017500D01*
X151715000Y-120017500D02*
X151715000Y-119017500D01*
X151715000Y-119017500D02*
X151715000Y-119017500D01*
X151715000Y-119617500D02*
X151715000Y-119617500D01*
X151715000Y-119617500D02*
X152215000Y-119617500D01*
X152215000Y-119617500D02*
X152215000Y-119617500D01*
X152215000Y-119617500D02*
X151715000Y-119617500D01*
X145215000Y-120017500D02*
X145215000Y-119017500D01*
X145215000Y-119017500D02*
X146115000Y-119017500D01*
X145715000Y-119017500D02*
X145715000Y-120017500D01*
X145715000Y-120017500D02*
X145715000Y-120017500D01*
X145715000Y-120017500D02*
X145715000Y-119017500D01*
X145715000Y-119017500D02*
X145715000Y-119017500D01*
X145715000Y-119617500D02*
X145715000Y-119617500D01*
X145715000Y-119617500D02*
X145215000Y-119617500D01*
X145215000Y-119617500D02*
X145215000Y-119617500D01*
X145215000Y-119617500D02*
X145715000Y-119617500D01*
X151115000Y-121017500D02*
X151115000Y-121517500D01*
X151115000Y-121517500D02*
X146315000Y-121517500D01*
X146315000Y-121517500D02*
X146315000Y-121017500D01*
X151115000Y-120417500D02*
X151115000Y-119767500D01*
X151115000Y-119767500D02*
X146315000Y-119767500D01*
X146315000Y-119767500D02*
X146315000Y-120417500D01*
X150715000Y-121017500D02*
X150715000Y-120817500D01*
X149715000Y-121017500D02*
X149715000Y-120817500D01*
X148715000Y-121017500D02*
X148715000Y-120817500D01*
X147715000Y-121017500D02*
X147715000Y-120817500D01*
X146715000Y-121017500D02*
X146715000Y-120817500D01*
X134781751Y-109336777D02*
X134286777Y-109831751D01*
X133438249Y-108983223D02*
X133933223Y-108488249D01*
X139226751Y-113781777D02*
X138731777Y-114276751D01*
X137883249Y-113428223D02*
X138378223Y-112933249D01*
X153336777Y-107218249D02*
X153831751Y-107713223D01*
X152983223Y-108561751D02*
X152488249Y-108066777D01*
X147408249Y-96283223D02*
X147903223Y-95788249D01*
X148751751Y-96636777D02*
X148256777Y-97131751D01*
X135343249Y-99458223D02*
X135838223Y-98963249D01*
X136686751Y-99811777D02*
X136191777Y-100306751D01*
X139013223Y-97131751D02*
X138518249Y-96636777D01*
X139366777Y-95788249D02*
X139861751Y-96283223D01*
X116930000Y-112620000D02*
X116930000Y-113320000D01*
X115730000Y-113320000D02*
X115730000Y-112620000D01*
X137956751Y-112511777D02*
X137461777Y-113006751D01*
X136613249Y-112158223D02*
X137108223Y-111663249D01*
X152066777Y-108488249D02*
X152561751Y-108983223D01*
X151713223Y-109831751D02*
X151218249Y-109336777D01*
X128360000Y-101190000D02*
X128360000Y-101890000D01*
X127160000Y-101890000D02*
X127160000Y-101190000D01*
X162650000Y-101190000D02*
X162650000Y-101890000D01*
X161450000Y-101890000D02*
X161450000Y-101190000D01*
X121760000Y-105315000D02*
X121060000Y-105315000D01*
X121060000Y-104115000D02*
X121760000Y-104115000D01*
X121760000Y-108490000D02*
X121060000Y-108490000D01*
X121060000Y-107290000D02*
X121760000Y-107290000D01*
X120910000Y-111915000D02*
X121910000Y-111915000D01*
X121910000Y-110215000D02*
X120910000Y-110215000D01*
X141130000Y-56805000D02*
X141130000Y-56105000D01*
X142330000Y-56105000D02*
X142330000Y-56805000D01*
X143350000Y-64548000D02*
X142650000Y-64548000D01*
X142650000Y-63348000D02*
X143350000Y-63348000D01*
X143670000Y-56805000D02*
X143670000Y-56105000D01*
X144870000Y-56105000D02*
X144870000Y-56805000D01*
X166460000Y-105000000D02*
X166460000Y-105700000D01*
X165260000Y-105700000D02*
X165260000Y-105000000D01*
X154395000Y-104365000D02*
X154395000Y-105065000D01*
X153195000Y-105065000D02*
X153195000Y-104365000D01*
X137250000Y-66265000D02*
X137250000Y-66965000D01*
X136050000Y-66965000D02*
X136050000Y-66265000D01*
X134780000Y-63790000D02*
X134780000Y-63090000D01*
X135980000Y-63090000D02*
X135980000Y-63790000D01*
X139790000Y-73250000D02*
X139790000Y-73950000D01*
X138590000Y-73950000D02*
X138590000Y-73250000D01*
X118200000Y-80870000D02*
X118200000Y-81570000D01*
X117000000Y-81570000D02*
X117000000Y-80870000D01*
X147410000Y-73250000D02*
X147410000Y-73950000D01*
X146210000Y-73950000D02*
X146210000Y-73250000D01*
X169000000Y-80870000D02*
X169000000Y-81570000D01*
X167800000Y-81570000D02*
X167800000Y-80870000D01*
X149950000Y-66265000D02*
X149950000Y-66965000D01*
X148750000Y-66965000D02*
X148750000Y-66265000D01*
X150020000Y-63790000D02*
X150020000Y-63090000D01*
X151220000Y-63090000D02*
X151220000Y-63790000D01*
X138590000Y-77760000D02*
X138590000Y-77060000D01*
X139790000Y-77060000D02*
X139790000Y-77760000D01*
X147410000Y-77060000D02*
X147410000Y-77760000D01*
X146210000Y-77760000D02*
X146210000Y-77060000D01*
X142650000Y-81890000D02*
X143350000Y-81890000D01*
X143350000Y-83090000D02*
X142650000Y-83090000D01*
X173765000Y-112370000D02*
X174465000Y-112370000D01*
X174465000Y-113570000D02*
X173765000Y-113570000D01*
X139740000Y-54380000D02*
X139740000Y-52480000D01*
X138640000Y-54380000D02*
X138640000Y-52480000D01*
X139190000Y-53480000D02*
X139190000Y-53030000D01*
X138940000Y-53530000D02*
X139440000Y-53530000D01*
X139190000Y-53530000D02*
X138940000Y-53280000D01*
X138940000Y-53280000D02*
X139440000Y-53280000D01*
X139440000Y-53280000D02*
X139190000Y-53530000D01*
X142280000Y-53745000D02*
X142280000Y-51845000D01*
X141180000Y-53745000D02*
X141180000Y-51845000D01*
X141730000Y-52845000D02*
X141730000Y-52395000D01*
X141480000Y-52895000D02*
X141980000Y-52895000D01*
X141730000Y-52895000D02*
X141480000Y-52645000D01*
X141480000Y-52645000D02*
X141980000Y-52645000D01*
X141980000Y-52645000D02*
X141730000Y-52895000D01*
X144820000Y-53745000D02*
X144820000Y-51845000D01*
X143720000Y-53745000D02*
X143720000Y-51845000D01*
X144270000Y-52845000D02*
X144270000Y-52395000D01*
X144020000Y-52895000D02*
X144520000Y-52895000D01*
X144270000Y-52895000D02*
X144020000Y-52645000D01*
X144020000Y-52645000D02*
X144520000Y-52645000D01*
X144520000Y-52645000D02*
X144270000Y-52895000D01*
X147360000Y-54380000D02*
X147360000Y-52480000D01*
X146260000Y-54380000D02*
X146260000Y-52480000D01*
X146810000Y-53480000D02*
X146810000Y-53030000D01*
X146560000Y-53530000D02*
X147060000Y-53530000D01*
X146810000Y-53530000D02*
X146560000Y-53280000D01*
X146560000Y-53280000D02*
X147060000Y-53280000D01*
X147060000Y-53280000D02*
X146810000Y-53530000D01*
X137920000Y-73600000D02*
X137920000Y-68520000D01*
X138200000Y-76420000D02*
X136650000Y-76420000D01*
X135380000Y-76140000D02*
X135380000Y-73600000D01*
X135380000Y-73600000D02*
X137920000Y-73600000D01*
X137920000Y-68520000D02*
X132840000Y-68520000D01*
X132840000Y-68520000D02*
X132840000Y-73600000D01*
X138200000Y-76420000D02*
X138200000Y-74870000D01*
X132840000Y-76140000D02*
X135380000Y-76140000D01*
X132840000Y-73600000D02*
X132840000Y-76140000D01*
X148080000Y-71060000D02*
X148080000Y-76140000D01*
X147800000Y-68240000D02*
X149350000Y-68240000D01*
X150620000Y-68520000D02*
X150620000Y-71060000D01*
X150620000Y-71060000D02*
X148080000Y-71060000D01*
X148080000Y-76140000D02*
X153160000Y-76140000D01*
X153160000Y-76140000D02*
X153160000Y-71060000D01*
X147800000Y-68240000D02*
X147800000Y-69790000D01*
X153160000Y-68520000D02*
X150620000Y-68520000D01*
X153160000Y-71060000D02*
X153160000Y-68520000D01*
X163939760Y-66585840D02*
X163939760Y-66634100D01*
X164640800Y-69384820D02*
X163939760Y-69384820D01*
X163939760Y-69384820D02*
X163939760Y-69135900D01*
X163939760Y-66585840D02*
X163939760Y-66385180D01*
X163939760Y-66385180D02*
X164640800Y-66385180D01*
X122060240Y-69184160D02*
X122060240Y-69135900D01*
X121359200Y-66385180D02*
X122060240Y-66385180D01*
X122060240Y-66385180D02*
X122060240Y-66634100D01*
X122060240Y-69184160D02*
X122060240Y-69384820D01*
X122060240Y-69384820D02*
X121359200Y-69384820D01*
X151874760Y-97700840D02*
X151874760Y-97749100D01*
X152575800Y-100499820D02*
X151874760Y-100499820D01*
X151874760Y-100499820D02*
X151874760Y-100250900D01*
X151874760Y-97700840D02*
X151874760Y-97500180D01*
X151874760Y-97500180D02*
X152575800Y-97500180D01*
X162185000Y-112930000D02*
X163185000Y-112930000D01*
X163185000Y-114280000D02*
X162185000Y-114280000D01*
X130165000Y-113645000D02*
X129165000Y-113645000D01*
X129165000Y-112295000D02*
X130165000Y-112295000D01*
X158375000Y-112930000D02*
X159375000Y-112930000D01*
X159375000Y-114280000D02*
X158375000Y-114280000D01*
X125355000Y-112295000D02*
X126355000Y-112295000D01*
X126355000Y-113645000D02*
X125355000Y-113645000D01*
X153025000Y-78720000D02*
X152025000Y-78720000D01*
X152025000Y-77370000D02*
X153025000Y-77370000D01*
X164090000Y-70385000D02*
X165090000Y-70385000D01*
X165090000Y-71735000D02*
X164090000Y-71735000D01*
X133435000Y-67115000D02*
X133435000Y-66115000D01*
X134785000Y-66115000D02*
X134785000Y-67115000D01*
X137880000Y-63940000D02*
X137880000Y-62940000D01*
X139230000Y-62940000D02*
X139230000Y-63940000D01*
X141055000Y-74100000D02*
X141055000Y-73100000D01*
X142405000Y-73100000D02*
X142405000Y-74100000D01*
X116925000Y-85530000D02*
X116925000Y-84530000D01*
X118275000Y-84530000D02*
X118275000Y-85530000D01*
X143595000Y-74100000D02*
X143595000Y-73100000D01*
X144945000Y-73100000D02*
X144945000Y-74100000D01*
X167725000Y-85530000D02*
X167725000Y-84530000D01*
X169075000Y-84530000D02*
X169075000Y-85530000D01*
X151215000Y-67115000D02*
X151215000Y-66115000D01*
X152565000Y-66115000D02*
X152565000Y-67115000D01*
X146770000Y-63940000D02*
X146770000Y-62940000D01*
X148120000Y-62940000D02*
X148120000Y-63940000D01*
X132975000Y-77370000D02*
X133975000Y-77370000D01*
X133975000Y-78720000D02*
X132975000Y-78720000D01*
X121910000Y-71735000D02*
X120910000Y-71735000D01*
X120910000Y-70385000D02*
X121910000Y-70385000D01*
X170805000Y-113645000D02*
X169805000Y-113645000D01*
X169805000Y-112295000D02*
X170805000Y-112295000D01*
X146135000Y-114105000D02*
X146135000Y-113105000D01*
X147485000Y-113105000D02*
X147485000Y-114105000D01*
X148675000Y-114105000D02*
X148675000Y-113105000D01*
X150025000Y-113105000D02*
X150025000Y-114105000D01*
X151215000Y-114105000D02*
X151215000Y-113105000D01*
X152565000Y-113105000D02*
X152565000Y-114105000D01*
X154390000Y-114105000D02*
X154390000Y-113105000D01*
X155740000Y-113105000D02*
X155740000Y-114105000D01*
X157010000Y-98500000D02*
X157010000Y-99500000D01*
X155660000Y-99500000D02*
X155660000Y-98500000D01*
X133570000Y-100100000D02*
X133570000Y-101000000D01*
X133570000Y-101000000D02*
X129570000Y-101000000D01*
X129570000Y-101000000D02*
X129570000Y-100100000D01*
X129570000Y-97000000D02*
X133570000Y-97000000D01*
X133570000Y-97000000D02*
X133570000Y-97900000D01*
X129570000Y-97900000D02*
X129570000Y-97000000D01*
D11*
X112715000Y-112520000D02*
X112715000Y-113420000D01*
X108515000Y-113420000D02*
X108515000Y-112520000D01*
X108515000Y-114570000D02*
X112715000Y-114570000D01*
X108515000Y-111370000D02*
X112715000Y-111370000D01*
D12*
X163320000Y-119320000D02*
X158240000Y-119320000D01*
X158240000Y-119320000D02*
X158240000Y-121860000D01*
X158240000Y-121860000D02*
X163320000Y-121860000D01*
X166140000Y-122140000D02*
X164590000Y-122140000D01*
X163320000Y-121860000D02*
X163320000Y-119320000D01*
X164590000Y-119040000D02*
X166140000Y-119040000D01*
X166140000Y-119040000D02*
X166140000Y-122140000D01*
D11*
X174310000Y-116965000D02*
X174310000Y-117865000D01*
X170110000Y-117865000D02*
X170110000Y-116965000D01*
X170110000Y-119015000D02*
X174310000Y-119015000D01*
X170110000Y-115815000D02*
X174310000Y-115815000D01*
D12*
X143000000Y-97396445D02*
X142239860Y-98156585D01*
X150318555Y-104715000D02*
X149558415Y-105475140D01*
X143000000Y-112033555D02*
X143760140Y-111273415D01*
X135681445Y-104715000D02*
X136441585Y-103954860D01*
X143000000Y-97396445D02*
X143760140Y-98156585D01*
X135681445Y-104715000D02*
X136441585Y-105475140D01*
X143000000Y-112033555D02*
X142239860Y-111273415D01*
X150318555Y-104715000D02*
X149558415Y-103954860D01*
X142239860Y-98156585D02*
X141515076Y-97431800D01*
X144800000Y-60092000D02*
G75*
G03X144800000Y-60092000I-100000J0D01*
G01*
X144450000Y-60642000D02*
X144450000Y-60142000D01*
X141550000Y-60642000D02*
X144450000Y-60642000D01*
X141550000Y-60142000D02*
X141550000Y-60642000D01*
X144450000Y-60142000D02*
X141550000Y-60142000D01*
X157435000Y-104045000D02*
X157435000Y-104190000D01*
X161585000Y-104045000D02*
X161585000Y-104190000D01*
X161585000Y-109195000D02*
X161585000Y-109050000D01*
X157435000Y-109195000D02*
X157435000Y-109050000D01*
X157435000Y-104045000D02*
X161585000Y-104045000D01*
X157435000Y-109195000D02*
X161585000Y-109195000D01*
X157435000Y-104190000D02*
X156035000Y-104190000D01*
X159637000Y-73981000D02*
X159637000Y-77156000D01*
X159637000Y-77156000D02*
X161415000Y-77156000D01*
X161415000Y-77156000D02*
X161415000Y-73981000D01*
X155065000Y-73981000D02*
X155065000Y-77156000D01*
X155065000Y-77156000D02*
X156843000Y-77156000D01*
X156843000Y-77156000D02*
X156843000Y-73981000D01*
X161669000Y-67885000D02*
X161669000Y-73981000D01*
X161669000Y-73981000D02*
X154811000Y-73981000D01*
X154811000Y-73981000D02*
X154811000Y-66107000D01*
X154811000Y-65980000D02*
X161669000Y-65980000D01*
X161669000Y-66107000D02*
X161669000Y-67885000D01*
X140675000Y-65895000D02*
X140675000Y-66120000D01*
X145325000Y-65895000D02*
X145325000Y-66120000D01*
X145325000Y-71145000D02*
X145325000Y-70920000D01*
X140675000Y-71145000D02*
X140675000Y-70920000D01*
X140675000Y-65895000D02*
X145325000Y-65895000D01*
X140675000Y-71145000D02*
X145325000Y-71145000D01*
X140675000Y-66120000D02*
X139325000Y-66120000D01*
X129157000Y-73981000D02*
X129157000Y-77156000D01*
X129157000Y-77156000D02*
X130935000Y-77156000D01*
X130935000Y-77156000D02*
X130935000Y-73981000D01*
X124585000Y-73981000D02*
X124585000Y-77156000D01*
X124585000Y-77156000D02*
X126363000Y-77156000D01*
X126363000Y-77156000D02*
X126363000Y-73981000D01*
X131189000Y-67885000D02*
X131189000Y-73981000D01*
X131189000Y-73981000D02*
X124331000Y-73981000D01*
X124331000Y-73981000D02*
X124331000Y-66107000D01*
X124331000Y-65980000D02*
X131189000Y-65980000D01*
X131189000Y-66107000D02*
X131189000Y-67885000D01*
X167902233Y-74983138D02*
X173214825Y-76406643D01*
X173214825Y-76406643D02*
X173344235Y-75923680D01*
X173344235Y-75923680D02*
X168031643Y-74500175D01*
X170256988Y-71990626D02*
X170998770Y-71154110D01*
X170998770Y-71154110D02*
X170256988Y-71990626D01*
X170256988Y-71990626D02*
X171352324Y-71766482D01*
X173224116Y-68644561D02*
X170774627Y-70058774D01*
X170774627Y-70058774D02*
X172706478Y-70576412D01*
X172706478Y-70576412D02*
X170256988Y-71990626D01*
X170896726Y-78373700D02*
X171543773Y-75958886D01*
X169090322Y-75301485D02*
X168443274Y-77716300D01*
X172861272Y-75794270D02*
X174155367Y-70964641D01*
X168031643Y-74500175D02*
X167902233Y-74983138D01*
X169325738Y-69670546D02*
X168031643Y-74500175D01*
X174155366Y-70964641D02*
G75*
G03X172387600Y-67902779I-2414814J647048D01*
G01*
X172387599Y-67902779D02*
G75*
G03X169325738Y-69670546I-647047J-2414814D01*
G01*
X171712233Y-83238138D02*
X177024825Y-84661643D01*
X177024825Y-84661643D02*
X177154235Y-84178680D01*
X177154235Y-84178680D02*
X171841643Y-82755175D01*
X174706726Y-86628700D02*
X175353773Y-84213886D01*
X172900322Y-83556485D02*
X172253274Y-85971300D01*
X176671272Y-84049270D02*
X177965367Y-79219641D01*
X171841643Y-82755175D02*
X171712233Y-83238138D01*
X173135738Y-77925546D02*
X171841643Y-82755175D01*
X177965366Y-79219641D02*
G75*
G03X176197600Y-76157779I-2414814J647048D01*
G01*
X176197599Y-76157779D02*
G75*
G03X173135738Y-77925546I-647047J-2414814D01*
G01*
X148577767Y-55298138D02*
X150001272Y-60610730D01*
X150001272Y-60610730D02*
X150484235Y-60481320D01*
X150484235Y-60481320D02*
X149060730Y-55168728D01*
X147138700Y-59586726D02*
X149553515Y-58939678D01*
X148896114Y-56486227D02*
X146481300Y-57133274D01*
X150354825Y-59998357D02*
X155184454Y-58704262D01*
X149060730Y-55168728D02*
X148577767Y-55298138D01*
X153890359Y-53874633D02*
X149060730Y-55168728D01*
X155184455Y-58704262D02*
G75*
G03X156952221Y-55642400I-647048J2414814D01*
G01*
X156952222Y-55642400D02*
G75*
G03X153890359Y-53874633I-2414815J-647048D01*
G01*
X156197767Y-59108138D02*
X157621272Y-64420730D01*
X157621272Y-64420730D02*
X158104235Y-64291320D01*
X158104235Y-64291320D02*
X156680730Y-58978728D01*
X159966736Y-59651160D02*
X161062071Y-59875304D01*
X161062071Y-59875304D02*
X159966736Y-59651160D01*
X159966736Y-59651160D02*
X160708518Y-60487676D01*
X164348077Y-60547735D02*
X161898588Y-59133522D01*
X161898588Y-59133522D02*
X162416226Y-61065373D01*
X162416226Y-61065373D02*
X159966736Y-59651160D01*
X154758700Y-63396726D02*
X157173515Y-62749678D01*
X156516114Y-60296227D02*
X154101300Y-60943274D01*
X157974825Y-63808357D02*
X162804454Y-62514262D01*
X156680730Y-58978728D02*
X156197767Y-59108138D01*
X161510359Y-57684633D02*
X156680730Y-58978728D01*
X162804455Y-62514262D02*
G75*
G03X164572221Y-59452400I-647048J2414814D01*
G01*
X164572222Y-59452400D02*
G75*
G03X161510359Y-57684633I-2414815J-647048D01*
G01*
X136128138Y-60127767D02*
X137551643Y-54815175D01*
X137551643Y-54815175D02*
X137068680Y-54685765D01*
X137068680Y-54685765D02*
X135645175Y-59998357D01*
X139518700Y-57133274D02*
X137103886Y-56486227D01*
X136446485Y-58939678D02*
X138861300Y-59586726D01*
X136939270Y-55168728D02*
X132109641Y-53874633D01*
X135645175Y-59998357D02*
X136128138Y-60127767D01*
X130815546Y-58704262D02*
X135645175Y-59998357D01*
X132109641Y-53874634D02*
G75*
G03X129047779Y-55642400I-647048J-2414814D01*
G01*
X129047779Y-55642401D02*
G75*
G03X130815546Y-58704262I2414814J-647047D01*
G01*
X113268138Y-76277233D02*
X118580730Y-74853728D01*
X118580730Y-74853728D02*
X118451320Y-74370765D01*
X118451320Y-74370765D02*
X113138728Y-75794270D01*
X113811160Y-72508264D02*
X114035304Y-71412929D01*
X114035304Y-71412929D02*
X113811160Y-72508264D01*
X113811160Y-72508264D02*
X114647676Y-71766482D01*
X114707735Y-68126923D02*
X113293522Y-70576412D01*
X113293522Y-70576412D02*
X115225373Y-70058774D01*
X115225373Y-70058774D02*
X113811160Y-72508264D01*
X117556726Y-77716300D02*
X116909678Y-75301485D01*
X114456227Y-75958886D02*
X115103274Y-78373700D01*
X117968357Y-74500175D02*
X116674262Y-69670546D01*
X113138728Y-75794270D02*
X113268138Y-76277233D01*
X111844633Y-70964641D02*
X113138728Y-75794270D01*
X116674262Y-69670545D02*
G75*
G03X113612400Y-67902779I-2414814J-647048D01*
G01*
X113612400Y-67902778D02*
G75*
G03X111844633Y-70964641I647048J-2414815D01*
G01*
X109458138Y-83897233D02*
X114770730Y-82473728D01*
X114770730Y-82473728D02*
X114641320Y-81990765D01*
X114641320Y-81990765D02*
X109328728Y-83414270D01*
X113746726Y-85336300D02*
X113099678Y-82921485D01*
X110646227Y-83578886D02*
X111293274Y-85993700D01*
X114158357Y-82120175D02*
X112864262Y-77290546D01*
X109328728Y-83414270D02*
X109458138Y-83897233D01*
X108034633Y-78584641D02*
X109328728Y-83414270D01*
X112864262Y-77290545D02*
G75*
G03X109802400Y-75522779I-2414814J-647048D01*
G01*
X109802400Y-75522778D02*
G75*
G03X108034633Y-78584641I647048J-2414815D01*
G01*
X128508138Y-63937767D02*
X129931643Y-58625175D01*
X129931643Y-58625175D02*
X129448680Y-58495765D01*
X129448680Y-58495765D02*
X128025175Y-63808357D01*
X125515626Y-61583012D02*
X124679110Y-60841230D01*
X124679110Y-60841230D02*
X125515626Y-61583012D01*
X125515626Y-61583012D02*
X125291482Y-60487676D01*
X122169561Y-58615884D02*
X123583774Y-61065373D01*
X123583774Y-61065373D02*
X124101412Y-59133522D01*
X124101412Y-59133522D02*
X125515626Y-61583012D01*
X131898700Y-60943274D02*
X129483886Y-60296227D01*
X128826485Y-62749678D02*
X131241300Y-63396726D01*
X129319270Y-58978728D02*
X124489641Y-57684633D01*
X128025175Y-63808357D02*
X128508138Y-63937767D01*
X123195546Y-62514262D02*
X128025175Y-63808357D01*
X124489641Y-57684634D02*
G75*
G03X121427779Y-59452400I-647048J-2414814D01*
G01*
X121427779Y-59452401D02*
G75*
G03X123195546Y-62514262I2414814J-647047D01*
G01*
X141400000Y-79645000D02*
X141400000Y-79245000D01*
X141400000Y-79645000D02*
X141800000Y-79645000D01*
X144600000Y-79645000D02*
X144600000Y-79245000D01*
X144600000Y-79645000D02*
X144200000Y-79645000D01*
X144600000Y-76445000D02*
X144600000Y-76845000D01*
X144600000Y-76445000D02*
X144200000Y-76445000D01*
X141400000Y-76445000D02*
X141800000Y-76445000D01*
X110700000Y-116950000D02*
X110700000Y-118850000D01*
X111800000Y-116950000D02*
X111800000Y-118850000D01*
X111250000Y-117850000D02*
X111250000Y-118300000D01*
X111500000Y-117800000D02*
X111000000Y-117800000D01*
X111250000Y-117800000D02*
X111500000Y-118050000D01*
X111500000Y-118050000D02*
X111000000Y-118050000D01*
X111000000Y-118050000D02*
X111250000Y-117800000D01*
X113115000Y-118550000D02*
X113115000Y-117550000D01*
X114465000Y-117550000D02*
X114465000Y-118550000D01*
X161645000Y-97865000D02*
X161145000Y-97365000D01*
X161645000Y-99365000D02*
X161645000Y-97365000D01*
X161645000Y-97365000D02*
X158645000Y-97365000D01*
X158645000Y-97365000D02*
X158645000Y-99365000D01*
X158645000Y-99365000D02*
X161645000Y-99365000D01*
X116920000Y-122120000D02*
X116920000Y-117620000D01*
X116920000Y-117620000D02*
X122820000Y-117620000D01*
X122820000Y-117620000D02*
X122820000Y-122120000D01*
X122820000Y-122120000D02*
X116920000Y-122120000D01*
X119370000Y-117620000D02*
X119370000Y-118120000D01*
X119370000Y-118120000D02*
X117420000Y-118120000D01*
X117420000Y-118120000D02*
X117420000Y-121620000D01*
X117420000Y-121620000D02*
X122320000Y-121620000D01*
X122320000Y-121620000D02*
X122320000Y-118120000D01*
X122320000Y-118120000D02*
X120370000Y-118120000D01*
X120370000Y-118120000D02*
X120370000Y-117620000D01*
X116920000Y-118820000D02*
X117420000Y-118820000D01*
X116920000Y-120120000D02*
X117420000Y-120120000D01*
X122320000Y-118820000D02*
X122820000Y-118820000D01*
X122320000Y-120120000D02*
X122820000Y-120120000D01*
X118570000Y-117620000D02*
X118570000Y-117420000D01*
X118570000Y-117420000D02*
X118270000Y-117420000D01*
X118270000Y-117420000D02*
X118270000Y-117620000D01*
X118570000Y-117520000D02*
X118270000Y-117520000D01*
X119770000Y-121620000D02*
X119770000Y-121120000D01*
X119770000Y-121120000D02*
X119970000Y-121120000D01*
X119970000Y-121120000D02*
X119970000Y-121620000D01*
X119870000Y-121620000D02*
X119870000Y-121120000D01*
X125175000Y-122120000D02*
X125175000Y-117620000D01*
X125175000Y-117620000D02*
X131075000Y-117620000D01*
X131075000Y-117620000D02*
X131075000Y-122120000D01*
X131075000Y-122120000D02*
X125175000Y-122120000D01*
X127625000Y-117620000D02*
X127625000Y-118120000D01*
X127625000Y-118120000D02*
X125675000Y-118120000D01*
X125675000Y-118120000D02*
X125675000Y-121620000D01*
X125675000Y-121620000D02*
X130575000Y-121620000D01*
X130575000Y-121620000D02*
X130575000Y-118120000D01*
X130575000Y-118120000D02*
X128625000Y-118120000D01*
X128625000Y-118120000D02*
X128625000Y-117620000D01*
X125175000Y-118820000D02*
X125675000Y-118820000D01*
X125175000Y-120120000D02*
X125675000Y-120120000D01*
X130575000Y-118820000D02*
X131075000Y-118820000D01*
X130575000Y-120120000D02*
X131075000Y-120120000D01*
X126825000Y-117620000D02*
X126825000Y-117420000D01*
X126825000Y-117420000D02*
X126525000Y-117420000D01*
X126525000Y-117420000D02*
X126525000Y-117620000D01*
X126825000Y-117520000D02*
X126525000Y-117520000D01*
X128025000Y-121620000D02*
X128025000Y-121120000D01*
X128025000Y-121120000D02*
X128225000Y-121120000D01*
X128225000Y-121120000D02*
X128225000Y-121620000D01*
X128125000Y-121620000D02*
X128125000Y-121120000D01*
X140670000Y-118367500D02*
G75*
G03X140670000Y-118367500I-250000J0D01*
G01*
X139820000Y-121917500D02*
X136020000Y-121917500D01*
X140920000Y-120017500D02*
X140920000Y-119017500D01*
X140920000Y-119017500D02*
X140020000Y-119017500D01*
X140420000Y-119017500D02*
X140420000Y-120017500D01*
X140420000Y-120017500D02*
X140420000Y-120017500D01*
X140420000Y-120017500D02*
X140420000Y-119017500D01*
X140420000Y-119017500D02*
X140420000Y-119017500D01*
X140420000Y-119617500D02*
X140420000Y-119617500D01*
X140420000Y-119617500D02*
X140920000Y-119617500D01*
X140920000Y-119617500D02*
X140920000Y-119617500D01*
X140920000Y-119617500D02*
X140420000Y-119617500D01*
X134920000Y-120017500D02*
X134920000Y-119017500D01*
X134920000Y-119017500D02*
X135820000Y-119017500D01*
X135420000Y-119017500D02*
X135420000Y-120017500D01*
X135420000Y-120017500D02*
X135420000Y-120017500D01*
X135420000Y-120017500D02*
X135420000Y-119017500D01*
X135420000Y-119017500D02*
X135420000Y-119017500D01*
X135420000Y-119617500D02*
X135420000Y-119617500D01*
X135420000Y-119617500D02*
X134920000Y-119617500D01*
X134920000Y-119617500D02*
X134920000Y-119617500D01*
X134920000Y-119617500D02*
X135420000Y-119617500D01*
X139820000Y-121017500D02*
X139820000Y-121517500D01*
X139820000Y-121517500D02*
X136020000Y-121517500D01*
X136020000Y-121517500D02*
X136020000Y-121017500D01*
X139820000Y-120417500D02*
X139820000Y-119767500D01*
X139820000Y-119767500D02*
X136020000Y-119767500D01*
X136020000Y-119767500D02*
X136020000Y-120417500D01*
X139420000Y-121017500D02*
X139420000Y-120817500D01*
X138420000Y-121017500D02*
X138420000Y-120817500D01*
X137420000Y-121017500D02*
X137420000Y-120817500D01*
X136420000Y-121017500D02*
X136420000Y-120817500D01*
X127355000Y-97865000D02*
X126855000Y-97365000D01*
X127355000Y-99365000D02*
X127355000Y-97365000D01*
X127355000Y-97365000D02*
X124355000Y-97365000D01*
X124355000Y-97365000D02*
X124355000Y-99365000D01*
X124355000Y-99365000D02*
X127355000Y-99365000D01*
X130610000Y-109120000D02*
X130610000Y-104120000D01*
X130610000Y-104120000D02*
X124910000Y-104120000D01*
X124910000Y-104120000D02*
X124910000Y-109120000D01*
X124910000Y-109120000D02*
X130610000Y-109120000D01*
X143531905Y-118502381D02*
X143531905Y-117502381D01*
X143912858Y-117502381D01*
X144008096Y-117550000D01*
X144055715Y-117597619D01*
X144103334Y-117692857D01*
X144103334Y-117835714D01*
X144055715Y-117930952D01*
X144008096Y-117978571D01*
X143912858Y-118026190D01*
X143531905Y-118026190D01*
X145008096Y-117502381D02*
X144531905Y-117502381D01*
X144484286Y-117978571D01*
X144531905Y-117930952D01*
X144627143Y-117883333D01*
X144865239Y-117883333D01*
X144960477Y-117930952D01*
X145008096Y-117978571D01*
X145055715Y-118073810D01*
X145055715Y-118311905D01*
X145008096Y-118407143D01*
X144960477Y-118454762D01*
X144865239Y-118502381D01*
X144627143Y-118502381D01*
X144531905Y-118454762D01*
X144484286Y-118407143D01*
X133355689Y-108514389D02*
X133355689Y-108581732D01*
X133288345Y-108716419D01*
X133221002Y-108783763D01*
X133086314Y-108851107D01*
X132951627Y-108851107D01*
X132850612Y-108817435D01*
X132682254Y-108716420D01*
X132581238Y-108615404D01*
X132480223Y-108447045D01*
X132446551Y-108346030D01*
X132446551Y-108211343D01*
X132513895Y-108076656D01*
X132581238Y-108009312D01*
X132715925Y-107941969D01*
X132783269Y-107941969D01*
X134096467Y-107908297D02*
X133692406Y-108312359D01*
X133894436Y-108110328D02*
X133187329Y-107403222D01*
X133221001Y-107571580D01*
X133221001Y-107706267D01*
X133187329Y-107807282D01*
X139708611Y-112342688D02*
X139641268Y-112342688D01*
X139506581Y-112275344D01*
X139439237Y-112208001D01*
X139371893Y-112073313D01*
X139371893Y-111938626D01*
X139405565Y-111837611D01*
X139506580Y-111669253D01*
X139607596Y-111568237D01*
X139775955Y-111467222D01*
X139876970Y-111433550D01*
X140011657Y-111433550D01*
X140146344Y-111500894D01*
X140213688Y-111568237D01*
X140281031Y-111702924D01*
X140281031Y-111770268D01*
X140550405Y-112039641D02*
X140617748Y-112039641D01*
X140718763Y-112073313D01*
X140887123Y-112241672D01*
X140920794Y-112342688D01*
X140920794Y-112410031D01*
X140887123Y-112511046D01*
X140819779Y-112578390D01*
X140685092Y-112645733D01*
X139876970Y-112645733D01*
X140314703Y-113083466D01*
X154133114Y-106681185D02*
X154065771Y-106681185D01*
X153931084Y-106613841D01*
X153863740Y-106546498D01*
X153796396Y-106411810D01*
X153796396Y-106277123D01*
X153830068Y-106176108D01*
X153931083Y-106007750D01*
X154032099Y-105906734D01*
X154200458Y-105805719D01*
X154301473Y-105772047D01*
X154436160Y-105772047D01*
X154570847Y-105839391D01*
X154638191Y-105906734D01*
X154705534Y-106041421D01*
X154705534Y-106108765D01*
X155008579Y-106277123D02*
X155446313Y-106714856D01*
X154941236Y-106748527D01*
X155042252Y-106849543D01*
X155075924Y-106950558D01*
X155075924Y-107017902D01*
X155042251Y-107118918D01*
X154873893Y-107287276D01*
X154772877Y-107320948D01*
X154705534Y-107320948D01*
X154604519Y-107287276D01*
X154402488Y-107085245D01*
X154368816Y-106984230D01*
X154368816Y-106916887D01*
X149611688Y-97592389D02*
X149611688Y-97659732D01*
X149544344Y-97794419D01*
X149477001Y-97861763D01*
X149342313Y-97929107D01*
X149207626Y-97929107D01*
X149106611Y-97895435D01*
X148938253Y-97794420D01*
X148837237Y-97693404D01*
X148736222Y-97525045D01*
X148702550Y-97424030D01*
X148702550Y-97289343D01*
X148769894Y-97154656D01*
X148837237Y-97087312D01*
X148971924Y-97019969D01*
X149039268Y-97019969D01*
X149813718Y-96582236D02*
X150285123Y-97053641D01*
X149375985Y-96481222D02*
X149712703Y-97154657D01*
X150150436Y-96716924D01*
X135641688Y-98608389D02*
X135641688Y-98675732D01*
X135574344Y-98810419D01*
X135507001Y-98877763D01*
X135372313Y-98945107D01*
X135237626Y-98945107D01*
X135136611Y-98911435D01*
X134968253Y-98810420D01*
X134867237Y-98709404D01*
X134766222Y-98541045D01*
X134732550Y-98440030D01*
X134732550Y-98305343D01*
X134799894Y-98170656D01*
X134867237Y-98103312D01*
X135001924Y-98035969D01*
X135069268Y-98035969D01*
X135641688Y-97328862D02*
X135304970Y-97665580D01*
X135608015Y-98035969D01*
X135608015Y-97968626D01*
X135641687Y-97867610D01*
X135810046Y-97699251D01*
X135911061Y-97665579D01*
X135978405Y-97665579D01*
X136079421Y-97699252D01*
X136247779Y-97867610D01*
X136281451Y-97968626D01*
X136281451Y-98035969D01*
X136247779Y-98136984D01*
X136079420Y-98305343D01*
X135978405Y-98339015D01*
X135911061Y-98339015D01*
X137422611Y-97356688D02*
X137355268Y-97356688D01*
X137220581Y-97289344D01*
X137153237Y-97222001D01*
X137085893Y-97087313D01*
X137085893Y-96952626D01*
X137119565Y-96851611D01*
X137220580Y-96683253D01*
X137321596Y-96582237D01*
X137489955Y-96481222D01*
X137590970Y-96447550D01*
X137725657Y-96447550D01*
X137860344Y-96514894D01*
X137927688Y-96582237D01*
X137995031Y-96716924D01*
X137995031Y-96784268D01*
X138668466Y-97323016D02*
X138533778Y-97188328D01*
X138432763Y-97154657D01*
X138365420Y-97154657D01*
X138197061Y-97188328D01*
X138028703Y-97289343D01*
X137759328Y-97558718D01*
X137725657Y-97659733D01*
X137725657Y-97727076D01*
X137759328Y-97828092D01*
X137894016Y-97962779D01*
X137995031Y-97996451D01*
X138062374Y-97996451D01*
X138163390Y-97962779D01*
X138331748Y-97794421D01*
X138365421Y-97693405D01*
X138365421Y-97626061D01*
X138331749Y-97525046D01*
X138197061Y-97390359D01*
X138096046Y-97356687D01*
X138028703Y-97356687D01*
X137927687Y-97390359D01*
X118211143Y-113136666D02*
X118258762Y-113184285D01*
X118306381Y-113327142D01*
X118306381Y-113422380D01*
X118258762Y-113565238D01*
X118163524Y-113660476D01*
X118068286Y-113708095D01*
X117877810Y-113755714D01*
X117734952Y-113755714D01*
X117544476Y-113708095D01*
X117449238Y-113660476D01*
X117354000Y-113565238D01*
X117306381Y-113422380D01*
X117306381Y-113327142D01*
X117354000Y-113184285D01*
X117401619Y-113136666D01*
X117306381Y-112803333D02*
X117306381Y-112136666D01*
X118306381Y-112565238D01*
X138311611Y-110945688D02*
X138244268Y-110945688D01*
X138109581Y-110878344D01*
X138042237Y-110811001D01*
X137974893Y-110676313D01*
X137974893Y-110541626D01*
X138008565Y-110440611D01*
X138109580Y-110272253D01*
X138210596Y-110171237D01*
X138378955Y-110070222D01*
X138479970Y-110036550D01*
X138614657Y-110036550D01*
X138749344Y-110103894D01*
X138816688Y-110171237D01*
X138884031Y-110305924D01*
X138884031Y-110373268D01*
X139052390Y-111013030D02*
X139018718Y-110912015D01*
X139018718Y-110844672D01*
X139052390Y-110743657D01*
X139086061Y-110709985D01*
X139187076Y-110676313D01*
X139254420Y-110676313D01*
X139355435Y-110709985D01*
X139490123Y-110844672D01*
X139523794Y-110945688D01*
X139523794Y-111013031D01*
X139490123Y-111114046D01*
X139456451Y-111147718D01*
X139355436Y-111181390D01*
X139288092Y-111181390D01*
X139187077Y-111147718D01*
X139052390Y-111013030D01*
X138951374Y-110979359D01*
X138884031Y-110979359D01*
X138783015Y-111013031D01*
X138648328Y-111147718D01*
X138614657Y-111248733D01*
X138614657Y-111316076D01*
X138648328Y-111417092D01*
X138783016Y-111551779D01*
X138884031Y-111585451D01*
X138951374Y-111585451D01*
X139052390Y-111551779D01*
X139187076Y-111417092D01*
X139220749Y-111316076D01*
X139220749Y-111248733D01*
X139187077Y-111147718D01*
X152863114Y-107951185D02*
X152795771Y-107951185D01*
X152661084Y-107883841D01*
X152593740Y-107816498D01*
X152526396Y-107681810D01*
X152526396Y-107547123D01*
X152560068Y-107446108D01*
X152661083Y-107277750D01*
X152762099Y-107176734D01*
X152930458Y-107075719D01*
X153031473Y-107042047D01*
X153166160Y-107042047D01*
X153300847Y-107109391D01*
X153368191Y-107176734D01*
X153435534Y-107311421D01*
X153435534Y-107378765D01*
X153132488Y-108355245D02*
X153267175Y-108489932D01*
X153368191Y-108523604D01*
X153435534Y-108523604D01*
X153603893Y-108489933D01*
X153772251Y-108388918D01*
X154041626Y-108119543D01*
X154075297Y-108018528D01*
X154075297Y-107951185D01*
X154041626Y-107850169D01*
X153906938Y-107715482D01*
X153805923Y-107681810D01*
X153738579Y-107681810D01*
X153637564Y-107715482D01*
X153469206Y-107883840D01*
X153435534Y-107984856D01*
X153435533Y-108052200D01*
X153469205Y-108153215D01*
X153603893Y-108287902D01*
X153704908Y-108321574D01*
X153772252Y-108321573D01*
X153873267Y-108287902D01*
X126593143Y-102182857D02*
X126640762Y-102230476D01*
X126688381Y-102373333D01*
X126688381Y-102468571D01*
X126640762Y-102611429D01*
X126545524Y-102706667D01*
X126450286Y-102754286D01*
X126259810Y-102801905D01*
X126116952Y-102801905D01*
X125926476Y-102754286D01*
X125831238Y-102706667D01*
X125736000Y-102611429D01*
X125688381Y-102468571D01*
X125688381Y-102373333D01*
X125736000Y-102230476D01*
X125783619Y-102182857D01*
X126688381Y-101230476D02*
X126688381Y-101801905D01*
X126688381Y-101516191D02*
X125688381Y-101516191D01*
X125831238Y-101611429D01*
X125926476Y-101706667D01*
X125974095Y-101801905D01*
X125688381Y-100611429D02*
X125688381Y-100516190D01*
X125736000Y-100420952D01*
X125783619Y-100373333D01*
X125878857Y-100325714D01*
X126069333Y-100278095D01*
X126307429Y-100278095D01*
X126497905Y-100325714D01*
X126593143Y-100373333D01*
X126640762Y-100420952D01*
X126688381Y-100516190D01*
X126688381Y-100611429D01*
X126640762Y-100706667D01*
X126593143Y-100754286D01*
X126497905Y-100801905D01*
X126307429Y-100849524D01*
X126069333Y-100849524D01*
X125878857Y-100801905D01*
X125783619Y-100754286D01*
X125736000Y-100706667D01*
X125688381Y-100611429D01*
X163947143Y-103167143D02*
X163899524Y-103214762D01*
X163756667Y-103262381D01*
X163661429Y-103262381D01*
X163518571Y-103214762D01*
X163423333Y-103119524D01*
X163375714Y-103024286D01*
X163328095Y-102833810D01*
X163328095Y-102690952D01*
X163375714Y-102500476D01*
X163423333Y-102405238D01*
X163518571Y-102310000D01*
X163661429Y-102262381D01*
X163756667Y-102262381D01*
X163899524Y-102310000D01*
X163947143Y-102357619D01*
X164899524Y-103262381D02*
X164328095Y-103262381D01*
X164613809Y-103262381D02*
X164613809Y-102262381D01*
X164518571Y-102405238D01*
X164423333Y-102500476D01*
X164328095Y-102548095D01*
X165851905Y-103262381D02*
X165280476Y-103262381D01*
X165566190Y-103262381D02*
X165566190Y-102262381D01*
X165470952Y-102405238D01*
X165375714Y-102500476D01*
X165280476Y-102548095D01*
X120767143Y-106972143D02*
X120719524Y-107019762D01*
X120576667Y-107067381D01*
X120481429Y-107067381D01*
X120338571Y-107019762D01*
X120243333Y-106924524D01*
X120195714Y-106829286D01*
X120148095Y-106638810D01*
X120148095Y-106495952D01*
X120195714Y-106305476D01*
X120243333Y-106210238D01*
X120338571Y-106115000D01*
X120481429Y-106067381D01*
X120576667Y-106067381D01*
X120719524Y-106115000D01*
X120767143Y-106162619D01*
X121719524Y-107067381D02*
X121148095Y-107067381D01*
X121433809Y-107067381D02*
X121433809Y-106067381D01*
X121338571Y-106210238D01*
X121243333Y-106305476D01*
X121148095Y-106353095D01*
X122100476Y-106162619D02*
X122148095Y-106115000D01*
X122243333Y-106067381D01*
X122481429Y-106067381D01*
X122576667Y-106115000D01*
X122624286Y-106162619D01*
X122671905Y-106257857D01*
X122671905Y-106353095D01*
X122624286Y-106495952D01*
X122052857Y-107067381D01*
X122671905Y-107067381D01*
X120767143Y-110147143D02*
X120719524Y-110194762D01*
X120576667Y-110242381D01*
X120481429Y-110242381D01*
X120338571Y-110194762D01*
X120243333Y-110099524D01*
X120195714Y-110004286D01*
X120148095Y-109813810D01*
X120148095Y-109670952D01*
X120195714Y-109480476D01*
X120243333Y-109385238D01*
X120338571Y-109290000D01*
X120481429Y-109242381D01*
X120576667Y-109242381D01*
X120719524Y-109290000D01*
X120767143Y-109337619D01*
X121719524Y-110242381D02*
X121148095Y-110242381D01*
X121433809Y-110242381D02*
X121433809Y-109242381D01*
X121338571Y-109385238D01*
X121243333Y-109480476D01*
X121148095Y-109528095D01*
X122052857Y-109242381D02*
X122671905Y-109242381D01*
X122338571Y-109623333D01*
X122481429Y-109623333D01*
X122576667Y-109670952D01*
X122624286Y-109718571D01*
X122671905Y-109813810D01*
X122671905Y-110051905D01*
X122624286Y-110147143D01*
X122576667Y-110194762D01*
X122481429Y-110242381D01*
X122195714Y-110242381D01*
X122100476Y-110194762D01*
X122052857Y-110147143D01*
X120767143Y-113522143D02*
X120719524Y-113569762D01*
X120576667Y-113617381D01*
X120481429Y-113617381D01*
X120338571Y-113569762D01*
X120243333Y-113474524D01*
X120195714Y-113379286D01*
X120148095Y-113188810D01*
X120148095Y-113045952D01*
X120195714Y-112855476D01*
X120243333Y-112760238D01*
X120338571Y-112665000D01*
X120481429Y-112617381D01*
X120576667Y-112617381D01*
X120719524Y-112665000D01*
X120767143Y-112712619D01*
X121719524Y-113617381D02*
X121148095Y-113617381D01*
X121433809Y-113617381D02*
X121433809Y-112617381D01*
X121338571Y-112760238D01*
X121243333Y-112855476D01*
X121148095Y-112903095D01*
X122576667Y-112950714D02*
X122576667Y-113617381D01*
X122338571Y-112569762D02*
X122100476Y-113284048D01*
X122719524Y-113284048D01*
X141071143Y-56208857D02*
X141118762Y-56256476D01*
X141166381Y-56399333D01*
X141166381Y-56494571D01*
X141118762Y-56637429D01*
X141023524Y-56732667D01*
X140928286Y-56780286D01*
X140737810Y-56827905D01*
X140594952Y-56827905D01*
X140404476Y-56780286D01*
X140309238Y-56732667D01*
X140214000Y-56637429D01*
X140166381Y-56494571D01*
X140166381Y-56399333D01*
X140214000Y-56256476D01*
X140261619Y-56208857D01*
X141166381Y-55256476D02*
X141166381Y-55827905D01*
X141166381Y-55542191D02*
X140166381Y-55542191D01*
X140309238Y-55637429D01*
X140404476Y-55732667D01*
X140452095Y-55827905D01*
X140166381Y-54351714D02*
X140166381Y-54827905D01*
X140642571Y-54875524D01*
X140594952Y-54827905D01*
X140547333Y-54732667D01*
X140547333Y-54494571D01*
X140594952Y-54399333D01*
X140642571Y-54351714D01*
X140737810Y-54304095D01*
X140975905Y-54304095D01*
X141071143Y-54351714D01*
X141118762Y-54399333D01*
X141166381Y-54494571D01*
X141166381Y-54732667D01*
X141118762Y-54827905D01*
X141071143Y-54875524D01*
X141325143Y-64463857D02*
X141372762Y-64511476D01*
X141420381Y-64654333D01*
X141420381Y-64749571D01*
X141372762Y-64892429D01*
X141277524Y-64987667D01*
X141182286Y-65035286D01*
X140991810Y-65082905D01*
X140848952Y-65082905D01*
X140658476Y-65035286D01*
X140563238Y-64987667D01*
X140468000Y-64892429D01*
X140420381Y-64749571D01*
X140420381Y-64654333D01*
X140468000Y-64511476D01*
X140515619Y-64463857D01*
X141420381Y-63511476D02*
X141420381Y-64082905D01*
X141420381Y-63797191D02*
X140420381Y-63797191D01*
X140563238Y-63892429D01*
X140658476Y-63987667D01*
X140706095Y-64082905D01*
X140420381Y-62654333D02*
X140420381Y-62844810D01*
X140468000Y-62940048D01*
X140515619Y-62987667D01*
X140658476Y-63082905D01*
X140848952Y-63130524D01*
X141229905Y-63130524D01*
X141325143Y-63082905D01*
X141372762Y-63035286D01*
X141420381Y-62940048D01*
X141420381Y-62749571D01*
X141372762Y-62654333D01*
X141325143Y-62606714D01*
X141229905Y-62559095D01*
X140991810Y-62559095D01*
X140896571Y-62606714D01*
X140848952Y-62654333D01*
X140801333Y-62749571D01*
X140801333Y-62940048D01*
X140848952Y-63035286D01*
X140896571Y-63082905D01*
X140991810Y-63130524D01*
X143357143Y-56208857D02*
X143404762Y-56256476D01*
X143452381Y-56399333D01*
X143452381Y-56494571D01*
X143404762Y-56637429D01*
X143309524Y-56732667D01*
X143214286Y-56780286D01*
X143023810Y-56827905D01*
X142880952Y-56827905D01*
X142690476Y-56780286D01*
X142595238Y-56732667D01*
X142500000Y-56637429D01*
X142452381Y-56494571D01*
X142452381Y-56399333D01*
X142500000Y-56256476D01*
X142547619Y-56208857D01*
X143452381Y-55256476D02*
X143452381Y-55827905D01*
X143452381Y-55542191D02*
X142452381Y-55542191D01*
X142595238Y-55637429D01*
X142690476Y-55732667D01*
X142738095Y-55827905D01*
X142452381Y-54923143D02*
X142452381Y-54256476D01*
X143452381Y-54685048D01*
X164820143Y-105992857D02*
X164867762Y-106040476D01*
X164915381Y-106183333D01*
X164915381Y-106278571D01*
X164867762Y-106421429D01*
X164772524Y-106516667D01*
X164677286Y-106564286D01*
X164486810Y-106611905D01*
X164343952Y-106611905D01*
X164153476Y-106564286D01*
X164058238Y-106516667D01*
X163963000Y-106421429D01*
X163915381Y-106278571D01*
X163915381Y-106183333D01*
X163963000Y-106040476D01*
X164010619Y-105992857D01*
X164915381Y-105040476D02*
X164915381Y-105611905D01*
X164915381Y-105326191D02*
X163915381Y-105326191D01*
X164058238Y-105421429D01*
X164153476Y-105516667D01*
X164201095Y-105611905D01*
X164343952Y-104469048D02*
X164296333Y-104564286D01*
X164248714Y-104611905D01*
X164153476Y-104659524D01*
X164105857Y-104659524D01*
X164010619Y-104611905D01*
X163963000Y-104564286D01*
X163915381Y-104469048D01*
X163915381Y-104278571D01*
X163963000Y-104183333D01*
X164010619Y-104135714D01*
X164105857Y-104088095D01*
X164153476Y-104088095D01*
X164248714Y-104135714D01*
X164296333Y-104183333D01*
X164343952Y-104278571D01*
X164343952Y-104469048D01*
X164391571Y-104564286D01*
X164439190Y-104611905D01*
X164534429Y-104659524D01*
X164724905Y-104659524D01*
X164820143Y-104611905D01*
X164867762Y-104564286D01*
X164915381Y-104469048D01*
X164915381Y-104278571D01*
X164867762Y-104183333D01*
X164820143Y-104135714D01*
X164724905Y-104088095D01*
X164534429Y-104088095D01*
X164439190Y-104135714D01*
X164391571Y-104183333D01*
X164343952Y-104278571D01*
X156052143Y-105357857D02*
X156099762Y-105405476D01*
X156147381Y-105548333D01*
X156147381Y-105643571D01*
X156099762Y-105786429D01*
X156004524Y-105881667D01*
X155909286Y-105929286D01*
X155718810Y-105976905D01*
X155575952Y-105976905D01*
X155385476Y-105929286D01*
X155290238Y-105881667D01*
X155195000Y-105786429D01*
X155147381Y-105643571D01*
X155147381Y-105548333D01*
X155195000Y-105405476D01*
X155242619Y-105357857D01*
X156147381Y-104405476D02*
X156147381Y-104976905D01*
X156147381Y-104691191D02*
X155147381Y-104691191D01*
X155290238Y-104786429D01*
X155385476Y-104881667D01*
X155433095Y-104976905D01*
X156147381Y-103929286D02*
X156147381Y-103738810D01*
X156099762Y-103643571D01*
X156052143Y-103595952D01*
X155909286Y-103500714D01*
X155718810Y-103453095D01*
X155337857Y-103453095D01*
X155242619Y-103500714D01*
X155195000Y-103548333D01*
X155147381Y-103643571D01*
X155147381Y-103834048D01*
X155195000Y-103929286D01*
X155242619Y-103976905D01*
X155337857Y-104024524D01*
X155575952Y-104024524D01*
X155671190Y-103976905D01*
X155718810Y-103929286D01*
X155766429Y-103834048D01*
X155766429Y-103643571D01*
X155718810Y-103548333D01*
X155671190Y-103500714D01*
X155575952Y-103453095D01*
X138531143Y-67384857D02*
X138578762Y-67432476D01*
X138626381Y-67575333D01*
X138626381Y-67670571D01*
X138578762Y-67813429D01*
X138483524Y-67908667D01*
X138388286Y-67956286D01*
X138197810Y-68003905D01*
X138054952Y-68003905D01*
X137864476Y-67956286D01*
X137769238Y-67908667D01*
X137674000Y-67813429D01*
X137626381Y-67670571D01*
X137626381Y-67575333D01*
X137674000Y-67432476D01*
X137721619Y-67384857D01*
X137721619Y-67003905D02*
X137674000Y-66956286D01*
X137626381Y-66861048D01*
X137626381Y-66622952D01*
X137674000Y-66527714D01*
X137721619Y-66480095D01*
X137816857Y-66432476D01*
X137912095Y-66432476D01*
X138054952Y-66480095D01*
X138626381Y-67051524D01*
X138626381Y-66432476D01*
X137626381Y-65813429D02*
X137626381Y-65718190D01*
X137674000Y-65622952D01*
X137721619Y-65575333D01*
X137816857Y-65527714D01*
X138007333Y-65480095D01*
X138245429Y-65480095D01*
X138435905Y-65527714D01*
X138531143Y-65575333D01*
X138578762Y-65622952D01*
X138626381Y-65718190D01*
X138626381Y-65813429D01*
X138578762Y-65908667D01*
X138531143Y-65956286D01*
X138435905Y-66003905D01*
X138245429Y-66051524D01*
X138007333Y-66051524D01*
X137816857Y-66003905D01*
X137721619Y-65956286D01*
X137674000Y-65908667D01*
X137626381Y-65813429D01*
X134467143Y-64082857D02*
X134514762Y-64130476D01*
X134562381Y-64273333D01*
X134562381Y-64368571D01*
X134514762Y-64511429D01*
X134419524Y-64606667D01*
X134324286Y-64654286D01*
X134133810Y-64701905D01*
X133990952Y-64701905D01*
X133800476Y-64654286D01*
X133705238Y-64606667D01*
X133610000Y-64511429D01*
X133562381Y-64368571D01*
X133562381Y-64273333D01*
X133610000Y-64130476D01*
X133657619Y-64082857D01*
X133657619Y-63701905D02*
X133610000Y-63654286D01*
X133562381Y-63559048D01*
X133562381Y-63320952D01*
X133610000Y-63225714D01*
X133657619Y-63178095D01*
X133752857Y-63130476D01*
X133848095Y-63130476D01*
X133990952Y-63178095D01*
X134562381Y-63749524D01*
X134562381Y-63130476D01*
X134562381Y-62178095D02*
X134562381Y-62749524D01*
X134562381Y-62463810D02*
X133562381Y-62463810D01*
X133705238Y-62559048D01*
X133800476Y-62654286D01*
X133848095Y-62749524D01*
X138293143Y-71925143D02*
X138245524Y-71972762D01*
X138102667Y-72020381D01*
X138007429Y-72020381D01*
X137864571Y-71972762D01*
X137769333Y-71877524D01*
X137721714Y-71782286D01*
X137674095Y-71591810D01*
X137674095Y-71448952D01*
X137721714Y-71258476D01*
X137769333Y-71163238D01*
X137864571Y-71068000D01*
X138007429Y-71020381D01*
X138102667Y-71020381D01*
X138245524Y-71068000D01*
X138293143Y-71115619D01*
X138674095Y-71115619D02*
X138721714Y-71068000D01*
X138816952Y-71020381D01*
X139055048Y-71020381D01*
X139150286Y-71068000D01*
X139197905Y-71115619D01*
X139245524Y-71210857D01*
X139245524Y-71306095D01*
X139197905Y-71448952D01*
X138626476Y-72020381D01*
X139245524Y-72020381D01*
X139626476Y-71115619D02*
X139674095Y-71068000D01*
X139769333Y-71020381D01*
X140007429Y-71020381D01*
X140102667Y-71068000D01*
X140150286Y-71115619D01*
X140197905Y-71210857D01*
X140197905Y-71306095D01*
X140150286Y-71448952D01*
X139578857Y-72020381D01*
X140197905Y-72020381D01*
X116687143Y-81989857D02*
X116734762Y-82037476D01*
X116782381Y-82180333D01*
X116782381Y-82275571D01*
X116734762Y-82418429D01*
X116639524Y-82513667D01*
X116544286Y-82561286D01*
X116353810Y-82608905D01*
X116210952Y-82608905D01*
X116020476Y-82561286D01*
X115925238Y-82513667D01*
X115830000Y-82418429D01*
X115782381Y-82275571D01*
X115782381Y-82180333D01*
X115830000Y-82037476D01*
X115877619Y-81989857D01*
X115877619Y-81608905D02*
X115830000Y-81561286D01*
X115782381Y-81466048D01*
X115782381Y-81227952D01*
X115830000Y-81132714D01*
X115877619Y-81085095D01*
X115972857Y-81037476D01*
X116068095Y-81037476D01*
X116210952Y-81085095D01*
X116782381Y-81656524D01*
X116782381Y-81037476D01*
X115782381Y-80704143D02*
X115782381Y-80085095D01*
X116163333Y-80418429D01*
X116163333Y-80275571D01*
X116210952Y-80180333D01*
X116258571Y-80132714D01*
X116353810Y-80085095D01*
X116591905Y-80085095D01*
X116687143Y-80132714D01*
X116734762Y-80180333D01*
X116782381Y-80275571D01*
X116782381Y-80561286D01*
X116734762Y-80656524D01*
X116687143Y-80704143D01*
X145532143Y-72179143D02*
X145484524Y-72226762D01*
X145341667Y-72274381D01*
X145246429Y-72274381D01*
X145103571Y-72226762D01*
X145008333Y-72131524D01*
X144960714Y-72036286D01*
X144913095Y-71845810D01*
X144913095Y-71702952D01*
X144960714Y-71512476D01*
X145008333Y-71417238D01*
X145103571Y-71322000D01*
X145246429Y-71274381D01*
X145341667Y-71274381D01*
X145484524Y-71322000D01*
X145532143Y-71369619D01*
X145913095Y-71369619D02*
X145960714Y-71322000D01*
X146055952Y-71274381D01*
X146294048Y-71274381D01*
X146389286Y-71322000D01*
X146436905Y-71369619D01*
X146484524Y-71464857D01*
X146484524Y-71560095D01*
X146436905Y-71702952D01*
X145865476Y-72274381D01*
X146484524Y-72274381D01*
X147341667Y-71607714D02*
X147341667Y-72274381D01*
X147103571Y-71226762D02*
X146865476Y-71941048D01*
X147484524Y-71941048D01*
X170154143Y-81862857D02*
X170201762Y-81910476D01*
X170249381Y-82053333D01*
X170249381Y-82148571D01*
X170201762Y-82291429D01*
X170106524Y-82386667D01*
X170011286Y-82434286D01*
X169820810Y-82481905D01*
X169677952Y-82481905D01*
X169487476Y-82434286D01*
X169392238Y-82386667D01*
X169297000Y-82291429D01*
X169249381Y-82148571D01*
X169249381Y-82053333D01*
X169297000Y-81910476D01*
X169344619Y-81862857D01*
X169344619Y-81481905D02*
X169297000Y-81434286D01*
X169249381Y-81339048D01*
X169249381Y-81100952D01*
X169297000Y-81005714D01*
X169344619Y-80958095D01*
X169439857Y-80910476D01*
X169535095Y-80910476D01*
X169677952Y-80958095D01*
X170249381Y-81529524D01*
X170249381Y-80910476D01*
X169249381Y-80005714D02*
X169249381Y-80481905D01*
X169725571Y-80529524D01*
X169677952Y-80481905D01*
X169630333Y-80386667D01*
X169630333Y-80148571D01*
X169677952Y-80053333D01*
X169725571Y-80005714D01*
X169820810Y-79958095D01*
X170058905Y-79958095D01*
X170154143Y-80005714D01*
X170201762Y-80053333D01*
X170249381Y-80148571D01*
X170249381Y-80386667D01*
X170201762Y-80481905D01*
X170154143Y-80529524D01*
X148310143Y-67130857D02*
X148357762Y-67178476D01*
X148405381Y-67321333D01*
X148405381Y-67416571D01*
X148357762Y-67559429D01*
X148262524Y-67654667D01*
X148167286Y-67702286D01*
X147976810Y-67749905D01*
X147833952Y-67749905D01*
X147643476Y-67702286D01*
X147548238Y-67654667D01*
X147453000Y-67559429D01*
X147405381Y-67416571D01*
X147405381Y-67321333D01*
X147453000Y-67178476D01*
X147500619Y-67130857D01*
X147500619Y-66749905D02*
X147453000Y-66702286D01*
X147405381Y-66607048D01*
X147405381Y-66368952D01*
X147453000Y-66273714D01*
X147500619Y-66226095D01*
X147595857Y-66178476D01*
X147691095Y-66178476D01*
X147833952Y-66226095D01*
X148405381Y-66797524D01*
X148405381Y-66178476D01*
X147405381Y-65321333D02*
X147405381Y-65511810D01*
X147453000Y-65607048D01*
X147500619Y-65654667D01*
X147643476Y-65749905D01*
X147833952Y-65797524D01*
X148214905Y-65797524D01*
X148310143Y-65749905D01*
X148357762Y-65702286D01*
X148405381Y-65607048D01*
X148405381Y-65416571D01*
X148357762Y-65321333D01*
X148310143Y-65273714D01*
X148214905Y-65226095D01*
X147976810Y-65226095D01*
X147881571Y-65273714D01*
X147833952Y-65321333D01*
X147786333Y-65416571D01*
X147786333Y-65607048D01*
X147833952Y-65702286D01*
X147881571Y-65749905D01*
X147976810Y-65797524D01*
X152374143Y-64209857D02*
X152421762Y-64257476D01*
X152469381Y-64400333D01*
X152469381Y-64495571D01*
X152421762Y-64638429D01*
X152326524Y-64733667D01*
X152231286Y-64781286D01*
X152040810Y-64828905D01*
X151897952Y-64828905D01*
X151707476Y-64781286D01*
X151612238Y-64733667D01*
X151517000Y-64638429D01*
X151469381Y-64495571D01*
X151469381Y-64400333D01*
X151517000Y-64257476D01*
X151564619Y-64209857D01*
X151564619Y-63828905D02*
X151517000Y-63781286D01*
X151469381Y-63686048D01*
X151469381Y-63447952D01*
X151517000Y-63352714D01*
X151564619Y-63305095D01*
X151659857Y-63257476D01*
X151755095Y-63257476D01*
X151897952Y-63305095D01*
X152469381Y-63876524D01*
X152469381Y-63257476D01*
X151469381Y-62924143D02*
X151469381Y-62257476D01*
X152469381Y-62686048D01*
X136261143Y-78148143D02*
X136213524Y-78195762D01*
X136070667Y-78243381D01*
X135975429Y-78243381D01*
X135832571Y-78195762D01*
X135737333Y-78100524D01*
X135689714Y-78005286D01*
X135642095Y-77814810D01*
X135642095Y-77671952D01*
X135689714Y-77481476D01*
X135737333Y-77386238D01*
X135832571Y-77291000D01*
X135975429Y-77243381D01*
X136070667Y-77243381D01*
X136213524Y-77291000D01*
X136261143Y-77338619D01*
X136642095Y-77338619D02*
X136689714Y-77291000D01*
X136784952Y-77243381D01*
X137023048Y-77243381D01*
X137118286Y-77291000D01*
X137165905Y-77338619D01*
X137213524Y-77433857D01*
X137213524Y-77529095D01*
X137165905Y-77671952D01*
X136594476Y-78243381D01*
X137213524Y-78243381D01*
X137784952Y-77671952D02*
X137689714Y-77624333D01*
X137642095Y-77576714D01*
X137594476Y-77481476D01*
X137594476Y-77433857D01*
X137642095Y-77338619D01*
X137689714Y-77291000D01*
X137784952Y-77243381D01*
X137975429Y-77243381D01*
X138070667Y-77291000D01*
X138118286Y-77338619D01*
X138165905Y-77433857D01*
X138165905Y-77481476D01*
X138118286Y-77576714D01*
X138070667Y-77624333D01*
X137975429Y-77671952D01*
X137784952Y-77671952D01*
X137689714Y-77719571D01*
X137642095Y-77767190D01*
X137594476Y-77862429D01*
X137594476Y-78052905D01*
X137642095Y-78148143D01*
X137689714Y-78195762D01*
X137784952Y-78243381D01*
X137975429Y-78243381D01*
X138070667Y-78195762D01*
X138118286Y-78148143D01*
X138165905Y-78052905D01*
X138165905Y-77862429D01*
X138118286Y-77767190D01*
X138070667Y-77719571D01*
X137975429Y-77671952D01*
X145897143Y-78052857D02*
X145944762Y-78100476D01*
X145992381Y-78243333D01*
X145992381Y-78338571D01*
X145944762Y-78481429D01*
X145849524Y-78576667D01*
X145754286Y-78624286D01*
X145563810Y-78671905D01*
X145420952Y-78671905D01*
X145230476Y-78624286D01*
X145135238Y-78576667D01*
X145040000Y-78481429D01*
X144992381Y-78338571D01*
X144992381Y-78243333D01*
X145040000Y-78100476D01*
X145087619Y-78052857D01*
X145087619Y-77671905D02*
X145040000Y-77624286D01*
X144992381Y-77529048D01*
X144992381Y-77290952D01*
X145040000Y-77195714D01*
X145087619Y-77148095D01*
X145182857Y-77100476D01*
X145278095Y-77100476D01*
X145420952Y-77148095D01*
X145992381Y-77719524D01*
X145992381Y-77100476D01*
X145992381Y-76624286D02*
X145992381Y-76433810D01*
X145944762Y-76338571D01*
X145897143Y-76290952D01*
X145754286Y-76195714D01*
X145563810Y-76148095D01*
X145182857Y-76148095D01*
X145087619Y-76195714D01*
X145040000Y-76243333D01*
X144992381Y-76338571D01*
X144992381Y-76529048D01*
X145040000Y-76624286D01*
X145087619Y-76671905D01*
X145182857Y-76719524D01*
X145420952Y-76719524D01*
X145516190Y-76671905D01*
X145563810Y-76624286D01*
X145611429Y-76529048D01*
X145611429Y-76338571D01*
X145563810Y-76243333D01*
X145516190Y-76195714D01*
X145420952Y-76148095D01*
X141071143Y-83132857D02*
X141118762Y-83180476D01*
X141166381Y-83323333D01*
X141166381Y-83418571D01*
X141118762Y-83561429D01*
X141023524Y-83656667D01*
X140928286Y-83704286D01*
X140737810Y-83751905D01*
X140594952Y-83751905D01*
X140404476Y-83704286D01*
X140309238Y-83656667D01*
X140214000Y-83561429D01*
X140166381Y-83418571D01*
X140166381Y-83323333D01*
X140214000Y-83180476D01*
X140261619Y-83132857D01*
X140166381Y-82799524D02*
X140166381Y-82180476D01*
X140547333Y-82513810D01*
X140547333Y-82370952D01*
X140594952Y-82275714D01*
X140642571Y-82228095D01*
X140737810Y-82180476D01*
X140975905Y-82180476D01*
X141071143Y-82228095D01*
X141118762Y-82275714D01*
X141166381Y-82370952D01*
X141166381Y-82656667D01*
X141118762Y-82751905D01*
X141071143Y-82799524D01*
X140166381Y-81561429D02*
X140166381Y-81466190D01*
X140214000Y-81370952D01*
X140261619Y-81323333D01*
X140356857Y-81275714D01*
X140547333Y-81228095D01*
X140785429Y-81228095D01*
X140975905Y-81275714D01*
X141071143Y-81323333D01*
X141118762Y-81370952D01*
X141166381Y-81466190D01*
X141166381Y-81561429D01*
X141118762Y-81656667D01*
X141071143Y-81704286D01*
X140975905Y-81751905D01*
X140785429Y-81799524D01*
X140547333Y-81799524D01*
X140356857Y-81751905D01*
X140261619Y-81704286D01*
X140214000Y-81656667D01*
X140166381Y-81561429D01*
X173472143Y-111930143D02*
X173424524Y-111977762D01*
X173281667Y-112025381D01*
X173186429Y-112025381D01*
X173043571Y-111977762D01*
X172948333Y-111882524D01*
X172900714Y-111787286D01*
X172853095Y-111596810D01*
X172853095Y-111453952D01*
X172900714Y-111263476D01*
X172948333Y-111168238D01*
X173043571Y-111073000D01*
X173186429Y-111025381D01*
X173281667Y-111025381D01*
X173424524Y-111073000D01*
X173472143Y-111120619D01*
X173805476Y-111025381D02*
X174424524Y-111025381D01*
X174091190Y-111406333D01*
X174234048Y-111406333D01*
X174329286Y-111453952D01*
X174376905Y-111501571D01*
X174424524Y-111596810D01*
X174424524Y-111834905D01*
X174376905Y-111930143D01*
X174329286Y-111977762D01*
X174234048Y-112025381D01*
X173948333Y-112025381D01*
X173853095Y-111977762D01*
X173805476Y-111930143D01*
X175376905Y-112025381D02*
X174805476Y-112025381D01*
X175091190Y-112025381D02*
X175091190Y-111025381D01*
X174995952Y-111168238D01*
X174900714Y-111263476D01*
X174805476Y-111311095D01*
X138372381Y-54494286D02*
X137372381Y-54494286D01*
X137372381Y-54256191D01*
X137420000Y-54113333D01*
X137515238Y-54018095D01*
X137610476Y-53970476D01*
X137800952Y-53922857D01*
X137943810Y-53922857D01*
X138134286Y-53970476D01*
X138229524Y-54018095D01*
X138324762Y-54113333D01*
X138372381Y-54256191D01*
X138372381Y-54494286D01*
X138372381Y-52970476D02*
X138372381Y-53541905D01*
X138372381Y-53256191D02*
X137372381Y-53256191D01*
X137515238Y-53351429D01*
X137610476Y-53446667D01*
X137658095Y-53541905D01*
X137372381Y-52351429D02*
X137372381Y-52256190D01*
X137420000Y-52160952D01*
X137467619Y-52113333D01*
X137562857Y-52065714D01*
X137753333Y-52018095D01*
X137991429Y-52018095D01*
X138181905Y-52065714D01*
X138277143Y-52113333D01*
X138324762Y-52160952D01*
X138372381Y-52256190D01*
X138372381Y-52351429D01*
X138324762Y-52446667D01*
X138277143Y-52494286D01*
X138181905Y-52541905D01*
X137991429Y-52589524D01*
X137753333Y-52589524D01*
X137562857Y-52541905D01*
X137467619Y-52494286D01*
X137420000Y-52446667D01*
X137372381Y-52351429D01*
X140912381Y-53732286D02*
X139912381Y-53732286D01*
X139912381Y-53494191D01*
X139960000Y-53351333D01*
X140055238Y-53256095D01*
X140150476Y-53208476D01*
X140340952Y-53160857D01*
X140483810Y-53160857D01*
X140674286Y-53208476D01*
X140769524Y-53256095D01*
X140864762Y-53351333D01*
X140912381Y-53494191D01*
X140912381Y-53732286D01*
X140912381Y-52208476D02*
X140912381Y-52779905D01*
X140912381Y-52494191D02*
X139912381Y-52494191D01*
X140055238Y-52589429D01*
X140150476Y-52684667D01*
X140198095Y-52779905D01*
X140912381Y-51256095D02*
X140912381Y-51827524D01*
X140912381Y-51541810D02*
X139912381Y-51541810D01*
X140055238Y-51637048D01*
X140150476Y-51732286D01*
X140198095Y-51827524D01*
X143452381Y-53732286D02*
X142452381Y-53732286D01*
X142452381Y-53494191D01*
X142500000Y-53351333D01*
X142595238Y-53256095D01*
X142690476Y-53208476D01*
X142880952Y-53160857D01*
X143023810Y-53160857D01*
X143214286Y-53208476D01*
X143309524Y-53256095D01*
X143404762Y-53351333D01*
X143452381Y-53494191D01*
X143452381Y-53732286D01*
X143452381Y-52208476D02*
X143452381Y-52779905D01*
X143452381Y-52494191D02*
X142452381Y-52494191D01*
X142595238Y-52589429D01*
X142690476Y-52684667D01*
X142738095Y-52779905D01*
X142547619Y-51827524D02*
X142500000Y-51779905D01*
X142452381Y-51684667D01*
X142452381Y-51446571D01*
X142500000Y-51351333D01*
X142547619Y-51303714D01*
X142642857Y-51256095D01*
X142738095Y-51256095D01*
X142880952Y-51303714D01*
X143452381Y-51875143D01*
X143452381Y-51256095D01*
X145992381Y-54494286D02*
X144992381Y-54494286D01*
X144992381Y-54256191D01*
X145040000Y-54113333D01*
X145135238Y-54018095D01*
X145230476Y-53970476D01*
X145420952Y-53922857D01*
X145563810Y-53922857D01*
X145754286Y-53970476D01*
X145849524Y-54018095D01*
X145944762Y-54113333D01*
X145992381Y-54256191D01*
X145992381Y-54494286D01*
X145992381Y-52970476D02*
X145992381Y-53541905D01*
X145992381Y-53256191D02*
X144992381Y-53256191D01*
X145135238Y-53351429D01*
X145230476Y-53446667D01*
X145278095Y-53541905D01*
X144992381Y-52637143D02*
X144992381Y-52018095D01*
X145373333Y-52351429D01*
X145373333Y-52208571D01*
X145420952Y-52113333D01*
X145468571Y-52065714D01*
X145563810Y-52018095D01*
X145801905Y-52018095D01*
X145897143Y-52065714D01*
X145944762Y-52113333D01*
X145992381Y-52208571D01*
X145992381Y-52494286D01*
X145944762Y-52589524D01*
X145897143Y-52637143D01*
X132530381Y-70274095D02*
X131530381Y-70274095D01*
X131530381Y-69893142D01*
X131578000Y-69797904D01*
X131625619Y-69750285D01*
X131720857Y-69702666D01*
X131863714Y-69702666D01*
X131958952Y-69750285D01*
X132006571Y-69797904D01*
X132054190Y-69893142D01*
X132054190Y-70274095D01*
X132530381Y-68750285D02*
X132530381Y-69321714D01*
X132530381Y-69036000D02*
X131530381Y-69036000D01*
X131673238Y-69131238D01*
X131768476Y-69226476D01*
X131816095Y-69321714D01*
X154501381Y-70401095D02*
X153501381Y-70401095D01*
X153501381Y-70020142D01*
X153549000Y-69924904D01*
X153596619Y-69877285D01*
X153691857Y-69829666D01*
X153834714Y-69829666D01*
X153929952Y-69877285D01*
X153977571Y-69924904D01*
X154025190Y-70020142D01*
X154025190Y-70401095D01*
X153596619Y-69448714D02*
X153549000Y-69401095D01*
X153501381Y-69305857D01*
X153501381Y-69067761D01*
X153549000Y-68972523D01*
X153596619Y-68924904D01*
X153691857Y-68877285D01*
X153787095Y-68877285D01*
X153929952Y-68924904D01*
X154501381Y-69496333D01*
X154501381Y-68877285D01*
X162887619Y-67980238D02*
X162840000Y-68075476D01*
X162744762Y-68170714D01*
X162601905Y-68313571D01*
X162554286Y-68408810D01*
X162554286Y-68504048D01*
X162792381Y-68456429D02*
X162744762Y-68551667D01*
X162649524Y-68646905D01*
X162459048Y-68694524D01*
X162125714Y-68694524D01*
X161935238Y-68646905D01*
X161840000Y-68551667D01*
X161792381Y-68456429D01*
X161792381Y-68265952D01*
X161840000Y-68170714D01*
X161935238Y-68075476D01*
X162125714Y-68027857D01*
X162459048Y-68027857D01*
X162649524Y-68075476D01*
X162744762Y-68170714D01*
X162792381Y-68265952D01*
X162792381Y-68456429D01*
X162792381Y-67075476D02*
X162792381Y-67646905D01*
X162792381Y-67361191D02*
X161792381Y-67361191D01*
X161935238Y-67456429D01*
X162030476Y-67551667D01*
X162078095Y-67646905D01*
X119671619Y-67853238D02*
X119624000Y-67948476D01*
X119528762Y-68043714D01*
X119385905Y-68186571D01*
X119338286Y-68281810D01*
X119338286Y-68377048D01*
X119576381Y-68329429D02*
X119528762Y-68424667D01*
X119433524Y-68519905D01*
X119243048Y-68567524D01*
X118909714Y-68567524D01*
X118719238Y-68519905D01*
X118624000Y-68424667D01*
X118576381Y-68329429D01*
X118576381Y-68138952D01*
X118624000Y-68043714D01*
X118719238Y-67948476D01*
X118909714Y-67900857D01*
X119243048Y-67900857D01*
X119433524Y-67948476D01*
X119528762Y-68043714D01*
X119576381Y-68138952D01*
X119576381Y-68329429D01*
X118671619Y-67519905D02*
X118624000Y-67472286D01*
X118576381Y-67377048D01*
X118576381Y-67138952D01*
X118624000Y-67043714D01*
X118671619Y-66996095D01*
X118766857Y-66948476D01*
X118862095Y-66948476D01*
X119004952Y-66996095D01*
X119576381Y-67567524D01*
X119576381Y-66948476D01*
X150822619Y-99095238D02*
X150775000Y-99190476D01*
X150679762Y-99285714D01*
X150536905Y-99428571D01*
X150489286Y-99523810D01*
X150489286Y-99619048D01*
X150727381Y-99571429D02*
X150679762Y-99666667D01*
X150584524Y-99761905D01*
X150394048Y-99809524D01*
X150060714Y-99809524D01*
X149870238Y-99761905D01*
X149775000Y-99666667D01*
X149727381Y-99571429D01*
X149727381Y-99380952D01*
X149775000Y-99285714D01*
X149870238Y-99190476D01*
X150060714Y-99142857D01*
X150394048Y-99142857D01*
X150584524Y-99190476D01*
X150679762Y-99285714D01*
X150727381Y-99380952D01*
X150727381Y-99571429D01*
X149727381Y-98809524D02*
X149727381Y-98190476D01*
X150108333Y-98523810D01*
X150108333Y-98380952D01*
X150155952Y-98285714D01*
X150203571Y-98238095D01*
X150298810Y-98190476D01*
X150536905Y-98190476D01*
X150632143Y-98238095D01*
X150679762Y-98285714D01*
X150727381Y-98380952D01*
X150727381Y-98666667D01*
X150679762Y-98761905D01*
X150632143Y-98809524D01*
X162518334Y-112533381D02*
X162185000Y-112057190D01*
X161946905Y-112533381D02*
X161946905Y-111533381D01*
X162327858Y-111533381D01*
X162423096Y-111581000D01*
X162470715Y-111628619D01*
X162518334Y-111723857D01*
X162518334Y-111866714D01*
X162470715Y-111961952D01*
X162423096Y-112009571D01*
X162327858Y-112057190D01*
X161946905Y-112057190D01*
X163470715Y-112533381D02*
X162899286Y-112533381D01*
X163185000Y-112533381D02*
X163185000Y-111533381D01*
X163089762Y-111676238D01*
X162994524Y-111771476D01*
X162899286Y-111819095D01*
X129498334Y-112025381D02*
X129165000Y-111549190D01*
X128926905Y-112025381D02*
X128926905Y-111025381D01*
X129307858Y-111025381D01*
X129403096Y-111073000D01*
X129450715Y-111120619D01*
X129498334Y-111215857D01*
X129498334Y-111358714D01*
X129450715Y-111453952D01*
X129403096Y-111501571D01*
X129307858Y-111549190D01*
X128926905Y-111549190D01*
X129831667Y-111025381D02*
X130450715Y-111025381D01*
X130117381Y-111406333D01*
X130260239Y-111406333D01*
X130355477Y-111453952D01*
X130403096Y-111501571D01*
X130450715Y-111596810D01*
X130450715Y-111834905D01*
X130403096Y-111930143D01*
X130355477Y-111977762D01*
X130260239Y-112025381D01*
X129974524Y-112025381D01*
X129879286Y-111977762D01*
X129831667Y-111930143D01*
X158708334Y-112660381D02*
X158375000Y-112184190D01*
X158136905Y-112660381D02*
X158136905Y-111660381D01*
X158517858Y-111660381D01*
X158613096Y-111708000D01*
X158660715Y-111755619D01*
X158708334Y-111850857D01*
X158708334Y-111993714D01*
X158660715Y-112088952D01*
X158613096Y-112136571D01*
X158517858Y-112184190D01*
X158136905Y-112184190D01*
X159565477Y-111993714D02*
X159565477Y-112660381D01*
X159327381Y-111612762D02*
X159089286Y-112327048D01*
X159708334Y-112327048D01*
X125688334Y-112025381D02*
X125355000Y-111549190D01*
X125116905Y-112025381D02*
X125116905Y-111025381D01*
X125497858Y-111025381D01*
X125593096Y-111073000D01*
X125640715Y-111120619D01*
X125688334Y-111215857D01*
X125688334Y-111358714D01*
X125640715Y-111453952D01*
X125593096Y-111501571D01*
X125497858Y-111549190D01*
X125116905Y-111549190D01*
X126593096Y-111025381D02*
X126116905Y-111025381D01*
X126069286Y-111501571D01*
X126116905Y-111453952D01*
X126212143Y-111406333D01*
X126450239Y-111406333D01*
X126545477Y-111453952D01*
X126593096Y-111501571D01*
X126640715Y-111596810D01*
X126640715Y-111834905D01*
X126593096Y-111930143D01*
X126545477Y-111977762D01*
X126450239Y-112025381D01*
X126212143Y-112025381D01*
X126116905Y-111977762D01*
X126069286Y-111930143D01*
X152485334Y-80275381D02*
X152152000Y-79799190D01*
X151913905Y-80275381D02*
X151913905Y-79275381D01*
X152294858Y-79275381D01*
X152390096Y-79323000D01*
X152437715Y-79370619D01*
X152485334Y-79465857D01*
X152485334Y-79608714D01*
X152437715Y-79703952D01*
X152390096Y-79751571D01*
X152294858Y-79799190D01*
X151913905Y-79799190D01*
X153342477Y-79275381D02*
X153152000Y-79275381D01*
X153056762Y-79323000D01*
X153009143Y-79370619D01*
X152913905Y-79513476D01*
X152866286Y-79703952D01*
X152866286Y-80084905D01*
X152913905Y-80180143D01*
X152961524Y-80227762D01*
X153056762Y-80275381D01*
X153247239Y-80275381D01*
X153342477Y-80227762D01*
X153390096Y-80180143D01*
X153437715Y-80084905D01*
X153437715Y-79846810D01*
X153390096Y-79751571D01*
X153342477Y-79703952D01*
X153247239Y-79656333D01*
X153056762Y-79656333D01*
X152961524Y-79703952D01*
X152913905Y-79751571D01*
X152866286Y-79846810D01*
X164423334Y-73163381D02*
X164090000Y-72687190D01*
X163851905Y-73163381D02*
X163851905Y-72163381D01*
X164232858Y-72163381D01*
X164328096Y-72211000D01*
X164375715Y-72258619D01*
X164423334Y-72353857D01*
X164423334Y-72496714D01*
X164375715Y-72591952D01*
X164328096Y-72639571D01*
X164232858Y-72687190D01*
X163851905Y-72687190D01*
X164756667Y-72163381D02*
X165423334Y-72163381D01*
X164994762Y-73163381D01*
X133038381Y-66654666D02*
X132562190Y-66988000D01*
X133038381Y-67226095D02*
X132038381Y-67226095D01*
X132038381Y-66845142D01*
X132086000Y-66749904D01*
X132133619Y-66702285D01*
X132228857Y-66654666D01*
X132371714Y-66654666D01*
X132466952Y-66702285D01*
X132514571Y-66749904D01*
X132562190Y-66845142D01*
X132562190Y-67226095D01*
X132466952Y-66083238D02*
X132419333Y-66178476D01*
X132371714Y-66226095D01*
X132276476Y-66273714D01*
X132228857Y-66273714D01*
X132133619Y-66226095D01*
X132086000Y-66178476D01*
X132038381Y-66083238D01*
X132038381Y-65892761D01*
X132086000Y-65797523D01*
X132133619Y-65749904D01*
X132228857Y-65702285D01*
X132276476Y-65702285D01*
X132371714Y-65749904D01*
X132419333Y-65797523D01*
X132466952Y-65892761D01*
X132466952Y-66083238D01*
X132514571Y-66178476D01*
X132562190Y-66226095D01*
X132657429Y-66273714D01*
X132847905Y-66273714D01*
X132943143Y-66226095D01*
X132990762Y-66178476D01*
X133038381Y-66083238D01*
X133038381Y-65892761D01*
X132990762Y-65797523D01*
X132943143Y-65749904D01*
X132847905Y-65702285D01*
X132657429Y-65702285D01*
X132562190Y-65749904D01*
X132514571Y-65797523D01*
X132466952Y-65892761D01*
X137610381Y-63606666D02*
X137134190Y-63940000D01*
X137610381Y-64178095D02*
X136610381Y-64178095D01*
X136610381Y-63797142D01*
X136658000Y-63701904D01*
X136705619Y-63654285D01*
X136800857Y-63606666D01*
X136943714Y-63606666D01*
X137038952Y-63654285D01*
X137086571Y-63701904D01*
X137134190Y-63797142D01*
X137134190Y-64178095D01*
X137610381Y-63130476D02*
X137610381Y-62940000D01*
X137562762Y-62844761D01*
X137515143Y-62797142D01*
X137372286Y-62701904D01*
X137181810Y-62654285D01*
X136800857Y-62654285D01*
X136705619Y-62701904D01*
X136658000Y-62749523D01*
X136610381Y-62844761D01*
X136610381Y-63035238D01*
X136658000Y-63130476D01*
X136705619Y-63178095D01*
X136800857Y-63225714D01*
X137038952Y-63225714D01*
X137134190Y-63178095D01*
X137181810Y-63130476D01*
X137229429Y-63035238D01*
X137229429Y-62844761D01*
X137181810Y-62749523D01*
X137134190Y-62701904D01*
X137038952Y-62654285D01*
X141214143Y-75703381D02*
X140880809Y-75227190D01*
X140642714Y-75703381D02*
X140642714Y-74703381D01*
X141023667Y-74703381D01*
X141118905Y-74751000D01*
X141166524Y-74798619D01*
X141214143Y-74893857D01*
X141214143Y-75036714D01*
X141166524Y-75131952D01*
X141118905Y-75179571D01*
X141023667Y-75227190D01*
X140642714Y-75227190D01*
X142166524Y-75703381D02*
X141595095Y-75703381D01*
X141880809Y-75703381D02*
X141880809Y-74703381D01*
X141785571Y-74846238D01*
X141690333Y-74941476D01*
X141595095Y-74989095D01*
X142785571Y-74703381D02*
X142880810Y-74703381D01*
X142976048Y-74751000D01*
X143023667Y-74798619D01*
X143071286Y-74893857D01*
X143118905Y-75084333D01*
X143118905Y-75322429D01*
X143071286Y-75512905D01*
X143023667Y-75608143D01*
X142976048Y-75655762D01*
X142880810Y-75703381D01*
X142785571Y-75703381D01*
X142690333Y-75655762D01*
X142642714Y-75608143D01*
X142595095Y-75512905D01*
X142547476Y-75322429D01*
X142547476Y-75084333D01*
X142595095Y-74893857D01*
X142642714Y-74798619D01*
X142690333Y-74751000D01*
X142785571Y-74703381D01*
X119576381Y-85545857D02*
X119100190Y-85879191D01*
X119576381Y-86117286D02*
X118576381Y-86117286D01*
X118576381Y-85736333D01*
X118624000Y-85641095D01*
X118671619Y-85593476D01*
X118766857Y-85545857D01*
X118909714Y-85545857D01*
X119004952Y-85593476D01*
X119052571Y-85641095D01*
X119100190Y-85736333D01*
X119100190Y-86117286D01*
X119576381Y-84593476D02*
X119576381Y-85164905D01*
X119576381Y-84879191D02*
X118576381Y-84879191D01*
X118719238Y-84974429D01*
X118814476Y-85069667D01*
X118862095Y-85164905D01*
X119576381Y-83641095D02*
X119576381Y-84212524D01*
X119576381Y-83926810D02*
X118576381Y-83926810D01*
X118719238Y-84022048D01*
X118814476Y-84117286D01*
X118862095Y-84212524D01*
X142738143Y-72401381D02*
X142404809Y-71925190D01*
X142166714Y-72401381D02*
X142166714Y-71401381D01*
X142547667Y-71401381D01*
X142642905Y-71449000D01*
X142690524Y-71496619D01*
X142738143Y-71591857D01*
X142738143Y-71734714D01*
X142690524Y-71829952D01*
X142642905Y-71877571D01*
X142547667Y-71925190D01*
X142166714Y-71925190D01*
X143690524Y-72401381D02*
X143119095Y-72401381D01*
X143404809Y-72401381D02*
X143404809Y-71401381D01*
X143309571Y-71544238D01*
X143214333Y-71639476D01*
X143119095Y-71687095D01*
X144071476Y-71496619D02*
X144119095Y-71449000D01*
X144214333Y-71401381D01*
X144452429Y-71401381D01*
X144547667Y-71449000D01*
X144595286Y-71496619D01*
X144642905Y-71591857D01*
X144642905Y-71687095D01*
X144595286Y-71829952D01*
X144023857Y-72401381D01*
X144642905Y-72401381D01*
X167455381Y-85672857D02*
X166979190Y-86006191D01*
X167455381Y-86244286D02*
X166455381Y-86244286D01*
X166455381Y-85863333D01*
X166503000Y-85768095D01*
X166550619Y-85720476D01*
X166645857Y-85672857D01*
X166788714Y-85672857D01*
X166883952Y-85720476D01*
X166931571Y-85768095D01*
X166979190Y-85863333D01*
X166979190Y-86244286D01*
X167455381Y-84720476D02*
X167455381Y-85291905D01*
X167455381Y-85006191D02*
X166455381Y-85006191D01*
X166598238Y-85101429D01*
X166693476Y-85196667D01*
X166741095Y-85291905D01*
X166455381Y-84387143D02*
X166455381Y-83768095D01*
X166836333Y-84101429D01*
X166836333Y-83958571D01*
X166883952Y-83863333D01*
X166931571Y-83815714D01*
X167026810Y-83768095D01*
X167264905Y-83768095D01*
X167360143Y-83815714D01*
X167407762Y-83863333D01*
X167455381Y-83958571D01*
X167455381Y-84244286D01*
X167407762Y-84339524D01*
X167360143Y-84387143D01*
X153866381Y-67257857D02*
X153390190Y-67591191D01*
X153866381Y-67829286D02*
X152866381Y-67829286D01*
X152866381Y-67448333D01*
X152914000Y-67353095D01*
X152961619Y-67305476D01*
X153056857Y-67257857D01*
X153199714Y-67257857D01*
X153294952Y-67305476D01*
X153342571Y-67353095D01*
X153390190Y-67448333D01*
X153390190Y-67829286D01*
X153866381Y-66305476D02*
X153866381Y-66876905D01*
X153866381Y-66591191D02*
X152866381Y-66591191D01*
X153009238Y-66686429D01*
X153104476Y-66781667D01*
X153152095Y-66876905D01*
X153199714Y-65448333D02*
X153866381Y-65448333D01*
X152818762Y-65686429D02*
X153533048Y-65924524D01*
X153533048Y-65305476D01*
X146500381Y-64082857D02*
X146024190Y-64416191D01*
X146500381Y-64654286D02*
X145500381Y-64654286D01*
X145500381Y-64273333D01*
X145548000Y-64178095D01*
X145595619Y-64130476D01*
X145690857Y-64082857D01*
X145833714Y-64082857D01*
X145928952Y-64130476D01*
X145976571Y-64178095D01*
X146024190Y-64273333D01*
X146024190Y-64654286D01*
X146500381Y-63130476D02*
X146500381Y-63701905D01*
X146500381Y-63416191D02*
X145500381Y-63416191D01*
X145643238Y-63511429D01*
X145738476Y-63606667D01*
X145786095Y-63701905D01*
X145500381Y-62225714D02*
X145500381Y-62701905D01*
X145976571Y-62749524D01*
X145928952Y-62701905D01*
X145881333Y-62606667D01*
X145881333Y-62368571D01*
X145928952Y-62273333D01*
X145976571Y-62225714D01*
X146071810Y-62178095D01*
X146309905Y-62178095D01*
X146405143Y-62225714D01*
X146452762Y-62273333D01*
X146500381Y-62368571D01*
X146500381Y-62606667D01*
X146452762Y-62701905D01*
X146405143Y-62749524D01*
X132832143Y-80397381D02*
X132498809Y-79921190D01*
X132260714Y-80397381D02*
X132260714Y-79397381D01*
X132641667Y-79397381D01*
X132736905Y-79445000D01*
X132784524Y-79492619D01*
X132832143Y-79587857D01*
X132832143Y-79730714D01*
X132784524Y-79825952D01*
X132736905Y-79873571D01*
X132641667Y-79921190D01*
X132260714Y-79921190D01*
X133784524Y-80397381D02*
X133213095Y-80397381D01*
X133498809Y-80397381D02*
X133498809Y-79397381D01*
X133403571Y-79540238D01*
X133308333Y-79635476D01*
X133213095Y-79683095D01*
X134641667Y-79397381D02*
X134451190Y-79397381D01*
X134355952Y-79445000D01*
X134308333Y-79492619D01*
X134213095Y-79635476D01*
X134165476Y-79825952D01*
X134165476Y-80206905D01*
X134213095Y-80302143D01*
X134260714Y-80349762D01*
X134355952Y-80397381D01*
X134546429Y-80397381D01*
X134641667Y-80349762D01*
X134689286Y-80302143D01*
X134736905Y-80206905D01*
X134736905Y-79968810D01*
X134689286Y-79873571D01*
X134641667Y-79825952D01*
X134546429Y-79778333D01*
X134355952Y-79778333D01*
X134260714Y-79825952D01*
X134213095Y-79873571D01*
X134165476Y-79968810D01*
X120767143Y-73036381D02*
X120433809Y-72560190D01*
X120195714Y-73036381D02*
X120195714Y-72036381D01*
X120576667Y-72036381D01*
X120671905Y-72084000D01*
X120719524Y-72131619D01*
X120767143Y-72226857D01*
X120767143Y-72369714D01*
X120719524Y-72464952D01*
X120671905Y-72512571D01*
X120576667Y-72560190D01*
X120195714Y-72560190D01*
X121719524Y-73036381D02*
X121148095Y-73036381D01*
X121433809Y-73036381D02*
X121433809Y-72036381D01*
X121338571Y-72179238D01*
X121243333Y-72274476D01*
X121148095Y-72322095D01*
X122052857Y-72036381D02*
X122719524Y-72036381D01*
X122290952Y-73036381D01*
X169662143Y-112025381D02*
X169328809Y-111549190D01*
X169090714Y-112025381D02*
X169090714Y-111025381D01*
X169471667Y-111025381D01*
X169566905Y-111073000D01*
X169614524Y-111120619D01*
X169662143Y-111215857D01*
X169662143Y-111358714D01*
X169614524Y-111453952D01*
X169566905Y-111501571D01*
X169471667Y-111549190D01*
X169090714Y-111549190D01*
X170614524Y-112025381D02*
X170043095Y-112025381D01*
X170328809Y-112025381D02*
X170328809Y-111025381D01*
X170233571Y-111168238D01*
X170138333Y-111263476D01*
X170043095Y-111311095D01*
X171185952Y-111453952D02*
X171090714Y-111406333D01*
X171043095Y-111358714D01*
X170995476Y-111263476D01*
X170995476Y-111215857D01*
X171043095Y-111120619D01*
X171090714Y-111073000D01*
X171185952Y-111025381D01*
X171376429Y-111025381D01*
X171471667Y-111073000D01*
X171519286Y-111120619D01*
X171566905Y-111215857D01*
X171566905Y-111263476D01*
X171519286Y-111358714D01*
X171471667Y-111406333D01*
X171376429Y-111453952D01*
X171185952Y-111453952D01*
X171090714Y-111501571D01*
X171043095Y-111549190D01*
X170995476Y-111644429D01*
X170995476Y-111834905D01*
X171043095Y-111930143D01*
X171090714Y-111977762D01*
X171185952Y-112025381D01*
X171376429Y-112025381D01*
X171471667Y-111977762D01*
X171519286Y-111930143D01*
X171566905Y-111834905D01*
X171566905Y-111644429D01*
X171519286Y-111549190D01*
X171471667Y-111501571D01*
X171376429Y-111453952D01*
X145865381Y-114247857D02*
X145389190Y-114581191D01*
X145865381Y-114819286D02*
X144865381Y-114819286D01*
X144865381Y-114438333D01*
X144913000Y-114343095D01*
X144960619Y-114295476D01*
X145055857Y-114247857D01*
X145198714Y-114247857D01*
X145293952Y-114295476D01*
X145341571Y-114343095D01*
X145389190Y-114438333D01*
X145389190Y-114819286D01*
X145865381Y-113295476D02*
X145865381Y-113866905D01*
X145865381Y-113581191D02*
X144865381Y-113581191D01*
X145008238Y-113676429D01*
X145103476Y-113771667D01*
X145151095Y-113866905D01*
X145865381Y-112819286D02*
X145865381Y-112628810D01*
X145817762Y-112533571D01*
X145770143Y-112485952D01*
X145627286Y-112390714D01*
X145436810Y-112343095D01*
X145055857Y-112343095D01*
X144960619Y-112390714D01*
X144913000Y-112438333D01*
X144865381Y-112533571D01*
X144865381Y-112724048D01*
X144913000Y-112819286D01*
X144960619Y-112866905D01*
X145055857Y-112914524D01*
X145293952Y-112914524D01*
X145389190Y-112866905D01*
X145436810Y-112819286D01*
X145484429Y-112724048D01*
X145484429Y-112533571D01*
X145436810Y-112438333D01*
X145389190Y-112390714D01*
X145293952Y-112343095D01*
X148707143Y-112152381D02*
X148373809Y-111676190D01*
X148135714Y-112152381D02*
X148135714Y-111152381D01*
X148516667Y-111152381D01*
X148611905Y-111200000D01*
X148659524Y-111247619D01*
X148707143Y-111342857D01*
X148707143Y-111485714D01*
X148659524Y-111580952D01*
X148611905Y-111628571D01*
X148516667Y-111676190D01*
X148135714Y-111676190D01*
X149088095Y-111247619D02*
X149135714Y-111200000D01*
X149230952Y-111152381D01*
X149469048Y-111152381D01*
X149564286Y-111200000D01*
X149611905Y-111247619D01*
X149659524Y-111342857D01*
X149659524Y-111438095D01*
X149611905Y-111580952D01*
X149040476Y-112152381D01*
X149659524Y-112152381D01*
X150278571Y-111152381D02*
X150373810Y-111152381D01*
X150469048Y-111200000D01*
X150516667Y-111247619D01*
X150564286Y-111342857D01*
X150611905Y-111533333D01*
X150611905Y-111771429D01*
X150564286Y-111961905D01*
X150516667Y-112057143D01*
X150469048Y-112104762D01*
X150373810Y-112152381D01*
X150278571Y-112152381D01*
X150183333Y-112104762D01*
X150135714Y-112057143D01*
X150088095Y-111961905D01*
X150040476Y-111771429D01*
X150040476Y-111533333D01*
X150088095Y-111342857D01*
X150135714Y-111247619D01*
X150183333Y-111200000D01*
X150278571Y-111152381D01*
X151247143Y-116089381D02*
X150913809Y-115613190D01*
X150675714Y-116089381D02*
X150675714Y-115089381D01*
X151056667Y-115089381D01*
X151151905Y-115137000D01*
X151199524Y-115184619D01*
X151247143Y-115279857D01*
X151247143Y-115422714D01*
X151199524Y-115517952D01*
X151151905Y-115565571D01*
X151056667Y-115613190D01*
X150675714Y-115613190D01*
X151628095Y-115184619D02*
X151675714Y-115137000D01*
X151770952Y-115089381D01*
X152009048Y-115089381D01*
X152104286Y-115137000D01*
X152151905Y-115184619D01*
X152199524Y-115279857D01*
X152199524Y-115375095D01*
X152151905Y-115517952D01*
X151580476Y-116089381D01*
X152199524Y-116089381D01*
X153151905Y-116089381D02*
X152580476Y-116089381D01*
X152866190Y-116089381D02*
X152866190Y-115089381D01*
X152770952Y-115232238D01*
X152675714Y-115327476D01*
X152580476Y-115375095D01*
X154549143Y-112152381D02*
X154215809Y-111676190D01*
X153977714Y-112152381D02*
X153977714Y-111152381D01*
X154358667Y-111152381D01*
X154453905Y-111200000D01*
X154501524Y-111247619D01*
X154549143Y-111342857D01*
X154549143Y-111485714D01*
X154501524Y-111580952D01*
X154453905Y-111628571D01*
X154358667Y-111676190D01*
X153977714Y-111676190D01*
X154930095Y-111247619D02*
X154977714Y-111200000D01*
X155072952Y-111152381D01*
X155311048Y-111152381D01*
X155406286Y-111200000D01*
X155453905Y-111247619D01*
X155501524Y-111342857D01*
X155501524Y-111438095D01*
X155453905Y-111580952D01*
X154882476Y-112152381D01*
X155501524Y-112152381D01*
X155882476Y-111247619D02*
X155930095Y-111200000D01*
X156025333Y-111152381D01*
X156263429Y-111152381D01*
X156358667Y-111200000D01*
X156406286Y-111247619D01*
X156453905Y-111342857D01*
X156453905Y-111438095D01*
X156406286Y-111580952D01*
X155834857Y-112152381D01*
X156453905Y-112152381D01*
X155390381Y-99642857D02*
X154914190Y-99976191D01*
X155390381Y-100214286D02*
X154390381Y-100214286D01*
X154390381Y-99833333D01*
X154438000Y-99738095D01*
X154485619Y-99690476D01*
X154580857Y-99642857D01*
X154723714Y-99642857D01*
X154818952Y-99690476D01*
X154866571Y-99738095D01*
X154914190Y-99833333D01*
X154914190Y-100214286D01*
X154485619Y-99261905D02*
X154438000Y-99214286D01*
X154390381Y-99119048D01*
X154390381Y-98880952D01*
X154438000Y-98785714D01*
X154485619Y-98738095D01*
X154580857Y-98690476D01*
X154676095Y-98690476D01*
X154818952Y-98738095D01*
X155390381Y-99309524D01*
X155390381Y-98690476D01*
X154390381Y-98357143D02*
X154390381Y-97738095D01*
X154771333Y-98071429D01*
X154771333Y-97928571D01*
X154818952Y-97833333D01*
X154866571Y-97785714D01*
X154961810Y-97738095D01*
X155199905Y-97738095D01*
X155295143Y-97785714D01*
X155342762Y-97833333D01*
X155390381Y-97928571D01*
X155390381Y-98214286D01*
X155342762Y-98309524D01*
X155295143Y-98357143D01*
X130689095Y-102325762D02*
X130831952Y-102373381D01*
X131070048Y-102373381D01*
X131165286Y-102325762D01*
X131212905Y-102278143D01*
X131260524Y-102182905D01*
X131260524Y-102087667D01*
X131212905Y-101992429D01*
X131165286Y-101944810D01*
X131070048Y-101897190D01*
X130879571Y-101849571D01*
X130784333Y-101801952D01*
X130736714Y-101754333D01*
X130689095Y-101659095D01*
X130689095Y-101563857D01*
X130736714Y-101468619D01*
X130784333Y-101421000D01*
X130879571Y-101373381D01*
X131117667Y-101373381D01*
X131260524Y-101421000D01*
X131689095Y-102373381D02*
X131689095Y-101373381D01*
X132070048Y-101373381D01*
X132165286Y-101421000D01*
X132212905Y-101468619D01*
X132260524Y-101563857D01*
X132260524Y-101706714D01*
X132212905Y-101801952D01*
X132165286Y-101849571D01*
X132070048Y-101897190D01*
X131689095Y-101897190D01*
X133212905Y-102373381D02*
X132641476Y-102373381D01*
X132927190Y-102373381D02*
X132927190Y-101373381D01*
X132831952Y-101516238D01*
X132736714Y-101611476D01*
X132641476Y-101659095D01*
X108138667Y-116295762D02*
X108281524Y-116343381D01*
X108519620Y-116343381D01*
X108614858Y-116295762D01*
X108662477Y-116248143D01*
X108710096Y-116152905D01*
X108710096Y-116057667D01*
X108662477Y-115962429D01*
X108614858Y-115914810D01*
X108519620Y-115867190D01*
X108329143Y-115819571D01*
X108233905Y-115771952D01*
X108186286Y-115724333D01*
X108138667Y-115629095D01*
X108138667Y-115533857D01*
X108186286Y-115438619D01*
X108233905Y-115391000D01*
X108329143Y-115343381D01*
X108567239Y-115343381D01*
X108710096Y-115391000D01*
X109043429Y-115343381D02*
X109281524Y-116343381D01*
X109472001Y-115629095D01*
X109662477Y-116343381D01*
X109900572Y-115343381D01*
X110805334Y-116343381D02*
X110233905Y-116343381D01*
X110519619Y-116343381D02*
X110519619Y-115343381D01*
X110424381Y-115486238D01*
X110329143Y-115581476D01*
X110233905Y-115629095D01*
X112337619Y-116343381D02*
X112004285Y-115867190D01*
X111766190Y-116343381D02*
X111766190Y-115343381D01*
X112147143Y-115343381D01*
X112242381Y-115391000D01*
X112290000Y-115438619D01*
X112337619Y-115533857D01*
X112337619Y-115676714D01*
X112290000Y-115771952D01*
X112242381Y-115819571D01*
X112147143Y-115867190D01*
X111766190Y-115867190D01*
X112766190Y-115819571D02*
X113099524Y-115819571D01*
X113242381Y-116343381D02*
X112766190Y-116343381D01*
X112766190Y-115343381D01*
X113242381Y-115343381D01*
X113623333Y-116295762D02*
X113766190Y-116343381D01*
X114004286Y-116343381D01*
X114099524Y-116295762D01*
X114147143Y-116248143D01*
X114194762Y-116152905D01*
X114194762Y-116057667D01*
X114147143Y-115962429D01*
X114099524Y-115914810D01*
X114004286Y-115867190D01*
X113813809Y-115819571D01*
X113718571Y-115771952D01*
X113670952Y-115724333D01*
X113623333Y-115629095D01*
X113623333Y-115533857D01*
X113670952Y-115438619D01*
X113718571Y-115391000D01*
X113813809Y-115343381D01*
X114051905Y-115343381D01*
X114194762Y-115391000D01*
X114623333Y-115819571D02*
X114956667Y-115819571D01*
X115099524Y-116343381D02*
X114623333Y-116343381D01*
X114623333Y-115343381D01*
X115099524Y-115343381D01*
X115385238Y-115343381D02*
X115956667Y-115343381D01*
X115670952Y-116343381D02*
X115670952Y-115343381D01*
X158430667Y-118454762D02*
X158573524Y-118502381D01*
X158811620Y-118502381D01*
X158906858Y-118454762D01*
X158954477Y-118407143D01*
X159002096Y-118311905D01*
X159002096Y-118216667D01*
X158954477Y-118121429D01*
X158906858Y-118073810D01*
X158811620Y-118026190D01*
X158621143Y-117978571D01*
X158525905Y-117930952D01*
X158478286Y-117883333D01*
X158430667Y-117788095D01*
X158430667Y-117692857D01*
X158478286Y-117597619D01*
X158525905Y-117550000D01*
X158621143Y-117502381D01*
X158859239Y-117502381D01*
X159002096Y-117550000D01*
X159335429Y-117502381D02*
X159573524Y-118502381D01*
X159764001Y-117788095D01*
X159954477Y-118502381D01*
X160192572Y-117502381D01*
X160525905Y-117597619D02*
X160573524Y-117550000D01*
X160668762Y-117502381D01*
X160906858Y-117502381D01*
X161002096Y-117550000D01*
X161049715Y-117597619D01*
X161097334Y-117692857D01*
X161097334Y-117788095D01*
X161049715Y-117930952D01*
X160478286Y-118502381D01*
X161097334Y-118502381D01*
X166050667Y-116676762D02*
X166193524Y-116724381D01*
X166431620Y-116724381D01*
X166526858Y-116676762D01*
X166574477Y-116629143D01*
X166622096Y-116533905D01*
X166622096Y-116438667D01*
X166574477Y-116343429D01*
X166526858Y-116295810D01*
X166431620Y-116248190D01*
X166241143Y-116200571D01*
X166145905Y-116152952D01*
X166098286Y-116105333D01*
X166050667Y-116010095D01*
X166050667Y-115914857D01*
X166098286Y-115819619D01*
X166145905Y-115772000D01*
X166241143Y-115724381D01*
X166479239Y-115724381D01*
X166622096Y-115772000D01*
X166955429Y-115724381D02*
X167193524Y-116724381D01*
X167384001Y-116010095D01*
X167574477Y-116724381D01*
X167812572Y-115724381D01*
X168098286Y-115724381D02*
X168717334Y-115724381D01*
X168384000Y-116105333D01*
X168526858Y-116105333D01*
X168622096Y-116152952D01*
X168669715Y-116200571D01*
X168717334Y-116295810D01*
X168717334Y-116533905D01*
X168669715Y-116629143D01*
X168622096Y-116676762D01*
X168526858Y-116724381D01*
X168241143Y-116724381D01*
X168145905Y-116676762D01*
X168098286Y-116629143D01*
X168424096Y-120264571D02*
X168566953Y-120312190D01*
X168614572Y-120359810D01*
X168662191Y-120455048D01*
X168662191Y-120597905D01*
X168614572Y-120693143D01*
X168566953Y-120740762D01*
X168471715Y-120788381D01*
X168090762Y-120788381D01*
X168090762Y-119788381D01*
X168424096Y-119788381D01*
X168519334Y-119836000D01*
X168566953Y-119883619D01*
X168614572Y-119978857D01*
X168614572Y-120074095D01*
X168566953Y-120169333D01*
X168519334Y-120216952D01*
X168424096Y-120264571D01*
X168090762Y-120264571D01*
X169090762Y-119788381D02*
X169090762Y-120597905D01*
X169138381Y-120693143D01*
X169186000Y-120740762D01*
X169281238Y-120788381D01*
X169471715Y-120788381D01*
X169566953Y-120740762D01*
X169614572Y-120693143D01*
X169662191Y-120597905D01*
X169662191Y-119788381D01*
X169995524Y-119788381D02*
X170566953Y-119788381D01*
X170281238Y-120788381D02*
X170281238Y-119788381D01*
X170757429Y-119788381D02*
X171328858Y-119788381D01*
X171043143Y-120788381D02*
X171043143Y-119788381D01*
X171852667Y-119788381D02*
X172043144Y-119788381D01*
X172138382Y-119836000D01*
X172233620Y-119931238D01*
X172281239Y-120121714D01*
X172281239Y-120455048D01*
X172233620Y-120645524D01*
X172138382Y-120740762D01*
X172043144Y-120788381D01*
X171852667Y-120788381D01*
X171757429Y-120740762D01*
X171662191Y-120645524D01*
X171614572Y-120455048D01*
X171614572Y-120121714D01*
X171662191Y-119931238D01*
X171757429Y-119836000D01*
X171852667Y-119788381D01*
X172709810Y-120788381D02*
X172709810Y-119788381D01*
X173281239Y-120788381D01*
X173281239Y-119788381D01*
X147939646Y-98697858D02*
X147367226Y-99270278D01*
X147333554Y-99371293D01*
X147333554Y-99438636D01*
X147367226Y-99539651D01*
X147501914Y-99674339D01*
X147602929Y-99708011D01*
X147670272Y-99708011D01*
X147771287Y-99674339D01*
X148343707Y-99101919D01*
X148343707Y-100516133D02*
X147939646Y-100112071D01*
X148141676Y-100314102D02*
X148848783Y-99606995D01*
X148680424Y-99640667D01*
X148545738Y-99640667D01*
X148444722Y-99606995D01*
X140166381Y-61153905D02*
X140975905Y-61153905D01*
X141071143Y-61106286D01*
X141118762Y-61058667D01*
X141166381Y-60963429D01*
X141166381Y-60772952D01*
X141118762Y-60677714D01*
X141071143Y-60630095D01*
X140975905Y-60582476D01*
X140166381Y-60582476D01*
X140166381Y-59630095D02*
X140166381Y-60106286D01*
X140642571Y-60153905D01*
X140594952Y-60106286D01*
X140547333Y-60011048D01*
X140547333Y-59772952D01*
X140594952Y-59677714D01*
X140642571Y-59630095D01*
X140737810Y-59582476D01*
X140975905Y-59582476D01*
X141071143Y-59630095D01*
X141118762Y-59677714D01*
X141166381Y-59772952D01*
X141166381Y-60011048D01*
X141118762Y-60106286D01*
X141071143Y-60153905D01*
X158875095Y-109501381D02*
X158875095Y-110310905D01*
X158922714Y-110406143D01*
X158970333Y-110453762D01*
X159065571Y-110501381D01*
X159256048Y-110501381D01*
X159351286Y-110453762D01*
X159398905Y-110406143D01*
X159446524Y-110310905D01*
X159446524Y-109501381D01*
X160351286Y-109501381D02*
X160160809Y-109501381D01*
X160065571Y-109549000D01*
X160017952Y-109596619D01*
X159922714Y-109739476D01*
X159875095Y-109929952D01*
X159875095Y-110310905D01*
X159922714Y-110406143D01*
X159970333Y-110453762D01*
X160065571Y-110501381D01*
X160256048Y-110501381D01*
X160351286Y-110453762D01*
X160398905Y-110406143D01*
X160446524Y-110310905D01*
X160446524Y-110072810D01*
X160398905Y-109977571D01*
X160351286Y-109929952D01*
X160256048Y-109882333D01*
X160065571Y-109882333D01*
X159970333Y-109929952D01*
X159922714Y-109977571D01*
X159875095Y-110072810D01*
X160018095Y-64670381D02*
X160018095Y-65479905D01*
X160065714Y-65575143D01*
X160113333Y-65622762D01*
X160208571Y-65670381D01*
X160399048Y-65670381D01*
X160494286Y-65622762D01*
X160541905Y-65575143D01*
X160589524Y-65479905D01*
X160589524Y-64670381D01*
X160970476Y-64670381D02*
X161637143Y-64670381D01*
X161208571Y-65670381D01*
X143762095Y-64670381D02*
X143762095Y-65479905D01*
X143809714Y-65575143D01*
X143857333Y-65622762D01*
X143952571Y-65670381D01*
X144143048Y-65670381D01*
X144238286Y-65622762D01*
X144285905Y-65575143D01*
X144333524Y-65479905D01*
X144333524Y-64670381D01*
X144952571Y-65098952D02*
X144857333Y-65051333D01*
X144809714Y-65003714D01*
X144762095Y-64908476D01*
X144762095Y-64860857D01*
X144809714Y-64765619D01*
X144857333Y-64718000D01*
X144952571Y-64670381D01*
X145143048Y-64670381D01*
X145238286Y-64718000D01*
X145285905Y-64765619D01*
X145333524Y-64860857D01*
X145333524Y-64908476D01*
X145285905Y-65003714D01*
X145238286Y-65051333D01*
X145143048Y-65098952D01*
X144952571Y-65098952D01*
X144857333Y-65146571D01*
X144809714Y-65194190D01*
X144762095Y-65289429D01*
X144762095Y-65479905D01*
X144809714Y-65575143D01*
X144857333Y-65622762D01*
X144952571Y-65670381D01*
X145143048Y-65670381D01*
X145238286Y-65622762D01*
X145285905Y-65575143D01*
X145333524Y-65479905D01*
X145333524Y-65289429D01*
X145285905Y-65194190D01*
X145238286Y-65146571D01*
X145143048Y-65098952D01*
X124458095Y-64670381D02*
X124458095Y-65479905D01*
X124505714Y-65575143D01*
X124553333Y-65622762D01*
X124648571Y-65670381D01*
X124839048Y-65670381D01*
X124934286Y-65622762D01*
X124981905Y-65575143D01*
X125029524Y-65479905D01*
X125029524Y-64670381D01*
X125553333Y-65670381D02*
X125743809Y-65670381D01*
X125839048Y-65622762D01*
X125886667Y-65575143D01*
X125981905Y-65432286D01*
X126029524Y-65241810D01*
X126029524Y-64860857D01*
X125981905Y-64765619D01*
X125934286Y-64718000D01*
X125839048Y-64670381D01*
X125648571Y-64670381D01*
X125553333Y-64718000D01*
X125505714Y-64765619D01*
X125458095Y-64860857D01*
X125458095Y-65098952D01*
X125505714Y-65194190D01*
X125553333Y-65241810D01*
X125648571Y-65289429D01*
X125839048Y-65289429D01*
X125934286Y-65241810D01*
X125981905Y-65194190D01*
X126029524Y-65098952D01*
X174995933Y-73160030D02*
X174030008Y-72901211D01*
X174091631Y-72671229D01*
X174174602Y-72545563D01*
X174291244Y-72478220D01*
X174395562Y-72456873D01*
X174591872Y-72460175D01*
X174729862Y-72497149D01*
X174901523Y-72592445D01*
X174981191Y-72663091D01*
X175048535Y-72779733D01*
X175057557Y-72930048D01*
X174995933Y-73160030D01*
X174399749Y-71521316D02*
X174350450Y-71705303D01*
X174371797Y-71809620D01*
X174405469Y-71867942D01*
X174518809Y-71996908D01*
X174690470Y-72092204D01*
X175058442Y-72190802D01*
X175162760Y-72169455D01*
X175221081Y-72135783D01*
X175291727Y-72056115D01*
X175341026Y-71872128D01*
X175319679Y-71767811D01*
X175286007Y-71709489D01*
X175206339Y-71638844D01*
X174976357Y-71577220D01*
X174872038Y-71598567D01*
X174813717Y-71632239D01*
X174743071Y-71711907D01*
X174693772Y-71895893D01*
X174715119Y-72000211D01*
X174748791Y-72058532D01*
X174828460Y-72129178D01*
X178551933Y-82812030D02*
X177586008Y-82553211D01*
X177647631Y-82323229D01*
X177730602Y-82197563D01*
X177847244Y-82130220D01*
X177951562Y-82108873D01*
X178147872Y-82112175D01*
X178285862Y-82149149D01*
X178457523Y-82244445D01*
X178537191Y-82315091D01*
X178604535Y-82431733D01*
X178613557Y-82582048D01*
X178551933Y-82812030D01*
X177820177Y-81679278D02*
X177980399Y-81081323D01*
X178262097Y-81501897D01*
X178299071Y-81363907D01*
X178369717Y-81284239D01*
X178428038Y-81250567D01*
X178532357Y-81229220D01*
X178762339Y-81290844D01*
X178842007Y-81361489D01*
X178875679Y-81419811D01*
X178897026Y-81524128D01*
X178823077Y-81800108D01*
X178752431Y-81879776D01*
X178694110Y-81913447D01*
X151802140Y-54162000D02*
X151543321Y-53196074D01*
X151773303Y-53134450D01*
X151923618Y-53143472D01*
X152040260Y-53210816D01*
X152110906Y-53290484D01*
X152206201Y-53462145D01*
X152243175Y-53600135D01*
X152246478Y-53796445D01*
X152225131Y-53900763D01*
X152157787Y-54017405D01*
X152032122Y-54100376D01*
X151802140Y-54162000D01*
X152814062Y-53890856D02*
X152998048Y-53841557D01*
X153077717Y-53770911D01*
X153111389Y-53712590D01*
X153166407Y-53549951D01*
X153163105Y-53353641D01*
X153064507Y-52985668D01*
X152993861Y-52906000D01*
X152935540Y-52872328D01*
X152831222Y-52850981D01*
X152647236Y-52900281D01*
X152567568Y-52970926D01*
X152533896Y-53029248D01*
X152512549Y-53133565D01*
X152574172Y-53363547D01*
X152644818Y-53443215D01*
X152703140Y-53476888D01*
X152807457Y-53498235D01*
X152991444Y-53448936D01*
X153071112Y-53378290D01*
X153104784Y-53319968D01*
X153126131Y-53215650D01*
X159549140Y-57718000D02*
X159290321Y-56752074D01*
X159520303Y-56690450D01*
X159670618Y-56699472D01*
X159787260Y-56766816D01*
X159857906Y-56846484D01*
X159953201Y-57018145D01*
X159990175Y-57156135D01*
X159993478Y-57352445D01*
X159972131Y-57456763D01*
X159904787Y-57573405D01*
X159779122Y-57656376D01*
X159549140Y-57718000D01*
X160164254Y-56517904D02*
X160808205Y-56345358D01*
X160653055Y-57422206D01*
X133025970Y-53779933D02*
X133284789Y-52814008D01*
X133514771Y-52875631D01*
X133640437Y-52958602D01*
X133707780Y-53075244D01*
X133729127Y-53179562D01*
X133725825Y-53375872D01*
X133688851Y-53513862D01*
X133593555Y-53685523D01*
X133522909Y-53765191D01*
X133406267Y-53832535D01*
X133255952Y-53841557D01*
X133025970Y-53779933D01*
X134180069Y-53152495D02*
X134238390Y-53118823D01*
X134342708Y-53097476D01*
X134572691Y-53159100D01*
X134652359Y-53229746D01*
X134686031Y-53288067D01*
X134707378Y-53392384D01*
X134682728Y-53484377D01*
X134599758Y-53610042D01*
X133899903Y-54014103D01*
X134497858Y-54174324D01*
X110622000Y-71734140D02*
X111587926Y-71475321D01*
X111649550Y-71705303D01*
X111640528Y-71855618D01*
X111573184Y-71972260D01*
X111493516Y-72042906D01*
X111321855Y-72138201D01*
X111183865Y-72175175D01*
X110987555Y-72178478D01*
X110883237Y-72157131D01*
X110766595Y-72089787D01*
X110683624Y-71964122D01*
X110622000Y-71734140D01*
X111969993Y-72901212D02*
X111846745Y-72441247D01*
X111374456Y-72518497D01*
X111432778Y-72552169D01*
X111503423Y-72631837D01*
X111565047Y-72861820D01*
X111543700Y-72966138D01*
X111510028Y-73024459D01*
X111430359Y-73095105D01*
X111200377Y-73156728D01*
X111096060Y-73135381D01*
X111037739Y-73101710D01*
X110967093Y-73022042D01*
X110905469Y-72792058D01*
X110926816Y-72687741D01*
X110960488Y-72629420D01*
X107066000Y-80624140D02*
X108031926Y-80365321D01*
X108093550Y-80595303D01*
X108084528Y-80745618D01*
X108017184Y-80862260D01*
X107937516Y-80932906D01*
X107765855Y-81028201D01*
X107627865Y-81065175D01*
X107431555Y-81068478D01*
X107327237Y-81047131D01*
X107210595Y-80979787D01*
X107127624Y-80854122D01*
X107066000Y-80624140D01*
X107913752Y-81580158D02*
X107935099Y-81475841D01*
X107968770Y-81417520D01*
X108048439Y-81346874D01*
X108094435Y-81334549D01*
X108198752Y-81355896D01*
X108257074Y-81389568D01*
X108327719Y-81469236D01*
X108377019Y-81653222D01*
X108355672Y-81757540D01*
X108322000Y-81815861D01*
X108242332Y-81886507D01*
X108196335Y-81898832D01*
X108092018Y-81877485D01*
X108033697Y-81843813D01*
X107963051Y-81764145D01*
X107913752Y-81580158D01*
X107843106Y-81500490D01*
X107784785Y-81466818D01*
X107680466Y-81445472D01*
X107496480Y-81494770D01*
X107416812Y-81565416D01*
X107383141Y-81623737D01*
X107361794Y-81728055D01*
X107411093Y-81912042D01*
X107481739Y-81991710D01*
X107540060Y-82025381D01*
X107644377Y-82046728D01*
X107828363Y-81997430D01*
X107908032Y-81926784D01*
X107941704Y-81868462D01*
X107963051Y-81764145D01*
X124389970Y-57335933D02*
X124648789Y-56370008D01*
X124878771Y-56431631D01*
X125004437Y-56514602D01*
X125071780Y-56631244D01*
X125093127Y-56735562D01*
X125089825Y-56931872D01*
X125052851Y-57069862D01*
X124957555Y-57241523D01*
X124886909Y-57321191D01*
X124770267Y-57388535D01*
X124619952Y-57397557D01*
X124389970Y-57335933D01*
X125942411Y-57061724D02*
X125769865Y-57705675D01*
X125811025Y-56632129D02*
X125396172Y-57260453D01*
X125994127Y-57420674D01*
X144047905Y-80418381D02*
X144047905Y-81227905D01*
X144095524Y-81323143D01*
X144143143Y-81370762D01*
X144238381Y-81418381D01*
X144428858Y-81418381D01*
X144524096Y-81370762D01*
X144571715Y-81323143D01*
X144619334Y-81227905D01*
X144619334Y-80418381D01*
X145619334Y-81418381D02*
X145047905Y-81418381D01*
X145333619Y-81418381D02*
X145333619Y-80418381D01*
X145238381Y-80561238D01*
X145143143Y-80656476D01*
X145047905Y-80704095D01*
X146238381Y-80418381D02*
X146333620Y-80418381D01*
X146428858Y-80466000D01*
X146476477Y-80513619D01*
X146524096Y-80608857D01*
X146571715Y-80799333D01*
X146571715Y-81037429D01*
X146524096Y-81227905D01*
X146476477Y-81323143D01*
X146428858Y-81370762D01*
X146333620Y-81418381D01*
X146238381Y-81418381D01*
X146143143Y-81370762D01*
X146095524Y-81323143D01*
X146047905Y-81227905D01*
X146000286Y-81037429D01*
X146000286Y-80799333D01*
X146047905Y-80608857D01*
X146095524Y-80513619D01*
X146143143Y-80466000D01*
X146238381Y-80418381D01*
X111654905Y-120534381D02*
X111654905Y-119534381D01*
X111893000Y-119534381D01*
X112035858Y-119582000D01*
X112131096Y-119677238D01*
X112178715Y-119772476D01*
X112226334Y-119962952D01*
X112226334Y-120105810D01*
X112178715Y-120296286D01*
X112131096Y-120391524D01*
X112035858Y-120486762D01*
X111893000Y-120534381D01*
X111654905Y-120534381D01*
X113178715Y-120534381D02*
X112607286Y-120534381D01*
X112893000Y-120534381D02*
X112893000Y-119534381D01*
X112797762Y-119677238D01*
X112702524Y-119772476D01*
X112607286Y-119820095D01*
X114639334Y-120661381D02*
X114306000Y-120185190D01*
X114067905Y-120661381D02*
X114067905Y-119661381D01*
X114448858Y-119661381D01*
X114544096Y-119709000D01*
X114591715Y-119756619D01*
X114639334Y-119851857D01*
X114639334Y-119994714D01*
X114591715Y-120089952D01*
X114544096Y-120137571D01*
X114448858Y-120185190D01*
X114067905Y-120185190D01*
X115020286Y-119756619D02*
X115067905Y-119709000D01*
X115163143Y-119661381D01*
X115401239Y-119661381D01*
X115496477Y-119709000D01*
X115544096Y-119756619D01*
X115591715Y-119851857D01*
X115591715Y-119947095D01*
X115544096Y-120089952D01*
X114972667Y-120661381D01*
X115591715Y-120661381D01*
X156843095Y-96293381D02*
X156843095Y-97102905D01*
X156890714Y-97198143D01*
X156938333Y-97245762D01*
X157033571Y-97293381D01*
X157224048Y-97293381D01*
X157319286Y-97245762D01*
X157366905Y-97198143D01*
X157414524Y-97102905D01*
X157414524Y-96293381D01*
X157795476Y-96293381D02*
X158414524Y-96293381D01*
X158081190Y-96674333D01*
X158224048Y-96674333D01*
X158319286Y-96721952D01*
X158366905Y-96769571D01*
X158414524Y-96864810D01*
X158414524Y-97102905D01*
X158366905Y-97198143D01*
X158319286Y-97245762D01*
X158224048Y-97293381D01*
X157938333Y-97293381D01*
X157843095Y-97245762D01*
X157795476Y-97198143D01*
X118131905Y-116772381D02*
X118131905Y-115772381D01*
X118512858Y-115772381D01*
X118608096Y-115820000D01*
X118655715Y-115867619D01*
X118703334Y-115962857D01*
X118703334Y-116105714D01*
X118655715Y-116200952D01*
X118608096Y-116248571D01*
X118512858Y-116296190D01*
X118131905Y-116296190D01*
X119036667Y-115772381D02*
X119655715Y-115772381D01*
X119322381Y-116153333D01*
X119465239Y-116153333D01*
X119560477Y-116200952D01*
X119608096Y-116248571D01*
X119655715Y-116343810D01*
X119655715Y-116581905D01*
X119608096Y-116677143D01*
X119560477Y-116724762D01*
X119465239Y-116772381D01*
X119179524Y-116772381D01*
X119084286Y-116724762D01*
X119036667Y-116677143D01*
X126386905Y-116772381D02*
X126386905Y-115772381D01*
X126767858Y-115772381D01*
X126863096Y-115820000D01*
X126910715Y-115867619D01*
X126958334Y-115962857D01*
X126958334Y-116105714D01*
X126910715Y-116200952D01*
X126863096Y-116248571D01*
X126767858Y-116296190D01*
X126386905Y-116296190D01*
X127815477Y-116105714D02*
X127815477Y-116772381D01*
X127577381Y-115724762D02*
X127339286Y-116439048D01*
X127958334Y-116439048D01*
X133371905Y-118502381D02*
X133371905Y-117502381D01*
X133752858Y-117502381D01*
X133848096Y-117550000D01*
X133895715Y-117597619D01*
X133943334Y-117692857D01*
X133943334Y-117835714D01*
X133895715Y-117930952D01*
X133848096Y-117978571D01*
X133752858Y-118026190D01*
X133371905Y-118026190D01*
X134800477Y-117502381D02*
X134610000Y-117502381D01*
X134514762Y-117550000D01*
X134467143Y-117597619D01*
X134371905Y-117740476D01*
X134324286Y-117930952D01*
X134324286Y-118311905D01*
X134371905Y-118407143D01*
X134419524Y-118454762D01*
X134514762Y-118502381D01*
X134705239Y-118502381D01*
X134800477Y-118454762D01*
X134848096Y-118407143D01*
X134895715Y-118311905D01*
X134895715Y-118073810D01*
X134848096Y-117978571D01*
X134800477Y-117930952D01*
X134705239Y-117883333D01*
X134514762Y-117883333D01*
X134419524Y-117930952D01*
X134371905Y-117978571D01*
X134324286Y-118073810D01*
X125093095Y-101617381D02*
X125093095Y-102426905D01*
X125140714Y-102522143D01*
X125188333Y-102569762D01*
X125283571Y-102617381D01*
X125474048Y-102617381D01*
X125569286Y-102569762D01*
X125616905Y-102522143D01*
X125664524Y-102426905D01*
X125664524Y-101617381D01*
X126093095Y-101712619D02*
X126140714Y-101665000D01*
X126235952Y-101617381D01*
X126474048Y-101617381D01*
X126569286Y-101665000D01*
X126616905Y-101712619D01*
X126664524Y-101807857D01*
X126664524Y-101903095D01*
X126616905Y-102045952D01*
X126045476Y-102617381D01*
X126664524Y-102617381D01*
X126998095Y-110517381D02*
X126998095Y-111326905D01*
X127045714Y-111422143D01*
X127093333Y-111469762D01*
X127188571Y-111517381D01*
X127379048Y-111517381D01*
X127474286Y-111469762D01*
X127521905Y-111422143D01*
X127569524Y-111326905D01*
X127569524Y-110517381D01*
X128474286Y-110850714D02*
X128474286Y-111517381D01*
X128236190Y-110469762D02*
X127998095Y-111184048D01*
X128617143Y-111184048D01*
M02*
