G04 #@! TF.FileFunction,Copper,L2,Bot,Signal*
%FSLAX46Y46*%
G04 Gerber Fmt 4.6, Leading zero omitted, Abs format (unit mm)*
G04 Created by KiCad (PCBNEW 4.0.1-stable) date 2016/09/09 20:04:21*
%MOMM*%
G01*
G04 APERTURE LIST*
%ADD10C,0.100000*%
%ADD11R,1.727200X1.727200*%
%ADD12O,1.727200X1.727200*%
%ADD13R,1.727200X2.032000*%
%ADD14O,1.727200X2.032000*%
%ADD15C,1.900000*%
%ADD16R,0.875000X0.800000*%
%ADD17C,0.800000*%
%ADD18R,1.200000X1.700000*%
%ADD19O,1.200000X1.700000*%
%ADD20R,0.800000X1.100000*%
%ADD21R,0.700000X1.100000*%
%ADD22R,0.700000X1.000000*%
%ADD23R,0.600000X1.100000*%
%ADD24C,0.400000*%
%ADD25C,0.600000*%
%ADD26C,1.000000*%
%ADD27C,0.200000*%
%ADD28C,0.290000*%
%ADD29C,0.440000*%
%ADD30C,0.800000*%
%ADD31C,0.190000*%
%ADD32C,0.254000*%
G04 APERTURE END LIST*
D10*
D11*
X136650000Y-74870000D03*
D12*
X134110000Y-74870000D03*
X136650000Y-72330000D03*
X134110000Y-72330000D03*
X136650000Y-69790000D03*
X134110000Y-69790000D03*
D11*
X149350000Y-69790000D03*
D12*
X151890000Y-69790000D03*
X149350000Y-72330000D03*
X151890000Y-72330000D03*
X149350000Y-74870000D03*
X151890000Y-74870000D03*
D13*
X164590000Y-120590000D03*
D14*
X162050000Y-120590000D03*
X159510000Y-120590000D03*
D10*
G36*
X169102084Y-78928104D02*
X167266825Y-78436348D01*
X167784464Y-76504496D01*
X169619723Y-76996252D01*
X169102084Y-78928104D01*
X169102084Y-78928104D01*
G37*
D15*
X170896726Y-78373700D03*
D10*
G36*
X172912084Y-87183104D02*
X171076825Y-86691348D01*
X171594464Y-84759496D01*
X173429723Y-85251252D01*
X172912084Y-87183104D01*
X172912084Y-87183104D01*
G37*
D15*
X174706726Y-86628700D03*
D10*
G36*
X145761252Y-58309723D02*
X145269496Y-56474464D01*
X147201348Y-55956825D01*
X147693104Y-57792084D01*
X145761252Y-58309723D01*
X145761252Y-58309723D01*
G37*
D15*
X147138700Y-59586726D03*
D10*
G36*
X153381252Y-62119723D02*
X152889496Y-60284464D01*
X154821348Y-59766825D01*
X155313104Y-61602084D01*
X153381252Y-62119723D01*
X153381252Y-62119723D01*
G37*
D15*
X154758700Y-63396726D03*
D10*
G36*
X140073104Y-58927916D02*
X139581348Y-60763175D01*
X137649496Y-60245536D01*
X138141252Y-58410277D01*
X140073104Y-58927916D01*
X140073104Y-58927916D01*
G37*
D15*
X139518700Y-57133274D03*
D10*
G36*
X116279723Y-79093748D02*
X114444464Y-79585504D01*
X113926825Y-77653652D01*
X115762084Y-77161896D01*
X116279723Y-79093748D01*
X116279723Y-79093748D01*
G37*
D15*
X117556726Y-77716300D03*
D10*
G36*
X112469723Y-86713748D02*
X110634464Y-87205504D01*
X110116825Y-85273652D01*
X111952084Y-84781896D01*
X112469723Y-86713748D01*
X112469723Y-86713748D01*
G37*
D15*
X113746726Y-85336300D03*
D10*
G36*
X132453104Y-62737916D02*
X131961348Y-64573175D01*
X130029496Y-64055536D01*
X130521252Y-62220277D01*
X132453104Y-62737916D01*
X132453104Y-62737916D01*
G37*
D15*
X131898700Y-60943274D03*
D16*
X143435000Y-78445000D03*
X143435000Y-77645000D03*
X142565000Y-78445000D03*
X142565000Y-77645000D03*
D17*
X160145000Y-98365000D03*
X161145000Y-98365000D03*
X159145000Y-98365000D03*
D18*
X118870000Y-119320000D03*
D19*
X120870000Y-119320000D03*
D18*
X127125000Y-119320000D03*
D19*
X129125000Y-119320000D03*
D17*
X125855000Y-98365000D03*
X126855000Y-98365000D03*
X124855000Y-98365000D03*
D20*
X127760000Y-106620000D03*
D21*
X130010000Y-108320000D03*
D22*
X128910000Y-108320000D03*
D20*
X127760000Y-108320000D03*
D22*
X126610000Y-108320000D03*
D21*
X125510000Y-108320000D03*
D23*
X125560000Y-106620000D03*
D21*
X125510000Y-104920000D03*
D22*
X126610000Y-104920000D03*
D20*
X127760000Y-104920000D03*
D22*
X128910000Y-104920000D03*
D21*
X130010000Y-104920000D03*
D23*
X129960000Y-106620000D03*
D21*
X126610000Y-106620000D03*
D24*
X160761700Y-106609400D03*
X133393000Y-101317500D03*
X162485500Y-109241800D03*
X136408100Y-107497500D03*
X140134900Y-112393000D03*
X164129000Y-106513100D03*
X164129000Y-101964600D03*
X129915000Y-100381400D03*
X141109200Y-108466700D03*
D25*
X113000000Y-116000000D03*
X133000000Y-116000000D03*
X133000000Y-117000000D03*
X133000000Y-118000000D03*
X133000000Y-119000000D03*
X133000000Y-120000000D03*
X133000000Y-121000000D03*
X131000000Y-120000000D03*
X131000000Y-119000000D03*
X131000000Y-118219900D03*
X131000000Y-117000000D03*
X130000000Y-117000000D03*
X129000000Y-117000000D03*
X159000000Y-117000000D03*
X158000000Y-117000000D03*
X157000000Y-117000000D03*
X156000000Y-117000000D03*
X155000000Y-117000000D03*
X154000000Y-117000000D03*
X153000000Y-117000000D03*
X158000000Y-119000000D03*
X157000000Y-119000000D03*
X156000000Y-119000000D03*
X155000000Y-119000000D03*
X154000000Y-119000000D03*
X153000000Y-119000000D03*
X113155000Y-86935000D03*
X114425000Y-86935000D03*
X151255000Y-91380000D03*
X151255000Y-92650000D03*
X154430000Y-70425000D03*
X154430000Y-67885000D03*
X153795000Y-67250000D03*
X156335000Y-65345000D03*
X156335000Y-64710000D03*
X128000000Y-95000000D03*
X129000000Y-95000000D03*
X130000000Y-95000000D03*
X131000000Y-95000000D03*
X132000000Y-95000000D03*
X133000000Y-95000000D03*
X128000000Y-94000000D03*
X128000000Y-90000000D03*
X128000000Y-89000000D03*
X128000000Y-88000000D03*
X128000000Y-87000000D03*
X128000000Y-86000000D03*
X128000000Y-85000000D03*
X135000000Y-82000000D03*
X134000000Y-82000000D03*
X133000000Y-82000000D03*
X132000000Y-82000000D03*
X136000000Y-86000000D03*
X136000000Y-87000000D03*
X136000000Y-88000000D03*
X136000000Y-89000000D03*
X129000000Y-78000000D03*
X129000000Y-79000000D03*
X128000000Y-80000000D03*
X131000000Y-82000000D03*
X152500000Y-96500000D03*
X144000000Y-114500000D03*
X151000000Y-110500000D03*
X159500000Y-111000000D03*
X157000000Y-111000000D03*
X152500000Y-108500000D03*
X151000000Y-113500000D03*
X166000000Y-113000000D03*
X165000000Y-113000000D03*
X168500000Y-118000000D03*
X168500000Y-117000000D03*
X168500000Y-116000000D03*
X168500000Y-115000000D03*
X129000000Y-111000000D03*
X128000000Y-111000000D03*
X127000000Y-111000000D03*
X126000000Y-111000000D03*
X125000000Y-111000000D03*
X129500000Y-102000000D03*
X143500000Y-84000000D03*
X141250000Y-91000000D03*
X141000000Y-85000000D03*
X141000000Y-86000000D03*
X141000000Y-87000000D03*
X142250000Y-96500000D03*
X142250000Y-97250000D03*
X141500000Y-99750000D03*
X141250000Y-92000000D03*
X141250000Y-93000000D03*
X145250000Y-95000000D03*
X145250000Y-94000000D03*
X145250000Y-93000000D03*
X145250000Y-92000000D03*
X143750000Y-97250000D03*
X143750000Y-96500000D03*
X118000000Y-70000000D03*
X123000000Y-66000000D03*
X123000000Y-65000000D03*
X130000000Y-65000000D03*
X134000000Y-61000000D03*
X135000000Y-61000000D03*
X136000000Y-61000000D03*
X137000000Y-61000000D03*
X150000000Y-53000000D03*
X151000000Y-54000000D03*
X152000000Y-55000000D03*
X153000000Y-56000000D03*
X154000000Y-57000000D03*
X155000000Y-58000000D03*
X167000000Y-72000000D03*
X165000000Y-75000000D03*
X165000000Y-74000000D03*
X164000000Y-79000000D03*
X166000000Y-79000000D03*
X165000000Y-79000000D03*
X158000000Y-88000000D03*
X157000000Y-88000000D03*
X152500000Y-83000000D03*
X152500000Y-82000000D03*
X152500000Y-88000000D03*
X152500000Y-89000000D03*
X152500000Y-90000000D03*
X152500000Y-91000000D03*
X152500000Y-92000000D03*
X152500000Y-93000000D03*
X120000000Y-109000000D03*
X118000000Y-112000000D03*
X118000000Y-111000000D03*
X112000000Y-113000000D03*
X110000000Y-112000000D03*
X172000000Y-119000000D03*
X172000000Y-118000000D03*
X172000000Y-117000000D03*
X172000000Y-116000000D03*
X139000000Y-121000000D03*
X138000000Y-121000000D03*
X137000000Y-121000000D03*
X127000000Y-121000000D03*
X126000000Y-121000000D03*
X125000000Y-121000000D03*
X124000000Y-121000000D03*
X128000000Y-121000000D03*
X129000000Y-121000000D03*
X132000000Y-121000000D03*
X131000000Y-121000000D03*
X130000000Y-121000000D03*
X133000000Y-115000000D03*
X132000000Y-115000000D03*
X131000000Y-115000000D03*
X130000000Y-115000000D03*
X129000000Y-115000000D03*
X128000000Y-115000000D03*
X127000000Y-115000000D03*
X126000000Y-115000000D03*
X125000000Y-115000000D03*
X124000000Y-115000000D03*
X123000000Y-115000000D03*
X122000000Y-115000000D03*
X121000000Y-115000000D03*
X120000000Y-115000000D03*
X116000000Y-115000000D03*
X115000000Y-115000000D03*
X116000000Y-121000000D03*
X116000000Y-120000000D03*
X162000000Y-66000000D03*
X162000000Y-65000000D03*
X162000000Y-64000000D03*
X162000000Y-63000000D03*
X143060650Y-70060650D03*
X142000000Y-71000000D03*
X158000000Y-79000000D03*
X157000000Y-79000000D03*
X156000000Y-79000000D03*
X155000000Y-79000000D03*
X159000000Y-82000000D03*
X158000000Y-82000000D03*
X157000000Y-82000000D03*
X156000000Y-82000000D03*
X155000000Y-82000000D03*
X158000000Y-104000000D03*
X160000000Y-108000000D03*
X151000000Y-106000000D03*
X145000000Y-103000000D03*
X142000000Y-118000000D03*
X142000000Y-114000000D03*
X142000000Y-113000000D03*
X142000000Y-109000000D03*
X144000000Y-110000000D03*
X144000000Y-108000000D03*
X145000000Y-108000000D03*
X145000000Y-106000000D03*
X144000000Y-106000000D03*
X142000000Y-106000000D03*
X139000000Y-115000000D03*
X132000000Y-104000000D03*
X136000000Y-105000000D03*
X135000000Y-104000000D03*
X135000000Y-110000000D03*
X136000000Y-111000000D03*
X135000000Y-112000000D03*
X134000000Y-111000000D03*
X125000000Y-103000000D03*
X121000000Y-106000000D03*
X120000000Y-106000000D03*
X121000000Y-101000000D03*
X121000000Y-102000000D03*
X121000000Y-103000000D03*
X158000000Y-94000000D03*
X157000000Y-94000000D03*
X156000000Y-94000000D03*
X155000000Y-94000000D03*
X148000000Y-94000000D03*
X148000000Y-83000000D03*
X148000000Y-84000000D03*
X148000000Y-85000000D03*
X148000000Y-86000000D03*
X148000000Y-87000000D03*
X148000000Y-88000000D03*
X148000000Y-89000000D03*
X148000000Y-90000000D03*
X148000000Y-91000000D03*
X148000000Y-92000000D03*
X148000000Y-93000000D03*
X153000000Y-106000000D03*
X152000000Y-101000000D03*
X151000000Y-102000000D03*
X150000000Y-102000000D03*
D24*
X154904500Y-107206100D03*
X155000000Y-106000000D03*
D25*
X166000000Y-101000000D03*
X166000000Y-102000000D03*
X166000000Y-109000000D03*
X166000000Y-108000000D03*
X177000000Y-111000000D03*
X177000000Y-112000000D03*
X177000000Y-113000000D03*
X177000000Y-114000000D03*
X177000000Y-115000000D03*
X177000000Y-116000000D03*
X165000000Y-118000000D03*
X165000000Y-117000000D03*
X165000000Y-116000000D03*
X165000000Y-115000000D03*
X121000000Y-87000000D03*
X121000000Y-86000000D03*
X121000000Y-85000000D03*
X121000000Y-84000000D03*
X121000000Y-83000000D03*
X121000000Y-91000000D03*
X121000000Y-92000000D03*
X121000000Y-93000000D03*
X121000000Y-94000000D03*
X121000000Y-95000000D03*
X121000000Y-96000000D03*
X121000000Y-97000000D03*
X121000000Y-79000000D03*
X165000000Y-96000000D03*
X165000000Y-95000000D03*
X165000000Y-94000000D03*
X165000000Y-93000000D03*
X165000000Y-92000000D03*
X165000000Y-91000000D03*
X165000000Y-90000000D03*
X165000000Y-89000000D03*
X165000000Y-88000000D03*
X165000000Y-87000000D03*
X165000000Y-86000000D03*
X165000000Y-85000000D03*
X165000000Y-84000000D03*
X165000000Y-83000000D03*
X165000000Y-82000000D03*
X170000000Y-83000000D03*
X170000000Y-84000000D03*
X170000000Y-85000000D03*
X170000000Y-86000000D03*
X170000000Y-87000000D03*
X178000000Y-87000000D03*
X178000000Y-86000000D03*
X178000000Y-85000000D03*
X176000000Y-75000000D03*
X176000000Y-74000000D03*
X176000000Y-73000000D03*
X149000000Y-60000000D03*
X149000000Y-61000000D03*
X149000000Y-63500000D03*
X158000000Y-56000000D03*
X159000000Y-57000000D03*
X165000000Y-61000000D03*
X166000000Y-62000000D03*
X167000000Y-63000000D03*
X168000000Y-64000000D03*
X169000000Y-65000000D03*
X170000000Y-66000000D03*
X171000000Y-67000000D03*
X168000000Y-71000000D03*
X146000000Y-63000000D03*
X146000000Y-64000000D03*
X140000000Y-64000000D03*
X140000000Y-63000000D03*
X143000000Y-55000000D03*
X127000000Y-57000000D03*
X128000000Y-56000000D03*
X136000000Y-54000000D03*
X108000000Y-85000000D03*
X108000000Y-84000000D03*
X121000000Y-61000000D03*
X120000000Y-62000000D03*
X119000000Y-63000000D03*
X118000000Y-64000000D03*
X117000000Y-65000000D03*
X116000000Y-66000000D03*
X115000000Y-67000000D03*
X111000000Y-74000000D03*
X111000000Y-75000000D03*
X140000000Y-55000000D03*
X138000000Y-56000000D03*
X115000000Y-81000000D03*
X108000000Y-87000000D03*
X108000000Y-86000000D03*
X144292900Y-75180900D03*
X144279800Y-68841500D03*
X143878300Y-81202900D03*
D24*
X144494900Y-118133400D03*
X142945400Y-102581900D03*
D26*
X163328500Y-96932300D03*
D25*
X140575700Y-118190100D03*
X154432100Y-109084700D03*
D24*
X147555000Y-61616300D03*
X147555000Y-67738900D03*
X143938100Y-68173500D03*
X140769500Y-101227300D03*
X134355900Y-63178200D03*
X141650000Y-73688100D03*
X138250600Y-98071200D03*
X137774700Y-71121800D03*
X116797500Y-81530900D03*
X145827300Y-73843000D03*
X141411400Y-101227300D03*
X144831800Y-71963900D03*
X144982000Y-90485400D03*
X146538500Y-111093800D03*
X140906600Y-53226600D03*
X154161900Y-112092100D03*
X145339400Y-53073600D03*
X153557300Y-111632400D03*
X146130300Y-53322700D03*
D26*
X125728000Y-94682000D03*
X124458000Y-95952000D03*
D24*
X147596400Y-99683000D03*
X147791100Y-99082600D03*
D26*
X148713600Y-78758400D03*
X160018000Y-94682000D03*
X158748000Y-95952000D03*
D24*
X145918400Y-100880000D03*
X150332400Y-97136700D03*
X149867100Y-116233900D03*
X150063100Y-103749700D03*
X148404700Y-119887300D03*
X153551800Y-110583200D03*
X145824800Y-118141700D03*
X148041000Y-103280600D03*
X148590000Y-116228600D03*
X148590000Y-110567700D03*
X144893900Y-116066500D03*
X145548900Y-108939400D03*
X134778900Y-98856100D03*
X148407000Y-100784900D03*
X146546800Y-111810900D03*
X153514700Y-80269600D03*
X142085400Y-108297400D03*
X132021000Y-86758600D03*
X126028500Y-101062800D03*
X132577700Y-101718100D03*
X124966000Y-101032000D03*
X124204000Y-100270000D03*
X132349400Y-102663800D03*
X159256000Y-101286000D03*
X158494000Y-100524000D03*
X159493400Y-102634100D03*
X139769000Y-75892800D03*
X138464200Y-105036800D03*
X138761100Y-94949800D03*
X139080600Y-105088000D03*
X142050600Y-81475400D03*
X139606800Y-105410800D03*
X141479300Y-76403200D03*
X140253600Y-105040000D03*
X144567600Y-84635000D03*
X141026900Y-105036800D03*
D25*
X145164500Y-55450200D03*
X126650700Y-72797300D03*
D24*
X158736200Y-109889900D03*
X152388900Y-58134700D03*
D27*
X129661700Y-62973500D02*
X129661600Y-62973400D01*
X129661600Y-62973400D02*
X129661700Y-62973500D01*
D28*
X136408100Y-108666200D02*
X136408100Y-107497500D01*
X140134900Y-112393000D02*
X136408100Y-108666200D01*
X133393000Y-104482400D02*
X133393000Y-101317500D01*
X136408100Y-107497500D02*
X133393000Y-104482400D01*
X132456900Y-100381400D02*
X129915000Y-100381400D01*
X133393000Y-101317500D02*
X132456900Y-100381400D01*
X162485500Y-108333200D02*
X162485500Y-109241800D01*
X160761700Y-106609400D02*
X162485500Y-108333200D01*
X164129000Y-106513100D02*
X164129000Y-101964600D01*
X140134900Y-109441000D02*
X141109200Y-108466700D01*
X140134900Y-112393000D02*
X140134900Y-109441000D01*
D29*
X131000000Y-117000000D02*
X133000000Y-115000000D01*
X133000000Y-116000000D02*
X133000000Y-115000000D01*
X133000000Y-117000000D02*
X133000000Y-118000000D01*
X133000000Y-119000000D02*
X133000000Y-120000000D01*
X129125000Y-119320000D02*
X129125000Y-117125000D01*
X131000000Y-118219900D02*
X131000000Y-119000000D01*
X130000000Y-117000000D02*
X131000000Y-117000000D01*
X129125000Y-117125000D02*
X129000000Y-117000000D01*
X159000000Y-117000000D02*
X158000000Y-117000000D01*
X157000000Y-117000000D02*
X156000000Y-117000000D01*
X155000000Y-117000000D02*
X154000000Y-117000000D01*
X157000000Y-119000000D02*
X158000000Y-119000000D01*
X155000000Y-119000000D02*
X156000000Y-119000000D01*
X153000000Y-119000000D02*
X154000000Y-119000000D01*
X114425000Y-86935000D02*
X113155000Y-86935000D01*
X151255000Y-92650000D02*
X151255000Y-91380000D01*
X153795000Y-67250000D02*
X154430000Y-67885000D01*
X156335000Y-64710000D02*
X156335000Y-65345000D01*
X128000000Y-95000000D02*
X129000000Y-95000000D01*
X130000000Y-95000000D02*
X131000000Y-95000000D01*
X131000000Y-82000000D02*
X128000000Y-85000000D01*
X128000000Y-90000000D02*
X128000000Y-94000000D01*
X128000000Y-88000000D02*
X128000000Y-89000000D01*
X128000000Y-86000000D02*
X128000000Y-87000000D01*
X132000000Y-82000000D02*
X131000000Y-82000000D01*
X135000000Y-85000000D02*
X135000000Y-82000000D01*
X134000000Y-82000000D02*
X133000000Y-82000000D01*
X136000000Y-87000000D02*
X136000000Y-86000000D01*
X136000000Y-89000000D02*
X136000000Y-88000000D01*
X136000000Y-86000000D02*
X135000000Y-85000000D01*
X128000000Y-80000000D02*
X129000000Y-79000000D01*
X144000000Y-110000000D02*
X144000000Y-114500000D01*
X151000000Y-113500000D02*
X151000000Y-110500000D01*
X152500000Y-109000000D02*
X151000000Y-110500000D01*
X159500000Y-111000000D02*
X157000000Y-111000000D01*
X152500000Y-108500000D02*
X152500000Y-109000000D01*
X165000000Y-115000000D02*
X165000000Y-113000000D01*
X166000000Y-113000000D02*
X167000000Y-113000000D01*
X165000000Y-115000000D02*
X168500000Y-115000000D01*
X168500000Y-116000000D02*
X168500000Y-117000000D01*
X127000000Y-111000000D02*
X128000000Y-111000000D01*
X125000000Y-111000000D02*
X126000000Y-111000000D01*
X141000000Y-87000000D02*
X141000000Y-86000000D01*
X142250000Y-97250000D02*
X142250000Y-99000000D01*
X142250000Y-96500000D02*
X142250000Y-97250000D01*
X142250000Y-99000000D02*
X141500000Y-99750000D01*
X141250000Y-93000000D02*
X141250000Y-92000000D01*
X145250000Y-94000000D02*
X145250000Y-95000000D01*
X145250000Y-92000000D02*
X145250000Y-93000000D01*
X143750000Y-97250000D02*
X143750000Y-96500000D01*
X118000000Y-70000000D02*
X122000000Y-66000000D01*
X122000000Y-66000000D02*
X123000000Y-66000000D01*
X138000000Y-56000000D02*
X136000000Y-58000000D01*
X136000000Y-61000000D02*
X135000000Y-61000000D01*
X136000000Y-60000000D02*
X137000000Y-61000000D01*
X136000000Y-58000000D02*
X136000000Y-60000000D01*
X150000000Y-53000000D02*
X151000000Y-54000000D01*
X152000000Y-55000000D02*
X153000000Y-56000000D01*
X154000000Y-57000000D02*
X155000000Y-58000000D01*
X165000000Y-74000000D02*
X165000000Y-75000000D01*
X165000000Y-82000000D02*
X165000000Y-79000000D01*
X166000000Y-79000000D02*
X164000000Y-79000000D01*
X157000000Y-88000000D02*
X158000000Y-88000000D01*
X152500000Y-82000000D02*
X152500000Y-83000000D01*
X152500000Y-89000000D02*
X152500000Y-88000000D01*
X152500000Y-91000000D02*
X152500000Y-90000000D01*
X152500000Y-93000000D02*
X152500000Y-92000000D01*
X118000000Y-111000000D02*
X118000000Y-112000000D01*
X112000000Y-113000000D02*
X111000000Y-113000000D01*
X111000000Y-113000000D02*
X110000000Y-112000000D01*
X172000000Y-118000000D02*
X172000000Y-119000000D01*
X172000000Y-116000000D02*
X172000000Y-117000000D01*
X137000000Y-121000000D02*
X138000000Y-121000000D01*
X124000000Y-115000000D02*
X124000000Y-121000000D01*
X127000000Y-121000000D02*
X129000000Y-121000000D01*
X125000000Y-121000000D02*
X126000000Y-121000000D01*
X129000000Y-121000000D02*
X128000000Y-121000000D01*
X129000000Y-121000000D02*
X130000000Y-121000000D01*
X131000000Y-121000000D02*
X132000000Y-121000000D01*
X115000000Y-115000000D02*
X115000000Y-119000000D01*
X132000000Y-115000000D02*
X131000000Y-115000000D01*
X130000000Y-115000000D02*
X129000000Y-115000000D01*
X128000000Y-115000000D02*
X127000000Y-115000000D01*
X126000000Y-115000000D02*
X125000000Y-115000000D01*
X124000000Y-115000000D02*
X123000000Y-115000000D01*
X122000000Y-115000000D02*
X121000000Y-115000000D01*
X120000000Y-115000000D02*
X116000000Y-115000000D01*
X115000000Y-119000000D02*
X116000000Y-120000000D01*
X165000000Y-61000000D02*
X164000000Y-61000000D01*
X162000000Y-64000000D02*
X162000000Y-65000000D01*
X164000000Y-61000000D02*
X162000000Y-63000000D01*
X142000000Y-71000000D02*
X142121300Y-71000000D01*
X142121300Y-71000000D02*
X142000000Y-71000000D01*
X142000000Y-71000000D02*
X142000000Y-71121300D01*
X155000000Y-82000000D02*
X155000000Y-79000000D01*
X156000000Y-79000000D02*
X157000000Y-79000000D01*
X155000000Y-94000000D02*
X155000000Y-82000000D01*
X158000000Y-82000000D02*
X159000000Y-82000000D01*
X156000000Y-82000000D02*
X157000000Y-82000000D01*
X153000000Y-106000000D02*
X151000000Y-106000000D01*
X145000000Y-106000000D02*
X145000000Y-103000000D01*
X142000000Y-118000000D02*
X142000000Y-114000000D01*
X142000000Y-113000000D02*
X142000000Y-109000000D01*
X144000000Y-110000000D02*
X144000000Y-108000000D01*
X145000000Y-108000000D02*
X145000000Y-106000000D01*
X135000000Y-104000000D02*
X136000000Y-105000000D01*
X136000000Y-111000000D02*
X135000000Y-110000000D01*
X134000000Y-111000000D02*
X135000000Y-112000000D01*
X120000000Y-106000000D02*
X121000000Y-106000000D01*
X121000000Y-103000000D02*
X121000000Y-102000000D01*
X158000000Y-94000000D02*
X157000000Y-94000000D01*
X156000000Y-94000000D02*
X155000000Y-94000000D01*
X148000000Y-85000000D02*
X148000000Y-84000000D01*
X148000000Y-87000000D02*
X148000000Y-86000000D01*
X148000000Y-89000000D02*
X148000000Y-88000000D01*
X148000000Y-91000000D02*
X148000000Y-90000000D01*
X148000000Y-93000000D02*
X148000000Y-92000000D01*
X153000000Y-106000000D02*
X153000000Y-105000000D01*
X151000000Y-102000000D02*
X152000000Y-101000000D01*
X153000000Y-105000000D02*
X150000000Y-102000000D01*
D27*
X155000000Y-107110600D02*
X155000000Y-106000000D01*
X154904500Y-107206100D02*
X155000000Y-107110600D01*
D29*
X166000000Y-102000000D02*
X166000000Y-101000000D01*
X166000000Y-108000000D02*
X166000000Y-109000000D01*
X177000000Y-111000000D02*
X177000000Y-112000000D01*
X177000000Y-113000000D02*
X177000000Y-114000000D01*
X177000000Y-115000000D02*
X177000000Y-116000000D01*
X165000000Y-117000000D02*
X165000000Y-118000000D01*
X165000000Y-115000000D02*
X165000000Y-116000000D01*
X129125000Y-119320000D02*
X129680000Y-119320000D01*
X129125000Y-119320000D02*
X129125000Y-118875000D01*
X121000000Y-87000000D02*
X121000000Y-86000000D01*
X121000000Y-85000000D02*
X121000000Y-84000000D01*
X121000000Y-93000000D02*
X121000000Y-92000000D01*
X121000000Y-95000000D02*
X121000000Y-94000000D01*
X121000000Y-97000000D02*
X121000000Y-96000000D01*
X165000000Y-94000000D02*
X165000000Y-95000000D01*
X165000000Y-92000000D02*
X165000000Y-93000000D01*
X165000000Y-90000000D02*
X165000000Y-91000000D01*
X165000000Y-88000000D02*
X165000000Y-89000000D01*
X165000000Y-86000000D02*
X165000000Y-87000000D01*
X165000000Y-84000000D02*
X165000000Y-85000000D01*
X165000000Y-82000000D02*
X165000000Y-83000000D01*
X170000000Y-85000000D02*
X170000000Y-84000000D01*
X170000000Y-87000000D02*
X170000000Y-86000000D01*
X171000000Y-67000000D02*
X174000000Y-70000000D01*
X178000000Y-85000000D02*
X178000000Y-86000000D01*
X176000000Y-74000000D02*
X176000000Y-75000000D01*
X174000000Y-71000000D02*
X176000000Y-73000000D01*
X174000000Y-70000000D02*
X174000000Y-71000000D01*
X149000000Y-63500000D02*
X149000000Y-61000000D01*
X159000000Y-57000000D02*
X158000000Y-56000000D01*
X166000000Y-62000000D02*
X165000000Y-61000000D01*
X168000000Y-64000000D02*
X167000000Y-63000000D01*
X170000000Y-66000000D02*
X169000000Y-65000000D01*
X171000000Y-68000000D02*
X171000000Y-67000000D01*
X168000000Y-71000000D02*
X171000000Y-68000000D01*
X146000000Y-64000000D02*
X146000000Y-63000000D01*
X140000000Y-63000000D02*
X140000000Y-64000000D01*
X127000000Y-57000000D02*
X128000000Y-56000000D01*
X108000000Y-84000000D02*
X108000000Y-81000000D01*
X108000000Y-86000000D02*
X108000000Y-85000000D01*
X120000000Y-62000000D02*
X121000000Y-61000000D01*
X118000000Y-64000000D02*
X119000000Y-63000000D01*
X116000000Y-66000000D02*
X117000000Y-65000000D01*
X112000000Y-70000000D02*
X115000000Y-67000000D01*
X112000000Y-73000000D02*
X112000000Y-70000000D01*
X111000000Y-74000000D02*
X112000000Y-73000000D01*
X111000000Y-78000000D02*
X111000000Y-75000000D01*
X108000000Y-81000000D02*
X111000000Y-78000000D01*
X139000000Y-55000000D02*
X140000000Y-55000000D01*
X138000000Y-56000000D02*
X139000000Y-55000000D01*
X114000000Y-80000000D02*
X108000000Y-86000000D01*
X115000000Y-81000000D02*
X114000000Y-80000000D01*
X108000000Y-86000000D02*
X108000000Y-87000000D01*
X141443700Y-71677600D02*
X142000000Y-71121300D01*
X142000000Y-71121300D02*
X143060650Y-70060650D01*
X143060650Y-70060650D02*
X144279800Y-68841500D01*
X141443700Y-72330000D02*
X141443700Y-71677600D01*
X136650000Y-72330000D02*
X141443700Y-72330000D01*
X144292900Y-75179200D02*
X144292900Y-75180900D01*
X141443700Y-72330000D02*
X144292900Y-75179200D01*
X144292900Y-80788300D02*
X143878300Y-81202900D01*
X144292900Y-75180900D02*
X144292900Y-80788300D01*
D27*
X142945400Y-116583900D02*
X142945400Y-102581900D01*
X144494900Y-118133400D02*
X142945400Y-116583900D01*
D30*
X163328500Y-116771500D02*
X159510000Y-120590000D01*
X163328500Y-96932300D02*
X163328500Y-116771500D01*
X159510000Y-120590000D02*
X158046100Y-120590000D01*
X117235100Y-85336300D02*
X113746700Y-85336300D01*
X122715700Y-90816900D02*
X117235100Y-85336300D01*
X122715700Y-107337200D02*
X122715700Y-90816900D01*
X124863900Y-109485400D02*
X122715700Y-107337200D01*
X131003800Y-109485400D02*
X124863900Y-109485400D01*
X131003800Y-109955200D02*
X131003800Y-109485400D01*
X141755700Y-120707100D02*
X131003800Y-109955200D01*
X157929000Y-120707100D02*
X141755700Y-120707100D01*
X158046100Y-120590000D02*
X157929000Y-120707100D01*
X131003800Y-105913800D02*
X130010000Y-104920000D01*
X131003800Y-109485400D02*
X131003800Y-105913800D01*
D29*
X134110000Y-72330000D02*
X132826100Y-72330000D01*
X154140300Y-74580300D02*
X151890000Y-72330000D01*
X154140300Y-109084700D02*
X154140300Y-74580300D01*
X152499700Y-110725300D02*
X154140300Y-109084700D01*
X152499700Y-114547700D02*
X152499700Y-110725300D01*
X148245900Y-118801500D02*
X152499700Y-114547700D01*
X141187100Y-118801500D02*
X148245900Y-118801500D01*
X140575700Y-118190100D02*
X141187100Y-118801500D01*
X154140300Y-109084700D02*
X154432100Y-109084700D01*
X124708100Y-107518100D02*
X124708100Y-103894100D01*
X125510000Y-108320000D02*
X124708100Y-107518100D01*
X130510200Y-103894100D02*
X124708100Y-103894100D01*
X140575700Y-113959600D02*
X130510200Y-103894100D01*
X140575700Y-118190100D02*
X140575700Y-113959600D01*
X123536100Y-81620000D02*
X132826100Y-72330000D01*
X123536100Y-102722100D02*
X123536100Y-81620000D01*
X124708100Y-103894100D02*
X123536100Y-102722100D01*
D27*
X168443274Y-77716300D02*
X168443274Y-74405274D01*
X168443274Y-74405274D02*
X154981274Y-60943274D01*
X154981274Y-60943274D02*
X154101300Y-60943274D01*
X128522000Y-61789000D02*
X129633574Y-61789000D01*
X129633574Y-61789000D02*
X131241300Y-63396726D01*
X115103274Y-78373700D02*
X115103274Y-75207726D01*
X138146800Y-52899000D02*
X138717900Y-52327900D01*
X135888000Y-52899000D02*
X138146800Y-52899000D01*
X128522000Y-60265000D02*
X135888000Y-52899000D01*
X128522000Y-61789000D02*
X128522000Y-60265000D01*
X115103274Y-75207726D02*
X128522000Y-61789000D01*
X154101300Y-60943300D02*
X153687500Y-59398900D01*
X147351000Y-52327900D02*
X138717900Y-52327900D01*
X153687500Y-58664400D02*
X147351000Y-52327900D01*
X153687500Y-59398900D02*
X153687500Y-58664400D01*
X147555000Y-67738900D02*
X147555000Y-61616300D01*
X144460800Y-68173500D02*
X143938100Y-68173500D01*
X145334100Y-69046800D02*
X144460800Y-68173500D01*
X145334100Y-72954900D02*
X145334100Y-69046800D01*
X145327000Y-72962000D02*
X145334100Y-72954900D01*
X145327000Y-81240900D02*
X145327000Y-72962000D01*
X145499000Y-81412900D02*
X145327000Y-81240900D01*
X145499000Y-90676000D02*
X145499000Y-81412900D01*
X140769500Y-95405500D02*
X145499000Y-90676000D01*
X140769500Y-101227300D02*
X140769500Y-95405500D01*
X134133600Y-63178200D02*
X134355900Y-63178200D01*
X131898700Y-60943300D02*
X134133600Y-63178200D01*
X138250600Y-78792700D02*
X138250600Y-98071200D01*
X141650000Y-75393300D02*
X138250600Y-78792700D01*
X141650000Y-73688100D02*
X141650000Y-75393300D01*
X121006200Y-81530900D02*
X116797500Y-81530900D01*
X131415300Y-71121800D02*
X121006200Y-81530900D01*
X137774700Y-71121800D02*
X131415300Y-71121800D01*
X145899300Y-73915000D02*
X145827300Y-73843000D01*
X145899300Y-96739400D02*
X145899300Y-73915000D01*
X141411400Y-101227300D02*
X145899300Y-96739400D01*
X144911900Y-72044000D02*
X144831800Y-71963900D01*
X144911900Y-82430100D02*
X144911900Y-72044000D01*
X145098700Y-82616900D02*
X144911900Y-82430100D01*
X145098700Y-90368700D02*
X145098700Y-82616900D01*
X144982000Y-90485400D02*
X145098700Y-90368700D01*
X146538500Y-103378000D02*
X146538500Y-111093800D01*
X149725000Y-100191500D02*
X146538500Y-103378000D01*
X149725000Y-96836600D02*
X149725000Y-100191500D01*
X150514000Y-96047600D02*
X149725000Y-96836600D01*
X150514000Y-58837500D02*
X150514000Y-96047600D01*
X145932300Y-54255800D02*
X150514000Y-58837500D01*
X141935800Y-54255800D02*
X145932300Y-54255800D01*
X140906600Y-53226600D02*
X141935800Y-54255800D01*
X145592200Y-52820800D02*
X145339400Y-53073600D01*
X146353000Y-52820800D02*
X145592200Y-52820800D01*
X151888500Y-58356300D02*
X146353000Y-52820800D01*
X151888500Y-64175500D02*
X151888500Y-58356300D01*
X161853200Y-74140200D02*
X151888500Y-64175500D01*
X161853200Y-101602800D02*
X161853200Y-74140200D01*
X158200400Y-105255600D02*
X161853200Y-101602800D01*
X158200400Y-108053600D02*
X158200400Y-105255600D01*
X154161900Y-112092100D02*
X158200400Y-108053600D01*
X156030800Y-109158900D02*
X153557300Y-111632400D01*
X156030800Y-100047600D02*
X156030800Y-109158900D01*
X160823100Y-95255300D02*
X156030800Y-100047600D01*
X160823100Y-75562400D02*
X160823100Y-95255300D01*
X151037100Y-65776400D02*
X160823100Y-75562400D01*
X151037100Y-58229500D02*
X151037100Y-65776400D01*
X146130300Y-53322700D02*
X151037100Y-58229500D01*
D28*
X124458000Y-95952000D02*
X125728000Y-94682000D01*
D30*
X125728000Y-84715900D02*
X134110000Y-76333900D01*
X125728000Y-94682000D02*
X125728000Y-84715900D01*
X134110000Y-74870000D02*
X134110000Y-76333900D01*
D27*
X136650000Y-69790000D02*
X137813900Y-69790000D01*
X146327600Y-98414200D02*
X147596400Y-99683000D01*
X146327600Y-69474200D02*
X146327600Y-98414200D01*
X144524200Y-67670800D02*
X146327600Y-69474200D01*
X139933100Y-67670800D02*
X144524200Y-67670800D01*
X137813900Y-69790000D02*
X139933100Y-67670800D01*
X134110000Y-69790000D02*
X135273900Y-69790000D01*
X146810900Y-98102400D02*
X147791100Y-99082600D01*
X146810900Y-69391400D02*
X146810900Y-98102400D01*
X144639000Y-67219500D02*
X146810900Y-69391400D01*
X137573100Y-67219500D02*
X144639000Y-67219500D01*
X135273900Y-69518700D02*
X137573100Y-67219500D01*
X135273900Y-69790000D02*
X135273900Y-69518700D01*
D30*
X147856900Y-71283100D02*
X149350000Y-69790000D01*
X147856900Y-77901700D02*
X147856900Y-71283100D01*
X148713600Y-78758400D02*
X147856900Y-77901700D01*
D28*
X158748000Y-95952000D02*
X160018000Y-94682000D01*
D30*
X160018000Y-77918000D02*
X151890000Y-69790000D01*
X160018000Y-94682000D02*
X160018000Y-77918000D01*
D27*
X149350000Y-74870000D02*
X149350000Y-76033900D01*
X147130000Y-100880000D02*
X145918400Y-100880000D01*
X149124700Y-98885300D02*
X147130000Y-100880000D01*
X149124700Y-96670500D02*
X149124700Y-98885300D01*
X149524900Y-96270300D02*
X149124700Y-96670500D01*
X149524900Y-76208800D02*
X149524900Y-96270300D01*
X149350000Y-76033900D02*
X149524900Y-76208800D01*
X151890000Y-95579100D02*
X150332400Y-97136700D01*
X151890000Y-74870000D02*
X151890000Y-95579100D01*
D30*
X160433600Y-122206400D02*
X162050000Y-120590000D01*
X121756400Y-122206400D02*
X160433600Y-122206400D01*
X118870000Y-119320000D02*
X121756400Y-122206400D01*
D27*
X149867100Y-103945700D02*
X149867100Y-116233900D01*
X150063100Y-103749700D02*
X149867100Y-103945700D01*
X153045000Y-111090000D02*
X153551800Y-110583200D01*
X153045000Y-115247000D02*
X153045000Y-111090000D01*
X148404700Y-119887300D02*
X153045000Y-115247000D01*
X148041000Y-115925500D02*
X145824800Y-118141700D01*
X148041000Y-103280600D02*
X148041000Y-115925500D01*
X148590000Y-116228600D02*
X148590000Y-110567700D01*
X145548900Y-115411500D02*
X145548900Y-108939400D01*
X144893900Y-116066500D02*
X145548900Y-115411500D01*
X134778900Y-102059300D02*
X134778900Y-98856100D01*
X138673100Y-105953500D02*
X134778900Y-102059300D01*
X140880300Y-105953500D02*
X138673100Y-105953500D01*
X141911800Y-104922000D02*
X140880300Y-105953500D01*
X141911800Y-102904600D02*
X141911800Y-104922000D01*
X142734800Y-102081600D02*
X141911800Y-102904600D01*
X147110300Y-102081600D02*
X142734800Y-102081600D01*
X148407000Y-100784900D02*
X147110300Y-102081600D01*
X153514700Y-97099300D02*
X153514700Y-80269600D01*
X147098200Y-103515800D02*
X153514700Y-97099300D01*
X147098200Y-111259500D02*
X147098200Y-103515800D01*
X146546800Y-111810900D02*
X147098200Y-111259500D01*
X134227600Y-88965200D02*
X132021000Y-86758600D01*
X134227600Y-102120900D02*
X134227600Y-88965200D01*
X140073000Y-107966300D02*
X134227600Y-102120900D01*
X141754300Y-107966300D02*
X140073000Y-107966300D01*
X142085400Y-108297400D02*
X141754300Y-107966300D01*
X131922400Y-101062800D02*
X132577700Y-101718100D01*
X126028500Y-101062800D02*
X131922400Y-101062800D01*
X124204000Y-100270000D02*
X124966000Y-101032000D01*
X126597800Y-102663800D02*
X132349400Y-102663800D01*
X124966000Y-101032000D02*
X126597800Y-102663800D01*
X158494000Y-100524000D02*
X159256000Y-101286000D01*
X159493400Y-101523400D02*
X159493400Y-102634100D01*
X159256000Y-101286000D02*
X159493400Y-101523400D01*
D31*
X137746800Y-77915000D02*
X139769000Y-75892800D01*
X137746800Y-104319400D02*
X137746800Y-77915000D01*
X138464200Y-105036800D02*
X137746800Y-104319400D01*
X139080600Y-95269300D02*
X138761100Y-94949800D01*
X139080600Y-105088000D02*
X139080600Y-95269300D01*
X139472000Y-84054000D02*
X142050600Y-81475400D01*
X139472000Y-104778800D02*
X139472000Y-84054000D01*
X139606800Y-104913600D02*
X139472000Y-104778800D01*
X139606800Y-105410800D02*
X139606800Y-104913600D01*
X140253600Y-104827700D02*
X140253600Y-105040000D01*
X139863800Y-104437900D02*
X140253600Y-104827700D01*
X139863800Y-85020300D02*
X139863800Y-104437900D01*
X142554800Y-82329300D02*
X139863800Y-85020300D01*
X142554800Y-80954900D02*
X142554800Y-82329300D01*
X141479300Y-79879400D02*
X142554800Y-80954900D01*
X141479300Y-76403200D02*
X141479300Y-79879400D01*
X140263900Y-104273800D02*
X141026900Y-105036800D01*
X140263900Y-88938700D02*
X140263900Y-104273800D01*
X144567600Y-84635000D02*
X140263900Y-88938700D01*
D29*
X140587900Y-60026800D02*
X145164500Y-55450200D01*
X140587900Y-60049300D02*
X140587900Y-60026800D01*
X138861300Y-59586700D02*
X140587900Y-60049300D01*
X141692600Y-65032800D02*
X147138700Y-59586700D01*
X136128400Y-65032800D02*
X141692600Y-65032800D01*
X120722200Y-80439000D02*
X136128400Y-65032800D01*
X116701500Y-80439000D02*
X120722200Y-80439000D01*
X111293300Y-85847200D02*
X116701500Y-80439000D01*
X111293300Y-85993700D02*
X111293300Y-85847200D01*
X138264500Y-61183500D02*
X126650700Y-72797300D01*
X141167200Y-61183500D02*
X138264500Y-61183500D01*
X144754700Y-57596000D02*
X141167200Y-61183500D01*
X144754700Y-57595900D02*
X144754700Y-57596000D01*
X146481300Y-57133300D02*
X144754700Y-57595900D01*
D27*
X152388900Y-63135900D02*
X152388900Y-58134700D01*
X162286500Y-73033500D02*
X152388900Y-63135900D01*
X162286500Y-102301700D02*
X162286500Y-73033500D01*
X158736200Y-105852000D02*
X162286500Y-102301700D01*
X158736200Y-109889900D02*
X158736200Y-105852000D01*
D32*
G36*
X156981365Y-54245999D02*
X168834193Y-62165807D01*
X176754001Y-74018635D01*
X179444363Y-87544000D01*
X175673790Y-87544000D01*
X175834435Y-87383635D01*
X176037495Y-86894614D01*
X176037957Y-86365109D01*
X175835751Y-85875734D01*
X175461661Y-85500991D01*
X174972640Y-85297931D01*
X174443135Y-85297469D01*
X173953760Y-85499675D01*
X173696517Y-85756469D01*
X173804950Y-85351794D01*
X173815832Y-85208539D01*
X173768794Y-85061686D01*
X173668328Y-84944704D01*
X173530265Y-84876025D01*
X171695006Y-84384269D01*
X171551751Y-84373387D01*
X171404898Y-84420425D01*
X171287916Y-84520891D01*
X171219237Y-84658954D01*
X170701598Y-86590806D01*
X170690716Y-86734061D01*
X170737754Y-86880914D01*
X170838220Y-86997896D01*
X170976283Y-87066575D01*
X172758058Y-87544000D01*
X167000000Y-87544000D01*
X166825496Y-87578711D01*
X166677559Y-87677559D01*
X166578711Y-87825496D01*
X166544000Y-88000000D01*
X166544000Y-110000000D01*
X166578711Y-110174504D01*
X166677559Y-110322441D01*
X166825496Y-110421289D01*
X167000000Y-110456000D01*
X179444363Y-110456000D01*
X178580892Y-114796963D01*
X175863630Y-118863630D01*
X171796963Y-121580892D01*
X166955089Y-122544000D01*
X161200500Y-122544000D01*
X161783201Y-121961299D01*
X162050000Y-122014369D01*
X162526288Y-121919629D01*
X162930065Y-121649834D01*
X163199860Y-121246057D01*
X163294600Y-120769769D01*
X163294600Y-120410231D01*
X163199860Y-119933943D01*
X162959354Y-119574000D01*
X163337936Y-119574000D01*
X163337936Y-121606000D01*
X163364503Y-121747190D01*
X163447946Y-121876865D01*
X163575266Y-121963859D01*
X163726400Y-121994464D01*
X165453600Y-121994464D01*
X165594790Y-121967897D01*
X165724465Y-121884454D01*
X165811459Y-121757134D01*
X165842064Y-121606000D01*
X165842064Y-119574000D01*
X165815497Y-119432810D01*
X165732054Y-119303135D01*
X165604734Y-119216141D01*
X165453600Y-119185536D01*
X163726400Y-119185536D01*
X163585210Y-119212103D01*
X163455535Y-119295546D01*
X163368541Y-119422866D01*
X163337936Y-119574000D01*
X162959354Y-119574000D01*
X162930065Y-119530166D01*
X162526288Y-119260371D01*
X162050000Y-119165631D01*
X162036106Y-119168395D01*
X163880750Y-117323751D01*
X164050050Y-117070376D01*
X164079162Y-116924018D01*
X164109500Y-116771500D01*
X164109500Y-107094082D01*
X164244061Y-107094200D01*
X164457680Y-107005935D01*
X164621260Y-106842640D01*
X164709898Y-106629175D01*
X164710100Y-106398039D01*
X164655000Y-106264686D01*
X164655000Y-102212885D01*
X164709898Y-102080675D01*
X164710100Y-101849539D01*
X164621835Y-101635920D01*
X164458540Y-101472340D01*
X164245075Y-101383702D01*
X164109500Y-101383584D01*
X164109500Y-100122456D01*
X164442813Y-100345169D01*
X165000000Y-100456000D01*
X165557187Y-100345169D01*
X166029547Y-100029547D01*
X166345169Y-99557187D01*
X166456000Y-99000000D01*
X166345169Y-98442813D01*
X166029547Y-97970453D01*
X165557187Y-97654831D01*
X165000000Y-97544000D01*
X164442813Y-97654831D01*
X164109500Y-97877544D01*
X164109500Y-97348769D01*
X164209347Y-97108311D01*
X164209653Y-96757827D01*
X164075811Y-96433905D01*
X163828198Y-96185860D01*
X163504511Y-96051453D01*
X163154027Y-96051147D01*
X162830105Y-96184989D01*
X162767500Y-96247485D01*
X162767500Y-77000000D01*
X163544000Y-77000000D01*
X163654831Y-77557187D01*
X163970453Y-78029547D01*
X164442813Y-78345169D01*
X165000000Y-78456000D01*
X165557187Y-78345169D01*
X166029547Y-78029547D01*
X166345169Y-77557187D01*
X166456000Y-77000000D01*
X166345169Y-76442813D01*
X166029547Y-75970453D01*
X165557187Y-75654831D01*
X165000000Y-75544000D01*
X164442813Y-75654831D01*
X163970453Y-75970453D01*
X163654831Y-76442813D01*
X163544000Y-77000000D01*
X162767500Y-77000000D01*
X162767500Y-73033500D01*
X162730886Y-72849429D01*
X162626618Y-72693382D01*
X154660878Y-64727642D01*
X155022291Y-64727957D01*
X155511666Y-64525751D01*
X155886409Y-64151661D01*
X156089469Y-63662640D01*
X156089931Y-63133135D01*
X155887725Y-62643760D01*
X155513635Y-62269017D01*
X155047441Y-62075436D01*
X155351679Y-61993915D01*
X167962274Y-74604510D01*
X167962274Y-76149973D01*
X167885006Y-76129269D01*
X167741751Y-76118387D01*
X167594898Y-76165425D01*
X167477916Y-76265891D01*
X167409237Y-76403954D01*
X166891598Y-78335806D01*
X166880716Y-78479061D01*
X166927754Y-78625914D01*
X167028220Y-78742896D01*
X167166283Y-78811575D01*
X169001542Y-79303331D01*
X169144797Y-79314213D01*
X169291650Y-79267175D01*
X169408632Y-79166709D01*
X169477311Y-79028646D01*
X169575613Y-78661778D01*
X169767701Y-79126666D01*
X170141791Y-79501409D01*
X170630812Y-79704469D01*
X171160317Y-79704931D01*
X171649692Y-79502725D01*
X172024435Y-79128635D01*
X172227495Y-78639614D01*
X172227957Y-78110109D01*
X172025751Y-77620734D01*
X171651661Y-77245991D01*
X171162640Y-77042931D01*
X170633135Y-77042469D01*
X170143760Y-77244675D01*
X169886517Y-77501469D01*
X169994950Y-77096794D01*
X170005832Y-76953539D01*
X169958794Y-76806686D01*
X169858328Y-76689704D01*
X169720265Y-76621025D01*
X168924274Y-76407740D01*
X168924274Y-74405274D01*
X168887660Y-74221203D01*
X168783392Y-74065156D01*
X155493808Y-60775572D01*
X155196575Y-59666283D01*
X155134371Y-59536780D01*
X155020209Y-59433121D01*
X154874712Y-59382044D01*
X154720806Y-59391598D01*
X154219500Y-59525923D01*
X154168500Y-59335578D01*
X154168500Y-58664400D01*
X154131886Y-58480329D01*
X154087279Y-58413570D01*
X154027618Y-58324281D01*
X148203263Y-52499927D01*
X156981365Y-54245999D01*
X156981365Y-54245999D01*
G37*
X156981365Y-54245999D02*
X168834193Y-62165807D01*
X176754001Y-74018635D01*
X179444363Y-87544000D01*
X175673790Y-87544000D01*
X175834435Y-87383635D01*
X176037495Y-86894614D01*
X176037957Y-86365109D01*
X175835751Y-85875734D01*
X175461661Y-85500991D01*
X174972640Y-85297931D01*
X174443135Y-85297469D01*
X173953760Y-85499675D01*
X173696517Y-85756469D01*
X173804950Y-85351794D01*
X173815832Y-85208539D01*
X173768794Y-85061686D01*
X173668328Y-84944704D01*
X173530265Y-84876025D01*
X171695006Y-84384269D01*
X171551751Y-84373387D01*
X171404898Y-84420425D01*
X171287916Y-84520891D01*
X171219237Y-84658954D01*
X170701598Y-86590806D01*
X170690716Y-86734061D01*
X170737754Y-86880914D01*
X170838220Y-86997896D01*
X170976283Y-87066575D01*
X172758058Y-87544000D01*
X167000000Y-87544000D01*
X166825496Y-87578711D01*
X166677559Y-87677559D01*
X166578711Y-87825496D01*
X166544000Y-88000000D01*
X166544000Y-110000000D01*
X166578711Y-110174504D01*
X166677559Y-110322441D01*
X166825496Y-110421289D01*
X167000000Y-110456000D01*
X179444363Y-110456000D01*
X178580892Y-114796963D01*
X175863630Y-118863630D01*
X171796963Y-121580892D01*
X166955089Y-122544000D01*
X161200500Y-122544000D01*
X161783201Y-121961299D01*
X162050000Y-122014369D01*
X162526288Y-121919629D01*
X162930065Y-121649834D01*
X163199860Y-121246057D01*
X163294600Y-120769769D01*
X163294600Y-120410231D01*
X163199860Y-119933943D01*
X162959354Y-119574000D01*
X163337936Y-119574000D01*
X163337936Y-121606000D01*
X163364503Y-121747190D01*
X163447946Y-121876865D01*
X163575266Y-121963859D01*
X163726400Y-121994464D01*
X165453600Y-121994464D01*
X165594790Y-121967897D01*
X165724465Y-121884454D01*
X165811459Y-121757134D01*
X165842064Y-121606000D01*
X165842064Y-119574000D01*
X165815497Y-119432810D01*
X165732054Y-119303135D01*
X165604734Y-119216141D01*
X165453600Y-119185536D01*
X163726400Y-119185536D01*
X163585210Y-119212103D01*
X163455535Y-119295546D01*
X163368541Y-119422866D01*
X163337936Y-119574000D01*
X162959354Y-119574000D01*
X162930065Y-119530166D01*
X162526288Y-119260371D01*
X162050000Y-119165631D01*
X162036106Y-119168395D01*
X163880750Y-117323751D01*
X164050050Y-117070376D01*
X164079162Y-116924018D01*
X164109500Y-116771500D01*
X164109500Y-107094082D01*
X164244061Y-107094200D01*
X164457680Y-107005935D01*
X164621260Y-106842640D01*
X164709898Y-106629175D01*
X164710100Y-106398039D01*
X164655000Y-106264686D01*
X164655000Y-102212885D01*
X164709898Y-102080675D01*
X164710100Y-101849539D01*
X164621835Y-101635920D01*
X164458540Y-101472340D01*
X164245075Y-101383702D01*
X164109500Y-101383584D01*
X164109500Y-100122456D01*
X164442813Y-100345169D01*
X165000000Y-100456000D01*
X165557187Y-100345169D01*
X166029547Y-100029547D01*
X166345169Y-99557187D01*
X166456000Y-99000000D01*
X166345169Y-98442813D01*
X166029547Y-97970453D01*
X165557187Y-97654831D01*
X165000000Y-97544000D01*
X164442813Y-97654831D01*
X164109500Y-97877544D01*
X164109500Y-97348769D01*
X164209347Y-97108311D01*
X164209653Y-96757827D01*
X164075811Y-96433905D01*
X163828198Y-96185860D01*
X163504511Y-96051453D01*
X163154027Y-96051147D01*
X162830105Y-96184989D01*
X162767500Y-96247485D01*
X162767500Y-77000000D01*
X163544000Y-77000000D01*
X163654831Y-77557187D01*
X163970453Y-78029547D01*
X164442813Y-78345169D01*
X165000000Y-78456000D01*
X165557187Y-78345169D01*
X166029547Y-78029547D01*
X166345169Y-77557187D01*
X166456000Y-77000000D01*
X166345169Y-76442813D01*
X166029547Y-75970453D01*
X165557187Y-75654831D01*
X165000000Y-75544000D01*
X164442813Y-75654831D01*
X163970453Y-75970453D01*
X163654831Y-76442813D01*
X163544000Y-77000000D01*
X162767500Y-77000000D01*
X162767500Y-73033500D01*
X162730886Y-72849429D01*
X162626618Y-72693382D01*
X154660878Y-64727642D01*
X155022291Y-64727957D01*
X155511666Y-64525751D01*
X155886409Y-64151661D01*
X156089469Y-63662640D01*
X156089931Y-63133135D01*
X155887725Y-62643760D01*
X155513635Y-62269017D01*
X155047441Y-62075436D01*
X155351679Y-61993915D01*
X167962274Y-74604510D01*
X167962274Y-76149973D01*
X167885006Y-76129269D01*
X167741751Y-76118387D01*
X167594898Y-76165425D01*
X167477916Y-76265891D01*
X167409237Y-76403954D01*
X166891598Y-78335806D01*
X166880716Y-78479061D01*
X166927754Y-78625914D01*
X167028220Y-78742896D01*
X167166283Y-78811575D01*
X169001542Y-79303331D01*
X169144797Y-79314213D01*
X169291650Y-79267175D01*
X169408632Y-79166709D01*
X169477311Y-79028646D01*
X169575613Y-78661778D01*
X169767701Y-79126666D01*
X170141791Y-79501409D01*
X170630812Y-79704469D01*
X171160317Y-79704931D01*
X171649692Y-79502725D01*
X172024435Y-79128635D01*
X172227495Y-78639614D01*
X172227957Y-78110109D01*
X172025751Y-77620734D01*
X171651661Y-77245991D01*
X171162640Y-77042931D01*
X170633135Y-77042469D01*
X170143760Y-77244675D01*
X169886517Y-77501469D01*
X169994950Y-77096794D01*
X170005832Y-76953539D01*
X169958794Y-76806686D01*
X169858328Y-76689704D01*
X169720265Y-76621025D01*
X168924274Y-76407740D01*
X168924274Y-74405274D01*
X168887660Y-74221203D01*
X168783392Y-74065156D01*
X155493808Y-60775572D01*
X155196575Y-59666283D01*
X155134371Y-59536780D01*
X155020209Y-59433121D01*
X154874712Y-59382044D01*
X154720806Y-59391598D01*
X154219500Y-59525923D01*
X154168500Y-59335578D01*
X154168500Y-58664400D01*
X154131886Y-58480329D01*
X154087279Y-58413570D01*
X154027618Y-58324281D01*
X148203263Y-52499927D01*
X156981365Y-54245999D01*
G36*
X121934700Y-91140401D02*
X121934700Y-97907078D01*
X121557187Y-97654831D01*
X121000000Y-97544000D01*
X120442813Y-97654831D01*
X119970453Y-97970453D01*
X119654831Y-98442813D01*
X119544000Y-99000000D01*
X119654831Y-99557187D01*
X119970453Y-100029547D01*
X120442813Y-100345169D01*
X121000000Y-100456000D01*
X121557187Y-100345169D01*
X121934700Y-100092922D01*
X121934700Y-107337200D01*
X121981524Y-107572601D01*
X121994150Y-107636076D01*
X122163450Y-107889450D01*
X124311650Y-110037651D01*
X124441330Y-110124300D01*
X124565024Y-110206950D01*
X124863900Y-110266400D01*
X130290485Y-110266400D01*
X130451550Y-110507450D01*
X141203450Y-121259351D01*
X141451960Y-121425400D01*
X122079900Y-121425400D01*
X121169953Y-120515453D01*
X121245412Y-120500443D01*
X121563672Y-120287789D01*
X121776326Y-119969529D01*
X121851000Y-119594117D01*
X121851000Y-119045883D01*
X121776326Y-118670471D01*
X121642376Y-118470000D01*
X126136536Y-118470000D01*
X126136536Y-120170000D01*
X126163103Y-120311190D01*
X126246546Y-120440865D01*
X126373866Y-120527859D01*
X126525000Y-120558464D01*
X127725000Y-120558464D01*
X127866190Y-120531897D01*
X127995865Y-120448454D01*
X128082859Y-120321134D01*
X128113464Y-120170000D01*
X128113464Y-118470000D01*
X128086897Y-118328810D01*
X128003454Y-118199135D01*
X127876134Y-118112141D01*
X127725000Y-118081536D01*
X126525000Y-118081536D01*
X126383810Y-118108103D01*
X126254135Y-118191546D01*
X126167141Y-118318866D01*
X126136536Y-118470000D01*
X121642376Y-118470000D01*
X121563672Y-118352211D01*
X121245412Y-118139557D01*
X120870000Y-118064883D01*
X120494588Y-118139557D01*
X120176328Y-118352211D01*
X119963674Y-118670471D01*
X119889000Y-119045883D01*
X119889000Y-119234500D01*
X119858464Y-119203964D01*
X119858464Y-118470000D01*
X119831897Y-118328810D01*
X119748454Y-118199135D01*
X119621134Y-118112141D01*
X119470000Y-118081536D01*
X118270000Y-118081536D01*
X118128810Y-118108103D01*
X117999135Y-118191546D01*
X117912141Y-118318866D01*
X117881536Y-118470000D01*
X117881536Y-120170000D01*
X117908103Y-120311190D01*
X117991546Y-120440865D01*
X118118866Y-120527859D01*
X118270000Y-120558464D01*
X119003964Y-120558464D01*
X120989500Y-122544000D01*
X119044911Y-122544000D01*
X114203037Y-121580892D01*
X110136370Y-118863630D01*
X107419108Y-114796963D01*
X106555637Y-110456000D01*
X119000000Y-110456000D01*
X119174504Y-110421289D01*
X119322441Y-110322441D01*
X119421289Y-110174504D01*
X119456000Y-110000000D01*
X119456000Y-88661701D01*
X121934700Y-91140401D01*
X121934700Y-91140401D01*
G37*
X121934700Y-91140401D02*
X121934700Y-97907078D01*
X121557187Y-97654831D01*
X121000000Y-97544000D01*
X120442813Y-97654831D01*
X119970453Y-97970453D01*
X119654831Y-98442813D01*
X119544000Y-99000000D01*
X119654831Y-99557187D01*
X119970453Y-100029547D01*
X120442813Y-100345169D01*
X121000000Y-100456000D01*
X121557187Y-100345169D01*
X121934700Y-100092922D01*
X121934700Y-107337200D01*
X121981524Y-107572601D01*
X121994150Y-107636076D01*
X122163450Y-107889450D01*
X124311650Y-110037651D01*
X124441330Y-110124300D01*
X124565024Y-110206950D01*
X124863900Y-110266400D01*
X130290485Y-110266400D01*
X130451550Y-110507450D01*
X141203450Y-121259351D01*
X141451960Y-121425400D01*
X122079900Y-121425400D01*
X121169953Y-120515453D01*
X121245412Y-120500443D01*
X121563672Y-120287789D01*
X121776326Y-119969529D01*
X121851000Y-119594117D01*
X121851000Y-119045883D01*
X121776326Y-118670471D01*
X121642376Y-118470000D01*
X126136536Y-118470000D01*
X126136536Y-120170000D01*
X126163103Y-120311190D01*
X126246546Y-120440865D01*
X126373866Y-120527859D01*
X126525000Y-120558464D01*
X127725000Y-120558464D01*
X127866190Y-120531897D01*
X127995865Y-120448454D01*
X128082859Y-120321134D01*
X128113464Y-120170000D01*
X128113464Y-118470000D01*
X128086897Y-118328810D01*
X128003454Y-118199135D01*
X127876134Y-118112141D01*
X127725000Y-118081536D01*
X126525000Y-118081536D01*
X126383810Y-118108103D01*
X126254135Y-118191546D01*
X126167141Y-118318866D01*
X126136536Y-118470000D01*
X121642376Y-118470000D01*
X121563672Y-118352211D01*
X121245412Y-118139557D01*
X120870000Y-118064883D01*
X120494588Y-118139557D01*
X120176328Y-118352211D01*
X119963674Y-118670471D01*
X119889000Y-119045883D01*
X119889000Y-119234500D01*
X119858464Y-119203964D01*
X119858464Y-118470000D01*
X119831897Y-118328810D01*
X119748454Y-118199135D01*
X119621134Y-118112141D01*
X119470000Y-118081536D01*
X118270000Y-118081536D01*
X118128810Y-118108103D01*
X117999135Y-118191546D01*
X117912141Y-118318866D01*
X117881536Y-118470000D01*
X117881536Y-120170000D01*
X117908103Y-120311190D01*
X117991546Y-120440865D01*
X118118866Y-120527859D01*
X118270000Y-120558464D01*
X119003964Y-120558464D01*
X120989500Y-122544000D01*
X119044911Y-122544000D01*
X114203037Y-121580892D01*
X110136370Y-118863630D01*
X107419108Y-114796963D01*
X106555637Y-110456000D01*
X119000000Y-110456000D01*
X119174504Y-110421289D01*
X119322441Y-110322441D01*
X119421289Y-110174504D01*
X119456000Y-110000000D01*
X119456000Y-88661701D01*
X121934700Y-91140401D01*
G36*
X162547500Y-107651324D02*
X161309203Y-106413027D01*
X161254535Y-106280720D01*
X161091240Y-106117140D01*
X160877775Y-106028502D01*
X160646639Y-106028300D01*
X160433020Y-106116565D01*
X160269440Y-106279860D01*
X160180802Y-106493325D01*
X160180600Y-106724461D01*
X160268865Y-106938080D01*
X160432160Y-107101660D01*
X160565417Y-107156993D01*
X161959500Y-108551076D01*
X161959500Y-108993515D01*
X161904602Y-109125725D01*
X161904400Y-109356861D01*
X161992665Y-109570480D01*
X162155960Y-109734060D01*
X162369425Y-109822698D01*
X162547500Y-109822854D01*
X162547500Y-116447999D01*
X159776799Y-119218701D01*
X159510000Y-119165631D01*
X159033712Y-119260371D01*
X158629935Y-119530166D01*
X158443624Y-119809000D01*
X158046100Y-119809000D01*
X157747224Y-119868450D01*
X157660945Y-119926100D01*
X149046136Y-119926100D01*
X153385118Y-115587118D01*
X153489386Y-115431071D01*
X153504709Y-115354035D01*
X153526000Y-115247000D01*
X153526000Y-112213372D01*
X153583387Y-112213422D01*
X153669065Y-112420780D01*
X153832360Y-112584360D01*
X154045825Y-112672998D01*
X154276961Y-112673200D01*
X154490580Y-112584935D01*
X154654160Y-112421640D01*
X154742798Y-112208175D01*
X154742813Y-112191423D01*
X158255200Y-108679037D01*
X158255200Y-109549120D01*
X158243940Y-109560360D01*
X158155302Y-109773825D01*
X158155100Y-110004961D01*
X158243365Y-110218580D01*
X158406660Y-110382160D01*
X158620125Y-110470798D01*
X158851261Y-110471000D01*
X159064880Y-110382735D01*
X159228460Y-110219440D01*
X159317098Y-110005975D01*
X159317300Y-109774839D01*
X159229035Y-109561220D01*
X159217200Y-109549364D01*
X159217200Y-106051236D01*
X162547500Y-102720937D01*
X162547500Y-107651324D01*
X162547500Y-107651324D01*
G37*
X162547500Y-107651324D02*
X161309203Y-106413027D01*
X161254535Y-106280720D01*
X161091240Y-106117140D01*
X160877775Y-106028502D01*
X160646639Y-106028300D01*
X160433020Y-106116565D01*
X160269440Y-106279860D01*
X160180802Y-106493325D01*
X160180600Y-106724461D01*
X160268865Y-106938080D01*
X160432160Y-107101660D01*
X160565417Y-107156993D01*
X161959500Y-108551076D01*
X161959500Y-108993515D01*
X161904602Y-109125725D01*
X161904400Y-109356861D01*
X161992665Y-109570480D01*
X162155960Y-109734060D01*
X162369425Y-109822698D01*
X162547500Y-109822854D01*
X162547500Y-116447999D01*
X159776799Y-119218701D01*
X159510000Y-119165631D01*
X159033712Y-119260371D01*
X158629935Y-119530166D01*
X158443624Y-119809000D01*
X158046100Y-119809000D01*
X157747224Y-119868450D01*
X157660945Y-119926100D01*
X149046136Y-119926100D01*
X153385118Y-115587118D01*
X153489386Y-115431071D01*
X153504709Y-115354035D01*
X153526000Y-115247000D01*
X153526000Y-112213372D01*
X153583387Y-112213422D01*
X153669065Y-112420780D01*
X153832360Y-112584360D01*
X154045825Y-112672998D01*
X154276961Y-112673200D01*
X154490580Y-112584935D01*
X154654160Y-112421640D01*
X154742798Y-112208175D01*
X154742813Y-112191423D01*
X158255200Y-108679037D01*
X158255200Y-109549120D01*
X158243940Y-109560360D01*
X158155302Y-109773825D01*
X158155100Y-110004961D01*
X158243365Y-110218580D01*
X158406660Y-110382160D01*
X158620125Y-110470798D01*
X158851261Y-110471000D01*
X159064880Y-110382735D01*
X159228460Y-110219440D01*
X159317098Y-110005975D01*
X159317300Y-109774839D01*
X159229035Y-109561220D01*
X159217200Y-109549364D01*
X159217200Y-106051236D01*
X162547500Y-102720937D01*
X162547500Y-107651324D01*
G36*
X153539300Y-108835758D02*
X152074729Y-110300329D01*
X151944448Y-110495307D01*
X151898700Y-110725300D01*
X151898700Y-114298758D01*
X150348100Y-115849358D01*
X150348100Y-104260583D01*
X150391780Y-104242535D01*
X150555360Y-104079240D01*
X150643998Y-103865775D01*
X150644200Y-103634639D01*
X150555935Y-103421020D01*
X150392640Y-103257440D01*
X150179175Y-103168802D01*
X149948039Y-103168600D01*
X149734420Y-103256865D01*
X149570840Y-103420160D01*
X149482202Y-103633625D01*
X149482168Y-103672651D01*
X149422714Y-103761629D01*
X149386100Y-103945700D01*
X149386100Y-115893120D01*
X149374840Y-115904360D01*
X149286202Y-116117825D01*
X149286000Y-116348961D01*
X149374265Y-116562580D01*
X149504458Y-116693000D01*
X147996958Y-118200500D01*
X146446236Y-118200500D01*
X148094911Y-116551825D01*
X148097165Y-116557280D01*
X148260460Y-116720860D01*
X148473925Y-116809498D01*
X148705061Y-116809700D01*
X148918680Y-116721435D01*
X149082260Y-116558140D01*
X149170898Y-116344675D01*
X149171100Y-116113539D01*
X149082835Y-115899920D01*
X149071000Y-115888064D01*
X149071000Y-110908480D01*
X149082260Y-110897240D01*
X149170898Y-110683775D01*
X149171100Y-110452639D01*
X149082835Y-110239020D01*
X148919540Y-110075440D01*
X148706075Y-109986802D01*
X148522000Y-109986641D01*
X148522000Y-103621380D01*
X148533260Y-103610140D01*
X148621898Y-103396675D01*
X148622100Y-103165539D01*
X148533835Y-102951920D01*
X148438159Y-102856077D01*
X153539300Y-97754937D01*
X153539300Y-108835758D01*
X153539300Y-108835758D01*
G37*
X153539300Y-108835758D02*
X152074729Y-110300329D01*
X151944448Y-110495307D01*
X151898700Y-110725300D01*
X151898700Y-114298758D01*
X150348100Y-115849358D01*
X150348100Y-104260583D01*
X150391780Y-104242535D01*
X150555360Y-104079240D01*
X150643998Y-103865775D01*
X150644200Y-103634639D01*
X150555935Y-103421020D01*
X150392640Y-103257440D01*
X150179175Y-103168802D01*
X149948039Y-103168600D01*
X149734420Y-103256865D01*
X149570840Y-103420160D01*
X149482202Y-103633625D01*
X149482168Y-103672651D01*
X149422714Y-103761629D01*
X149386100Y-103945700D01*
X149386100Y-115893120D01*
X149374840Y-115904360D01*
X149286202Y-116117825D01*
X149286000Y-116348961D01*
X149374265Y-116562580D01*
X149504458Y-116693000D01*
X147996958Y-118200500D01*
X146446236Y-118200500D01*
X148094911Y-116551825D01*
X148097165Y-116557280D01*
X148260460Y-116720860D01*
X148473925Y-116809498D01*
X148705061Y-116809700D01*
X148918680Y-116721435D01*
X149082260Y-116558140D01*
X149170898Y-116344675D01*
X149171100Y-116113539D01*
X149082835Y-115899920D01*
X149071000Y-115888064D01*
X149071000Y-110908480D01*
X149082260Y-110897240D01*
X149170898Y-110683775D01*
X149171100Y-110452639D01*
X149082835Y-110239020D01*
X148919540Y-110075440D01*
X148706075Y-109986802D01*
X148522000Y-109986641D01*
X148522000Y-103621380D01*
X148533260Y-103610140D01*
X148621898Y-103396675D01*
X148622100Y-103165539D01*
X148533835Y-102951920D01*
X148438159Y-102856077D01*
X153539300Y-97754937D01*
X153539300Y-108835758D01*
G36*
X146198382Y-103037882D02*
X146094114Y-103193929D01*
X146057500Y-103378000D01*
X146057500Y-108648874D01*
X146041735Y-108610720D01*
X145878440Y-108447140D01*
X145664975Y-108358502D01*
X145433839Y-108358300D01*
X145220220Y-108446565D01*
X145056640Y-108609860D01*
X144968002Y-108823325D01*
X144967800Y-109054461D01*
X145056065Y-109268080D01*
X145067900Y-109279936D01*
X145067900Y-115212264D01*
X144794750Y-115485414D01*
X144778839Y-115485400D01*
X144565220Y-115573665D01*
X144401640Y-115736960D01*
X144313002Y-115950425D01*
X144312800Y-116181561D01*
X144401065Y-116395180D01*
X144564360Y-116558760D01*
X144777825Y-116647398D01*
X145008961Y-116647600D01*
X145222580Y-116559335D01*
X145386160Y-116396040D01*
X145474798Y-116182575D01*
X145474813Y-116165823D01*
X145889018Y-115751618D01*
X145898812Y-115736960D01*
X145993286Y-115595571D01*
X146029900Y-115411500D01*
X146029900Y-112081338D01*
X146053965Y-112139580D01*
X146217260Y-112303160D01*
X146430725Y-112391798D01*
X146661861Y-112392000D01*
X146875480Y-112303735D01*
X147039060Y-112140440D01*
X147127698Y-111926975D01*
X147127713Y-111910224D01*
X147438318Y-111599619D01*
X147542586Y-111443571D01*
X147546781Y-111422480D01*
X147560000Y-111356025D01*
X147560000Y-115726264D01*
X145725650Y-117560614D01*
X145709739Y-117560600D01*
X145496120Y-117648865D01*
X145332540Y-117812160D01*
X145243902Y-118025625D01*
X145243749Y-118200500D01*
X145075841Y-118200500D01*
X145076000Y-118018339D01*
X144987735Y-117804720D01*
X144824440Y-117641140D01*
X144610975Y-117552502D01*
X144594223Y-117552487D01*
X143426400Y-116384664D01*
X143426400Y-102922680D01*
X143437660Y-102911440D01*
X143526298Y-102697975D01*
X143526416Y-102562600D01*
X146673664Y-102562600D01*
X146198382Y-103037882D01*
X146198382Y-103037882D01*
G37*
X146198382Y-103037882D02*
X146094114Y-103193929D01*
X146057500Y-103378000D01*
X146057500Y-108648874D01*
X146041735Y-108610720D01*
X145878440Y-108447140D01*
X145664975Y-108358502D01*
X145433839Y-108358300D01*
X145220220Y-108446565D01*
X145056640Y-108609860D01*
X144968002Y-108823325D01*
X144967800Y-109054461D01*
X145056065Y-109268080D01*
X145067900Y-109279936D01*
X145067900Y-115212264D01*
X144794750Y-115485414D01*
X144778839Y-115485400D01*
X144565220Y-115573665D01*
X144401640Y-115736960D01*
X144313002Y-115950425D01*
X144312800Y-116181561D01*
X144401065Y-116395180D01*
X144564360Y-116558760D01*
X144777825Y-116647398D01*
X145008961Y-116647600D01*
X145222580Y-116559335D01*
X145386160Y-116396040D01*
X145474798Y-116182575D01*
X145474813Y-116165823D01*
X145889018Y-115751618D01*
X145898812Y-115736960D01*
X145993286Y-115595571D01*
X146029900Y-115411500D01*
X146029900Y-112081338D01*
X146053965Y-112139580D01*
X146217260Y-112303160D01*
X146430725Y-112391798D01*
X146661861Y-112392000D01*
X146875480Y-112303735D01*
X147039060Y-112140440D01*
X147127698Y-111926975D01*
X147127713Y-111910224D01*
X147438318Y-111599619D01*
X147542586Y-111443571D01*
X147546781Y-111422480D01*
X147560000Y-111356025D01*
X147560000Y-115726264D01*
X145725650Y-117560614D01*
X145709739Y-117560600D01*
X145496120Y-117648865D01*
X145332540Y-117812160D01*
X145243902Y-118025625D01*
X145243749Y-118200500D01*
X145075841Y-118200500D01*
X145076000Y-118018339D01*
X144987735Y-117804720D01*
X144824440Y-117641140D01*
X144610975Y-117552502D01*
X144594223Y-117552487D01*
X143426400Y-116384664D01*
X143426400Y-102922680D01*
X143437660Y-102911440D01*
X143526298Y-102697975D01*
X143526416Y-102562600D01*
X146673664Y-102562600D01*
X146198382Y-103037882D01*
G36*
X141755860Y-108789660D02*
X141969325Y-108878298D01*
X142200461Y-108878500D01*
X142414080Y-108790235D01*
X142464400Y-108740003D01*
X142464400Y-116583900D01*
X142492812Y-116726735D01*
X142501014Y-116767971D01*
X142605282Y-116924018D01*
X143881764Y-118200500D01*
X141436042Y-118200500D01*
X141232907Y-117997365D01*
X141176700Y-117861333D01*
X141176700Y-113959600D01*
X141130952Y-113729607D01*
X141000671Y-113534629D01*
X140384537Y-112918495D01*
X140463580Y-112885835D01*
X140627160Y-112722540D01*
X140715798Y-112509075D01*
X140716000Y-112277939D01*
X140660900Y-112144586D01*
X140660900Y-109658876D01*
X141305573Y-109014203D01*
X141437880Y-108959535D01*
X141601460Y-108796240D01*
X141648747Y-108682360D01*
X141755860Y-108789660D01*
X141755860Y-108789660D01*
G37*
X141755860Y-108789660D02*
X141969325Y-108878298D01*
X142200461Y-108878500D01*
X142414080Y-108790235D01*
X142464400Y-108740003D01*
X142464400Y-116583900D01*
X142492812Y-116726735D01*
X142501014Y-116767971D01*
X142605282Y-116924018D01*
X143881764Y-118200500D01*
X141436042Y-118200500D01*
X141232907Y-117997365D01*
X141176700Y-117861333D01*
X141176700Y-113959600D01*
X141130952Y-113729607D01*
X141000671Y-113534629D01*
X140384537Y-112918495D01*
X140463580Y-112885835D01*
X140627160Y-112722540D01*
X140715798Y-112509075D01*
X140716000Y-112277939D01*
X140660900Y-112144586D01*
X140660900Y-109658876D01*
X141305573Y-109014203D01*
X141437880Y-108959535D01*
X141601460Y-108796240D01*
X141648747Y-108682360D01*
X141755860Y-108789660D01*
G36*
X139974700Y-114208542D02*
X139974700Y-117821599D01*
X131784800Y-109631700D01*
X131784800Y-106018642D01*
X139974700Y-114208542D01*
X139974700Y-114208542D01*
G37*
X139974700Y-114208542D02*
X139974700Y-117821599D01*
X131784800Y-109631700D01*
X131784800Y-106018642D01*
X139974700Y-114208542D01*
G36*
X139732882Y-108306418D02*
X139888929Y-108410686D01*
X140073000Y-108447300D01*
X140384724Y-108447300D01*
X139762962Y-109069062D01*
X139648939Y-109239708D01*
X139635196Y-109308800D01*
X139608900Y-109441000D01*
X139608900Y-111123124D01*
X136934100Y-108448324D01*
X136934100Y-107745785D01*
X136988998Y-107613575D01*
X136989200Y-107382439D01*
X136900935Y-107168820D01*
X136737640Y-107005240D01*
X136604383Y-106949907D01*
X133919000Y-104264524D01*
X133919000Y-102492536D01*
X139732882Y-108306418D01*
X139732882Y-108306418D01*
G37*
X139732882Y-108306418D02*
X139888929Y-108410686D01*
X140073000Y-108447300D01*
X140384724Y-108447300D01*
X139762962Y-109069062D01*
X139648939Y-109239708D01*
X139635196Y-109308800D01*
X139608900Y-109441000D01*
X139608900Y-111123124D01*
X136934100Y-108448324D01*
X136934100Y-107745785D01*
X136988998Y-107613575D01*
X136989200Y-107382439D01*
X136900935Y-107168820D01*
X136737640Y-107005240D01*
X136604383Y-106949907D01*
X133919000Y-104264524D01*
X133919000Y-102492536D01*
X139732882Y-108306418D01*
G36*
X159237000Y-78241501D02*
X159237000Y-94265531D01*
X159137153Y-94505989D01*
X159136880Y-94819244D01*
X158885005Y-95071119D01*
X158573527Y-95070847D01*
X158249605Y-95204689D01*
X158001560Y-95452302D01*
X157867153Y-95775989D01*
X157866847Y-96126473D01*
X158000689Y-96450395D01*
X158248302Y-96698440D01*
X158567274Y-96830889D01*
X155690682Y-99707482D01*
X155586414Y-99863529D01*
X155549800Y-100047600D01*
X155549800Y-108959663D01*
X154106125Y-110403338D01*
X154044635Y-110254520D01*
X153932626Y-110142316D01*
X154309348Y-109765594D01*
X154566965Y-109765818D01*
X154817352Y-109662361D01*
X155009087Y-109470959D01*
X155112982Y-109220754D01*
X155113218Y-108949835D01*
X155009761Y-108699448D01*
X154818359Y-108507713D01*
X154741300Y-108475715D01*
X154741300Y-74580300D01*
X154695552Y-74350307D01*
X154565271Y-74155329D01*
X153089459Y-72679517D01*
X153158983Y-72330000D01*
X153117636Y-72122136D01*
X159237000Y-78241501D01*
X159237000Y-78241501D01*
G37*
X159237000Y-78241501D02*
X159237000Y-94265531D01*
X159137153Y-94505989D01*
X159136880Y-94819244D01*
X158885005Y-95071119D01*
X158573527Y-95070847D01*
X158249605Y-95204689D01*
X158001560Y-95452302D01*
X157867153Y-95775989D01*
X157866847Y-96126473D01*
X158000689Y-96450395D01*
X158248302Y-96698440D01*
X158567274Y-96830889D01*
X155690682Y-99707482D01*
X155586414Y-99863529D01*
X155549800Y-100047600D01*
X155549800Y-108959663D01*
X154106125Y-110403338D01*
X154044635Y-110254520D01*
X153932626Y-110142316D01*
X154309348Y-109765594D01*
X154566965Y-109765818D01*
X154817352Y-109662361D01*
X155009087Y-109470959D01*
X155112982Y-109220754D01*
X155113218Y-108949835D01*
X155009761Y-108699448D01*
X154818359Y-108507713D01*
X154741300Y-108475715D01*
X154741300Y-74580300D01*
X154695552Y-74350307D01*
X154565271Y-74155329D01*
X153089459Y-72679517D01*
X153158983Y-72330000D01*
X153117636Y-72122136D01*
X159237000Y-78241501D01*
G36*
X151548382Y-64515618D02*
X161372200Y-74339436D01*
X161372200Y-101403563D01*
X160074341Y-102701423D01*
X160074500Y-102519039D01*
X159986235Y-102305420D01*
X159974400Y-102293564D01*
X159974400Y-101523400D01*
X159937786Y-101339329D01*
X159923200Y-101317500D01*
X159837085Y-101188619D01*
X159837100Y-101170939D01*
X159748835Y-100957320D01*
X159585540Y-100793740D01*
X159372075Y-100705102D01*
X159355324Y-100705087D01*
X159075086Y-100424850D01*
X159075100Y-100408939D01*
X158986835Y-100195320D01*
X158823540Y-100031740D01*
X158610075Y-99943102D01*
X158378939Y-99942900D01*
X158165320Y-100031165D01*
X158001740Y-100194460D01*
X157913102Y-100407925D01*
X157912900Y-100639061D01*
X158001165Y-100852680D01*
X158164460Y-101016260D01*
X158377925Y-101104898D01*
X158394676Y-101104913D01*
X158674914Y-101385151D01*
X158674900Y-101401061D01*
X158763165Y-101614680D01*
X158926460Y-101778260D01*
X159012400Y-101813945D01*
X159012400Y-102293320D01*
X159001140Y-102304560D01*
X158912502Y-102518025D01*
X158912300Y-102749161D01*
X159000565Y-102962780D01*
X159163860Y-103126360D01*
X159377325Y-103214998D01*
X159560605Y-103215158D01*
X157860282Y-104915482D01*
X157756014Y-105071529D01*
X157719400Y-105255600D01*
X157719400Y-107854363D01*
X156511800Y-109061963D01*
X156511800Y-100246836D01*
X161163219Y-95595418D01*
X161257975Y-95453605D01*
X161267486Y-95439371D01*
X161304100Y-95255300D01*
X161304100Y-75562400D01*
X161267486Y-75378329D01*
X161163218Y-75222282D01*
X151518100Y-65577164D01*
X151518100Y-64470298D01*
X151548382Y-64515618D01*
X151548382Y-64515618D01*
G37*
X151548382Y-64515618D02*
X161372200Y-74339436D01*
X161372200Y-101403563D01*
X160074341Y-102701423D01*
X160074500Y-102519039D01*
X159986235Y-102305420D01*
X159974400Y-102293564D01*
X159974400Y-101523400D01*
X159937786Y-101339329D01*
X159923200Y-101317500D01*
X159837085Y-101188619D01*
X159837100Y-101170939D01*
X159748835Y-100957320D01*
X159585540Y-100793740D01*
X159372075Y-100705102D01*
X159355324Y-100705087D01*
X159075086Y-100424850D01*
X159075100Y-100408939D01*
X158986835Y-100195320D01*
X158823540Y-100031740D01*
X158610075Y-99943102D01*
X158378939Y-99942900D01*
X158165320Y-100031165D01*
X158001740Y-100194460D01*
X157913102Y-100407925D01*
X157912900Y-100639061D01*
X158001165Y-100852680D01*
X158164460Y-101016260D01*
X158377925Y-101104898D01*
X158394676Y-101104913D01*
X158674914Y-101385151D01*
X158674900Y-101401061D01*
X158763165Y-101614680D01*
X158926460Y-101778260D01*
X159012400Y-101813945D01*
X159012400Y-102293320D01*
X159001140Y-102304560D01*
X158912502Y-102518025D01*
X158912300Y-102749161D01*
X159000565Y-102962780D01*
X159163860Y-103126360D01*
X159377325Y-103214998D01*
X159560605Y-103215158D01*
X157860282Y-104915482D01*
X157756014Y-105071529D01*
X157719400Y-105255600D01*
X157719400Y-107854363D01*
X156511800Y-109061963D01*
X156511800Y-100246836D01*
X161163219Y-95595418D01*
X161257975Y-95453605D01*
X161267486Y-95439371D01*
X161304100Y-95255300D01*
X161304100Y-75562400D01*
X161267486Y-75378329D01*
X161163218Y-75222282D01*
X151518100Y-65577164D01*
X151518100Y-64470298D01*
X151548382Y-64515618D01*
G36*
X124384914Y-101131151D02*
X124384900Y-101147061D01*
X124473165Y-101360680D01*
X124636460Y-101524260D01*
X124849925Y-101612898D01*
X124866676Y-101612913D01*
X126257682Y-103003919D01*
X126308512Y-103037882D01*
X126413729Y-103108186D01*
X126597800Y-103144800D01*
X132008620Y-103144800D01*
X132019860Y-103156060D01*
X132233325Y-103244698D01*
X132464461Y-103244900D01*
X132678080Y-103156635D01*
X132841660Y-102993340D01*
X132867000Y-102932314D01*
X132867000Y-104482400D01*
X132907039Y-104683692D01*
X133021062Y-104854338D01*
X135860597Y-107693873D01*
X135882100Y-107745914D01*
X135882100Y-108416058D01*
X130935171Y-103469129D01*
X130740193Y-103338848D01*
X130510200Y-103293100D01*
X124957042Y-103293100D01*
X124137100Y-102473158D01*
X124137100Y-100883336D01*
X124384914Y-101131151D01*
X124384914Y-101131151D01*
G37*
X124384914Y-101131151D02*
X124384900Y-101147061D01*
X124473165Y-101360680D01*
X124636460Y-101524260D01*
X124849925Y-101612898D01*
X124866676Y-101612913D01*
X126257682Y-103003919D01*
X126308512Y-103037882D01*
X126413729Y-103108186D01*
X126597800Y-103144800D01*
X132008620Y-103144800D01*
X132019860Y-103156060D01*
X132233325Y-103244698D01*
X132464461Y-103244900D01*
X132678080Y-103156635D01*
X132841660Y-102993340D01*
X132867000Y-102932314D01*
X132867000Y-104482400D01*
X132907039Y-104683692D01*
X133021062Y-104854338D01*
X135860597Y-107693873D01*
X135882100Y-107745914D01*
X135882100Y-108416058D01*
X130935171Y-103469129D01*
X130740193Y-103338848D01*
X130510200Y-103293100D01*
X124957042Y-103293100D01*
X124137100Y-102473158D01*
X124137100Y-100883336D01*
X124384914Y-101131151D01*
G36*
X142464400Y-107854686D02*
X142414940Y-107805140D01*
X142201475Y-107716502D01*
X142184723Y-107716487D01*
X142094418Y-107626182D01*
X141938371Y-107521914D01*
X141754300Y-107485300D01*
X140272236Y-107485300D01*
X139221436Y-106434500D01*
X140880300Y-106434500D01*
X141064371Y-106397886D01*
X141220418Y-106293618D01*
X142251918Y-105262119D01*
X142356186Y-105106071D01*
X142358237Y-105095758D01*
X142392800Y-104922000D01*
X142392800Y-103103836D01*
X142464400Y-103032236D01*
X142464400Y-107854686D01*
X142464400Y-107854686D01*
G37*
X142464400Y-107854686D02*
X142414940Y-107805140D01*
X142201475Y-107716502D01*
X142184723Y-107716487D01*
X142094418Y-107626182D01*
X141938371Y-107521914D01*
X141754300Y-107485300D01*
X140272236Y-107485300D01*
X139221436Y-106434500D01*
X140880300Y-106434500D01*
X141064371Y-106397886D01*
X141220418Y-106293618D01*
X142251918Y-105262119D01*
X142356186Y-105106071D01*
X142358237Y-105095758D01*
X142392800Y-104922000D01*
X142392800Y-103103836D01*
X142464400Y-103032236D01*
X142464400Y-107854686D01*
G36*
X129508866Y-105827859D02*
X129660000Y-105858464D01*
X129843964Y-105858464D01*
X130222800Y-106237301D01*
X130222800Y-107381536D01*
X129660000Y-107381536D01*
X129518810Y-107408103D01*
X129422628Y-107469994D01*
X129411134Y-107462141D01*
X129260000Y-107431536D01*
X128560000Y-107431536D01*
X128418810Y-107458103D01*
X128398000Y-107471494D01*
X128311134Y-107412141D01*
X128160000Y-107381536D01*
X127360000Y-107381536D01*
X127218810Y-107408103D01*
X127122628Y-107469994D01*
X127111134Y-107462141D01*
X126960000Y-107431536D01*
X126260000Y-107431536D01*
X126118810Y-107458103D01*
X126098000Y-107471494D01*
X126011134Y-107412141D01*
X125860000Y-107381536D01*
X125421478Y-107381536D01*
X125309100Y-107269158D01*
X125309100Y-105858464D01*
X125860000Y-105858464D01*
X126001190Y-105831897D01*
X126097372Y-105770006D01*
X126108866Y-105777859D01*
X126260000Y-105808464D01*
X126960000Y-105808464D01*
X127101190Y-105781897D01*
X127122000Y-105768506D01*
X127208866Y-105827859D01*
X127360000Y-105858464D01*
X128160000Y-105858464D01*
X128301190Y-105831897D01*
X128397372Y-105770006D01*
X128408866Y-105777859D01*
X128560000Y-105808464D01*
X129260000Y-105808464D01*
X129401190Y-105781897D01*
X129422000Y-105768506D01*
X129508866Y-105827859D01*
X129508866Y-105827859D01*
G37*
X129508866Y-105827859D02*
X129660000Y-105858464D01*
X129843964Y-105858464D01*
X130222800Y-106237301D01*
X130222800Y-107381536D01*
X129660000Y-107381536D01*
X129518810Y-107408103D01*
X129422628Y-107469994D01*
X129411134Y-107462141D01*
X129260000Y-107431536D01*
X128560000Y-107431536D01*
X128418810Y-107458103D01*
X128398000Y-107471494D01*
X128311134Y-107412141D01*
X128160000Y-107381536D01*
X127360000Y-107381536D01*
X127218810Y-107408103D01*
X127122628Y-107469994D01*
X127111134Y-107462141D01*
X126960000Y-107431536D01*
X126260000Y-107431536D01*
X126118810Y-107458103D01*
X126098000Y-107471494D01*
X126011134Y-107412141D01*
X125860000Y-107381536D01*
X125421478Y-107381536D01*
X125309100Y-107269158D01*
X125309100Y-105858464D01*
X125860000Y-105858464D01*
X126001190Y-105831897D01*
X126097372Y-105770006D01*
X126108866Y-105777859D01*
X126260000Y-105808464D01*
X126960000Y-105808464D01*
X127101190Y-105781897D01*
X127122000Y-105768506D01*
X127208866Y-105827859D01*
X127360000Y-105858464D01*
X128160000Y-105858464D01*
X128301190Y-105831897D01*
X128397372Y-105770006D01*
X128408866Y-105777859D01*
X128560000Y-105808464D01*
X129260000Y-105808464D01*
X129401190Y-105781897D01*
X129422000Y-105768506D01*
X129508866Y-105827859D01*
G36*
X143357000Y-68288561D02*
X143445265Y-68502180D01*
X143608560Y-68665760D01*
X143822025Y-68754398D01*
X144053161Y-68754600D01*
X144266780Y-68666335D01*
X144270092Y-68663028D01*
X144853100Y-69246037D01*
X144853100Y-71382919D01*
X144716739Y-71382800D01*
X144503120Y-71471065D01*
X144339540Y-71634360D01*
X144250902Y-71847825D01*
X144250700Y-72078961D01*
X144338965Y-72292580D01*
X144430900Y-72384675D01*
X144430900Y-82430100D01*
X144467514Y-82614171D01*
X144571782Y-82770218D01*
X144617700Y-82816136D01*
X144617700Y-84054044D01*
X144452539Y-84053900D01*
X144238920Y-84142165D01*
X144075340Y-84305460D01*
X143986702Y-84518925D01*
X143986681Y-84542753D01*
X140339800Y-88189634D01*
X140339800Y-85217466D01*
X142891383Y-82665883D01*
X142994567Y-82511458D01*
X143030800Y-82329300D01*
X143030800Y-80954900D01*
X143012713Y-80863971D01*
X142994567Y-80772742D01*
X142891383Y-80618317D01*
X141955300Y-79682234D01*
X141955300Y-79188465D01*
X141976366Y-79202859D01*
X142127500Y-79233464D01*
X143872500Y-79233464D01*
X144013690Y-79206897D01*
X144143365Y-79123454D01*
X144230359Y-78996134D01*
X144260964Y-78845000D01*
X144260964Y-77245000D01*
X144234397Y-77103810D01*
X144150954Y-76974135D01*
X144023634Y-76887141D01*
X143872500Y-76856536D01*
X142127500Y-76856536D01*
X141986310Y-76883103D01*
X141955300Y-76903057D01*
X141955300Y-76748972D01*
X141971560Y-76732740D01*
X142060198Y-76519275D01*
X142060400Y-76288139D01*
X141972135Y-76074520D01*
X141810717Y-75912820D01*
X141990119Y-75733418D01*
X142094387Y-75577370D01*
X142131000Y-75393300D01*
X142131000Y-74028880D01*
X142142260Y-74017640D01*
X142230898Y-73804175D01*
X142231100Y-73573039D01*
X142142835Y-73359420D01*
X141979540Y-73195840D01*
X141766075Y-73107202D01*
X141534939Y-73107000D01*
X141321320Y-73195265D01*
X141157740Y-73358560D01*
X141069102Y-73572025D01*
X141068900Y-73803161D01*
X141157165Y-74016780D01*
X141169000Y-74028636D01*
X141169000Y-75194063D01*
X140346852Y-76016212D01*
X140349898Y-76008875D01*
X140350100Y-75777739D01*
X140261835Y-75564120D01*
X140098540Y-75400540D01*
X139885075Y-75311902D01*
X139653939Y-75311700D01*
X139440320Y-75399965D01*
X139276740Y-75563260D01*
X139188102Y-75776725D01*
X139188081Y-75800553D01*
X137410217Y-77578417D01*
X137307033Y-77732842D01*
X137273026Y-77903810D01*
X137270800Y-77915000D01*
X137270800Y-103870963D01*
X135259900Y-101860064D01*
X135259900Y-99196880D01*
X135271160Y-99185640D01*
X135359798Y-98972175D01*
X135360000Y-98741039D01*
X135271735Y-98527420D01*
X135108440Y-98363840D01*
X134894975Y-98275202D01*
X134708600Y-98275039D01*
X134708600Y-88965200D01*
X134671986Y-88781129D01*
X134630222Y-88718626D01*
X134567719Y-88625082D01*
X132602086Y-86659450D01*
X132602100Y-86643539D01*
X132513835Y-86429920D01*
X132350540Y-86266340D01*
X132137075Y-86177702D01*
X131905939Y-86177500D01*
X131692320Y-86265765D01*
X131528740Y-86429060D01*
X131440102Y-86642525D01*
X131439900Y-86873661D01*
X131528165Y-87087280D01*
X131691460Y-87250860D01*
X131904925Y-87339498D01*
X131921677Y-87339513D01*
X133746600Y-89164437D01*
X133746600Y-100849342D01*
X133722540Y-100825240D01*
X133589283Y-100769907D01*
X132828838Y-100009462D01*
X132658192Y-99895439D01*
X132456900Y-99855400D01*
X130163285Y-99855400D01*
X130031075Y-99800502D01*
X129799939Y-99800300D01*
X129586320Y-99888565D01*
X129422740Y-100051860D01*
X129334102Y-100265325D01*
X129333900Y-100496461D01*
X129369161Y-100581800D01*
X126369280Y-100581800D01*
X126358040Y-100570540D01*
X126144575Y-100481902D01*
X125913439Y-100481700D01*
X125699820Y-100569965D01*
X125536240Y-100733260D01*
X125503643Y-100811763D01*
X125458835Y-100703320D01*
X125295540Y-100539740D01*
X125082075Y-100451102D01*
X125065324Y-100451087D01*
X124785086Y-100170850D01*
X124785100Y-100154939D01*
X124696835Y-99941320D01*
X124533540Y-99777740D01*
X124320075Y-99689102D01*
X124137100Y-99688942D01*
X124137100Y-96772684D01*
X124281989Y-96832847D01*
X124632473Y-96833153D01*
X124956395Y-96699311D01*
X125204440Y-96451698D01*
X125338847Y-96128011D01*
X125339120Y-95814756D01*
X125590995Y-95562881D01*
X125902473Y-95563153D01*
X126226395Y-95429311D01*
X126474440Y-95181698D01*
X126608847Y-94858011D01*
X126609153Y-94507527D01*
X126509000Y-94265139D01*
X126509000Y-85039400D01*
X134662250Y-76886150D01*
X134831550Y-76632776D01*
X134848230Y-76548918D01*
X134891000Y-76333900D01*
X134891000Y-75832550D01*
X135014448Y-75750065D01*
X135284243Y-75346288D01*
X135378983Y-74870000D01*
X135284243Y-74393712D01*
X135025450Y-74006400D01*
X135397936Y-74006400D01*
X135397936Y-75733600D01*
X135424503Y-75874790D01*
X135507946Y-76004465D01*
X135635266Y-76091459D01*
X135786400Y-76122064D01*
X137513600Y-76122064D01*
X137654790Y-76095497D01*
X137784465Y-76012054D01*
X137871459Y-75884734D01*
X137902064Y-75733600D01*
X137902064Y-74006400D01*
X137875497Y-73865210D01*
X137792054Y-73735535D01*
X137664734Y-73648541D01*
X137513600Y-73617936D01*
X135786400Y-73617936D01*
X135645210Y-73644503D01*
X135515535Y-73727946D01*
X135428541Y-73855266D01*
X135397936Y-74006400D01*
X135025450Y-74006400D01*
X135014448Y-73989935D01*
X134610671Y-73720140D01*
X134134383Y-73625400D01*
X134085617Y-73625400D01*
X133609329Y-73720140D01*
X133205552Y-73989935D01*
X132935757Y-74393712D01*
X132841017Y-74870000D01*
X132935757Y-75346288D01*
X133205552Y-75750065D01*
X133329000Y-75832550D01*
X133329000Y-76010400D01*
X125175750Y-84163650D01*
X125006450Y-84417024D01*
X124947000Y-84715900D01*
X124947000Y-94265531D01*
X124847153Y-94505989D01*
X124846880Y-94819244D01*
X124595005Y-95071119D01*
X124283527Y-95070847D01*
X124137100Y-95131349D01*
X124137100Y-81868942D01*
X133041499Y-72964543D01*
X133205552Y-73210065D01*
X133609329Y-73479860D01*
X134085617Y-73574600D01*
X134134383Y-73574600D01*
X134610671Y-73479860D01*
X135014448Y-73210065D01*
X135284243Y-72806288D01*
X135378983Y-72330000D01*
X135284243Y-71853712D01*
X135116589Y-71602800D01*
X137433920Y-71602800D01*
X137445160Y-71614060D01*
X137658625Y-71702698D01*
X137889761Y-71702900D01*
X138103380Y-71614635D01*
X138266960Y-71451340D01*
X138355598Y-71237875D01*
X138355800Y-71006739D01*
X138267535Y-70793120D01*
X138104240Y-70629540D01*
X137890775Y-70540902D01*
X137659639Y-70540700D01*
X137633735Y-70551403D01*
X137822197Y-70269350D01*
X137997971Y-70234386D01*
X138154018Y-70130118D01*
X140132337Y-68151800D01*
X143357120Y-68151800D01*
X143357000Y-68288561D01*
X143357000Y-68288561D01*
G37*
X143357000Y-68288561D02*
X143445265Y-68502180D01*
X143608560Y-68665760D01*
X143822025Y-68754398D01*
X144053161Y-68754600D01*
X144266780Y-68666335D01*
X144270092Y-68663028D01*
X144853100Y-69246037D01*
X144853100Y-71382919D01*
X144716739Y-71382800D01*
X144503120Y-71471065D01*
X144339540Y-71634360D01*
X144250902Y-71847825D01*
X144250700Y-72078961D01*
X144338965Y-72292580D01*
X144430900Y-72384675D01*
X144430900Y-82430100D01*
X144467514Y-82614171D01*
X144571782Y-82770218D01*
X144617700Y-82816136D01*
X144617700Y-84054044D01*
X144452539Y-84053900D01*
X144238920Y-84142165D01*
X144075340Y-84305460D01*
X143986702Y-84518925D01*
X143986681Y-84542753D01*
X140339800Y-88189634D01*
X140339800Y-85217466D01*
X142891383Y-82665883D01*
X142994567Y-82511458D01*
X143030800Y-82329300D01*
X143030800Y-80954900D01*
X143012713Y-80863971D01*
X142994567Y-80772742D01*
X142891383Y-80618317D01*
X141955300Y-79682234D01*
X141955300Y-79188465D01*
X141976366Y-79202859D01*
X142127500Y-79233464D01*
X143872500Y-79233464D01*
X144013690Y-79206897D01*
X144143365Y-79123454D01*
X144230359Y-78996134D01*
X144260964Y-78845000D01*
X144260964Y-77245000D01*
X144234397Y-77103810D01*
X144150954Y-76974135D01*
X144023634Y-76887141D01*
X143872500Y-76856536D01*
X142127500Y-76856536D01*
X141986310Y-76883103D01*
X141955300Y-76903057D01*
X141955300Y-76748972D01*
X141971560Y-76732740D01*
X142060198Y-76519275D01*
X142060400Y-76288139D01*
X141972135Y-76074520D01*
X141810717Y-75912820D01*
X141990119Y-75733418D01*
X142094387Y-75577370D01*
X142131000Y-75393300D01*
X142131000Y-74028880D01*
X142142260Y-74017640D01*
X142230898Y-73804175D01*
X142231100Y-73573039D01*
X142142835Y-73359420D01*
X141979540Y-73195840D01*
X141766075Y-73107202D01*
X141534939Y-73107000D01*
X141321320Y-73195265D01*
X141157740Y-73358560D01*
X141069102Y-73572025D01*
X141068900Y-73803161D01*
X141157165Y-74016780D01*
X141169000Y-74028636D01*
X141169000Y-75194063D01*
X140346852Y-76016212D01*
X140349898Y-76008875D01*
X140350100Y-75777739D01*
X140261835Y-75564120D01*
X140098540Y-75400540D01*
X139885075Y-75311902D01*
X139653939Y-75311700D01*
X139440320Y-75399965D01*
X139276740Y-75563260D01*
X139188102Y-75776725D01*
X139188081Y-75800553D01*
X137410217Y-77578417D01*
X137307033Y-77732842D01*
X137273026Y-77903810D01*
X137270800Y-77915000D01*
X137270800Y-103870963D01*
X135259900Y-101860064D01*
X135259900Y-99196880D01*
X135271160Y-99185640D01*
X135359798Y-98972175D01*
X135360000Y-98741039D01*
X135271735Y-98527420D01*
X135108440Y-98363840D01*
X134894975Y-98275202D01*
X134708600Y-98275039D01*
X134708600Y-88965200D01*
X134671986Y-88781129D01*
X134630222Y-88718626D01*
X134567719Y-88625082D01*
X132602086Y-86659450D01*
X132602100Y-86643539D01*
X132513835Y-86429920D01*
X132350540Y-86266340D01*
X132137075Y-86177702D01*
X131905939Y-86177500D01*
X131692320Y-86265765D01*
X131528740Y-86429060D01*
X131440102Y-86642525D01*
X131439900Y-86873661D01*
X131528165Y-87087280D01*
X131691460Y-87250860D01*
X131904925Y-87339498D01*
X131921677Y-87339513D01*
X133746600Y-89164437D01*
X133746600Y-100849342D01*
X133722540Y-100825240D01*
X133589283Y-100769907D01*
X132828838Y-100009462D01*
X132658192Y-99895439D01*
X132456900Y-99855400D01*
X130163285Y-99855400D01*
X130031075Y-99800502D01*
X129799939Y-99800300D01*
X129586320Y-99888565D01*
X129422740Y-100051860D01*
X129334102Y-100265325D01*
X129333900Y-100496461D01*
X129369161Y-100581800D01*
X126369280Y-100581800D01*
X126358040Y-100570540D01*
X126144575Y-100481902D01*
X125913439Y-100481700D01*
X125699820Y-100569965D01*
X125536240Y-100733260D01*
X125503643Y-100811763D01*
X125458835Y-100703320D01*
X125295540Y-100539740D01*
X125082075Y-100451102D01*
X125065324Y-100451087D01*
X124785086Y-100170850D01*
X124785100Y-100154939D01*
X124696835Y-99941320D01*
X124533540Y-99777740D01*
X124320075Y-99689102D01*
X124137100Y-99688942D01*
X124137100Y-96772684D01*
X124281989Y-96832847D01*
X124632473Y-96833153D01*
X124956395Y-96699311D01*
X125204440Y-96451698D01*
X125338847Y-96128011D01*
X125339120Y-95814756D01*
X125590995Y-95562881D01*
X125902473Y-95563153D01*
X126226395Y-95429311D01*
X126474440Y-95181698D01*
X126608847Y-94858011D01*
X126609153Y-94507527D01*
X126509000Y-94265139D01*
X126509000Y-85039400D01*
X134662250Y-76886150D01*
X134831550Y-76632776D01*
X134848230Y-76548918D01*
X134891000Y-76333900D01*
X134891000Y-75832550D01*
X135014448Y-75750065D01*
X135284243Y-75346288D01*
X135378983Y-74870000D01*
X135284243Y-74393712D01*
X135025450Y-74006400D01*
X135397936Y-74006400D01*
X135397936Y-75733600D01*
X135424503Y-75874790D01*
X135507946Y-76004465D01*
X135635266Y-76091459D01*
X135786400Y-76122064D01*
X137513600Y-76122064D01*
X137654790Y-76095497D01*
X137784465Y-76012054D01*
X137871459Y-75884734D01*
X137902064Y-75733600D01*
X137902064Y-74006400D01*
X137875497Y-73865210D01*
X137792054Y-73735535D01*
X137664734Y-73648541D01*
X137513600Y-73617936D01*
X135786400Y-73617936D01*
X135645210Y-73644503D01*
X135515535Y-73727946D01*
X135428541Y-73855266D01*
X135397936Y-74006400D01*
X135025450Y-74006400D01*
X135014448Y-73989935D01*
X134610671Y-73720140D01*
X134134383Y-73625400D01*
X134085617Y-73625400D01*
X133609329Y-73720140D01*
X133205552Y-73989935D01*
X132935757Y-74393712D01*
X132841017Y-74870000D01*
X132935757Y-75346288D01*
X133205552Y-75750065D01*
X133329000Y-75832550D01*
X133329000Y-76010400D01*
X125175750Y-84163650D01*
X125006450Y-84417024D01*
X124947000Y-84715900D01*
X124947000Y-94265531D01*
X124847153Y-94505989D01*
X124846880Y-94819244D01*
X124595005Y-95071119D01*
X124283527Y-95070847D01*
X124137100Y-95131349D01*
X124137100Y-81868942D01*
X133041499Y-72964543D01*
X133205552Y-73210065D01*
X133609329Y-73479860D01*
X134085617Y-73574600D01*
X134134383Y-73574600D01*
X134610671Y-73479860D01*
X135014448Y-73210065D01*
X135284243Y-72806288D01*
X135378983Y-72330000D01*
X135284243Y-71853712D01*
X135116589Y-71602800D01*
X137433920Y-71602800D01*
X137445160Y-71614060D01*
X137658625Y-71702698D01*
X137889761Y-71702900D01*
X138103380Y-71614635D01*
X138266960Y-71451340D01*
X138355598Y-71237875D01*
X138355800Y-71006739D01*
X138267535Y-70793120D01*
X138104240Y-70629540D01*
X137890775Y-70540902D01*
X137659639Y-70540700D01*
X137633735Y-70551403D01*
X137822197Y-70269350D01*
X137997971Y-70234386D01*
X138154018Y-70130118D01*
X140132337Y-68151800D01*
X143357120Y-68151800D01*
X143357000Y-68288561D01*
G36*
X131996614Y-101817250D02*
X131996600Y-101833161D01*
X132084865Y-102046780D01*
X132153901Y-102115936D01*
X132020720Y-102170965D01*
X132008864Y-102182800D01*
X126797037Y-102182800D01*
X126224637Y-101610400D01*
X126357180Y-101555635D01*
X126369036Y-101543800D01*
X131723164Y-101543800D01*
X131996614Y-101817250D01*
X131996614Y-101817250D01*
G37*
X131996614Y-101817250D02*
X131996600Y-101833161D01*
X132084865Y-102046780D01*
X132153901Y-102115936D01*
X132020720Y-102170965D01*
X132008864Y-102182800D01*
X126797037Y-102182800D01*
X126224637Y-101610400D01*
X126357180Y-101555635D01*
X126369036Y-101543800D01*
X131723164Y-101543800D01*
X131996614Y-101817250D01*
G36*
X145418300Y-96540164D02*
X141312250Y-100646214D01*
X141296339Y-100646200D01*
X141250500Y-100665140D01*
X141250500Y-95604736D01*
X145418300Y-91436936D01*
X145418300Y-96540164D01*
X145418300Y-96540164D01*
G37*
X145418300Y-96540164D02*
X141312250Y-100646214D01*
X141296339Y-100646200D01*
X141250500Y-100665140D01*
X141250500Y-95604736D01*
X145418300Y-91436936D01*
X145418300Y-96540164D01*
G36*
X153539300Y-74829242D02*
X153539300Y-79688622D01*
X153399639Y-79688500D01*
X153186020Y-79776765D01*
X153022440Y-79940060D01*
X152933802Y-80153525D01*
X152933600Y-80384661D01*
X153021865Y-80598280D01*
X153033700Y-80610136D01*
X153033700Y-96900063D01*
X150206000Y-99727763D01*
X150206000Y-97713311D01*
X150216325Y-97717598D01*
X150447461Y-97717800D01*
X150661080Y-97629535D01*
X150824660Y-97466240D01*
X150913298Y-97252775D01*
X150913313Y-97236023D01*
X152230118Y-95919218D01*
X152334386Y-95763171D01*
X152336865Y-95750708D01*
X152371000Y-95579100D01*
X152371000Y-76023773D01*
X152390671Y-76019860D01*
X152794448Y-75750065D01*
X153064243Y-75346288D01*
X153158983Y-74870000D01*
X153064243Y-74393712D01*
X152984649Y-74274591D01*
X153539300Y-74829242D01*
X153539300Y-74829242D01*
G37*
X153539300Y-74829242D02*
X153539300Y-79688622D01*
X153399639Y-79688500D01*
X153186020Y-79776765D01*
X153022440Y-79940060D01*
X152933802Y-80153525D01*
X152933600Y-80384661D01*
X153021865Y-80598280D01*
X153033700Y-80610136D01*
X153033700Y-96900063D01*
X150206000Y-99727763D01*
X150206000Y-97713311D01*
X150216325Y-97717598D01*
X150447461Y-97717800D01*
X150661080Y-97629535D01*
X150824660Y-97466240D01*
X150913298Y-97252775D01*
X150913313Y-97236023D01*
X152230118Y-95919218D01*
X152334386Y-95763171D01*
X152336865Y-95750708D01*
X152371000Y-95579100D01*
X152371000Y-76023773D01*
X152390671Y-76019860D01*
X152794448Y-75750065D01*
X153064243Y-75346288D01*
X153158983Y-74870000D01*
X153064243Y-74393712D01*
X152984649Y-74274591D01*
X153539300Y-74829242D01*
G36*
X147304650Y-78453950D02*
X147866861Y-79016162D01*
X147966289Y-79256795D01*
X148213902Y-79504840D01*
X148537589Y-79639247D01*
X148888073Y-79639553D01*
X149043900Y-79575167D01*
X149043900Y-96071063D01*
X148784582Y-96330382D01*
X148680314Y-96486429D01*
X148643700Y-96670500D01*
X148643700Y-98686063D01*
X148369283Y-98960480D01*
X148283935Y-98753920D01*
X148120640Y-98590340D01*
X147907175Y-98501702D01*
X147890423Y-98501687D01*
X147291900Y-97903164D01*
X147291900Y-78434868D01*
X147304650Y-78453950D01*
X147304650Y-78453950D01*
G37*
X147304650Y-78453950D02*
X147866861Y-79016162D01*
X147966289Y-79256795D01*
X148213902Y-79504840D01*
X148537589Y-79639247D01*
X148888073Y-79639553D01*
X149043900Y-79575167D01*
X149043900Y-96071063D01*
X148784582Y-96330382D01*
X148680314Y-96486429D01*
X148643700Y-96670500D01*
X148643700Y-98686063D01*
X148369283Y-98960480D01*
X148283935Y-98753920D01*
X148120640Y-98590340D01*
X147907175Y-98501702D01*
X147890423Y-98501687D01*
X147291900Y-97903164D01*
X147291900Y-78434868D01*
X147304650Y-78453950D01*
G36*
X151389329Y-76019860D02*
X151409000Y-76023773D01*
X151409000Y-95379864D01*
X150995000Y-95793864D01*
X150995000Y-75756378D01*
X151389329Y-76019860D01*
X151389329Y-76019860D01*
G37*
X151389329Y-76019860D02*
X151409000Y-76023773D01*
X151409000Y-95379864D01*
X150995000Y-95793864D01*
X150995000Y-75756378D01*
X151389329Y-76019860D01*
G36*
X144617700Y-90028123D02*
X144489740Y-90155860D01*
X144401102Y-90369325D01*
X144400900Y-90600461D01*
X144489165Y-90814080D01*
X144584841Y-90909923D01*
X140739900Y-94754864D01*
X140739900Y-89135866D01*
X144617700Y-85258066D01*
X144617700Y-90028123D01*
X144617700Y-90028123D01*
G37*
X144617700Y-90028123D02*
X144489740Y-90155860D01*
X144401102Y-90369325D01*
X144400900Y-90600461D01*
X144489165Y-90814080D01*
X144584841Y-90909923D01*
X140739900Y-94754864D01*
X140739900Y-89135866D01*
X144617700Y-85258066D01*
X144617700Y-90028123D01*
G36*
X133019087Y-71729000D02*
X132826100Y-71729000D01*
X132596107Y-71774748D01*
X132401129Y-71905029D01*
X123111129Y-81195029D01*
X122980848Y-81390007D01*
X122935100Y-81620000D01*
X122935100Y-89931799D01*
X117787350Y-84784050D01*
X117533976Y-84614750D01*
X117235100Y-84555300D01*
X114847766Y-84555300D01*
X114501661Y-84208591D01*
X114012640Y-84005531D01*
X113984935Y-84005507D01*
X116253848Y-81736594D01*
X116304665Y-81859580D01*
X116467960Y-82023160D01*
X116681425Y-82111798D01*
X116912561Y-82112000D01*
X117126180Y-82023735D01*
X117138036Y-82011900D01*
X121006200Y-82011900D01*
X121190271Y-81975286D01*
X121346318Y-81871018D01*
X131614537Y-71602800D01*
X133103411Y-71602800D01*
X133019087Y-71729000D01*
X133019087Y-71729000D01*
G37*
X133019087Y-71729000D02*
X132826100Y-71729000D01*
X132596107Y-71774748D01*
X132401129Y-71905029D01*
X123111129Y-81195029D01*
X122980848Y-81390007D01*
X122935100Y-81620000D01*
X122935100Y-89931799D01*
X117787350Y-84784050D01*
X117533976Y-84614750D01*
X117235100Y-84555300D01*
X114847766Y-84555300D01*
X114501661Y-84208591D01*
X114012640Y-84005531D01*
X113984935Y-84005507D01*
X116253848Y-81736594D01*
X116304665Y-81859580D01*
X116467960Y-82023160D01*
X116681425Y-82111798D01*
X116912561Y-82112000D01*
X117126180Y-82023735D01*
X117138036Y-82011900D01*
X121006200Y-82011900D01*
X121190271Y-81975286D01*
X121346318Y-81871018D01*
X131614537Y-71602800D01*
X133103411Y-71602800D01*
X133019087Y-71729000D01*
G36*
X118338300Y-87544000D02*
X110872088Y-87544000D01*
X112570265Y-87088975D01*
X112699768Y-87026771D01*
X112803427Y-86912609D01*
X112854504Y-86767112D01*
X112844950Y-86613206D01*
X112736429Y-86208201D01*
X112991791Y-86464009D01*
X113480812Y-86667069D01*
X114010317Y-86667531D01*
X114499692Y-86465325D01*
X114848325Y-86117300D01*
X116911600Y-86117300D01*
X118338300Y-87544000D01*
X118338300Y-87544000D01*
G37*
X118338300Y-87544000D02*
X110872088Y-87544000D01*
X112570265Y-87088975D01*
X112699768Y-87026771D01*
X112803427Y-86912609D01*
X112854504Y-86767112D01*
X112844950Y-86613206D01*
X112736429Y-86208201D01*
X112991791Y-86464009D01*
X113480812Y-86667069D01*
X114010317Y-86667531D01*
X114499692Y-86465325D01*
X114848325Y-86117300D01*
X116911600Y-86117300D01*
X118338300Y-87544000D01*
G36*
X140414340Y-52897060D02*
X140325702Y-53110525D01*
X140325500Y-53341661D01*
X140413765Y-53555280D01*
X140577060Y-53718860D01*
X140790525Y-53807498D01*
X140807276Y-53807513D01*
X141595682Y-54595919D01*
X141689226Y-54658422D01*
X141751729Y-54700186D01*
X141935800Y-54736800D01*
X145733064Y-54736800D01*
X146688373Y-55692109D01*
X145591732Y-55985954D01*
X145741487Y-55836459D01*
X145845382Y-55586254D01*
X145845618Y-55315335D01*
X145742161Y-55064948D01*
X145550759Y-54873213D01*
X145300554Y-54769318D01*
X145029635Y-54769082D01*
X144779248Y-54872539D01*
X144587513Y-55063941D01*
X144507056Y-55257702D01*
X140390535Y-59374223D01*
X140358018Y-59365511D01*
X140448331Y-59028458D01*
X140459213Y-58885203D01*
X140412175Y-58738350D01*
X140311709Y-58621368D01*
X140173646Y-58552689D01*
X139806778Y-58454387D01*
X140271666Y-58262299D01*
X140646409Y-57888209D01*
X140849469Y-57399188D01*
X140849931Y-56869683D01*
X140647725Y-56380308D01*
X140273635Y-56005565D01*
X139784614Y-55802505D01*
X139255109Y-55802043D01*
X138765734Y-56004249D01*
X138390991Y-56378339D01*
X138187931Y-56867360D01*
X138187469Y-57396865D01*
X138389675Y-57886240D01*
X138646469Y-58143483D01*
X138241794Y-58035050D01*
X138098539Y-58024168D01*
X137951686Y-58071206D01*
X137834704Y-58171672D01*
X137766025Y-58309735D01*
X137274269Y-60144994D01*
X137263387Y-60288249D01*
X137310425Y-60435102D01*
X137410891Y-60552084D01*
X137548954Y-60620763D01*
X137903522Y-60715769D01*
X137839528Y-60758529D01*
X126457965Y-72140093D01*
X126265448Y-72219639D01*
X126073713Y-72411041D01*
X125969818Y-72661246D01*
X125969582Y-72932165D01*
X126073039Y-73182552D01*
X126264441Y-73374287D01*
X126514646Y-73478182D01*
X126785565Y-73478418D01*
X126866127Y-73445131D01*
X120473258Y-79838000D01*
X116701500Y-79838000D01*
X116471507Y-79883748D01*
X116276529Y-80014029D01*
X111886030Y-84404528D01*
X111851542Y-84406669D01*
X110016283Y-84898425D01*
X109886780Y-84960629D01*
X109783121Y-85074791D01*
X109732044Y-85220288D01*
X109741598Y-85374194D01*
X110259237Y-87306046D01*
X110321441Y-87435549D01*
X110435603Y-87539208D01*
X110449253Y-87544000D01*
X106555637Y-87544000D01*
X109245999Y-74018635D01*
X117165807Y-62165807D01*
X129018635Y-54245999D01*
X135063079Y-53043685D01*
X128181882Y-59924882D01*
X128077614Y-60080929D01*
X128041000Y-60265000D01*
X128041000Y-61589763D01*
X114763156Y-74867608D01*
X114658888Y-75023655D01*
X114622274Y-75207726D01*
X114622274Y-77065140D01*
X113826283Y-77278425D01*
X113696780Y-77340629D01*
X113593121Y-77454791D01*
X113542044Y-77600288D01*
X113551598Y-77754194D01*
X114069237Y-79686046D01*
X114131441Y-79815549D01*
X114245603Y-79919208D01*
X114391100Y-79970285D01*
X114545006Y-79960731D01*
X116380265Y-79468975D01*
X116509768Y-79406771D01*
X116613427Y-79292609D01*
X116664504Y-79147112D01*
X116654950Y-78993206D01*
X116546429Y-78588201D01*
X116801791Y-78844009D01*
X117290812Y-79047069D01*
X117820317Y-79047531D01*
X118309692Y-78845325D01*
X118684435Y-78471235D01*
X118887495Y-77982214D01*
X118887957Y-77452709D01*
X118700902Y-77000000D01*
X119544000Y-77000000D01*
X119654831Y-77557187D01*
X119970453Y-78029547D01*
X120442813Y-78345169D01*
X121000000Y-78456000D01*
X121557187Y-78345169D01*
X122029547Y-78029547D01*
X122345169Y-77557187D01*
X122456000Y-77000000D01*
X122345169Y-76442813D01*
X122029547Y-75970453D01*
X121557187Y-75654831D01*
X121000000Y-75544000D01*
X120442813Y-75654831D01*
X119970453Y-75970453D01*
X119654831Y-76442813D01*
X119544000Y-77000000D01*
X118700902Y-77000000D01*
X118685751Y-76963334D01*
X118311661Y-76588591D01*
X117822640Y-76385531D01*
X117293135Y-76385069D01*
X116803760Y-76587275D01*
X116429017Y-76961365D01*
X116235436Y-77427559D01*
X116137311Y-77061354D01*
X116075107Y-76931851D01*
X115960945Y-76828192D01*
X115815448Y-76777115D01*
X115661542Y-76786669D01*
X115584274Y-76807373D01*
X115584274Y-75406962D01*
X128721237Y-62270000D01*
X129434338Y-62270000D01*
X129657545Y-62493207D01*
X129477529Y-62529014D01*
X129321482Y-62633282D01*
X129217214Y-62789329D01*
X129180601Y-62973400D01*
X129217214Y-63157471D01*
X129321482Y-63313518D01*
X129321581Y-63313618D01*
X129477629Y-63417886D01*
X129661700Y-63454499D01*
X129795508Y-63427884D01*
X129654269Y-63954994D01*
X129643387Y-64098249D01*
X129690425Y-64245102D01*
X129790891Y-64362084D01*
X129928954Y-64430763D01*
X131860806Y-64948402D01*
X132004061Y-64959284D01*
X132150914Y-64912246D01*
X132267896Y-64811780D01*
X132336575Y-64673717D01*
X132828331Y-62838458D01*
X132839213Y-62695203D01*
X132792175Y-62548350D01*
X132691709Y-62431368D01*
X132553646Y-62362689D01*
X132186778Y-62264387D01*
X132436407Y-62161243D01*
X133793482Y-63518318D01*
X133949529Y-63622586D01*
X133985765Y-63629794D01*
X134026360Y-63670460D01*
X134239825Y-63759098D01*
X134470961Y-63759300D01*
X134684580Y-63671035D01*
X134848160Y-63507740D01*
X134936798Y-63294275D01*
X134937000Y-63063139D01*
X134848735Y-62849520D01*
X134685440Y-62685940D01*
X134471975Y-62597302D01*
X134240839Y-62597100D01*
X134235105Y-62599469D01*
X133116612Y-61480976D01*
X133229469Y-61209188D01*
X133229931Y-60679683D01*
X133027725Y-60190308D01*
X132653635Y-59815565D01*
X132164614Y-59612505D01*
X131635109Y-59612043D01*
X131145734Y-59814249D01*
X130770991Y-60188339D01*
X130567931Y-60677360D01*
X130567469Y-61206865D01*
X130769675Y-61696240D01*
X131026469Y-61953483D01*
X130621794Y-61845050D01*
X130478539Y-61834168D01*
X130387984Y-61863174D01*
X129973692Y-61448882D01*
X129817645Y-61344614D01*
X129633574Y-61308000D01*
X129003000Y-61308000D01*
X129003000Y-60464236D01*
X136087236Y-53380000D01*
X138146800Y-53380000D01*
X138330871Y-53343386D01*
X138486918Y-53239118D01*
X138917137Y-52808900D01*
X140502654Y-52808900D01*
X140414340Y-52897060D01*
X140414340Y-52897060D01*
G37*
X140414340Y-52897060D02*
X140325702Y-53110525D01*
X140325500Y-53341661D01*
X140413765Y-53555280D01*
X140577060Y-53718860D01*
X140790525Y-53807498D01*
X140807276Y-53807513D01*
X141595682Y-54595919D01*
X141689226Y-54658422D01*
X141751729Y-54700186D01*
X141935800Y-54736800D01*
X145733064Y-54736800D01*
X146688373Y-55692109D01*
X145591732Y-55985954D01*
X145741487Y-55836459D01*
X145845382Y-55586254D01*
X145845618Y-55315335D01*
X145742161Y-55064948D01*
X145550759Y-54873213D01*
X145300554Y-54769318D01*
X145029635Y-54769082D01*
X144779248Y-54872539D01*
X144587513Y-55063941D01*
X144507056Y-55257702D01*
X140390535Y-59374223D01*
X140358018Y-59365511D01*
X140448331Y-59028458D01*
X140459213Y-58885203D01*
X140412175Y-58738350D01*
X140311709Y-58621368D01*
X140173646Y-58552689D01*
X139806778Y-58454387D01*
X140271666Y-58262299D01*
X140646409Y-57888209D01*
X140849469Y-57399188D01*
X140849931Y-56869683D01*
X140647725Y-56380308D01*
X140273635Y-56005565D01*
X139784614Y-55802505D01*
X139255109Y-55802043D01*
X138765734Y-56004249D01*
X138390991Y-56378339D01*
X138187931Y-56867360D01*
X138187469Y-57396865D01*
X138389675Y-57886240D01*
X138646469Y-58143483D01*
X138241794Y-58035050D01*
X138098539Y-58024168D01*
X137951686Y-58071206D01*
X137834704Y-58171672D01*
X137766025Y-58309735D01*
X137274269Y-60144994D01*
X137263387Y-60288249D01*
X137310425Y-60435102D01*
X137410891Y-60552084D01*
X137548954Y-60620763D01*
X137903522Y-60715769D01*
X137839528Y-60758529D01*
X126457965Y-72140093D01*
X126265448Y-72219639D01*
X126073713Y-72411041D01*
X125969818Y-72661246D01*
X125969582Y-72932165D01*
X126073039Y-73182552D01*
X126264441Y-73374287D01*
X126514646Y-73478182D01*
X126785565Y-73478418D01*
X126866127Y-73445131D01*
X120473258Y-79838000D01*
X116701500Y-79838000D01*
X116471507Y-79883748D01*
X116276529Y-80014029D01*
X111886030Y-84404528D01*
X111851542Y-84406669D01*
X110016283Y-84898425D01*
X109886780Y-84960629D01*
X109783121Y-85074791D01*
X109732044Y-85220288D01*
X109741598Y-85374194D01*
X110259237Y-87306046D01*
X110321441Y-87435549D01*
X110435603Y-87539208D01*
X110449253Y-87544000D01*
X106555637Y-87544000D01*
X109245999Y-74018635D01*
X117165807Y-62165807D01*
X129018635Y-54245999D01*
X135063079Y-53043685D01*
X128181882Y-59924882D01*
X128077614Y-60080929D01*
X128041000Y-60265000D01*
X128041000Y-61589763D01*
X114763156Y-74867608D01*
X114658888Y-75023655D01*
X114622274Y-75207726D01*
X114622274Y-77065140D01*
X113826283Y-77278425D01*
X113696780Y-77340629D01*
X113593121Y-77454791D01*
X113542044Y-77600288D01*
X113551598Y-77754194D01*
X114069237Y-79686046D01*
X114131441Y-79815549D01*
X114245603Y-79919208D01*
X114391100Y-79970285D01*
X114545006Y-79960731D01*
X116380265Y-79468975D01*
X116509768Y-79406771D01*
X116613427Y-79292609D01*
X116664504Y-79147112D01*
X116654950Y-78993206D01*
X116546429Y-78588201D01*
X116801791Y-78844009D01*
X117290812Y-79047069D01*
X117820317Y-79047531D01*
X118309692Y-78845325D01*
X118684435Y-78471235D01*
X118887495Y-77982214D01*
X118887957Y-77452709D01*
X118700902Y-77000000D01*
X119544000Y-77000000D01*
X119654831Y-77557187D01*
X119970453Y-78029547D01*
X120442813Y-78345169D01*
X121000000Y-78456000D01*
X121557187Y-78345169D01*
X122029547Y-78029547D01*
X122345169Y-77557187D01*
X122456000Y-77000000D01*
X122345169Y-76442813D01*
X122029547Y-75970453D01*
X121557187Y-75654831D01*
X121000000Y-75544000D01*
X120442813Y-75654831D01*
X119970453Y-75970453D01*
X119654831Y-76442813D01*
X119544000Y-77000000D01*
X118700902Y-77000000D01*
X118685751Y-76963334D01*
X118311661Y-76588591D01*
X117822640Y-76385531D01*
X117293135Y-76385069D01*
X116803760Y-76587275D01*
X116429017Y-76961365D01*
X116235436Y-77427559D01*
X116137311Y-77061354D01*
X116075107Y-76931851D01*
X115960945Y-76828192D01*
X115815448Y-76777115D01*
X115661542Y-76786669D01*
X115584274Y-76807373D01*
X115584274Y-75406962D01*
X128721237Y-62270000D01*
X129434338Y-62270000D01*
X129657545Y-62493207D01*
X129477529Y-62529014D01*
X129321482Y-62633282D01*
X129217214Y-62789329D01*
X129180601Y-62973400D01*
X129217214Y-63157471D01*
X129321482Y-63313518D01*
X129321581Y-63313618D01*
X129477629Y-63417886D01*
X129661700Y-63454499D01*
X129795508Y-63427884D01*
X129654269Y-63954994D01*
X129643387Y-64098249D01*
X129690425Y-64245102D01*
X129790891Y-64362084D01*
X129928954Y-64430763D01*
X131860806Y-64948402D01*
X132004061Y-64959284D01*
X132150914Y-64912246D01*
X132267896Y-64811780D01*
X132336575Y-64673717D01*
X132828331Y-62838458D01*
X132839213Y-62695203D01*
X132792175Y-62548350D01*
X132691709Y-62431368D01*
X132553646Y-62362689D01*
X132186778Y-62264387D01*
X132436407Y-62161243D01*
X133793482Y-63518318D01*
X133949529Y-63622586D01*
X133985765Y-63629794D01*
X134026360Y-63670460D01*
X134239825Y-63759098D01*
X134470961Y-63759300D01*
X134684580Y-63671035D01*
X134848160Y-63507740D01*
X134936798Y-63294275D01*
X134937000Y-63063139D01*
X134848735Y-62849520D01*
X134685440Y-62685940D01*
X134471975Y-62597302D01*
X134240839Y-62597100D01*
X134235105Y-62599469D01*
X133116612Y-61480976D01*
X133229469Y-61209188D01*
X133229931Y-60679683D01*
X133027725Y-60190308D01*
X132653635Y-59815565D01*
X132164614Y-59612505D01*
X131635109Y-59612043D01*
X131145734Y-59814249D01*
X130770991Y-60188339D01*
X130567931Y-60677360D01*
X130567469Y-61206865D01*
X130769675Y-61696240D01*
X131026469Y-61953483D01*
X130621794Y-61845050D01*
X130478539Y-61834168D01*
X130387984Y-61863174D01*
X129973692Y-61448882D01*
X129817645Y-61344614D01*
X129633574Y-61308000D01*
X129003000Y-61308000D01*
X129003000Y-60464236D01*
X136087236Y-53380000D01*
X138146800Y-53380000D01*
X138330871Y-53343386D01*
X138486918Y-53239118D01*
X138917137Y-52808900D01*
X140502654Y-52808900D01*
X140414340Y-52897060D01*
G36*
X160342100Y-75761636D02*
X160342100Y-77137599D01*
X153131693Y-69927193D01*
X153158983Y-69790000D01*
X153064243Y-69313712D01*
X152794448Y-68909935D01*
X152390671Y-68640140D01*
X151914383Y-68545400D01*
X151865617Y-68545400D01*
X151389329Y-68640140D01*
X150995000Y-68903622D01*
X150995000Y-66414536D01*
X160342100Y-75761636D01*
X160342100Y-75761636D01*
G37*
X160342100Y-75761636D02*
X160342100Y-77137599D01*
X153131693Y-69927193D01*
X153158983Y-69790000D01*
X153064243Y-69313712D01*
X152794448Y-68909935D01*
X152390671Y-68640140D01*
X151914383Y-68545400D01*
X151865617Y-68545400D01*
X151389329Y-68640140D01*
X150995000Y-68903622D01*
X150995000Y-66414536D01*
X160342100Y-75761636D01*
G36*
X150033000Y-73841968D02*
X149850671Y-73720140D01*
X149374383Y-73625400D01*
X149325617Y-73625400D01*
X148849329Y-73720140D01*
X148637900Y-73861412D01*
X148637900Y-71606600D01*
X149202437Y-71042064D01*
X150033000Y-71042064D01*
X150033000Y-73841968D01*
X150033000Y-73841968D01*
G37*
X150033000Y-73841968D02*
X149850671Y-73720140D01*
X149374383Y-73625400D01*
X149325617Y-73625400D01*
X148849329Y-73720140D01*
X148637900Y-73861412D01*
X148637900Y-71606600D01*
X149202437Y-71042064D01*
X150033000Y-71042064D01*
X150033000Y-73841968D01*
G36*
X145386025Y-58410265D02*
X145448229Y-58539768D01*
X145562391Y-58643427D01*
X145707888Y-58694504D01*
X145861794Y-58684950D01*
X146266799Y-58576429D01*
X146010991Y-58831791D01*
X145807931Y-59320812D01*
X145807469Y-59850317D01*
X145871112Y-60004345D01*
X141443658Y-64431800D01*
X136128400Y-64431800D01*
X135898407Y-64477548D01*
X135703429Y-64607829D01*
X127298689Y-73012569D01*
X127308144Y-72989798D01*
X138513443Y-61784500D01*
X141167200Y-61784500D01*
X141397193Y-61738752D01*
X141592171Y-61608471D01*
X145065932Y-58134710D01*
X145295696Y-58073151D01*
X145386025Y-58410265D01*
X145386025Y-58410265D01*
G37*
X145386025Y-58410265D02*
X145448229Y-58539768D01*
X145562391Y-58643427D01*
X145707888Y-58694504D01*
X145861794Y-58684950D01*
X146266799Y-58576429D01*
X146010991Y-58831791D01*
X145807931Y-59320812D01*
X145807469Y-59850317D01*
X145871112Y-60004345D01*
X141443658Y-64431800D01*
X136128400Y-64431800D01*
X135898407Y-64477548D01*
X135703429Y-64607829D01*
X127298689Y-73012569D01*
X127308144Y-72989798D01*
X138513443Y-61784500D01*
X141167200Y-61784500D01*
X141397193Y-61738752D01*
X141592171Y-61608471D01*
X145065932Y-58134710D01*
X145295696Y-58073151D01*
X145386025Y-58410265D01*
G36*
X150033000Y-59036737D02*
X150033000Y-68537936D01*
X148486400Y-68537936D01*
X148345210Y-68564503D01*
X148215535Y-68647946D01*
X148128541Y-68775266D01*
X148097936Y-68926400D01*
X148097936Y-69937563D01*
X147304650Y-70730850D01*
X147291900Y-70749932D01*
X147291900Y-69391400D01*
X147255286Y-69207329D01*
X147166408Y-69074314D01*
X147151018Y-69051281D01*
X144979118Y-66879382D01*
X144823071Y-66775114D01*
X144639000Y-66738500D01*
X137573100Y-66738500D01*
X137389029Y-66775114D01*
X137232982Y-66879382D01*
X135089743Y-69022621D01*
X135014448Y-68909935D01*
X134610671Y-68640140D01*
X134134383Y-68545400D01*
X134085617Y-68545400D01*
X133609329Y-68640140D01*
X133205552Y-68909935D01*
X132935757Y-69313712D01*
X132841017Y-69790000D01*
X132935757Y-70266288D01*
X133185998Y-70640800D01*
X131415300Y-70640800D01*
X131359179Y-70651963D01*
X136377342Y-65633800D01*
X141692600Y-65633800D01*
X141922593Y-65588052D01*
X142117571Y-65457771D01*
X145843981Y-61731361D01*
X146973900Y-61731361D01*
X147062165Y-61944980D01*
X147074000Y-61956836D01*
X147074000Y-67398120D01*
X147062740Y-67409360D01*
X146974102Y-67622825D01*
X146973900Y-67853961D01*
X147062165Y-68067580D01*
X147225460Y-68231160D01*
X147438925Y-68319798D01*
X147670061Y-68320000D01*
X147883680Y-68231735D01*
X148047260Y-68068440D01*
X148135898Y-67854975D01*
X148136100Y-67623839D01*
X148047835Y-67410220D01*
X148036000Y-67398364D01*
X148036000Y-61957080D01*
X148047260Y-61945840D01*
X148135898Y-61732375D01*
X148136100Y-61501239D01*
X148047835Y-61287620D01*
X147884540Y-61124040D01*
X147671075Y-61035402D01*
X147439939Y-61035200D01*
X147226320Y-61123465D01*
X147062740Y-61286760D01*
X146974102Y-61500225D01*
X146973900Y-61731361D01*
X145843981Y-61731361D01*
X146720912Y-60854431D01*
X146872786Y-60917495D01*
X147402291Y-60917957D01*
X147891666Y-60715751D01*
X148266409Y-60341661D01*
X148469469Y-59852640D01*
X148469931Y-59323135D01*
X148267725Y-58833760D01*
X147893635Y-58459017D01*
X147427441Y-58265436D01*
X147793646Y-58167311D01*
X147923149Y-58105107D01*
X148026808Y-57990945D01*
X148077885Y-57845448D01*
X148068331Y-57691542D01*
X147841588Y-56845324D01*
X150033000Y-59036737D01*
X150033000Y-59036737D01*
G37*
X150033000Y-59036737D02*
X150033000Y-68537936D01*
X148486400Y-68537936D01*
X148345210Y-68564503D01*
X148215535Y-68647946D01*
X148128541Y-68775266D01*
X148097936Y-68926400D01*
X148097936Y-69937563D01*
X147304650Y-70730850D01*
X147291900Y-70749932D01*
X147291900Y-69391400D01*
X147255286Y-69207329D01*
X147166408Y-69074314D01*
X147151018Y-69051281D01*
X144979118Y-66879382D01*
X144823071Y-66775114D01*
X144639000Y-66738500D01*
X137573100Y-66738500D01*
X137389029Y-66775114D01*
X137232982Y-66879382D01*
X135089743Y-69022621D01*
X135014448Y-68909935D01*
X134610671Y-68640140D01*
X134134383Y-68545400D01*
X134085617Y-68545400D01*
X133609329Y-68640140D01*
X133205552Y-68909935D01*
X132935757Y-69313712D01*
X132841017Y-69790000D01*
X132935757Y-70266288D01*
X133185998Y-70640800D01*
X131415300Y-70640800D01*
X131359179Y-70651963D01*
X136377342Y-65633800D01*
X141692600Y-65633800D01*
X141922593Y-65588052D01*
X142117571Y-65457771D01*
X145843981Y-61731361D01*
X146973900Y-61731361D01*
X147062165Y-61944980D01*
X147074000Y-61956836D01*
X147074000Y-67398120D01*
X147062740Y-67409360D01*
X146974102Y-67622825D01*
X146973900Y-67853961D01*
X147062165Y-68067580D01*
X147225460Y-68231160D01*
X147438925Y-68319798D01*
X147670061Y-68320000D01*
X147883680Y-68231735D01*
X148047260Y-68068440D01*
X148135898Y-67854975D01*
X148136100Y-67623839D01*
X148047835Y-67410220D01*
X148036000Y-67398364D01*
X148036000Y-61957080D01*
X148047260Y-61945840D01*
X148135898Y-61732375D01*
X148136100Y-61501239D01*
X148047835Y-61287620D01*
X147884540Y-61124040D01*
X147671075Y-61035402D01*
X147439939Y-61035200D01*
X147226320Y-61123465D01*
X147062740Y-61286760D01*
X146974102Y-61500225D01*
X146973900Y-61731361D01*
X145843981Y-61731361D01*
X146720912Y-60854431D01*
X146872786Y-60917495D01*
X147402291Y-60917957D01*
X147891666Y-60715751D01*
X148266409Y-60341661D01*
X148469469Y-59852640D01*
X148469931Y-59323135D01*
X148267725Y-58833760D01*
X147893635Y-58459017D01*
X147427441Y-58265436D01*
X147793646Y-58167311D01*
X147923149Y-58105107D01*
X148026808Y-57990945D01*
X148077885Y-57845448D01*
X148068331Y-57691542D01*
X147841588Y-56845324D01*
X150033000Y-59036737D01*
M02*
