M48
;DRILL file {KiCad 4.0.1-stable} date 2016/12/28 23:01:05
;FORMAT={-:-/ absolute / metric / decimal}
FMAT,2
METRIC,TZ
T1C0.300
T2C0.600
T3C0.700
T4C0.800
T5C0.930
T6C1.000
%
G90
G05
M71
T1
X119.Y-123.
X119.547Y-120.881
X120.Y-116.
X120.Y-117.
X120.Y-122.
X120.Y-146.
X120.Y-148.
X120.Y-150.
X121.Y-145.
X121.Y-147.
X121.Y-149.
X121.Y-151.
X122.Y-115.
X122.Y-146.
X122.Y-150.
X122.Y-152.
X122.Y-154.
X122.093Y-122.941
X122.277Y-117.922
X122.868Y-118.045
X123.Y-114.
X123.Y-119.
X123.Y-121.
X123.Y-145.
X123.Y-155.
X124.Y-113.
X124.Y-120.
X124.Y-122.
X125.Y-112.
X125.Y-121.
X125.Y-123.
X125.656Y-109.074
X126.Y-111.
X126.Y-114.
X126.Y-116.
X127.Y-110.
X127.Y-113.
X127.Y-115.
X127.Y-117.
X127.Y-124.
X127.Y-155.
X128.Y-107.
X128.Y-112.
X128.Y-114.
X128.Y-119.
X128.Y-121.
X128.Y-123.
X128.Y-125.
X128.5Y-154.785
X129.Y-124.
X129.Y-126.
X129.5Y-148.
X129.5Y-151.332
X129.518Y-116.699
X129.75Y-142.75
X130.Y-104.
X130.Y-119.
X130.Y-121.
X130.Y-125.
X130.Y-127.
X130.3Y-141.729
X130.75Y-142.75
X131.Y-103.
X131.Y-105.
X131.Y-107.
X132.Y-104.
X132.Y-106.
X132.Y-119.
X132.Y-148.
X132.Y-156.
X132.196Y-138.106
X133.Y-103.
X133.Y-105.
X133.Y-107.
X133.Y-122.
X133.Y-124.
X133.Y-126.
X133.Y-128.
X133.Y-130.
X133.Y-132.
X133.Y-136.
X133.Y-141.
X133.Y-151.
X133.Y-155.
X133.Y-157.
X133.268Y-145.8
X133.979Y-144.195
X134.Y-102.
X134.Y-104.
X134.Y-106.
X134.Y-115.
X134.Y-121.
X134.Y-123.
X134.Y-148.
X134.Y-150.
X134.Y-154.
X134.Y-156.
X134.122Y-113.76
X134.257Y-124.54
X134.27Y-118.789
X134.53Y-138.978
X135.Y-105.
X135.Y-107.
X135.Y-116.
X135.Y-117.
X135.Y-142.
X135.Y-144.
X135.332Y-140.647
X135.412Y-112.597
X135.445Y-139.746
X135.463Y-163.724
X135.696Y-151.156
X136.Y-143.
X136.Y-145.
X136.Y-148.
X136.044Y-117.727
X137.Y-127.
X137.Y-133.
X137.Y-144.
X137.Y-154.
X137.296Y-111.522
X137.561Y-159.425
X137.882Y-137.82
X138.Y-106.
X138.Y-126.
X138.Y-128.
X138.Y-130.
X138.Y-135.
X138.Y-145.
X138.Y-155.
X138.562Y-125.086
X138.875Y-113.663
X139.Y-127.
X139.Y-128.
X139.Y-134.
X139.Y-135.
X139.Y-142.
X139.Y-154.
X139.05Y-139.317
X139.151Y-124.995
X139.484Y-124.176
X139.788Y-107.434
X140.Y-129.
X140.Y-133.
X140.Y-134.
X140.Y-135.
X140.Y-143.
X140.405Y-123.247
X140.535Y-115.349
X140.574Y-127.829
X140.755Y-152.678
X140.898Y-118.241
X140.983Y-110.426
X141.Y-107.
X141.Y-142.
X141.Y-144.
X141.Y-154.
X141.04Y-130.579
X141.54Y-115.722
X141.818Y-116.506
X142.Y-106.
X142.Y-107.
X142.Y-143.
X142.Y-145.
X142.Y-155.
X142.077Y-113.078
X142.139Y-136.483
X142.17Y-148.773
X142.542Y-112.585
X142.55Y-151.763
X142.726Y-119.845
X142.864Y-133.1
X143.Y-105.
X143.Y-113.
X143.Y-126.
X143.Y-128.
X143.Y-130.
X143.Y-142.
X143.Y-144.
X143.Y-146.
X143.Y-154.
X143.036Y-152.586
X143.298Y-133.541
X143.67Y-115.069
X144.Y-106.
X144.Y-107.
X144.Y-110.
X144.Y-121.
X144.Y-123.
X144.Y-125.
X144.Y-127.
X144.Y-129.
X144.Y-131.
X144.Y-143.
X144.Y-145.
X144.Y-136.65
X144.152Y-114.516
X144.448Y-116.346
X144.536Y-135.829
X145.Y-107.
X145.Y-110.
X145.Y-128.
X145.Y-130.
X145.Y-142.
X145.Y-144.
X145.266Y-141.025
X145.292Y-120.493
X145.407Y-104.073
X146.Y-110.
X146.Y-119.
X146.Y-122.
X146.Y-123.
X146.Y-125.
X146.Y-133.
X146.Y-143.
X146.Y-150.
X146.05Y-135.079
X146.828Y-113.347
X146.931Y-108.396
X147.Y-110.
X147.Y-119.
X147.Y-120.
X147.Y-133.
X147.Y-135.
X147.Y-142.
X147.Y-146.
X147.Y-148.
X147.051Y-105.541
X147.194Y-120.959
X147.423Y-112.53
X147.686Y-138.304
X147.691Y-129.042
X147.751Y-135.829
X147.758Y-170.554
X148.Y-139.
X148.Y-141.
X148.Y-145.
X148.Y-150.
X148.255Y-129.189
X148.727Y-134.822
X148.766Y-114.543
X148.791Y-133.36
X149.Y-144.
X149.Y-146.
X149.Y-148.
X149.085Y-125.445
X149.24Y-170.243
X149.5Y-106.5
X149.5Y-107.5
X149.549Y-126.396
X149.756Y-108.447
X149.866Y-120.477
X150.Y-117.
X150.Y-118.
X150.Y-119.
X150.Y-122.
X150.Y-143.
X150.Y-145.
X150.246Y-126.368
X150.27Y-168.857
X151.Y-106.5
X151.Y-107.
X151.Y-144.
X151.Y-146.
X151.067Y-132.267
X151.5Y-101.5
X152.Y-117.
X152.Y-118.
X152.Y-120.
X152.Y-122.
X152.Y-127.
X152.Y-128.
X152.Y-141.
X152.Y-143.
X152.Y-145.
X152.Y-148.
X152.Y-150.
X152.Y-154.
X152.5Y-102.
X152.5Y-103.
X152.5Y-107.
X152.982Y-103.804
X153.Y-107.
X153.Y-119.
X153.Y-121.
X153.Y-132.
X153.Y-136.
X153.Y-138.
X153.Y-140.
X153.Y-142.
X153.Y-144.
X153.5Y-102.5
X154.Y-119.
X154.Y-148.
X154.Y-150.
X154.Y-154.
X154.164Y-125.179
X154.354Y-116.773
X154.429Y-120.674
X154.5Y-103.
X154.75Y-125.25
X154.816Y-104.764
X155.Y-107.
X155.Y-147.
X155.Y-151.
X155.106Y-115.8
X155.75Y-125.25
X156.Y-142.
X156.Y-144.
X156.Y-146.
X156.Y-148.
X156.Y-152.
X156.6Y-120.2
X157.Y-110.
X157.Y-111.
X157.Y-112.
X157.Y-143.
X157.Y-145.
X157.Y-147.
X157.589Y-108.561
X158.Y-105.
X158.Y-113.
X158.Y-144.
X158.Y-146.
X158.Y-148.
X158.Y-151.
X158.306Y-109.316
X159.Y-106.
X159.Y-110.
X159.Y-111.
X159.Y-112.
X159.Y-114.
X159.Y-145.
X159.Y-147.
X159.Y-150.
X159.Y-152.
X159.Y-154.
X160.Y-115.
X160.Y-146.
X160.544Y-155.816
X161.Y-151.
X161.Y-153.
X161.Y-155.
X161.25Y-112.75
X162.Y-146.
X162.Y-150.
X162.Y-152.
X162.Y-154.
X162.Y-156.
X162.5Y-112.75
X162.5Y-114.
X163.Y-145.
X163.Y-147.
X163.Y-151.
X163.Y-153.
X163.Y-155.
X163.128Y-148.566
X163.75Y-113.5
X163.75Y-115.25
X164.Y-146.
X165.Y-145.
X165.Y-147.
X165.25Y-114.5
X165.5Y-115.
X165.5Y-150.238
X166.Y-116.
X166.Y-117.
X166.Y-120.
X166.Y-121.
X166.Y-122.
X166.Y-123.
X166.Y-146.
X167.Y-123.
X167.Y-145.
X167.Y-147.
X167.Y-149.
T2
X127.Y-146.6
X135.Y-156.
X136.25Y-156.
X138.5Y-147.
X139.5Y-163.
X139.5Y-164.25
X139.5Y-168.
X139.5Y-169.25
X140.Y-156.
X141.Y-147.
X141.25Y-156.
X144.8Y-155.
X146.5Y-162.75
X146.5Y-164.
X146.5Y-167.75
X146.5Y-169.
X149.2Y-155.
X153.25Y-124.25
X158.9Y-121.4
T3
X144.75Y-153.3
X144.75Y-156.7
X145.85Y-153.3
X145.85Y-156.7
X148.15Y-153.3
X148.15Y-155.
X148.15Y-156.7
X149.25Y-153.3
X149.25Y-156.7
T4
X129.583Y-115.364
X129.861Y-113.788
X130.Y-145.
X130.139Y-112.212
X130.417Y-110.636
X132.703Y-110.07
X132.842Y-111.664
X134.297Y-109.93
X134.436Y-111.524
X147.Y-153.3
X147.Y-155.
X147.Y-156.7
X151.564Y-111.524
X151.703Y-109.93
X153.158Y-111.664
X153.297Y-110.07
X155.583Y-110.636
X155.861Y-112.212
X156.Y-123.
X156.139Y-113.788
X156.417Y-115.364
X157.Y-150.92
X157.Y-153.46
X157.Y-156.
T5
X132.9Y-163.
X132.9Y-165.
X132.9Y-167.
X132.9Y-169.
X153.1Y-163.
X153.1Y-165.
X153.1Y-167.
X153.1Y-169.
T6
X122.96Y-148.23
X122.96Y-150.77
X125.5Y-148.23
X125.5Y-150.77
X128.04Y-148.23
X128.04Y-150.77
X157.96Y-117.23
X157.96Y-119.77
X160.5Y-117.23
X160.5Y-119.77
X163.04Y-117.23
X163.04Y-119.77
T6
X129.75Y-160.15G85X131.25Y-160.15
G05
X129.75Y-171.85G85X131.25Y-171.85
G05
X156.25Y-160.15G85X154.75Y-160.15
G05
X156.25Y-171.85G85X154.75Y-171.85
G05
T0
M30
