G04 #@! TF.FileFunction,Profile,NP*
%FSLAX46Y46*%
G04 Gerber Fmt 4.6, Leading zero omitted, Abs format (unit mm)*
G04 Created by KiCad (PCBNEW 4.0.1-stable) date 2016/12/28 23:00:58*
%MOMM*%
G01*
G04 APERTURE LIST*
%ADD10C,0.100000*%
%ADD11C,0.150000*%
G04 APERTURE END LIST*
D10*
D11*
X128500000Y-173000000D02*
X142500000Y-173000000D01*
X128500000Y-159000000D02*
X128500000Y-173000000D01*
X135000000Y-159000000D02*
X128500000Y-159000000D01*
X157500000Y-159000000D02*
X151000000Y-159000000D01*
X157500000Y-173000000D02*
X157500000Y-159000000D01*
X143500000Y-173000000D02*
X157500000Y-173000000D01*
X142500000Y-159000000D02*
X137000000Y-159000000D01*
X149000000Y-159000000D02*
X143500000Y-159000000D01*
X137000000Y-158000000D02*
X149000000Y-158000000D01*
X128000000Y-158000000D02*
X135000000Y-158000000D01*
X158000000Y-158000000D02*
X151000000Y-158000000D01*
X149000000Y-159000000D02*
G75*
G03X149500000Y-158500000I0J500000D01*
G01*
X149500000Y-158500000D02*
G75*
G03X149000000Y-158000000I-500000J0D01*
G01*
X151000000Y-158000000D02*
G75*
G03X150500000Y-158500000I0J-500000D01*
G01*
X150500000Y-158500000D02*
G75*
G03X151000000Y-159000000I500000J0D01*
G01*
X136500000Y-158500000D02*
G75*
G03X137000000Y-159000000I500000J0D01*
G01*
X137000000Y-158000000D02*
G75*
G03X136500000Y-158500000I0J-500000D01*
G01*
X135000000Y-159000000D02*
G75*
G03X135500000Y-158500000I0J500000D01*
G01*
X135500000Y-158500000D02*
G75*
G03X135000000Y-158000000I-500000J0D01*
G01*
X142500000Y-165000000D02*
G75*
G03X143000000Y-165500000I500000J0D01*
G01*
X143000000Y-165500000D02*
G75*
G03X143500000Y-165000000I0J500000D01*
G01*
X143500000Y-167000000D02*
G75*
G03X143000000Y-166500000I-500000J0D01*
G01*
X143000000Y-166500000D02*
G75*
G03X142500000Y-167000000I0J-500000D01*
G01*
X143500000Y-173000000D02*
X143500000Y-167000000D01*
X142500000Y-167000000D02*
X142500000Y-173000000D01*
X142500000Y-165000000D02*
X142500000Y-159000000D01*
X143500000Y-159000000D02*
X143500000Y-165000000D01*
X118000000Y-148000000D02*
X118000000Y-144000000D01*
X118000000Y-148000000D02*
G75*
G03X128000000Y-158000000I10000000J0D01*
G01*
X168000000Y-148000000D02*
X168000000Y-144000000D01*
X158000000Y-158000000D02*
G75*
G03X168000000Y-148000000I0J10000000D01*
G01*
X168000000Y-124000000D02*
G75*
G03X143000000Y-99000000I-25000000J0D01*
G01*
X143000000Y-99000000D02*
G75*
G03X118000000Y-124000000I0J-25000000D01*
G01*
X154000000Y-152000000D02*
G75*
G03X154000000Y-152000000I-1000000J0D01*
G01*
X154000000Y-134000000D02*
G75*
G03X154000000Y-134000000I-1000000J0D01*
G01*
X134000000Y-116000000D02*
G75*
G03X134000000Y-116000000I-1000000J0D01*
G01*
X134000000Y-134000000D02*
G75*
G03X134000000Y-134000000I-1000000J0D01*
G01*
X118000000Y-144000000D02*
X123000000Y-144000000D01*
X123000000Y-124000000D02*
X118000000Y-124000000D01*
X123000000Y-144000000D02*
G75*
G03X131000000Y-136000000I0J8000000D01*
G01*
X131000000Y-132000000D02*
G75*
G03X123000000Y-124000000I-8000000J0D01*
G01*
X163000000Y-144000000D02*
X168000000Y-144000000D01*
X163000000Y-124000000D02*
X168000000Y-124000000D01*
X155000000Y-136000000D02*
X155000000Y-132000000D01*
X131000000Y-136000000D02*
X131000000Y-132000000D01*
X155000000Y-136000000D02*
G75*
G03X163000000Y-144000000I8000000J0D01*
G01*
X163000000Y-124000000D02*
G75*
G03X155000000Y-132000000I0J-8000000D01*
G01*
M02*
