G04 #@! TF.FileFunction,Legend,Top*
%FSLAX46Y46*%
G04 Gerber Fmt 4.6, Leading zero omitted, Abs format (unit mm)*
G04 Created by KiCad (PCBNEW 4.0.1-stable) date 2016/12/28 23:00:58*
%MOMM*%
G01*
G04 APERTURE LIST*
%ADD10C,0.100000*%
%ADD11C,0.200000*%
%ADD12C,0.150000*%
G04 APERTURE END LIST*
D10*
D11*
X131500000Y-149500000D02*
X151000000Y-149500000D01*
X131500000Y-141500000D02*
X131500000Y-149500000D01*
X151000000Y-141500000D02*
X131500000Y-141500000D01*
X154500000Y-126500000D02*
X135000000Y-126500000D01*
X154500000Y-118500000D02*
X154500000Y-126500000D01*
X135000000Y-118500000D02*
X154500000Y-118500000D01*
X155000000Y-155000000D02*
X155000000Y-131000000D01*
X151000000Y-155000000D02*
X155000000Y-155000000D01*
X151000000Y-131000000D02*
X151000000Y-155000000D01*
X155000000Y-131000000D02*
X151000000Y-131000000D01*
X131000000Y-113000000D02*
X131000000Y-137000000D01*
X135000000Y-113000000D02*
X131000000Y-113000000D01*
X135000000Y-137000000D02*
X135000000Y-113000000D01*
X131000000Y-137000000D02*
X135000000Y-137000000D01*
D12*
X158500000Y-115500000D02*
X158500000Y-115000000D01*
X158500000Y-115000000D02*
X162500000Y-115000000D01*
X162500000Y-115000000D02*
X162500000Y-115500000D01*
X166500000Y-115500000D02*
X166500000Y-121500000D01*
X166500000Y-121500000D02*
X154500000Y-121500000D01*
X154500000Y-121500000D02*
X154500000Y-118500000D01*
X154500000Y-118500000D02*
X154500000Y-115500000D01*
X154500000Y-115500000D02*
X166500000Y-115500000D01*
X156690000Y-115960000D02*
X164310000Y-115960000D01*
X164310000Y-115960000D02*
X164310000Y-121040000D01*
X164310000Y-121040000D02*
X156690000Y-121040000D01*
X156690000Y-121040000D02*
X156690000Y-115960000D01*
X150350000Y-166600000D02*
X149650000Y-166600000D01*
X149650000Y-165400000D02*
X150350000Y-165400000D01*
X145150000Y-159400000D02*
X145850000Y-159400000D01*
X145850000Y-160600000D02*
X145150000Y-160600000D01*
X145850000Y-172600000D02*
X145150000Y-172600000D01*
X145150000Y-171400000D02*
X145850000Y-171400000D01*
X152450000Y-159400000D02*
X152450000Y-161300000D01*
X153550000Y-159400000D02*
X153550000Y-161300000D01*
X153000000Y-160300000D02*
X153000000Y-160750000D01*
X153250000Y-160250000D02*
X152750000Y-160250000D01*
X153000000Y-160250000D02*
X153250000Y-160500000D01*
X153250000Y-160500000D02*
X152750000Y-160500000D01*
X152750000Y-160500000D02*
X153000000Y-160250000D01*
X153550000Y-172600000D02*
X153550000Y-170700000D01*
X152450000Y-172600000D02*
X152450000Y-170700000D01*
X153000000Y-171700000D02*
X153000000Y-171250000D01*
X152750000Y-171750000D02*
X153250000Y-171750000D01*
X153000000Y-171750000D02*
X152750000Y-171500000D01*
X152750000Y-171500000D02*
X153250000Y-171500000D01*
X153250000Y-171500000D02*
X153000000Y-171750000D01*
X144200000Y-165550000D02*
X147800000Y-165550000D01*
X147800000Y-165550000D02*
X147800000Y-161200000D01*
X147800000Y-161200000D02*
X144200000Y-161200000D01*
X144200000Y-161200000D02*
X144200000Y-165550000D01*
X143700000Y-164000000D02*
X143100000Y-164300000D01*
X143100000Y-164300000D02*
X143100000Y-163700000D01*
X143100000Y-163700000D02*
X143700000Y-164000000D01*
X146500000Y-165550000D02*
X146500000Y-165050000D01*
X146500000Y-165050000D02*
X147300000Y-165050000D01*
X147300000Y-165050000D02*
X147300000Y-161700000D01*
X147300000Y-161700000D02*
X146500000Y-161700000D01*
X146500000Y-161700000D02*
X146500000Y-161200000D01*
X145750000Y-165550000D02*
X145750000Y-165050000D01*
X145750000Y-165050000D02*
X144950000Y-165050000D01*
X144950000Y-165050000D02*
X144950000Y-164550000D01*
X144950000Y-164550000D02*
X144200000Y-164550000D01*
X145750000Y-161200000D02*
X145750000Y-161700000D01*
X145750000Y-161700000D02*
X144950000Y-161700000D01*
X144950000Y-161700000D02*
X144950000Y-162200000D01*
X144950000Y-162200000D02*
X144200000Y-162200000D01*
X144950000Y-164550000D02*
X144950000Y-163750000D01*
X144950000Y-163750000D02*
X144450000Y-163750000D01*
X144450000Y-163750000D02*
X144450000Y-163000000D01*
X144450000Y-163000000D02*
X144950000Y-163000000D01*
X144950000Y-163000000D02*
X144950000Y-163750000D01*
X144950000Y-163750000D02*
X144450000Y-163750000D01*
X144450000Y-163750000D02*
X144450000Y-163000000D01*
X144450000Y-163000000D02*
X144950000Y-163000000D01*
X144950000Y-163000000D02*
X144950000Y-162200000D01*
X144200000Y-170550000D02*
X147800000Y-170550000D01*
X147800000Y-170550000D02*
X147800000Y-166200000D01*
X147800000Y-166200000D02*
X144200000Y-166200000D01*
X144200000Y-166200000D02*
X144200000Y-170550000D01*
X143700000Y-169000000D02*
X143100000Y-169300000D01*
X143100000Y-169300000D02*
X143100000Y-168700000D01*
X143100000Y-168700000D02*
X143700000Y-169000000D01*
X146500000Y-170550000D02*
X146500000Y-170050000D01*
X146500000Y-170050000D02*
X147300000Y-170050000D01*
X147300000Y-170050000D02*
X147300000Y-166700000D01*
X147300000Y-166700000D02*
X146500000Y-166700000D01*
X146500000Y-166700000D02*
X146500000Y-166200000D01*
X145750000Y-170550000D02*
X145750000Y-170050000D01*
X145750000Y-170050000D02*
X144950000Y-170050000D01*
X144950000Y-170050000D02*
X144950000Y-169550000D01*
X144950000Y-169550000D02*
X144200000Y-169550000D01*
X145750000Y-166200000D02*
X145750000Y-166700000D01*
X145750000Y-166700000D02*
X144950000Y-166700000D01*
X144950000Y-166700000D02*
X144950000Y-167200000D01*
X144950000Y-167200000D02*
X144200000Y-167200000D01*
X144950000Y-169550000D02*
X144950000Y-168750000D01*
X144950000Y-168750000D02*
X144450000Y-168750000D01*
X144450000Y-168750000D02*
X144450000Y-168000000D01*
X144450000Y-168000000D02*
X144950000Y-168000000D01*
X144950000Y-168000000D02*
X144950000Y-168750000D01*
X144950000Y-168750000D02*
X144450000Y-168750000D01*
X144450000Y-168750000D02*
X144450000Y-168000000D01*
X144450000Y-168000000D02*
X144950000Y-168000000D01*
X144950000Y-168000000D02*
X144950000Y-167200000D01*
X150325000Y-161000000D02*
X150325000Y-160000000D01*
X151675000Y-160000000D02*
X151675000Y-161000000D01*
X151675000Y-171000000D02*
X151675000Y-172000000D01*
X150325000Y-172000000D02*
X150325000Y-171000000D01*
X148000000Y-159325000D02*
X149000000Y-159325000D01*
X149000000Y-160675000D02*
X148000000Y-160675000D01*
X148000000Y-171325000D02*
X149000000Y-171325000D01*
X149000000Y-172675000D02*
X148000000Y-172675000D01*
X149800000Y-161800000D02*
G75*
G03X149800000Y-161800000I-100000J0D01*
G01*
X150250000Y-162050000D02*
X149750000Y-162050000D01*
X150250000Y-164950000D02*
X150250000Y-162050000D01*
X149750000Y-164950000D02*
X150250000Y-164950000D01*
X149750000Y-162050000D02*
X149750000Y-164950000D01*
X149800000Y-166800000D02*
G75*
G03X149800000Y-166800000I-100000J0D01*
G01*
X150250000Y-167050000D02*
X149750000Y-167050000D01*
X150250000Y-169950000D02*
X150250000Y-167050000D01*
X149750000Y-169950000D02*
X150250000Y-169950000D01*
X149750000Y-167050000D02*
X149750000Y-169950000D01*
X135650000Y-165400000D02*
X136350000Y-165400000D01*
X136350000Y-166600000D02*
X135650000Y-166600000D01*
X140850000Y-172600000D02*
X140150000Y-172600000D01*
X140150000Y-171400000D02*
X140850000Y-171400000D01*
X140150000Y-159400000D02*
X140850000Y-159400000D01*
X140850000Y-160600000D02*
X140150000Y-160600000D01*
X133550000Y-172600000D02*
X133550000Y-170700000D01*
X132450000Y-172600000D02*
X132450000Y-170700000D01*
X133000000Y-171700000D02*
X133000000Y-171250000D01*
X132750000Y-171750000D02*
X133250000Y-171750000D01*
X133000000Y-171750000D02*
X132750000Y-171500000D01*
X132750000Y-171500000D02*
X133250000Y-171500000D01*
X133250000Y-171500000D02*
X133000000Y-171750000D01*
X132450000Y-159400000D02*
X132450000Y-161300000D01*
X133550000Y-159400000D02*
X133550000Y-161300000D01*
X133000000Y-160300000D02*
X133000000Y-160750000D01*
X133250000Y-160250000D02*
X132750000Y-160250000D01*
X133000000Y-160250000D02*
X133250000Y-160500000D01*
X133250000Y-160500000D02*
X132750000Y-160500000D01*
X132750000Y-160500000D02*
X133000000Y-160250000D01*
X141800000Y-166450000D02*
X138200000Y-166450000D01*
X138200000Y-166450000D02*
X138200000Y-170800000D01*
X138200000Y-170800000D02*
X141800000Y-170800000D01*
X141800000Y-170800000D02*
X141800000Y-166450000D01*
X142300000Y-168000000D02*
X142900000Y-167700000D01*
X142900000Y-167700000D02*
X142900000Y-168300000D01*
X142900000Y-168300000D02*
X142300000Y-168000000D01*
X139500000Y-166450000D02*
X139500000Y-166950000D01*
X139500000Y-166950000D02*
X138700000Y-166950000D01*
X138700000Y-166950000D02*
X138700000Y-170300000D01*
X138700000Y-170300000D02*
X139500000Y-170300000D01*
X139500000Y-170300000D02*
X139500000Y-170800000D01*
X140250000Y-166450000D02*
X140250000Y-166950000D01*
X140250000Y-166950000D02*
X141050000Y-166950000D01*
X141050000Y-166950000D02*
X141050000Y-167450000D01*
X141050000Y-167450000D02*
X141800000Y-167450000D01*
X140250000Y-170800000D02*
X140250000Y-170300000D01*
X140250000Y-170300000D02*
X141050000Y-170300000D01*
X141050000Y-170300000D02*
X141050000Y-169800000D01*
X141050000Y-169800000D02*
X141800000Y-169800000D01*
X141050000Y-167450000D02*
X141050000Y-168250000D01*
X141050000Y-168250000D02*
X141550000Y-168250000D01*
X141550000Y-168250000D02*
X141550000Y-169000000D01*
X141550000Y-169000000D02*
X141050000Y-169000000D01*
X141050000Y-169000000D02*
X141050000Y-168250000D01*
X141050000Y-168250000D02*
X141550000Y-168250000D01*
X141550000Y-168250000D02*
X141550000Y-169000000D01*
X141550000Y-169000000D02*
X141050000Y-169000000D01*
X141050000Y-169000000D02*
X141050000Y-169800000D01*
X141800000Y-161450000D02*
X138200000Y-161450000D01*
X138200000Y-161450000D02*
X138200000Y-165800000D01*
X138200000Y-165800000D02*
X141800000Y-165800000D01*
X141800000Y-165800000D02*
X141800000Y-161450000D01*
X142300000Y-163000000D02*
X142900000Y-162700000D01*
X142900000Y-162700000D02*
X142900000Y-163300000D01*
X142900000Y-163300000D02*
X142300000Y-163000000D01*
X139500000Y-161450000D02*
X139500000Y-161950000D01*
X139500000Y-161950000D02*
X138700000Y-161950000D01*
X138700000Y-161950000D02*
X138700000Y-165300000D01*
X138700000Y-165300000D02*
X139500000Y-165300000D01*
X139500000Y-165300000D02*
X139500000Y-165800000D01*
X140250000Y-161450000D02*
X140250000Y-161950000D01*
X140250000Y-161950000D02*
X141050000Y-161950000D01*
X141050000Y-161950000D02*
X141050000Y-162450000D01*
X141050000Y-162450000D02*
X141800000Y-162450000D01*
X140250000Y-165800000D02*
X140250000Y-165300000D01*
X140250000Y-165300000D02*
X141050000Y-165300000D01*
X141050000Y-165300000D02*
X141050000Y-164800000D01*
X141050000Y-164800000D02*
X141800000Y-164800000D01*
X141050000Y-162450000D02*
X141050000Y-163250000D01*
X141050000Y-163250000D02*
X141550000Y-163250000D01*
X141550000Y-163250000D02*
X141550000Y-164000000D01*
X141550000Y-164000000D02*
X141050000Y-164000000D01*
X141050000Y-164000000D02*
X141050000Y-163250000D01*
X141050000Y-163250000D02*
X141550000Y-163250000D01*
X141550000Y-163250000D02*
X141550000Y-164000000D01*
X141550000Y-164000000D02*
X141050000Y-164000000D01*
X141050000Y-164000000D02*
X141050000Y-164800000D01*
X135675000Y-171000000D02*
X135675000Y-172000000D01*
X134325000Y-172000000D02*
X134325000Y-171000000D01*
X134325000Y-161000000D02*
X134325000Y-160000000D01*
X135675000Y-160000000D02*
X135675000Y-161000000D01*
X138000000Y-172675000D02*
X137000000Y-172675000D01*
X137000000Y-171325000D02*
X138000000Y-171325000D01*
X138000000Y-160675000D02*
X137000000Y-160675000D01*
X137000000Y-159325000D02*
X138000000Y-159325000D01*
X136400000Y-170200000D02*
G75*
G03X136400000Y-170200000I-100000J0D01*
G01*
X135750000Y-169950000D02*
X136250000Y-169950000D01*
X135750000Y-167050000D02*
X135750000Y-169950000D01*
X136250000Y-167050000D02*
X135750000Y-167050000D01*
X136250000Y-169950000D02*
X136250000Y-167050000D01*
X136400000Y-165200000D02*
G75*
G03X136400000Y-165200000I-100000J0D01*
G01*
X135750000Y-164950000D02*
X136250000Y-164950000D01*
X135750000Y-162050000D02*
X135750000Y-164950000D01*
X136250000Y-162050000D02*
X135750000Y-162050000D01*
X136250000Y-164950000D02*
X136250000Y-162050000D01*
X145375000Y-136325000D02*
X145600000Y-136325000D01*
X145375000Y-131675000D02*
X145600000Y-131675000D01*
X150625000Y-131675000D02*
X150400000Y-131675000D01*
X150625000Y-136325000D02*
X150400000Y-136325000D01*
X145375000Y-136325000D02*
X145375000Y-131675000D01*
X150625000Y-136325000D02*
X150625000Y-131675000D01*
X145600000Y-136325000D02*
X145600000Y-137675000D01*
X125750000Y-157087500D02*
G75*
G03X125750000Y-157087500I-250000J0D01*
G01*
X126100000Y-153537500D02*
X130900000Y-153537500D01*
X125000000Y-155437500D02*
X125000000Y-156437500D01*
X125000000Y-156437500D02*
X125900000Y-156437500D01*
X125500000Y-156437500D02*
X125500000Y-155437500D01*
X125500000Y-155437500D02*
X125500000Y-155437500D01*
X125500000Y-155437500D02*
X125500000Y-156437500D01*
X125500000Y-156437500D02*
X125500000Y-156437500D01*
X125500000Y-155837500D02*
X125500000Y-155837500D01*
X125500000Y-155837500D02*
X125000000Y-155837500D01*
X125000000Y-155837500D02*
X125000000Y-155837500D01*
X125000000Y-155837500D02*
X125500000Y-155837500D01*
X132000000Y-155437500D02*
X132000000Y-156437500D01*
X132000000Y-156437500D02*
X131100000Y-156437500D01*
X131500000Y-156437500D02*
X131500000Y-155437500D01*
X131500000Y-155437500D02*
X131500000Y-155437500D01*
X131500000Y-155437500D02*
X131500000Y-156437500D01*
X131500000Y-156437500D02*
X131500000Y-156437500D01*
X131500000Y-155837500D02*
X131500000Y-155837500D01*
X131500000Y-155837500D02*
X132000000Y-155837500D01*
X132000000Y-155837500D02*
X132000000Y-155837500D01*
X132000000Y-155837500D02*
X131500000Y-155837500D01*
X126100000Y-154437500D02*
X126100000Y-153937500D01*
X126100000Y-153937500D02*
X130900000Y-153937500D01*
X130900000Y-153937500D02*
X130900000Y-154437500D01*
X126100000Y-155037500D02*
X126100000Y-155687500D01*
X126100000Y-155687500D02*
X130900000Y-155687500D01*
X130900000Y-155687500D02*
X130900000Y-155037500D01*
X126500000Y-154437500D02*
X126500000Y-154637500D01*
X127500000Y-154437500D02*
X127500000Y-154637500D01*
X128500000Y-154437500D02*
X128500000Y-154637500D01*
X129500000Y-154437500D02*
X129500000Y-154637500D01*
X130500000Y-154437500D02*
X130500000Y-154637500D01*
X152850000Y-113900000D02*
X153550000Y-113900000D01*
X153550000Y-115100000D02*
X152850000Y-115100000D01*
X157100000Y-105150000D02*
X157100000Y-105850000D01*
X155900000Y-105850000D02*
X155900000Y-105150000D01*
X145500000Y-150400000D02*
X144500000Y-150400000D01*
X144500000Y-152100000D02*
X145500000Y-152100000D01*
X149450000Y-100400000D02*
X149450000Y-102300000D01*
X150550000Y-100400000D02*
X150550000Y-102300000D01*
X150000000Y-101300000D02*
X150000000Y-101750000D01*
X150250000Y-101250000D02*
X149750000Y-101250000D01*
X150000000Y-101250000D02*
X150250000Y-101500000D01*
X150250000Y-101500000D02*
X149750000Y-101500000D01*
X149750000Y-101500000D02*
X150000000Y-101250000D01*
X147450000Y-99900000D02*
X147450000Y-101800000D01*
X148550000Y-99900000D02*
X148550000Y-101800000D01*
X148000000Y-100800000D02*
X148000000Y-101250000D01*
X148250000Y-100750000D02*
X147750000Y-100750000D01*
X148000000Y-100750000D02*
X148250000Y-101000000D01*
X148250000Y-101000000D02*
X147750000Y-101000000D01*
X147750000Y-101000000D02*
X148000000Y-100750000D01*
X145450000Y-99400000D02*
X145450000Y-101300000D01*
X146550000Y-99400000D02*
X146550000Y-101300000D01*
X146000000Y-100300000D02*
X146000000Y-100750000D01*
X146250000Y-100250000D02*
X145750000Y-100250000D01*
X146000000Y-100250000D02*
X146250000Y-100500000D01*
X146250000Y-100500000D02*
X145750000Y-100500000D01*
X145750000Y-100500000D02*
X146000000Y-100250000D01*
X143450000Y-99400000D02*
X143450000Y-101300000D01*
X144550000Y-99400000D02*
X144550000Y-101300000D01*
X144000000Y-100300000D02*
X144000000Y-100750000D01*
X144250000Y-100250000D02*
X143750000Y-100250000D01*
X144000000Y-100250000D02*
X144250000Y-100500000D01*
X144250000Y-100500000D02*
X143750000Y-100500000D01*
X143750000Y-100500000D02*
X144000000Y-100250000D01*
X166650240Y-123299160D02*
X166650240Y-123250900D01*
X165949200Y-120500180D02*
X166650240Y-120500180D01*
X166650240Y-120500180D02*
X166650240Y-120749100D01*
X166650240Y-123299160D02*
X166650240Y-123499820D01*
X166650240Y-123499820D02*
X165949200Y-123499820D01*
X119349760Y-120700840D02*
X119349760Y-120749100D01*
X120050800Y-123499820D02*
X119349760Y-123499820D01*
X119349760Y-123499820D02*
X119349760Y-123250900D01*
X119349760Y-120700840D02*
X119349760Y-120500180D01*
X119349760Y-120500180D02*
X120050800Y-120500180D01*
X127700840Y-119150240D02*
X127749100Y-119150240D01*
X130499820Y-118449200D02*
X130499820Y-119150240D01*
X130499820Y-119150240D02*
X130250900Y-119150240D01*
X127700840Y-119150240D02*
X127500180Y-119150240D01*
X127500180Y-119150240D02*
X127500180Y-118449200D01*
X135425000Y-136075000D02*
X135570000Y-136075000D01*
X135425000Y-131925000D02*
X135570000Y-131925000D01*
X140575000Y-131925000D02*
X140430000Y-131925000D01*
X140575000Y-136075000D02*
X140430000Y-136075000D01*
X135425000Y-136075000D02*
X135425000Y-131925000D01*
X140575000Y-136075000D02*
X140575000Y-131925000D01*
X135570000Y-136075000D02*
X135570000Y-137475000D01*
X152400000Y-157050000D02*
X154300000Y-157050000D01*
X152400000Y-155950000D02*
X154300000Y-155950000D01*
X153300000Y-156500000D02*
X153750000Y-156500000D01*
X153250000Y-156250000D02*
X153250000Y-156750000D01*
X153250000Y-156500000D02*
X153500000Y-156250000D01*
X153500000Y-156250000D02*
X153500000Y-156750000D01*
X153500000Y-156750000D02*
X153250000Y-156500000D01*
X125750000Y-116412500D02*
G75*
G03X125750000Y-116412500I-250000J0D01*
G01*
X124900000Y-119962500D02*
X121100000Y-119962500D01*
X126000000Y-118062500D02*
X126000000Y-117062500D01*
X126000000Y-117062500D02*
X125100000Y-117062500D01*
X125500000Y-117062500D02*
X125500000Y-118062500D01*
X125500000Y-118062500D02*
X125500000Y-118062500D01*
X125500000Y-118062500D02*
X125500000Y-117062500D01*
X125500000Y-117062500D02*
X125500000Y-117062500D01*
X125500000Y-117662500D02*
X125500000Y-117662500D01*
X125500000Y-117662500D02*
X126000000Y-117662500D01*
X126000000Y-117662500D02*
X126000000Y-117662500D01*
X126000000Y-117662500D02*
X125500000Y-117662500D01*
X120000000Y-118062500D02*
X120000000Y-117062500D01*
X120000000Y-117062500D02*
X120900000Y-117062500D01*
X120500000Y-117062500D02*
X120500000Y-118062500D01*
X120500000Y-118062500D02*
X120500000Y-118062500D01*
X120500000Y-118062500D02*
X120500000Y-117062500D01*
X120500000Y-117062500D02*
X120500000Y-117062500D01*
X120500000Y-117662500D02*
X120500000Y-117662500D01*
X120500000Y-117662500D02*
X120000000Y-117662500D01*
X120000000Y-117662500D02*
X120000000Y-117662500D01*
X120000000Y-117662500D02*
X120500000Y-117662500D01*
X124900000Y-119062500D02*
X124900000Y-119562500D01*
X124900000Y-119562500D02*
X121100000Y-119562500D01*
X121100000Y-119562500D02*
X121100000Y-119062500D01*
X124900000Y-118462500D02*
X124900000Y-117812500D01*
X124900000Y-117812500D02*
X121100000Y-117812500D01*
X121100000Y-117812500D02*
X121100000Y-118462500D01*
X124500000Y-119062500D02*
X124500000Y-118862500D01*
X123500000Y-119062500D02*
X123500000Y-118862500D01*
X122500000Y-119062500D02*
X122500000Y-118862500D01*
X121500000Y-119062500D02*
X121500000Y-118862500D01*
X147250000Y-117525000D02*
X146750000Y-117525000D01*
X146750000Y-118475000D02*
X147250000Y-118475000D01*
X153450000Y-112525000D02*
X152950000Y-112525000D01*
X152950000Y-113475000D02*
X153450000Y-113475000D01*
X123750000Y-115475000D02*
X124250000Y-115475000D01*
X124250000Y-114525000D02*
X123750000Y-114525000D01*
X136340901Y-105987348D02*
X135987348Y-106340901D01*
X136659099Y-107012652D02*
X137012652Y-106659099D01*
X138250000Y-118475000D02*
X138750000Y-118475000D01*
X138750000Y-117525000D02*
X138250000Y-117525000D01*
X135975000Y-114750000D02*
X135975000Y-114250000D01*
X135025000Y-114250000D02*
X135025000Y-114750000D01*
X165975000Y-149250000D02*
X165975000Y-148750000D01*
X165025000Y-148750000D02*
X165025000Y-149250000D01*
X160750000Y-122525000D02*
X160250000Y-122525000D01*
X160250000Y-123475000D02*
X160750000Y-123475000D01*
X125250000Y-145475000D02*
X125750000Y-145475000D01*
X125750000Y-144525000D02*
X125250000Y-144525000D01*
X150525000Y-156250000D02*
X150525000Y-156750000D01*
X151475000Y-156750000D02*
X151475000Y-156250000D01*
X141750000Y-151475000D02*
X142250000Y-151475000D01*
X142250000Y-150525000D02*
X141750000Y-150525000D01*
X137000000Y-129025000D02*
X136500000Y-129025000D01*
X136500000Y-129975000D02*
X137000000Y-129975000D01*
X138250000Y-138025000D02*
X137750000Y-138025000D01*
X137750000Y-138975000D02*
X138250000Y-138975000D01*
X146750000Y-139275000D02*
X146250000Y-139275000D01*
X146250000Y-140225000D02*
X146750000Y-140225000D01*
X146250000Y-141475000D02*
X146750000Y-141475000D01*
X146750000Y-140525000D02*
X146250000Y-140525000D01*
X149500000Y-140225000D02*
X150000000Y-140225000D01*
X150000000Y-139275000D02*
X149500000Y-139275000D01*
X150000000Y-140525000D02*
X149500000Y-140525000D01*
X149500000Y-141475000D02*
X150000000Y-141475000D01*
X149250000Y-128725000D02*
X149750000Y-128725000D01*
X149750000Y-127775000D02*
X149250000Y-127775000D01*
X149750000Y-126525000D02*
X149250000Y-126525000D01*
X149250000Y-127475000D02*
X149750000Y-127475000D01*
X146750000Y-127775000D02*
X146250000Y-127775000D01*
X146250000Y-128725000D02*
X146750000Y-128725000D01*
X146250000Y-127475000D02*
X146750000Y-127475000D01*
X146750000Y-126525000D02*
X146250000Y-126525000D01*
X141975000Y-139000000D02*
X141975000Y-138500000D01*
X141025000Y-138500000D02*
X141025000Y-139000000D01*
X144025000Y-138500000D02*
X144025000Y-139000000D01*
X144975000Y-139000000D02*
X144975000Y-138500000D01*
X143475000Y-139000000D02*
X143475000Y-138500000D01*
X142525000Y-138500000D02*
X142525000Y-139000000D01*
X133450000Y-153700000D02*
X133450000Y-157300000D01*
X133450000Y-157300000D02*
X137800000Y-157300000D01*
X137800000Y-157300000D02*
X137800000Y-153700000D01*
X137800000Y-153700000D02*
X133450000Y-153700000D01*
X135000000Y-153200000D02*
X134700000Y-152600000D01*
X134700000Y-152600000D02*
X135300000Y-152600000D01*
X135300000Y-152600000D02*
X135000000Y-153200000D01*
X133450000Y-156000000D02*
X133950000Y-156000000D01*
X133950000Y-156000000D02*
X133950000Y-156800000D01*
X133950000Y-156800000D02*
X137300000Y-156800000D01*
X137300000Y-156800000D02*
X137300000Y-156000000D01*
X137300000Y-156000000D02*
X137800000Y-156000000D01*
X133450000Y-155250000D02*
X133950000Y-155250000D01*
X133950000Y-155250000D02*
X133950000Y-154450000D01*
X133950000Y-154450000D02*
X134450000Y-154450000D01*
X134450000Y-154450000D02*
X134450000Y-153700000D01*
X137800000Y-155250000D02*
X137300000Y-155250000D01*
X137300000Y-155250000D02*
X137300000Y-154450000D01*
X137300000Y-154450000D02*
X136800000Y-154450000D01*
X136800000Y-154450000D02*
X136800000Y-153700000D01*
X134450000Y-154450000D02*
X135250000Y-154450000D01*
X135250000Y-154450000D02*
X135250000Y-153950000D01*
X135250000Y-153950000D02*
X136000000Y-153950000D01*
X136000000Y-153950000D02*
X136000000Y-154450000D01*
X136000000Y-154450000D02*
X135250000Y-154450000D01*
X135250000Y-154450000D02*
X135250000Y-153950000D01*
X135250000Y-153950000D02*
X136000000Y-153950000D01*
X136000000Y-153950000D02*
X136000000Y-154450000D01*
X136000000Y-154450000D02*
X136800000Y-154450000D01*
X138450000Y-153700000D02*
X138450000Y-157300000D01*
X138450000Y-157300000D02*
X142800000Y-157300000D01*
X142800000Y-157300000D02*
X142800000Y-153700000D01*
X142800000Y-153700000D02*
X138450000Y-153700000D01*
X140000000Y-153200000D02*
X139700000Y-152600000D01*
X139700000Y-152600000D02*
X140300000Y-152600000D01*
X140300000Y-152600000D02*
X140000000Y-153200000D01*
X138450000Y-156000000D02*
X138950000Y-156000000D01*
X138950000Y-156000000D02*
X138950000Y-156800000D01*
X138950000Y-156800000D02*
X142300000Y-156800000D01*
X142300000Y-156800000D02*
X142300000Y-156000000D01*
X142300000Y-156000000D02*
X142800000Y-156000000D01*
X138450000Y-155250000D02*
X138950000Y-155250000D01*
X138950000Y-155250000D02*
X138950000Y-154450000D01*
X138950000Y-154450000D02*
X139450000Y-154450000D01*
X139450000Y-154450000D02*
X139450000Y-153700000D01*
X142800000Y-155250000D02*
X142300000Y-155250000D01*
X142300000Y-155250000D02*
X142300000Y-154450000D01*
X142300000Y-154450000D02*
X141800000Y-154450000D01*
X141800000Y-154450000D02*
X141800000Y-153700000D01*
X139450000Y-154450000D02*
X140250000Y-154450000D01*
X140250000Y-154450000D02*
X140250000Y-153950000D01*
X140250000Y-153950000D02*
X141000000Y-153950000D01*
X141000000Y-153950000D02*
X141000000Y-154450000D01*
X141000000Y-154450000D02*
X140250000Y-154450000D01*
X140250000Y-154450000D02*
X140250000Y-153950000D01*
X140250000Y-153950000D02*
X141000000Y-153950000D01*
X141000000Y-153950000D02*
X141000000Y-154450000D01*
X141000000Y-154450000D02*
X141800000Y-154450000D01*
X138150240Y-153299160D02*
X138150240Y-153250900D01*
X137449200Y-150500180D02*
X138150240Y-150500180D01*
X138150240Y-150500180D02*
X138150240Y-150749100D01*
X138150240Y-153299160D02*
X138150240Y-153499820D01*
X138150240Y-153499820D02*
X137449200Y-153499820D01*
X155250000Y-118025000D02*
X155750000Y-118025000D01*
X155750000Y-116975000D02*
X155250000Y-116975000D01*
X160250000Y-157025000D02*
X160750000Y-157025000D01*
X160750000Y-155975000D02*
X160250000Y-155975000D01*
X133975000Y-151750000D02*
X133975000Y-152250000D01*
X135025000Y-152250000D02*
X135025000Y-151750000D01*
X153000000Y-118025000D02*
X153500000Y-118025000D01*
X153500000Y-116975000D02*
X153000000Y-116975000D01*
X141750000Y-153025000D02*
X142250000Y-153025000D01*
X142250000Y-151975000D02*
X141750000Y-151975000D01*
X160100000Y-108875000D02*
X158900000Y-108875000D01*
X158900000Y-107125000D02*
X160100000Y-107125000D01*
X163525000Y-122750000D02*
X163525000Y-122250000D01*
X162475000Y-122250000D02*
X162475000Y-122750000D01*
X146750000Y-137975000D02*
X146250000Y-137975000D01*
X146250000Y-139025000D02*
X146750000Y-139025000D01*
X130025000Y-106250000D02*
X130025000Y-105750000D01*
X128975000Y-105750000D02*
X128975000Y-106250000D01*
X149500000Y-139025000D02*
X150000000Y-139025000D01*
X150000000Y-137975000D02*
X149500000Y-137975000D01*
X128975000Y-108250000D02*
X128975000Y-108750000D01*
X130025000Y-108750000D02*
X130025000Y-108250000D01*
X149250000Y-130025000D02*
X149750000Y-130025000D01*
X149750000Y-128975000D02*
X149250000Y-128975000D01*
X157025000Y-108750000D02*
X157025000Y-108250000D01*
X155975000Y-108250000D02*
X155975000Y-108750000D01*
X146750000Y-128975000D02*
X146250000Y-128975000D01*
X146250000Y-130025000D02*
X146750000Y-130025000D01*
X153000000Y-116525000D02*
X153500000Y-116525000D01*
X153500000Y-115475000D02*
X153000000Y-115475000D01*
X125900000Y-107125000D02*
X127100000Y-107125000D01*
X127100000Y-108875000D02*
X125900000Y-108875000D01*
X122475000Y-122250000D02*
X122475000Y-122750000D01*
X123525000Y-122750000D02*
X123525000Y-122250000D01*
X149750000Y-104025000D02*
X150250000Y-104025000D01*
X150250000Y-102975000D02*
X149750000Y-102975000D01*
X147750000Y-103525000D02*
X148250000Y-103525000D01*
X148250000Y-102475000D02*
X147750000Y-102475000D01*
X145750000Y-103025000D02*
X146250000Y-103025000D01*
X146250000Y-101975000D02*
X145750000Y-101975000D01*
X143750000Y-103025000D02*
X144250000Y-103025000D01*
X144250000Y-101975000D02*
X143750000Y-101975000D01*
X127250000Y-116525000D02*
X127750000Y-116525000D01*
X127750000Y-115475000D02*
X127250000Y-115475000D01*
X144150000Y-152500000D02*
X144150000Y-157500000D01*
X144150000Y-157500000D02*
X149850000Y-157500000D01*
X149850000Y-157500000D02*
X149850000Y-152500000D01*
X149850000Y-152500000D02*
X144150000Y-152500000D01*
X148500000Y-152100000D02*
X149500000Y-152100000D01*
X149500000Y-150400000D02*
X148500000Y-150400000D01*
X165975000Y-152250000D02*
X165975000Y-151750000D01*
X165025000Y-151750000D02*
X165025000Y-152250000D01*
X130000000Y-123600000D02*
X130000000Y-124500000D01*
X130000000Y-124500000D02*
X126000000Y-124500000D01*
X126000000Y-124500000D02*
X126000000Y-123600000D01*
X126000000Y-120500000D02*
X130000000Y-120500000D01*
X130000000Y-120500000D02*
X130000000Y-121400000D01*
X126000000Y-121400000D02*
X126000000Y-120500000D01*
X162000000Y-147900000D02*
X159900000Y-147900000D01*
X159900000Y-147900000D02*
X159900000Y-151100000D01*
X159900000Y-151100000D02*
X164100000Y-151100000D01*
X164100000Y-151100000D02*
X164100000Y-147900000D01*
X164100000Y-147900000D02*
X162000000Y-147900000D01*
X162000000Y-151900000D02*
X159900000Y-151900000D01*
X159900000Y-151900000D02*
X159900000Y-155100000D01*
X159900000Y-155100000D02*
X164100000Y-155100000D01*
X164100000Y-155100000D02*
X164100000Y-151900000D01*
X164100000Y-151900000D02*
X162000000Y-151900000D01*
X155222000Y-153460000D02*
X155222000Y-157778000D01*
X155222000Y-157778000D02*
X158778000Y-157778000D01*
X158778000Y-157778000D02*
X158778000Y-149142000D01*
X158778000Y-149142000D02*
X155222000Y-149142000D01*
X155222000Y-149142000D02*
X155222000Y-153460000D01*
X127500000Y-152500000D02*
X127500000Y-153000000D01*
X127500000Y-153000000D02*
X123500000Y-153000000D01*
X123500000Y-153000000D02*
X123500000Y-152500000D01*
X119500000Y-152500000D02*
X119500000Y-146500000D01*
X119500000Y-146500000D02*
X131500000Y-146500000D01*
X131500000Y-146500000D02*
X131500000Y-149500000D01*
X131500000Y-149500000D02*
X131500000Y-152500000D01*
X131500000Y-152500000D02*
X119500000Y-152500000D01*
X129310000Y-152040000D02*
X121690000Y-152040000D01*
X121690000Y-152040000D02*
X121690000Y-146960000D01*
X121690000Y-146960000D02*
X129310000Y-146960000D01*
X129310000Y-146960000D02*
X129310000Y-152040000D01*
X135681445Y-111000000D02*
X136441585Y-111760140D01*
X143000000Y-103681445D02*
X143760140Y-104441585D01*
X150318555Y-111000000D02*
X149558415Y-110239860D01*
X143000000Y-118318555D02*
X142239860Y-117558415D01*
X135681445Y-111000000D02*
X136441585Y-110239860D01*
X143000000Y-118318555D02*
X143760140Y-117558415D01*
X150318555Y-111000000D02*
X149558415Y-111760140D01*
X143000000Y-103681445D02*
X142239860Y-104441585D01*
X136441585Y-111760140D02*
X135716800Y-112484924D01*
X129073476Y-115375195D02*
X130028541Y-109958753D01*
X130028541Y-109958753D02*
X129536137Y-109871929D01*
X129536137Y-109871929D02*
X128581072Y-115288371D01*
X129449313Y-110364332D02*
X124525274Y-109496092D01*
X128581072Y-115288371D02*
X129073476Y-115375195D01*
X123657033Y-114420130D02*
X128581072Y-115288371D01*
X124525274Y-109496092D02*
G75*
G03X121629134Y-111523990I-434121J-2462019D01*
G01*
X121629134Y-111523991D02*
G75*
G03X123657033Y-114420130I2462019J-434120D01*
G01*
X130965935Y-109719792D02*
X136445006Y-109240435D01*
X136445006Y-109240435D02*
X136401428Y-108742338D01*
X136401428Y-108742338D02*
X130922358Y-109221695D01*
X135903331Y-108785916D02*
X135467552Y-103804942D01*
X130922358Y-109221695D02*
X130965935Y-109719792D01*
X130486579Y-104240721D02*
X130922358Y-109221695D01*
X135467553Y-103804942D02*
G75*
G03X132759176Y-101532345I-2490487J-217890D01*
G01*
X132759177Y-101532345D02*
G75*
G03X130486579Y-104240721I217889J-2490487D01*
G01*
X130965935Y-109719792D02*
X136445006Y-109240435D01*
X136445006Y-109240435D02*
X136401428Y-108742338D01*
X136401428Y-108742338D02*
X130922358Y-109221695D01*
X135903331Y-108785916D02*
X135467552Y-103804942D01*
X130922358Y-109221695D02*
X130965935Y-109719792D01*
X130486579Y-104240721D02*
X130922358Y-109221695D01*
X135467553Y-103804942D02*
G75*
G03X132759176Y-101532345I-2490487J-217890D01*
G01*
X132759177Y-101532345D02*
G75*
G03X130486579Y-104240721I217889J-2490487D01*
G01*
X150053091Y-109284013D02*
X155532162Y-109763370D01*
X155532162Y-109763370D02*
X155575740Y-109265273D01*
X155575740Y-109265273D02*
X150096669Y-108785916D01*
X155077642Y-109221695D02*
X155513421Y-104240721D01*
X150096669Y-108785916D02*
X150053091Y-109284013D01*
X150532448Y-103804942D02*
X150096669Y-108785916D01*
X155513421Y-104240722D02*
G75*
G03X153240824Y-101532345I-2490487J217890D01*
G01*
X153240824Y-101532346D02*
G75*
G03X150532448Y-103804942I-217890J-2490486D01*
G01*
X150053091Y-109284013D02*
X155532162Y-109763370D01*
X155532162Y-109763370D02*
X155575740Y-109265273D01*
X155575740Y-109265273D02*
X150096669Y-108785916D01*
X155077642Y-109221695D02*
X155513421Y-104240721D01*
X150096669Y-108785916D02*
X150053091Y-109284013D01*
X150532448Y-103804942D02*
X150096669Y-108785916D01*
X155513421Y-104240722D02*
G75*
G03X153240824Y-101532345I-2490487J217890D01*
G01*
X153240824Y-101532346D02*
G75*
G03X150532448Y-103804942I-217890J-2490486D01*
G01*
X156058283Y-110451157D02*
X157013348Y-115867599D01*
X157013348Y-115867599D02*
X157505752Y-115780775D01*
X157505752Y-115780775D02*
X156550687Y-110364332D01*
X157418928Y-115288371D02*
X162342967Y-114420130D01*
X156550687Y-110364332D02*
X156058283Y-110451157D01*
X161474726Y-109496092D02*
X156550687Y-110364332D01*
X162342968Y-114420130D02*
G75*
G03X164370866Y-111523990I-434121J2462019D01*
G01*
X164370866Y-111523990D02*
G75*
G03X161474726Y-109496092I-2462019J-434121D01*
G01*
X141450000Y-99400000D02*
X141450000Y-101300000D01*
X142550000Y-99400000D02*
X142550000Y-101300000D01*
X142000000Y-100300000D02*
X142000000Y-100750000D01*
X142250000Y-100250000D02*
X141750000Y-100250000D01*
X142000000Y-100250000D02*
X142250000Y-100500000D01*
X142250000Y-100500000D02*
X141750000Y-100500000D01*
X141750000Y-100500000D02*
X142000000Y-100250000D01*
X139450000Y-99400000D02*
X139450000Y-101300000D01*
X140550000Y-99400000D02*
X140550000Y-101300000D01*
X140000000Y-100300000D02*
X140000000Y-100750000D01*
X140250000Y-100250000D02*
X139750000Y-100250000D01*
X140000000Y-100250000D02*
X140250000Y-100500000D01*
X140250000Y-100500000D02*
X139750000Y-100500000D01*
X139750000Y-100500000D02*
X140000000Y-100250000D01*
X142250000Y-101975000D02*
X141750000Y-101975000D01*
X141750000Y-103025000D02*
X142250000Y-103025000D01*
X140250000Y-101975000D02*
X139750000Y-101975000D01*
X139750000Y-103025000D02*
X140250000Y-103025000D01*
X129073476Y-115375195D02*
X130028541Y-109958753D01*
X130028541Y-109958753D02*
X129536137Y-109871929D01*
X129536137Y-109871929D02*
X128581072Y-115288371D01*
X129449313Y-110364332D02*
X124525274Y-109496092D01*
X128581072Y-115288371D02*
X129073476Y-115375195D01*
X123657033Y-114420130D02*
X128581072Y-115288371D01*
X124525274Y-109496092D02*
G75*
G03X121629134Y-111523990I-434121J-2462019D01*
G01*
X121629134Y-111523991D02*
G75*
G03X123657033Y-114420130I2462019J-434120D01*
G01*
X156058283Y-110451157D02*
X157013348Y-115867599D01*
X157013348Y-115867599D02*
X157505752Y-115780775D01*
X157505752Y-115780775D02*
X156550687Y-110364332D01*
X157418928Y-115288371D02*
X162342967Y-114420130D01*
X156550687Y-110364332D02*
X156058283Y-110451157D01*
X161474726Y-109496092D02*
X156550687Y-110364332D01*
X162342968Y-114420130D02*
G75*
G03X164370866Y-111523990I-434121J2462019D01*
G01*
X164370866Y-111523990D02*
G75*
G03X161474726Y-109496092I-2462019J-434121D01*
G01*
X137450000Y-99900000D02*
X137450000Y-101800000D01*
X138550000Y-99900000D02*
X138550000Y-101800000D01*
X138000000Y-100800000D02*
X138000000Y-101250000D01*
X138250000Y-100750000D02*
X137750000Y-100750000D01*
X138000000Y-100750000D02*
X138250000Y-101000000D01*
X138250000Y-101000000D02*
X137750000Y-101000000D01*
X137750000Y-101000000D02*
X138000000Y-100750000D01*
X135450000Y-100400000D02*
X135450000Y-102300000D01*
X136550000Y-100400000D02*
X136550000Y-102300000D01*
X136000000Y-101300000D02*
X136000000Y-101750000D01*
X136250000Y-101250000D02*
X135750000Y-101250000D01*
X136000000Y-101250000D02*
X136250000Y-101500000D01*
X136250000Y-101500000D02*
X135750000Y-101500000D01*
X135750000Y-101500000D02*
X136000000Y-101250000D01*
X138250000Y-102475000D02*
X137750000Y-102475000D01*
X137750000Y-103525000D02*
X138250000Y-103525000D01*
X136250000Y-102975000D02*
X135750000Y-102975000D01*
X135750000Y-104025000D02*
X136250000Y-104025000D01*
X136750000Y-139475000D02*
X136250000Y-139475000D01*
X136250000Y-140525000D02*
X136750000Y-140525000D01*
X139750000Y-139475000D02*
X139250000Y-139475000D01*
X139250000Y-140525000D02*
X139750000Y-140525000D01*
X158200000Y-122050000D02*
G75*
G03X158200000Y-122050000I-200000J0D01*
G01*
X157500000Y-124000000D02*
X157500000Y-122000000D01*
X157500000Y-122000000D02*
X154500000Y-122000000D01*
X154500000Y-122000000D02*
X154500000Y-124000000D01*
X154500000Y-124000000D02*
X157500000Y-124000000D01*
X128200000Y-145950000D02*
G75*
G03X128200000Y-145950000I-200000J0D01*
G01*
X128500000Y-144000000D02*
X128500000Y-146000000D01*
X128500000Y-146000000D02*
X131500000Y-146000000D01*
X131500000Y-146000000D02*
X131500000Y-144000000D01*
X131500000Y-144000000D02*
X128500000Y-144000000D01*
X144200000Y-132500000D02*
X144800000Y-132500000D01*
X144500000Y-132800000D02*
X144500000Y-132200000D01*
X144500000Y-135200000D02*
X144500000Y-135800000D01*
X144200000Y-135500000D02*
X144800000Y-135500000D01*
X141800000Y-135500000D02*
X141200000Y-135500000D01*
X141500000Y-135200000D02*
X141500000Y-135800000D01*
X141500000Y-132500000D02*
X141200000Y-132500000D01*
X141500000Y-132500000D02*
X141500000Y-132200000D01*
X140850000Y-132500000D02*
G75*
G03X140850000Y-132500000I-100000J0D01*
G01*
X141800000Y-132500000D02*
X141500000Y-132500000D01*
X141500000Y-132500000D02*
X141500000Y-132800000D01*
X164261905Y-114952381D02*
X164261905Y-113952381D01*
X164642858Y-113952381D01*
X164738096Y-114000000D01*
X164785715Y-114047619D01*
X164833334Y-114142857D01*
X164833334Y-114285714D01*
X164785715Y-114380952D01*
X164738096Y-114428571D01*
X164642858Y-114476190D01*
X164261905Y-114476190D01*
X165785715Y-114952381D02*
X165214286Y-114952381D01*
X165500000Y-114952381D02*
X165500000Y-113952381D01*
X165404762Y-114095238D01*
X165309524Y-114190476D01*
X165214286Y-114238095D01*
X156952381Y-166714286D02*
X155952381Y-166714286D01*
X155952381Y-166333333D01*
X156000000Y-166238095D01*
X156047619Y-166190476D01*
X156142857Y-166142857D01*
X156285714Y-166142857D01*
X156380952Y-166190476D01*
X156428571Y-166238095D01*
X156476190Y-166333333D01*
X156476190Y-166714286D01*
X156952381Y-165190476D02*
X156952381Y-165761905D01*
X156952381Y-165476191D02*
X155952381Y-165476191D01*
X156095238Y-165571429D01*
X156190476Y-165666667D01*
X156238095Y-165761905D01*
X155952381Y-164571429D02*
X155952381Y-164476190D01*
X156000000Y-164380952D01*
X156047619Y-164333333D01*
X156142857Y-164285714D01*
X156333333Y-164238095D01*
X156571429Y-164238095D01*
X156761905Y-164285714D01*
X156857143Y-164333333D01*
X156904762Y-164380952D01*
X156952381Y-164476190D01*
X156952381Y-164571429D01*
X156904762Y-164666667D01*
X156857143Y-164714286D01*
X156761905Y-164761905D01*
X156571429Y-164809524D01*
X156333333Y-164809524D01*
X156142857Y-164761905D01*
X156047619Y-164714286D01*
X156000000Y-164666667D01*
X155952381Y-164571429D01*
X154857143Y-166642857D02*
X154904762Y-166690476D01*
X154952381Y-166833333D01*
X154952381Y-166928571D01*
X154904762Y-167071429D01*
X154809524Y-167166667D01*
X154714286Y-167214286D01*
X154523810Y-167261905D01*
X154380952Y-167261905D01*
X154190476Y-167214286D01*
X154095238Y-167166667D01*
X154000000Y-167071429D01*
X153952381Y-166928571D01*
X153952381Y-166833333D01*
X154000000Y-166690476D01*
X154047619Y-166642857D01*
X153952381Y-166309524D02*
X153952381Y-165690476D01*
X154333333Y-166023810D01*
X154333333Y-165880952D01*
X154380952Y-165785714D01*
X154428571Y-165738095D01*
X154523810Y-165690476D01*
X154761905Y-165690476D01*
X154857143Y-165738095D01*
X154904762Y-165785714D01*
X154952381Y-165880952D01*
X154952381Y-166166667D01*
X154904762Y-166261905D01*
X154857143Y-166309524D01*
X153952381Y-165357143D02*
X153952381Y-164738095D01*
X154333333Y-165071429D01*
X154333333Y-164928571D01*
X154380952Y-164833333D01*
X154428571Y-164785714D01*
X154523810Y-164738095D01*
X154761905Y-164738095D01*
X154857143Y-164785714D01*
X154904762Y-164833333D01*
X154952381Y-164928571D01*
X154952381Y-165214286D01*
X154904762Y-165309524D01*
X154857143Y-165357143D01*
X144857143Y-161357143D02*
X144809524Y-161404762D01*
X144666667Y-161452381D01*
X144571429Y-161452381D01*
X144428571Y-161404762D01*
X144333333Y-161309524D01*
X144285714Y-161214286D01*
X144238095Y-161023810D01*
X144238095Y-160880952D01*
X144285714Y-160690476D01*
X144333333Y-160595238D01*
X144428571Y-160500000D01*
X144571429Y-160452381D01*
X144666667Y-160452381D01*
X144809524Y-160500000D01*
X144857143Y-160547619D01*
X145190476Y-160452381D02*
X145809524Y-160452381D01*
X145476190Y-160833333D01*
X145619048Y-160833333D01*
X145714286Y-160880952D01*
X145761905Y-160928571D01*
X145809524Y-161023810D01*
X145809524Y-161261905D01*
X145761905Y-161357143D01*
X145714286Y-161404762D01*
X145619048Y-161452381D01*
X145333333Y-161452381D01*
X145238095Y-161404762D01*
X145190476Y-161357143D01*
X146666667Y-160785714D02*
X146666667Y-161452381D01*
X146428571Y-160404762D02*
X146190476Y-161119048D01*
X146809524Y-161119048D01*
X144857143Y-171107143D02*
X144809524Y-171154762D01*
X144666667Y-171202381D01*
X144571429Y-171202381D01*
X144428571Y-171154762D01*
X144333333Y-171059524D01*
X144285714Y-170964286D01*
X144238095Y-170773810D01*
X144238095Y-170630952D01*
X144285714Y-170440476D01*
X144333333Y-170345238D01*
X144428571Y-170250000D01*
X144571429Y-170202381D01*
X144666667Y-170202381D01*
X144809524Y-170250000D01*
X144857143Y-170297619D01*
X145190476Y-170202381D02*
X145809524Y-170202381D01*
X145476190Y-170583333D01*
X145619048Y-170583333D01*
X145714286Y-170630952D01*
X145761905Y-170678571D01*
X145809524Y-170773810D01*
X145809524Y-171011905D01*
X145761905Y-171107143D01*
X145714286Y-171154762D01*
X145619048Y-171202381D01*
X145333333Y-171202381D01*
X145238095Y-171154762D01*
X145190476Y-171107143D01*
X146714286Y-170202381D02*
X146238095Y-170202381D01*
X146190476Y-170678571D01*
X146238095Y-170630952D01*
X146333333Y-170583333D01*
X146571429Y-170583333D01*
X146666667Y-170630952D01*
X146714286Y-170678571D01*
X146761905Y-170773810D01*
X146761905Y-171011905D01*
X146714286Y-171107143D01*
X146666667Y-171154762D01*
X146571429Y-171202381D01*
X146333333Y-171202381D01*
X146238095Y-171154762D01*
X146190476Y-171107143D01*
X156952381Y-163714286D02*
X155952381Y-163714286D01*
X155952381Y-163476191D01*
X156000000Y-163333333D01*
X156095238Y-163238095D01*
X156190476Y-163190476D01*
X156380952Y-163142857D01*
X156523810Y-163142857D01*
X156714286Y-163190476D01*
X156809524Y-163238095D01*
X156904762Y-163333333D01*
X156952381Y-163476191D01*
X156952381Y-163714286D01*
X156047619Y-162761905D02*
X156000000Y-162714286D01*
X155952381Y-162619048D01*
X155952381Y-162380952D01*
X156000000Y-162285714D01*
X156047619Y-162238095D01*
X156142857Y-162190476D01*
X156238095Y-162190476D01*
X156380952Y-162238095D01*
X156952381Y-162809524D01*
X156952381Y-162190476D01*
X155952381Y-161571429D02*
X155952381Y-161476190D01*
X156000000Y-161380952D01*
X156047619Y-161333333D01*
X156142857Y-161285714D01*
X156333333Y-161238095D01*
X156571429Y-161238095D01*
X156761905Y-161285714D01*
X156857143Y-161333333D01*
X156904762Y-161380952D01*
X156952381Y-161476190D01*
X156952381Y-161571429D01*
X156904762Y-161666667D01*
X156857143Y-161714286D01*
X156761905Y-161761905D01*
X156571429Y-161809524D01*
X156333333Y-161809524D01*
X156142857Y-161761905D01*
X156047619Y-161714286D01*
X156000000Y-161666667D01*
X155952381Y-161571429D01*
X156952381Y-170714286D02*
X155952381Y-170714286D01*
X155952381Y-170476191D01*
X156000000Y-170333333D01*
X156095238Y-170238095D01*
X156190476Y-170190476D01*
X156380952Y-170142857D01*
X156523810Y-170142857D01*
X156714286Y-170190476D01*
X156809524Y-170238095D01*
X156904762Y-170333333D01*
X156952381Y-170476191D01*
X156952381Y-170714286D01*
X156047619Y-169761905D02*
X156000000Y-169714286D01*
X155952381Y-169619048D01*
X155952381Y-169380952D01*
X156000000Y-169285714D01*
X156047619Y-169238095D01*
X156142857Y-169190476D01*
X156238095Y-169190476D01*
X156380952Y-169238095D01*
X156952381Y-169809524D01*
X156952381Y-169190476D01*
X156952381Y-168238095D02*
X156952381Y-168809524D01*
X156952381Y-168523810D02*
X155952381Y-168523810D01*
X156095238Y-168619048D01*
X156190476Y-168714286D01*
X156238095Y-168809524D01*
X145452381Y-164714286D02*
X144452381Y-164714286D01*
X144452381Y-164333333D01*
X144500000Y-164238095D01*
X144547619Y-164190476D01*
X144642857Y-164142857D01*
X144785714Y-164142857D01*
X144880952Y-164190476D01*
X144928571Y-164238095D01*
X144976190Y-164333333D01*
X144976190Y-164714286D01*
X145452381Y-163190476D02*
X145452381Y-163761905D01*
X145452381Y-163476191D02*
X144452381Y-163476191D01*
X144595238Y-163571429D01*
X144690476Y-163666667D01*
X144738095Y-163761905D01*
X145452381Y-162238095D02*
X145452381Y-162809524D01*
X145452381Y-162523810D02*
X144452381Y-162523810D01*
X144595238Y-162619048D01*
X144690476Y-162714286D01*
X144738095Y-162809524D01*
X145702381Y-169714286D02*
X144702381Y-169714286D01*
X144702381Y-169333333D01*
X144750000Y-169238095D01*
X144797619Y-169190476D01*
X144892857Y-169142857D01*
X145035714Y-169142857D01*
X145130952Y-169190476D01*
X145178571Y-169238095D01*
X145226190Y-169333333D01*
X145226190Y-169714286D01*
X145702381Y-168190476D02*
X145702381Y-168761905D01*
X145702381Y-168476191D02*
X144702381Y-168476191D01*
X144845238Y-168571429D01*
X144940476Y-168666667D01*
X144988095Y-168761905D01*
X144797619Y-167809524D02*
X144750000Y-167761905D01*
X144702381Y-167666667D01*
X144702381Y-167428571D01*
X144750000Y-167333333D01*
X144797619Y-167285714D01*
X144892857Y-167238095D01*
X144988095Y-167238095D01*
X145130952Y-167285714D01*
X145702381Y-167857143D01*
X145702381Y-167238095D01*
X154952381Y-163142857D02*
X154476190Y-163476191D01*
X154952381Y-163714286D02*
X153952381Y-163714286D01*
X153952381Y-163333333D01*
X154000000Y-163238095D01*
X154047619Y-163190476D01*
X154142857Y-163142857D01*
X154285714Y-163142857D01*
X154380952Y-163190476D01*
X154428571Y-163238095D01*
X154476190Y-163333333D01*
X154476190Y-163714286D01*
X153952381Y-162809524D02*
X153952381Y-162190476D01*
X154333333Y-162523810D01*
X154333333Y-162380952D01*
X154380952Y-162285714D01*
X154428571Y-162238095D01*
X154523810Y-162190476D01*
X154761905Y-162190476D01*
X154857143Y-162238095D01*
X154904762Y-162285714D01*
X154952381Y-162380952D01*
X154952381Y-162666667D01*
X154904762Y-162761905D01*
X154857143Y-162809524D01*
X153952381Y-161857143D02*
X153952381Y-161238095D01*
X154333333Y-161571429D01*
X154333333Y-161428571D01*
X154380952Y-161333333D01*
X154428571Y-161285714D01*
X154523810Y-161238095D01*
X154761905Y-161238095D01*
X154857143Y-161285714D01*
X154904762Y-161333333D01*
X154952381Y-161428571D01*
X154952381Y-161714286D01*
X154904762Y-161809524D01*
X154857143Y-161857143D01*
X154952381Y-170142857D02*
X154476190Y-170476191D01*
X154952381Y-170714286D02*
X153952381Y-170714286D01*
X153952381Y-170333333D01*
X154000000Y-170238095D01*
X154047619Y-170190476D01*
X154142857Y-170142857D01*
X154285714Y-170142857D01*
X154380952Y-170190476D01*
X154428571Y-170238095D01*
X154476190Y-170333333D01*
X154476190Y-170714286D01*
X153952381Y-169809524D02*
X153952381Y-169190476D01*
X154333333Y-169523810D01*
X154333333Y-169380952D01*
X154380952Y-169285714D01*
X154428571Y-169238095D01*
X154523810Y-169190476D01*
X154761905Y-169190476D01*
X154857143Y-169238095D01*
X154904762Y-169285714D01*
X154952381Y-169380952D01*
X154952381Y-169666667D01*
X154904762Y-169761905D01*
X154857143Y-169809524D01*
X154285714Y-168333333D02*
X154952381Y-168333333D01*
X153904762Y-168571429D02*
X154619048Y-168809524D01*
X154619048Y-168190476D01*
X148357143Y-161952381D02*
X148023809Y-161476190D01*
X147785714Y-161952381D02*
X147785714Y-160952381D01*
X148166667Y-160952381D01*
X148261905Y-161000000D01*
X148309524Y-161047619D01*
X148357143Y-161142857D01*
X148357143Y-161285714D01*
X148309524Y-161380952D01*
X148261905Y-161428571D01*
X148166667Y-161476190D01*
X147785714Y-161476190D01*
X148690476Y-160952381D02*
X149309524Y-160952381D01*
X148976190Y-161333333D01*
X149119048Y-161333333D01*
X149214286Y-161380952D01*
X149261905Y-161428571D01*
X149309524Y-161523810D01*
X149309524Y-161761905D01*
X149261905Y-161857143D01*
X149214286Y-161904762D01*
X149119048Y-161952381D01*
X148833333Y-161952381D01*
X148738095Y-161904762D01*
X148690476Y-161857143D01*
X150214286Y-160952381D02*
X149738095Y-160952381D01*
X149690476Y-161428571D01*
X149738095Y-161380952D01*
X149833333Y-161333333D01*
X150071429Y-161333333D01*
X150166667Y-161380952D01*
X150214286Y-161428571D01*
X150261905Y-161523810D01*
X150261905Y-161761905D01*
X150214286Y-161857143D01*
X150166667Y-161904762D01*
X150071429Y-161952381D01*
X149833333Y-161952381D01*
X149738095Y-161904762D01*
X149690476Y-161857143D01*
X148357143Y-171202381D02*
X148023809Y-170726190D01*
X147785714Y-171202381D02*
X147785714Y-170202381D01*
X148166667Y-170202381D01*
X148261905Y-170250000D01*
X148309524Y-170297619D01*
X148357143Y-170392857D01*
X148357143Y-170535714D01*
X148309524Y-170630952D01*
X148261905Y-170678571D01*
X148166667Y-170726190D01*
X147785714Y-170726190D01*
X148690476Y-170202381D02*
X149309524Y-170202381D01*
X148976190Y-170583333D01*
X149119048Y-170583333D01*
X149214286Y-170630952D01*
X149261905Y-170678571D01*
X149309524Y-170773810D01*
X149309524Y-171011905D01*
X149261905Y-171107143D01*
X149214286Y-171154762D01*
X149119048Y-171202381D01*
X148833333Y-171202381D01*
X148738095Y-171154762D01*
X148690476Y-171107143D01*
X150166667Y-170202381D02*
X149976190Y-170202381D01*
X149880952Y-170250000D01*
X149833333Y-170297619D01*
X149738095Y-170440476D01*
X149690476Y-170630952D01*
X149690476Y-171011905D01*
X149738095Y-171107143D01*
X149785714Y-171154762D01*
X149880952Y-171202381D01*
X150071429Y-171202381D01*
X150166667Y-171154762D01*
X150214286Y-171107143D01*
X150261905Y-171011905D01*
X150261905Y-170773810D01*
X150214286Y-170678571D01*
X150166667Y-170630952D01*
X150071429Y-170583333D01*
X149880952Y-170583333D01*
X149785714Y-170630952D01*
X149738095Y-170678571D01*
X149690476Y-170773810D01*
X151702381Y-164738095D02*
X152511905Y-164738095D01*
X152607143Y-164690476D01*
X152654762Y-164642857D01*
X152702381Y-164547619D01*
X152702381Y-164357142D01*
X152654762Y-164261904D01*
X152607143Y-164214285D01*
X152511905Y-164166666D01*
X151702381Y-164166666D01*
X152702381Y-163166666D02*
X152702381Y-163738095D01*
X152702381Y-163452381D02*
X151702381Y-163452381D01*
X151845238Y-163547619D01*
X151940476Y-163642857D01*
X151988095Y-163738095D01*
X151702381Y-162547619D02*
X151702381Y-162452380D01*
X151750000Y-162357142D01*
X151797619Y-162309523D01*
X151892857Y-162261904D01*
X152083333Y-162214285D01*
X152321429Y-162214285D01*
X152511905Y-162261904D01*
X152607143Y-162309523D01*
X152654762Y-162357142D01*
X152702381Y-162452380D01*
X152702381Y-162547619D01*
X152654762Y-162642857D01*
X152607143Y-162690476D01*
X152511905Y-162738095D01*
X152321429Y-162785714D01*
X152083333Y-162785714D01*
X151892857Y-162738095D01*
X151797619Y-162690476D01*
X151750000Y-162642857D01*
X151702381Y-162547619D01*
X151702381Y-169738095D02*
X152511905Y-169738095D01*
X152607143Y-169690476D01*
X152654762Y-169642857D01*
X152702381Y-169547619D01*
X152702381Y-169357142D01*
X152654762Y-169261904D01*
X152607143Y-169214285D01*
X152511905Y-169166666D01*
X151702381Y-169166666D01*
X152702381Y-168166666D02*
X152702381Y-168738095D01*
X152702381Y-168452381D02*
X151702381Y-168452381D01*
X151845238Y-168547619D01*
X151940476Y-168642857D01*
X151988095Y-168738095D01*
X152702381Y-167214285D02*
X152702381Y-167785714D01*
X152702381Y-167500000D02*
X151702381Y-167500000D01*
X151845238Y-167595238D01*
X151940476Y-167690476D01*
X151988095Y-167785714D01*
X131857143Y-166642857D02*
X131904762Y-166690476D01*
X131952381Y-166833333D01*
X131952381Y-166928571D01*
X131904762Y-167071429D01*
X131809524Y-167166667D01*
X131714286Y-167214286D01*
X131523810Y-167261905D01*
X131380952Y-167261905D01*
X131190476Y-167214286D01*
X131095238Y-167166667D01*
X131000000Y-167071429D01*
X130952381Y-166928571D01*
X130952381Y-166833333D01*
X131000000Y-166690476D01*
X131047619Y-166642857D01*
X130952381Y-166309524D02*
X130952381Y-165690476D01*
X131333333Y-166023810D01*
X131333333Y-165880952D01*
X131380952Y-165785714D01*
X131428571Y-165738095D01*
X131523810Y-165690476D01*
X131761905Y-165690476D01*
X131857143Y-165738095D01*
X131904762Y-165785714D01*
X131952381Y-165880952D01*
X131952381Y-166166667D01*
X131904762Y-166261905D01*
X131857143Y-166309524D01*
X130952381Y-165071429D02*
X130952381Y-164976190D01*
X131000000Y-164880952D01*
X131047619Y-164833333D01*
X131142857Y-164785714D01*
X131333333Y-164738095D01*
X131571429Y-164738095D01*
X131761905Y-164785714D01*
X131857143Y-164833333D01*
X131904762Y-164880952D01*
X131952381Y-164976190D01*
X131952381Y-165071429D01*
X131904762Y-165166667D01*
X131857143Y-165214286D01*
X131761905Y-165261905D01*
X131571429Y-165309524D01*
X131333333Y-165309524D01*
X131142857Y-165261905D01*
X131047619Y-165214286D01*
X131000000Y-165166667D01*
X130952381Y-165071429D01*
X139857143Y-171357143D02*
X139809524Y-171404762D01*
X139666667Y-171452381D01*
X139571429Y-171452381D01*
X139428571Y-171404762D01*
X139333333Y-171309524D01*
X139285714Y-171214286D01*
X139238095Y-171023810D01*
X139238095Y-170880952D01*
X139285714Y-170690476D01*
X139333333Y-170595238D01*
X139428571Y-170500000D01*
X139571429Y-170452381D01*
X139666667Y-170452381D01*
X139809524Y-170500000D01*
X139857143Y-170547619D01*
X140190476Y-170452381D02*
X140809524Y-170452381D01*
X140476190Y-170833333D01*
X140619048Y-170833333D01*
X140714286Y-170880952D01*
X140761905Y-170928571D01*
X140809524Y-171023810D01*
X140809524Y-171261905D01*
X140761905Y-171357143D01*
X140714286Y-171404762D01*
X140619048Y-171452381D01*
X140333333Y-171452381D01*
X140238095Y-171404762D01*
X140190476Y-171357143D01*
X141761905Y-171452381D02*
X141190476Y-171452381D01*
X141476190Y-171452381D02*
X141476190Y-170452381D01*
X141380952Y-170595238D01*
X141285714Y-170690476D01*
X141190476Y-170738095D01*
X139857143Y-161607143D02*
X139809524Y-161654762D01*
X139666667Y-161702381D01*
X139571429Y-161702381D01*
X139428571Y-161654762D01*
X139333333Y-161559524D01*
X139285714Y-161464286D01*
X139238095Y-161273810D01*
X139238095Y-161130952D01*
X139285714Y-160940476D01*
X139333333Y-160845238D01*
X139428571Y-160750000D01*
X139571429Y-160702381D01*
X139666667Y-160702381D01*
X139809524Y-160750000D01*
X139857143Y-160797619D01*
X140190476Y-160702381D02*
X140809524Y-160702381D01*
X140476190Y-161083333D01*
X140619048Y-161083333D01*
X140714286Y-161130952D01*
X140761905Y-161178571D01*
X140809524Y-161273810D01*
X140809524Y-161511905D01*
X140761905Y-161607143D01*
X140714286Y-161654762D01*
X140619048Y-161702381D01*
X140333333Y-161702381D01*
X140238095Y-161654762D01*
X140190476Y-161607143D01*
X141190476Y-160797619D02*
X141238095Y-160750000D01*
X141333333Y-160702381D01*
X141571429Y-160702381D01*
X141666667Y-160750000D01*
X141714286Y-160797619D01*
X141761905Y-160892857D01*
X141761905Y-160988095D01*
X141714286Y-161130952D01*
X141142857Y-161702381D01*
X141761905Y-161702381D01*
X129702381Y-170714286D02*
X128702381Y-170714286D01*
X128702381Y-170476191D01*
X128750000Y-170333333D01*
X128845238Y-170238095D01*
X128940476Y-170190476D01*
X129130952Y-170142857D01*
X129273810Y-170142857D01*
X129464286Y-170190476D01*
X129559524Y-170238095D01*
X129654762Y-170333333D01*
X129702381Y-170476191D01*
X129702381Y-170714286D01*
X129702381Y-169190476D02*
X129702381Y-169761905D01*
X129702381Y-169476191D02*
X128702381Y-169476191D01*
X128845238Y-169571429D01*
X128940476Y-169666667D01*
X128988095Y-169761905D01*
X129130952Y-168619048D02*
X129083333Y-168714286D01*
X129035714Y-168761905D01*
X128940476Y-168809524D01*
X128892857Y-168809524D01*
X128797619Y-168761905D01*
X128750000Y-168714286D01*
X128702381Y-168619048D01*
X128702381Y-168428571D01*
X128750000Y-168333333D01*
X128797619Y-168285714D01*
X128892857Y-168238095D01*
X128940476Y-168238095D01*
X129035714Y-168285714D01*
X129083333Y-168333333D01*
X129130952Y-168428571D01*
X129130952Y-168619048D01*
X129178571Y-168714286D01*
X129226190Y-168761905D01*
X129321429Y-168809524D01*
X129511905Y-168809524D01*
X129607143Y-168761905D01*
X129654762Y-168714286D01*
X129702381Y-168619048D01*
X129702381Y-168428571D01*
X129654762Y-168333333D01*
X129607143Y-168285714D01*
X129511905Y-168238095D01*
X129321429Y-168238095D01*
X129226190Y-168285714D01*
X129178571Y-168333333D01*
X129130952Y-168428571D01*
X129702381Y-163714286D02*
X128702381Y-163714286D01*
X128702381Y-163476191D01*
X128750000Y-163333333D01*
X128845238Y-163238095D01*
X128940476Y-163190476D01*
X129130952Y-163142857D01*
X129273810Y-163142857D01*
X129464286Y-163190476D01*
X129559524Y-163238095D01*
X129654762Y-163333333D01*
X129702381Y-163476191D01*
X129702381Y-163714286D01*
X129702381Y-162190476D02*
X129702381Y-162761905D01*
X129702381Y-162476191D02*
X128702381Y-162476191D01*
X128845238Y-162571429D01*
X128940476Y-162666667D01*
X128988095Y-162761905D01*
X129702381Y-161714286D02*
X129702381Y-161523810D01*
X129654762Y-161428571D01*
X129607143Y-161380952D01*
X129464286Y-161285714D01*
X129273810Y-161238095D01*
X128892857Y-161238095D01*
X128797619Y-161285714D01*
X128750000Y-161333333D01*
X128702381Y-161428571D01*
X128702381Y-161619048D01*
X128750000Y-161714286D01*
X128797619Y-161761905D01*
X128892857Y-161809524D01*
X129130952Y-161809524D01*
X129226190Y-161761905D01*
X129273810Y-161714286D01*
X129321429Y-161619048D01*
X129321429Y-161428571D01*
X129273810Y-161333333D01*
X129226190Y-161285714D01*
X129130952Y-161238095D01*
X139952381Y-164238095D02*
X138952381Y-164238095D01*
X138952381Y-163857142D01*
X139000000Y-163761904D01*
X139047619Y-163714285D01*
X139142857Y-163666666D01*
X139285714Y-163666666D01*
X139380952Y-163714285D01*
X139428571Y-163761904D01*
X139476190Y-163857142D01*
X139476190Y-164238095D01*
X139380952Y-163095238D02*
X139333333Y-163190476D01*
X139285714Y-163238095D01*
X139190476Y-163285714D01*
X139142857Y-163285714D01*
X139047619Y-163238095D01*
X139000000Y-163190476D01*
X138952381Y-163095238D01*
X138952381Y-162904761D01*
X139000000Y-162809523D01*
X139047619Y-162761904D01*
X139142857Y-162714285D01*
X139190476Y-162714285D01*
X139285714Y-162761904D01*
X139333333Y-162809523D01*
X139380952Y-162904761D01*
X139380952Y-163095238D01*
X139428571Y-163190476D01*
X139476190Y-163238095D01*
X139571429Y-163285714D01*
X139761905Y-163285714D01*
X139857143Y-163238095D01*
X139904762Y-163190476D01*
X139952381Y-163095238D01*
X139952381Y-162904761D01*
X139904762Y-162809523D01*
X139857143Y-162761904D01*
X139761905Y-162714285D01*
X139571429Y-162714285D01*
X139476190Y-162761904D01*
X139428571Y-162809523D01*
X139380952Y-162904761D01*
X139952381Y-169238095D02*
X138952381Y-169238095D01*
X138952381Y-168857142D01*
X139000000Y-168761904D01*
X139047619Y-168714285D01*
X139142857Y-168666666D01*
X139285714Y-168666666D01*
X139380952Y-168714285D01*
X139428571Y-168761904D01*
X139476190Y-168857142D01*
X139476190Y-169238095D01*
X139952381Y-168190476D02*
X139952381Y-168000000D01*
X139904762Y-167904761D01*
X139857143Y-167857142D01*
X139714286Y-167761904D01*
X139523810Y-167714285D01*
X139142857Y-167714285D01*
X139047619Y-167761904D01*
X139000000Y-167809523D01*
X138952381Y-167904761D01*
X138952381Y-168095238D01*
X139000000Y-168190476D01*
X139047619Y-168238095D01*
X139142857Y-168285714D01*
X139380952Y-168285714D01*
X139476190Y-168238095D01*
X139523810Y-168190476D01*
X139571429Y-168095238D01*
X139571429Y-167904761D01*
X139523810Y-167809523D01*
X139476190Y-167761904D01*
X139380952Y-167714285D01*
X132202381Y-170142857D02*
X131726190Y-170476191D01*
X132202381Y-170714286D02*
X131202381Y-170714286D01*
X131202381Y-170333333D01*
X131250000Y-170238095D01*
X131297619Y-170190476D01*
X131392857Y-170142857D01*
X131535714Y-170142857D01*
X131630952Y-170190476D01*
X131678571Y-170238095D01*
X131726190Y-170333333D01*
X131726190Y-170714286D01*
X131297619Y-169761905D02*
X131250000Y-169714286D01*
X131202381Y-169619048D01*
X131202381Y-169380952D01*
X131250000Y-169285714D01*
X131297619Y-169238095D01*
X131392857Y-169190476D01*
X131488095Y-169190476D01*
X131630952Y-169238095D01*
X132202381Y-169809524D01*
X132202381Y-169190476D01*
X132202381Y-168714286D02*
X132202381Y-168523810D01*
X132154762Y-168428571D01*
X132107143Y-168380952D01*
X131964286Y-168285714D01*
X131773810Y-168238095D01*
X131392857Y-168238095D01*
X131297619Y-168285714D01*
X131250000Y-168333333D01*
X131202381Y-168428571D01*
X131202381Y-168619048D01*
X131250000Y-168714286D01*
X131297619Y-168761905D01*
X131392857Y-168809524D01*
X131630952Y-168809524D01*
X131726190Y-168761905D01*
X131773810Y-168714286D01*
X131821429Y-168619048D01*
X131821429Y-168428571D01*
X131773810Y-168333333D01*
X131726190Y-168285714D01*
X131630952Y-168238095D01*
X132202381Y-163142857D02*
X131726190Y-163476191D01*
X132202381Y-163714286D02*
X131202381Y-163714286D01*
X131202381Y-163333333D01*
X131250000Y-163238095D01*
X131297619Y-163190476D01*
X131392857Y-163142857D01*
X131535714Y-163142857D01*
X131630952Y-163190476D01*
X131678571Y-163238095D01*
X131726190Y-163333333D01*
X131726190Y-163714286D01*
X131202381Y-162809524D02*
X131202381Y-162190476D01*
X131583333Y-162523810D01*
X131583333Y-162380952D01*
X131630952Y-162285714D01*
X131678571Y-162238095D01*
X131773810Y-162190476D01*
X132011905Y-162190476D01*
X132107143Y-162238095D01*
X132154762Y-162285714D01*
X132202381Y-162380952D01*
X132202381Y-162666667D01*
X132154762Y-162761905D01*
X132107143Y-162809524D01*
X131202381Y-161571429D02*
X131202381Y-161476190D01*
X131250000Y-161380952D01*
X131297619Y-161333333D01*
X131392857Y-161285714D01*
X131583333Y-161238095D01*
X131821429Y-161238095D01*
X132011905Y-161285714D01*
X132107143Y-161333333D01*
X132154762Y-161380952D01*
X132202381Y-161476190D01*
X132202381Y-161571429D01*
X132154762Y-161666667D01*
X132107143Y-161714286D01*
X132011905Y-161761905D01*
X131821429Y-161809524D01*
X131583333Y-161809524D01*
X131392857Y-161761905D01*
X131297619Y-161714286D01*
X131250000Y-161666667D01*
X131202381Y-161571429D01*
X136607143Y-171202381D02*
X136273809Y-170726190D01*
X136035714Y-171202381D02*
X136035714Y-170202381D01*
X136416667Y-170202381D01*
X136511905Y-170250000D01*
X136559524Y-170297619D01*
X136607143Y-170392857D01*
X136607143Y-170535714D01*
X136559524Y-170630952D01*
X136511905Y-170678571D01*
X136416667Y-170726190D01*
X136035714Y-170726190D01*
X136940476Y-170202381D02*
X137559524Y-170202381D01*
X137226190Y-170583333D01*
X137369048Y-170583333D01*
X137464286Y-170630952D01*
X137511905Y-170678571D01*
X137559524Y-170773810D01*
X137559524Y-171011905D01*
X137511905Y-171107143D01*
X137464286Y-171154762D01*
X137369048Y-171202381D01*
X137083333Y-171202381D01*
X136988095Y-171154762D01*
X136940476Y-171107143D01*
X138511905Y-171202381D02*
X137940476Y-171202381D01*
X138226190Y-171202381D02*
X138226190Y-170202381D01*
X138130952Y-170345238D01*
X138035714Y-170440476D01*
X137940476Y-170488095D01*
X136357143Y-161702381D02*
X136023809Y-161226190D01*
X135785714Y-161702381D02*
X135785714Y-160702381D01*
X136166667Y-160702381D01*
X136261905Y-160750000D01*
X136309524Y-160797619D01*
X136357143Y-160892857D01*
X136357143Y-161035714D01*
X136309524Y-161130952D01*
X136261905Y-161178571D01*
X136166667Y-161226190D01*
X135785714Y-161226190D01*
X136690476Y-160702381D02*
X137309524Y-160702381D01*
X136976190Y-161083333D01*
X137119048Y-161083333D01*
X137214286Y-161130952D01*
X137261905Y-161178571D01*
X137309524Y-161273810D01*
X137309524Y-161511905D01*
X137261905Y-161607143D01*
X137214286Y-161654762D01*
X137119048Y-161702381D01*
X136833333Y-161702381D01*
X136738095Y-161654762D01*
X136690476Y-161607143D01*
X137690476Y-160797619D02*
X137738095Y-160750000D01*
X137833333Y-160702381D01*
X138071429Y-160702381D01*
X138166667Y-160750000D01*
X138214286Y-160797619D01*
X138261905Y-160892857D01*
X138261905Y-160988095D01*
X138214286Y-161130952D01*
X137642857Y-161702381D01*
X138261905Y-161702381D01*
X133452381Y-169261905D02*
X134261905Y-169261905D01*
X134357143Y-169214286D01*
X134404762Y-169166667D01*
X134452381Y-169071429D01*
X134452381Y-168880952D01*
X134404762Y-168785714D01*
X134357143Y-168738095D01*
X134261905Y-168690476D01*
X133452381Y-168690476D01*
X133880952Y-168071429D02*
X133833333Y-168166667D01*
X133785714Y-168214286D01*
X133690476Y-168261905D01*
X133642857Y-168261905D01*
X133547619Y-168214286D01*
X133500000Y-168166667D01*
X133452381Y-168071429D01*
X133452381Y-167880952D01*
X133500000Y-167785714D01*
X133547619Y-167738095D01*
X133642857Y-167690476D01*
X133690476Y-167690476D01*
X133785714Y-167738095D01*
X133833333Y-167785714D01*
X133880952Y-167880952D01*
X133880952Y-168071429D01*
X133928571Y-168166667D01*
X133976190Y-168214286D01*
X134071429Y-168261905D01*
X134261905Y-168261905D01*
X134357143Y-168214286D01*
X134404762Y-168166667D01*
X134452381Y-168071429D01*
X134452381Y-167880952D01*
X134404762Y-167785714D01*
X134357143Y-167738095D01*
X134261905Y-167690476D01*
X134071429Y-167690476D01*
X133976190Y-167738095D01*
X133928571Y-167785714D01*
X133880952Y-167880952D01*
X133452381Y-164261905D02*
X134261905Y-164261905D01*
X134357143Y-164214286D01*
X134404762Y-164166667D01*
X134452381Y-164071429D01*
X134452381Y-163880952D01*
X134404762Y-163785714D01*
X134357143Y-163738095D01*
X134261905Y-163690476D01*
X133452381Y-163690476D01*
X134452381Y-163166667D02*
X134452381Y-162976191D01*
X134404762Y-162880952D01*
X134357143Y-162833333D01*
X134214286Y-162738095D01*
X134023810Y-162690476D01*
X133642857Y-162690476D01*
X133547619Y-162738095D01*
X133500000Y-162785714D01*
X133452381Y-162880952D01*
X133452381Y-163071429D01*
X133500000Y-163166667D01*
X133547619Y-163214286D01*
X133642857Y-163261905D01*
X133880952Y-163261905D01*
X133976190Y-163214286D01*
X134023810Y-163166667D01*
X134071429Y-163071429D01*
X134071429Y-162880952D01*
X134023810Y-162785714D01*
X133976190Y-162738095D01*
X133880952Y-162690476D01*
X129952381Y-166738095D02*
X128952381Y-166738095D01*
X128952381Y-166357142D01*
X129000000Y-166261904D01*
X129047619Y-166214285D01*
X129142857Y-166166666D01*
X129285714Y-166166666D01*
X129380952Y-166214285D01*
X129428571Y-166261904D01*
X129476190Y-166357142D01*
X129476190Y-166738095D01*
X128952381Y-165833333D02*
X128952381Y-165166666D01*
X129952381Y-165595238D01*
X151238095Y-131452381D02*
X151238095Y-132261905D01*
X151285714Y-132357143D01*
X151333333Y-132404762D01*
X151428571Y-132452381D01*
X151619048Y-132452381D01*
X151714286Y-132404762D01*
X151761905Y-132357143D01*
X151809524Y-132261905D01*
X151809524Y-131452381D01*
X152714286Y-131452381D02*
X152523809Y-131452381D01*
X152428571Y-131500000D01*
X152380952Y-131547619D01*
X152285714Y-131690476D01*
X152238095Y-131880952D01*
X152238095Y-132261905D01*
X152285714Y-132357143D01*
X152333333Y-132404762D01*
X152428571Y-132452381D01*
X152619048Y-132452381D01*
X152714286Y-132404762D01*
X152761905Y-132357143D01*
X152809524Y-132261905D01*
X152809524Y-132023810D01*
X152761905Y-131928571D01*
X152714286Y-131880952D01*
X152619048Y-131833333D01*
X152428571Y-131833333D01*
X152333333Y-131880952D01*
X152285714Y-131928571D01*
X152238095Y-132023810D01*
X123011905Y-156452381D02*
X123011905Y-155452381D01*
X123392858Y-155452381D01*
X123488096Y-155500000D01*
X123535715Y-155547619D01*
X123583334Y-155642857D01*
X123583334Y-155785714D01*
X123535715Y-155880952D01*
X123488096Y-155928571D01*
X123392858Y-155976190D01*
X123011905Y-155976190D01*
X124488096Y-155452381D02*
X124011905Y-155452381D01*
X123964286Y-155928571D01*
X124011905Y-155880952D01*
X124107143Y-155833333D01*
X124345239Y-155833333D01*
X124440477Y-155880952D01*
X124488096Y-155928571D01*
X124535715Y-156023810D01*
X124535715Y-156261905D01*
X124488096Y-156357143D01*
X124440477Y-156404762D01*
X124345239Y-156452381D01*
X124107143Y-156452381D01*
X124011905Y-156404762D01*
X123964286Y-156357143D01*
X150583334Y-115357143D02*
X150535715Y-115404762D01*
X150392858Y-115452381D01*
X150297620Y-115452381D01*
X150154762Y-115404762D01*
X150059524Y-115309524D01*
X150011905Y-115214286D01*
X149964286Y-115023810D01*
X149964286Y-114880952D01*
X150011905Y-114690476D01*
X150059524Y-114595238D01*
X150154762Y-114500000D01*
X150297620Y-114452381D01*
X150392858Y-114452381D01*
X150535715Y-114500000D01*
X150583334Y-114547619D01*
X151154762Y-114880952D02*
X151059524Y-114833333D01*
X151011905Y-114785714D01*
X150964286Y-114690476D01*
X150964286Y-114642857D01*
X151011905Y-114547619D01*
X151059524Y-114500000D01*
X151154762Y-114452381D01*
X151345239Y-114452381D01*
X151440477Y-114500000D01*
X151488096Y-114547619D01*
X151535715Y-114642857D01*
X151535715Y-114690476D01*
X151488096Y-114785714D01*
X151440477Y-114833333D01*
X151345239Y-114880952D01*
X151154762Y-114880952D01*
X151059524Y-114928571D01*
X151011905Y-114976190D01*
X150964286Y-115071429D01*
X150964286Y-115261905D01*
X151011905Y-115357143D01*
X151059524Y-115404762D01*
X151154762Y-115452381D01*
X151345239Y-115452381D01*
X151440477Y-115404762D01*
X151488096Y-115357143D01*
X151535715Y-115261905D01*
X151535715Y-115071429D01*
X151488096Y-114976190D01*
X151440477Y-114928571D01*
X151345239Y-114880952D01*
X154857143Y-104416666D02*
X154904762Y-104464285D01*
X154952381Y-104607142D01*
X154952381Y-104702380D01*
X154904762Y-104845238D01*
X154809524Y-104940476D01*
X154714286Y-104988095D01*
X154523810Y-105035714D01*
X154380952Y-105035714D01*
X154190476Y-104988095D01*
X154095238Y-104940476D01*
X154000000Y-104845238D01*
X153952381Y-104702380D01*
X153952381Y-104607142D01*
X154000000Y-104464285D01*
X154047619Y-104416666D01*
X154952381Y-103940476D02*
X154952381Y-103750000D01*
X154904762Y-103654761D01*
X154857143Y-103607142D01*
X154714286Y-103511904D01*
X154523810Y-103464285D01*
X154142857Y-103464285D01*
X154047619Y-103511904D01*
X154000000Y-103559523D01*
X153952381Y-103654761D01*
X153952381Y-103845238D01*
X154000000Y-103940476D01*
X154047619Y-103988095D01*
X154142857Y-104035714D01*
X154380952Y-104035714D01*
X154476190Y-103988095D01*
X154523810Y-103940476D01*
X154571429Y-103845238D01*
X154571429Y-103654761D01*
X154523810Y-103559523D01*
X154476190Y-103511904D01*
X154380952Y-103464285D01*
X144257143Y-148907143D02*
X144209524Y-148954762D01*
X144066667Y-149002381D01*
X143971429Y-149002381D01*
X143828571Y-148954762D01*
X143733333Y-148859524D01*
X143685714Y-148764286D01*
X143638095Y-148573810D01*
X143638095Y-148430952D01*
X143685714Y-148240476D01*
X143733333Y-148145238D01*
X143828571Y-148050000D01*
X143971429Y-148002381D01*
X144066667Y-148002381D01*
X144209524Y-148050000D01*
X144257143Y-148097619D01*
X145209524Y-149002381D02*
X144638095Y-149002381D01*
X144923809Y-149002381D02*
X144923809Y-148002381D01*
X144828571Y-148145238D01*
X144733333Y-148240476D01*
X144638095Y-148288095D01*
X146114286Y-148002381D02*
X145638095Y-148002381D01*
X145590476Y-148478571D01*
X145638095Y-148430952D01*
X145733333Y-148383333D01*
X145971429Y-148383333D01*
X146066667Y-148430952D01*
X146114286Y-148478571D01*
X146161905Y-148573810D01*
X146161905Y-148811905D01*
X146114286Y-148907143D01*
X146066667Y-148954762D01*
X145971429Y-149002381D01*
X145733333Y-149002381D01*
X145638095Y-148954762D01*
X145590476Y-148907143D01*
X165404762Y-120047619D02*
X165309524Y-120000000D01*
X165214286Y-119904762D01*
X165071429Y-119761905D01*
X164976190Y-119714286D01*
X164880952Y-119714286D01*
X164928571Y-119952381D02*
X164833333Y-119904762D01*
X164738095Y-119809524D01*
X164690476Y-119619048D01*
X164690476Y-119285714D01*
X164738095Y-119095238D01*
X164833333Y-119000000D01*
X164928571Y-118952381D01*
X165119048Y-118952381D01*
X165214286Y-119000000D01*
X165309524Y-119095238D01*
X165357143Y-119285714D01*
X165357143Y-119619048D01*
X165309524Y-119809524D01*
X165214286Y-119904762D01*
X165119048Y-119952381D01*
X164928571Y-119952381D01*
X165738095Y-119047619D02*
X165785714Y-119000000D01*
X165880952Y-118952381D01*
X166119048Y-118952381D01*
X166214286Y-119000000D01*
X166261905Y-119047619D01*
X166309524Y-119142857D01*
X166309524Y-119238095D01*
X166261905Y-119380952D01*
X165690476Y-119952381D01*
X166309524Y-119952381D01*
X122404762Y-121547619D02*
X122309524Y-121500000D01*
X122214286Y-121404762D01*
X122071429Y-121261905D01*
X121976190Y-121214286D01*
X121880952Y-121214286D01*
X121928571Y-121452381D02*
X121833333Y-121404762D01*
X121738095Y-121309524D01*
X121690476Y-121119048D01*
X121690476Y-120785714D01*
X121738095Y-120595238D01*
X121833333Y-120500000D01*
X121928571Y-120452381D01*
X122119048Y-120452381D01*
X122214286Y-120500000D01*
X122309524Y-120595238D01*
X122357143Y-120785714D01*
X122357143Y-121119048D01*
X122309524Y-121309524D01*
X122214286Y-121404762D01*
X122119048Y-121452381D01*
X121928571Y-121452381D01*
X122690476Y-120452381D02*
X123309524Y-120452381D01*
X122976190Y-120833333D01*
X123119048Y-120833333D01*
X123214286Y-120880952D01*
X123261905Y-120928571D01*
X123309524Y-121023810D01*
X123309524Y-121261905D01*
X123261905Y-121357143D01*
X123214286Y-121404762D01*
X123119048Y-121452381D01*
X122833333Y-121452381D01*
X122738095Y-121404762D01*
X122690476Y-121357143D01*
X132347619Y-118895238D02*
X132300000Y-118990476D01*
X132204762Y-119085714D01*
X132061905Y-119228571D01*
X132014286Y-119323810D01*
X132014286Y-119419048D01*
X132252381Y-119371429D02*
X132204762Y-119466667D01*
X132109524Y-119561905D01*
X131919048Y-119609524D01*
X131585714Y-119609524D01*
X131395238Y-119561905D01*
X131300000Y-119466667D01*
X131252381Y-119371429D01*
X131252381Y-119180952D01*
X131300000Y-119085714D01*
X131395238Y-118990476D01*
X131585714Y-118942857D01*
X131919048Y-118942857D01*
X132109524Y-118990476D01*
X132204762Y-119085714D01*
X132252381Y-119180952D01*
X132252381Y-119371429D01*
X131585714Y-118085714D02*
X132252381Y-118085714D01*
X131204762Y-118323810D02*
X131919048Y-118561905D01*
X131919048Y-117942857D01*
X138738095Y-128952381D02*
X138738095Y-129761905D01*
X138785714Y-129857143D01*
X138833333Y-129904762D01*
X138928571Y-129952381D01*
X139119048Y-129952381D01*
X139214286Y-129904762D01*
X139261905Y-129857143D01*
X139309524Y-129761905D01*
X139309524Y-128952381D01*
X140261905Y-128952381D02*
X139785714Y-128952381D01*
X139738095Y-129428571D01*
X139785714Y-129380952D01*
X139880952Y-129333333D01*
X140119048Y-129333333D01*
X140214286Y-129380952D01*
X140261905Y-129428571D01*
X140309524Y-129523810D01*
X140309524Y-129761905D01*
X140261905Y-129857143D01*
X140214286Y-129904762D01*
X140119048Y-129952381D01*
X139880952Y-129952381D01*
X139785714Y-129904762D01*
X139738095Y-129857143D01*
X155461905Y-157652381D02*
X155461905Y-156652381D01*
X155700000Y-156652381D01*
X155842858Y-156700000D01*
X155938096Y-156795238D01*
X155985715Y-156890476D01*
X156033334Y-157080952D01*
X156033334Y-157223810D01*
X155985715Y-157414286D01*
X155938096Y-157509524D01*
X155842858Y-157604762D01*
X155700000Y-157652381D01*
X155461905Y-157652381D01*
X156985715Y-157652381D02*
X156414286Y-157652381D01*
X156700000Y-157652381D02*
X156700000Y-156652381D01*
X156604762Y-156795238D01*
X156509524Y-156890476D01*
X156414286Y-156938095D01*
X120261905Y-115752381D02*
X120261905Y-114752381D01*
X120642858Y-114752381D01*
X120738096Y-114800000D01*
X120785715Y-114847619D01*
X120833334Y-114942857D01*
X120833334Y-115085714D01*
X120785715Y-115180952D01*
X120738096Y-115228571D01*
X120642858Y-115276190D01*
X120261905Y-115276190D01*
X121690477Y-114752381D02*
X121500000Y-114752381D01*
X121404762Y-114800000D01*
X121357143Y-114847619D01*
X121261905Y-114990476D01*
X121214286Y-115180952D01*
X121214286Y-115561905D01*
X121261905Y-115657143D01*
X121309524Y-115704762D01*
X121404762Y-115752381D01*
X121595239Y-115752381D01*
X121690477Y-115704762D01*
X121738096Y-115657143D01*
X121785715Y-115561905D01*
X121785715Y-115323810D01*
X121738096Y-115228571D01*
X121690477Y-115180952D01*
X121595239Y-115133333D01*
X121404762Y-115133333D01*
X121309524Y-115180952D01*
X121261905Y-115228571D01*
X121214286Y-115323810D01*
X147083334Y-119607143D02*
X147035715Y-119654762D01*
X146892858Y-119702381D01*
X146797620Y-119702381D01*
X146654762Y-119654762D01*
X146559524Y-119559524D01*
X146511905Y-119464286D01*
X146464286Y-119273810D01*
X146464286Y-119130952D01*
X146511905Y-118940476D01*
X146559524Y-118845238D01*
X146654762Y-118750000D01*
X146797620Y-118702381D01*
X146892858Y-118702381D01*
X147035715Y-118750000D01*
X147083334Y-118797619D01*
X148035715Y-119702381D02*
X147464286Y-119702381D01*
X147750000Y-119702381D02*
X147750000Y-118702381D01*
X147654762Y-118845238D01*
X147559524Y-118940476D01*
X147464286Y-118988095D01*
X151083334Y-113607143D02*
X151035715Y-113654762D01*
X150892858Y-113702381D01*
X150797620Y-113702381D01*
X150654762Y-113654762D01*
X150559524Y-113559524D01*
X150511905Y-113464286D01*
X150464286Y-113273810D01*
X150464286Y-113130952D01*
X150511905Y-112940476D01*
X150559524Y-112845238D01*
X150654762Y-112750000D01*
X150797620Y-112702381D01*
X150892858Y-112702381D01*
X151035715Y-112750000D01*
X151083334Y-112797619D01*
X151464286Y-112797619D02*
X151511905Y-112750000D01*
X151607143Y-112702381D01*
X151845239Y-112702381D01*
X151940477Y-112750000D01*
X151988096Y-112797619D01*
X152035715Y-112892857D01*
X152035715Y-112988095D01*
X151988096Y-113130952D01*
X151416667Y-113702381D01*
X152035715Y-113702381D01*
X121833334Y-115357143D02*
X121785715Y-115404762D01*
X121642858Y-115452381D01*
X121547620Y-115452381D01*
X121404762Y-115404762D01*
X121309524Y-115309524D01*
X121261905Y-115214286D01*
X121214286Y-115023810D01*
X121214286Y-114880952D01*
X121261905Y-114690476D01*
X121309524Y-114595238D01*
X121404762Y-114500000D01*
X121547620Y-114452381D01*
X121642858Y-114452381D01*
X121785715Y-114500000D01*
X121833334Y-114547619D01*
X122166667Y-114452381D02*
X122785715Y-114452381D01*
X122452381Y-114833333D01*
X122595239Y-114833333D01*
X122690477Y-114880952D01*
X122738096Y-114928571D01*
X122785715Y-115023810D01*
X122785715Y-115261905D01*
X122738096Y-115357143D01*
X122690477Y-115404762D01*
X122595239Y-115452381D01*
X122309524Y-115452381D01*
X122214286Y-115404762D01*
X122166667Y-115357143D01*
X137884688Y-105620389D02*
X137884688Y-105687732D01*
X137817344Y-105822419D01*
X137750001Y-105889763D01*
X137615313Y-105957107D01*
X137480626Y-105957107D01*
X137379611Y-105923435D01*
X137211253Y-105822420D01*
X137110237Y-105721404D01*
X137009222Y-105553045D01*
X136975550Y-105452030D01*
X136975550Y-105317343D01*
X137042894Y-105182656D01*
X137110237Y-105115312D01*
X137244924Y-105047969D01*
X137312268Y-105047969D01*
X138086718Y-104610236D02*
X138558123Y-105081641D01*
X137648985Y-104509222D02*
X137985703Y-105182657D01*
X138423436Y-104744924D01*
X136565567Y-119417803D02*
X136517948Y-119465422D01*
X136375091Y-119513041D01*
X136279853Y-119513041D01*
X136136995Y-119465422D01*
X136041757Y-119370184D01*
X135994138Y-119274946D01*
X135946519Y-119084470D01*
X135946519Y-118941612D01*
X135994138Y-118751136D01*
X136041757Y-118655898D01*
X136136995Y-118560660D01*
X136279853Y-118513041D01*
X136375091Y-118513041D01*
X136517948Y-118560660D01*
X136565567Y-118608279D01*
X137470329Y-118513041D02*
X136994138Y-118513041D01*
X136946519Y-118989231D01*
X136994138Y-118941612D01*
X137089376Y-118893993D01*
X137327472Y-118893993D01*
X137422710Y-118941612D01*
X137470329Y-118989231D01*
X137517948Y-119084470D01*
X137517948Y-119322565D01*
X137470329Y-119417803D01*
X137422710Y-119465422D01*
X137327472Y-119513041D01*
X137089376Y-119513041D01*
X136994138Y-119465422D01*
X136946519Y-119417803D01*
X136564250Y-116434433D02*
X136611869Y-116482052D01*
X136659488Y-116624909D01*
X136659488Y-116720147D01*
X136611869Y-116863005D01*
X136516631Y-116958243D01*
X136421393Y-117005862D01*
X136230917Y-117053481D01*
X136088059Y-117053481D01*
X135897583Y-117005862D01*
X135802345Y-116958243D01*
X135707107Y-116863005D01*
X135659488Y-116720147D01*
X135659488Y-116624909D01*
X135707107Y-116482052D01*
X135754726Y-116434433D01*
X135659488Y-115577290D02*
X135659488Y-115767767D01*
X135707107Y-115863005D01*
X135754726Y-115910624D01*
X135897583Y-116005862D01*
X136088059Y-116053481D01*
X136469012Y-116053481D01*
X136564250Y-116005862D01*
X136611869Y-115958243D01*
X136659488Y-115863005D01*
X136659488Y-115672528D01*
X136611869Y-115577290D01*
X136564250Y-115529671D01*
X136469012Y-115482052D01*
X136230917Y-115482052D01*
X136135678Y-115529671D01*
X136088059Y-115577290D01*
X136040440Y-115672528D01*
X136040440Y-115863005D01*
X136088059Y-115958243D01*
X136135678Y-116005862D01*
X136230917Y-116053481D01*
X166333334Y-147857143D02*
X166285715Y-147904762D01*
X166142858Y-147952381D01*
X166047620Y-147952381D01*
X165904762Y-147904762D01*
X165809524Y-147809524D01*
X165761905Y-147714286D01*
X165714286Y-147523810D01*
X165714286Y-147380952D01*
X165761905Y-147190476D01*
X165809524Y-147095238D01*
X165904762Y-147000000D01*
X166047620Y-146952381D01*
X166142858Y-146952381D01*
X166285715Y-147000000D01*
X166333334Y-147047619D01*
X166666667Y-146952381D02*
X167333334Y-146952381D01*
X166904762Y-147952381D01*
X158357143Y-120392857D02*
X158404762Y-120440476D01*
X158452381Y-120583333D01*
X158452381Y-120678571D01*
X158404762Y-120821429D01*
X158309524Y-120916667D01*
X158214286Y-120964286D01*
X158023810Y-121011905D01*
X157880952Y-121011905D01*
X157690476Y-120964286D01*
X157595238Y-120916667D01*
X157500000Y-120821429D01*
X157452381Y-120678571D01*
X157452381Y-120583333D01*
X157500000Y-120440476D01*
X157547619Y-120392857D01*
X158452381Y-119440476D02*
X158452381Y-120011905D01*
X158452381Y-119726191D02*
X157452381Y-119726191D01*
X157595238Y-119821429D01*
X157690476Y-119916667D01*
X157738095Y-120011905D01*
X157452381Y-118821429D02*
X157452381Y-118726190D01*
X157500000Y-118630952D01*
X157547619Y-118583333D01*
X157642857Y-118535714D01*
X157833333Y-118488095D01*
X158071429Y-118488095D01*
X158261905Y-118535714D01*
X158357143Y-118583333D01*
X158404762Y-118630952D01*
X158452381Y-118726190D01*
X158452381Y-118821429D01*
X158404762Y-118916667D01*
X158357143Y-118964286D01*
X158261905Y-119011905D01*
X158071429Y-119059524D01*
X157833333Y-119059524D01*
X157642857Y-119011905D01*
X157547619Y-118964286D01*
X157500000Y-118916667D01*
X157452381Y-118821429D01*
X122357143Y-145357143D02*
X122309524Y-145404762D01*
X122166667Y-145452381D01*
X122071429Y-145452381D01*
X121928571Y-145404762D01*
X121833333Y-145309524D01*
X121785714Y-145214286D01*
X121738095Y-145023810D01*
X121738095Y-144880952D01*
X121785714Y-144690476D01*
X121833333Y-144595238D01*
X121928571Y-144500000D01*
X122071429Y-144452381D01*
X122166667Y-144452381D01*
X122309524Y-144500000D01*
X122357143Y-144547619D01*
X123309524Y-145452381D02*
X122738095Y-145452381D01*
X123023809Y-145452381D02*
X123023809Y-144452381D01*
X122928571Y-144595238D01*
X122833333Y-144690476D01*
X122738095Y-144738095D01*
X124261905Y-145452381D02*
X123690476Y-145452381D01*
X123976190Y-145452381D02*
X123976190Y-144452381D01*
X123880952Y-144595238D01*
X123785714Y-144690476D01*
X123690476Y-144738095D01*
X151957143Y-154557143D02*
X151909524Y-154604762D01*
X151766667Y-154652381D01*
X151671429Y-154652381D01*
X151528571Y-154604762D01*
X151433333Y-154509524D01*
X151385714Y-154414286D01*
X151338095Y-154223810D01*
X151338095Y-154080952D01*
X151385714Y-153890476D01*
X151433333Y-153795238D01*
X151528571Y-153700000D01*
X151671429Y-153652381D01*
X151766667Y-153652381D01*
X151909524Y-153700000D01*
X151957143Y-153747619D01*
X152909524Y-154652381D02*
X152338095Y-154652381D01*
X152623809Y-154652381D02*
X152623809Y-153652381D01*
X152528571Y-153795238D01*
X152433333Y-153890476D01*
X152338095Y-153938095D01*
X153242857Y-153652381D02*
X153861905Y-153652381D01*
X153528571Y-154033333D01*
X153671429Y-154033333D01*
X153766667Y-154080952D01*
X153814286Y-154128571D01*
X153861905Y-154223810D01*
X153861905Y-154461905D01*
X153814286Y-154557143D01*
X153766667Y-154604762D01*
X153671429Y-154652381D01*
X153385714Y-154652381D01*
X153290476Y-154604762D01*
X153242857Y-154557143D01*
X141357143Y-148857143D02*
X141309524Y-148904762D01*
X141166667Y-148952381D01*
X141071429Y-148952381D01*
X140928571Y-148904762D01*
X140833333Y-148809524D01*
X140785714Y-148714286D01*
X140738095Y-148523810D01*
X140738095Y-148380952D01*
X140785714Y-148190476D01*
X140833333Y-148095238D01*
X140928571Y-148000000D01*
X141071429Y-147952381D01*
X141166667Y-147952381D01*
X141309524Y-148000000D01*
X141357143Y-148047619D01*
X142309524Y-148952381D02*
X141738095Y-148952381D01*
X142023809Y-148952381D02*
X142023809Y-147952381D01*
X141928571Y-148095238D01*
X141833333Y-148190476D01*
X141738095Y-148238095D01*
X143166667Y-148285714D02*
X143166667Y-148952381D01*
X142928571Y-147904762D02*
X142690476Y-148619048D01*
X143309524Y-148619048D01*
X136107143Y-128607143D02*
X136059524Y-128654762D01*
X135916667Y-128702381D01*
X135821429Y-128702381D01*
X135678571Y-128654762D01*
X135583333Y-128559524D01*
X135535714Y-128464286D01*
X135488095Y-128273810D01*
X135488095Y-128130952D01*
X135535714Y-127940476D01*
X135583333Y-127845238D01*
X135678571Y-127750000D01*
X135821429Y-127702381D01*
X135916667Y-127702381D01*
X136059524Y-127750000D01*
X136107143Y-127797619D01*
X137059524Y-128702381D02*
X136488095Y-128702381D01*
X136773809Y-128702381D02*
X136773809Y-127702381D01*
X136678571Y-127845238D01*
X136583333Y-127940476D01*
X136488095Y-127988095D01*
X137916667Y-127702381D02*
X137726190Y-127702381D01*
X137630952Y-127750000D01*
X137583333Y-127797619D01*
X137488095Y-127940476D01*
X137440476Y-128130952D01*
X137440476Y-128511905D01*
X137488095Y-128607143D01*
X137535714Y-128654762D01*
X137630952Y-128702381D01*
X137821429Y-128702381D01*
X137916667Y-128654762D01*
X137964286Y-128607143D01*
X138011905Y-128511905D01*
X138011905Y-128273810D01*
X137964286Y-128178571D01*
X137916667Y-128130952D01*
X137821429Y-128083333D01*
X137630952Y-128083333D01*
X137535714Y-128130952D01*
X137488095Y-128178571D01*
X137440476Y-128273810D01*
X137357143Y-140357143D02*
X137309524Y-140404762D01*
X137166667Y-140452381D01*
X137071429Y-140452381D01*
X136928571Y-140404762D01*
X136833333Y-140309524D01*
X136785714Y-140214286D01*
X136738095Y-140023810D01*
X136738095Y-139880952D01*
X136785714Y-139690476D01*
X136833333Y-139595238D01*
X136928571Y-139500000D01*
X137071429Y-139452381D01*
X137166667Y-139452381D01*
X137309524Y-139500000D01*
X137357143Y-139547619D01*
X138309524Y-140452381D02*
X137738095Y-140452381D01*
X138023809Y-140452381D02*
X138023809Y-139452381D01*
X137928571Y-139595238D01*
X137833333Y-139690476D01*
X137738095Y-139738095D01*
X138642857Y-139452381D02*
X139309524Y-139452381D01*
X138880952Y-140452381D01*
X145607143Y-144357143D02*
X145559524Y-144404762D01*
X145416667Y-144452381D01*
X145321429Y-144452381D01*
X145178571Y-144404762D01*
X145083333Y-144309524D01*
X145035714Y-144214286D01*
X144988095Y-144023810D01*
X144988095Y-143880952D01*
X145035714Y-143690476D01*
X145083333Y-143595238D01*
X145178571Y-143500000D01*
X145321429Y-143452381D01*
X145416667Y-143452381D01*
X145559524Y-143500000D01*
X145607143Y-143547619D01*
X146559524Y-144452381D02*
X145988095Y-144452381D01*
X146273809Y-144452381D02*
X146273809Y-143452381D01*
X146178571Y-143595238D01*
X146083333Y-143690476D01*
X145988095Y-143738095D01*
X147130952Y-143880952D02*
X147035714Y-143833333D01*
X146988095Y-143785714D01*
X146940476Y-143690476D01*
X146940476Y-143642857D01*
X146988095Y-143547619D01*
X147035714Y-143500000D01*
X147130952Y-143452381D01*
X147321429Y-143452381D01*
X147416667Y-143500000D01*
X147464286Y-143547619D01*
X147511905Y-143642857D01*
X147511905Y-143690476D01*
X147464286Y-143785714D01*
X147416667Y-143833333D01*
X147321429Y-143880952D01*
X147130952Y-143880952D01*
X147035714Y-143928571D01*
X146988095Y-143976190D01*
X146940476Y-144071429D01*
X146940476Y-144261905D01*
X146988095Y-144357143D01*
X147035714Y-144404762D01*
X147130952Y-144452381D01*
X147321429Y-144452381D01*
X147416667Y-144404762D01*
X147464286Y-144357143D01*
X147511905Y-144261905D01*
X147511905Y-144071429D01*
X147464286Y-143976190D01*
X147416667Y-143928571D01*
X147321429Y-143880952D01*
X145607143Y-145857143D02*
X145559524Y-145904762D01*
X145416667Y-145952381D01*
X145321429Y-145952381D01*
X145178571Y-145904762D01*
X145083333Y-145809524D01*
X145035714Y-145714286D01*
X144988095Y-145523810D01*
X144988095Y-145380952D01*
X145035714Y-145190476D01*
X145083333Y-145095238D01*
X145178571Y-145000000D01*
X145321429Y-144952381D01*
X145416667Y-144952381D01*
X145559524Y-145000000D01*
X145607143Y-145047619D01*
X146559524Y-145952381D02*
X145988095Y-145952381D01*
X146273809Y-145952381D02*
X146273809Y-144952381D01*
X146178571Y-145095238D01*
X146083333Y-145190476D01*
X145988095Y-145238095D01*
X147035714Y-145952381D02*
X147226190Y-145952381D01*
X147321429Y-145904762D01*
X147369048Y-145857143D01*
X147464286Y-145714286D01*
X147511905Y-145523810D01*
X147511905Y-145142857D01*
X147464286Y-145047619D01*
X147416667Y-145000000D01*
X147321429Y-144952381D01*
X147130952Y-144952381D01*
X147035714Y-145000000D01*
X146988095Y-145047619D01*
X146940476Y-145142857D01*
X146940476Y-145380952D01*
X146988095Y-145476190D01*
X147035714Y-145523810D01*
X147130952Y-145571429D01*
X147321429Y-145571429D01*
X147416667Y-145523810D01*
X147464286Y-145476190D01*
X147511905Y-145380952D01*
X151857143Y-140107143D02*
X151809524Y-140154762D01*
X151666667Y-140202381D01*
X151571429Y-140202381D01*
X151428571Y-140154762D01*
X151333333Y-140059524D01*
X151285714Y-139964286D01*
X151238095Y-139773810D01*
X151238095Y-139630952D01*
X151285714Y-139440476D01*
X151333333Y-139345238D01*
X151428571Y-139250000D01*
X151571429Y-139202381D01*
X151666667Y-139202381D01*
X151809524Y-139250000D01*
X151857143Y-139297619D01*
X152238095Y-139297619D02*
X152285714Y-139250000D01*
X152380952Y-139202381D01*
X152619048Y-139202381D01*
X152714286Y-139250000D01*
X152761905Y-139297619D01*
X152809524Y-139392857D01*
X152809524Y-139488095D01*
X152761905Y-139630952D01*
X152190476Y-140202381D01*
X152809524Y-140202381D01*
X153428571Y-139202381D02*
X153523810Y-139202381D01*
X153619048Y-139250000D01*
X153666667Y-139297619D01*
X153714286Y-139392857D01*
X153761905Y-139583333D01*
X153761905Y-139821429D01*
X153714286Y-140011905D01*
X153666667Y-140107143D01*
X153619048Y-140154762D01*
X153523810Y-140202381D01*
X153428571Y-140202381D01*
X153333333Y-140154762D01*
X153285714Y-140107143D01*
X153238095Y-140011905D01*
X153190476Y-139821429D01*
X153190476Y-139583333D01*
X153238095Y-139392857D01*
X153285714Y-139297619D01*
X153333333Y-139250000D01*
X153428571Y-139202381D01*
X151857143Y-141357143D02*
X151809524Y-141404762D01*
X151666667Y-141452381D01*
X151571429Y-141452381D01*
X151428571Y-141404762D01*
X151333333Y-141309524D01*
X151285714Y-141214286D01*
X151238095Y-141023810D01*
X151238095Y-140880952D01*
X151285714Y-140690476D01*
X151333333Y-140595238D01*
X151428571Y-140500000D01*
X151571429Y-140452381D01*
X151666667Y-140452381D01*
X151809524Y-140500000D01*
X151857143Y-140547619D01*
X152238095Y-140547619D02*
X152285714Y-140500000D01*
X152380952Y-140452381D01*
X152619048Y-140452381D01*
X152714286Y-140500000D01*
X152761905Y-140547619D01*
X152809524Y-140642857D01*
X152809524Y-140738095D01*
X152761905Y-140880952D01*
X152190476Y-141452381D01*
X152809524Y-141452381D01*
X153761905Y-141452381D02*
X153190476Y-141452381D01*
X153476190Y-141452381D02*
X153476190Y-140452381D01*
X153380952Y-140595238D01*
X153285714Y-140690476D01*
X153190476Y-140738095D01*
X151357143Y-128607143D02*
X151309524Y-128654762D01*
X151166667Y-128702381D01*
X151071429Y-128702381D01*
X150928571Y-128654762D01*
X150833333Y-128559524D01*
X150785714Y-128464286D01*
X150738095Y-128273810D01*
X150738095Y-128130952D01*
X150785714Y-127940476D01*
X150833333Y-127845238D01*
X150928571Y-127750000D01*
X151071429Y-127702381D01*
X151166667Y-127702381D01*
X151309524Y-127750000D01*
X151357143Y-127797619D01*
X151738095Y-127797619D02*
X151785714Y-127750000D01*
X151880952Y-127702381D01*
X152119048Y-127702381D01*
X152214286Y-127750000D01*
X152261905Y-127797619D01*
X152309524Y-127892857D01*
X152309524Y-127988095D01*
X152261905Y-128130952D01*
X151690476Y-128702381D01*
X152309524Y-128702381D01*
X152690476Y-127797619D02*
X152738095Y-127750000D01*
X152833333Y-127702381D01*
X153071429Y-127702381D01*
X153166667Y-127750000D01*
X153214286Y-127797619D01*
X153261905Y-127892857D01*
X153261905Y-127988095D01*
X153214286Y-128130952D01*
X152642857Y-128702381D01*
X153261905Y-128702381D01*
X148857143Y-125857143D02*
X148809524Y-125904762D01*
X148666667Y-125952381D01*
X148571429Y-125952381D01*
X148428571Y-125904762D01*
X148333333Y-125809524D01*
X148285714Y-125714286D01*
X148238095Y-125523810D01*
X148238095Y-125380952D01*
X148285714Y-125190476D01*
X148333333Y-125095238D01*
X148428571Y-125000000D01*
X148571429Y-124952381D01*
X148666667Y-124952381D01*
X148809524Y-125000000D01*
X148857143Y-125047619D01*
X149238095Y-125047619D02*
X149285714Y-125000000D01*
X149380952Y-124952381D01*
X149619048Y-124952381D01*
X149714286Y-125000000D01*
X149761905Y-125047619D01*
X149809524Y-125142857D01*
X149809524Y-125238095D01*
X149761905Y-125380952D01*
X149190476Y-125952381D01*
X149809524Y-125952381D01*
X150142857Y-124952381D02*
X150761905Y-124952381D01*
X150428571Y-125333333D01*
X150571429Y-125333333D01*
X150666667Y-125380952D01*
X150714286Y-125428571D01*
X150761905Y-125523810D01*
X150761905Y-125761905D01*
X150714286Y-125857143D01*
X150666667Y-125904762D01*
X150571429Y-125952381D01*
X150285714Y-125952381D01*
X150190476Y-125904762D01*
X150142857Y-125857143D01*
X143357143Y-128357143D02*
X143309524Y-128404762D01*
X143166667Y-128452381D01*
X143071429Y-128452381D01*
X142928571Y-128404762D01*
X142833333Y-128309524D01*
X142785714Y-128214286D01*
X142738095Y-128023810D01*
X142738095Y-127880952D01*
X142785714Y-127690476D01*
X142833333Y-127595238D01*
X142928571Y-127500000D01*
X143071429Y-127452381D01*
X143166667Y-127452381D01*
X143309524Y-127500000D01*
X143357143Y-127547619D01*
X143738095Y-127547619D02*
X143785714Y-127500000D01*
X143880952Y-127452381D01*
X144119048Y-127452381D01*
X144214286Y-127500000D01*
X144261905Y-127547619D01*
X144309524Y-127642857D01*
X144309524Y-127738095D01*
X144261905Y-127880952D01*
X143690476Y-128452381D01*
X144309524Y-128452381D01*
X145166667Y-127785714D02*
X145166667Y-128452381D01*
X144928571Y-127404762D02*
X144690476Y-128119048D01*
X145309524Y-128119048D01*
X143357143Y-125857143D02*
X143309524Y-125904762D01*
X143166667Y-125952381D01*
X143071429Y-125952381D01*
X142928571Y-125904762D01*
X142833333Y-125809524D01*
X142785714Y-125714286D01*
X142738095Y-125523810D01*
X142738095Y-125380952D01*
X142785714Y-125190476D01*
X142833333Y-125095238D01*
X142928571Y-125000000D01*
X143071429Y-124952381D01*
X143166667Y-124952381D01*
X143309524Y-125000000D01*
X143357143Y-125047619D01*
X143738095Y-125047619D02*
X143785714Y-125000000D01*
X143880952Y-124952381D01*
X144119048Y-124952381D01*
X144214286Y-125000000D01*
X144261905Y-125047619D01*
X144309524Y-125142857D01*
X144309524Y-125238095D01*
X144261905Y-125380952D01*
X143690476Y-125952381D01*
X144309524Y-125952381D01*
X145214286Y-124952381D02*
X144738095Y-124952381D01*
X144690476Y-125428571D01*
X144738095Y-125380952D01*
X144833333Y-125333333D01*
X145071429Y-125333333D01*
X145166667Y-125380952D01*
X145214286Y-125428571D01*
X145261905Y-125523810D01*
X145261905Y-125761905D01*
X145214286Y-125857143D01*
X145166667Y-125904762D01*
X145071429Y-125952381D01*
X144833333Y-125952381D01*
X144738095Y-125904762D01*
X144690476Y-125857143D01*
X141857143Y-141892857D02*
X141904762Y-141940476D01*
X141952381Y-142083333D01*
X141952381Y-142178571D01*
X141904762Y-142321429D01*
X141809524Y-142416667D01*
X141714286Y-142464286D01*
X141523810Y-142511905D01*
X141380952Y-142511905D01*
X141190476Y-142464286D01*
X141095238Y-142416667D01*
X141000000Y-142321429D01*
X140952381Y-142178571D01*
X140952381Y-142083333D01*
X141000000Y-141940476D01*
X141047619Y-141892857D01*
X141047619Y-141511905D02*
X141000000Y-141464286D01*
X140952381Y-141369048D01*
X140952381Y-141130952D01*
X141000000Y-141035714D01*
X141047619Y-140988095D01*
X141142857Y-140940476D01*
X141238095Y-140940476D01*
X141380952Y-140988095D01*
X141952381Y-141559524D01*
X141952381Y-140940476D01*
X140952381Y-140083333D02*
X140952381Y-140273810D01*
X141000000Y-140369048D01*
X141047619Y-140416667D01*
X141190476Y-140511905D01*
X141380952Y-140559524D01*
X141761905Y-140559524D01*
X141857143Y-140511905D01*
X141904762Y-140464286D01*
X141952381Y-140369048D01*
X141952381Y-140178571D01*
X141904762Y-140083333D01*
X141857143Y-140035714D01*
X141761905Y-139988095D01*
X141523810Y-139988095D01*
X141428571Y-140035714D01*
X141380952Y-140083333D01*
X141333333Y-140178571D01*
X141333333Y-140369048D01*
X141380952Y-140464286D01*
X141428571Y-140511905D01*
X141523810Y-140559524D01*
X144857143Y-141892857D02*
X144904762Y-141940476D01*
X144952381Y-142083333D01*
X144952381Y-142178571D01*
X144904762Y-142321429D01*
X144809524Y-142416667D01*
X144714286Y-142464286D01*
X144523810Y-142511905D01*
X144380952Y-142511905D01*
X144190476Y-142464286D01*
X144095238Y-142416667D01*
X144000000Y-142321429D01*
X143952381Y-142178571D01*
X143952381Y-142083333D01*
X144000000Y-141940476D01*
X144047619Y-141892857D01*
X144047619Y-141511905D02*
X144000000Y-141464286D01*
X143952381Y-141369048D01*
X143952381Y-141130952D01*
X144000000Y-141035714D01*
X144047619Y-140988095D01*
X144142857Y-140940476D01*
X144238095Y-140940476D01*
X144380952Y-140988095D01*
X144952381Y-141559524D01*
X144952381Y-140940476D01*
X143952381Y-140607143D02*
X143952381Y-139940476D01*
X144952381Y-140369048D01*
X143357143Y-141892857D02*
X143404762Y-141940476D01*
X143452381Y-142083333D01*
X143452381Y-142178571D01*
X143404762Y-142321429D01*
X143309524Y-142416667D01*
X143214286Y-142464286D01*
X143023810Y-142511905D01*
X142880952Y-142511905D01*
X142690476Y-142464286D01*
X142595238Y-142416667D01*
X142500000Y-142321429D01*
X142452381Y-142178571D01*
X142452381Y-142083333D01*
X142500000Y-141940476D01*
X142547619Y-141892857D01*
X142547619Y-141511905D02*
X142500000Y-141464286D01*
X142452381Y-141369048D01*
X142452381Y-141130952D01*
X142500000Y-141035714D01*
X142547619Y-140988095D01*
X142642857Y-140940476D01*
X142738095Y-140940476D01*
X142880952Y-140988095D01*
X143452381Y-141559524D01*
X143452381Y-140940476D01*
X142880952Y-140369048D02*
X142833333Y-140464286D01*
X142785714Y-140511905D01*
X142690476Y-140559524D01*
X142642857Y-140559524D01*
X142547619Y-140511905D01*
X142500000Y-140464286D01*
X142452381Y-140369048D01*
X142452381Y-140178571D01*
X142500000Y-140083333D01*
X142547619Y-140035714D01*
X142642857Y-139988095D01*
X142690476Y-139988095D01*
X142785714Y-140035714D01*
X142833333Y-140083333D01*
X142880952Y-140178571D01*
X142880952Y-140369048D01*
X142928571Y-140464286D01*
X142976190Y-140511905D01*
X143071429Y-140559524D01*
X143261905Y-140559524D01*
X143357143Y-140511905D01*
X143404762Y-140464286D01*
X143452381Y-140369048D01*
X143452381Y-140178571D01*
X143404762Y-140083333D01*
X143357143Y-140035714D01*
X143261905Y-139988095D01*
X143071429Y-139988095D01*
X142976190Y-140035714D01*
X142928571Y-140083333D01*
X142880952Y-140178571D01*
X131511905Y-157702381D02*
X131511905Y-156702381D01*
X131892858Y-156702381D01*
X131988096Y-156750000D01*
X132035715Y-156797619D01*
X132083334Y-156892857D01*
X132083334Y-157035714D01*
X132035715Y-157130952D01*
X131988096Y-157178571D01*
X131892858Y-157226190D01*
X131511905Y-157226190D01*
X132416667Y-156702381D02*
X133035715Y-156702381D01*
X132702381Y-157083333D01*
X132845239Y-157083333D01*
X132940477Y-157130952D01*
X132988096Y-157178571D01*
X133035715Y-157273810D01*
X133035715Y-157511905D01*
X132988096Y-157607143D01*
X132940477Y-157654762D01*
X132845239Y-157702381D01*
X132559524Y-157702381D01*
X132464286Y-157654762D01*
X132416667Y-157607143D01*
X139261905Y-152452381D02*
X139261905Y-151452381D01*
X139642858Y-151452381D01*
X139738096Y-151500000D01*
X139785715Y-151547619D01*
X139833334Y-151642857D01*
X139833334Y-151785714D01*
X139785715Y-151880952D01*
X139738096Y-151928571D01*
X139642858Y-151976190D01*
X139261905Y-151976190D01*
X140690477Y-151785714D02*
X140690477Y-152452381D01*
X140452381Y-151404762D02*
X140214286Y-152119048D01*
X140833334Y-152119048D01*
X137404762Y-149047619D02*
X137309524Y-149000000D01*
X137214286Y-148904762D01*
X137071429Y-148761905D01*
X136976190Y-148714286D01*
X136880952Y-148714286D01*
X136928571Y-148952381D02*
X136833333Y-148904762D01*
X136738095Y-148809524D01*
X136690476Y-148619048D01*
X136690476Y-148285714D01*
X136738095Y-148095238D01*
X136833333Y-148000000D01*
X136928571Y-147952381D01*
X137119048Y-147952381D01*
X137214286Y-148000000D01*
X137309524Y-148095238D01*
X137357143Y-148285714D01*
X137357143Y-148619048D01*
X137309524Y-148809524D01*
X137214286Y-148904762D01*
X137119048Y-148952381D01*
X136928571Y-148952381D01*
X138309524Y-148952381D02*
X137738095Y-148952381D01*
X138023809Y-148952381D02*
X138023809Y-147952381D01*
X137928571Y-148095238D01*
X137833333Y-148190476D01*
X137738095Y-148238095D01*
X155333334Y-119202381D02*
X155000000Y-118726190D01*
X154761905Y-119202381D02*
X154761905Y-118202381D01*
X155142858Y-118202381D01*
X155238096Y-118250000D01*
X155285715Y-118297619D01*
X155333334Y-118392857D01*
X155333334Y-118535714D01*
X155285715Y-118630952D01*
X155238096Y-118678571D01*
X155142858Y-118726190D01*
X154761905Y-118726190D01*
X156285715Y-119202381D02*
X155714286Y-119202381D01*
X156000000Y-119202381D02*
X156000000Y-118202381D01*
X155904762Y-118345238D01*
X155809524Y-118440476D01*
X155714286Y-118488095D01*
X162083334Y-156452381D02*
X161750000Y-155976190D01*
X161511905Y-156452381D02*
X161511905Y-155452381D01*
X161892858Y-155452381D01*
X161988096Y-155500000D01*
X162035715Y-155547619D01*
X162083334Y-155642857D01*
X162083334Y-155785714D01*
X162035715Y-155880952D01*
X161988096Y-155928571D01*
X161892858Y-155976190D01*
X161511905Y-155976190D01*
X162464286Y-155547619D02*
X162511905Y-155500000D01*
X162607143Y-155452381D01*
X162845239Y-155452381D01*
X162940477Y-155500000D01*
X162988096Y-155547619D01*
X163035715Y-155642857D01*
X163035715Y-155738095D01*
X162988096Y-155880952D01*
X162416667Y-156452381D01*
X163035715Y-156452381D01*
X133833334Y-150952381D02*
X133500000Y-150476190D01*
X133261905Y-150952381D02*
X133261905Y-149952381D01*
X133642858Y-149952381D01*
X133738096Y-150000000D01*
X133785715Y-150047619D01*
X133833334Y-150142857D01*
X133833334Y-150285714D01*
X133785715Y-150380952D01*
X133738096Y-150428571D01*
X133642858Y-150476190D01*
X133261905Y-150476190D01*
X134166667Y-149952381D02*
X134785715Y-149952381D01*
X134452381Y-150333333D01*
X134595239Y-150333333D01*
X134690477Y-150380952D01*
X134738096Y-150428571D01*
X134785715Y-150523810D01*
X134785715Y-150761905D01*
X134738096Y-150857143D01*
X134690477Y-150904762D01*
X134595239Y-150952381D01*
X134309524Y-150952381D01*
X134214286Y-150904762D01*
X134166667Y-150857143D01*
X151083334Y-118202381D02*
X150750000Y-117726190D01*
X150511905Y-118202381D02*
X150511905Y-117202381D01*
X150892858Y-117202381D01*
X150988096Y-117250000D01*
X151035715Y-117297619D01*
X151083334Y-117392857D01*
X151083334Y-117535714D01*
X151035715Y-117630952D01*
X150988096Y-117678571D01*
X150892858Y-117726190D01*
X150511905Y-117726190D01*
X151940477Y-117535714D02*
X151940477Y-118202381D01*
X151702381Y-117154762D02*
X151464286Y-117869048D01*
X152083334Y-117869048D01*
X143952381Y-153666666D02*
X143476190Y-154000000D01*
X143952381Y-154238095D02*
X142952381Y-154238095D01*
X142952381Y-153857142D01*
X143000000Y-153761904D01*
X143047619Y-153714285D01*
X143142857Y-153666666D01*
X143285714Y-153666666D01*
X143380952Y-153714285D01*
X143428571Y-153761904D01*
X143476190Y-153857142D01*
X143476190Y-154238095D01*
X142952381Y-152761904D02*
X142952381Y-153238095D01*
X143428571Y-153285714D01*
X143380952Y-153238095D01*
X143333333Y-153142857D01*
X143333333Y-152904761D01*
X143380952Y-152809523D01*
X143428571Y-152761904D01*
X143523810Y-152714285D01*
X143761905Y-152714285D01*
X143857143Y-152761904D01*
X143904762Y-152809523D01*
X143952381Y-152904761D01*
X143952381Y-153142857D01*
X143904762Y-153238095D01*
X143857143Y-153285714D01*
X158833334Y-106702381D02*
X158500000Y-106226190D01*
X158261905Y-106702381D02*
X158261905Y-105702381D01*
X158642858Y-105702381D01*
X158738096Y-105750000D01*
X158785715Y-105797619D01*
X158833334Y-105892857D01*
X158833334Y-106035714D01*
X158785715Y-106130952D01*
X158738096Y-106178571D01*
X158642858Y-106226190D01*
X158261905Y-106226190D01*
X159404762Y-106130952D02*
X159309524Y-106083333D01*
X159261905Y-106035714D01*
X159214286Y-105940476D01*
X159214286Y-105892857D01*
X159261905Y-105797619D01*
X159309524Y-105750000D01*
X159404762Y-105702381D01*
X159595239Y-105702381D01*
X159690477Y-105750000D01*
X159738096Y-105797619D01*
X159785715Y-105892857D01*
X159785715Y-105940476D01*
X159738096Y-106035714D01*
X159690477Y-106083333D01*
X159595239Y-106130952D01*
X159404762Y-106130952D01*
X159309524Y-106178571D01*
X159261905Y-106226190D01*
X159214286Y-106321429D01*
X159214286Y-106511905D01*
X159261905Y-106607143D01*
X159309524Y-106654762D01*
X159404762Y-106702381D01*
X159595239Y-106702381D01*
X159690477Y-106654762D01*
X159738096Y-106607143D01*
X159785715Y-106511905D01*
X159785715Y-106321429D01*
X159738096Y-106226190D01*
X159690477Y-106178571D01*
X159595239Y-106130952D01*
X162202381Y-123166666D02*
X161726190Y-123500000D01*
X162202381Y-123738095D02*
X161202381Y-123738095D01*
X161202381Y-123357142D01*
X161250000Y-123261904D01*
X161297619Y-123214285D01*
X161392857Y-123166666D01*
X161535714Y-123166666D01*
X161630952Y-123214285D01*
X161678571Y-123261904D01*
X161726190Y-123357142D01*
X161726190Y-123738095D01*
X162202381Y-122690476D02*
X162202381Y-122500000D01*
X162154762Y-122404761D01*
X162107143Y-122357142D01*
X161964286Y-122261904D01*
X161773810Y-122214285D01*
X161392857Y-122214285D01*
X161297619Y-122261904D01*
X161250000Y-122309523D01*
X161202381Y-122404761D01*
X161202381Y-122595238D01*
X161250000Y-122690476D01*
X161297619Y-122738095D01*
X161392857Y-122785714D01*
X161630952Y-122785714D01*
X161726190Y-122738095D01*
X161773810Y-122690476D01*
X161821429Y-122595238D01*
X161821429Y-122404761D01*
X161773810Y-122309523D01*
X161726190Y-122261904D01*
X161630952Y-122214285D01*
X145607143Y-142952381D02*
X145273809Y-142476190D01*
X145035714Y-142952381D02*
X145035714Y-141952381D01*
X145416667Y-141952381D01*
X145511905Y-142000000D01*
X145559524Y-142047619D01*
X145607143Y-142142857D01*
X145607143Y-142285714D01*
X145559524Y-142380952D01*
X145511905Y-142428571D01*
X145416667Y-142476190D01*
X145035714Y-142476190D01*
X146559524Y-142952381D02*
X145988095Y-142952381D01*
X146273809Y-142952381D02*
X146273809Y-141952381D01*
X146178571Y-142095238D01*
X146083333Y-142190476D01*
X145988095Y-142238095D01*
X147178571Y-141952381D02*
X147273810Y-141952381D01*
X147369048Y-142000000D01*
X147416667Y-142047619D01*
X147464286Y-142142857D01*
X147511905Y-142333333D01*
X147511905Y-142571429D01*
X147464286Y-142761905D01*
X147416667Y-142857143D01*
X147369048Y-142904762D01*
X147273810Y-142952381D01*
X147178571Y-142952381D01*
X147083333Y-142904762D01*
X147035714Y-142857143D01*
X146988095Y-142761905D01*
X146940476Y-142571429D01*
X146940476Y-142333333D01*
X146988095Y-142142857D01*
X147035714Y-142047619D01*
X147083333Y-142000000D01*
X147178571Y-141952381D01*
X131702381Y-104892857D02*
X131226190Y-105226191D01*
X131702381Y-105464286D02*
X130702381Y-105464286D01*
X130702381Y-105083333D01*
X130750000Y-104988095D01*
X130797619Y-104940476D01*
X130892857Y-104892857D01*
X131035714Y-104892857D01*
X131130952Y-104940476D01*
X131178571Y-104988095D01*
X131226190Y-105083333D01*
X131226190Y-105464286D01*
X131702381Y-103940476D02*
X131702381Y-104511905D01*
X131702381Y-104226191D02*
X130702381Y-104226191D01*
X130845238Y-104321429D01*
X130940476Y-104416667D01*
X130988095Y-104511905D01*
X131702381Y-102988095D02*
X131702381Y-103559524D01*
X131702381Y-103273810D02*
X130702381Y-103273810D01*
X130845238Y-103369048D01*
X130940476Y-103464286D01*
X130988095Y-103559524D01*
X151857143Y-138952381D02*
X151523809Y-138476190D01*
X151285714Y-138952381D02*
X151285714Y-137952381D01*
X151666667Y-137952381D01*
X151761905Y-138000000D01*
X151809524Y-138047619D01*
X151857143Y-138142857D01*
X151857143Y-138285714D01*
X151809524Y-138380952D01*
X151761905Y-138428571D01*
X151666667Y-138476190D01*
X151285714Y-138476190D01*
X152809524Y-138952381D02*
X152238095Y-138952381D01*
X152523809Y-138952381D02*
X152523809Y-137952381D01*
X152428571Y-138095238D01*
X152333333Y-138190476D01*
X152238095Y-138238095D01*
X153190476Y-138047619D02*
X153238095Y-138000000D01*
X153333333Y-137952381D01*
X153571429Y-137952381D01*
X153666667Y-138000000D01*
X153714286Y-138047619D01*
X153761905Y-138142857D01*
X153761905Y-138238095D01*
X153714286Y-138380952D01*
X153142857Y-138952381D01*
X153761905Y-138952381D01*
X131857143Y-108702381D02*
X131523809Y-108226190D01*
X131285714Y-108702381D02*
X131285714Y-107702381D01*
X131666667Y-107702381D01*
X131761905Y-107750000D01*
X131809524Y-107797619D01*
X131857143Y-107892857D01*
X131857143Y-108035714D01*
X131809524Y-108130952D01*
X131761905Y-108178571D01*
X131666667Y-108226190D01*
X131285714Y-108226190D01*
X132809524Y-108702381D02*
X132238095Y-108702381D01*
X132523809Y-108702381D02*
X132523809Y-107702381D01*
X132428571Y-107845238D01*
X132333333Y-107940476D01*
X132238095Y-107988095D01*
X133142857Y-107702381D02*
X133761905Y-107702381D01*
X133428571Y-108083333D01*
X133571429Y-108083333D01*
X133666667Y-108130952D01*
X133714286Y-108178571D01*
X133761905Y-108273810D01*
X133761905Y-108511905D01*
X133714286Y-108607143D01*
X133666667Y-108654762D01*
X133571429Y-108702381D01*
X133285714Y-108702381D01*
X133190476Y-108654762D01*
X133142857Y-108607143D01*
X151357143Y-129952381D02*
X151023809Y-129476190D01*
X150785714Y-129952381D02*
X150785714Y-128952381D01*
X151166667Y-128952381D01*
X151261905Y-129000000D01*
X151309524Y-129047619D01*
X151357143Y-129142857D01*
X151357143Y-129285714D01*
X151309524Y-129380952D01*
X151261905Y-129428571D01*
X151166667Y-129476190D01*
X150785714Y-129476190D01*
X152309524Y-129952381D02*
X151738095Y-129952381D01*
X152023809Y-129952381D02*
X152023809Y-128952381D01*
X151928571Y-129095238D01*
X151833333Y-129190476D01*
X151738095Y-129238095D01*
X153166667Y-129285714D02*
X153166667Y-129952381D01*
X152928571Y-128904762D02*
X152690476Y-129619048D01*
X153309524Y-129619048D01*
X152857143Y-107202381D02*
X152523809Y-106726190D01*
X152285714Y-107202381D02*
X152285714Y-106202381D01*
X152666667Y-106202381D01*
X152761905Y-106250000D01*
X152809524Y-106297619D01*
X152857143Y-106392857D01*
X152857143Y-106535714D01*
X152809524Y-106630952D01*
X152761905Y-106678571D01*
X152666667Y-106726190D01*
X152285714Y-106726190D01*
X153809524Y-107202381D02*
X153238095Y-107202381D01*
X153523809Y-107202381D02*
X153523809Y-106202381D01*
X153428571Y-106345238D01*
X153333333Y-106440476D01*
X153238095Y-106488095D01*
X154714286Y-106202381D02*
X154238095Y-106202381D01*
X154190476Y-106678571D01*
X154238095Y-106630952D01*
X154333333Y-106583333D01*
X154571429Y-106583333D01*
X154666667Y-106630952D01*
X154714286Y-106678571D01*
X154761905Y-106773810D01*
X154761905Y-107011905D01*
X154714286Y-107107143D01*
X154666667Y-107154762D01*
X154571429Y-107202381D01*
X154333333Y-107202381D01*
X154238095Y-107154762D01*
X154190476Y-107107143D01*
X143357143Y-129952381D02*
X143023809Y-129476190D01*
X142785714Y-129952381D02*
X142785714Y-128952381D01*
X143166667Y-128952381D01*
X143261905Y-129000000D01*
X143309524Y-129047619D01*
X143357143Y-129142857D01*
X143357143Y-129285714D01*
X143309524Y-129380952D01*
X143261905Y-129428571D01*
X143166667Y-129476190D01*
X142785714Y-129476190D01*
X144309524Y-129952381D02*
X143738095Y-129952381D01*
X144023809Y-129952381D02*
X144023809Y-128952381D01*
X143928571Y-129095238D01*
X143833333Y-129190476D01*
X143738095Y-129238095D01*
X145166667Y-128952381D02*
X144976190Y-128952381D01*
X144880952Y-129000000D01*
X144833333Y-129047619D01*
X144738095Y-129190476D01*
X144690476Y-129380952D01*
X144690476Y-129761905D01*
X144738095Y-129857143D01*
X144785714Y-129904762D01*
X144880952Y-129952381D01*
X145071429Y-129952381D01*
X145166667Y-129904762D01*
X145214286Y-129857143D01*
X145261905Y-129761905D01*
X145261905Y-129523810D01*
X145214286Y-129428571D01*
X145166667Y-129380952D01*
X145071429Y-129333333D01*
X144880952Y-129333333D01*
X144785714Y-129380952D01*
X144738095Y-129428571D01*
X144690476Y-129523810D01*
X150107143Y-116702381D02*
X149773809Y-116226190D01*
X149535714Y-116702381D02*
X149535714Y-115702381D01*
X149916667Y-115702381D01*
X150011905Y-115750000D01*
X150059524Y-115797619D01*
X150107143Y-115892857D01*
X150107143Y-116035714D01*
X150059524Y-116130952D01*
X150011905Y-116178571D01*
X149916667Y-116226190D01*
X149535714Y-116226190D01*
X151059524Y-116702381D02*
X150488095Y-116702381D01*
X150773809Y-116702381D02*
X150773809Y-115702381D01*
X150678571Y-115845238D01*
X150583333Y-115940476D01*
X150488095Y-115988095D01*
X151392857Y-115702381D02*
X152059524Y-115702381D01*
X151630952Y-116702381D01*
X125107143Y-110952381D02*
X124773809Y-110476190D01*
X124535714Y-110952381D02*
X124535714Y-109952381D01*
X124916667Y-109952381D01*
X125011905Y-110000000D01*
X125059524Y-110047619D01*
X125107143Y-110142857D01*
X125107143Y-110285714D01*
X125059524Y-110380952D01*
X125011905Y-110428571D01*
X124916667Y-110476190D01*
X124535714Y-110476190D01*
X126059524Y-110952381D02*
X125488095Y-110952381D01*
X125773809Y-110952381D02*
X125773809Y-109952381D01*
X125678571Y-110095238D01*
X125583333Y-110190476D01*
X125488095Y-110238095D01*
X126630952Y-110380952D02*
X126535714Y-110333333D01*
X126488095Y-110285714D01*
X126440476Y-110190476D01*
X126440476Y-110142857D01*
X126488095Y-110047619D01*
X126535714Y-110000000D01*
X126630952Y-109952381D01*
X126821429Y-109952381D01*
X126916667Y-110000000D01*
X126964286Y-110047619D01*
X127011905Y-110142857D01*
X127011905Y-110190476D01*
X126964286Y-110285714D01*
X126916667Y-110333333D01*
X126821429Y-110380952D01*
X126630952Y-110380952D01*
X126535714Y-110428571D01*
X126488095Y-110476190D01*
X126440476Y-110571429D01*
X126440476Y-110761905D01*
X126488095Y-110857143D01*
X126535714Y-110904762D01*
X126630952Y-110952381D01*
X126821429Y-110952381D01*
X126916667Y-110904762D01*
X126964286Y-110857143D01*
X127011905Y-110761905D01*
X127011905Y-110571429D01*
X126964286Y-110476190D01*
X126916667Y-110428571D01*
X126821429Y-110380952D01*
X124852381Y-123042857D02*
X124376190Y-123376191D01*
X124852381Y-123614286D02*
X123852381Y-123614286D01*
X123852381Y-123233333D01*
X123900000Y-123138095D01*
X123947619Y-123090476D01*
X124042857Y-123042857D01*
X124185714Y-123042857D01*
X124280952Y-123090476D01*
X124328571Y-123138095D01*
X124376190Y-123233333D01*
X124376190Y-123614286D01*
X124852381Y-122090476D02*
X124852381Y-122661905D01*
X124852381Y-122376191D02*
X123852381Y-122376191D01*
X123995238Y-122471429D01*
X124090476Y-122566667D01*
X124138095Y-122661905D01*
X124852381Y-121614286D02*
X124852381Y-121423810D01*
X124804762Y-121328571D01*
X124757143Y-121280952D01*
X124614286Y-121185714D01*
X124423810Y-121138095D01*
X124042857Y-121138095D01*
X123947619Y-121185714D01*
X123900000Y-121233333D01*
X123852381Y-121328571D01*
X123852381Y-121519048D01*
X123900000Y-121614286D01*
X123947619Y-121661905D01*
X124042857Y-121709524D01*
X124280952Y-121709524D01*
X124376190Y-121661905D01*
X124423810Y-121614286D01*
X124471429Y-121519048D01*
X124471429Y-121328571D01*
X124423810Y-121233333D01*
X124376190Y-121185714D01*
X124280952Y-121138095D01*
X125757143Y-114452381D02*
X125423809Y-113976190D01*
X125185714Y-114452381D02*
X125185714Y-113452381D01*
X125566667Y-113452381D01*
X125661905Y-113500000D01*
X125709524Y-113547619D01*
X125757143Y-113642857D01*
X125757143Y-113785714D01*
X125709524Y-113880952D01*
X125661905Y-113928571D01*
X125566667Y-113976190D01*
X125185714Y-113976190D01*
X126138095Y-113547619D02*
X126185714Y-113500000D01*
X126280952Y-113452381D01*
X126519048Y-113452381D01*
X126614286Y-113500000D01*
X126661905Y-113547619D01*
X126709524Y-113642857D01*
X126709524Y-113738095D01*
X126661905Y-113880952D01*
X126090476Y-114452381D01*
X126709524Y-114452381D01*
X127280952Y-113880952D02*
X127185714Y-113833333D01*
X127138095Y-113785714D01*
X127090476Y-113690476D01*
X127090476Y-113642857D01*
X127138095Y-113547619D01*
X127185714Y-113500000D01*
X127280952Y-113452381D01*
X127471429Y-113452381D01*
X127566667Y-113500000D01*
X127614286Y-113547619D01*
X127661905Y-113642857D01*
X127661905Y-113690476D01*
X127614286Y-113785714D01*
X127566667Y-113833333D01*
X127471429Y-113880952D01*
X127280952Y-113880952D01*
X127185714Y-113928571D01*
X127138095Y-113976190D01*
X127090476Y-114071429D01*
X127090476Y-114261905D01*
X127138095Y-114357143D01*
X127185714Y-114404762D01*
X127280952Y-114452381D01*
X127471429Y-114452381D01*
X127566667Y-114404762D01*
X127614286Y-114357143D01*
X127661905Y-114261905D01*
X127661905Y-114071429D01*
X127614286Y-113976190D01*
X127566667Y-113928571D01*
X127471429Y-113880952D01*
X142952381Y-157511905D02*
X143761905Y-157511905D01*
X143857143Y-157464286D01*
X143904762Y-157416667D01*
X143952381Y-157321429D01*
X143952381Y-157130952D01*
X143904762Y-157035714D01*
X143857143Y-156988095D01*
X143761905Y-156940476D01*
X142952381Y-156940476D01*
X143285714Y-156035714D02*
X143952381Y-156035714D01*
X142904762Y-156273810D02*
X143619048Y-156511905D01*
X143619048Y-155892857D01*
X148357143Y-148907143D02*
X148309524Y-148954762D01*
X148166667Y-149002381D01*
X148071429Y-149002381D01*
X147928571Y-148954762D01*
X147833333Y-148859524D01*
X147785714Y-148764286D01*
X147738095Y-148573810D01*
X147738095Y-148430952D01*
X147785714Y-148240476D01*
X147833333Y-148145238D01*
X147928571Y-148050000D01*
X148071429Y-148002381D01*
X148166667Y-148002381D01*
X148309524Y-148050000D01*
X148357143Y-148097619D01*
X149309524Y-149002381D02*
X148738095Y-149002381D01*
X149023809Y-149002381D02*
X149023809Y-148002381D01*
X148928571Y-148145238D01*
X148833333Y-148240476D01*
X148738095Y-148288095D01*
X149690476Y-148097619D02*
X149738095Y-148050000D01*
X149833333Y-148002381D01*
X150071429Y-148002381D01*
X150166667Y-148050000D01*
X150214286Y-148097619D01*
X150261905Y-148192857D01*
X150261905Y-148288095D01*
X150214286Y-148430952D01*
X149642857Y-149002381D01*
X150261905Y-149002381D01*
X166357143Y-150857143D02*
X166309524Y-150904762D01*
X166166667Y-150952381D01*
X166071429Y-150952381D01*
X165928571Y-150904762D01*
X165833333Y-150809524D01*
X165785714Y-150714286D01*
X165738095Y-150523810D01*
X165738095Y-150380952D01*
X165785714Y-150190476D01*
X165833333Y-150095238D01*
X165928571Y-150000000D01*
X166071429Y-149952381D01*
X166166667Y-149952381D01*
X166309524Y-150000000D01*
X166357143Y-150047619D01*
X166738095Y-150047619D02*
X166785714Y-150000000D01*
X166880952Y-149952381D01*
X167119048Y-149952381D01*
X167214286Y-150000000D01*
X167261905Y-150047619D01*
X167309524Y-150142857D01*
X167309524Y-150238095D01*
X167261905Y-150380952D01*
X166690476Y-150952381D01*
X167309524Y-150952381D01*
X167785714Y-150952381D02*
X167976190Y-150952381D01*
X168071429Y-150904762D01*
X168119048Y-150857143D01*
X168214286Y-150714286D01*
X168261905Y-150523810D01*
X168261905Y-150142857D01*
X168214286Y-150047619D01*
X168166667Y-150000000D01*
X168071429Y-149952381D01*
X167880952Y-149952381D01*
X167785714Y-150000000D01*
X167738095Y-150047619D01*
X167690476Y-150142857D01*
X167690476Y-150380952D01*
X167738095Y-150476190D01*
X167785714Y-150523810D01*
X167880952Y-150571429D01*
X168071429Y-150571429D01*
X168166667Y-150523810D01*
X168214286Y-150476190D01*
X168261905Y-150380952D01*
X126738095Y-124154762D02*
X126880952Y-124202381D01*
X127119048Y-124202381D01*
X127214286Y-124154762D01*
X127261905Y-124107143D01*
X127309524Y-124011905D01*
X127309524Y-123916667D01*
X127261905Y-123821429D01*
X127214286Y-123773810D01*
X127119048Y-123726190D01*
X126928571Y-123678571D01*
X126833333Y-123630952D01*
X126785714Y-123583333D01*
X126738095Y-123488095D01*
X126738095Y-123392857D01*
X126785714Y-123297619D01*
X126833333Y-123250000D01*
X126928571Y-123202381D01*
X127166667Y-123202381D01*
X127309524Y-123250000D01*
X127738095Y-124202381D02*
X127738095Y-123202381D01*
X128119048Y-123202381D01*
X128214286Y-123250000D01*
X128261905Y-123297619D01*
X128309524Y-123392857D01*
X128309524Y-123535714D01*
X128261905Y-123630952D01*
X128214286Y-123678571D01*
X128119048Y-123726190D01*
X127738095Y-123726190D01*
X129261905Y-124202381D02*
X128690476Y-124202381D01*
X128976190Y-124202381D02*
X128976190Y-123202381D01*
X128880952Y-123345238D01*
X128785714Y-123440476D01*
X128690476Y-123488095D01*
X160666667Y-149904762D02*
X160809524Y-149952381D01*
X161047620Y-149952381D01*
X161142858Y-149904762D01*
X161190477Y-149857143D01*
X161238096Y-149761905D01*
X161238096Y-149666667D01*
X161190477Y-149571429D01*
X161142858Y-149523810D01*
X161047620Y-149476190D01*
X160857143Y-149428571D01*
X160761905Y-149380952D01*
X160714286Y-149333333D01*
X160666667Y-149238095D01*
X160666667Y-149142857D01*
X160714286Y-149047619D01*
X160761905Y-149000000D01*
X160857143Y-148952381D01*
X161095239Y-148952381D01*
X161238096Y-149000000D01*
X161571429Y-148952381D02*
X161809524Y-149952381D01*
X162000001Y-149238095D01*
X162190477Y-149952381D01*
X162428572Y-148952381D01*
X163333334Y-149952381D02*
X162761905Y-149952381D01*
X163047619Y-149952381D02*
X163047619Y-148952381D01*
X162952381Y-149095238D01*
X162857143Y-149190476D01*
X162761905Y-149238095D01*
X160547619Y-147702381D02*
X160214285Y-147226190D01*
X159976190Y-147702381D02*
X159976190Y-146702381D01*
X160357143Y-146702381D01*
X160452381Y-146750000D01*
X160500000Y-146797619D01*
X160547619Y-146892857D01*
X160547619Y-147035714D01*
X160500000Y-147130952D01*
X160452381Y-147178571D01*
X160357143Y-147226190D01*
X159976190Y-147226190D01*
X160976190Y-147178571D02*
X161309524Y-147178571D01*
X161452381Y-147702381D02*
X160976190Y-147702381D01*
X160976190Y-146702381D01*
X161452381Y-146702381D01*
X161833333Y-147654762D02*
X161976190Y-147702381D01*
X162214286Y-147702381D01*
X162309524Y-147654762D01*
X162357143Y-147607143D01*
X162404762Y-147511905D01*
X162404762Y-147416667D01*
X162357143Y-147321429D01*
X162309524Y-147273810D01*
X162214286Y-147226190D01*
X162023809Y-147178571D01*
X161928571Y-147130952D01*
X161880952Y-147083333D01*
X161833333Y-146988095D01*
X161833333Y-146892857D01*
X161880952Y-146797619D01*
X161928571Y-146750000D01*
X162023809Y-146702381D01*
X162261905Y-146702381D01*
X162404762Y-146750000D01*
X162833333Y-147178571D02*
X163166667Y-147178571D01*
X163309524Y-147702381D02*
X162833333Y-147702381D01*
X162833333Y-146702381D01*
X163309524Y-146702381D01*
X163595238Y-146702381D02*
X164166667Y-146702381D01*
X163880952Y-147702381D02*
X163880952Y-146702381D01*
X160666667Y-153904762D02*
X160809524Y-153952381D01*
X161047620Y-153952381D01*
X161142858Y-153904762D01*
X161190477Y-153857143D01*
X161238096Y-153761905D01*
X161238096Y-153666667D01*
X161190477Y-153571429D01*
X161142858Y-153523810D01*
X161047620Y-153476190D01*
X160857143Y-153428571D01*
X160761905Y-153380952D01*
X160714286Y-153333333D01*
X160666667Y-153238095D01*
X160666667Y-153142857D01*
X160714286Y-153047619D01*
X160761905Y-153000000D01*
X160857143Y-152952381D01*
X161095239Y-152952381D01*
X161238096Y-153000000D01*
X161571429Y-152952381D02*
X161809524Y-153952381D01*
X162000001Y-153238095D01*
X162190477Y-153952381D01*
X162428572Y-152952381D01*
X162714286Y-152952381D02*
X163333334Y-152952381D01*
X163000000Y-153333333D01*
X163142858Y-153333333D01*
X163238096Y-153380952D01*
X163285715Y-153428571D01*
X163333334Y-153523810D01*
X163333334Y-153761905D01*
X163285715Y-153857143D01*
X163238096Y-153904762D01*
X163142858Y-153952381D01*
X162857143Y-153952381D01*
X162761905Y-153904762D01*
X162714286Y-153857143D01*
X151916667Y-150404762D02*
X152059524Y-150452381D01*
X152297620Y-150452381D01*
X152392858Y-150404762D01*
X152440477Y-150357143D01*
X152488096Y-150261905D01*
X152488096Y-150166667D01*
X152440477Y-150071429D01*
X152392858Y-150023810D01*
X152297620Y-149976190D01*
X152107143Y-149928571D01*
X152011905Y-149880952D01*
X151964286Y-149833333D01*
X151916667Y-149738095D01*
X151916667Y-149642857D01*
X151964286Y-149547619D01*
X152011905Y-149500000D01*
X152107143Y-149452381D01*
X152345239Y-149452381D01*
X152488096Y-149500000D01*
X152821429Y-149452381D02*
X153059524Y-150452381D01*
X153250001Y-149738095D01*
X153440477Y-150452381D01*
X153678572Y-149452381D01*
X154011905Y-149547619D02*
X154059524Y-149500000D01*
X154154762Y-149452381D01*
X154392858Y-149452381D01*
X154488096Y-149500000D01*
X154535715Y-149547619D01*
X154583334Y-149642857D01*
X154583334Y-149738095D01*
X154535715Y-149880952D01*
X153964286Y-150452381D01*
X154583334Y-150452381D01*
X121452381Y-150238095D02*
X120452381Y-150238095D01*
X120452381Y-149857142D01*
X120500000Y-149761904D01*
X120547619Y-149714285D01*
X120642857Y-149666666D01*
X120785714Y-149666666D01*
X120880952Y-149714285D01*
X120928571Y-149761904D01*
X120976190Y-149857142D01*
X120976190Y-150238095D01*
X120547619Y-149285714D02*
X120500000Y-149238095D01*
X120452381Y-149142857D01*
X120452381Y-148904761D01*
X120500000Y-148809523D01*
X120547619Y-148761904D01*
X120642857Y-148714285D01*
X120738095Y-148714285D01*
X120880952Y-148761904D01*
X121452381Y-149333333D01*
X121452381Y-148714285D01*
X151848477Y-108574027D02*
X151276057Y-109146447D01*
X151242385Y-109247462D01*
X151242385Y-109314805D01*
X151276057Y-109415820D01*
X151410745Y-109550508D01*
X151511760Y-109584180D01*
X151579103Y-109584180D01*
X151680118Y-109550508D01*
X152252538Y-108978088D01*
X152252538Y-110392302D02*
X151848477Y-109988240D01*
X152050507Y-110190271D02*
X152757614Y-109483164D01*
X152589255Y-109516836D01*
X152454569Y-109516836D01*
X152353553Y-109483164D01*
X128643166Y-113510235D02*
X127658359Y-113336587D01*
X127699703Y-113102109D01*
X127771406Y-112969690D01*
X127881735Y-112892437D01*
X127983795Y-112862079D01*
X128179646Y-112848260D01*
X128320334Y-112873067D01*
X128499647Y-112953038D01*
X128585169Y-113016471D01*
X128662423Y-113126800D01*
X128684511Y-113275757D01*
X128643166Y-113510235D01*
X128234697Y-111987601D02*
X128891235Y-112103366D01*
X127818187Y-112155928D02*
X128480277Y-112514440D01*
X128587773Y-111904797D01*
X132054141Y-106514989D02*
X131966986Y-105518794D01*
X132204175Y-105498043D01*
X132350639Y-105533030D01*
X132453815Y-105619605D01*
X132509554Y-105710330D01*
X132573592Y-105895931D01*
X132586043Y-106038245D01*
X132555207Y-106232147D01*
X132516069Y-106331173D01*
X132429494Y-106434349D01*
X132291330Y-106494237D01*
X132054141Y-106514989D01*
X133097774Y-106423683D02*
X133287525Y-106407082D01*
X133378251Y-106351343D01*
X133421539Y-106299755D01*
X133503964Y-106149141D01*
X133534800Y-105955240D01*
X133501598Y-105575736D01*
X133445860Y-105485011D01*
X133394272Y-105441724D01*
X133295246Y-105402586D01*
X133105494Y-105419188D01*
X133014768Y-105474926D01*
X132971481Y-105526514D01*
X132932344Y-105625540D01*
X132953095Y-105862729D01*
X133008833Y-105953454D01*
X133060421Y-105996743D01*
X133159447Y-106035880D01*
X133349199Y-106019279D01*
X133439925Y-105963540D01*
X133483212Y-105911951D01*
X133522349Y-105812925D01*
X133304141Y-105014989D02*
X133216986Y-104018794D01*
X133454175Y-103998043D01*
X133600639Y-104033030D01*
X133703815Y-104119605D01*
X133759554Y-104210330D01*
X133823592Y-104395931D01*
X133836043Y-104538245D01*
X133805207Y-104732147D01*
X133766069Y-104831173D01*
X133679494Y-104934349D01*
X133541330Y-104994237D01*
X133304141Y-105014989D01*
X134687559Y-103890136D02*
X134213180Y-103931638D01*
X134207245Y-104410167D01*
X134250533Y-104358578D01*
X134341258Y-104302840D01*
X134578448Y-104282089D01*
X134677474Y-104321226D01*
X134729062Y-104364514D01*
X134784800Y-104455240D01*
X134805552Y-104692429D01*
X134766414Y-104791455D01*
X134723127Y-104843043D01*
X134632402Y-104898781D01*
X134395212Y-104919532D01*
X134296186Y-104880395D01*
X134244598Y-104837108D01*
X153225286Y-108886330D02*
X153312442Y-107890136D01*
X153549631Y-107910887D01*
X153687795Y-107970776D01*
X153774370Y-108073952D01*
X153813507Y-108172978D01*
X153844344Y-108366879D01*
X153831893Y-108509193D01*
X153767854Y-108694794D01*
X153712116Y-108785520D01*
X153608940Y-108872095D01*
X153462475Y-108907082D01*
X153225286Y-108886330D01*
X154735578Y-108014644D02*
X154545825Y-107998043D01*
X154446800Y-108037180D01*
X154395212Y-108080468D01*
X154287885Y-108214480D01*
X154223846Y-108400081D01*
X154190644Y-108779585D01*
X154229781Y-108878610D01*
X154273069Y-108930199D01*
X154363794Y-108985937D01*
X154553546Y-109002538D01*
X154652572Y-108963401D01*
X154704160Y-108920113D01*
X154759899Y-108829388D01*
X154780650Y-108592199D01*
X154741513Y-108493172D01*
X154698225Y-108441584D01*
X154607500Y-108385846D01*
X154417748Y-108369245D01*
X154318722Y-108408382D01*
X154267134Y-108451669D01*
X154211395Y-108542396D01*
X150475286Y-108636330D02*
X150562442Y-107640136D01*
X150799631Y-107660887D01*
X150937795Y-107720776D01*
X151024370Y-107823952D01*
X151063507Y-107922978D01*
X151094344Y-108116879D01*
X151081893Y-108259193D01*
X151017854Y-108444794D01*
X150962116Y-108535520D01*
X150858940Y-108622095D01*
X150712475Y-108657082D01*
X150475286Y-108636330D01*
X151463761Y-107718991D02*
X152080453Y-107772944D01*
X151715186Y-108123395D01*
X151857500Y-108135846D01*
X151948225Y-108191584D01*
X151991513Y-108243172D01*
X152030650Y-108342199D01*
X152009899Y-108579388D01*
X151954160Y-108670113D01*
X151902572Y-108713401D01*
X151803546Y-108752538D01*
X151518919Y-108727636D01*
X151428193Y-108671898D01*
X151384906Y-108620310D01*
X160351673Y-113573677D02*
X160178025Y-112588869D01*
X160412503Y-112547525D01*
X160561460Y-112569613D01*
X160671789Y-112646866D01*
X160735222Y-112732389D01*
X160815194Y-112911702D01*
X160840001Y-113052390D01*
X160826181Y-113248241D01*
X160795823Y-113350301D01*
X160718570Y-113460630D01*
X160586151Y-113532332D01*
X160351673Y-113573677D01*
X161069042Y-112431759D02*
X161725581Y-112315994D01*
X161477168Y-113375222D01*
X122429371Y-113740987D02*
X122603019Y-112756180D01*
X122837497Y-112797524D01*
X122969916Y-112869227D01*
X123047169Y-112979556D01*
X123077527Y-113081616D01*
X123091346Y-113277467D01*
X123066539Y-113418155D01*
X122986568Y-113597468D01*
X122923135Y-113682990D01*
X122812806Y-113760244D01*
X122663849Y-113782332D01*
X122429371Y-113740987D01*
X123524394Y-113015350D02*
X123579558Y-112976723D01*
X123681618Y-112946366D01*
X123916097Y-112987711D01*
X124001619Y-113051144D01*
X124040246Y-113106309D01*
X124070603Y-113208369D01*
X124054066Y-113302160D01*
X123982363Y-113434578D01*
X123320388Y-113898098D01*
X123930031Y-114005594D01*
X159851673Y-112073677D02*
X159678025Y-111088869D01*
X159912503Y-111047525D01*
X160061460Y-111069613D01*
X160171789Y-111146866D01*
X160235222Y-111232389D01*
X160315194Y-111411702D01*
X160340001Y-111552390D01*
X160326181Y-111748241D01*
X160295823Y-111850301D01*
X160218570Y-111960630D01*
X160086151Y-112032332D01*
X159851673Y-112073677D01*
X160877940Y-111312474D02*
X160775880Y-111282117D01*
X160720716Y-111243490D01*
X160657282Y-111157968D01*
X160649013Y-111111072D01*
X160679371Y-111009012D01*
X160717998Y-110953848D01*
X160803520Y-110890414D01*
X160991103Y-110857338D01*
X161093163Y-110887696D01*
X161148328Y-110926323D01*
X161211761Y-111011845D01*
X161220030Y-111058740D01*
X161189672Y-111160800D01*
X161151046Y-111215965D01*
X161065524Y-111279398D01*
X160877940Y-111312474D01*
X160792418Y-111375908D01*
X160753792Y-111431072D01*
X160723434Y-111533133D01*
X160756510Y-111720716D01*
X160819943Y-111806238D01*
X160875108Y-111844864D01*
X160977168Y-111875222D01*
X161164751Y-111842146D01*
X161250273Y-111778713D01*
X161288900Y-111723548D01*
X161319258Y-111621488D01*
X161286182Y-111433906D01*
X161222748Y-111348383D01*
X161167584Y-111309756D01*
X161065524Y-111279398D01*
X136333334Y-141952381D02*
X136000000Y-141476190D01*
X135761905Y-141952381D02*
X135761905Y-140952381D01*
X136142858Y-140952381D01*
X136238096Y-141000000D01*
X136285715Y-141047619D01*
X136333334Y-141142857D01*
X136333334Y-141285714D01*
X136285715Y-141380952D01*
X136238096Y-141428571D01*
X136142858Y-141476190D01*
X135761905Y-141476190D01*
X137190477Y-140952381D02*
X137000000Y-140952381D01*
X136904762Y-141000000D01*
X136857143Y-141047619D01*
X136761905Y-141190476D01*
X136714286Y-141380952D01*
X136714286Y-141761905D01*
X136761905Y-141857143D01*
X136809524Y-141904762D01*
X136904762Y-141952381D01*
X137095239Y-141952381D01*
X137190477Y-141904762D01*
X137238096Y-141857143D01*
X137285715Y-141761905D01*
X137285715Y-141523810D01*
X137238096Y-141428571D01*
X137190477Y-141380952D01*
X137095239Y-141333333D01*
X136904762Y-141333333D01*
X136809524Y-141380952D01*
X136761905Y-141428571D01*
X136714286Y-141523810D01*
X139333334Y-138952381D02*
X139000000Y-138476190D01*
X138761905Y-138952381D02*
X138761905Y-137952381D01*
X139142858Y-137952381D01*
X139238096Y-138000000D01*
X139285715Y-138047619D01*
X139333334Y-138142857D01*
X139333334Y-138285714D01*
X139285715Y-138380952D01*
X139238096Y-138428571D01*
X139142858Y-138476190D01*
X138761905Y-138476190D01*
X139666667Y-137952381D02*
X140333334Y-137952381D01*
X139904762Y-138952381D01*
X152238095Y-123952381D02*
X152238095Y-124761905D01*
X152285714Y-124857143D01*
X152333333Y-124904762D01*
X152428571Y-124952381D01*
X152619048Y-124952381D01*
X152714286Y-124904762D01*
X152761905Y-124857143D01*
X152809524Y-124761905D01*
X152809524Y-123952381D01*
X153238095Y-124047619D02*
X153285714Y-124000000D01*
X153380952Y-123952381D01*
X153619048Y-123952381D01*
X153714286Y-124000000D01*
X153761905Y-124047619D01*
X153809524Y-124142857D01*
X153809524Y-124238095D01*
X153761905Y-124380952D01*
X153190476Y-124952381D01*
X153809524Y-124952381D01*
X132238095Y-142952381D02*
X132238095Y-143761905D01*
X132285714Y-143857143D01*
X132333333Y-143904762D01*
X132428571Y-143952381D01*
X132619048Y-143952381D01*
X132714286Y-143904762D01*
X132761905Y-143857143D01*
X132809524Y-143761905D01*
X132809524Y-142952381D01*
X133190476Y-142952381D02*
X133809524Y-142952381D01*
X133476190Y-143333333D01*
X133619048Y-143333333D01*
X133714286Y-143380952D01*
X133761905Y-143428571D01*
X133809524Y-143523810D01*
X133809524Y-143761905D01*
X133761905Y-143857143D01*
X133714286Y-143904762D01*
X133619048Y-143952381D01*
X133333333Y-143952381D01*
X133238095Y-143904762D01*
X133190476Y-143857143D01*
X142238095Y-130452381D02*
X142238095Y-131261905D01*
X142285714Y-131357143D01*
X142333333Y-131404762D01*
X142428571Y-131452381D01*
X142619048Y-131452381D01*
X142714286Y-131404762D01*
X142761905Y-131357143D01*
X142809524Y-131261905D01*
X142809524Y-130452381D01*
X143190476Y-130452381D02*
X143857143Y-130452381D01*
X143428571Y-131452381D01*
M02*
