G04 #@! TF.FileFunction,Legend,Bot*
%FSLAX46Y46*%
G04 Gerber Fmt 4.6, Leading zero omitted, Abs format (unit mm)*
G04 Created by KiCad (PCBNEW 4.0.1-stable) date 2016/12/28 23:00:58*
%MOMM*%
G01*
G04 APERTURE LIST*
%ADD10C,0.100000*%
%ADD11C,0.300000*%
%ADD12C,0.010000*%
G04 APERTURE END LIST*
D10*
D11*
X151878571Y-169607142D02*
X151950000Y-169535713D01*
X152021429Y-169392856D01*
X152021429Y-169035713D01*
X151950000Y-168892856D01*
X151878571Y-168821427D01*
X151735714Y-168749999D01*
X151592857Y-168749999D01*
X151378571Y-168821427D01*
X150521429Y-169678570D01*
X150521429Y-168749999D01*
X150521429Y-167107142D02*
X151521429Y-166321428D01*
X151521429Y-167107142D02*
X150521429Y-166321428D01*
X150521429Y-163821428D02*
X150521429Y-164678571D01*
X150521429Y-164249999D02*
X152021429Y-164249999D01*
X151807143Y-164392856D01*
X151664286Y-164535714D01*
X151592857Y-164678571D01*
X150592857Y-163250000D02*
X150521429Y-163035714D01*
X150521429Y-162678571D01*
X150592857Y-162535714D01*
X150664286Y-162464285D01*
X150807143Y-162392857D01*
X150950000Y-162392857D01*
X151092857Y-162464285D01*
X151164286Y-162535714D01*
X151235714Y-162678571D01*
X151307143Y-162964285D01*
X151378571Y-163107143D01*
X151450000Y-163178571D01*
X151592857Y-163250000D01*
X151735714Y-163250000D01*
X151878571Y-163178571D01*
X151950000Y-163107143D01*
X152021429Y-162964285D01*
X152021429Y-162607143D01*
X151950000Y-162392857D01*
X149478571Y-169499999D02*
X149550000Y-169428570D01*
X149621429Y-169285713D01*
X149621429Y-168928570D01*
X149550000Y-168785713D01*
X149478571Y-168714284D01*
X149335714Y-168642856D01*
X149192857Y-168642856D01*
X148978571Y-168714284D01*
X148121429Y-169571427D01*
X148121429Y-168642856D01*
X149621429Y-167714285D02*
X149621429Y-167571428D01*
X149550000Y-167428571D01*
X149478571Y-167357142D01*
X149335714Y-167285713D01*
X149050000Y-167214285D01*
X148692857Y-167214285D01*
X148407143Y-167285713D01*
X148264286Y-167357142D01*
X148192857Y-167428571D01*
X148121429Y-167571428D01*
X148121429Y-167714285D01*
X148192857Y-167857142D01*
X148264286Y-167928571D01*
X148407143Y-167999999D01*
X148692857Y-168071428D01*
X149050000Y-168071428D01*
X149335714Y-167999999D01*
X149478571Y-167928571D01*
X149550000Y-167857142D01*
X149621429Y-167714285D01*
X149621429Y-166285714D02*
X149621429Y-166142857D01*
X149550000Y-166000000D01*
X149478571Y-165928571D01*
X149335714Y-165857142D01*
X149050000Y-165785714D01*
X148692857Y-165785714D01*
X148407143Y-165857142D01*
X148264286Y-165928571D01*
X148192857Y-166000000D01*
X148121429Y-166142857D01*
X148121429Y-166285714D01*
X148192857Y-166428571D01*
X148264286Y-166500000D01*
X148407143Y-166571428D01*
X148692857Y-166642857D01*
X149050000Y-166642857D01*
X149335714Y-166571428D01*
X149478571Y-166500000D01*
X149550000Y-166428571D01*
X149621429Y-166285714D01*
X148121429Y-165142857D02*
X149121429Y-165142857D01*
X148978571Y-165142857D02*
X149050000Y-165071429D01*
X149121429Y-164928571D01*
X149121429Y-164714286D01*
X149050000Y-164571429D01*
X148907143Y-164500000D01*
X148121429Y-164500000D01*
X148907143Y-164500000D02*
X149050000Y-164428571D01*
X149121429Y-164285714D01*
X149121429Y-164071429D01*
X149050000Y-163928571D01*
X148907143Y-163857143D01*
X148121429Y-163857143D01*
X148550000Y-163214286D02*
X148550000Y-162500000D01*
X148121429Y-163357143D02*
X149621429Y-162857143D01*
X148121429Y-162357143D01*
X134121429Y-162392858D02*
X134050000Y-162464287D01*
X133978571Y-162607144D01*
X133978571Y-162964287D01*
X134050000Y-163107144D01*
X134121429Y-163178573D01*
X134264286Y-163250001D01*
X134407143Y-163250001D01*
X134621429Y-163178573D01*
X135478571Y-162321430D01*
X135478571Y-163250001D01*
X135478571Y-164892858D02*
X134478571Y-165678572D01*
X134478571Y-164892858D02*
X135478571Y-165678572D01*
X135478571Y-168178572D02*
X135478571Y-167321429D01*
X135478571Y-167750001D02*
X133978571Y-167750001D01*
X134192857Y-167607144D01*
X134335714Y-167464286D01*
X134407143Y-167321429D01*
X135407143Y-168750000D02*
X135478571Y-168964286D01*
X135478571Y-169321429D01*
X135407143Y-169464286D01*
X135335714Y-169535715D01*
X135192857Y-169607143D01*
X135050000Y-169607143D01*
X134907143Y-169535715D01*
X134835714Y-169464286D01*
X134764286Y-169321429D01*
X134692857Y-169035715D01*
X134621429Y-168892857D01*
X134550000Y-168821429D01*
X134407143Y-168750000D01*
X134264286Y-168750000D01*
X134121429Y-168821429D01*
X134050000Y-168892857D01*
X133978571Y-169035715D01*
X133978571Y-169392857D01*
X134050000Y-169607143D01*
X136521429Y-162500001D02*
X136450000Y-162571430D01*
X136378571Y-162714287D01*
X136378571Y-163071430D01*
X136450000Y-163214287D01*
X136521429Y-163285716D01*
X136664286Y-163357144D01*
X136807143Y-163357144D01*
X137021429Y-163285716D01*
X137878571Y-162428573D01*
X137878571Y-163357144D01*
X136378571Y-164285715D02*
X136378571Y-164428572D01*
X136450000Y-164571429D01*
X136521429Y-164642858D01*
X136664286Y-164714287D01*
X136950000Y-164785715D01*
X137307143Y-164785715D01*
X137592857Y-164714287D01*
X137735714Y-164642858D01*
X137807143Y-164571429D01*
X137878571Y-164428572D01*
X137878571Y-164285715D01*
X137807143Y-164142858D01*
X137735714Y-164071429D01*
X137592857Y-164000001D01*
X137307143Y-163928572D01*
X136950000Y-163928572D01*
X136664286Y-164000001D01*
X136521429Y-164071429D01*
X136450000Y-164142858D01*
X136378571Y-164285715D01*
X136378571Y-165714286D02*
X136378571Y-165857143D01*
X136450000Y-166000000D01*
X136521429Y-166071429D01*
X136664286Y-166142858D01*
X136950000Y-166214286D01*
X137307143Y-166214286D01*
X137592857Y-166142858D01*
X137735714Y-166071429D01*
X137807143Y-166000000D01*
X137878571Y-165857143D01*
X137878571Y-165714286D01*
X137807143Y-165571429D01*
X137735714Y-165500000D01*
X137592857Y-165428572D01*
X137307143Y-165357143D01*
X136950000Y-165357143D01*
X136664286Y-165428572D01*
X136521429Y-165500000D01*
X136450000Y-165571429D01*
X136378571Y-165714286D01*
X137878571Y-166857143D02*
X136878571Y-166857143D01*
X137021429Y-166857143D02*
X136950000Y-166928571D01*
X136878571Y-167071429D01*
X136878571Y-167285714D01*
X136950000Y-167428571D01*
X137092857Y-167500000D01*
X137878571Y-167500000D01*
X137092857Y-167500000D02*
X136950000Y-167571429D01*
X136878571Y-167714286D01*
X136878571Y-167928571D01*
X136950000Y-168071429D01*
X137092857Y-168142857D01*
X137878571Y-168142857D01*
X137450000Y-168785714D02*
X137450000Y-169500000D01*
X137878571Y-168642857D02*
X136378571Y-169142857D01*
X137878571Y-169642857D01*
X149514286Y-137404286D02*
X149514286Y-135604286D01*
X148485714Y-137404286D02*
X149257143Y-136375714D01*
X148485714Y-135604286D02*
X149514286Y-136632857D01*
X147714286Y-136461429D02*
X147114286Y-136461429D01*
X146857143Y-137404286D02*
X147714286Y-137404286D01*
X147714286Y-135604286D01*
X146857143Y-135604286D01*
X145057143Y-137404286D02*
X145657143Y-136547143D01*
X146085715Y-137404286D02*
X146085715Y-135604286D01*
X145400000Y-135604286D01*
X145228572Y-135690000D01*
X145142857Y-135775714D01*
X145057143Y-135947143D01*
X145057143Y-136204286D01*
X145142857Y-136375714D01*
X145228572Y-136461429D01*
X145400000Y-136547143D01*
X146085715Y-136547143D01*
X144285715Y-137404286D02*
X144285715Y-135604286D01*
X143514286Y-137318571D02*
X143257143Y-137404286D01*
X142828572Y-137404286D01*
X142657143Y-137318571D01*
X142571429Y-137232857D01*
X142485714Y-137061429D01*
X142485714Y-136890000D01*
X142571429Y-136718571D01*
X142657143Y-136632857D01*
X142828572Y-136547143D01*
X143171429Y-136461429D01*
X143342857Y-136375714D01*
X143428572Y-136290000D01*
X143514286Y-136118571D01*
X143514286Y-135947143D01*
X143428572Y-135775714D01*
X143342857Y-135690000D01*
X143171429Y-135604286D01*
X142742857Y-135604286D01*
X142485714Y-135690000D01*
X141714286Y-136461429D02*
X141114286Y-136461429D01*
X140857143Y-137404286D02*
X141714286Y-137404286D01*
X141714286Y-135604286D01*
X140857143Y-135604286D01*
X138885714Y-136204286D02*
X138457143Y-137404286D01*
X138028571Y-136204286D01*
X137428571Y-135775714D02*
X137342857Y-135690000D01*
X137171428Y-135604286D01*
X136742857Y-135604286D01*
X136571428Y-135690000D01*
X136485714Y-135775714D01*
X136399999Y-135947143D01*
X136399999Y-136118571D01*
X136485714Y-136375714D01*
X137514285Y-137404286D01*
X136399999Y-137404286D01*
X150371430Y-138595714D02*
X150285716Y-138510000D01*
X150114287Y-138424286D01*
X149685716Y-138424286D01*
X149514287Y-138510000D01*
X149428573Y-138595714D01*
X149342858Y-138767143D01*
X149342858Y-138938571D01*
X149428573Y-139195714D01*
X150457144Y-140224286D01*
X149342858Y-140224286D01*
X148228572Y-138424286D02*
X148057144Y-138424286D01*
X147885715Y-138510000D01*
X147800001Y-138595714D01*
X147714287Y-138767143D01*
X147628572Y-139110000D01*
X147628572Y-139538571D01*
X147714287Y-139881429D01*
X147800001Y-140052857D01*
X147885715Y-140138571D01*
X148057144Y-140224286D01*
X148228572Y-140224286D01*
X148400001Y-140138571D01*
X148485715Y-140052857D01*
X148571430Y-139881429D01*
X148657144Y-139538571D01*
X148657144Y-139110000D01*
X148571430Y-138767143D01*
X148485715Y-138595714D01*
X148400001Y-138510000D01*
X148228572Y-138424286D01*
X145914286Y-140224286D02*
X146942858Y-140224286D01*
X146428572Y-140224286D02*
X146428572Y-138424286D01*
X146600001Y-138681429D01*
X146771429Y-138852857D01*
X146942858Y-138938571D01*
X144371429Y-138424286D02*
X144714286Y-138424286D01*
X144885715Y-138510000D01*
X144971429Y-138595714D01*
X145142858Y-138852857D01*
X145228572Y-139195714D01*
X145228572Y-139881429D01*
X145142858Y-140052857D01*
X145057143Y-140138571D01*
X144885715Y-140224286D01*
X144542858Y-140224286D01*
X144371429Y-140138571D01*
X144285715Y-140052857D01*
X144200000Y-139881429D01*
X144200000Y-139452857D01*
X144285715Y-139281429D01*
X144371429Y-139195714D01*
X144542858Y-139110000D01*
X144885715Y-139110000D01*
X145057143Y-139195714D01*
X145142858Y-139281429D01*
X145228572Y-139452857D01*
X143428572Y-140052857D02*
X143342857Y-140138571D01*
X143428572Y-140224286D01*
X143514286Y-140138571D01*
X143428572Y-140052857D01*
X143428572Y-140224286D01*
X141628571Y-140224286D02*
X142657143Y-140224286D01*
X142142857Y-140224286D02*
X142142857Y-138424286D01*
X142314286Y-138681429D01*
X142485714Y-138852857D01*
X142657143Y-138938571D01*
X140942857Y-138595714D02*
X140857143Y-138510000D01*
X140685714Y-138424286D01*
X140257143Y-138424286D01*
X140085714Y-138510000D01*
X140000000Y-138595714D01*
X139914285Y-138767143D01*
X139914285Y-138938571D01*
X140000000Y-139195714D01*
X141028571Y-140224286D01*
X139914285Y-140224286D01*
X139142857Y-140052857D02*
X139057142Y-140138571D01*
X139142857Y-140224286D01*
X139228571Y-140138571D01*
X139142857Y-140052857D01*
X139142857Y-140224286D01*
X138371428Y-138595714D02*
X138285714Y-138510000D01*
X138114285Y-138424286D01*
X137685714Y-138424286D01*
X137514285Y-138510000D01*
X137428571Y-138595714D01*
X137342856Y-138767143D01*
X137342856Y-138938571D01*
X137428571Y-139195714D01*
X138457142Y-140224286D01*
X137342856Y-140224286D01*
X136314285Y-139195714D02*
X136485713Y-139110000D01*
X136571428Y-139024286D01*
X136657142Y-138852857D01*
X136657142Y-138767143D01*
X136571428Y-138595714D01*
X136485713Y-138510000D01*
X136314285Y-138424286D01*
X135971428Y-138424286D01*
X135799999Y-138510000D01*
X135714285Y-138595714D01*
X135628570Y-138767143D01*
X135628570Y-138852857D01*
X135714285Y-139024286D01*
X135799999Y-139110000D01*
X135971428Y-139195714D01*
X136314285Y-139195714D01*
X136485713Y-139281429D01*
X136571428Y-139367143D01*
X136657142Y-139538571D01*
X136657142Y-139881429D01*
X136571428Y-140052857D01*
X136485713Y-140138571D01*
X136314285Y-140224286D01*
X135971428Y-140224286D01*
X135799999Y-140138571D01*
X135714285Y-140052857D01*
X135628570Y-139881429D01*
X135628570Y-139538571D01*
X135714285Y-139367143D01*
X135799999Y-139281429D01*
X135971428Y-139195714D01*
D12*
G36*
X143904268Y-121646950D02*
X143317607Y-121658177D01*
X142784540Y-121676207D01*
X142299212Y-121701707D01*
X141855768Y-121735347D01*
X141448353Y-121777796D01*
X141071111Y-121829721D01*
X140718188Y-121891792D01*
X140383729Y-121964678D01*
X140061878Y-122049047D01*
X139862353Y-122108583D01*
X139719906Y-122155097D01*
X139580145Y-122204197D01*
X139465498Y-122247881D01*
X139429059Y-122263204D01*
X139344028Y-122299929D01*
X139219708Y-122352562D01*
X139072118Y-122414365D01*
X138917276Y-122478600D01*
X138901150Y-122485252D01*
X138697212Y-122574919D01*
X138457481Y-122689525D01*
X138196397Y-122821629D01*
X137928402Y-122963790D01*
X137667936Y-123108569D01*
X137486706Y-123214099D01*
X137371131Y-123289660D01*
X137224934Y-123395079D01*
X137061174Y-123519941D01*
X136892905Y-123653833D01*
X136733186Y-123786342D01*
X136595072Y-123907052D01*
X136491620Y-124005551D01*
X136482338Y-124015191D01*
X136326816Y-124182959D01*
X136181584Y-124349445D01*
X136039702Y-124523718D01*
X135894227Y-124714846D01*
X135738222Y-124931899D01*
X135564744Y-125183946D01*
X135402535Y-125426191D01*
X135362084Y-125501882D01*
X135319085Y-125604016D01*
X135301285Y-125654235D01*
X135256190Y-125775632D01*
X135200668Y-125904692D01*
X135179626Y-125948555D01*
X135136495Y-126029767D01*
X135108161Y-126064364D01*
X135085147Y-126060348D01*
X135069245Y-126041768D01*
X135004015Y-125999007D01*
X134891316Y-125975444D01*
X134739816Y-125969761D01*
X134558177Y-125980640D01*
X134355066Y-126006763D01*
X134139148Y-126046811D01*
X133919087Y-126099466D01*
X133703549Y-126163409D01*
X133501199Y-126237323D01*
X133354972Y-126302582D01*
X133219380Y-126387389D01*
X133072018Y-126508900D01*
X132929284Y-126651106D01*
X132807577Y-126797999D01*
X132738357Y-126904504D01*
X132631348Y-127144153D01*
X132580678Y-127378829D01*
X132585072Y-127619432D01*
X132629722Y-127831793D01*
X132670435Y-127963645D01*
X132713519Y-128072749D01*
X132767179Y-128172786D01*
X132839624Y-128277437D01*
X132939057Y-128400382D01*
X133042428Y-128519826D01*
X133216385Y-128704464D01*
X133389106Y-128856924D01*
X133580311Y-128995699D01*
X133735361Y-129097049D01*
X133867015Y-129175712D01*
X133992335Y-129239831D01*
X134128384Y-129297550D01*
X134292225Y-129357015D01*
X134442825Y-129407401D01*
X134582584Y-129451773D01*
X134679065Y-129477612D01*
X134745078Y-129487023D01*
X134793433Y-129482110D01*
X134825785Y-129470306D01*
X134884439Y-129429176D01*
X134897760Y-129368379D01*
X134896373Y-129352875D01*
X134876232Y-129292292D01*
X134822245Y-129256933D01*
X134782353Y-129244786D01*
X134414144Y-129136370D01*
X134096158Y-129013396D01*
X133819660Y-128871084D01*
X133575914Y-128704655D01*
X133356184Y-128509332D01*
X133267833Y-128416290D01*
X133113548Y-128238032D01*
X133000078Y-128084426D01*
X132921705Y-127942617D01*
X132872713Y-127799750D01*
X132847385Y-127642970D01*
X132840004Y-127459424D01*
X132840000Y-127454245D01*
X132843964Y-127323791D01*
X132860322Y-127224397D01*
X132895770Y-127127629D01*
X132936595Y-127044159D01*
X133031543Y-126896401D01*
X133157506Y-126750622D01*
X133297390Y-126624116D01*
X133434100Y-126534180D01*
X133446850Y-126527906D01*
X133618757Y-126449191D01*
X133752915Y-126394985D01*
X133863285Y-126359835D01*
X133900824Y-126350581D01*
X134137784Y-126300089D01*
X134334680Y-126266178D01*
X134508144Y-126246523D01*
X134674806Y-126238798D01*
X134702141Y-126238513D01*
X134827634Y-126234638D01*
X134934616Y-126225665D01*
X135005693Y-126213258D01*
X135019431Y-126208119D01*
X135038528Y-126205107D01*
X135042814Y-126228635D01*
X135030721Y-126285833D01*
X135000677Y-126383834D01*
X134951114Y-126529770D01*
X134944379Y-126549125D01*
X134812107Y-127008297D01*
X134737071Y-127465499D01*
X134719232Y-127925148D01*
X134758548Y-128391656D01*
X134854979Y-128869439D01*
X134920948Y-129102156D01*
X135039709Y-129455498D01*
X135175151Y-129795541D01*
X135333171Y-130134506D01*
X135519666Y-130484617D01*
X135740532Y-130858098D01*
X135859686Y-131048000D01*
X136036753Y-131319415D01*
X136201179Y-131556031D01*
X136363426Y-131770664D01*
X136533960Y-131976127D01*
X136723243Y-132185235D01*
X136941738Y-132410804D01*
X137104055Y-132572000D01*
X137414966Y-132871850D01*
X137695384Y-133130011D01*
X137951881Y-133351676D01*
X138191027Y-133542039D01*
X138419396Y-133706294D01*
X138643559Y-133849633D01*
X138870087Y-133977251D01*
X138906118Y-133996106D01*
X139112601Y-134092717D01*
X139302759Y-134161741D01*
X139470698Y-134202615D01*
X139610523Y-134214775D01*
X139716339Y-134197658D01*
X139782253Y-134150701D01*
X139802588Y-134081771D01*
X139796608Y-134030863D01*
X139771384Y-133996668D01*
X139715997Y-133973955D01*
X139619525Y-133957491D01*
X139520905Y-133946803D01*
X139364929Y-133920662D01*
X139203750Y-133870066D01*
X139028139Y-133790803D01*
X138828867Y-133678661D01*
X138596706Y-133529428D01*
X138576167Y-133515578D01*
X138380818Y-133379288D01*
X138194907Y-133239975D01*
X138009124Y-133089762D01*
X137814162Y-132920768D01*
X137600713Y-132725113D01*
X137359468Y-132494917D01*
X137285043Y-132422588D01*
X137026783Y-132162082D01*
X136791600Y-131904974D01*
X136571692Y-131641056D01*
X136359257Y-131360121D01*
X136146494Y-131051961D01*
X135925601Y-130706368D01*
X135743399Y-130405529D01*
X135632876Y-130203473D01*
X135517672Y-129964550D01*
X135402940Y-129702039D01*
X135293831Y-129429219D01*
X135195495Y-129159367D01*
X135113084Y-128905762D01*
X135051749Y-128681683D01*
X135024685Y-128552823D01*
X134969246Y-128080538D01*
X134967421Y-127615562D01*
X135019151Y-127166758D01*
X135034513Y-127086567D01*
X135066743Y-126958974D01*
X135118599Y-126789548D01*
X135185509Y-126591100D01*
X135262901Y-126376443D01*
X135346202Y-126158390D01*
X135430841Y-125949753D01*
X135485546Y-125822685D01*
X135622218Y-125552701D01*
X135799965Y-125261326D01*
X136009837Y-124959871D01*
X136242884Y-124659647D01*
X136490157Y-124371963D01*
X136742706Y-124108131D01*
X136991581Y-123879461D01*
X137081809Y-123805342D01*
X137211848Y-123703182D01*
X137332311Y-123610163D01*
X137432111Y-123534731D01*
X137500163Y-123485334D01*
X137514188Y-123475912D01*
X137633830Y-123403403D01*
X137792544Y-123313284D01*
X137978630Y-123211627D01*
X138180389Y-123104506D01*
X138386123Y-122997995D01*
X138584132Y-122898168D01*
X138762717Y-122811098D01*
X138910180Y-122742859D01*
X138995765Y-122706731D01*
X139138853Y-122649445D01*
X139276152Y-122592039D01*
X139389128Y-122542384D01*
X139444000Y-122516359D01*
X139544711Y-122472718D01*
X139690059Y-122419207D01*
X139866616Y-122360090D01*
X140060951Y-122299634D01*
X140259633Y-122242104D01*
X140449232Y-122191765D01*
X140521598Y-122174107D01*
X140876808Y-122102214D01*
X141288729Y-122040884D01*
X141755214Y-121990286D01*
X142274122Y-121950588D01*
X142843307Y-121921958D01*
X143460627Y-121904565D01*
X144030941Y-121898716D01*
X145196353Y-121895621D01*
X146004419Y-122017346D01*
X146391463Y-122080130D01*
X146728254Y-122145096D01*
X147024305Y-122214867D01*
X147289125Y-122292062D01*
X147532227Y-122379302D01*
X147763122Y-122479209D01*
X147870824Y-122531635D01*
X148018128Y-122603747D01*
X148179611Y-122679642D01*
X148325028Y-122745162D01*
X148351926Y-122756807D01*
X148496657Y-122824336D01*
X148654292Y-122906294D01*
X148785220Y-122981662D01*
X148905712Y-123055934D01*
X149052647Y-123146135D01*
X149201394Y-123237155D01*
X149260353Y-123273132D01*
X149469378Y-123405347D01*
X149643639Y-123528432D01*
X149799082Y-123655794D01*
X149951653Y-123800839D01*
X150117295Y-123976974D01*
X150177822Y-124044520D01*
X150393063Y-124296338D01*
X150573416Y-124531033D01*
X150727828Y-124763395D01*
X150865247Y-125008214D01*
X150994620Y-125280281D01*
X151124895Y-125594388D01*
X151142273Y-125638849D01*
X151208731Y-125813535D01*
X151253684Y-125941799D01*
X151279473Y-126032018D01*
X151288441Y-126092571D01*
X151282930Y-126131835D01*
X151281231Y-126135904D01*
X151270055Y-126207897D01*
X151297161Y-126264619D01*
X151324223Y-126336330D01*
X151344234Y-126457789D01*
X151357115Y-126619389D01*
X151362791Y-126811522D01*
X151361183Y-127024580D01*
X151352215Y-127248956D01*
X151335809Y-127475042D01*
X151311889Y-127693229D01*
X151308825Y-127716117D01*
X151283346Y-127891017D01*
X151256340Y-128056381D01*
X151230332Y-128198025D01*
X151207847Y-128301766D01*
X151198558Y-128335485D01*
X151167653Y-128450500D01*
X151139621Y-128584358D01*
X151128981Y-128649250D01*
X151108986Y-128744830D01*
X151072534Y-128878617D01*
X151024752Y-129033089D01*
X150970772Y-129190725D01*
X150969120Y-129195294D01*
X150908166Y-129366500D01*
X150845343Y-129547893D01*
X150788498Y-129716555D01*
X150749321Y-129837290D01*
X150708349Y-129950409D01*
X150645553Y-130102504D01*
X150567061Y-130279729D01*
X150479002Y-130468237D01*
X150389657Y-130649925D01*
X150209029Y-130998026D01*
X150040739Y-131301166D01*
X149877238Y-131570744D01*
X149710981Y-131818158D01*
X149534420Y-132054808D01*
X149340008Y-132292093D01*
X149185038Y-132469399D01*
X148945238Y-132727216D01*
X148710563Y-132955609D01*
X148464057Y-133169708D01*
X148188763Y-133384639D01*
X148025214Y-133504187D01*
X147867878Y-133614135D01*
X147727965Y-133703228D01*
X147595045Y-133775177D01*
X147458686Y-133833694D01*
X147308456Y-133882489D01*
X147133923Y-133925273D01*
X146924656Y-133965757D01*
X146670224Y-134007653D01*
X146563834Y-134024059D01*
X146473796Y-134055665D01*
X146429561Y-134109653D01*
X146436488Y-134175605D01*
X146465668Y-134214844D01*
X146526557Y-134252006D01*
X146605843Y-134274167D01*
X146677213Y-134276088D01*
X146707902Y-134263055D01*
X146740552Y-134253144D01*
X146819803Y-134235480D01*
X146933393Y-134212651D01*
X147055512Y-134189706D01*
X147380535Y-134115861D01*
X147652682Y-134021996D01*
X147875884Y-133906650D01*
X147945530Y-133859206D01*
X148188083Y-133680084D01*
X148389764Y-133528105D01*
X148558818Y-133396369D01*
X148703493Y-133277972D01*
X148832035Y-133166013D01*
X148952690Y-133053592D01*
X149073706Y-132933806D01*
X149170876Y-132833719D01*
X149414491Y-132571673D01*
X149628746Y-132322292D01*
X149821968Y-132073709D01*
X150002485Y-131814059D01*
X150178623Y-131531475D01*
X150358708Y-131214089D01*
X150518284Y-130913529D01*
X150613532Y-130727221D01*
X150705868Y-130541880D01*
X150789216Y-130370057D01*
X150857500Y-130224299D01*
X150904645Y-130117155D01*
X150908909Y-130106706D01*
X150966001Y-129977408D01*
X151011507Y-129901095D01*
X151043947Y-129880247D01*
X151044167Y-129880316D01*
X151154306Y-129888946D01*
X151288854Y-129856714D01*
X151371605Y-129820504D01*
X151464665Y-129781307D01*
X151590261Y-129739016D01*
X151722341Y-129702347D01*
X151731490Y-129700136D01*
X152008238Y-129610289D01*
X152284706Y-129476767D01*
X152550237Y-129307744D01*
X152794174Y-129111394D01*
X153005859Y-128895892D01*
X153174636Y-128669412D01*
X153248530Y-128536526D01*
X153336901Y-128320113D01*
X153381686Y-128115984D01*
X153384326Y-127993707D01*
X153134866Y-127993707D01*
X153107790Y-128233641D01*
X153044498Y-128426479D01*
X152927598Y-128622046D01*
X152762042Y-128816405D01*
X152558538Y-129001437D01*
X152327795Y-129169022D01*
X152080520Y-129311038D01*
X151827421Y-129419366D01*
X151674343Y-129465535D01*
X151544700Y-129500466D01*
X151427191Y-129536721D01*
X151341429Y-129568097D01*
X151322429Y-129576836D01*
X151222891Y-129621248D01*
X151138826Y-129646945D01*
X151085097Y-129650023D01*
X151074300Y-129641977D01*
X151079146Y-129604468D01*
X151100642Y-129528674D01*
X151129141Y-129445076D01*
X151171441Y-129328674D01*
X151223477Y-129185236D01*
X151274667Y-129043933D01*
X151279369Y-129030941D01*
X151319924Y-128908697D01*
X151350543Y-128797074D01*
X151365937Y-128715961D01*
X151366793Y-128702235D01*
X151376190Y-128619753D01*
X151398936Y-128513737D01*
X151412601Y-128464586D01*
X151435675Y-128381586D01*
X151457567Y-128286088D01*
X151479748Y-128169442D01*
X151503686Y-128022998D01*
X151530855Y-127838107D01*
X151562722Y-127606120D01*
X151577858Y-127492590D01*
X151601410Y-127303006D01*
X151615341Y-127152508D01*
X151620281Y-127021300D01*
X151616859Y-126889590D01*
X151605705Y-126737583D01*
X151602878Y-126706023D01*
X151591699Y-126566805D01*
X151585215Y-126450267D01*
X151583914Y-126368718D01*
X151588185Y-126334561D01*
X151625823Y-126330977D01*
X151704724Y-126341385D01*
X151808955Y-126362428D01*
X151922588Y-126390749D01*
X152029692Y-126422992D01*
X152062399Y-126434477D01*
X152305250Y-126552747D01*
X152533859Y-126718620D01*
X152737664Y-126921102D01*
X152906101Y-127149197D01*
X153028609Y-127391909D01*
X153055597Y-127468361D01*
X153117511Y-127734888D01*
X153134866Y-127993707D01*
X153384326Y-127993707D01*
X153386323Y-127901272D01*
X153368503Y-127738909D01*
X153293956Y-127420676D01*
X153170996Y-127121667D01*
X153022168Y-126878742D01*
X152873056Y-126706246D01*
X152687410Y-126539904D01*
X152478960Y-126388728D01*
X152261438Y-126261729D01*
X152048573Y-126167917D01*
X151862409Y-126117618D01*
X151753083Y-126100019D01*
X151672387Y-126082975D01*
X151612526Y-126058066D01*
X151565707Y-126016868D01*
X151524136Y-125950961D01*
X151480018Y-125851923D01*
X151425562Y-125711334D01*
X151383311Y-125599931D01*
X151247300Y-125260911D01*
X151113058Y-124967290D01*
X150972708Y-124705486D01*
X150818370Y-124461916D01*
X150642164Y-124222999D01*
X150449983Y-123991019D01*
X150192058Y-123707262D01*
X149956692Y-123478083D01*
X149743318Y-123302951D01*
X149644231Y-123235188D01*
X149548663Y-123174679D01*
X149419927Y-123093155D01*
X149275343Y-123001585D01*
X149140824Y-122916381D01*
X149001108Y-122829780D01*
X148864240Y-122748252D01*
X148746004Y-122681007D01*
X148662706Y-122637496D01*
X148332268Y-122482048D01*
X148046628Y-122350398D01*
X147797050Y-122239774D01*
X147574797Y-122147405D01*
X147371132Y-122070523D01*
X147177319Y-122006355D01*
X146984622Y-121952132D01*
X146784304Y-121905082D01*
X146567627Y-121862436D01*
X146325857Y-121821423D01*
X146050255Y-121779272D01*
X145876503Y-121753939D01*
X145032653Y-121632191D01*
X143904268Y-121646950D01*
X143904268Y-121646950D01*
G37*
X143904268Y-121646950D02*
X143317607Y-121658177D01*
X142784540Y-121676207D01*
X142299212Y-121701707D01*
X141855768Y-121735347D01*
X141448353Y-121777796D01*
X141071111Y-121829721D01*
X140718188Y-121891792D01*
X140383729Y-121964678D01*
X140061878Y-122049047D01*
X139862353Y-122108583D01*
X139719906Y-122155097D01*
X139580145Y-122204197D01*
X139465498Y-122247881D01*
X139429059Y-122263204D01*
X139344028Y-122299929D01*
X139219708Y-122352562D01*
X139072118Y-122414365D01*
X138917276Y-122478600D01*
X138901150Y-122485252D01*
X138697212Y-122574919D01*
X138457481Y-122689525D01*
X138196397Y-122821629D01*
X137928402Y-122963790D01*
X137667936Y-123108569D01*
X137486706Y-123214099D01*
X137371131Y-123289660D01*
X137224934Y-123395079D01*
X137061174Y-123519941D01*
X136892905Y-123653833D01*
X136733186Y-123786342D01*
X136595072Y-123907052D01*
X136491620Y-124005551D01*
X136482338Y-124015191D01*
X136326816Y-124182959D01*
X136181584Y-124349445D01*
X136039702Y-124523718D01*
X135894227Y-124714846D01*
X135738222Y-124931899D01*
X135564744Y-125183946D01*
X135402535Y-125426191D01*
X135362084Y-125501882D01*
X135319085Y-125604016D01*
X135301285Y-125654235D01*
X135256190Y-125775632D01*
X135200668Y-125904692D01*
X135179626Y-125948555D01*
X135136495Y-126029767D01*
X135108161Y-126064364D01*
X135085147Y-126060348D01*
X135069245Y-126041768D01*
X135004015Y-125999007D01*
X134891316Y-125975444D01*
X134739816Y-125969761D01*
X134558177Y-125980640D01*
X134355066Y-126006763D01*
X134139148Y-126046811D01*
X133919087Y-126099466D01*
X133703549Y-126163409D01*
X133501199Y-126237323D01*
X133354972Y-126302582D01*
X133219380Y-126387389D01*
X133072018Y-126508900D01*
X132929284Y-126651106D01*
X132807577Y-126797999D01*
X132738357Y-126904504D01*
X132631348Y-127144153D01*
X132580678Y-127378829D01*
X132585072Y-127619432D01*
X132629722Y-127831793D01*
X132670435Y-127963645D01*
X132713519Y-128072749D01*
X132767179Y-128172786D01*
X132839624Y-128277437D01*
X132939057Y-128400382D01*
X133042428Y-128519826D01*
X133216385Y-128704464D01*
X133389106Y-128856924D01*
X133580311Y-128995699D01*
X133735361Y-129097049D01*
X133867015Y-129175712D01*
X133992335Y-129239831D01*
X134128384Y-129297550D01*
X134292225Y-129357015D01*
X134442825Y-129407401D01*
X134582584Y-129451773D01*
X134679065Y-129477612D01*
X134745078Y-129487023D01*
X134793433Y-129482110D01*
X134825785Y-129470306D01*
X134884439Y-129429176D01*
X134897760Y-129368379D01*
X134896373Y-129352875D01*
X134876232Y-129292292D01*
X134822245Y-129256933D01*
X134782353Y-129244786D01*
X134414144Y-129136370D01*
X134096158Y-129013396D01*
X133819660Y-128871084D01*
X133575914Y-128704655D01*
X133356184Y-128509332D01*
X133267833Y-128416290D01*
X133113548Y-128238032D01*
X133000078Y-128084426D01*
X132921705Y-127942617D01*
X132872713Y-127799750D01*
X132847385Y-127642970D01*
X132840004Y-127459424D01*
X132840000Y-127454245D01*
X132843964Y-127323791D01*
X132860322Y-127224397D01*
X132895770Y-127127629D01*
X132936595Y-127044159D01*
X133031543Y-126896401D01*
X133157506Y-126750622D01*
X133297390Y-126624116D01*
X133434100Y-126534180D01*
X133446850Y-126527906D01*
X133618757Y-126449191D01*
X133752915Y-126394985D01*
X133863285Y-126359835D01*
X133900824Y-126350581D01*
X134137784Y-126300089D01*
X134334680Y-126266178D01*
X134508144Y-126246523D01*
X134674806Y-126238798D01*
X134702141Y-126238513D01*
X134827634Y-126234638D01*
X134934616Y-126225665D01*
X135005693Y-126213258D01*
X135019431Y-126208119D01*
X135038528Y-126205107D01*
X135042814Y-126228635D01*
X135030721Y-126285833D01*
X135000677Y-126383834D01*
X134951114Y-126529770D01*
X134944379Y-126549125D01*
X134812107Y-127008297D01*
X134737071Y-127465499D01*
X134719232Y-127925148D01*
X134758548Y-128391656D01*
X134854979Y-128869439D01*
X134920948Y-129102156D01*
X135039709Y-129455498D01*
X135175151Y-129795541D01*
X135333171Y-130134506D01*
X135519666Y-130484617D01*
X135740532Y-130858098D01*
X135859686Y-131048000D01*
X136036753Y-131319415D01*
X136201179Y-131556031D01*
X136363426Y-131770664D01*
X136533960Y-131976127D01*
X136723243Y-132185235D01*
X136941738Y-132410804D01*
X137104055Y-132572000D01*
X137414966Y-132871850D01*
X137695384Y-133130011D01*
X137951881Y-133351676D01*
X138191027Y-133542039D01*
X138419396Y-133706294D01*
X138643559Y-133849633D01*
X138870087Y-133977251D01*
X138906118Y-133996106D01*
X139112601Y-134092717D01*
X139302759Y-134161741D01*
X139470698Y-134202615D01*
X139610523Y-134214775D01*
X139716339Y-134197658D01*
X139782253Y-134150701D01*
X139802588Y-134081771D01*
X139796608Y-134030863D01*
X139771384Y-133996668D01*
X139715997Y-133973955D01*
X139619525Y-133957491D01*
X139520905Y-133946803D01*
X139364929Y-133920662D01*
X139203750Y-133870066D01*
X139028139Y-133790803D01*
X138828867Y-133678661D01*
X138596706Y-133529428D01*
X138576167Y-133515578D01*
X138380818Y-133379288D01*
X138194907Y-133239975D01*
X138009124Y-133089762D01*
X137814162Y-132920768D01*
X137600713Y-132725113D01*
X137359468Y-132494917D01*
X137285043Y-132422588D01*
X137026783Y-132162082D01*
X136791600Y-131904974D01*
X136571692Y-131641056D01*
X136359257Y-131360121D01*
X136146494Y-131051961D01*
X135925601Y-130706368D01*
X135743399Y-130405529D01*
X135632876Y-130203473D01*
X135517672Y-129964550D01*
X135402940Y-129702039D01*
X135293831Y-129429219D01*
X135195495Y-129159367D01*
X135113084Y-128905762D01*
X135051749Y-128681683D01*
X135024685Y-128552823D01*
X134969246Y-128080538D01*
X134967421Y-127615562D01*
X135019151Y-127166758D01*
X135034513Y-127086567D01*
X135066743Y-126958974D01*
X135118599Y-126789548D01*
X135185509Y-126591100D01*
X135262901Y-126376443D01*
X135346202Y-126158390D01*
X135430841Y-125949753D01*
X135485546Y-125822685D01*
X135622218Y-125552701D01*
X135799965Y-125261326D01*
X136009837Y-124959871D01*
X136242884Y-124659647D01*
X136490157Y-124371963D01*
X136742706Y-124108131D01*
X136991581Y-123879461D01*
X137081809Y-123805342D01*
X137211848Y-123703182D01*
X137332311Y-123610163D01*
X137432111Y-123534731D01*
X137500163Y-123485334D01*
X137514188Y-123475912D01*
X137633830Y-123403403D01*
X137792544Y-123313284D01*
X137978630Y-123211627D01*
X138180389Y-123104506D01*
X138386123Y-122997995D01*
X138584132Y-122898168D01*
X138762717Y-122811098D01*
X138910180Y-122742859D01*
X138995765Y-122706731D01*
X139138853Y-122649445D01*
X139276152Y-122592039D01*
X139389128Y-122542384D01*
X139444000Y-122516359D01*
X139544711Y-122472718D01*
X139690059Y-122419207D01*
X139866616Y-122360090D01*
X140060951Y-122299634D01*
X140259633Y-122242104D01*
X140449232Y-122191765D01*
X140521598Y-122174107D01*
X140876808Y-122102214D01*
X141288729Y-122040884D01*
X141755214Y-121990286D01*
X142274122Y-121950588D01*
X142843307Y-121921958D01*
X143460627Y-121904565D01*
X144030941Y-121898716D01*
X145196353Y-121895621D01*
X146004419Y-122017346D01*
X146391463Y-122080130D01*
X146728254Y-122145096D01*
X147024305Y-122214867D01*
X147289125Y-122292062D01*
X147532227Y-122379302D01*
X147763122Y-122479209D01*
X147870824Y-122531635D01*
X148018128Y-122603747D01*
X148179611Y-122679642D01*
X148325028Y-122745162D01*
X148351926Y-122756807D01*
X148496657Y-122824336D01*
X148654292Y-122906294D01*
X148785220Y-122981662D01*
X148905712Y-123055934D01*
X149052647Y-123146135D01*
X149201394Y-123237155D01*
X149260353Y-123273132D01*
X149469378Y-123405347D01*
X149643639Y-123528432D01*
X149799082Y-123655794D01*
X149951653Y-123800839D01*
X150117295Y-123976974D01*
X150177822Y-124044520D01*
X150393063Y-124296338D01*
X150573416Y-124531033D01*
X150727828Y-124763395D01*
X150865247Y-125008214D01*
X150994620Y-125280281D01*
X151124895Y-125594388D01*
X151142273Y-125638849D01*
X151208731Y-125813535D01*
X151253684Y-125941799D01*
X151279473Y-126032018D01*
X151288441Y-126092571D01*
X151282930Y-126131835D01*
X151281231Y-126135904D01*
X151270055Y-126207897D01*
X151297161Y-126264619D01*
X151324223Y-126336330D01*
X151344234Y-126457789D01*
X151357115Y-126619389D01*
X151362791Y-126811522D01*
X151361183Y-127024580D01*
X151352215Y-127248956D01*
X151335809Y-127475042D01*
X151311889Y-127693229D01*
X151308825Y-127716117D01*
X151283346Y-127891017D01*
X151256340Y-128056381D01*
X151230332Y-128198025D01*
X151207847Y-128301766D01*
X151198558Y-128335485D01*
X151167653Y-128450500D01*
X151139621Y-128584358D01*
X151128981Y-128649250D01*
X151108986Y-128744830D01*
X151072534Y-128878617D01*
X151024752Y-129033089D01*
X150970772Y-129190725D01*
X150969120Y-129195294D01*
X150908166Y-129366500D01*
X150845343Y-129547893D01*
X150788498Y-129716555D01*
X150749321Y-129837290D01*
X150708349Y-129950409D01*
X150645553Y-130102504D01*
X150567061Y-130279729D01*
X150479002Y-130468237D01*
X150389657Y-130649925D01*
X150209029Y-130998026D01*
X150040739Y-131301166D01*
X149877238Y-131570744D01*
X149710981Y-131818158D01*
X149534420Y-132054808D01*
X149340008Y-132292093D01*
X149185038Y-132469399D01*
X148945238Y-132727216D01*
X148710563Y-132955609D01*
X148464057Y-133169708D01*
X148188763Y-133384639D01*
X148025214Y-133504187D01*
X147867878Y-133614135D01*
X147727965Y-133703228D01*
X147595045Y-133775177D01*
X147458686Y-133833694D01*
X147308456Y-133882489D01*
X147133923Y-133925273D01*
X146924656Y-133965757D01*
X146670224Y-134007653D01*
X146563834Y-134024059D01*
X146473796Y-134055665D01*
X146429561Y-134109653D01*
X146436488Y-134175605D01*
X146465668Y-134214844D01*
X146526557Y-134252006D01*
X146605843Y-134274167D01*
X146677213Y-134276088D01*
X146707902Y-134263055D01*
X146740552Y-134253144D01*
X146819803Y-134235480D01*
X146933393Y-134212651D01*
X147055512Y-134189706D01*
X147380535Y-134115861D01*
X147652682Y-134021996D01*
X147875884Y-133906650D01*
X147945530Y-133859206D01*
X148188083Y-133680084D01*
X148389764Y-133528105D01*
X148558818Y-133396369D01*
X148703493Y-133277972D01*
X148832035Y-133166013D01*
X148952690Y-133053592D01*
X149073706Y-132933806D01*
X149170876Y-132833719D01*
X149414491Y-132571673D01*
X149628746Y-132322292D01*
X149821968Y-132073709D01*
X150002485Y-131814059D01*
X150178623Y-131531475D01*
X150358708Y-131214089D01*
X150518284Y-130913529D01*
X150613532Y-130727221D01*
X150705868Y-130541880D01*
X150789216Y-130370057D01*
X150857500Y-130224299D01*
X150904645Y-130117155D01*
X150908909Y-130106706D01*
X150966001Y-129977408D01*
X151011507Y-129901095D01*
X151043947Y-129880247D01*
X151044167Y-129880316D01*
X151154306Y-129888946D01*
X151288854Y-129856714D01*
X151371605Y-129820504D01*
X151464665Y-129781307D01*
X151590261Y-129739016D01*
X151722341Y-129702347D01*
X151731490Y-129700136D01*
X152008238Y-129610289D01*
X152284706Y-129476767D01*
X152550237Y-129307744D01*
X152794174Y-129111394D01*
X153005859Y-128895892D01*
X153174636Y-128669412D01*
X153248530Y-128536526D01*
X153336901Y-128320113D01*
X153381686Y-128115984D01*
X153384326Y-127993707D01*
X153134866Y-127993707D01*
X153107790Y-128233641D01*
X153044498Y-128426479D01*
X152927598Y-128622046D01*
X152762042Y-128816405D01*
X152558538Y-129001437D01*
X152327795Y-129169022D01*
X152080520Y-129311038D01*
X151827421Y-129419366D01*
X151674343Y-129465535D01*
X151544700Y-129500466D01*
X151427191Y-129536721D01*
X151341429Y-129568097D01*
X151322429Y-129576836D01*
X151222891Y-129621248D01*
X151138826Y-129646945D01*
X151085097Y-129650023D01*
X151074300Y-129641977D01*
X151079146Y-129604468D01*
X151100642Y-129528674D01*
X151129141Y-129445076D01*
X151171441Y-129328674D01*
X151223477Y-129185236D01*
X151274667Y-129043933D01*
X151279369Y-129030941D01*
X151319924Y-128908697D01*
X151350543Y-128797074D01*
X151365937Y-128715961D01*
X151366793Y-128702235D01*
X151376190Y-128619753D01*
X151398936Y-128513737D01*
X151412601Y-128464586D01*
X151435675Y-128381586D01*
X151457567Y-128286088D01*
X151479748Y-128169442D01*
X151503686Y-128022998D01*
X151530855Y-127838107D01*
X151562722Y-127606120D01*
X151577858Y-127492590D01*
X151601410Y-127303006D01*
X151615341Y-127152508D01*
X151620281Y-127021300D01*
X151616859Y-126889590D01*
X151605705Y-126737583D01*
X151602878Y-126706023D01*
X151591699Y-126566805D01*
X151585215Y-126450267D01*
X151583914Y-126368718D01*
X151588185Y-126334561D01*
X151625823Y-126330977D01*
X151704724Y-126341385D01*
X151808955Y-126362428D01*
X151922588Y-126390749D01*
X152029692Y-126422992D01*
X152062399Y-126434477D01*
X152305250Y-126552747D01*
X152533859Y-126718620D01*
X152737664Y-126921102D01*
X152906101Y-127149197D01*
X153028609Y-127391909D01*
X153055597Y-127468361D01*
X153117511Y-127734888D01*
X153134866Y-127993707D01*
X153384326Y-127993707D01*
X153386323Y-127901272D01*
X153368503Y-127738909D01*
X153293956Y-127420676D01*
X153170996Y-127121667D01*
X153022168Y-126878742D01*
X152873056Y-126706246D01*
X152687410Y-126539904D01*
X152478960Y-126388728D01*
X152261438Y-126261729D01*
X152048573Y-126167917D01*
X151862409Y-126117618D01*
X151753083Y-126100019D01*
X151672387Y-126082975D01*
X151612526Y-126058066D01*
X151565707Y-126016868D01*
X151524136Y-125950961D01*
X151480018Y-125851923D01*
X151425562Y-125711334D01*
X151383311Y-125599931D01*
X151247300Y-125260911D01*
X151113058Y-124967290D01*
X150972708Y-124705486D01*
X150818370Y-124461916D01*
X150642164Y-124222999D01*
X150449983Y-123991019D01*
X150192058Y-123707262D01*
X149956692Y-123478083D01*
X149743318Y-123302951D01*
X149644231Y-123235188D01*
X149548663Y-123174679D01*
X149419927Y-123093155D01*
X149275343Y-123001585D01*
X149140824Y-122916381D01*
X149001108Y-122829780D01*
X148864240Y-122748252D01*
X148746004Y-122681007D01*
X148662706Y-122637496D01*
X148332268Y-122482048D01*
X148046628Y-122350398D01*
X147797050Y-122239774D01*
X147574797Y-122147405D01*
X147371132Y-122070523D01*
X147177319Y-122006355D01*
X146984622Y-121952132D01*
X146784304Y-121905082D01*
X146567627Y-121862436D01*
X146325857Y-121821423D01*
X146050255Y-121779272D01*
X145876503Y-121753939D01*
X145032653Y-121632191D01*
X143904268Y-121646950D01*
G36*
X142893776Y-124032319D02*
X142688441Y-124038280D01*
X142523316Y-124047564D01*
X142469390Y-124052391D01*
X142215035Y-124084337D01*
X141930843Y-124129528D01*
X141629687Y-124185162D01*
X141324437Y-124248437D01*
X141027964Y-124316553D01*
X140753142Y-124386708D01*
X140512840Y-124456100D01*
X140330567Y-124517892D01*
X140034415Y-124643420D01*
X139731608Y-124797224D01*
X139439236Y-124969357D01*
X139174389Y-125149874D01*
X138986050Y-125300395D01*
X138822681Y-125453936D01*
X138678664Y-125614914D01*
X138544799Y-125795757D01*
X138411885Y-126008897D01*
X138270721Y-126266763D01*
X138270689Y-126266823D01*
X138104295Y-126610488D01*
X137979358Y-126927014D01*
X137892000Y-127228204D01*
X137838342Y-127525859D01*
X137828695Y-127611529D01*
X137814567Y-127769932D01*
X137809087Y-127889420D01*
X137813112Y-127990333D01*
X137827499Y-128093008D01*
X137853104Y-128217787D01*
X137854505Y-128224117D01*
X137889911Y-128357066D01*
X137941555Y-128516747D01*
X138004208Y-128690090D01*
X138072640Y-128864025D01*
X138141621Y-129025481D01*
X138205920Y-129161389D01*
X138260309Y-129258680D01*
X138278986Y-129284941D01*
X138334743Y-129359937D01*
X138421693Y-129485193D01*
X138539492Y-129660202D01*
X138687795Y-129884458D01*
X138693748Y-129893519D01*
X138737718Y-129949103D01*
X138811155Y-130030147D01*
X138905005Y-130127824D01*
X139010215Y-130233310D01*
X139117730Y-130337779D01*
X139218496Y-130432406D01*
X139303460Y-130508366D01*
X139363567Y-130556833D01*
X139387639Y-130569882D01*
X139423499Y-130585404D01*
X139491356Y-130625444D01*
X139550993Y-130664280D01*
X139637537Y-130717962D01*
X139694089Y-130738153D01*
X139736421Y-130729800D01*
X139744721Y-130725044D01*
X139770083Y-130712831D01*
X139784738Y-130721812D01*
X139790260Y-130761885D01*
X139788225Y-130842949D01*
X139781445Y-130955857D01*
X139785407Y-131332742D01*
X139846838Y-131693867D01*
X139965330Y-132038372D01*
X140140476Y-132365397D01*
X140371868Y-132674082D01*
X140659098Y-132963569D01*
X140784359Y-133069621D01*
X141038172Y-133237335D01*
X141335397Y-133366104D01*
X141673313Y-133454971D01*
X142011813Y-133500194D01*
X142299775Y-133520670D01*
X142537769Y-133532135D01*
X142723648Y-133534572D01*
X142855269Y-133527967D01*
X142930486Y-133512302D01*
X142940020Y-133507113D01*
X142995515Y-133490296D01*
X143107072Y-133478874D01*
X143275966Y-133472755D01*
X143436504Y-133471585D01*
X143625251Y-133470411D01*
X143774082Y-133464915D01*
X143902809Y-133452915D01*
X144031243Y-133432223D01*
X144179194Y-133400658D01*
X144267206Y-133379989D01*
X144657862Y-133263677D01*
X145001293Y-133111958D01*
X145299516Y-132923298D01*
X145554545Y-132696159D01*
X145768396Y-132429007D01*
X145943086Y-132120307D01*
X145955378Y-132093882D01*
X146030380Y-131895698D01*
X146088260Y-131674423D01*
X146124085Y-131453806D01*
X146126104Y-131408984D01*
X145886698Y-131408984D01*
X145843873Y-131709781D01*
X145742880Y-132000714D01*
X145583093Y-132284087D01*
X145529952Y-132359380D01*
X145335705Y-132576874D01*
X145093898Y-132771031D01*
X144814106Y-132936038D01*
X144505907Y-133066083D01*
X144240118Y-133142232D01*
X144123439Y-133167039D01*
X144015692Y-133184958D01*
X143903620Y-133196977D01*
X143773967Y-133204081D01*
X143613477Y-133207258D01*
X143408892Y-133207496D01*
X143366331Y-133207302D01*
X143133830Y-133207821D01*
X142957792Y-133212014D01*
X142839166Y-133219837D01*
X142778903Y-133231243D01*
X142771616Y-133236315D01*
X142733393Y-133249831D01*
X142646659Y-133257297D01*
X142522302Y-133259274D01*
X142371208Y-133256323D01*
X142204265Y-133249006D01*
X142032359Y-133237882D01*
X141866378Y-133223513D01*
X141717209Y-133206461D01*
X141595738Y-133187285D01*
X141531287Y-133172405D01*
X141331861Y-133108522D01*
X141171781Y-133039853D01*
X141030869Y-132956263D01*
X140895687Y-132853231D01*
X140640292Y-132619083D01*
X140435203Y-132378998D01*
X140271301Y-132120701D01*
X140142408Y-131839516D01*
X140109382Y-131748577D01*
X140085927Y-131664201D01*
X140069939Y-131571938D01*
X140059310Y-131457336D01*
X140051935Y-131305945D01*
X140048257Y-131193548D01*
X140044595Y-130975016D01*
X140050866Y-130800788D01*
X140071124Y-130655695D01*
X140109419Y-130524568D01*
X140169804Y-130392236D01*
X140256330Y-130243530D01*
X140334572Y-130121647D01*
X140494058Y-129892893D01*
X140646978Y-129709341D01*
X140806652Y-129559834D01*
X140986400Y-129433214D01*
X141199542Y-129318324D01*
X141401294Y-129228096D01*
X141562681Y-129162984D01*
X141675090Y-129124391D01*
X141742616Y-129111360D01*
X141769356Y-129122934D01*
X141767050Y-129142567D01*
X141771162Y-129211724D01*
X141832231Y-129286765D01*
X141948013Y-129365398D01*
X142023531Y-129404303D01*
X142220646Y-129508051D01*
X142435607Y-129637270D01*
X142642965Y-129776236D01*
X142735249Y-129844012D01*
X142873909Y-129949630D01*
X142894095Y-130237344D01*
X142906484Y-130388632D01*
X142921943Y-130541580D01*
X142937746Y-130670078D01*
X142942840Y-130704353D01*
X142995851Y-131078984D01*
X143037435Y-131459562D01*
X143065277Y-131822589D01*
X143075206Y-132048421D01*
X143081034Y-132219781D01*
X143088295Y-132340924D01*
X143098291Y-132421398D01*
X143112324Y-132470750D01*
X143131695Y-132498528D01*
X143137179Y-132502970D01*
X143205705Y-132528655D01*
X143261808Y-132500072D01*
X143304095Y-132421691D01*
X143331171Y-132297982D01*
X143341642Y-132133416D01*
X143334114Y-131932462D01*
X143329988Y-131884706D01*
X143304062Y-131612813D01*
X143282729Y-131395040D01*
X143265377Y-131225967D01*
X143251394Y-131100176D01*
X143240170Y-131012249D01*
X143231093Y-130956766D01*
X143223551Y-130928309D01*
X143221631Y-130924446D01*
X143213247Y-130886147D01*
X143201750Y-130799445D01*
X143188402Y-130675542D01*
X143174468Y-130525640D01*
X143168193Y-130450838D01*
X143132074Y-130005251D01*
X143252802Y-129985408D01*
X143385165Y-129938771D01*
X143531502Y-129843577D01*
X143683024Y-129706528D01*
X143811268Y-129559675D01*
X143904687Y-129425382D01*
X143950123Y-129321016D01*
X143947365Y-129247978D01*
X143896202Y-129207673D01*
X143865303Y-129201376D01*
X143818160Y-129205156D01*
X143771363Y-129234782D01*
X143713284Y-129299788D01*
X143662363Y-129367754D01*
X143522403Y-129538849D01*
X143389208Y-129654427D01*
X143258316Y-129717676D01*
X143151450Y-129732736D01*
X143096484Y-129732119D01*
X143050660Y-129727596D01*
X143004588Y-129714553D01*
X142948881Y-129688373D01*
X142874150Y-129644443D01*
X142771005Y-129578147D01*
X142630060Y-129484869D01*
X142581363Y-129452504D01*
X142444532Y-129364301D01*
X142308506Y-129281309D01*
X142190050Y-129213500D01*
X142113347Y-129174163D01*
X142025397Y-129131189D01*
X141961951Y-129095137D01*
X141940703Y-129078235D01*
X141958664Y-129058487D01*
X142029241Y-129034569D01*
X142145537Y-129007790D01*
X142300657Y-128979462D01*
X142487704Y-128950892D01*
X142699780Y-128923392D01*
X142838924Y-128907655D01*
X143035665Y-128887878D01*
X143189295Y-128876203D01*
X143315873Y-128872336D01*
X143431461Y-128875984D01*
X143552119Y-128886853D01*
X143608810Y-128893579D01*
X144003192Y-128971941D01*
X144375759Y-129105765D01*
X144724978Y-129294293D01*
X145049318Y-129536772D01*
X145204802Y-129681109D01*
X145337195Y-129819442D01*
X145438159Y-129943484D01*
X145523882Y-130075065D01*
X145597959Y-130211294D01*
X145693829Y-130409999D01*
X145763715Y-130587814D01*
X145814718Y-130767659D01*
X145853937Y-130972457D01*
X145871976Y-131096019D01*
X145886698Y-131408984D01*
X146126104Y-131408984D01*
X146132924Y-131257595D01*
X146132243Y-131242235D01*
X146122706Y-131062941D01*
X146316941Y-131015676D01*
X146477600Y-130968136D01*
X146664058Y-130899694D01*
X146858954Y-130817973D01*
X147044932Y-130730594D01*
X147204632Y-130645182D01*
X147302559Y-130582852D01*
X147436523Y-130475237D01*
X147594197Y-130330067D01*
X147764922Y-130158677D01*
X147938038Y-129972403D01*
X148102884Y-129782583D01*
X148248800Y-129600552D01*
X148328062Y-129492327D01*
X148422525Y-129340078D01*
X148526804Y-129142116D01*
X148635112Y-128910417D01*
X148741657Y-128656960D01*
X148782234Y-128552823D01*
X148819312Y-128427793D01*
X148854311Y-128260223D01*
X148884877Y-128067340D01*
X148908652Y-127866368D01*
X148923281Y-127674532D01*
X148924464Y-127611906D01*
X148676572Y-127611906D01*
X148665789Y-127842244D01*
X148636473Y-128107350D01*
X148614750Y-128248865D01*
X148587215Y-128372601D01*
X148548220Y-128497022D01*
X148492111Y-128640592D01*
X148427890Y-128788893D01*
X148320235Y-129020438D01*
X148218288Y-129212074D01*
X148110847Y-129381215D01*
X147986705Y-129545275D01*
X147834659Y-129721667D01*
X147810626Y-129748209D01*
X147713645Y-129856299D01*
X147625572Y-129957130D01*
X147558225Y-130037032D01*
X147530316Y-130072412D01*
X147450004Y-130157090D01*
X147328903Y-130254806D01*
X147178607Y-130358937D01*
X147010711Y-130462861D01*
X146836809Y-130559953D01*
X146668497Y-130643590D01*
X146517368Y-130707151D01*
X146395018Y-130744010D01*
X146343194Y-130750524D01*
X146263951Y-130763566D01*
X146182471Y-130790699D01*
X146092824Y-130829526D01*
X146040944Y-130647410D01*
X146005943Y-130545972D01*
X145950866Y-130410719D01*
X145883756Y-130260576D01*
X145823864Y-130136588D01*
X145733896Y-129966548D01*
X145649004Y-129830412D01*
X145553620Y-129706000D01*
X145432177Y-129571128D01*
X145412567Y-129550523D01*
X145103359Y-129269585D01*
X144760302Y-129035854D01*
X144389311Y-128852155D01*
X143996300Y-128721315D01*
X143587185Y-128646161D01*
X143502923Y-128637977D01*
X143298116Y-128632089D01*
X143050309Y-128642777D01*
X142773382Y-128668277D01*
X142481217Y-128706827D01*
X142187694Y-128756664D01*
X141906694Y-128816025D01*
X141715059Y-128865024D01*
X141561323Y-128913628D01*
X141386996Y-128977907D01*
X141208007Y-129051077D01*
X141040287Y-129126356D01*
X140899764Y-129196961D01*
X140811157Y-129249906D01*
X140657978Y-129373786D01*
X140493442Y-129538305D01*
X140327605Y-129730358D01*
X140170525Y-129936839D01*
X140032260Y-130144643D01*
X139922867Y-130340667D01*
X139859527Y-130489895D01*
X139831018Y-130564564D01*
X139811033Y-130599995D01*
X139804684Y-130593332D01*
X139779453Y-130552758D01*
X139713254Y-130492153D01*
X139616975Y-130421194D01*
X139593358Y-130405494D01*
X139316021Y-130198414D01*
X139066976Y-129955287D01*
X138836098Y-129665849D01*
X138771212Y-129571956D01*
X138682914Y-129441456D01*
X138601310Y-129322885D01*
X138534807Y-129228325D01*
X138491814Y-129169859D01*
X138488287Y-129165412D01*
X138445335Y-129096467D01*
X138389334Y-128984372D01*
X138325841Y-128842772D01*
X138260412Y-128685312D01*
X138198604Y-128525637D01*
X138145972Y-128377390D01*
X138108075Y-128254218D01*
X138095064Y-128199793D01*
X138078094Y-128055311D01*
X138073470Y-127863537D01*
X138079784Y-127666170D01*
X138102652Y-127421144D01*
X138146600Y-127190241D01*
X138216136Y-126958115D01*
X138315767Y-126709418D01*
X138433728Y-126461059D01*
X138612412Y-126133015D01*
X138797632Y-125854540D01*
X138999256Y-125615531D01*
X139227155Y-125405885D01*
X139491198Y-125215500D01*
X139801254Y-125034273D01*
X139855657Y-125005522D01*
X140065593Y-124899118D01*
X140251186Y-124813504D01*
X140429884Y-124742150D01*
X140619134Y-124678528D01*
X140836384Y-124616110D01*
X141033407Y-124564841D01*
X141365655Y-124484051D01*
X141657227Y-124420709D01*
X141923745Y-124372209D01*
X142180830Y-124335942D01*
X142444106Y-124309302D01*
X142656353Y-124293989D01*
X142837557Y-124285547D01*
X143052313Y-124280094D01*
X143290555Y-124277468D01*
X143542211Y-124277508D01*
X143797215Y-124280051D01*
X144045496Y-124284937D01*
X144276985Y-124292003D01*
X144481615Y-124301088D01*
X144649316Y-124312030D01*
X144770019Y-124324667D01*
X144792941Y-124328296D01*
X144899036Y-124346308D01*
X145039454Y-124369169D01*
X145189415Y-124392865D01*
X145241177Y-124400860D01*
X145409183Y-124430881D01*
X145596043Y-124470809D01*
X145766099Y-124512915D01*
X145794000Y-124520647D01*
X145954270Y-124571172D01*
X146139342Y-124637757D01*
X146337882Y-124715482D01*
X146538555Y-124799430D01*
X146730029Y-124884682D01*
X146900969Y-124966323D01*
X147040041Y-125039432D01*
X147135912Y-125099093D01*
X147147723Y-125108037D01*
X147242442Y-125180752D01*
X147362312Y-125269595D01*
X147483282Y-125356770D01*
X147497294Y-125366672D01*
X147716224Y-125540743D01*
X147928261Y-125745921D01*
X148121121Y-125968167D01*
X148282518Y-126193444D01*
X148391171Y-126388138D01*
X148442243Y-126511153D01*
X148498543Y-126669666D01*
X148552332Y-126840834D01*
X148586634Y-126964814D01*
X148637810Y-127191880D01*
X148667518Y-127401347D01*
X148676572Y-127611906D01*
X148924464Y-127611906D01*
X148926407Y-127509059D01*
X148926181Y-127500453D01*
X148911286Y-127346089D01*
X148877150Y-127153769D01*
X148828144Y-126940441D01*
X148768638Y-126723050D01*
X148703005Y-126518545D01*
X148635615Y-126343871D01*
X148617481Y-126303586D01*
X148488237Y-126068498D01*
X148319843Y-125834958D01*
X148105743Y-125594478D01*
X147954443Y-125445059D01*
X147856422Y-125354177D01*
X147758912Y-125269099D01*
X147651462Y-125181509D01*
X147523621Y-125083086D01*
X147364941Y-124965513D01*
X147216453Y-124857629D01*
X147092030Y-124781310D01*
X146920578Y-124695534D01*
X146713279Y-124604389D01*
X146481315Y-124511960D01*
X146235867Y-124422332D01*
X145988116Y-124339593D01*
X145749245Y-124267828D01*
X145530434Y-124211124D01*
X145345765Y-124174026D01*
X145205150Y-124150756D01*
X145042449Y-124122694D01*
X144901996Y-124097567D01*
X144784570Y-124081976D01*
X144617393Y-124068037D01*
X144410461Y-124055937D01*
X144173770Y-124045859D01*
X143917315Y-124037991D01*
X143651093Y-124032517D01*
X143385098Y-124029623D01*
X143129327Y-124029495D01*
X142893776Y-124032319D01*
X142893776Y-124032319D01*
G37*
X142893776Y-124032319D02*
X142688441Y-124038280D01*
X142523316Y-124047564D01*
X142469390Y-124052391D01*
X142215035Y-124084337D01*
X141930843Y-124129528D01*
X141629687Y-124185162D01*
X141324437Y-124248437D01*
X141027964Y-124316553D01*
X140753142Y-124386708D01*
X140512840Y-124456100D01*
X140330567Y-124517892D01*
X140034415Y-124643420D01*
X139731608Y-124797224D01*
X139439236Y-124969357D01*
X139174389Y-125149874D01*
X138986050Y-125300395D01*
X138822681Y-125453936D01*
X138678664Y-125614914D01*
X138544799Y-125795757D01*
X138411885Y-126008897D01*
X138270721Y-126266763D01*
X138270689Y-126266823D01*
X138104295Y-126610488D01*
X137979358Y-126927014D01*
X137892000Y-127228204D01*
X137838342Y-127525859D01*
X137828695Y-127611529D01*
X137814567Y-127769932D01*
X137809087Y-127889420D01*
X137813112Y-127990333D01*
X137827499Y-128093008D01*
X137853104Y-128217787D01*
X137854505Y-128224117D01*
X137889911Y-128357066D01*
X137941555Y-128516747D01*
X138004208Y-128690090D01*
X138072640Y-128864025D01*
X138141621Y-129025481D01*
X138205920Y-129161389D01*
X138260309Y-129258680D01*
X138278986Y-129284941D01*
X138334743Y-129359937D01*
X138421693Y-129485193D01*
X138539492Y-129660202D01*
X138687795Y-129884458D01*
X138693748Y-129893519D01*
X138737718Y-129949103D01*
X138811155Y-130030147D01*
X138905005Y-130127824D01*
X139010215Y-130233310D01*
X139117730Y-130337779D01*
X139218496Y-130432406D01*
X139303460Y-130508366D01*
X139363567Y-130556833D01*
X139387639Y-130569882D01*
X139423499Y-130585404D01*
X139491356Y-130625444D01*
X139550993Y-130664280D01*
X139637537Y-130717962D01*
X139694089Y-130738153D01*
X139736421Y-130729800D01*
X139744721Y-130725044D01*
X139770083Y-130712831D01*
X139784738Y-130721812D01*
X139790260Y-130761885D01*
X139788225Y-130842949D01*
X139781445Y-130955857D01*
X139785407Y-131332742D01*
X139846838Y-131693867D01*
X139965330Y-132038372D01*
X140140476Y-132365397D01*
X140371868Y-132674082D01*
X140659098Y-132963569D01*
X140784359Y-133069621D01*
X141038172Y-133237335D01*
X141335397Y-133366104D01*
X141673313Y-133454971D01*
X142011813Y-133500194D01*
X142299775Y-133520670D01*
X142537769Y-133532135D01*
X142723648Y-133534572D01*
X142855269Y-133527967D01*
X142930486Y-133512302D01*
X142940020Y-133507113D01*
X142995515Y-133490296D01*
X143107072Y-133478874D01*
X143275966Y-133472755D01*
X143436504Y-133471585D01*
X143625251Y-133470411D01*
X143774082Y-133464915D01*
X143902809Y-133452915D01*
X144031243Y-133432223D01*
X144179194Y-133400658D01*
X144267206Y-133379989D01*
X144657862Y-133263677D01*
X145001293Y-133111958D01*
X145299516Y-132923298D01*
X145554545Y-132696159D01*
X145768396Y-132429007D01*
X145943086Y-132120307D01*
X145955378Y-132093882D01*
X146030380Y-131895698D01*
X146088260Y-131674423D01*
X146124085Y-131453806D01*
X146126104Y-131408984D01*
X145886698Y-131408984D01*
X145843873Y-131709781D01*
X145742880Y-132000714D01*
X145583093Y-132284087D01*
X145529952Y-132359380D01*
X145335705Y-132576874D01*
X145093898Y-132771031D01*
X144814106Y-132936038D01*
X144505907Y-133066083D01*
X144240118Y-133142232D01*
X144123439Y-133167039D01*
X144015692Y-133184958D01*
X143903620Y-133196977D01*
X143773967Y-133204081D01*
X143613477Y-133207258D01*
X143408892Y-133207496D01*
X143366331Y-133207302D01*
X143133830Y-133207821D01*
X142957792Y-133212014D01*
X142839166Y-133219837D01*
X142778903Y-133231243D01*
X142771616Y-133236315D01*
X142733393Y-133249831D01*
X142646659Y-133257297D01*
X142522302Y-133259274D01*
X142371208Y-133256323D01*
X142204265Y-133249006D01*
X142032359Y-133237882D01*
X141866378Y-133223513D01*
X141717209Y-133206461D01*
X141595738Y-133187285D01*
X141531287Y-133172405D01*
X141331861Y-133108522D01*
X141171781Y-133039853D01*
X141030869Y-132956263D01*
X140895687Y-132853231D01*
X140640292Y-132619083D01*
X140435203Y-132378998D01*
X140271301Y-132120701D01*
X140142408Y-131839516D01*
X140109382Y-131748577D01*
X140085927Y-131664201D01*
X140069939Y-131571938D01*
X140059310Y-131457336D01*
X140051935Y-131305945D01*
X140048257Y-131193548D01*
X140044595Y-130975016D01*
X140050866Y-130800788D01*
X140071124Y-130655695D01*
X140109419Y-130524568D01*
X140169804Y-130392236D01*
X140256330Y-130243530D01*
X140334572Y-130121647D01*
X140494058Y-129892893D01*
X140646978Y-129709341D01*
X140806652Y-129559834D01*
X140986400Y-129433214D01*
X141199542Y-129318324D01*
X141401294Y-129228096D01*
X141562681Y-129162984D01*
X141675090Y-129124391D01*
X141742616Y-129111360D01*
X141769356Y-129122934D01*
X141767050Y-129142567D01*
X141771162Y-129211724D01*
X141832231Y-129286765D01*
X141948013Y-129365398D01*
X142023531Y-129404303D01*
X142220646Y-129508051D01*
X142435607Y-129637270D01*
X142642965Y-129776236D01*
X142735249Y-129844012D01*
X142873909Y-129949630D01*
X142894095Y-130237344D01*
X142906484Y-130388632D01*
X142921943Y-130541580D01*
X142937746Y-130670078D01*
X142942840Y-130704353D01*
X142995851Y-131078984D01*
X143037435Y-131459562D01*
X143065277Y-131822589D01*
X143075206Y-132048421D01*
X143081034Y-132219781D01*
X143088295Y-132340924D01*
X143098291Y-132421398D01*
X143112324Y-132470750D01*
X143131695Y-132498528D01*
X143137179Y-132502970D01*
X143205705Y-132528655D01*
X143261808Y-132500072D01*
X143304095Y-132421691D01*
X143331171Y-132297982D01*
X143341642Y-132133416D01*
X143334114Y-131932462D01*
X143329988Y-131884706D01*
X143304062Y-131612813D01*
X143282729Y-131395040D01*
X143265377Y-131225967D01*
X143251394Y-131100176D01*
X143240170Y-131012249D01*
X143231093Y-130956766D01*
X143223551Y-130928309D01*
X143221631Y-130924446D01*
X143213247Y-130886147D01*
X143201750Y-130799445D01*
X143188402Y-130675542D01*
X143174468Y-130525640D01*
X143168193Y-130450838D01*
X143132074Y-130005251D01*
X143252802Y-129985408D01*
X143385165Y-129938771D01*
X143531502Y-129843577D01*
X143683024Y-129706528D01*
X143811268Y-129559675D01*
X143904687Y-129425382D01*
X143950123Y-129321016D01*
X143947365Y-129247978D01*
X143896202Y-129207673D01*
X143865303Y-129201376D01*
X143818160Y-129205156D01*
X143771363Y-129234782D01*
X143713284Y-129299788D01*
X143662363Y-129367754D01*
X143522403Y-129538849D01*
X143389208Y-129654427D01*
X143258316Y-129717676D01*
X143151450Y-129732736D01*
X143096484Y-129732119D01*
X143050660Y-129727596D01*
X143004588Y-129714553D01*
X142948881Y-129688373D01*
X142874150Y-129644443D01*
X142771005Y-129578147D01*
X142630060Y-129484869D01*
X142581363Y-129452504D01*
X142444532Y-129364301D01*
X142308506Y-129281309D01*
X142190050Y-129213500D01*
X142113347Y-129174163D01*
X142025397Y-129131189D01*
X141961951Y-129095137D01*
X141940703Y-129078235D01*
X141958664Y-129058487D01*
X142029241Y-129034569D01*
X142145537Y-129007790D01*
X142300657Y-128979462D01*
X142487704Y-128950892D01*
X142699780Y-128923392D01*
X142838924Y-128907655D01*
X143035665Y-128887878D01*
X143189295Y-128876203D01*
X143315873Y-128872336D01*
X143431461Y-128875984D01*
X143552119Y-128886853D01*
X143608810Y-128893579D01*
X144003192Y-128971941D01*
X144375759Y-129105765D01*
X144724978Y-129294293D01*
X145049318Y-129536772D01*
X145204802Y-129681109D01*
X145337195Y-129819442D01*
X145438159Y-129943484D01*
X145523882Y-130075065D01*
X145597959Y-130211294D01*
X145693829Y-130409999D01*
X145763715Y-130587814D01*
X145814718Y-130767659D01*
X145853937Y-130972457D01*
X145871976Y-131096019D01*
X145886698Y-131408984D01*
X146126104Y-131408984D01*
X146132924Y-131257595D01*
X146132243Y-131242235D01*
X146122706Y-131062941D01*
X146316941Y-131015676D01*
X146477600Y-130968136D01*
X146664058Y-130899694D01*
X146858954Y-130817973D01*
X147044932Y-130730594D01*
X147204632Y-130645182D01*
X147302559Y-130582852D01*
X147436523Y-130475237D01*
X147594197Y-130330067D01*
X147764922Y-130158677D01*
X147938038Y-129972403D01*
X148102884Y-129782583D01*
X148248800Y-129600552D01*
X148328062Y-129492327D01*
X148422525Y-129340078D01*
X148526804Y-129142116D01*
X148635112Y-128910417D01*
X148741657Y-128656960D01*
X148782234Y-128552823D01*
X148819312Y-128427793D01*
X148854311Y-128260223D01*
X148884877Y-128067340D01*
X148908652Y-127866368D01*
X148923281Y-127674532D01*
X148924464Y-127611906D01*
X148676572Y-127611906D01*
X148665789Y-127842244D01*
X148636473Y-128107350D01*
X148614750Y-128248865D01*
X148587215Y-128372601D01*
X148548220Y-128497022D01*
X148492111Y-128640592D01*
X148427890Y-128788893D01*
X148320235Y-129020438D01*
X148218288Y-129212074D01*
X148110847Y-129381215D01*
X147986705Y-129545275D01*
X147834659Y-129721667D01*
X147810626Y-129748209D01*
X147713645Y-129856299D01*
X147625572Y-129957130D01*
X147558225Y-130037032D01*
X147530316Y-130072412D01*
X147450004Y-130157090D01*
X147328903Y-130254806D01*
X147178607Y-130358937D01*
X147010711Y-130462861D01*
X146836809Y-130559953D01*
X146668497Y-130643590D01*
X146517368Y-130707151D01*
X146395018Y-130744010D01*
X146343194Y-130750524D01*
X146263951Y-130763566D01*
X146182471Y-130790699D01*
X146092824Y-130829526D01*
X146040944Y-130647410D01*
X146005943Y-130545972D01*
X145950866Y-130410719D01*
X145883756Y-130260576D01*
X145823864Y-130136588D01*
X145733896Y-129966548D01*
X145649004Y-129830412D01*
X145553620Y-129706000D01*
X145432177Y-129571128D01*
X145412567Y-129550523D01*
X145103359Y-129269585D01*
X144760302Y-129035854D01*
X144389311Y-128852155D01*
X143996300Y-128721315D01*
X143587185Y-128646161D01*
X143502923Y-128637977D01*
X143298116Y-128632089D01*
X143050309Y-128642777D01*
X142773382Y-128668277D01*
X142481217Y-128706827D01*
X142187694Y-128756664D01*
X141906694Y-128816025D01*
X141715059Y-128865024D01*
X141561323Y-128913628D01*
X141386996Y-128977907D01*
X141208007Y-129051077D01*
X141040287Y-129126356D01*
X140899764Y-129196961D01*
X140811157Y-129249906D01*
X140657978Y-129373786D01*
X140493442Y-129538305D01*
X140327605Y-129730358D01*
X140170525Y-129936839D01*
X140032260Y-130144643D01*
X139922867Y-130340667D01*
X139859527Y-130489895D01*
X139831018Y-130564564D01*
X139811033Y-130599995D01*
X139804684Y-130593332D01*
X139779453Y-130552758D01*
X139713254Y-130492153D01*
X139616975Y-130421194D01*
X139593358Y-130405494D01*
X139316021Y-130198414D01*
X139066976Y-129955287D01*
X138836098Y-129665849D01*
X138771212Y-129571956D01*
X138682914Y-129441456D01*
X138601310Y-129322885D01*
X138534807Y-129228325D01*
X138491814Y-129169859D01*
X138488287Y-129165412D01*
X138445335Y-129096467D01*
X138389334Y-128984372D01*
X138325841Y-128842772D01*
X138260412Y-128685312D01*
X138198604Y-128525637D01*
X138145972Y-128377390D01*
X138108075Y-128254218D01*
X138095064Y-128199793D01*
X138078094Y-128055311D01*
X138073470Y-127863537D01*
X138079784Y-127666170D01*
X138102652Y-127421144D01*
X138146600Y-127190241D01*
X138216136Y-126958115D01*
X138315767Y-126709418D01*
X138433728Y-126461059D01*
X138612412Y-126133015D01*
X138797632Y-125854540D01*
X138999256Y-125615531D01*
X139227155Y-125405885D01*
X139491198Y-125215500D01*
X139801254Y-125034273D01*
X139855657Y-125005522D01*
X140065593Y-124899118D01*
X140251186Y-124813504D01*
X140429884Y-124742150D01*
X140619134Y-124678528D01*
X140836384Y-124616110D01*
X141033407Y-124564841D01*
X141365655Y-124484051D01*
X141657227Y-124420709D01*
X141923745Y-124372209D01*
X142180830Y-124335942D01*
X142444106Y-124309302D01*
X142656353Y-124293989D01*
X142837557Y-124285547D01*
X143052313Y-124280094D01*
X143290555Y-124277468D01*
X143542211Y-124277508D01*
X143797215Y-124280051D01*
X144045496Y-124284937D01*
X144276985Y-124292003D01*
X144481615Y-124301088D01*
X144649316Y-124312030D01*
X144770019Y-124324667D01*
X144792941Y-124328296D01*
X144899036Y-124346308D01*
X145039454Y-124369169D01*
X145189415Y-124392865D01*
X145241177Y-124400860D01*
X145409183Y-124430881D01*
X145596043Y-124470809D01*
X145766099Y-124512915D01*
X145794000Y-124520647D01*
X145954270Y-124571172D01*
X146139342Y-124637757D01*
X146337882Y-124715482D01*
X146538555Y-124799430D01*
X146730029Y-124884682D01*
X146900969Y-124966323D01*
X147040041Y-125039432D01*
X147135912Y-125099093D01*
X147147723Y-125108037D01*
X147242442Y-125180752D01*
X147362312Y-125269595D01*
X147483282Y-125356770D01*
X147497294Y-125366672D01*
X147716224Y-125540743D01*
X147928261Y-125745921D01*
X148121121Y-125968167D01*
X148282518Y-126193444D01*
X148391171Y-126388138D01*
X148442243Y-126511153D01*
X148498543Y-126669666D01*
X148552332Y-126840834D01*
X148586634Y-126964814D01*
X148637810Y-127191880D01*
X148667518Y-127401347D01*
X148676572Y-127611906D01*
X148924464Y-127611906D01*
X148926407Y-127509059D01*
X148926181Y-127500453D01*
X148911286Y-127346089D01*
X148877150Y-127153769D01*
X148828144Y-126940441D01*
X148768638Y-126723050D01*
X148703005Y-126518545D01*
X148635615Y-126343871D01*
X148617481Y-126303586D01*
X148488237Y-126068498D01*
X148319843Y-125834958D01*
X148105743Y-125594478D01*
X147954443Y-125445059D01*
X147856422Y-125354177D01*
X147758912Y-125269099D01*
X147651462Y-125181509D01*
X147523621Y-125083086D01*
X147364941Y-124965513D01*
X147216453Y-124857629D01*
X147092030Y-124781310D01*
X146920578Y-124695534D01*
X146713279Y-124604389D01*
X146481315Y-124511960D01*
X146235867Y-124422332D01*
X145988116Y-124339593D01*
X145749245Y-124267828D01*
X145530434Y-124211124D01*
X145345765Y-124174026D01*
X145205150Y-124150756D01*
X145042449Y-124122694D01*
X144901996Y-124097567D01*
X144784570Y-124081976D01*
X144617393Y-124068037D01*
X144410461Y-124055937D01*
X144173770Y-124045859D01*
X143917315Y-124037991D01*
X143651093Y-124032517D01*
X143385098Y-124029623D01*
X143129327Y-124029495D01*
X142893776Y-124032319D01*
G36*
X146416637Y-127147524D02*
X146269794Y-127196147D01*
X146130572Y-127288745D01*
X146016529Y-127410561D01*
X145946576Y-127542662D01*
X145918140Y-127712492D01*
X145934971Y-127892549D01*
X145991270Y-128068830D01*
X146081236Y-128227331D01*
X146199070Y-128354052D01*
X146311672Y-128424098D01*
X146454039Y-128470490D01*
X146608696Y-128495333D01*
X146748051Y-128494844D01*
X146784104Y-128488897D01*
X146869709Y-128448630D01*
X146968270Y-128370280D01*
X147064819Y-128268602D01*
X147144383Y-128158350D01*
X147172363Y-128106250D01*
X147231487Y-127917181D01*
X147234615Y-127729925D01*
X147187609Y-127566706D01*
X147130395Y-127461547D01*
X147066895Y-127397875D01*
X146979667Y-127358462D01*
X146975488Y-127357162D01*
X146901635Y-127316425D01*
X146846886Y-127264578D01*
X146763237Y-127199778D01*
X146641774Y-127156937D01*
X146502085Y-127141385D01*
X146416637Y-127147524D01*
X146416637Y-127147524D01*
G37*
X146416637Y-127147524D02*
X146269794Y-127196147D01*
X146130572Y-127288745D01*
X146016529Y-127410561D01*
X145946576Y-127542662D01*
X145918140Y-127712492D01*
X145934971Y-127892549D01*
X145991270Y-128068830D01*
X146081236Y-128227331D01*
X146199070Y-128354052D01*
X146311672Y-128424098D01*
X146454039Y-128470490D01*
X146608696Y-128495333D01*
X146748051Y-128494844D01*
X146784104Y-128488897D01*
X146869709Y-128448630D01*
X146968270Y-128370280D01*
X147064819Y-128268602D01*
X147144383Y-128158350D01*
X147172363Y-128106250D01*
X147231487Y-127917181D01*
X147234615Y-127729925D01*
X147187609Y-127566706D01*
X147130395Y-127461547D01*
X147066895Y-127397875D01*
X146979667Y-127358462D01*
X146975488Y-127357162D01*
X146901635Y-127316425D01*
X146846886Y-127264578D01*
X146763237Y-127199778D01*
X146641774Y-127156937D01*
X146502085Y-127141385D01*
X146416637Y-127147524D01*
G36*
X140135502Y-127122083D02*
X140038261Y-127141797D01*
X139952000Y-127168168D01*
X139839034Y-127209365D01*
X139738427Y-127253519D01*
X139678987Y-127286665D01*
X139614721Y-127355510D01*
X139555488Y-127457125D01*
X139514583Y-127565090D01*
X139503932Y-127634546D01*
X139531783Y-127784650D01*
X139608106Y-127936884D01*
X139723458Y-128078626D01*
X139868395Y-128197253D01*
X139966169Y-128252340D01*
X140120842Y-128307762D01*
X140276683Y-128323021D01*
X140451538Y-128298737D01*
X140549647Y-128272565D01*
X140688483Y-128226271D01*
X140783703Y-128178556D01*
X140850564Y-128117712D01*
X140904324Y-128032029D01*
X140928513Y-127981798D01*
X140975707Y-127850133D01*
X140985514Y-127728835D01*
X140956856Y-127599057D01*
X140898774Y-127462490D01*
X140799176Y-127323934D01*
X140652325Y-127221047D01*
X140457707Y-127153522D01*
X140355412Y-127134732D01*
X140231258Y-127120554D01*
X140135502Y-127122083D01*
X140135502Y-127122083D01*
G37*
X140135502Y-127122083D02*
X140038261Y-127141797D01*
X139952000Y-127168168D01*
X139839034Y-127209365D01*
X139738427Y-127253519D01*
X139678987Y-127286665D01*
X139614721Y-127355510D01*
X139555488Y-127457125D01*
X139514583Y-127565090D01*
X139503932Y-127634546D01*
X139531783Y-127784650D01*
X139608106Y-127936884D01*
X139723458Y-128078626D01*
X139868395Y-128197253D01*
X139966169Y-128252340D01*
X140120842Y-128307762D01*
X140276683Y-128323021D01*
X140451538Y-128298737D01*
X140549647Y-128272565D01*
X140688483Y-128226271D01*
X140783703Y-128178556D01*
X140850564Y-128117712D01*
X140904324Y-128032029D01*
X140928513Y-127981798D01*
X140975707Y-127850133D01*
X140985514Y-127728835D01*
X140956856Y-127599057D01*
X140898774Y-127462490D01*
X140799176Y-127323934D01*
X140652325Y-127221047D01*
X140457707Y-127153522D01*
X140355412Y-127134732D01*
X140231258Y-127120554D01*
X140135502Y-127122083D01*
G36*
X145198421Y-125231432D02*
X145020519Y-125259985D01*
X144828559Y-125302284D01*
X144643209Y-125353989D01*
X144538941Y-125389512D01*
X144300178Y-125477365D01*
X144106096Y-125545723D01*
X143945991Y-125597548D01*
X143809161Y-125635800D01*
X143684901Y-125663441D01*
X143562507Y-125683430D01*
X143431275Y-125698731D01*
X143415537Y-125700284D01*
X143240768Y-125711303D01*
X143028079Y-125715332D01*
X142791108Y-125712984D01*
X142543498Y-125704876D01*
X142298886Y-125691622D01*
X142070914Y-125673837D01*
X141873222Y-125652136D01*
X141719448Y-125627135D01*
X141700118Y-125622935D01*
X141564254Y-125594067D01*
X141423229Y-125567303D01*
X141326588Y-125551366D01*
X141115269Y-125512158D01*
X140873986Y-125453500D01*
X140626814Y-125381474D01*
X140534706Y-125351307D01*
X140387532Y-125305624D01*
X140284789Y-125285307D01*
X140216959Y-125290005D01*
X140174523Y-125319372D01*
X140162662Y-125337695D01*
X140152616Y-125400540D01*
X140194020Y-125460006D01*
X140289461Y-125518169D01*
X140441528Y-125577103D01*
X140474941Y-125587898D01*
X140899419Y-125709312D01*
X141328970Y-125805886D01*
X141779006Y-125880430D01*
X142264940Y-125935752D01*
X142483706Y-125953950D01*
X142839294Y-125973765D01*
X143150817Y-125974791D01*
X143431409Y-125955561D01*
X143694207Y-125914607D01*
X143952343Y-125850462D01*
X144218953Y-125761658D01*
X144225177Y-125759355D01*
X144436765Y-125680968D01*
X144602507Y-125620650D01*
X144732721Y-125576032D01*
X144837721Y-125544744D01*
X144927823Y-125524414D01*
X145013343Y-125512673D01*
X145104596Y-125507150D01*
X145211898Y-125505474D01*
X145330824Y-125505297D01*
X145497732Y-125505930D01*
X145621367Y-125509897D01*
X145718214Y-125519613D01*
X145804756Y-125537494D01*
X145897480Y-125565958D01*
X146003177Y-125603848D01*
X146173492Y-125669763D01*
X146355139Y-125745421D01*
X146531089Y-125823292D01*
X146684310Y-125895846D01*
X146795059Y-125953991D01*
X146874652Y-125996394D01*
X146967341Y-126041681D01*
X146974353Y-126044925D01*
X147058082Y-126092295D01*
X147157670Y-126160762D01*
X147213412Y-126204258D01*
X147306053Y-126279759D01*
X147365606Y-126322715D01*
X147404643Y-126339147D01*
X147435733Y-126335074D01*
X147460580Y-126322644D01*
X147500388Y-126271659D01*
X147511697Y-126213044D01*
X147491674Y-126143287D01*
X147430523Y-126066228D01*
X147325285Y-125979835D01*
X147172998Y-125882072D01*
X146970705Y-125770906D01*
X146715444Y-125644300D01*
X146615765Y-125597237D01*
X146347958Y-125481071D01*
X146081806Y-125382303D01*
X145828463Y-125304225D01*
X145599083Y-125250133D01*
X145404819Y-125223318D01*
X145341595Y-125220965D01*
X145198421Y-125231432D01*
X145198421Y-125231432D01*
G37*
X145198421Y-125231432D02*
X145020519Y-125259985D01*
X144828559Y-125302284D01*
X144643209Y-125353989D01*
X144538941Y-125389512D01*
X144300178Y-125477365D01*
X144106096Y-125545723D01*
X143945991Y-125597548D01*
X143809161Y-125635800D01*
X143684901Y-125663441D01*
X143562507Y-125683430D01*
X143431275Y-125698731D01*
X143415537Y-125700284D01*
X143240768Y-125711303D01*
X143028079Y-125715332D01*
X142791108Y-125712984D01*
X142543498Y-125704876D01*
X142298886Y-125691622D01*
X142070914Y-125673837D01*
X141873222Y-125652136D01*
X141719448Y-125627135D01*
X141700118Y-125622935D01*
X141564254Y-125594067D01*
X141423229Y-125567303D01*
X141326588Y-125551366D01*
X141115269Y-125512158D01*
X140873986Y-125453500D01*
X140626814Y-125381474D01*
X140534706Y-125351307D01*
X140387532Y-125305624D01*
X140284789Y-125285307D01*
X140216959Y-125290005D01*
X140174523Y-125319372D01*
X140162662Y-125337695D01*
X140152616Y-125400540D01*
X140194020Y-125460006D01*
X140289461Y-125518169D01*
X140441528Y-125577103D01*
X140474941Y-125587898D01*
X140899419Y-125709312D01*
X141328970Y-125805886D01*
X141779006Y-125880430D01*
X142264940Y-125935752D01*
X142483706Y-125953950D01*
X142839294Y-125973765D01*
X143150817Y-125974791D01*
X143431409Y-125955561D01*
X143694207Y-125914607D01*
X143952343Y-125850462D01*
X144218953Y-125761658D01*
X144225177Y-125759355D01*
X144436765Y-125680968D01*
X144602507Y-125620650D01*
X144732721Y-125576032D01*
X144837721Y-125544744D01*
X144927823Y-125524414D01*
X145013343Y-125512673D01*
X145104596Y-125507150D01*
X145211898Y-125505474D01*
X145330824Y-125505297D01*
X145497732Y-125505930D01*
X145621367Y-125509897D01*
X145718214Y-125519613D01*
X145804756Y-125537494D01*
X145897480Y-125565958D01*
X146003177Y-125603848D01*
X146173492Y-125669763D01*
X146355139Y-125745421D01*
X146531089Y-125823292D01*
X146684310Y-125895846D01*
X146795059Y-125953991D01*
X146874652Y-125996394D01*
X146967341Y-126041681D01*
X146974353Y-126044925D01*
X147058082Y-126092295D01*
X147157670Y-126160762D01*
X147213412Y-126204258D01*
X147306053Y-126279759D01*
X147365606Y-126322715D01*
X147404643Y-126339147D01*
X147435733Y-126335074D01*
X147460580Y-126322644D01*
X147500388Y-126271659D01*
X147511697Y-126213044D01*
X147491674Y-126143287D01*
X147430523Y-126066228D01*
X147325285Y-125979835D01*
X147172998Y-125882072D01*
X146970705Y-125770906D01*
X146715444Y-125644300D01*
X146615765Y-125597237D01*
X146347958Y-125481071D01*
X146081806Y-125382303D01*
X145828463Y-125304225D01*
X145599083Y-125250133D01*
X145404819Y-125223318D01*
X145341595Y-125220965D01*
X145198421Y-125231432D01*
M02*
