G04 #@! TF.FileFunction,Legend,Bot*
%FSLAX46Y46*%
G04 Gerber Fmt 4.6, Leading zero omitted, Abs format (unit mm)*
G04 Created by KiCad (PCBNEW 4.0.1-stable) date 2016/12/03 22:11:57*
%MOMM*%
G01*
G04 APERTURE LIST*
%ADD10C,0.100000*%
%ADD11C,0.300000*%
%ADD12C,0.010000*%
G04 APERTURE END LIST*
D10*
D11*
X150238096Y-139354762D02*
X150238096Y-137354762D01*
X149095238Y-139354762D02*
X149952381Y-138211905D01*
X149095238Y-137354762D02*
X150238096Y-138497619D01*
X148238096Y-138307143D02*
X147571429Y-138307143D01*
X147285715Y-139354762D02*
X148238096Y-139354762D01*
X148238096Y-137354762D01*
X147285715Y-137354762D01*
X145285714Y-139354762D02*
X145952381Y-138402381D01*
X146428572Y-139354762D02*
X146428572Y-137354762D01*
X145666667Y-137354762D01*
X145476191Y-137450000D01*
X145380952Y-137545238D01*
X145285714Y-137735714D01*
X145285714Y-138021429D01*
X145380952Y-138211905D01*
X145476191Y-138307143D01*
X145666667Y-138402381D01*
X146428572Y-138402381D01*
X144428572Y-139354762D02*
X144428572Y-137354762D01*
X143571429Y-139259524D02*
X143285714Y-139354762D01*
X142809524Y-139354762D01*
X142619048Y-139259524D01*
X142523810Y-139164286D01*
X142428571Y-138973810D01*
X142428571Y-138783333D01*
X142523810Y-138592857D01*
X142619048Y-138497619D01*
X142809524Y-138402381D01*
X143190476Y-138307143D01*
X143380952Y-138211905D01*
X143476191Y-138116667D01*
X143571429Y-137926190D01*
X143571429Y-137735714D01*
X143476191Y-137545238D01*
X143380952Y-137450000D01*
X143190476Y-137354762D01*
X142714286Y-137354762D01*
X142428571Y-137450000D01*
X141571429Y-138307143D02*
X140904762Y-138307143D01*
X140619048Y-139354762D02*
X141571429Y-139354762D01*
X141571429Y-137354762D01*
X140619048Y-137354762D01*
X138428571Y-138021429D02*
X137952380Y-139354762D01*
X137476190Y-138021429D01*
X136809523Y-137545238D02*
X136714285Y-137450000D01*
X136523808Y-137354762D01*
X136047618Y-137354762D01*
X135857142Y-137450000D01*
X135761904Y-137545238D01*
X135666665Y-137735714D01*
X135666665Y-137926190D01*
X135761904Y-138211905D01*
X136904761Y-139354762D01*
X135666665Y-139354762D01*
X151190477Y-140645238D02*
X151095239Y-140550000D01*
X150904762Y-140454762D01*
X150428572Y-140454762D01*
X150238096Y-140550000D01*
X150142858Y-140645238D01*
X150047619Y-140835714D01*
X150047619Y-141026190D01*
X150142858Y-141311905D01*
X151285715Y-142454762D01*
X150047619Y-142454762D01*
X148809524Y-140454762D02*
X148619048Y-140454762D01*
X148428572Y-140550000D01*
X148333334Y-140645238D01*
X148238096Y-140835714D01*
X148142857Y-141216667D01*
X148142857Y-141692857D01*
X148238096Y-142073810D01*
X148333334Y-142264286D01*
X148428572Y-142359524D01*
X148619048Y-142454762D01*
X148809524Y-142454762D01*
X149000000Y-142359524D01*
X149095238Y-142264286D01*
X149190477Y-142073810D01*
X149285715Y-141692857D01*
X149285715Y-141216667D01*
X149190477Y-140835714D01*
X149095238Y-140645238D01*
X149000000Y-140550000D01*
X148809524Y-140454762D01*
X146238095Y-142454762D02*
X147380953Y-142454762D01*
X146809524Y-142454762D02*
X146809524Y-140454762D01*
X147000000Y-140740476D01*
X147190476Y-140930952D01*
X147380953Y-141026190D01*
X144523810Y-140454762D02*
X144904762Y-140454762D01*
X145095238Y-140550000D01*
X145190476Y-140645238D01*
X145380953Y-140930952D01*
X145476191Y-141311905D01*
X145476191Y-142073810D01*
X145380953Y-142264286D01*
X145285714Y-142359524D01*
X145095238Y-142454762D01*
X144714286Y-142454762D01*
X144523810Y-142359524D01*
X144428572Y-142264286D01*
X144333333Y-142073810D01*
X144333333Y-141597619D01*
X144428572Y-141407143D01*
X144523810Y-141311905D01*
X144714286Y-141216667D01*
X145095238Y-141216667D01*
X145285714Y-141311905D01*
X145380953Y-141407143D01*
X145476191Y-141597619D01*
X143476191Y-142264286D02*
X143380952Y-142359524D01*
X143476191Y-142454762D01*
X143571429Y-142359524D01*
X143476191Y-142264286D01*
X143476191Y-142454762D01*
X141476190Y-142454762D02*
X142619048Y-142454762D01*
X142047619Y-142454762D02*
X142047619Y-140454762D01*
X142238095Y-140740476D01*
X142428571Y-140930952D01*
X142619048Y-141026190D01*
X140714286Y-140645238D02*
X140619048Y-140550000D01*
X140428571Y-140454762D01*
X139952381Y-140454762D01*
X139761905Y-140550000D01*
X139666667Y-140645238D01*
X139571428Y-140835714D01*
X139571428Y-141026190D01*
X139666667Y-141311905D01*
X140809524Y-142454762D01*
X139571428Y-142454762D01*
X138714286Y-142264286D02*
X138619047Y-142359524D01*
X138714286Y-142454762D01*
X138809524Y-142359524D01*
X138714286Y-142264286D01*
X138714286Y-142454762D01*
X137380952Y-140454762D02*
X137190476Y-140454762D01*
X137000000Y-140550000D01*
X136904762Y-140645238D01*
X136809524Y-140835714D01*
X136714285Y-141216667D01*
X136714285Y-141692857D01*
X136809524Y-142073810D01*
X136904762Y-142264286D01*
X137000000Y-142359524D01*
X137190476Y-142454762D01*
X137380952Y-142454762D01*
X137571428Y-142359524D01*
X137666666Y-142264286D01*
X137761905Y-142073810D01*
X137857143Y-141692857D01*
X137857143Y-141216667D01*
X137761905Y-140835714D01*
X137666666Y-140645238D01*
X137571428Y-140550000D01*
X137380952Y-140454762D01*
X134809523Y-142454762D02*
X135952381Y-142454762D01*
X135380952Y-142454762D02*
X135380952Y-140454762D01*
X135571428Y-140740476D01*
X135761904Y-140930952D01*
X135952381Y-141026190D01*
D12*
G36*
X144024837Y-121799876D02*
X143359955Y-121812601D01*
X142755812Y-121833034D01*
X142205774Y-121861935D01*
X141703204Y-121900060D01*
X141241467Y-121948168D01*
X140813926Y-122007017D01*
X140413947Y-122077364D01*
X140034893Y-122159968D01*
X139670129Y-122255586D01*
X139444001Y-122323060D01*
X139282560Y-122375776D01*
X139124165Y-122431423D01*
X138994231Y-122480932D01*
X138952934Y-122498298D01*
X138856566Y-122539920D01*
X138715670Y-122599571D01*
X138548401Y-122669614D01*
X138372913Y-122742413D01*
X138354637Y-122749952D01*
X138123507Y-122851574D01*
X137851812Y-122981461D01*
X137555917Y-123131179D01*
X137252190Y-123292296D01*
X136956994Y-123456377D01*
X136751600Y-123575979D01*
X136620615Y-123661614D01*
X136454926Y-123781089D01*
X136269330Y-123922600D01*
X136078626Y-124074344D01*
X135897611Y-124224521D01*
X135741082Y-124361326D01*
X135623836Y-124472957D01*
X135613316Y-124483883D01*
X135437059Y-124674020D01*
X135272463Y-124862704D01*
X135111662Y-125060213D01*
X134946791Y-125276825D01*
X134769985Y-125522819D01*
X134573377Y-125808472D01*
X134389540Y-126083016D01*
X134343696Y-126168799D01*
X134294963Y-126284551D01*
X134274790Y-126341466D01*
X134223683Y-126479049D01*
X134160757Y-126625317D01*
X134136910Y-126675029D01*
X134088028Y-126767069D01*
X134055916Y-126806279D01*
X134029834Y-126801728D01*
X134011811Y-126780670D01*
X133937883Y-126732207D01*
X133810159Y-126705503D01*
X133638458Y-126699062D01*
X133432601Y-126711392D01*
X133202409Y-126740998D01*
X132957701Y-126786385D01*
X132708299Y-126846061D01*
X132464023Y-126918530D01*
X132234692Y-127002299D01*
X132068969Y-127076259D01*
X131915297Y-127172374D01*
X131748287Y-127310086D01*
X131586522Y-127471253D01*
X131448587Y-127637732D01*
X131370138Y-127758438D01*
X131248861Y-128030040D01*
X131191436Y-128296006D01*
X131196416Y-128568689D01*
X131247018Y-128809365D01*
X131293159Y-128958797D01*
X131341988Y-129082448D01*
X131402804Y-129195824D01*
X131484907Y-129314428D01*
X131597599Y-129453766D01*
X131714752Y-129589136D01*
X131911903Y-129798393D01*
X132107654Y-129971180D01*
X132324352Y-130128458D01*
X132500076Y-130243322D01*
X132649283Y-130332473D01*
X132791313Y-130405141D01*
X132945502Y-130470556D01*
X133131188Y-130537950D01*
X133301868Y-130595055D01*
X133460263Y-130645342D01*
X133569608Y-130674626D01*
X133644422Y-130685292D01*
X133699224Y-130679725D01*
X133735890Y-130666347D01*
X133802364Y-130619732D01*
X133817461Y-130550829D01*
X133815889Y-130533258D01*
X133793063Y-130464597D01*
X133731878Y-130424524D01*
X133686667Y-130410757D01*
X133269364Y-130287886D01*
X132908980Y-130148515D01*
X132595615Y-129987228D01*
X132319370Y-129798609D01*
X132070342Y-129577243D01*
X131970211Y-129471795D01*
X131795355Y-129269770D01*
X131666755Y-129095683D01*
X131577932Y-128934966D01*
X131522408Y-128773050D01*
X131493703Y-128595366D01*
X131485338Y-128387347D01*
X131485334Y-128381478D01*
X131489827Y-128233630D01*
X131508365Y-128120983D01*
X131548539Y-128011313D01*
X131594808Y-127916714D01*
X131702415Y-127749254D01*
X131845173Y-127584038D01*
X132003708Y-127440665D01*
X132158647Y-127338738D01*
X132173097Y-127331627D01*
X132367925Y-127242417D01*
X132519970Y-127180983D01*
X132645057Y-127141146D01*
X132687600Y-127130659D01*
X132956155Y-127073434D01*
X133179304Y-127035001D01*
X133375896Y-127012726D01*
X133564781Y-127003971D01*
X133595760Y-127003648D01*
X133737985Y-126999257D01*
X133859232Y-126989086D01*
X133939786Y-126975025D01*
X133955355Y-126969201D01*
X133976998Y-126965788D01*
X133981856Y-126992452D01*
X133968150Y-127057277D01*
X133934101Y-127168344D01*
X133877929Y-127333739D01*
X133870296Y-127355675D01*
X133720388Y-127876070D01*
X133635348Y-128394233D01*
X133615130Y-128915167D01*
X133659688Y-129443876D01*
X133768976Y-129985364D01*
X133843742Y-130249109D01*
X133978337Y-130649565D01*
X134131838Y-131034946D01*
X134310927Y-131419106D01*
X134522288Y-131815899D01*
X134772603Y-132239177D01*
X134907644Y-132454400D01*
X135108320Y-132762003D01*
X135294669Y-133030168D01*
X135478550Y-133273418D01*
X135671822Y-133506277D01*
X135886342Y-133743266D01*
X136133970Y-133998911D01*
X136317929Y-134181599D01*
X136670295Y-134521430D01*
X136988103Y-134814012D01*
X137278799Y-135065233D01*
X137549831Y-135280978D01*
X137808649Y-135467133D01*
X138062700Y-135629584D01*
X138319432Y-135774218D01*
X138360267Y-135795587D01*
X138594281Y-135905079D01*
X138809793Y-135983307D01*
X139000124Y-136029630D01*
X139158593Y-136043411D01*
X139278518Y-136024012D01*
X139353221Y-135970794D01*
X139376267Y-135892673D01*
X139369489Y-135834977D01*
X139340902Y-135796224D01*
X139278130Y-135770483D01*
X139168795Y-135751823D01*
X139057026Y-135739710D01*
X138880253Y-135710083D01*
X138697583Y-135652741D01*
X138498557Y-135562910D01*
X138272716Y-135435816D01*
X138009601Y-135266685D01*
X137986322Y-135250989D01*
X137764927Y-135096526D01*
X137554228Y-134938639D01*
X137343674Y-134768397D01*
X137122718Y-134576870D01*
X136880808Y-134355128D01*
X136607397Y-134094239D01*
X136523049Y-134012266D01*
X136230354Y-133717026D01*
X135963813Y-133425637D01*
X135714584Y-133126530D01*
X135473825Y-132808137D01*
X135232693Y-132458889D01*
X134982347Y-132067216D01*
X134775853Y-131726266D01*
X134650592Y-131497269D01*
X134520029Y-131226490D01*
X134389999Y-130928978D01*
X134266342Y-130619781D01*
X134154894Y-130313949D01*
X134061495Y-130026530D01*
X133991982Y-129772574D01*
X133961310Y-129626533D01*
X133898479Y-129091276D01*
X133896411Y-128564303D01*
X133955038Y-128055659D01*
X133972449Y-127964776D01*
X134008975Y-127820171D01*
X134067745Y-127628154D01*
X134143577Y-127403246D01*
X134231288Y-127159968D01*
X134325696Y-126912842D01*
X134421620Y-126676387D01*
X134483619Y-126532376D01*
X134638514Y-126226394D01*
X134839961Y-125896170D01*
X135077816Y-125554521D01*
X135341936Y-125214266D01*
X135622178Y-124888225D01*
X135908400Y-124589215D01*
X136190458Y-124330055D01*
X136292717Y-124246054D01*
X136440095Y-124130273D01*
X136576619Y-124024852D01*
X136689726Y-123939362D01*
X136766851Y-123883378D01*
X136782747Y-123872700D01*
X136918341Y-123790523D01*
X137098217Y-123688388D01*
X137309114Y-123573177D01*
X137537774Y-123451773D01*
X137770939Y-123331061D01*
X137995349Y-123217923D01*
X138197746Y-123119244D01*
X138364871Y-123041906D01*
X138461867Y-123000961D01*
X138624033Y-122936038D01*
X138779640Y-122870977D01*
X138907678Y-122814702D01*
X138969867Y-122785207D01*
X139084006Y-122735747D01*
X139248734Y-122675101D01*
X139448832Y-122608102D01*
X139669078Y-122539585D01*
X139894251Y-122474384D01*
X140109130Y-122417334D01*
X140191145Y-122397321D01*
X140593716Y-122315842D01*
X141060559Y-122246335D01*
X141589243Y-122188990D01*
X142177338Y-122144000D01*
X142822415Y-122111553D01*
X143522044Y-122091841D01*
X144168400Y-122085211D01*
X145489200Y-122081704D01*
X146405009Y-122219659D01*
X146843658Y-122290813D01*
X147225355Y-122364442D01*
X147560879Y-122443516D01*
X147861009Y-122531003D01*
X148136525Y-122629876D01*
X148398205Y-122743103D01*
X148520267Y-122802519D01*
X148687212Y-122884247D01*
X148870226Y-122970260D01*
X149035032Y-123044517D01*
X149065516Y-123057714D01*
X149229545Y-123134247D01*
X149408198Y-123227133D01*
X149556582Y-123312550D01*
X149693140Y-123396725D01*
X149859666Y-123498953D01*
X150028247Y-123602109D01*
X150095067Y-123642883D01*
X150331962Y-123792726D01*
X150529458Y-123932223D01*
X150705627Y-124076566D01*
X150878540Y-124240951D01*
X151066268Y-124440570D01*
X151134866Y-124517122D01*
X151378805Y-124802517D01*
X151583205Y-125068504D01*
X151758206Y-125331847D01*
X151913947Y-125609309D01*
X152060570Y-125917652D01*
X152208214Y-126273639D01*
X152227910Y-126324029D01*
X152303229Y-126522006D01*
X152354175Y-126667372D01*
X152383403Y-126769620D01*
X152393567Y-126838247D01*
X152387321Y-126882746D01*
X152385395Y-126887358D01*
X152372729Y-126968949D01*
X152403449Y-127033235D01*
X152434120Y-127114507D01*
X152456798Y-127252160D01*
X152471398Y-127435307D01*
X152477830Y-127653058D01*
X152476008Y-127894524D01*
X152465844Y-128148817D01*
X152447251Y-128405047D01*
X152420141Y-128652326D01*
X152416669Y-128678266D01*
X152387792Y-128876486D01*
X152357186Y-129063898D01*
X152327710Y-129224428D01*
X152302227Y-129342001D01*
X152291699Y-129380216D01*
X152256673Y-129510566D01*
X152224904Y-129662272D01*
X152212845Y-129735816D01*
X152190185Y-129844140D01*
X152148872Y-129995766D01*
X152094719Y-130170834D01*
X152033542Y-130349488D01*
X152031669Y-130354666D01*
X151962589Y-130548700D01*
X151891389Y-130754279D01*
X151826964Y-130945429D01*
X151782563Y-131082262D01*
X151736129Y-131210463D01*
X151664960Y-131382838D01*
X151576003Y-131583693D01*
X151476202Y-131797335D01*
X151374944Y-132003248D01*
X151170233Y-132397763D01*
X150979504Y-132741321D01*
X150794203Y-133046842D01*
X150605778Y-133327246D01*
X150405676Y-133595449D01*
X150185343Y-133864372D01*
X150009710Y-134065319D01*
X149737937Y-134357511D01*
X149471972Y-134616357D01*
X149192598Y-134859002D01*
X148880599Y-135102591D01*
X148695243Y-135238079D01*
X148516929Y-135362686D01*
X148358361Y-135463658D01*
X148207718Y-135545200D01*
X148053178Y-135611519D01*
X147882917Y-135666820D01*
X147685113Y-135715309D01*
X147447944Y-135761192D01*
X147159587Y-135808673D01*
X147039012Y-135827267D01*
X146936970Y-135863087D01*
X146886836Y-135924273D01*
X146894687Y-135999019D01*
X146927758Y-136043490D01*
X146996764Y-136085607D01*
X147086622Y-136110722D01*
X147167508Y-136112899D01*
X147202289Y-136098128D01*
X147239292Y-136086896D01*
X147329110Y-136066877D01*
X147457846Y-136041004D01*
X147596247Y-136015000D01*
X147964607Y-135931309D01*
X148273040Y-135824928D01*
X148526002Y-135694203D01*
X148604934Y-135640434D01*
X148879828Y-135437429D01*
X149108400Y-135265186D01*
X149299994Y-135115884D01*
X149463959Y-134981701D01*
X149609640Y-134854815D01*
X149746383Y-134727404D01*
X149883534Y-134591646D01*
X149993660Y-134478215D01*
X150269756Y-134181229D01*
X150512579Y-133898597D01*
X150731564Y-133616870D01*
X150936150Y-133322600D01*
X151135773Y-133002338D01*
X151339870Y-132642635D01*
X151520722Y-132302000D01*
X151628670Y-132090850D01*
X151733317Y-131880798D01*
X151827778Y-131686064D01*
X151905167Y-131520871D01*
X151958598Y-131399442D01*
X151963430Y-131387600D01*
X152028135Y-131241062D01*
X152079709Y-131154574D01*
X152116474Y-131130946D01*
X152116723Y-131131024D01*
X152241547Y-131140805D01*
X152394034Y-131104276D01*
X152487819Y-131063238D01*
X152593287Y-131018814D01*
X152735630Y-130970885D01*
X152885320Y-130929326D01*
X152895689Y-130926820D01*
X153209337Y-130824994D01*
X153522668Y-130673669D01*
X153823603Y-130482109D01*
X154100064Y-130259580D01*
X154339974Y-130015344D01*
X154531254Y-129758667D01*
X154615001Y-129608062D01*
X154715155Y-129362794D01*
X154765911Y-129131449D01*
X154768903Y-128992868D01*
X154486181Y-128992868D01*
X154455496Y-129264793D01*
X154383765Y-129483343D01*
X154251278Y-129704985D01*
X154063647Y-129925259D01*
X153833010Y-130134962D01*
X153571501Y-130324891D01*
X153291256Y-130485843D01*
X153004410Y-130608615D01*
X152830922Y-130660939D01*
X152683993Y-130700528D01*
X152550817Y-130741617D01*
X152453620Y-130777176D01*
X152432086Y-130787080D01*
X152319277Y-130837415D01*
X152224003Y-130866537D01*
X152163110Y-130870026D01*
X152150874Y-130860907D01*
X152156366Y-130818397D01*
X152180728Y-130732497D01*
X152213027Y-130637753D01*
X152260967Y-130505830D01*
X152319940Y-130343267D01*
X152377956Y-130183124D01*
X152383285Y-130168400D01*
X152429248Y-130029857D01*
X152463949Y-129903351D01*
X152481395Y-129811422D01*
X152482366Y-129795866D01*
X152493015Y-129702386D01*
X152518794Y-129582235D01*
X152534281Y-129526530D01*
X152560432Y-129432464D01*
X152585243Y-129324233D01*
X152610381Y-129192034D01*
X152637512Y-129026064D01*
X152668302Y-128816521D01*
X152704419Y-128553602D01*
X152721573Y-128424935D01*
X152748265Y-128210074D01*
X152764054Y-128039509D01*
X152769652Y-127890807D01*
X152765774Y-127741535D01*
X152753133Y-127569260D01*
X152749928Y-127533492D01*
X152737259Y-127375712D01*
X152729910Y-127243636D01*
X152728436Y-127151214D01*
X152733276Y-127112502D01*
X152775933Y-127108440D01*
X152865354Y-127120236D01*
X152983483Y-127144084D01*
X153112266Y-127176182D01*
X153233651Y-127212725D01*
X153270719Y-127225740D01*
X153545951Y-127359780D01*
X153805041Y-127547770D01*
X154036019Y-127777249D01*
X154226915Y-128035756D01*
X154365757Y-128310830D01*
X154396343Y-128397475D01*
X154466513Y-128699540D01*
X154486181Y-128992868D01*
X154768903Y-128992868D01*
X154771166Y-128888108D01*
X154750970Y-128704097D01*
X154666484Y-128343433D01*
X154527130Y-128004555D01*
X154358458Y-127729241D01*
X154189464Y-127533745D01*
X153979065Y-127345225D01*
X153742822Y-127173892D01*
X153496297Y-127029960D01*
X153255049Y-126923640D01*
X153044063Y-126866634D01*
X152920161Y-126846688D01*
X152828706Y-126827372D01*
X152760863Y-126799141D01*
X152707802Y-126752450D01*
X152660687Y-126677756D01*
X152610688Y-126565513D01*
X152548970Y-126406178D01*
X152501086Y-126279921D01*
X152346940Y-125895699D01*
X152194800Y-125562929D01*
X152035736Y-125266217D01*
X151860819Y-124990172D01*
X151661120Y-124719398D01*
X151443315Y-124456488D01*
X151150999Y-124134896D01*
X150884251Y-123875160D01*
X150642427Y-123676677D01*
X150530128Y-123599880D01*
X150421818Y-123531303D01*
X150275918Y-123438909D01*
X150112056Y-123335130D01*
X149959600Y-123238565D01*
X149801256Y-123140417D01*
X149646138Y-123048019D01*
X149512138Y-122971808D01*
X149417734Y-122922496D01*
X149043237Y-122746321D01*
X148719512Y-122597117D01*
X148436657Y-122471743D01*
X148184770Y-122367059D01*
X147953950Y-122279926D01*
X147734296Y-122207202D01*
X147515905Y-122145749D01*
X147288878Y-122092427D01*
X147043311Y-122044094D01*
X146769304Y-121997613D01*
X146456956Y-121949842D01*
X146260037Y-121921130D01*
X145303674Y-121783149D01*
X144024837Y-121799876D01*
X144024837Y-121799876D01*
G37*
X144024837Y-121799876D02*
X143359955Y-121812601D01*
X142755812Y-121833034D01*
X142205774Y-121861935D01*
X141703204Y-121900060D01*
X141241467Y-121948168D01*
X140813926Y-122007017D01*
X140413947Y-122077364D01*
X140034893Y-122159968D01*
X139670129Y-122255586D01*
X139444001Y-122323060D01*
X139282560Y-122375776D01*
X139124165Y-122431423D01*
X138994231Y-122480932D01*
X138952934Y-122498298D01*
X138856566Y-122539920D01*
X138715670Y-122599571D01*
X138548401Y-122669614D01*
X138372913Y-122742413D01*
X138354637Y-122749952D01*
X138123507Y-122851574D01*
X137851812Y-122981461D01*
X137555917Y-123131179D01*
X137252190Y-123292296D01*
X136956994Y-123456377D01*
X136751600Y-123575979D01*
X136620615Y-123661614D01*
X136454926Y-123781089D01*
X136269330Y-123922600D01*
X136078626Y-124074344D01*
X135897611Y-124224521D01*
X135741082Y-124361326D01*
X135623836Y-124472957D01*
X135613316Y-124483883D01*
X135437059Y-124674020D01*
X135272463Y-124862704D01*
X135111662Y-125060213D01*
X134946791Y-125276825D01*
X134769985Y-125522819D01*
X134573377Y-125808472D01*
X134389540Y-126083016D01*
X134343696Y-126168799D01*
X134294963Y-126284551D01*
X134274790Y-126341466D01*
X134223683Y-126479049D01*
X134160757Y-126625317D01*
X134136910Y-126675029D01*
X134088028Y-126767069D01*
X134055916Y-126806279D01*
X134029834Y-126801728D01*
X134011811Y-126780670D01*
X133937883Y-126732207D01*
X133810159Y-126705503D01*
X133638458Y-126699062D01*
X133432601Y-126711392D01*
X133202409Y-126740998D01*
X132957701Y-126786385D01*
X132708299Y-126846061D01*
X132464023Y-126918530D01*
X132234692Y-127002299D01*
X132068969Y-127076259D01*
X131915297Y-127172374D01*
X131748287Y-127310086D01*
X131586522Y-127471253D01*
X131448587Y-127637732D01*
X131370138Y-127758438D01*
X131248861Y-128030040D01*
X131191436Y-128296006D01*
X131196416Y-128568689D01*
X131247018Y-128809365D01*
X131293159Y-128958797D01*
X131341988Y-129082448D01*
X131402804Y-129195824D01*
X131484907Y-129314428D01*
X131597599Y-129453766D01*
X131714752Y-129589136D01*
X131911903Y-129798393D01*
X132107654Y-129971180D01*
X132324352Y-130128458D01*
X132500076Y-130243322D01*
X132649283Y-130332473D01*
X132791313Y-130405141D01*
X132945502Y-130470556D01*
X133131188Y-130537950D01*
X133301868Y-130595055D01*
X133460263Y-130645342D01*
X133569608Y-130674626D01*
X133644422Y-130685292D01*
X133699224Y-130679725D01*
X133735890Y-130666347D01*
X133802364Y-130619732D01*
X133817461Y-130550829D01*
X133815889Y-130533258D01*
X133793063Y-130464597D01*
X133731878Y-130424524D01*
X133686667Y-130410757D01*
X133269364Y-130287886D01*
X132908980Y-130148515D01*
X132595615Y-129987228D01*
X132319370Y-129798609D01*
X132070342Y-129577243D01*
X131970211Y-129471795D01*
X131795355Y-129269770D01*
X131666755Y-129095683D01*
X131577932Y-128934966D01*
X131522408Y-128773050D01*
X131493703Y-128595366D01*
X131485338Y-128387347D01*
X131485334Y-128381478D01*
X131489827Y-128233630D01*
X131508365Y-128120983D01*
X131548539Y-128011313D01*
X131594808Y-127916714D01*
X131702415Y-127749254D01*
X131845173Y-127584038D01*
X132003708Y-127440665D01*
X132158647Y-127338738D01*
X132173097Y-127331627D01*
X132367925Y-127242417D01*
X132519970Y-127180983D01*
X132645057Y-127141146D01*
X132687600Y-127130659D01*
X132956155Y-127073434D01*
X133179304Y-127035001D01*
X133375896Y-127012726D01*
X133564781Y-127003971D01*
X133595760Y-127003648D01*
X133737985Y-126999257D01*
X133859232Y-126989086D01*
X133939786Y-126975025D01*
X133955355Y-126969201D01*
X133976998Y-126965788D01*
X133981856Y-126992452D01*
X133968150Y-127057277D01*
X133934101Y-127168344D01*
X133877929Y-127333739D01*
X133870296Y-127355675D01*
X133720388Y-127876070D01*
X133635348Y-128394233D01*
X133615130Y-128915167D01*
X133659688Y-129443876D01*
X133768976Y-129985364D01*
X133843742Y-130249109D01*
X133978337Y-130649565D01*
X134131838Y-131034946D01*
X134310927Y-131419106D01*
X134522288Y-131815899D01*
X134772603Y-132239177D01*
X134907644Y-132454400D01*
X135108320Y-132762003D01*
X135294669Y-133030168D01*
X135478550Y-133273418D01*
X135671822Y-133506277D01*
X135886342Y-133743266D01*
X136133970Y-133998911D01*
X136317929Y-134181599D01*
X136670295Y-134521430D01*
X136988103Y-134814012D01*
X137278799Y-135065233D01*
X137549831Y-135280978D01*
X137808649Y-135467133D01*
X138062700Y-135629584D01*
X138319432Y-135774218D01*
X138360267Y-135795587D01*
X138594281Y-135905079D01*
X138809793Y-135983307D01*
X139000124Y-136029630D01*
X139158593Y-136043411D01*
X139278518Y-136024012D01*
X139353221Y-135970794D01*
X139376267Y-135892673D01*
X139369489Y-135834977D01*
X139340902Y-135796224D01*
X139278130Y-135770483D01*
X139168795Y-135751823D01*
X139057026Y-135739710D01*
X138880253Y-135710083D01*
X138697583Y-135652741D01*
X138498557Y-135562910D01*
X138272716Y-135435816D01*
X138009601Y-135266685D01*
X137986322Y-135250989D01*
X137764927Y-135096526D01*
X137554228Y-134938639D01*
X137343674Y-134768397D01*
X137122718Y-134576870D01*
X136880808Y-134355128D01*
X136607397Y-134094239D01*
X136523049Y-134012266D01*
X136230354Y-133717026D01*
X135963813Y-133425637D01*
X135714584Y-133126530D01*
X135473825Y-132808137D01*
X135232693Y-132458889D01*
X134982347Y-132067216D01*
X134775853Y-131726266D01*
X134650592Y-131497269D01*
X134520029Y-131226490D01*
X134389999Y-130928978D01*
X134266342Y-130619781D01*
X134154894Y-130313949D01*
X134061495Y-130026530D01*
X133991982Y-129772574D01*
X133961310Y-129626533D01*
X133898479Y-129091276D01*
X133896411Y-128564303D01*
X133955038Y-128055659D01*
X133972449Y-127964776D01*
X134008975Y-127820171D01*
X134067745Y-127628154D01*
X134143577Y-127403246D01*
X134231288Y-127159968D01*
X134325696Y-126912842D01*
X134421620Y-126676387D01*
X134483619Y-126532376D01*
X134638514Y-126226394D01*
X134839961Y-125896170D01*
X135077816Y-125554521D01*
X135341936Y-125214266D01*
X135622178Y-124888225D01*
X135908400Y-124589215D01*
X136190458Y-124330055D01*
X136292717Y-124246054D01*
X136440095Y-124130273D01*
X136576619Y-124024852D01*
X136689726Y-123939362D01*
X136766851Y-123883378D01*
X136782747Y-123872700D01*
X136918341Y-123790523D01*
X137098217Y-123688388D01*
X137309114Y-123573177D01*
X137537774Y-123451773D01*
X137770939Y-123331061D01*
X137995349Y-123217923D01*
X138197746Y-123119244D01*
X138364871Y-123041906D01*
X138461867Y-123000961D01*
X138624033Y-122936038D01*
X138779640Y-122870977D01*
X138907678Y-122814702D01*
X138969867Y-122785207D01*
X139084006Y-122735747D01*
X139248734Y-122675101D01*
X139448832Y-122608102D01*
X139669078Y-122539585D01*
X139894251Y-122474384D01*
X140109130Y-122417334D01*
X140191145Y-122397321D01*
X140593716Y-122315842D01*
X141060559Y-122246335D01*
X141589243Y-122188990D01*
X142177338Y-122144000D01*
X142822415Y-122111553D01*
X143522044Y-122091841D01*
X144168400Y-122085211D01*
X145489200Y-122081704D01*
X146405009Y-122219659D01*
X146843658Y-122290813D01*
X147225355Y-122364442D01*
X147560879Y-122443516D01*
X147861009Y-122531003D01*
X148136525Y-122629876D01*
X148398205Y-122743103D01*
X148520267Y-122802519D01*
X148687212Y-122884247D01*
X148870226Y-122970260D01*
X149035032Y-123044517D01*
X149065516Y-123057714D01*
X149229545Y-123134247D01*
X149408198Y-123227133D01*
X149556582Y-123312550D01*
X149693140Y-123396725D01*
X149859666Y-123498953D01*
X150028247Y-123602109D01*
X150095067Y-123642883D01*
X150331962Y-123792726D01*
X150529458Y-123932223D01*
X150705627Y-124076566D01*
X150878540Y-124240951D01*
X151066268Y-124440570D01*
X151134866Y-124517122D01*
X151378805Y-124802517D01*
X151583205Y-125068504D01*
X151758206Y-125331847D01*
X151913947Y-125609309D01*
X152060570Y-125917652D01*
X152208214Y-126273639D01*
X152227910Y-126324029D01*
X152303229Y-126522006D01*
X152354175Y-126667372D01*
X152383403Y-126769620D01*
X152393567Y-126838247D01*
X152387321Y-126882746D01*
X152385395Y-126887358D01*
X152372729Y-126968949D01*
X152403449Y-127033235D01*
X152434120Y-127114507D01*
X152456798Y-127252160D01*
X152471398Y-127435307D01*
X152477830Y-127653058D01*
X152476008Y-127894524D01*
X152465844Y-128148817D01*
X152447251Y-128405047D01*
X152420141Y-128652326D01*
X152416669Y-128678266D01*
X152387792Y-128876486D01*
X152357186Y-129063898D01*
X152327710Y-129224428D01*
X152302227Y-129342001D01*
X152291699Y-129380216D01*
X152256673Y-129510566D01*
X152224904Y-129662272D01*
X152212845Y-129735816D01*
X152190185Y-129844140D01*
X152148872Y-129995766D01*
X152094719Y-130170834D01*
X152033542Y-130349488D01*
X152031669Y-130354666D01*
X151962589Y-130548700D01*
X151891389Y-130754279D01*
X151826964Y-130945429D01*
X151782563Y-131082262D01*
X151736129Y-131210463D01*
X151664960Y-131382838D01*
X151576003Y-131583693D01*
X151476202Y-131797335D01*
X151374944Y-132003248D01*
X151170233Y-132397763D01*
X150979504Y-132741321D01*
X150794203Y-133046842D01*
X150605778Y-133327246D01*
X150405676Y-133595449D01*
X150185343Y-133864372D01*
X150009710Y-134065319D01*
X149737937Y-134357511D01*
X149471972Y-134616357D01*
X149192598Y-134859002D01*
X148880599Y-135102591D01*
X148695243Y-135238079D01*
X148516929Y-135362686D01*
X148358361Y-135463658D01*
X148207718Y-135545200D01*
X148053178Y-135611519D01*
X147882917Y-135666820D01*
X147685113Y-135715309D01*
X147447944Y-135761192D01*
X147159587Y-135808673D01*
X147039012Y-135827267D01*
X146936970Y-135863087D01*
X146886836Y-135924273D01*
X146894687Y-135999019D01*
X146927758Y-136043490D01*
X146996764Y-136085607D01*
X147086622Y-136110722D01*
X147167508Y-136112899D01*
X147202289Y-136098128D01*
X147239292Y-136086896D01*
X147329110Y-136066877D01*
X147457846Y-136041004D01*
X147596247Y-136015000D01*
X147964607Y-135931309D01*
X148273040Y-135824928D01*
X148526002Y-135694203D01*
X148604934Y-135640434D01*
X148879828Y-135437429D01*
X149108400Y-135265186D01*
X149299994Y-135115884D01*
X149463959Y-134981701D01*
X149609640Y-134854815D01*
X149746383Y-134727404D01*
X149883534Y-134591646D01*
X149993660Y-134478215D01*
X150269756Y-134181229D01*
X150512579Y-133898597D01*
X150731564Y-133616870D01*
X150936150Y-133322600D01*
X151135773Y-133002338D01*
X151339870Y-132642635D01*
X151520722Y-132302000D01*
X151628670Y-132090850D01*
X151733317Y-131880798D01*
X151827778Y-131686064D01*
X151905167Y-131520871D01*
X151958598Y-131399442D01*
X151963430Y-131387600D01*
X152028135Y-131241062D01*
X152079709Y-131154574D01*
X152116474Y-131130946D01*
X152116723Y-131131024D01*
X152241547Y-131140805D01*
X152394034Y-131104276D01*
X152487819Y-131063238D01*
X152593287Y-131018814D01*
X152735630Y-130970885D01*
X152885320Y-130929326D01*
X152895689Y-130926820D01*
X153209337Y-130824994D01*
X153522668Y-130673669D01*
X153823603Y-130482109D01*
X154100064Y-130259580D01*
X154339974Y-130015344D01*
X154531254Y-129758667D01*
X154615001Y-129608062D01*
X154715155Y-129362794D01*
X154765911Y-129131449D01*
X154768903Y-128992868D01*
X154486181Y-128992868D01*
X154455496Y-129264793D01*
X154383765Y-129483343D01*
X154251278Y-129704985D01*
X154063647Y-129925259D01*
X153833010Y-130134962D01*
X153571501Y-130324891D01*
X153291256Y-130485843D01*
X153004410Y-130608615D01*
X152830922Y-130660939D01*
X152683993Y-130700528D01*
X152550817Y-130741617D01*
X152453620Y-130777176D01*
X152432086Y-130787080D01*
X152319277Y-130837415D01*
X152224003Y-130866537D01*
X152163110Y-130870026D01*
X152150874Y-130860907D01*
X152156366Y-130818397D01*
X152180728Y-130732497D01*
X152213027Y-130637753D01*
X152260967Y-130505830D01*
X152319940Y-130343267D01*
X152377956Y-130183124D01*
X152383285Y-130168400D01*
X152429248Y-130029857D01*
X152463949Y-129903351D01*
X152481395Y-129811422D01*
X152482366Y-129795866D01*
X152493015Y-129702386D01*
X152518794Y-129582235D01*
X152534281Y-129526530D01*
X152560432Y-129432464D01*
X152585243Y-129324233D01*
X152610381Y-129192034D01*
X152637512Y-129026064D01*
X152668302Y-128816521D01*
X152704419Y-128553602D01*
X152721573Y-128424935D01*
X152748265Y-128210074D01*
X152764054Y-128039509D01*
X152769652Y-127890807D01*
X152765774Y-127741535D01*
X152753133Y-127569260D01*
X152749928Y-127533492D01*
X152737259Y-127375712D01*
X152729910Y-127243636D01*
X152728436Y-127151214D01*
X152733276Y-127112502D01*
X152775933Y-127108440D01*
X152865354Y-127120236D01*
X152983483Y-127144084D01*
X153112266Y-127176182D01*
X153233651Y-127212725D01*
X153270719Y-127225740D01*
X153545951Y-127359780D01*
X153805041Y-127547770D01*
X154036019Y-127777249D01*
X154226915Y-128035756D01*
X154365757Y-128310830D01*
X154396343Y-128397475D01*
X154466513Y-128699540D01*
X154486181Y-128992868D01*
X154768903Y-128992868D01*
X154771166Y-128888108D01*
X154750970Y-128704097D01*
X154666484Y-128343433D01*
X154527130Y-128004555D01*
X154358458Y-127729241D01*
X154189464Y-127533745D01*
X153979065Y-127345225D01*
X153742822Y-127173892D01*
X153496297Y-127029960D01*
X153255049Y-126923640D01*
X153044063Y-126866634D01*
X152920161Y-126846688D01*
X152828706Y-126827372D01*
X152760863Y-126799141D01*
X152707802Y-126752450D01*
X152660687Y-126677756D01*
X152610688Y-126565513D01*
X152548970Y-126406178D01*
X152501086Y-126279921D01*
X152346940Y-125895699D01*
X152194800Y-125562929D01*
X152035736Y-125266217D01*
X151860819Y-124990172D01*
X151661120Y-124719398D01*
X151443315Y-124456488D01*
X151150999Y-124134896D01*
X150884251Y-123875160D01*
X150642427Y-123676677D01*
X150530128Y-123599880D01*
X150421818Y-123531303D01*
X150275918Y-123438909D01*
X150112056Y-123335130D01*
X149959600Y-123238565D01*
X149801256Y-123140417D01*
X149646138Y-123048019D01*
X149512138Y-122971808D01*
X149417734Y-122922496D01*
X149043237Y-122746321D01*
X148719512Y-122597117D01*
X148436657Y-122471743D01*
X148184770Y-122367059D01*
X147953950Y-122279926D01*
X147734296Y-122207202D01*
X147515905Y-122145749D01*
X147288878Y-122092427D01*
X147043311Y-122044094D01*
X146769304Y-121997613D01*
X146456956Y-121949842D01*
X146260037Y-121921130D01*
X145303674Y-121783149D01*
X144024837Y-121799876D01*
G36*
X142879613Y-124503295D02*
X142646900Y-124510050D01*
X142459759Y-124520572D01*
X142398642Y-124526043D01*
X142110373Y-124562249D01*
X141788289Y-124613465D01*
X141446978Y-124676516D01*
X141101028Y-124748229D01*
X140765027Y-124825426D01*
X140453561Y-124904935D01*
X140181219Y-124983580D01*
X139974642Y-125053611D01*
X139639004Y-125195876D01*
X139295823Y-125370186D01*
X138964468Y-125565271D01*
X138664307Y-125769856D01*
X138450857Y-125940447D01*
X138265705Y-126114461D01*
X138102486Y-126296902D01*
X137950773Y-126501858D01*
X137800137Y-126743416D01*
X137640150Y-127035665D01*
X137640115Y-127035733D01*
X137451534Y-127425219D01*
X137309939Y-127783949D01*
X137210934Y-128125297D01*
X137150121Y-128462640D01*
X137139187Y-128559733D01*
X137123176Y-128739257D01*
X137116966Y-128874676D01*
X137121527Y-128989043D01*
X137137832Y-129105409D01*
X137166851Y-129246825D01*
X137168439Y-129254000D01*
X137208566Y-129404675D01*
X137267096Y-129585647D01*
X137338103Y-129782102D01*
X137415659Y-129979228D01*
X137493837Y-130162212D01*
X137566710Y-130316241D01*
X137628350Y-130426503D01*
X137649518Y-130456266D01*
X137712709Y-130541262D01*
X137811252Y-130683218D01*
X137944758Y-130881562D01*
X138112835Y-131135719D01*
X138119582Y-131145988D01*
X138169414Y-131208984D01*
X138252642Y-131300833D01*
X138359006Y-131411534D01*
X138478243Y-131531084D01*
X138600094Y-131649483D01*
X138714296Y-131756727D01*
X138810588Y-131842815D01*
X138878710Y-131897744D01*
X138905991Y-131912533D01*
X138946633Y-131930124D01*
X139023537Y-131975502D01*
X139091126Y-132019517D01*
X139189209Y-132080357D01*
X139253301Y-132103240D01*
X139301277Y-132093773D01*
X139310684Y-132088383D01*
X139339428Y-132074541D01*
X139356037Y-132084720D01*
X139362295Y-132130136D01*
X139359988Y-132222008D01*
X139352305Y-132349971D01*
X139356795Y-132777107D01*
X139426416Y-133186382D01*
X139560708Y-133576821D01*
X139759207Y-133947449D01*
X140021451Y-134297293D01*
X140346978Y-134625378D01*
X140488940Y-134745570D01*
X140776595Y-134935647D01*
X141113450Y-135081584D01*
X141496421Y-135182300D01*
X141880055Y-135233553D01*
X142206412Y-135256759D01*
X142476138Y-135269753D01*
X142686801Y-135272515D01*
X142835971Y-135265029D01*
X142921217Y-135247275D01*
X142932023Y-135241395D01*
X142994917Y-135222335D01*
X143121349Y-135209390D01*
X143312761Y-135202455D01*
X143494705Y-135201129D01*
X143708618Y-135199799D01*
X143877293Y-135193571D01*
X144023183Y-135179970D01*
X144168742Y-135156520D01*
X144336420Y-135120745D01*
X144436167Y-135097321D01*
X144878910Y-134965500D01*
X145268133Y-134793553D01*
X145606118Y-134579737D01*
X145895151Y-134322313D01*
X146137516Y-134019542D01*
X146335497Y-133669681D01*
X146349429Y-133639733D01*
X146434431Y-133415124D01*
X146500028Y-133164346D01*
X146540630Y-132914313D01*
X146542918Y-132863514D01*
X146271591Y-132863514D01*
X146223057Y-133204418D01*
X146108597Y-133534143D01*
X145927506Y-133855299D01*
X145867279Y-133940630D01*
X145647133Y-134187124D01*
X145373084Y-134407169D01*
X145055987Y-134594177D01*
X144706695Y-134741560D01*
X144405467Y-134827862D01*
X144273231Y-134855978D01*
X144151118Y-134876286D01*
X144024103Y-134889907D01*
X143877163Y-134897958D01*
X143695274Y-134901559D01*
X143463411Y-134901828D01*
X143415176Y-134901609D01*
X143151674Y-134902197D01*
X142952164Y-134906949D01*
X142817721Y-134915815D01*
X142749423Y-134928742D01*
X142741165Y-134934490D01*
X142697846Y-134949808D01*
X142599548Y-134958270D01*
X142458609Y-134960511D01*
X142287369Y-134957166D01*
X142098167Y-134948873D01*
X141903340Y-134936266D01*
X141715228Y-134919982D01*
X141546170Y-134900655D01*
X141408504Y-134878923D01*
X141335458Y-134862059D01*
X141109443Y-134789659D01*
X140928019Y-134711833D01*
X140768319Y-134617097D01*
X140615112Y-134500328D01*
X140325664Y-134234961D01*
X140093231Y-133962864D01*
X139907475Y-133670127D01*
X139761396Y-133351451D01*
X139723966Y-133248387D01*
X139697385Y-133152761D01*
X139679264Y-133048196D01*
X139667218Y-132918314D01*
X139658859Y-132746737D01*
X139654691Y-132619354D01*
X139650541Y-132371684D01*
X139657649Y-132174226D01*
X139680607Y-132009788D01*
X139724008Y-131861177D01*
X139792444Y-131711201D01*
X139890507Y-131542667D01*
X139979182Y-131404533D01*
X140159933Y-131145278D01*
X140333242Y-130937253D01*
X140514206Y-130767811D01*
X140717921Y-130624309D01*
X140959481Y-130494100D01*
X141188134Y-130391842D01*
X141371039Y-130318048D01*
X141498435Y-130274310D01*
X141574965Y-130259541D01*
X141605270Y-130272658D01*
X141602657Y-130294909D01*
X141607317Y-130373287D01*
X141676528Y-130458333D01*
X141807748Y-130547450D01*
X141893335Y-130591543D01*
X142116732Y-130709124D01*
X142360355Y-130855573D01*
X142595360Y-131013068D01*
X142699949Y-131089880D01*
X142857097Y-131209580D01*
X142879974Y-131535656D01*
X142894015Y-131707116D01*
X142911535Y-131880457D01*
X142929446Y-132026088D01*
X142935219Y-132064933D01*
X142995298Y-132489515D01*
X143042426Y-132920837D01*
X143073980Y-133332267D01*
X143085234Y-133588211D01*
X143091839Y-133782419D01*
X143100068Y-133919714D01*
X143111397Y-134010917D01*
X143127301Y-134066850D01*
X143149254Y-134098331D01*
X143155470Y-134103365D01*
X143233133Y-134132475D01*
X143296716Y-134100081D01*
X143344641Y-134011250D01*
X143375327Y-133871046D01*
X143387194Y-133684538D01*
X143378663Y-133456790D01*
X143373987Y-133402666D01*
X143344604Y-133094521D01*
X143320426Y-132847712D01*
X143300761Y-132656096D01*
X143284914Y-132513533D01*
X143272193Y-132413882D01*
X143261905Y-132351001D01*
X143253358Y-132318750D01*
X143251182Y-132314372D01*
X143241680Y-132270966D01*
X143228650Y-132172704D01*
X143213522Y-132032281D01*
X143197730Y-131862392D01*
X143190619Y-131777616D01*
X143149684Y-131272618D01*
X143286509Y-131250129D01*
X143436520Y-131197274D01*
X143602370Y-131089387D01*
X143774094Y-130934065D01*
X143919437Y-130767631D01*
X144025312Y-130615433D01*
X144076806Y-130497151D01*
X144073681Y-130414375D01*
X144015696Y-130368696D01*
X143980677Y-130361560D01*
X143927249Y-130365843D01*
X143874211Y-130399419D01*
X143808389Y-130473092D01*
X143750678Y-130550121D01*
X143592057Y-130744028D01*
X143441102Y-130875018D01*
X143292758Y-130946699D01*
X143171644Y-130963767D01*
X143109349Y-130963068D01*
X143057415Y-130957942D01*
X143005200Y-130943160D01*
X142942065Y-130913490D01*
X142857370Y-130863702D01*
X142740473Y-130788566D01*
X142580735Y-130682851D01*
X142525545Y-130646171D01*
X142370470Y-130546207D01*
X142216307Y-130452150D01*
X142082056Y-130375299D01*
X141995127Y-130330718D01*
X141895451Y-130282014D01*
X141823545Y-130241155D01*
X141799464Y-130221999D01*
X141819819Y-130199618D01*
X141899806Y-130172511D01*
X142031609Y-130142162D01*
X142207412Y-130110056D01*
X142419398Y-130077678D01*
X142659751Y-130046510D01*
X142817447Y-130028675D01*
X143040421Y-130006262D01*
X143214534Y-129993030D01*
X143357990Y-129988648D01*
X143488990Y-129992782D01*
X143625735Y-130005099D01*
X143689984Y-130012723D01*
X144136951Y-130101533D01*
X144559194Y-130253200D01*
X144954976Y-130466865D01*
X145322561Y-130741674D01*
X145498776Y-130905257D01*
X145648821Y-131062034D01*
X145763247Y-131202616D01*
X145860399Y-131351740D01*
X145944354Y-131506133D01*
X146053006Y-131731332D01*
X146132211Y-131932855D01*
X146190014Y-132136680D01*
X146234462Y-132368784D01*
X146254906Y-132508821D01*
X146271591Y-132863514D01*
X146542918Y-132863514D01*
X146550647Y-132691940D01*
X146549876Y-132674533D01*
X146539067Y-132471333D01*
X146759200Y-132417766D01*
X146941281Y-132363888D01*
X147152599Y-132286320D01*
X147373482Y-132193702D01*
X147584257Y-132094673D01*
X147765250Y-131997873D01*
X147876234Y-131927232D01*
X148028059Y-131805269D01*
X148206757Y-131640742D01*
X148400246Y-131446500D01*
X148596444Y-131235390D01*
X148783269Y-131020261D01*
X148948641Y-130813959D01*
X149038470Y-130691304D01*
X149145528Y-130518755D01*
X149263712Y-130294398D01*
X149386460Y-130031806D01*
X149507211Y-129744554D01*
X149553199Y-129626533D01*
X149595220Y-129484831D01*
X149634886Y-129294919D01*
X149669527Y-129076318D01*
X149696472Y-128848550D01*
X149713052Y-128631137D01*
X149714392Y-128560160D01*
X149433449Y-128560160D01*
X149421228Y-128821209D01*
X149388003Y-129121663D01*
X149363383Y-129282047D01*
X149332178Y-129422281D01*
X149287982Y-129563292D01*
X149224393Y-129726004D01*
X149151609Y-129894079D01*
X149029599Y-130156496D01*
X148914060Y-130373683D01*
X148792293Y-130565377D01*
X148651600Y-130751312D01*
X148479281Y-130951223D01*
X148452042Y-130981303D01*
X148342131Y-131103806D01*
X148242315Y-131218080D01*
X148165988Y-131308636D01*
X148134358Y-131348733D01*
X148043338Y-131444701D01*
X147906090Y-131555447D01*
X147735755Y-131673462D01*
X147545473Y-131791242D01*
X147348384Y-131901279D01*
X147157630Y-131996069D01*
X146986351Y-132068104D01*
X146847687Y-132109878D01*
X146788953Y-132117260D01*
X146699145Y-132132041D01*
X146606800Y-132162792D01*
X146505200Y-132206796D01*
X146446404Y-132000398D01*
X146406735Y-131885434D01*
X146344315Y-131732148D01*
X146268257Y-131561986D01*
X146200379Y-131421466D01*
X146098416Y-131228754D01*
X146002204Y-131074467D01*
X145894102Y-130933466D01*
X145756467Y-130780611D01*
X145734243Y-130757259D01*
X145383807Y-130438863D01*
X144995009Y-130173968D01*
X144574553Y-129965776D01*
X144129141Y-129817491D01*
X143665477Y-129732316D01*
X143569979Y-129723040D01*
X143337865Y-129716367D01*
X143057017Y-129728480D01*
X142743167Y-129757381D01*
X142412046Y-129801070D01*
X142079386Y-129857552D01*
X141760920Y-129924828D01*
X141543734Y-129980361D01*
X141369500Y-130035445D01*
X141171929Y-130108294D01*
X140969075Y-130191220D01*
X140778992Y-130276536D01*
X140619733Y-130356555D01*
X140519311Y-130416560D01*
X140345709Y-130556958D01*
X140159234Y-130743412D01*
X139971286Y-130961072D01*
X139793262Y-131195084D01*
X139636561Y-131430596D01*
X139512582Y-131652756D01*
X139440798Y-131821881D01*
X139408487Y-131906506D01*
X139385837Y-131946661D01*
X139378642Y-131939109D01*
X139350047Y-131893126D01*
X139275021Y-131824440D01*
X139165905Y-131744020D01*
X139139139Y-131726226D01*
X138824824Y-131491536D01*
X138542573Y-131215992D01*
X138280912Y-130887962D01*
X138207373Y-130781550D01*
X138107303Y-130633649D01*
X138014818Y-130499269D01*
X137939448Y-130392102D01*
X137890723Y-130325840D01*
X137886726Y-130320800D01*
X137838047Y-130242662D01*
X137774579Y-130115622D01*
X137702620Y-129955142D01*
X137628467Y-129776687D01*
X137558418Y-129595721D01*
X137498769Y-129427709D01*
X137455819Y-129288114D01*
X137441073Y-129226432D01*
X137421841Y-129062686D01*
X137416600Y-128845342D01*
X137423756Y-128621659D01*
X137449672Y-128343963D01*
X137499480Y-128082273D01*
X137578288Y-127819196D01*
X137691203Y-127537340D01*
X137824892Y-127255866D01*
X138027401Y-126884083D01*
X138237316Y-126568478D01*
X138465824Y-126297602D01*
X138724110Y-126060003D01*
X139023358Y-125844234D01*
X139374755Y-125638843D01*
X139436412Y-125606258D01*
X139674339Y-125485667D01*
X139884678Y-125388637D01*
X140087202Y-125307769D01*
X140301686Y-125235665D01*
X140547903Y-125164924D01*
X140771195Y-125106820D01*
X141147743Y-125015258D01*
X141478191Y-124943470D01*
X141780244Y-124888503D01*
X142071608Y-124847401D01*
X142369987Y-124817209D01*
X142610534Y-124799854D01*
X142815898Y-124790286D01*
X143059289Y-124784106D01*
X143329295Y-124781130D01*
X143614506Y-124781175D01*
X143903510Y-124784058D01*
X144184895Y-124789595D01*
X144447250Y-124797603D01*
X144679164Y-124807899D01*
X144869225Y-124820300D01*
X145006022Y-124834623D01*
X145032000Y-124838735D01*
X145152241Y-124859149D01*
X145311381Y-124885058D01*
X145481337Y-124911913D01*
X145540000Y-124920974D01*
X145730407Y-124954999D01*
X145942182Y-125000250D01*
X146134913Y-125047970D01*
X146166534Y-125056733D01*
X146348173Y-125113995D01*
X146557921Y-125189457D01*
X146782933Y-125277546D01*
X147010363Y-125372687D01*
X147227366Y-125469307D01*
X147421098Y-125561832D01*
X147578714Y-125644689D01*
X147687367Y-125712305D01*
X147700753Y-125722442D01*
X147808101Y-125804852D01*
X147943954Y-125905540D01*
X148081053Y-126004339D01*
X148096934Y-126015561D01*
X148345054Y-126212842D01*
X148585363Y-126445377D01*
X148803937Y-126697256D01*
X148986854Y-126952569D01*
X149109994Y-127173223D01*
X149167875Y-127312640D01*
X149231683Y-127492288D01*
X149292643Y-127686279D01*
X149331518Y-127826789D01*
X149389518Y-128084130D01*
X149423187Y-128321527D01*
X149433449Y-128560160D01*
X149714392Y-128560160D01*
X149716595Y-128443600D01*
X149716338Y-128433846D01*
X149699457Y-128258900D01*
X149660770Y-128040938D01*
X149605230Y-127799166D01*
X149537790Y-127552790D01*
X149463406Y-127321017D01*
X149387031Y-127123054D01*
X149366479Y-127077397D01*
X149220002Y-126810964D01*
X149029155Y-126546286D01*
X148786509Y-126273742D01*
X148615035Y-126104400D01*
X148503946Y-126001400D01*
X148393434Y-125904979D01*
X148271657Y-125805709D01*
X148126771Y-125694164D01*
X147946933Y-125560915D01*
X147778647Y-125438646D01*
X147637634Y-125352151D01*
X147443322Y-125254939D01*
X147208383Y-125151641D01*
X146945490Y-125046887D01*
X146667316Y-124945310D01*
X146386532Y-124851539D01*
X146115811Y-124770205D01*
X145867826Y-124705940D01*
X145658534Y-124663896D01*
X145499170Y-124637523D01*
X145314776Y-124605719D01*
X145155596Y-124577242D01*
X145022513Y-124559572D01*
X144833046Y-124543775D01*
X144598523Y-124530061D01*
X144330273Y-124518640D01*
X144039624Y-124509723D01*
X143737905Y-124503519D01*
X143436445Y-124500239D01*
X143146571Y-124500095D01*
X142879613Y-124503295D01*
X142879613Y-124503295D01*
G37*
X142879613Y-124503295D02*
X142646900Y-124510050D01*
X142459759Y-124520572D01*
X142398642Y-124526043D01*
X142110373Y-124562249D01*
X141788289Y-124613465D01*
X141446978Y-124676516D01*
X141101028Y-124748229D01*
X140765027Y-124825426D01*
X140453561Y-124904935D01*
X140181219Y-124983580D01*
X139974642Y-125053611D01*
X139639004Y-125195876D01*
X139295823Y-125370186D01*
X138964468Y-125565271D01*
X138664307Y-125769856D01*
X138450857Y-125940447D01*
X138265705Y-126114461D01*
X138102486Y-126296902D01*
X137950773Y-126501858D01*
X137800137Y-126743416D01*
X137640150Y-127035665D01*
X137640115Y-127035733D01*
X137451534Y-127425219D01*
X137309939Y-127783949D01*
X137210934Y-128125297D01*
X137150121Y-128462640D01*
X137139187Y-128559733D01*
X137123176Y-128739257D01*
X137116966Y-128874676D01*
X137121527Y-128989043D01*
X137137832Y-129105409D01*
X137166851Y-129246825D01*
X137168439Y-129254000D01*
X137208566Y-129404675D01*
X137267096Y-129585647D01*
X137338103Y-129782102D01*
X137415659Y-129979228D01*
X137493837Y-130162212D01*
X137566710Y-130316241D01*
X137628350Y-130426503D01*
X137649518Y-130456266D01*
X137712709Y-130541262D01*
X137811252Y-130683218D01*
X137944758Y-130881562D01*
X138112835Y-131135719D01*
X138119582Y-131145988D01*
X138169414Y-131208984D01*
X138252642Y-131300833D01*
X138359006Y-131411534D01*
X138478243Y-131531084D01*
X138600094Y-131649483D01*
X138714296Y-131756727D01*
X138810588Y-131842815D01*
X138878710Y-131897744D01*
X138905991Y-131912533D01*
X138946633Y-131930124D01*
X139023537Y-131975502D01*
X139091126Y-132019517D01*
X139189209Y-132080357D01*
X139253301Y-132103240D01*
X139301277Y-132093773D01*
X139310684Y-132088383D01*
X139339428Y-132074541D01*
X139356037Y-132084720D01*
X139362295Y-132130136D01*
X139359988Y-132222008D01*
X139352305Y-132349971D01*
X139356795Y-132777107D01*
X139426416Y-133186382D01*
X139560708Y-133576821D01*
X139759207Y-133947449D01*
X140021451Y-134297293D01*
X140346978Y-134625378D01*
X140488940Y-134745570D01*
X140776595Y-134935647D01*
X141113450Y-135081584D01*
X141496421Y-135182300D01*
X141880055Y-135233553D01*
X142206412Y-135256759D01*
X142476138Y-135269753D01*
X142686801Y-135272515D01*
X142835971Y-135265029D01*
X142921217Y-135247275D01*
X142932023Y-135241395D01*
X142994917Y-135222335D01*
X143121349Y-135209390D01*
X143312761Y-135202455D01*
X143494705Y-135201129D01*
X143708618Y-135199799D01*
X143877293Y-135193571D01*
X144023183Y-135179970D01*
X144168742Y-135156520D01*
X144336420Y-135120745D01*
X144436167Y-135097321D01*
X144878910Y-134965500D01*
X145268133Y-134793553D01*
X145606118Y-134579737D01*
X145895151Y-134322313D01*
X146137516Y-134019542D01*
X146335497Y-133669681D01*
X146349429Y-133639733D01*
X146434431Y-133415124D01*
X146500028Y-133164346D01*
X146540630Y-132914313D01*
X146542918Y-132863514D01*
X146271591Y-132863514D01*
X146223057Y-133204418D01*
X146108597Y-133534143D01*
X145927506Y-133855299D01*
X145867279Y-133940630D01*
X145647133Y-134187124D01*
X145373084Y-134407169D01*
X145055987Y-134594177D01*
X144706695Y-134741560D01*
X144405467Y-134827862D01*
X144273231Y-134855978D01*
X144151118Y-134876286D01*
X144024103Y-134889907D01*
X143877163Y-134897958D01*
X143695274Y-134901559D01*
X143463411Y-134901828D01*
X143415176Y-134901609D01*
X143151674Y-134902197D01*
X142952164Y-134906949D01*
X142817721Y-134915815D01*
X142749423Y-134928742D01*
X142741165Y-134934490D01*
X142697846Y-134949808D01*
X142599548Y-134958270D01*
X142458609Y-134960511D01*
X142287369Y-134957166D01*
X142098167Y-134948873D01*
X141903340Y-134936266D01*
X141715228Y-134919982D01*
X141546170Y-134900655D01*
X141408504Y-134878923D01*
X141335458Y-134862059D01*
X141109443Y-134789659D01*
X140928019Y-134711833D01*
X140768319Y-134617097D01*
X140615112Y-134500328D01*
X140325664Y-134234961D01*
X140093231Y-133962864D01*
X139907475Y-133670127D01*
X139761396Y-133351451D01*
X139723966Y-133248387D01*
X139697385Y-133152761D01*
X139679264Y-133048196D01*
X139667218Y-132918314D01*
X139658859Y-132746737D01*
X139654691Y-132619354D01*
X139650541Y-132371684D01*
X139657649Y-132174226D01*
X139680607Y-132009788D01*
X139724008Y-131861177D01*
X139792444Y-131711201D01*
X139890507Y-131542667D01*
X139979182Y-131404533D01*
X140159933Y-131145278D01*
X140333242Y-130937253D01*
X140514206Y-130767811D01*
X140717921Y-130624309D01*
X140959481Y-130494100D01*
X141188134Y-130391842D01*
X141371039Y-130318048D01*
X141498435Y-130274310D01*
X141574965Y-130259541D01*
X141605270Y-130272658D01*
X141602657Y-130294909D01*
X141607317Y-130373287D01*
X141676528Y-130458333D01*
X141807748Y-130547450D01*
X141893335Y-130591543D01*
X142116732Y-130709124D01*
X142360355Y-130855573D01*
X142595360Y-131013068D01*
X142699949Y-131089880D01*
X142857097Y-131209580D01*
X142879974Y-131535656D01*
X142894015Y-131707116D01*
X142911535Y-131880457D01*
X142929446Y-132026088D01*
X142935219Y-132064933D01*
X142995298Y-132489515D01*
X143042426Y-132920837D01*
X143073980Y-133332267D01*
X143085234Y-133588211D01*
X143091839Y-133782419D01*
X143100068Y-133919714D01*
X143111397Y-134010917D01*
X143127301Y-134066850D01*
X143149254Y-134098331D01*
X143155470Y-134103365D01*
X143233133Y-134132475D01*
X143296716Y-134100081D01*
X143344641Y-134011250D01*
X143375327Y-133871046D01*
X143387194Y-133684538D01*
X143378663Y-133456790D01*
X143373987Y-133402666D01*
X143344604Y-133094521D01*
X143320426Y-132847712D01*
X143300761Y-132656096D01*
X143284914Y-132513533D01*
X143272193Y-132413882D01*
X143261905Y-132351001D01*
X143253358Y-132318750D01*
X143251182Y-132314372D01*
X143241680Y-132270966D01*
X143228650Y-132172704D01*
X143213522Y-132032281D01*
X143197730Y-131862392D01*
X143190619Y-131777616D01*
X143149684Y-131272618D01*
X143286509Y-131250129D01*
X143436520Y-131197274D01*
X143602370Y-131089387D01*
X143774094Y-130934065D01*
X143919437Y-130767631D01*
X144025312Y-130615433D01*
X144076806Y-130497151D01*
X144073681Y-130414375D01*
X144015696Y-130368696D01*
X143980677Y-130361560D01*
X143927249Y-130365843D01*
X143874211Y-130399419D01*
X143808389Y-130473092D01*
X143750678Y-130550121D01*
X143592057Y-130744028D01*
X143441102Y-130875018D01*
X143292758Y-130946699D01*
X143171644Y-130963767D01*
X143109349Y-130963068D01*
X143057415Y-130957942D01*
X143005200Y-130943160D01*
X142942065Y-130913490D01*
X142857370Y-130863702D01*
X142740473Y-130788566D01*
X142580735Y-130682851D01*
X142525545Y-130646171D01*
X142370470Y-130546207D01*
X142216307Y-130452150D01*
X142082056Y-130375299D01*
X141995127Y-130330718D01*
X141895451Y-130282014D01*
X141823545Y-130241155D01*
X141799464Y-130221999D01*
X141819819Y-130199618D01*
X141899806Y-130172511D01*
X142031609Y-130142162D01*
X142207412Y-130110056D01*
X142419398Y-130077678D01*
X142659751Y-130046510D01*
X142817447Y-130028675D01*
X143040421Y-130006262D01*
X143214534Y-129993030D01*
X143357990Y-129988648D01*
X143488990Y-129992782D01*
X143625735Y-130005099D01*
X143689984Y-130012723D01*
X144136951Y-130101533D01*
X144559194Y-130253200D01*
X144954976Y-130466865D01*
X145322561Y-130741674D01*
X145498776Y-130905257D01*
X145648821Y-131062034D01*
X145763247Y-131202616D01*
X145860399Y-131351740D01*
X145944354Y-131506133D01*
X146053006Y-131731332D01*
X146132211Y-131932855D01*
X146190014Y-132136680D01*
X146234462Y-132368784D01*
X146254906Y-132508821D01*
X146271591Y-132863514D01*
X146542918Y-132863514D01*
X146550647Y-132691940D01*
X146549876Y-132674533D01*
X146539067Y-132471333D01*
X146759200Y-132417766D01*
X146941281Y-132363888D01*
X147152599Y-132286320D01*
X147373482Y-132193702D01*
X147584257Y-132094673D01*
X147765250Y-131997873D01*
X147876234Y-131927232D01*
X148028059Y-131805269D01*
X148206757Y-131640742D01*
X148400246Y-131446500D01*
X148596444Y-131235390D01*
X148783269Y-131020261D01*
X148948641Y-130813959D01*
X149038470Y-130691304D01*
X149145528Y-130518755D01*
X149263712Y-130294398D01*
X149386460Y-130031806D01*
X149507211Y-129744554D01*
X149553199Y-129626533D01*
X149595220Y-129484831D01*
X149634886Y-129294919D01*
X149669527Y-129076318D01*
X149696472Y-128848550D01*
X149713052Y-128631137D01*
X149714392Y-128560160D01*
X149433449Y-128560160D01*
X149421228Y-128821209D01*
X149388003Y-129121663D01*
X149363383Y-129282047D01*
X149332178Y-129422281D01*
X149287982Y-129563292D01*
X149224393Y-129726004D01*
X149151609Y-129894079D01*
X149029599Y-130156496D01*
X148914060Y-130373683D01*
X148792293Y-130565377D01*
X148651600Y-130751312D01*
X148479281Y-130951223D01*
X148452042Y-130981303D01*
X148342131Y-131103806D01*
X148242315Y-131218080D01*
X148165988Y-131308636D01*
X148134358Y-131348733D01*
X148043338Y-131444701D01*
X147906090Y-131555447D01*
X147735755Y-131673462D01*
X147545473Y-131791242D01*
X147348384Y-131901279D01*
X147157630Y-131996069D01*
X146986351Y-132068104D01*
X146847687Y-132109878D01*
X146788953Y-132117260D01*
X146699145Y-132132041D01*
X146606800Y-132162792D01*
X146505200Y-132206796D01*
X146446404Y-132000398D01*
X146406735Y-131885434D01*
X146344315Y-131732148D01*
X146268257Y-131561986D01*
X146200379Y-131421466D01*
X146098416Y-131228754D01*
X146002204Y-131074467D01*
X145894102Y-130933466D01*
X145756467Y-130780611D01*
X145734243Y-130757259D01*
X145383807Y-130438863D01*
X144995009Y-130173968D01*
X144574553Y-129965776D01*
X144129141Y-129817491D01*
X143665477Y-129732316D01*
X143569979Y-129723040D01*
X143337865Y-129716367D01*
X143057017Y-129728480D01*
X142743167Y-129757381D01*
X142412046Y-129801070D01*
X142079386Y-129857552D01*
X141760920Y-129924828D01*
X141543734Y-129980361D01*
X141369500Y-130035445D01*
X141171929Y-130108294D01*
X140969075Y-130191220D01*
X140778992Y-130276536D01*
X140619733Y-130356555D01*
X140519311Y-130416560D01*
X140345709Y-130556958D01*
X140159234Y-130743412D01*
X139971286Y-130961072D01*
X139793262Y-131195084D01*
X139636561Y-131430596D01*
X139512582Y-131652756D01*
X139440798Y-131821881D01*
X139408487Y-131906506D01*
X139385837Y-131946661D01*
X139378642Y-131939109D01*
X139350047Y-131893126D01*
X139275021Y-131824440D01*
X139165905Y-131744020D01*
X139139139Y-131726226D01*
X138824824Y-131491536D01*
X138542573Y-131215992D01*
X138280912Y-130887962D01*
X138207373Y-130781550D01*
X138107303Y-130633649D01*
X138014818Y-130499269D01*
X137939448Y-130392102D01*
X137890723Y-130325840D01*
X137886726Y-130320800D01*
X137838047Y-130242662D01*
X137774579Y-130115622D01*
X137702620Y-129955142D01*
X137628467Y-129776687D01*
X137558418Y-129595721D01*
X137498769Y-129427709D01*
X137455819Y-129288114D01*
X137441073Y-129226432D01*
X137421841Y-129062686D01*
X137416600Y-128845342D01*
X137423756Y-128621659D01*
X137449672Y-128343963D01*
X137499480Y-128082273D01*
X137578288Y-127819196D01*
X137691203Y-127537340D01*
X137824892Y-127255866D01*
X138027401Y-126884083D01*
X138237316Y-126568478D01*
X138465824Y-126297602D01*
X138724110Y-126060003D01*
X139023358Y-125844234D01*
X139374755Y-125638843D01*
X139436412Y-125606258D01*
X139674339Y-125485667D01*
X139884678Y-125388637D01*
X140087202Y-125307769D01*
X140301686Y-125235665D01*
X140547903Y-125164924D01*
X140771195Y-125106820D01*
X141147743Y-125015258D01*
X141478191Y-124943470D01*
X141780244Y-124888503D01*
X142071608Y-124847401D01*
X142369987Y-124817209D01*
X142610534Y-124799854D01*
X142815898Y-124790286D01*
X143059289Y-124784106D01*
X143329295Y-124781130D01*
X143614506Y-124781175D01*
X143903510Y-124784058D01*
X144184895Y-124789595D01*
X144447250Y-124797603D01*
X144679164Y-124807899D01*
X144869225Y-124820300D01*
X145006022Y-124834623D01*
X145032000Y-124838735D01*
X145152241Y-124859149D01*
X145311381Y-124885058D01*
X145481337Y-124911913D01*
X145540000Y-124920974D01*
X145730407Y-124954999D01*
X145942182Y-125000250D01*
X146134913Y-125047970D01*
X146166534Y-125056733D01*
X146348173Y-125113995D01*
X146557921Y-125189457D01*
X146782933Y-125277546D01*
X147010363Y-125372687D01*
X147227366Y-125469307D01*
X147421098Y-125561832D01*
X147578714Y-125644689D01*
X147687367Y-125712305D01*
X147700753Y-125722442D01*
X147808101Y-125804852D01*
X147943954Y-125905540D01*
X148081053Y-126004339D01*
X148096934Y-126015561D01*
X148345054Y-126212842D01*
X148585363Y-126445377D01*
X148803937Y-126697256D01*
X148986854Y-126952569D01*
X149109994Y-127173223D01*
X149167875Y-127312640D01*
X149231683Y-127492288D01*
X149292643Y-127686279D01*
X149331518Y-127826789D01*
X149389518Y-128084130D01*
X149423187Y-128321527D01*
X149433449Y-128560160D01*
X149714392Y-128560160D01*
X149716595Y-128443600D01*
X149716338Y-128433846D01*
X149699457Y-128258900D01*
X149660770Y-128040938D01*
X149605230Y-127799166D01*
X149537790Y-127552790D01*
X149463406Y-127321017D01*
X149387031Y-127123054D01*
X149366479Y-127077397D01*
X149220002Y-126810964D01*
X149029155Y-126546286D01*
X148786509Y-126273742D01*
X148615035Y-126104400D01*
X148503946Y-126001400D01*
X148393434Y-125904979D01*
X148271657Y-125805709D01*
X148126771Y-125694164D01*
X147946933Y-125560915D01*
X147778647Y-125438646D01*
X147637634Y-125352151D01*
X147443322Y-125254939D01*
X147208383Y-125151641D01*
X146945490Y-125046887D01*
X146667316Y-124945310D01*
X146386532Y-124851539D01*
X146115811Y-124770205D01*
X145867826Y-124705940D01*
X145658534Y-124663896D01*
X145499170Y-124637523D01*
X145314776Y-124605719D01*
X145155596Y-124577242D01*
X145022513Y-124559572D01*
X144833046Y-124543775D01*
X144598523Y-124530061D01*
X144330273Y-124518640D01*
X144039624Y-124509723D01*
X143737905Y-124503519D01*
X143436445Y-124500239D01*
X143146571Y-124500095D01*
X142879613Y-124503295D01*
G36*
X146872188Y-128033861D02*
X146705767Y-128088966D01*
X146547982Y-128193911D01*
X146418733Y-128331969D01*
X146339453Y-128481683D01*
X146307226Y-128674158D01*
X146326301Y-128878222D01*
X146390106Y-129078007D01*
X146492068Y-129257642D01*
X146625613Y-129401259D01*
X146753228Y-129480645D01*
X146914578Y-129533222D01*
X147089855Y-129561377D01*
X147247791Y-129560823D01*
X147288652Y-129554083D01*
X147385670Y-129508447D01*
X147497373Y-129419651D01*
X147606795Y-129304415D01*
X147696968Y-129179463D01*
X147728678Y-129120416D01*
X147795685Y-128906138D01*
X147799230Y-128693915D01*
X147745957Y-128508933D01*
X147681115Y-128389753D01*
X147609147Y-128317592D01*
X147510289Y-128272923D01*
X147505553Y-128271450D01*
X147421853Y-128225281D01*
X147359804Y-128166521D01*
X147265003Y-128093081D01*
X147127344Y-128044528D01*
X146969029Y-128026903D01*
X146872188Y-128033861D01*
X146872188Y-128033861D01*
G37*
X146872188Y-128033861D02*
X146705767Y-128088966D01*
X146547982Y-128193911D01*
X146418733Y-128331969D01*
X146339453Y-128481683D01*
X146307226Y-128674158D01*
X146326301Y-128878222D01*
X146390106Y-129078007D01*
X146492068Y-129257642D01*
X146625613Y-129401259D01*
X146753228Y-129480645D01*
X146914578Y-129533222D01*
X147089855Y-129561377D01*
X147247791Y-129560823D01*
X147288652Y-129554083D01*
X147385670Y-129508447D01*
X147497373Y-129419651D01*
X147606795Y-129304415D01*
X147696968Y-129179463D01*
X147728678Y-129120416D01*
X147795685Y-128906138D01*
X147799230Y-128693915D01*
X147745957Y-128508933D01*
X147681115Y-128389753D01*
X147609147Y-128317592D01*
X147510289Y-128272923D01*
X147505553Y-128271450D01*
X147421853Y-128225281D01*
X147359804Y-128166521D01*
X147265003Y-128093081D01*
X147127344Y-128044528D01*
X146969029Y-128026903D01*
X146872188Y-128033861D01*
G36*
X139753569Y-128005027D02*
X139643363Y-128027370D01*
X139545601Y-128057257D01*
X139417572Y-128103946D01*
X139303551Y-128153988D01*
X139236186Y-128191554D01*
X139163350Y-128269578D01*
X139096220Y-128384741D01*
X139049861Y-128507102D01*
X139037789Y-128585818D01*
X139069354Y-128755937D01*
X139155853Y-128928469D01*
X139286586Y-129089109D01*
X139450848Y-129223553D01*
X139561659Y-129285985D01*
X139736955Y-129348797D01*
X139913575Y-129366091D01*
X140111743Y-129338568D01*
X140222934Y-129308906D01*
X140380281Y-129256440D01*
X140488197Y-129202363D01*
X140563973Y-129133407D01*
X140624901Y-129036299D01*
X140652315Y-128979371D01*
X140705802Y-128830151D01*
X140716917Y-128692679D01*
X140684437Y-128545598D01*
X140618611Y-128390822D01*
X140505733Y-128233792D01*
X140339301Y-128117187D01*
X140118735Y-128040658D01*
X140002801Y-128019363D01*
X139862092Y-128003294D01*
X139753569Y-128005027D01*
X139753569Y-128005027D01*
G37*
X139753569Y-128005027D02*
X139643363Y-128027370D01*
X139545601Y-128057257D01*
X139417572Y-128103946D01*
X139303551Y-128153988D01*
X139236186Y-128191554D01*
X139163350Y-128269578D01*
X139096220Y-128384741D01*
X139049861Y-128507102D01*
X139037789Y-128585818D01*
X139069354Y-128755937D01*
X139155853Y-128928469D01*
X139286586Y-129089109D01*
X139450848Y-129223553D01*
X139561659Y-129285985D01*
X139736955Y-129348797D01*
X139913575Y-129366091D01*
X140111743Y-129338568D01*
X140222934Y-129308906D01*
X140380281Y-129256440D01*
X140488197Y-129202363D01*
X140563973Y-129133407D01*
X140624901Y-129036299D01*
X140652315Y-128979371D01*
X140705802Y-128830151D01*
X140716917Y-128692679D01*
X140684437Y-128545598D01*
X140618611Y-128390822D01*
X140505733Y-128233792D01*
X140339301Y-128117187D01*
X140118735Y-128040658D01*
X140002801Y-128019363D01*
X139862092Y-128003294D01*
X139753569Y-128005027D01*
G36*
X145491544Y-125862289D02*
X145289922Y-125894649D01*
X145072367Y-125942588D01*
X144862304Y-126001187D01*
X144744134Y-126041446D01*
X144473535Y-126141013D01*
X144253575Y-126218486D01*
X144072124Y-126277221D01*
X143917049Y-126320573D01*
X143776221Y-126351899D01*
X143637508Y-126374554D01*
X143488778Y-126391895D01*
X143470943Y-126393655D01*
X143272871Y-126406143D01*
X143031823Y-126410709D01*
X142763256Y-126408048D01*
X142482631Y-126398859D01*
X142205405Y-126383838D01*
X141947036Y-126363682D01*
X141722985Y-126339088D01*
X141548708Y-126310753D01*
X141526801Y-126305993D01*
X141372821Y-126273276D01*
X141212993Y-126242944D01*
X141103467Y-126224882D01*
X140863971Y-126180446D01*
X140590518Y-126113967D01*
X140310390Y-126032337D01*
X140206001Y-125998148D01*
X140039203Y-125946374D01*
X139922761Y-125923347D01*
X139845887Y-125928672D01*
X139797793Y-125961955D01*
X139784350Y-125982721D01*
X139772966Y-126053945D01*
X139819890Y-126121340D01*
X139928056Y-126187258D01*
X140100399Y-126254050D01*
X140138267Y-126266285D01*
X140619342Y-126403886D01*
X141106166Y-126513337D01*
X141616207Y-126597820D01*
X142166932Y-126660518D01*
X142414867Y-126681143D01*
X142817866Y-126703600D01*
X143170926Y-126704763D01*
X143488931Y-126682969D01*
X143786768Y-126636555D01*
X144079322Y-126563857D01*
X144381480Y-126463212D01*
X144388534Y-126460602D01*
X144628333Y-126371763D01*
X144816175Y-126303403D01*
X144963751Y-126252837D01*
X145082751Y-126217376D01*
X145184866Y-126194336D01*
X145281789Y-126181029D01*
X145385209Y-126174769D01*
X145506818Y-126172871D01*
X145641600Y-126172670D01*
X145830763Y-126173388D01*
X145970883Y-126177883D01*
X146080643Y-126188894D01*
X146178724Y-126209160D01*
X146283810Y-126241418D01*
X146403600Y-126284361D01*
X146596624Y-126359065D01*
X146802491Y-126444811D01*
X147001901Y-126533064D01*
X147175552Y-126615292D01*
X147301067Y-126681189D01*
X147391273Y-126729246D01*
X147496320Y-126780572D01*
X147504267Y-126784248D01*
X147599159Y-126837934D01*
X147712026Y-126915530D01*
X147775201Y-126964825D01*
X147880193Y-127050393D01*
X147947688Y-127099077D01*
X147991929Y-127117699D01*
X148027164Y-127113084D01*
X148055324Y-127098996D01*
X148100440Y-127041213D01*
X148113257Y-126974783D01*
X148090564Y-126895725D01*
X148021260Y-126808392D01*
X147901989Y-126710479D01*
X147729398Y-126599682D01*
X147500132Y-126473693D01*
X147210836Y-126330207D01*
X147097867Y-126276868D01*
X146794352Y-126145214D01*
X146492713Y-126033276D01*
X146205592Y-125944789D01*
X145945628Y-125883483D01*
X145725461Y-125853094D01*
X145653808Y-125850427D01*
X145491544Y-125862289D01*
X145491544Y-125862289D01*
G37*
X145491544Y-125862289D02*
X145289922Y-125894649D01*
X145072367Y-125942588D01*
X144862304Y-126001187D01*
X144744134Y-126041446D01*
X144473535Y-126141013D01*
X144253575Y-126218486D01*
X144072124Y-126277221D01*
X143917049Y-126320573D01*
X143776221Y-126351899D01*
X143637508Y-126374554D01*
X143488778Y-126391895D01*
X143470943Y-126393655D01*
X143272871Y-126406143D01*
X143031823Y-126410709D01*
X142763256Y-126408048D01*
X142482631Y-126398859D01*
X142205405Y-126383838D01*
X141947036Y-126363682D01*
X141722985Y-126339088D01*
X141548708Y-126310753D01*
X141526801Y-126305993D01*
X141372821Y-126273276D01*
X141212993Y-126242944D01*
X141103467Y-126224882D01*
X140863971Y-126180446D01*
X140590518Y-126113967D01*
X140310390Y-126032337D01*
X140206001Y-125998148D01*
X140039203Y-125946374D01*
X139922761Y-125923347D01*
X139845887Y-125928672D01*
X139797793Y-125961955D01*
X139784350Y-125982721D01*
X139772966Y-126053945D01*
X139819890Y-126121340D01*
X139928056Y-126187258D01*
X140100399Y-126254050D01*
X140138267Y-126266285D01*
X140619342Y-126403886D01*
X141106166Y-126513337D01*
X141616207Y-126597820D01*
X142166932Y-126660518D01*
X142414867Y-126681143D01*
X142817866Y-126703600D01*
X143170926Y-126704763D01*
X143488931Y-126682969D01*
X143786768Y-126636555D01*
X144079322Y-126563857D01*
X144381480Y-126463212D01*
X144388534Y-126460602D01*
X144628333Y-126371763D01*
X144816175Y-126303403D01*
X144963751Y-126252837D01*
X145082751Y-126217376D01*
X145184866Y-126194336D01*
X145281789Y-126181029D01*
X145385209Y-126174769D01*
X145506818Y-126172871D01*
X145641600Y-126172670D01*
X145830763Y-126173388D01*
X145970883Y-126177883D01*
X146080643Y-126188894D01*
X146178724Y-126209160D01*
X146283810Y-126241418D01*
X146403600Y-126284361D01*
X146596624Y-126359065D01*
X146802491Y-126444811D01*
X147001901Y-126533064D01*
X147175552Y-126615292D01*
X147301067Y-126681189D01*
X147391273Y-126729246D01*
X147496320Y-126780572D01*
X147504267Y-126784248D01*
X147599159Y-126837934D01*
X147712026Y-126915530D01*
X147775201Y-126964825D01*
X147880193Y-127050393D01*
X147947688Y-127099077D01*
X147991929Y-127117699D01*
X148027164Y-127113084D01*
X148055324Y-127098996D01*
X148100440Y-127041213D01*
X148113257Y-126974783D01*
X148090564Y-126895725D01*
X148021260Y-126808392D01*
X147901989Y-126710479D01*
X147729398Y-126599682D01*
X147500132Y-126473693D01*
X147210836Y-126330207D01*
X147097867Y-126276868D01*
X146794352Y-126145214D01*
X146492713Y-126033276D01*
X146205592Y-125944789D01*
X145945628Y-125883483D01*
X145725461Y-125853094D01*
X145653808Y-125850427D01*
X145491544Y-125862289D01*
M02*
