G04 #@! TF.FileFunction,Soldermask,Bot*
%FSLAX46Y46*%
G04 Gerber Fmt 4.6, Leading zero omitted, Abs format (unit mm)*
G04 Created by KiCad (PCBNEW 4.0.1-stable) date 2016/12/03 22:45:12*
%MOMM*%
G01*
G04 APERTURE LIST*
%ADD10C,0.100000*%
%ADD11C,1.800000*%
%ADD12O,2.200000X4.000000*%
%ADD13C,1.700000*%
%ADD14R,2.127200X2.127200*%
%ADD15O,2.127200X2.127200*%
%ADD16R,1.350000X1.650000*%
%ADD17O,1.350000X1.650000*%
%ADD18R,1.200000X1.500000*%
%ADD19R,1.100000X1.500000*%
%ADD20R,1.100000X1.400000*%
%ADD21R,1.000000X1.500000*%
%ADD22C,1.600000*%
%ADD23R,1.900000X1.900000*%
%ADD24O,1.900000X1.900000*%
%ADD25R,2.000000X1.200000*%
G04 APERTURE END LIST*
D10*
D11*
X162000000Y-128400000D03*
X164000000Y-128400000D03*
X166000000Y-128400000D03*
X168000000Y-128400000D03*
D12*
X170850000Y-126000000D03*
X159150000Y-126000000D03*
D13*
X167250000Y-126000000D03*
X162750000Y-126000000D03*
D14*
X157500000Y-119000000D03*
D15*
X154960000Y-119000000D03*
X157500000Y-116460000D03*
X154960000Y-116460000D03*
X157500000Y-113920000D03*
X154960000Y-113920000D03*
D14*
X128500000Y-149000000D03*
D15*
X131040000Y-149000000D03*
X128500000Y-151540000D03*
X131040000Y-151540000D03*
X128500000Y-154080000D03*
X131040000Y-154080000D03*
D16*
X136500000Y-156000000D03*
D17*
X137750000Y-156000000D03*
D16*
X141500000Y-156000000D03*
D17*
X142750000Y-156000000D03*
D18*
X149000000Y-154500000D03*
D19*
X146750000Y-152800000D03*
D20*
X147850000Y-152800000D03*
D18*
X149000000Y-152800000D03*
D20*
X150150000Y-152800000D03*
D19*
X151250000Y-152800000D03*
D21*
X151200000Y-154500000D03*
D19*
X151250000Y-156200000D03*
D20*
X150150000Y-156200000D03*
D18*
X149000000Y-156200000D03*
D20*
X147850000Y-156200000D03*
D19*
X146750000Y-156200000D03*
D21*
X146800000Y-154500000D03*
D19*
X150150000Y-154500000D03*
D22*
X122234833Y-116110688D03*
X124765167Y-115889312D03*
X121234833Y-117610688D03*
X123765167Y-117389312D03*
X136779467Y-104750706D03*
X137220533Y-102249294D03*
X138279467Y-103750706D03*
X138720533Y-101249294D03*
X147279467Y-101249294D03*
X147720533Y-103750706D03*
X148779467Y-102249294D03*
X149220533Y-104750706D03*
X161234833Y-115889312D03*
X163765167Y-116110688D03*
X162234833Y-117389312D03*
X164765167Y-117610688D03*
D23*
X123000000Y-153500000D03*
D24*
X123000000Y-150960000D03*
X123000000Y-148420000D03*
D16*
X117750000Y-142000000D03*
D17*
X119000000Y-142000000D03*
D16*
X123000000Y-142000000D03*
D17*
X124250000Y-142000000D03*
D11*
X118000000Y-128400000D03*
X120000000Y-128400000D03*
X122000000Y-128400000D03*
X124000000Y-128400000D03*
D12*
X126850000Y-126000000D03*
X115150000Y-126000000D03*
D13*
X123250000Y-126000000D03*
X118750000Y-126000000D03*
D16*
X161750000Y-142000000D03*
D17*
X163000000Y-142000000D03*
D16*
X167000000Y-142000000D03*
D17*
X168250000Y-142000000D03*
D25*
X154250000Y-125000000D03*
X131750000Y-143000000D03*
M02*
