G04 #@! TF.FileFunction,Copper,L2,Bot,Signal*
%FSLAX46Y46*%
G04 Gerber Fmt 4.6, Leading zero omitted, Abs format (unit mm)*
G04 Created by KiCad (PCBNEW 4.0.1-stable) date 2016/12/03 22:11:57*
%MOMM*%
G01*
G04 APERTURE LIST*
%ADD10C,0.100000*%
%ADD11C,1.400000*%
%ADD12O,1.800000X3.600000*%
%ADD13R,1.727200X1.727200*%
%ADD14O,1.727200X1.727200*%
%ADD15R,0.950000X1.250000*%
%ADD16O,0.950000X1.250000*%
%ADD17R,0.800000X1.100000*%
%ADD18R,0.700000X1.100000*%
%ADD19R,0.700000X1.000000*%
%ADD20R,0.600000X1.100000*%
%ADD21C,1.200000*%
%ADD22R,1.500000X1.500000*%
%ADD23O,1.500000X1.500000*%
%ADD24R,1.600000X0.800000*%
%ADD25C,0.400000*%
%ADD26C,0.360000*%
%ADD27C,0.500000*%
%ADD28C,1.000000*%
%ADD29C,0.300000*%
%ADD30C,0.199000*%
%ADD31C,0.400000*%
%ADD32C,0.200000*%
%ADD33C,0.800000*%
%ADD34C,0.254000*%
G04 APERTURE END LIST*
D10*
D11*
X162000000Y-128400000D03*
X164000000Y-128400000D03*
X166000000Y-128400000D03*
X168000000Y-128400000D03*
D12*
X170850000Y-126000000D03*
X159150000Y-126000000D03*
D13*
X157500000Y-119000000D03*
D14*
X154960000Y-119000000D03*
X157500000Y-116460000D03*
X154960000Y-116460000D03*
X157500000Y-113920000D03*
X154960000Y-113920000D03*
D13*
X128500000Y-149000000D03*
D14*
X131040000Y-149000000D03*
X128500000Y-151540000D03*
X131040000Y-151540000D03*
X128500000Y-154080000D03*
X131040000Y-154080000D03*
D15*
X136500000Y-156000000D03*
D16*
X137750000Y-156000000D03*
D15*
X141500000Y-156000000D03*
D16*
X142750000Y-156000000D03*
D17*
X149000000Y-154500000D03*
D18*
X146750000Y-152800000D03*
D19*
X147850000Y-152800000D03*
D17*
X149000000Y-152800000D03*
D19*
X150150000Y-152800000D03*
D18*
X151250000Y-152800000D03*
D20*
X151200000Y-154500000D03*
D18*
X151250000Y-156200000D03*
D19*
X150150000Y-156200000D03*
D17*
X149000000Y-156200000D03*
D19*
X147850000Y-156200000D03*
D18*
X146750000Y-156200000D03*
D20*
X146800000Y-154500000D03*
D18*
X150150000Y-154500000D03*
D21*
X122234833Y-116110688D03*
X124765167Y-115889312D03*
X121234833Y-117610688D03*
X123765167Y-117389312D03*
X136779467Y-104750706D03*
X137220533Y-102249294D03*
X138279467Y-103750706D03*
X138720533Y-101249294D03*
X147279467Y-101249294D03*
X147720533Y-103750706D03*
X148779467Y-102249294D03*
X149220533Y-104750706D03*
X161234833Y-115889312D03*
X163765167Y-116110688D03*
X162234833Y-117389312D03*
X164765167Y-117610688D03*
D22*
X123000000Y-153500000D03*
D23*
X123000000Y-150960000D03*
X123000000Y-148420000D03*
D15*
X117750000Y-142000000D03*
D16*
X119000000Y-142000000D03*
D15*
X123000000Y-142000000D03*
D16*
X124250000Y-142000000D03*
D11*
X118000000Y-128400000D03*
X120000000Y-128400000D03*
X122000000Y-128400000D03*
X124000000Y-128400000D03*
D12*
X126850000Y-126000000D03*
X115150000Y-126000000D03*
D15*
X161750000Y-142000000D03*
D16*
X163000000Y-142000000D03*
D15*
X167000000Y-142000000D03*
D16*
X168250000Y-142000000D03*
D24*
X154250000Y-125000000D03*
X131750000Y-143000000D03*
D25*
X153551200Y-131963800D03*
X155050000Y-129717400D03*
X139808800Y-112115500D03*
X136323100Y-115079200D03*
X144724300Y-136578800D03*
X142400000Y-136336800D03*
X135947200Y-133091000D03*
D26*
X142500000Y-104000000D03*
X143500000Y-104000000D03*
X144000000Y-104500000D03*
X146000000Y-103000000D03*
X148400000Y-106400000D03*
X148400000Y-105600000D03*
X149000000Y-116000000D03*
X149600000Y-115400000D03*
X149600000Y-116000000D03*
X157000000Y-107000000D03*
X138800000Y-110200000D03*
X140500000Y-115250000D03*
X140500000Y-112000000D03*
X140600000Y-115800000D03*
X136999700Y-119500000D03*
X136600000Y-119000000D03*
X150000000Y-134000000D03*
X150000000Y-135000000D03*
X148750000Y-135000000D03*
X148750000Y-134000000D03*
X150000000Y-132175300D03*
X147500000Y-135000000D03*
X147500000Y-134000000D03*
X127000000Y-146000000D03*
X126000000Y-147000000D03*
X126000000Y-149000000D03*
X126000000Y-151000000D03*
X125000000Y-150000000D03*
X125000000Y-148000000D03*
X125000000Y-146000000D03*
X124000000Y-147000000D03*
X123000000Y-146000000D03*
X122000000Y-147000000D03*
X121000000Y-146000000D03*
X121000000Y-148000000D03*
X129000000Y-147000000D03*
X128500000Y-147500000D03*
X138000000Y-126000000D03*
X138000000Y-125000000D03*
X138000000Y-124000000D03*
X137500000Y-123500000D03*
X142500000Y-124500000D03*
X144000000Y-126000000D03*
X144000000Y-127000000D03*
X143000000Y-125000000D03*
X143000000Y-126000000D03*
X142500000Y-125500000D03*
X156500000Y-131000000D03*
X156500000Y-129000000D03*
X156500000Y-127500000D03*
X156500000Y-126000000D03*
X156000000Y-130000000D03*
X156000000Y-132000000D03*
X150000000Y-141000000D03*
X150000000Y-140000000D03*
X149000000Y-139000000D03*
X149000000Y-140000000D03*
X144000000Y-122000000D03*
X144000000Y-121000000D03*
X144000000Y-120000000D03*
X143000000Y-122000000D03*
X143000000Y-121000000D03*
X136500000Y-112500000D03*
X135500000Y-112500000D03*
X136000000Y-112000000D03*
X135500000Y-106500000D03*
X136000000Y-106000000D03*
X137000000Y-106000000D03*
X137500000Y-106500000D03*
X138000000Y-106000000D03*
X137500000Y-105500000D03*
X134000000Y-108000000D03*
X134000000Y-110000000D03*
X133000000Y-110000000D03*
X123500000Y-114500000D03*
X124500000Y-113500000D03*
X125500000Y-112500000D03*
X126500000Y-111500000D03*
X127500000Y-110500000D03*
X131000000Y-107500000D03*
X130500000Y-108000000D03*
X130000000Y-108500000D03*
X125500000Y-117500000D03*
X125000000Y-117000000D03*
X125000000Y-119000000D03*
X126000000Y-119000000D03*
X126000000Y-121000000D03*
X126500000Y-115500000D03*
X132000000Y-118000000D03*
X131000000Y-118000000D03*
X130000000Y-118000000D03*
X129000000Y-116000000D03*
X129173900Y-117173900D03*
X129000000Y-112000000D03*
X130000000Y-112000000D03*
X131000000Y-112000000D03*
X132000000Y-112000000D03*
X135000000Y-114000000D03*
X134000000Y-113000000D03*
X134000000Y-114000000D03*
X133000000Y-115000000D03*
X133000000Y-114000000D03*
X132000000Y-115000000D03*
X133000000Y-116000000D03*
X133000000Y-117000000D03*
X132000000Y-119000000D03*
X131000000Y-119000000D03*
X130000000Y-121000000D03*
X131000000Y-121000000D03*
X144000000Y-123000000D03*
X146000000Y-124000000D03*
X146000000Y-122000000D03*
X147000000Y-123000000D03*
X146000000Y-123000000D03*
X149000000Y-125000000D03*
X148000000Y-125000000D03*
X148000000Y-126000000D03*
X149000000Y-128000000D03*
X149000000Y-122000000D03*
X150000000Y-123000000D03*
X151000000Y-121000000D03*
X150000000Y-121000000D03*
X150000000Y-129000000D03*
X153000000Y-117000000D03*
X151000000Y-120000000D03*
X152072500Y-118572500D03*
X153000000Y-119500000D03*
X153000000Y-118500000D03*
X150000000Y-120000000D03*
X149000000Y-120000000D03*
X150000000Y-119000000D03*
X149000000Y-119000000D03*
X153000000Y-116000000D03*
X152500000Y-116500000D03*
X153500000Y-116500000D03*
X153500000Y-115500000D03*
X153500000Y-114500000D03*
X150478500Y-105978500D03*
X151000000Y-106500000D03*
X150000000Y-106500000D03*
X149500000Y-108000000D03*
X150500000Y-108000000D03*
X151000000Y-108500000D03*
X153000000Y-112000000D03*
X152000000Y-113000000D03*
X152000000Y-111000000D03*
X151000000Y-112000000D03*
X151000000Y-111000000D03*
X153000000Y-113000000D03*
X154000000Y-112000000D03*
X168000000Y-121000000D03*
X166000000Y-119000000D03*
X167000000Y-119000000D03*
X166000000Y-117000000D03*
X168000000Y-117000000D03*
X165000000Y-116000000D03*
X166000000Y-116000000D03*
X169000000Y-122000000D03*
X168000000Y-122000000D03*
X166000000Y-122000000D03*
X165000000Y-122000000D03*
X164000000Y-122000000D03*
X163000000Y-122000000D03*
X162000000Y-122000000D03*
X159000000Y-119000000D03*
X160000000Y-119000000D03*
X162000000Y-119000000D03*
X161000000Y-118000000D03*
X160000000Y-117000000D03*
X159000000Y-116000000D03*
X160000000Y-115000000D03*
X161000000Y-114000000D03*
X160000000Y-113000000D03*
X152000000Y-99000000D03*
X151000000Y-100000000D03*
X152000000Y-101000000D03*
X153000000Y-100000000D03*
X154000000Y-99000000D03*
X168000000Y-115000000D03*
X167000000Y-114000000D03*
X165000000Y-114000000D03*
X166000000Y-113000000D03*
X167000000Y-112000000D03*
X166000000Y-111000000D03*
X165000000Y-112000000D03*
X164000000Y-113000000D03*
X163000000Y-112000000D03*
X164000000Y-111000000D03*
X165000000Y-110000000D03*
X164000000Y-109000000D03*
X163000000Y-110000000D03*
X162000000Y-111000000D03*
X161000000Y-110000000D03*
X160000000Y-109000000D03*
X162000000Y-109000000D03*
X163000000Y-108000000D03*
X163000000Y-106000000D03*
X162000000Y-107000000D03*
X161000000Y-108000000D03*
X160000000Y-107000000D03*
X161000000Y-106000000D03*
X162000000Y-105000000D03*
X161000000Y-104000000D03*
X160000000Y-105000000D03*
X159000000Y-106000000D03*
X157000000Y-106000000D03*
X158000000Y-105000000D03*
X159000000Y-104000000D03*
X160000000Y-103000000D03*
X158000000Y-103000000D03*
X157000000Y-104000000D03*
X156000000Y-105000000D03*
X155000000Y-104000000D03*
X156000000Y-103000000D03*
X157000000Y-102000000D03*
X156000000Y-101000000D03*
X155000000Y-102000000D03*
X154000000Y-103000000D03*
X153000000Y-102000000D03*
X154000000Y-101000000D03*
X155000000Y-100000000D03*
X143500000Y-113000000D03*
X145500000Y-110000000D03*
X145000000Y-109500000D03*
X144500000Y-110000000D03*
X145000000Y-110500000D03*
X145500000Y-111000000D03*
X145500000Y-112000000D03*
X145000000Y-111500000D03*
X144500000Y-112000000D03*
X144500000Y-111000000D03*
X144000000Y-111500000D03*
X143500000Y-111000000D03*
X144000000Y-110500000D03*
X144000000Y-109500000D03*
X143500000Y-110000000D03*
X143000000Y-109500000D03*
X142000000Y-107000000D03*
X141500000Y-107500000D03*
X141000000Y-108000000D03*
X143000000Y-107000000D03*
X144000000Y-107000000D03*
X147000000Y-98000000D03*
X143000000Y-98000000D03*
X143000000Y-97000000D03*
X141000000Y-100000000D03*
X139000000Y-100000000D03*
X139000000Y-98000000D03*
X139000000Y-99000000D03*
X140000000Y-100000000D03*
X138000000Y-100000000D03*
X137000000Y-101000000D03*
X119000000Y-117000000D03*
X118000000Y-117000000D03*
X118000000Y-115000000D03*
X120000000Y-115000000D03*
X119000000Y-114000000D03*
X121000000Y-114000000D03*
X120000000Y-113000000D03*
X119000000Y-112000000D03*
X120000000Y-111000000D03*
X121000000Y-112000000D03*
X122000000Y-113000000D03*
X123000000Y-112000000D03*
X122000000Y-111000000D03*
X121000000Y-110000000D03*
X122000000Y-109000000D03*
X123000000Y-110000000D03*
X124000000Y-111000000D03*
X125000000Y-110000000D03*
X124000000Y-109000000D03*
X123000000Y-108000000D03*
X122000000Y-107000000D03*
X123000000Y-106000000D03*
X124000000Y-107000000D03*
X125000000Y-108000000D03*
X126000000Y-109000000D03*
X126000000Y-107000000D03*
X125000000Y-106000000D03*
X124000000Y-105000000D03*
X125000000Y-104000000D03*
X126000000Y-105000000D03*
X127000000Y-106000000D03*
X129000000Y-106000000D03*
X128000000Y-105000000D03*
X127000000Y-104000000D03*
X126000000Y-103000000D03*
X128000000Y-103000000D03*
X129000000Y-104000000D03*
X130000000Y-105000000D03*
X131000000Y-104000000D03*
X130000000Y-103000000D03*
X129000000Y-102000000D03*
X130000000Y-101000000D03*
X131000000Y-102000000D03*
X132000000Y-103000000D03*
X120000000Y-121000000D03*
X120000000Y-120000000D03*
X120000000Y-119000000D03*
X119000000Y-119000000D03*
X134000000Y-99000000D03*
X134000000Y-101000000D03*
X133000000Y-100000000D03*
X132000000Y-99000000D03*
X131000000Y-100000000D03*
X132000000Y-101000000D03*
X133000000Y-102000000D03*
X118000000Y-121000000D03*
X118000000Y-122000000D03*
X117000000Y-122000000D03*
X119000000Y-121000000D03*
X134000000Y-135000000D03*
X135000000Y-134000000D03*
X133000000Y-131000000D03*
X132000000Y-132000000D03*
X133000000Y-133000000D03*
X131000000Y-136000000D03*
X132000000Y-135000000D03*
X132000000Y-128000000D03*
X133000000Y-129000000D03*
X132000000Y-130000000D03*
X131000000Y-131000000D03*
X130000000Y-132000000D03*
X130000000Y-130000000D03*
X131000000Y-129000000D03*
X130000000Y-128000000D03*
X131000000Y-127000000D03*
X130000000Y-126000000D03*
X131000000Y-123000000D03*
X132000000Y-124000000D03*
X133000000Y-123000000D03*
X133000000Y-125000000D03*
X134000000Y-126000000D03*
X134000000Y-124000000D03*
X143000000Y-134000000D03*
X134000000Y-138000000D03*
X133000000Y-139000000D03*
X141000000Y-136000000D03*
X138000000Y-130000000D03*
X138000000Y-129000000D03*
X134000000Y-141000000D03*
X135000000Y-142000000D03*
X135000000Y-140000000D03*
X137000000Y-140000000D03*
X136000000Y-141000000D03*
X137000000Y-142000000D03*
X136000000Y-143000000D03*
X137000000Y-144000000D03*
X136000000Y-145000000D03*
X164000000Y-151000000D03*
X162000000Y-151000000D03*
X161000000Y-150000000D03*
X163000000Y-150000000D03*
X165000000Y-150000000D03*
X159000000Y-146000000D03*
X160000000Y-147000000D03*
X161000000Y-146000000D03*
X162000000Y-147000000D03*
X163000000Y-146000000D03*
X164000000Y-147000000D03*
X165000000Y-146000000D03*
X167000000Y-146000000D03*
X166000000Y-147000000D03*
X166000000Y-149000000D03*
X167000000Y-148000000D03*
X168000000Y-147000000D03*
X169000000Y-146000000D03*
X169000000Y-148000000D03*
X168000000Y-149000000D03*
X168000000Y-151000000D03*
X167000000Y-150000000D03*
X167000000Y-152000000D03*
X166000000Y-151000000D03*
X166000000Y-153000000D03*
X157000000Y-148000000D03*
X162000000Y-155000000D03*
X158000000Y-155000000D03*
X159000000Y-154000000D03*
X158000000Y-153000000D03*
X159000000Y-152000000D03*
X160000000Y-153000000D03*
X161000000Y-154000000D03*
X160000000Y-155000000D03*
X161000000Y-156000000D03*
X160000000Y-157000000D03*
X159000000Y-156000000D03*
X158000000Y-157000000D03*
X157000000Y-156000000D03*
X156000000Y-157000000D03*
X154000000Y-157000000D03*
X152000000Y-157000000D03*
X153000000Y-156000000D03*
X155000000Y-156000000D03*
X156000000Y-155000000D03*
X154000000Y-155000000D03*
X154000000Y-153000000D03*
X155000000Y-154000000D03*
X156000000Y-153000000D03*
X157000000Y-154000000D03*
X157000000Y-152000000D03*
X157000000Y-150000000D03*
X156000000Y-151000000D03*
X155000000Y-150000000D03*
X156000000Y-149000000D03*
X154000000Y-149000000D03*
X154000000Y-147000000D03*
X156000000Y-147000000D03*
X156000000Y-145000000D03*
X156000000Y-143000000D03*
X156000000Y-141000000D03*
X156000000Y-139000000D03*
X156000000Y-137000000D03*
X155000000Y-136000000D03*
X155000000Y-138000000D03*
X155000000Y-140000000D03*
X155000000Y-142000000D03*
X154000000Y-143000000D03*
X155000000Y-144000000D03*
X154000000Y-145000000D03*
X155000000Y-146000000D03*
X151000000Y-144000000D03*
X150000000Y-143000000D03*
X146000000Y-143000000D03*
X146000000Y-145000000D03*
X146000000Y-147000000D03*
X147000000Y-148000000D03*
X148000000Y-147000000D03*
X147000000Y-146000000D03*
X147000000Y-144000000D03*
X151000000Y-148000000D03*
X149000000Y-148000000D03*
X150000000Y-147000000D03*
X151000000Y-146000000D03*
X150000000Y-145000000D03*
X149000000Y-146000000D03*
X148000000Y-145000000D03*
X149000000Y-144000000D03*
X148000000Y-143000000D03*
X144000000Y-139000000D03*
X144000000Y-137000000D03*
X144000000Y-141000000D03*
X145000000Y-142000000D03*
X145000000Y-144000000D03*
X145000000Y-146000000D03*
X144000000Y-145000000D03*
X143000000Y-144000000D03*
X144000000Y-143000000D03*
X143000000Y-142000000D03*
X139000000Y-132000000D03*
X140000000Y-133000000D03*
X140000000Y-135000000D03*
X139000000Y-134000000D03*
X142000000Y-138000000D03*
X142000000Y-139000000D03*
X141000000Y-140000000D03*
X142137436Y-140862556D03*
X142000000Y-143000000D03*
X141000000Y-142000000D03*
X140000000Y-141000000D03*
X140000000Y-139000000D03*
X139000000Y-138000000D03*
X139000000Y-140000000D03*
X139000000Y-142000000D03*
X140000000Y-143000000D03*
X141000000Y-150000000D03*
X142000000Y-149000000D03*
X142000000Y-147000000D03*
X141000000Y-146000000D03*
X141000000Y-148000000D03*
X140000000Y-149000000D03*
X139000000Y-150000000D03*
X139000000Y-148000000D03*
X140000000Y-147000000D03*
X140000000Y-145000000D03*
X139000000Y-146000000D03*
X137000000Y-146000000D03*
X138000000Y-145000000D03*
X138000000Y-147000000D03*
X136000000Y-149000000D03*
X136000000Y-147000000D03*
X137000000Y-148000000D03*
X138000000Y-149000000D03*
X138000000Y-151000000D03*
X138000000Y-153000000D03*
X138000000Y-155000000D03*
X140000000Y-151000000D03*
X141000000Y-152000000D03*
X142000000Y-151000000D03*
X143000000Y-150000000D03*
X144000000Y-149000000D03*
X143000000Y-148000000D03*
X145000000Y-156000000D03*
X146000000Y-155000000D03*
X146000000Y-153000000D03*
X145000000Y-154000000D03*
X144000000Y-155000000D03*
X143000000Y-154000000D03*
X143000000Y-152000000D03*
X144000000Y-153000000D03*
X142000000Y-153000000D03*
X141000000Y-154000000D03*
X121000000Y-150000000D03*
X121000000Y-152000000D03*
X120000000Y-153000000D03*
X121000000Y-154000000D03*
X122000000Y-155000000D03*
X124000000Y-155000000D03*
X125000000Y-156000000D03*
X125000000Y-154000000D03*
X126000000Y-155000000D03*
X126000000Y-157000000D03*
X128000000Y-157000000D03*
X127000000Y-156000000D03*
X131000000Y-156000000D03*
X130000000Y-155000000D03*
X133000000Y-156000000D03*
X132000000Y-155000000D03*
X133000000Y-154000000D03*
X134000000Y-153000000D03*
X135000000Y-154000000D03*
X134000000Y-155000000D03*
X135000000Y-156000000D03*
X117000000Y-146000000D03*
X118000000Y-147000000D03*
X119000000Y-146000000D03*
X120000000Y-147000000D03*
X119000000Y-148000000D03*
X118000000Y-149000000D03*
X119000000Y-150000000D03*
X119000000Y-152000000D03*
X120000000Y-151000000D03*
X120000000Y-149000000D03*
D27*
X146361200Y-98513100D03*
X135117000Y-98513100D03*
X139638800Y-98513100D03*
X150939200Y-98689900D03*
D26*
X142804300Y-111137200D03*
X162186700Y-148018400D03*
X155457400Y-132378400D03*
X150055900Y-118017100D03*
X156500000Y-112491700D03*
D28*
X159074900Y-121099700D03*
D27*
X137710000Y-134892700D03*
X147444700Y-99471000D03*
X142566900Y-99245400D03*
X133763800Y-127726000D03*
D26*
X149453000Y-133205700D03*
X146949100Y-130201500D03*
X130599000Y-120286700D03*
X140185700Y-103684500D03*
X148050000Y-133200000D03*
X141864400Y-110611600D03*
X151596800Y-132185800D03*
X142101500Y-111426600D03*
X143000000Y-105564300D03*
X146599600Y-133005500D03*
X150900000Y-122550000D03*
X142523200Y-111945400D03*
X122575600Y-118313000D03*
X132543800Y-121489600D03*
X141188100Y-127067700D03*
X151831300Y-140643300D03*
X145891700Y-119012600D03*
X142496300Y-112571700D03*
X150649400Y-123535600D03*
X151852700Y-148106300D03*
X139541700Y-117988800D03*
D28*
X154250000Y-121500000D03*
X153000000Y-122750000D03*
D26*
X148822000Y-107403900D03*
D28*
X133000000Y-145200000D03*
X131700000Y-146500000D03*
D26*
X145407600Y-107824600D03*
X145067500Y-108305000D03*
X134658200Y-144120000D03*
X149599500Y-114710400D03*
X155500000Y-111460600D03*
X134061100Y-150638600D03*
X127500000Y-114686300D03*
X145823200Y-105484000D03*
X156400000Y-121200000D03*
X143466900Y-116523800D03*
X163919800Y-119525500D03*
X146784500Y-118222900D03*
X125803500Y-121992600D03*
X134469900Y-121617000D03*
X135748300Y-104956300D03*
X134778000Y-109869700D03*
X143050200Y-103289700D03*
X145208100Y-113233300D03*
X144703900Y-102521500D03*
X145581100Y-113863100D03*
X150087000Y-105398200D03*
X148212100Y-113226600D03*
X154000000Y-127750000D03*
X153250000Y-127000000D03*
X142506200Y-115642600D03*
X152201900Y-126644400D03*
X142502900Y-116447900D03*
X132000000Y-140250000D03*
X132750000Y-141000000D03*
X137732000Y-120156200D03*
X132828400Y-140044900D03*
X138186100Y-120579900D03*
X142662700Y-131378100D03*
X138003200Y-117595700D03*
X142133200Y-131717400D03*
X137478600Y-116329200D03*
X142800000Y-134887400D03*
X138555900Y-114348100D03*
X138483600Y-118076100D03*
X141527900Y-132399900D03*
X139216000Y-115016900D03*
X144503600Y-135510200D03*
X147640200Y-116714900D03*
D29*
X155050000Y-130465000D02*
X155050000Y-129717400D01*
X153551200Y-131963800D02*
X155050000Y-130465000D01*
X144482300Y-136336800D02*
X144724300Y-136578800D01*
X142400000Y-136336800D02*
X144482300Y-136336800D01*
X136004500Y-115397800D02*
X136323100Y-115079200D01*
X136004500Y-133033700D02*
X136004500Y-115397800D01*
X135947200Y-133091000D02*
X136004500Y-133033700D01*
X136845100Y-115079200D02*
X139808800Y-112115500D01*
X136323100Y-115079200D02*
X136845100Y-115079200D01*
D30*
X142500000Y-104000000D02*
X143500000Y-104000000D01*
X148400000Y-105600000D02*
X148400000Y-106400000D01*
X149600000Y-116000000D02*
X149600000Y-115400000D01*
X157000000Y-106000000D02*
X157000000Y-107000000D01*
X140500000Y-112000000D02*
X140500000Y-115250000D01*
X136750000Y-119150000D02*
X136600000Y-119000000D01*
X136750000Y-119250300D02*
X136750000Y-119150000D01*
X136999700Y-119500000D02*
X136750000Y-119250300D01*
X148750000Y-134000000D02*
X147500000Y-134000000D01*
X150000000Y-132175300D02*
X150000000Y-134000000D01*
X150000000Y-135000000D02*
X148750000Y-135000000D01*
X127000000Y-146000000D02*
X128500000Y-147500000D01*
X126000000Y-149000000D02*
X126000000Y-147000000D01*
X125000000Y-150000000D02*
X126000000Y-151000000D01*
X125000000Y-146000000D02*
X125000000Y-148000000D01*
X123000000Y-146000000D02*
X124000000Y-147000000D01*
X121000000Y-146000000D02*
X122000000Y-147000000D01*
X121000000Y-150000000D02*
X121000000Y-148000000D01*
X138000000Y-125000000D02*
X138000000Y-124000000D01*
X138000000Y-126000000D02*
X138000000Y-129000000D01*
X142500000Y-125500000D02*
X142500000Y-124500000D01*
X144000000Y-127000000D02*
X143000000Y-126000000D01*
X144000000Y-126000000D02*
X144000000Y-127000000D01*
X156500000Y-129000000D02*
X156500000Y-131000000D01*
X156500000Y-126000000D02*
X156500000Y-127500000D01*
X156000000Y-132000000D02*
X156000000Y-130000000D01*
X150000000Y-141000000D02*
X149000000Y-140000000D01*
X150000000Y-143000000D02*
X150000000Y-141000000D01*
X149000000Y-139000000D02*
X150000000Y-140000000D01*
X144000000Y-120000000D02*
X143000000Y-121000000D01*
X144000000Y-122000000D02*
X144000000Y-121000000D01*
X136000000Y-112000000D02*
X135500000Y-112500000D01*
X135500000Y-106500000D02*
X136000000Y-106000000D01*
X137000000Y-106000000D02*
X137500000Y-106500000D01*
X138000000Y-106000000D02*
X137500000Y-105500000D01*
X132000000Y-112000000D02*
X132000000Y-111000000D01*
X134000000Y-110000000D02*
X134000000Y-108000000D01*
X132000000Y-111000000D02*
X133000000Y-110000000D01*
X130000000Y-108500000D02*
X129500000Y-108500000D01*
X124500000Y-113500000D02*
X123500000Y-114500000D01*
X126500000Y-111500000D02*
X125500000Y-112500000D01*
X129500000Y-108500000D02*
X127500000Y-110500000D01*
X130000000Y-108500000D02*
X130500000Y-108000000D01*
X125500000Y-117500000D02*
X125500000Y-117000000D01*
X130000000Y-121000000D02*
X126000000Y-121000000D01*
X126000000Y-119000000D02*
X125000000Y-119000000D01*
X125500000Y-117500000D02*
X125000000Y-117000000D01*
X126500000Y-116000000D02*
X126500000Y-115500000D01*
X125500000Y-117000000D02*
X126500000Y-116000000D01*
X132000000Y-118000000D02*
X131000000Y-118000000D01*
X129000000Y-117000000D02*
X129000000Y-116000000D01*
X129173900Y-117173900D02*
X129000000Y-117000000D01*
X130000000Y-112000000D02*
X129000000Y-112000000D01*
X132000000Y-112000000D02*
X131000000Y-112000000D01*
X134000000Y-113000000D02*
X135000000Y-114000000D01*
X133000000Y-115000000D02*
X134000000Y-114000000D01*
X132000000Y-115000000D02*
X133000000Y-114000000D01*
X133000000Y-117000000D02*
X133000000Y-116000000D01*
X131000000Y-119000000D02*
X132000000Y-119000000D01*
X131000000Y-121000000D02*
X130000000Y-121000000D01*
X148000000Y-125000000D02*
X146000000Y-123000000D01*
X145000000Y-123000000D02*
X144000000Y-123000000D01*
X146000000Y-124000000D02*
X145000000Y-123000000D01*
X147000000Y-123000000D02*
X146000000Y-122000000D01*
X149000000Y-125000000D02*
X148000000Y-125000000D01*
X148000000Y-126000000D02*
X149000000Y-127000000D01*
X149000000Y-127000000D02*
X149000000Y-128000000D01*
X150000000Y-123000000D02*
X149000000Y-122000000D01*
X150000000Y-121000000D02*
X151000000Y-121000000D01*
X153500000Y-116500000D02*
X153000000Y-117000000D01*
X151000000Y-119645000D02*
X151000000Y-120000000D01*
X152072500Y-118572500D02*
X151000000Y-119645000D01*
X153000000Y-118500000D02*
X153000000Y-119500000D01*
X150000000Y-120000000D02*
X149000000Y-120000000D01*
X150000000Y-119000000D02*
X149000000Y-119000000D01*
X153500000Y-116500000D02*
X152500000Y-116500000D01*
X153500000Y-115000000D02*
X153500000Y-115500000D01*
X153500000Y-114500000D02*
X153500000Y-115000000D01*
X151000000Y-111000000D02*
X151000000Y-108500000D01*
X150478500Y-105978500D02*
X150500000Y-106000000D01*
X150000000Y-106500000D02*
X151000000Y-106500000D01*
X150500000Y-108000000D02*
X149500000Y-108000000D01*
X153000000Y-113000000D02*
X152000000Y-113000000D01*
X151000000Y-111000000D02*
X151000000Y-112000000D01*
X154000000Y-112000000D02*
X153000000Y-113000000D01*
X168000000Y-121000000D02*
X168000000Y-120000000D01*
X168000000Y-122000000D02*
X168000000Y-121000000D01*
X166000000Y-119000000D02*
X166000000Y-117000000D01*
X168000000Y-120000000D02*
X167000000Y-119000000D01*
X168000000Y-117000000D02*
X166000000Y-117000000D01*
X166000000Y-117000000D02*
X166000000Y-116000000D01*
X166000000Y-122000000D02*
X168000000Y-122000000D01*
X164000000Y-122000000D02*
X165000000Y-122000000D01*
X162000000Y-122000000D02*
X163000000Y-122000000D01*
X160000000Y-119000000D02*
X159000000Y-119000000D01*
X160000000Y-117000000D02*
X161000000Y-118000000D01*
X160000000Y-115000000D02*
X159000000Y-116000000D01*
X160000000Y-113000000D02*
X161000000Y-114000000D01*
X154000000Y-99000000D02*
X155000000Y-100000000D01*
X152000000Y-99000000D02*
X151000000Y-100000000D01*
X152000000Y-101000000D02*
X153000000Y-100000000D01*
X167000000Y-114000000D02*
X168000000Y-115000000D01*
X166000000Y-113000000D02*
X165000000Y-114000000D01*
X166000000Y-111000000D02*
X167000000Y-112000000D01*
X164000000Y-113000000D02*
X165000000Y-112000000D01*
X164000000Y-111000000D02*
X163000000Y-112000000D01*
X164000000Y-109000000D02*
X165000000Y-110000000D01*
X162000000Y-111000000D02*
X163000000Y-110000000D01*
X160000000Y-109000000D02*
X161000000Y-110000000D01*
X163000000Y-108000000D02*
X162000000Y-109000000D01*
X162000000Y-107000000D02*
X163000000Y-106000000D01*
X160000000Y-107000000D02*
X161000000Y-108000000D01*
X162000000Y-105000000D02*
X161000000Y-106000000D01*
X160000000Y-105000000D02*
X161000000Y-104000000D01*
X157000000Y-106000000D02*
X159000000Y-106000000D01*
X159000000Y-104000000D02*
X158000000Y-105000000D01*
X158000000Y-103000000D02*
X160000000Y-103000000D01*
X156000000Y-105000000D02*
X157000000Y-104000000D01*
X156000000Y-103000000D02*
X155000000Y-104000000D01*
X156000000Y-101000000D02*
X157000000Y-102000000D01*
X154000000Y-103000000D02*
X155000000Y-102000000D01*
X154000000Y-101000000D02*
X153000000Y-102000000D01*
X144500000Y-110000000D02*
X145000000Y-109500000D01*
X145500000Y-111000000D02*
X145000000Y-110500000D01*
X145000000Y-111500000D02*
X145500000Y-112000000D01*
X144500000Y-111000000D02*
X144500000Y-112000000D01*
X143500000Y-111000000D02*
X144000000Y-111500000D01*
X144000000Y-109500000D02*
X144000000Y-110500000D01*
X143000000Y-109500000D02*
X143500000Y-110000000D01*
X142000000Y-107000000D02*
X141500000Y-107500000D01*
X141000000Y-108000000D02*
X142000000Y-107000000D01*
X142000000Y-107000000D02*
X143000000Y-107000000D01*
X143000000Y-97000000D02*
X146000000Y-97000000D01*
X146000000Y-97000000D02*
X147000000Y-98000000D01*
X139000000Y-98000000D02*
X142000000Y-98000000D01*
X142000000Y-98000000D02*
X143000000Y-97000000D01*
X140000000Y-100000000D02*
X141000000Y-100000000D01*
X134000000Y-101000000D02*
X137000000Y-101000000D01*
X139000000Y-99000000D02*
X139000000Y-98000000D01*
X138000000Y-100000000D02*
X140000000Y-100000000D01*
X132000000Y-103000000D02*
X133000000Y-102000000D01*
X118000000Y-117000000D02*
X118000000Y-118000000D01*
X118000000Y-118000000D02*
X118000000Y-115000000D01*
X120000000Y-115000000D02*
X119000000Y-114000000D01*
X121000000Y-114000000D02*
X120000000Y-113000000D01*
X119000000Y-112000000D02*
X120000000Y-111000000D01*
X121000000Y-112000000D02*
X122000000Y-113000000D01*
X123000000Y-112000000D02*
X122000000Y-111000000D01*
X121000000Y-110000000D02*
X122000000Y-109000000D01*
X123000000Y-110000000D02*
X124000000Y-111000000D01*
X125000000Y-110000000D02*
X124000000Y-109000000D01*
X123000000Y-108000000D02*
X122000000Y-107000000D01*
X123000000Y-106000000D02*
X124000000Y-107000000D01*
X125000000Y-108000000D02*
X126000000Y-109000000D01*
X126000000Y-107000000D02*
X125000000Y-106000000D01*
X124000000Y-105000000D02*
X125000000Y-104000000D01*
X126000000Y-105000000D02*
X127000000Y-106000000D01*
X129000000Y-106000000D02*
X128000000Y-105000000D01*
X127000000Y-104000000D02*
X126000000Y-103000000D01*
X128000000Y-103000000D02*
X129000000Y-104000000D01*
X130000000Y-105000000D02*
X131000000Y-104000000D01*
X130000000Y-103000000D02*
X129000000Y-102000000D01*
X130000000Y-101000000D02*
X131000000Y-102000000D01*
X120000000Y-121000000D02*
X120000000Y-120000000D01*
X120000000Y-119000000D02*
X119000000Y-119000000D01*
X119000000Y-119000000D02*
X119000000Y-117000000D01*
X134000000Y-101000000D02*
X134000000Y-99000000D01*
X132000000Y-99000000D02*
X133000000Y-100000000D01*
X132000000Y-101000000D02*
X131000000Y-100000000D01*
X118000000Y-121000000D02*
X118000000Y-122000000D01*
X117000000Y-122000000D02*
X118000000Y-122000000D01*
X118000000Y-122000000D02*
X118000000Y-121000000D01*
X118000000Y-121000000D02*
X119000000Y-121000000D01*
X135000000Y-134000000D02*
X134000000Y-135000000D01*
X133000000Y-133000000D02*
X133000000Y-134000000D01*
X132000000Y-132000000D02*
X133000000Y-131000000D01*
X133000000Y-134000000D02*
X132000000Y-135000000D01*
X133000000Y-129000000D02*
X132000000Y-128000000D01*
X131000000Y-131000000D02*
X132000000Y-130000000D01*
X130000000Y-130000000D02*
X130000000Y-132000000D01*
X130000000Y-128000000D02*
X131000000Y-129000000D01*
X130000000Y-126000000D02*
X131000000Y-127000000D01*
X132000000Y-124000000D02*
X131000000Y-123000000D01*
X133000000Y-125000000D02*
X133000000Y-123000000D01*
X134000000Y-124000000D02*
X134000000Y-126000000D01*
X133000000Y-139000000D02*
X134000000Y-138000000D01*
X138000000Y-129000000D02*
X138000000Y-130000000D01*
X135000000Y-140000000D02*
X135000000Y-142000000D01*
X136000000Y-141000000D02*
X137000000Y-140000000D01*
X136000000Y-143000000D02*
X137000000Y-142000000D01*
X136000000Y-145000000D02*
X137000000Y-144000000D01*
X161000000Y-150000000D02*
X162000000Y-151000000D01*
X165000000Y-150000000D02*
X163000000Y-150000000D01*
X160000000Y-147000000D02*
X159000000Y-146000000D01*
X162000000Y-147000000D02*
X161000000Y-146000000D01*
X164000000Y-147000000D02*
X163000000Y-146000000D01*
X167000000Y-146000000D02*
X165000000Y-146000000D01*
X166000000Y-149000000D02*
X166000000Y-147000000D01*
X168000000Y-147000000D02*
X167000000Y-148000000D01*
X169000000Y-148000000D02*
X169000000Y-146000000D01*
X168000000Y-151000000D02*
X168000000Y-149000000D01*
X167000000Y-152000000D02*
X167000000Y-150000000D01*
X166000000Y-153000000D02*
X166000000Y-151000000D01*
X161000000Y-154000000D02*
X162000000Y-155000000D01*
X158000000Y-154000000D02*
X158000000Y-155000000D01*
X159000000Y-154000000D02*
X158000000Y-154000000D01*
X158000000Y-152000000D02*
X158000000Y-153000000D01*
X159000000Y-152000000D02*
X158000000Y-152000000D01*
X161000000Y-154000000D02*
X160000000Y-153000000D01*
X161000000Y-156000000D02*
X160000000Y-155000000D01*
X159000000Y-156000000D02*
X160000000Y-157000000D01*
X157000000Y-156000000D02*
X158000000Y-157000000D01*
X154000000Y-157000000D02*
X156000000Y-157000000D01*
X153000000Y-156000000D02*
X152000000Y-157000000D01*
X156000000Y-155000000D02*
X155000000Y-156000000D01*
X154000000Y-153000000D02*
X154000000Y-155000000D01*
X156000000Y-153000000D02*
X155000000Y-154000000D01*
X157000000Y-152000000D02*
X157000000Y-154000000D01*
X156000000Y-151000000D02*
X157000000Y-150000000D01*
X156000000Y-149000000D02*
X155000000Y-150000000D01*
X154000000Y-147000000D02*
X154000000Y-149000000D01*
X156000000Y-145000000D02*
X156000000Y-147000000D01*
X156000000Y-141000000D02*
X156000000Y-143000000D01*
X156000000Y-137000000D02*
X156000000Y-139000000D01*
X155000000Y-138000000D02*
X155000000Y-136000000D01*
X155000000Y-142000000D02*
X155000000Y-140000000D01*
X155000000Y-144000000D02*
X154000000Y-143000000D01*
X155000000Y-146000000D02*
X154000000Y-145000000D01*
X148000000Y-143000000D02*
X150000000Y-143000000D01*
X146000000Y-143000000D02*
X146000000Y-145000000D01*
X146000000Y-147000000D02*
X147000000Y-148000000D01*
X148000000Y-147000000D02*
X147000000Y-146000000D01*
X150000000Y-147000000D02*
X149000000Y-148000000D01*
X150000000Y-145000000D02*
X151000000Y-146000000D01*
X148000000Y-145000000D02*
X149000000Y-146000000D01*
X148000000Y-143000000D02*
X149000000Y-144000000D01*
X144000000Y-137000000D02*
X144000000Y-139000000D01*
X144000000Y-141000000D02*
X144857798Y-141000000D01*
X145000000Y-144000000D02*
X145000000Y-142000000D01*
X144000000Y-145000000D02*
X145000000Y-146000000D01*
X144000000Y-143000000D02*
X143000000Y-144000000D01*
X142000000Y-143000000D02*
X143000000Y-142000000D01*
X139000000Y-138000000D02*
X139000000Y-134000000D01*
X140000000Y-135000000D02*
X140000000Y-133000000D01*
X142000000Y-139000000D02*
X142000000Y-138000000D01*
X141274880Y-140000000D02*
X141000000Y-140000000D01*
X142137436Y-140862556D02*
X141274880Y-140000000D01*
X141000000Y-142000000D02*
X142000000Y-143000000D01*
X140000000Y-139000000D02*
X140000000Y-141000000D01*
X139000000Y-140000000D02*
X139000000Y-138000000D01*
X140000000Y-143000000D02*
X139000000Y-142000000D01*
X135000000Y-154000000D02*
X137000000Y-154000000D01*
X142000000Y-149000000D02*
X141000000Y-150000000D01*
X141000000Y-146000000D02*
X142000000Y-147000000D01*
X140000000Y-149000000D02*
X141000000Y-148000000D01*
X139000000Y-148000000D02*
X139000000Y-150000000D01*
X140000000Y-145000000D02*
X140000000Y-147000000D01*
X137000000Y-146000000D02*
X139000000Y-146000000D01*
X138000000Y-147000000D02*
X138000000Y-145000000D01*
X136000000Y-147000000D02*
X136000000Y-149000000D01*
X138000000Y-149000000D02*
X137000000Y-148000000D01*
X138000000Y-153000000D02*
X138000000Y-151000000D01*
X137000000Y-154000000D02*
X138000000Y-155000000D01*
X140000000Y-151000000D02*
X141000000Y-152000000D01*
X142000000Y-151000000D02*
X143000000Y-150000000D01*
X144000000Y-149000000D02*
X143000000Y-148000000D01*
X146000000Y-155000000D02*
X145000000Y-156000000D01*
X145000000Y-154000000D02*
X146000000Y-153000000D01*
X143000000Y-154000000D02*
X144000000Y-155000000D01*
X144000000Y-153000000D02*
X143000000Y-152000000D01*
X141000000Y-154000000D02*
X142000000Y-153000000D01*
X131000000Y-156000000D02*
X127000000Y-156000000D01*
X121000000Y-152000000D02*
X120000000Y-153000000D01*
X121000000Y-154000000D02*
X122000000Y-155000000D01*
X124000000Y-155000000D02*
X125000000Y-156000000D01*
X125000000Y-154000000D02*
X126000000Y-155000000D01*
X126000000Y-157000000D02*
X128000000Y-157000000D01*
X130000000Y-155000000D02*
X131000000Y-156000000D01*
X131000000Y-156000000D02*
X133000000Y-156000000D01*
X132000000Y-155000000D02*
X133000000Y-154000000D01*
X134000000Y-153000000D02*
X135000000Y-154000000D01*
X134000000Y-155000000D02*
X135000000Y-156000000D01*
X123000000Y-148420000D02*
X119420000Y-148420000D01*
X119420000Y-148420000D02*
X117000000Y-146000000D01*
X118000000Y-147000000D02*
X119000000Y-146000000D01*
X120000000Y-147000000D02*
X119000000Y-148000000D01*
X118000000Y-149000000D02*
X119000000Y-150000000D01*
X119000000Y-152000000D02*
X120000000Y-151000000D01*
X120000000Y-149000000D02*
X121000000Y-150000000D01*
D31*
X127236100Y-151505800D02*
X127236100Y-151540000D01*
X124150300Y-148420000D02*
X127236100Y-151505800D01*
X123000000Y-148420000D02*
X124150300Y-148420000D01*
X128500000Y-151540000D02*
X127236100Y-151540000D01*
X151200000Y-154500000D02*
X150150000Y-154500000D01*
X150150000Y-154500000D02*
X149000000Y-154500000D01*
X149000000Y-154500000D02*
X146800000Y-154500000D01*
X135117000Y-98513100D02*
X139638800Y-98513100D01*
X150762400Y-98513100D02*
X146361200Y-98513100D01*
X150939200Y-98689900D02*
X150762400Y-98513100D01*
X146361200Y-98513100D02*
X139638800Y-98513100D01*
D32*
X156699700Y-133620700D02*
X155457400Y-132378400D01*
X156699700Y-145135200D02*
X156699700Y-133620700D01*
X159582900Y-148018400D02*
X156699700Y-145135200D01*
X162186700Y-148018400D02*
X159582900Y-148018400D01*
X147713900Y-117467800D02*
X149689300Y-117467800D01*
X144699500Y-114453400D02*
X147713900Y-117467800D01*
X144699500Y-113032400D02*
X144699500Y-114453400D01*
X142804300Y-111137200D02*
X144699500Y-113032400D01*
X149689300Y-117650500D02*
X150055900Y-118017100D01*
X149689300Y-117467800D02*
X149689300Y-117650500D01*
X154665400Y-112491700D02*
X156500000Y-112491700D01*
X149689300Y-117467800D02*
X154665400Y-112491700D01*
D33*
X149000000Y-156200000D02*
X150150000Y-156200000D01*
X150150000Y-156200000D02*
X151250000Y-156200000D01*
X158047200Y-121099700D02*
X159074900Y-121099700D01*
X155650400Y-123496500D02*
X158047200Y-121099700D01*
X155650400Y-127704300D02*
X155650400Y-123496500D01*
X152655900Y-130698800D02*
X155650400Y-127704300D01*
X152655900Y-154794100D02*
X152655900Y-130698800D01*
X151250000Y-156200000D02*
X152655900Y-154794100D01*
D31*
X149000000Y-152800000D02*
X149000000Y-152324800D01*
X150150000Y-152800000D02*
X149399700Y-152800000D01*
X131040000Y-151540000D02*
X131040000Y-150276100D01*
X149399700Y-152724500D02*
X149399700Y-152800000D01*
X149000000Y-152324800D02*
X149399700Y-152724500D01*
X140974800Y-144299600D02*
X149000000Y-152324800D01*
X137710000Y-144299600D02*
X140974800Y-144299600D01*
X131733500Y-150276100D02*
X137710000Y-144299600D01*
X131040000Y-150276100D02*
X131733500Y-150276100D01*
X137710000Y-144299600D02*
X137710000Y-134892700D01*
X142566900Y-99245400D02*
X142566900Y-99471000D01*
X142566900Y-99471000D02*
X147444700Y-99471000D01*
X137220500Y-102250000D02*
X137220500Y-102249300D01*
X139787900Y-102250000D02*
X137220500Y-102250000D01*
X142566900Y-99471000D02*
X139787900Y-102250000D01*
X133763800Y-127190300D02*
X133763800Y-127726000D01*
X129173000Y-122599500D02*
X133763800Y-127190300D01*
X124741900Y-122599500D02*
X129173000Y-122599500D01*
X120202400Y-118060000D02*
X124741900Y-122599500D01*
X120202400Y-116725200D02*
X120202400Y-118060000D01*
X134677600Y-102250000D02*
X120202400Y-116725200D01*
X137220500Y-102250000D02*
X134677600Y-102250000D01*
X156223900Y-115936300D02*
X156223900Y-116460000D01*
X156970200Y-115190000D02*
X156223900Y-115936300D01*
X158032000Y-115190000D02*
X156970200Y-115190000D01*
X158779400Y-114442600D02*
X158032000Y-115190000D01*
X158779400Y-113252300D02*
X158779400Y-114442600D01*
X150277800Y-104750700D02*
X158779400Y-113252300D01*
X149220500Y-104750700D02*
X150277800Y-104750700D01*
X154960000Y-116460000D02*
X156223900Y-116460000D01*
D32*
X123641700Y-116048900D02*
X121715600Y-117975000D01*
X123641700Y-115664400D02*
X123641700Y-116048900D01*
X135555400Y-103750700D02*
X123641700Y-115664400D01*
X138279500Y-103750700D02*
X135555400Y-103750700D01*
X121599100Y-117975000D02*
X121234800Y-117610700D01*
X121715600Y-117975000D02*
X121599100Y-117975000D01*
X149453000Y-132705400D02*
X146949100Y-130201500D01*
X149453000Y-133205700D02*
X149453000Y-132705400D01*
X123854000Y-120286700D02*
X130599000Y-120286700D01*
X121715600Y-118148300D02*
X123854000Y-120286700D01*
X121715600Y-117975000D02*
X121715600Y-118148300D01*
X142620900Y-101249300D02*
X147279500Y-101249300D01*
X140185700Y-103684500D02*
X142620900Y-101249300D01*
X162234800Y-114431000D02*
X162234800Y-117389300D01*
X149053100Y-101249300D02*
X162234800Y-114431000D01*
X147279500Y-101249300D02*
X149053100Y-101249300D01*
X141581400Y-110894600D02*
X141864400Y-110611600D01*
X141581400Y-125624700D02*
X141581400Y-110894600D01*
X148050000Y-132093300D02*
X141581400Y-125624700D01*
X148050000Y-133200000D02*
X148050000Y-132093300D01*
X142015900Y-111512200D02*
X142101500Y-111426600D01*
X142015900Y-122604900D02*
X142015900Y-111512200D01*
X151596800Y-132185800D02*
X142015900Y-122604900D01*
X143840200Y-105564300D02*
X143000000Y-105564300D01*
X145923300Y-107647400D02*
X143840200Y-105564300D01*
X145923300Y-108191100D02*
X145923300Y-107647400D01*
X145302100Y-108812300D02*
X145923300Y-108191100D01*
X142918100Y-108812300D02*
X145302100Y-108812300D01*
X141173600Y-110556800D02*
X142918100Y-108812300D01*
X141173600Y-125783100D02*
X141173600Y-110556800D01*
X146599600Y-131209100D02*
X141173600Y-125783100D01*
X146599600Y-133005500D02*
X146599600Y-131209100D01*
D30*
X149975250Y-121625250D02*
X149474750Y-121625250D01*
X150900000Y-122550000D02*
X149975250Y-121625250D01*
D32*
X142523200Y-111945400D02*
X142612300Y-111945400D01*
X142612300Y-111945400D02*
X142976600Y-112309700D01*
X142976600Y-112309700D02*
X142976600Y-114760800D01*
X142976600Y-114760800D02*
X144347500Y-116131700D01*
X144347500Y-116131700D02*
X144347500Y-116498000D01*
X144347500Y-116498000D02*
X149474750Y-121625250D01*
X123765200Y-117389300D02*
X123765200Y-118288000D01*
X122600600Y-118288000D02*
X122575600Y-118313000D01*
X123765200Y-118288000D02*
X122600600Y-118288000D01*
X129342200Y-118288000D02*
X132543800Y-121489600D01*
X123765200Y-118288000D02*
X129342200Y-118288000D01*
X145771000Y-134583000D02*
X151831300Y-140643300D01*
X145770900Y-134583000D02*
X145771000Y-134583000D01*
X145770900Y-131650500D02*
X145770900Y-134583000D01*
X141188100Y-127067700D02*
X145770900Y-131650500D01*
X142496300Y-114846700D02*
X142496300Y-112571700D01*
X143947200Y-116297600D02*
X142496300Y-114846700D01*
X143947200Y-117068100D02*
X143947200Y-116297600D01*
X145891700Y-119012600D02*
X143947200Y-117068100D01*
D30*
X150649400Y-123535600D02*
X152635600Y-123535600D01*
D32*
X164765200Y-117610700D02*
X164765200Y-119380300D01*
X164765200Y-119380300D02*
X163870400Y-120275100D01*
D30*
X155200000Y-121750000D02*
X155200000Y-121250000D01*
X155200000Y-121250000D02*
X156174900Y-120275100D01*
X156174900Y-120275100D02*
X163870400Y-120275100D01*
X152635600Y-123535600D02*
X152700000Y-123600000D01*
X152700000Y-123600000D02*
X153350000Y-123600000D01*
X153350000Y-123600000D02*
X155200000Y-121750000D01*
D32*
X145257400Y-141511000D02*
X151852700Y-148106300D01*
X145257300Y-141511000D02*
X145257400Y-141511000D01*
X145257300Y-132161100D02*
X145257300Y-141511000D01*
X140689300Y-127593100D02*
X145257300Y-132161100D01*
X140689300Y-119136400D02*
X140689300Y-127593100D01*
X139541700Y-117988800D02*
X140689300Y-119136400D01*
D33*
X153750000Y-120210000D02*
X154960000Y-119000000D01*
X153750000Y-121000000D02*
X153750000Y-120210000D01*
X154250000Y-121500000D02*
X153750000Y-121000000D01*
X153000000Y-122750000D02*
X154250000Y-121500000D01*
D32*
X157500000Y-113920000D02*
X157500000Y-112756100D01*
X152147800Y-107403900D02*
X148822000Y-107403900D01*
X157500000Y-112756100D02*
X152147800Y-107403900D01*
D33*
X133000000Y-145200000D02*
X131700000Y-146500000D01*
X132200000Y-147840000D02*
X131040000Y-149000000D01*
X132200000Y-147000000D02*
X132200000Y-147840000D01*
X131700000Y-146500000D02*
X132200000Y-147000000D01*
X131040000Y-149000000D02*
X131040000Y-148960000D01*
D32*
X128500000Y-154080000D02*
X128500000Y-152916100D01*
X142302500Y-107824600D02*
X145407600Y-107824600D01*
X134988200Y-115138900D02*
X142302500Y-107824600D01*
X134988200Y-127732000D02*
X134988200Y-115138900D01*
X129663900Y-133056300D02*
X134988200Y-127732000D01*
X129663900Y-152043300D02*
X129663900Y-133056300D01*
X128791100Y-152916100D02*
X129663900Y-152043300D01*
X128500000Y-152916100D02*
X128791100Y-152916100D01*
X142389600Y-108305000D02*
X145067500Y-108305000D01*
X135554200Y-115140400D02*
X142389600Y-108305000D01*
X135554200Y-132755500D02*
X135554200Y-115140400D01*
X131496800Y-136812900D02*
X135554200Y-132755500D01*
X131496800Y-140958600D02*
X131496800Y-136812900D01*
X134658200Y-144120000D02*
X131496800Y-140958600D01*
X152849300Y-111460600D02*
X155500000Y-111460600D01*
X149599500Y-114710400D02*
X152849300Y-111460600D01*
X123000000Y-150960000D02*
X124050300Y-150960000D01*
X131889700Y-152810000D02*
X134061100Y-150638600D01*
X130619200Y-152810000D02*
X131889700Y-152810000D01*
X129876000Y-153553200D02*
X130619200Y-152810000D01*
X129876000Y-154358700D02*
X129876000Y-153553200D01*
X128959800Y-155274900D02*
X129876000Y-154358700D01*
X127971300Y-155274900D02*
X128959800Y-155274900D01*
X124050300Y-151353900D02*
X127971300Y-155274900D01*
X124050300Y-150960000D02*
X124050300Y-151353900D01*
X145423200Y-105084000D02*
X145823200Y-105484000D01*
X141181200Y-105084000D02*
X145423200Y-105084000D01*
X131578900Y-114686300D02*
X141181200Y-105084000D01*
X127500000Y-114686300D02*
X131578900Y-114686300D01*
D30*
X153300000Y-124016000D02*
X153684000Y-124016000D01*
X156400000Y-121300000D02*
X156400000Y-121200000D01*
X153684000Y-124016000D02*
X156400000Y-121300000D01*
D32*
X150215700Y-124016000D02*
X143466900Y-117267200D01*
X153300000Y-124016000D02*
X150215700Y-124016000D01*
X143466900Y-117267200D02*
X143466900Y-116523800D01*
X147079500Y-118517900D02*
X146784500Y-118222900D01*
X150787400Y-118517900D02*
X147079500Y-118517900D01*
X151491600Y-117813700D02*
X150787400Y-118517900D01*
X160021600Y-117813700D02*
X151491600Y-117813700D01*
X161733400Y-119525500D02*
X160021600Y-117813700D01*
X163919800Y-119525500D02*
X161733400Y-119525500D01*
X134094300Y-121992600D02*
X134469900Y-121617000D01*
X125803500Y-121992600D02*
X134094300Y-121992600D01*
X134778000Y-105926600D02*
X134778000Y-109869700D01*
X135748300Y-104956300D02*
X134778000Y-105926600D01*
X144316400Y-103289700D02*
X143050200Y-103289700D01*
X146347800Y-105321100D02*
X144316400Y-103289700D01*
X146347800Y-112093600D02*
X146347800Y-105321100D01*
X145208100Y-113233300D02*
X146347800Y-112093600D01*
X146756100Y-104573700D02*
X144703900Y-102521500D01*
X146756100Y-112688100D02*
X146756100Y-104573700D01*
X145581100Y-113863100D02*
X146756100Y-112688100D01*
X148212100Y-107273100D02*
X148212100Y-113226600D01*
X150087000Y-105398200D02*
X148212100Y-107273100D01*
X153250000Y-127000000D02*
X154000000Y-127750000D01*
X142986500Y-116122900D02*
X142506200Y-115642600D01*
X142986500Y-117401300D02*
X142986500Y-116122900D01*
X150050100Y-124464900D02*
X142986500Y-117401300D01*
X150714900Y-124464900D02*
X150050100Y-124464900D01*
X153250000Y-127000000D02*
X150714900Y-124464900D01*
X151603900Y-126644400D02*
X152201900Y-126644400D01*
X142502900Y-117543400D02*
X151603900Y-126644400D01*
X142502900Y-116447900D02*
X142502900Y-117543400D01*
X132750000Y-141000000D02*
X132000000Y-140250000D01*
X136454900Y-121433300D02*
X137732000Y-120156200D01*
X136454900Y-134097400D02*
X136454900Y-121433300D01*
X132000000Y-138552300D02*
X136454900Y-134097400D01*
X132000000Y-140250000D02*
X132000000Y-138552300D01*
X136884900Y-121881100D02*
X138186100Y-120579900D01*
X136884900Y-135988400D02*
X136884900Y-121881100D01*
X132828400Y-140044900D02*
X136884900Y-135988400D01*
X139488400Y-128203800D02*
X142662700Y-131378100D01*
X139488400Y-119792600D02*
X139488400Y-128203800D01*
X138003200Y-118307400D02*
X139488400Y-119792600D01*
X138003200Y-117595700D02*
X138003200Y-118307400D01*
X142133200Y-131717400D02*
X139088100Y-128672300D01*
X139088100Y-128672300D02*
X139088100Y-120236500D01*
X139088100Y-120236500D02*
X137478600Y-118627000D01*
X137478600Y-118627000D02*
X137478600Y-116329200D01*
X142800000Y-134887400D02*
X138666400Y-130753800D01*
X138666400Y-130753800D02*
X138666400Y-120380900D01*
X138666400Y-120380900D02*
X136997400Y-118711900D01*
X136997400Y-118711900D02*
X136997400Y-115906600D01*
X136997400Y-115906600D02*
X138555900Y-114348100D01*
X138483600Y-118076100D02*
X138483600Y-118221700D01*
X138483600Y-118221700D02*
X139888700Y-119626800D01*
X139888700Y-119626800D02*
X139888700Y-127924700D01*
X139888700Y-127924700D02*
X143185300Y-131221300D01*
X143185300Y-131221300D02*
X143185300Y-131535800D01*
X143185300Y-131535800D02*
X142321200Y-132399900D01*
X142321200Y-132399900D02*
X141527900Y-132399900D01*
X144503600Y-131973500D02*
X144503600Y-135510200D01*
X140289000Y-127758900D02*
X144503600Y-131973500D01*
X140289000Y-119461000D02*
X140289000Y-127758900D01*
X139061400Y-118233400D02*
X140289000Y-119461000D01*
X139061400Y-115171500D02*
X139061400Y-118233400D01*
X139216000Y-115016900D02*
X139061400Y-115171500D01*
X147640200Y-103831000D02*
X147640200Y-116714900D01*
X147720500Y-103750700D02*
X147640200Y-103831000D01*
D31*
X136832000Y-104803200D02*
X136779500Y-104750700D01*
X138742100Y-104803200D02*
X136832000Y-104803200D01*
X139605400Y-103939900D02*
X138742100Y-104803200D01*
X139605400Y-103444200D02*
X139605400Y-103939900D01*
X142801500Y-100248100D02*
X139605400Y-103444200D01*
X148761200Y-100248100D02*
X142801500Y-100248100D01*
X163765200Y-115252100D02*
X148761200Y-100248100D01*
X163765200Y-116110700D02*
X163765200Y-115252100D01*
X127184800Y-113469700D02*
X124765200Y-115889300D01*
X132020800Y-113469700D02*
X127184800Y-113469700D01*
X143560900Y-101929600D02*
X132020800Y-113469700D01*
X145068100Y-101929600D02*
X143560900Y-101929600D01*
X145440600Y-102302100D02*
X145068100Y-101929600D01*
X148726700Y-102302100D02*
X145440600Y-102302100D01*
X148779500Y-102249300D02*
X148726700Y-102302100D01*
D33*
X141500000Y-156000000D02*
X137750000Y-156000000D01*
D34*
G36*
X156598000Y-132915131D02*
X155964485Y-132281615D01*
X155964488Y-132277994D01*
X155887465Y-132091583D01*
X155744968Y-131948837D01*
X155558691Y-131871488D01*
X155356994Y-131871312D01*
X155170583Y-131948335D01*
X155027837Y-132090832D01*
X154950488Y-132277109D01*
X154950312Y-132478806D01*
X154999595Y-132598081D01*
X154463478Y-132704721D01*
X154008636Y-133008636D01*
X153704721Y-133463478D01*
X153598000Y-134000000D01*
X153704721Y-134536522D01*
X154008636Y-134991364D01*
X154463478Y-135295279D01*
X155000000Y-135402000D01*
X155536522Y-135295279D01*
X155991364Y-134991364D01*
X156272700Y-134570314D01*
X156272700Y-145135195D01*
X156272699Y-145135200D01*
X156305203Y-145298606D01*
X156397765Y-145437135D01*
X159280963Y-148320332D01*
X159280965Y-148320335D01*
X159331449Y-148354067D01*
X159419494Y-148412897D01*
X159582900Y-148445401D01*
X159582905Y-148445400D01*
X161896573Y-148445400D01*
X161899132Y-148447963D01*
X162085409Y-148525312D01*
X162287106Y-148525488D01*
X162473517Y-148448465D01*
X162616263Y-148305968D01*
X162693612Y-148119691D01*
X162693788Y-147917994D01*
X162616765Y-147731583D01*
X162474268Y-147588837D01*
X162287991Y-147511488D01*
X162086294Y-147511312D01*
X161899883Y-147588335D01*
X161896813Y-147591400D01*
X159759769Y-147591400D01*
X157570370Y-145402000D01*
X164250000Y-145402000D01*
X164288832Y-145394276D01*
X164328426Y-145394276D01*
X164519768Y-145356216D01*
X164519770Y-145356216D01*
X164604658Y-145321054D01*
X164664682Y-145296191D01*
X164664683Y-145296190D01*
X164826894Y-145187803D01*
X164882348Y-145132348D01*
X164887696Y-145127000D01*
X165112304Y-145127000D01*
X165117652Y-145132348D01*
X165173106Y-145187803D01*
X165335317Y-145296190D01*
X165335319Y-145296191D01*
X165360180Y-145306489D01*
X165480230Y-145356216D01*
X165480232Y-145356216D01*
X165671575Y-145394276D01*
X165711168Y-145394276D01*
X165750000Y-145402000D01*
X169510161Y-145402000D01*
X168631758Y-149818033D01*
X165902562Y-153902562D01*
X161818033Y-156631758D01*
X156960405Y-157598000D01*
X129039596Y-157598000D01*
X124181967Y-156631758D01*
X120097438Y-153902562D01*
X119327321Y-152750000D01*
X121916594Y-152750000D01*
X121916594Y-154250000D01*
X121939395Y-154371179D01*
X122011012Y-154482474D01*
X122120286Y-154557138D01*
X122250000Y-154583406D01*
X123750000Y-154583406D01*
X123871179Y-154560605D01*
X123982474Y-154488988D01*
X124057138Y-154379714D01*
X124083406Y-154250000D01*
X124083406Y-152750000D01*
X124060605Y-152628821D01*
X123988988Y-152517526D01*
X123879714Y-152442862D01*
X123750000Y-152416594D01*
X122250000Y-152416594D01*
X122128821Y-152439395D01*
X122017526Y-152511012D01*
X121942862Y-152620286D01*
X121916594Y-152750000D01*
X119327321Y-152750000D01*
X117368242Y-149818033D01*
X117158023Y-148761185D01*
X121657682Y-148761185D01*
X121809575Y-149127914D01*
X122171098Y-149529583D01*
X122658813Y-149762328D01*
X122873000Y-149640425D01*
X122873000Y-148547000D01*
X123127000Y-148547000D01*
X123127000Y-149640425D01*
X123341187Y-149762328D01*
X123828902Y-149529583D01*
X124190425Y-149127914D01*
X124342318Y-148761185D01*
X124219656Y-148547000D01*
X123127000Y-148547000D01*
X122873000Y-148547000D01*
X121780344Y-148547000D01*
X121657682Y-148761185D01*
X117158023Y-148761185D01*
X117022292Y-148078815D01*
X121657682Y-148078815D01*
X121780344Y-148293000D01*
X122873000Y-148293000D01*
X122873000Y-147199575D01*
X123127000Y-147199575D01*
X123127000Y-148293000D01*
X124219656Y-148293000D01*
X124342318Y-148078815D01*
X124190425Y-147712086D01*
X123828902Y-147310417D01*
X123341187Y-147077672D01*
X123127000Y-147199575D01*
X122873000Y-147199575D01*
X122658813Y-147077672D01*
X122171098Y-147310417D01*
X121809575Y-147712086D01*
X121657682Y-148078815D01*
X117022292Y-148078815D01*
X116489839Y-145402000D01*
X120250000Y-145402000D01*
X120288832Y-145394276D01*
X120328426Y-145394276D01*
X120519768Y-145356216D01*
X120519770Y-145356216D01*
X120604658Y-145321054D01*
X120664682Y-145296191D01*
X120664683Y-145296190D01*
X120826894Y-145187803D01*
X120882348Y-145132348D01*
X120887696Y-145127000D01*
X121112304Y-145127000D01*
X121117652Y-145132348D01*
X121173106Y-145187803D01*
X121335317Y-145296190D01*
X121335319Y-145296191D01*
X121360180Y-145306489D01*
X121480230Y-145356216D01*
X121480232Y-145356216D01*
X121671575Y-145394276D01*
X121711168Y-145394276D01*
X121750000Y-145402000D01*
X129000000Y-145402000D01*
X129153839Y-145371400D01*
X129236900Y-145315900D01*
X129236900Y-147802994D01*
X127636400Y-147802994D01*
X127515221Y-147825795D01*
X127403926Y-147897412D01*
X127329262Y-148006686D01*
X127302994Y-148136400D01*
X127302994Y-149863600D01*
X127325795Y-149984779D01*
X127397412Y-150096074D01*
X127506686Y-150170738D01*
X127636400Y-150197006D01*
X127902058Y-150197006D01*
X127611510Y-150333179D01*
X127217312Y-150765053D01*
X127045042Y-151180974D01*
X127166183Y-151413000D01*
X128373000Y-151413000D01*
X128373000Y-151393000D01*
X128627000Y-151393000D01*
X128627000Y-151413000D01*
X128647000Y-151413000D01*
X128647000Y-151667000D01*
X128627000Y-151667000D01*
X128627000Y-151687000D01*
X128373000Y-151687000D01*
X128373000Y-151667000D01*
X127166183Y-151667000D01*
X127045042Y-151899026D01*
X127217312Y-152314947D01*
X127611510Y-152746821D01*
X128073000Y-152963111D01*
X128073000Y-152969696D01*
X128021052Y-152980029D01*
X127634794Y-153238119D01*
X127376704Y-153624377D01*
X127301703Y-154001434D01*
X124477300Y-151177030D01*
X124477300Y-150960000D01*
X124444797Y-150796594D01*
X124352235Y-150658065D01*
X124213706Y-150565503D01*
X124050300Y-150533000D01*
X124006196Y-150533000D01*
X123782654Y-150198446D01*
X123433250Y-149964982D01*
X123021100Y-149883000D01*
X122978900Y-149883000D01*
X122566750Y-149964982D01*
X122217346Y-150198446D01*
X121983882Y-150547850D01*
X121901900Y-150960000D01*
X121983882Y-151372150D01*
X122217346Y-151721554D01*
X122566750Y-151955018D01*
X122978900Y-152037000D01*
X123021100Y-152037000D01*
X123433250Y-151955018D01*
X123782654Y-151721554D01*
X123795243Y-151702713D01*
X127669363Y-155576832D01*
X127669365Y-155576835D01*
X127807894Y-155669397D01*
X127971300Y-155701900D01*
X128959795Y-155701900D01*
X128959800Y-155701901D01*
X129123206Y-155669397D01*
X129261735Y-155576835D01*
X129463569Y-155375000D01*
X135691594Y-155375000D01*
X135691594Y-156625000D01*
X135714395Y-156746179D01*
X135786012Y-156857474D01*
X135895286Y-156932138D01*
X136025000Y-156958406D01*
X136975000Y-156958406D01*
X137096179Y-156935605D01*
X137207474Y-156863988D01*
X137259928Y-156787219D01*
X137443088Y-156909602D01*
X137750000Y-156970651D01*
X138056912Y-156909602D01*
X138317100Y-156735751D01*
X138322947Y-156727000D01*
X140710786Y-156727000D01*
X140714395Y-156746179D01*
X140786012Y-156857474D01*
X140895286Y-156932138D01*
X141025000Y-156958406D01*
X141975000Y-156958406D01*
X142004799Y-156952799D01*
X142078179Y-157035552D01*
X142452062Y-157219268D01*
X142623000Y-157092734D01*
X142623000Y-156127000D01*
X142877000Y-156127000D01*
X142877000Y-157092734D01*
X143047938Y-157219268D01*
X143421821Y-157035552D01*
X143709568Y-156711049D01*
X143851229Y-156301131D01*
X143702563Y-156127000D01*
X142877000Y-156127000D01*
X142623000Y-156127000D01*
X142603000Y-156127000D01*
X142603000Y-155873000D01*
X142623000Y-155873000D01*
X142623000Y-154907266D01*
X142877000Y-154907266D01*
X142877000Y-155873000D01*
X143702563Y-155873000D01*
X143851229Y-155698869D01*
X143709568Y-155288951D01*
X143421821Y-154964448D01*
X143047938Y-154780732D01*
X142877000Y-154907266D01*
X142623000Y-154907266D01*
X142452062Y-154780732D01*
X142078179Y-154964448D01*
X142004478Y-155047563D01*
X141975000Y-155041594D01*
X141025000Y-155041594D01*
X140903821Y-155064395D01*
X140792526Y-155136012D01*
X140717862Y-155245286D01*
X140712250Y-155273000D01*
X138322947Y-155273000D01*
X138317100Y-155264249D01*
X138056912Y-155090398D01*
X137750000Y-155029349D01*
X137443088Y-155090398D01*
X137259416Y-155213123D01*
X137213988Y-155142526D01*
X137104714Y-155067862D01*
X136975000Y-155041594D01*
X136025000Y-155041594D01*
X135903821Y-155064395D01*
X135792526Y-155136012D01*
X135717862Y-155245286D01*
X135691594Y-155375000D01*
X129463569Y-155375000D01*
X130071411Y-154767158D01*
X130174794Y-154921881D01*
X130561052Y-155179971D01*
X131016675Y-155270600D01*
X131063325Y-155270600D01*
X131518948Y-155179971D01*
X131905206Y-154921881D01*
X132163296Y-154535623D01*
X132253925Y-154080000D01*
X132163296Y-153624377D01*
X131905206Y-153238119D01*
X131900359Y-153234881D01*
X132053106Y-153204497D01*
X132191635Y-153111935D01*
X134157884Y-151145685D01*
X134161506Y-151145688D01*
X134347917Y-151068665D01*
X134490663Y-150926168D01*
X134568012Y-150739891D01*
X134568188Y-150538194D01*
X134491165Y-150351783D01*
X134348668Y-150209037D01*
X134162391Y-150131688D01*
X133960694Y-150131512D01*
X133774283Y-150208535D01*
X133631537Y-150351032D01*
X133554188Y-150537309D01*
X133554184Y-150541647D01*
X132178961Y-151916869D01*
X132253925Y-151540000D01*
X132163296Y-151084377D01*
X131944420Y-150756807D01*
X132106145Y-150648745D01*
X137928291Y-144826600D01*
X140756510Y-144826600D01*
X147896504Y-151966594D01*
X147500000Y-151966594D01*
X147378821Y-151989395D01*
X147337105Y-152016239D01*
X147229714Y-151942862D01*
X147100000Y-151916594D01*
X146400000Y-151916594D01*
X146278821Y-151939395D01*
X146167526Y-152011012D01*
X146092862Y-152120286D01*
X146066594Y-152250000D01*
X146066594Y-153350000D01*
X146088033Y-153463942D01*
X145961673Y-153590301D01*
X145865000Y-153823690D01*
X145865000Y-154214250D01*
X146023750Y-154373000D01*
X146673000Y-154373000D01*
X146673000Y-154353000D01*
X146927000Y-154353000D01*
X146927000Y-154373000D01*
X147576250Y-154373000D01*
X147735000Y-154214250D01*
X147735000Y-153823690D01*
X147656182Y-153633406D01*
X148043818Y-153633406D01*
X147965000Y-153823690D01*
X147965000Y-154214250D01*
X148123750Y-154373000D01*
X148873000Y-154373000D01*
X148873000Y-154353000D01*
X149127000Y-154353000D01*
X149127000Y-154373000D01*
X150023000Y-154373000D01*
X150023000Y-154353000D01*
X150277000Y-154353000D01*
X150277000Y-154373000D01*
X151073000Y-154373000D01*
X151073000Y-154353000D01*
X151327000Y-154353000D01*
X151327000Y-154373000D01*
X151347000Y-154373000D01*
X151347000Y-154627000D01*
X151327000Y-154627000D01*
X151327000Y-154647000D01*
X151073000Y-154647000D01*
X151073000Y-154627000D01*
X150277000Y-154627000D01*
X150277000Y-154647000D01*
X150023000Y-154647000D01*
X150023000Y-154627000D01*
X149127000Y-154627000D01*
X149127000Y-154647000D01*
X148873000Y-154647000D01*
X148873000Y-154627000D01*
X148123750Y-154627000D01*
X147965000Y-154785750D01*
X147965000Y-155176310D01*
X148043818Y-155366594D01*
X147656182Y-155366594D01*
X147735000Y-155176310D01*
X147735000Y-154785750D01*
X147576250Y-154627000D01*
X146927000Y-154627000D01*
X146927000Y-154647000D01*
X146673000Y-154647000D01*
X146673000Y-154627000D01*
X146023750Y-154627000D01*
X145865000Y-154785750D01*
X145865000Y-155176310D01*
X145961673Y-155409699D01*
X146089393Y-155537418D01*
X146066594Y-155650000D01*
X146066594Y-156750000D01*
X146089395Y-156871179D01*
X146161012Y-156982474D01*
X146270286Y-157057138D01*
X146400000Y-157083406D01*
X147100000Y-157083406D01*
X147221179Y-157060605D01*
X147332474Y-156988988D01*
X147336054Y-156983748D01*
X147370286Y-157007138D01*
X147500000Y-157033406D01*
X148200000Y-157033406D01*
X148321179Y-157010605D01*
X148362895Y-156983761D01*
X148470286Y-157057138D01*
X148600000Y-157083406D01*
X149400000Y-157083406D01*
X149521179Y-157060605D01*
X149632474Y-156988988D01*
X149636054Y-156983748D01*
X149670286Y-157007138D01*
X149800000Y-157033406D01*
X150500000Y-157033406D01*
X150621179Y-157010605D01*
X150662895Y-156983761D01*
X150770286Y-157057138D01*
X150900000Y-157083406D01*
X151600000Y-157083406D01*
X151721179Y-157060605D01*
X151832474Y-156988988D01*
X151907138Y-156879714D01*
X151933406Y-156750000D01*
X151933406Y-156544728D01*
X153169967Y-155308167D01*
X153199312Y-155264249D01*
X153327560Y-155072311D01*
X153336742Y-155026152D01*
X153382901Y-154794100D01*
X153382900Y-154794095D01*
X153382900Y-152000000D01*
X153598000Y-152000000D01*
X153704721Y-152536522D01*
X154008636Y-152991364D01*
X154463478Y-153295279D01*
X155000000Y-153402000D01*
X155536522Y-153295279D01*
X155991364Y-152991364D01*
X156295279Y-152536522D01*
X156402000Y-152000000D01*
X156295279Y-151463478D01*
X155991364Y-151008636D01*
X155536522Y-150704721D01*
X155000000Y-150598000D01*
X154463478Y-150704721D01*
X154008636Y-151008636D01*
X153704721Y-151463478D01*
X153598000Y-152000000D01*
X153382900Y-152000000D01*
X153382900Y-132464544D01*
X153445913Y-132490709D01*
X153655567Y-132490892D01*
X153849332Y-132410830D01*
X153997709Y-132262712D01*
X154048013Y-132141567D01*
X155387290Y-130802290D01*
X155490691Y-130647541D01*
X155527000Y-130465000D01*
X155527000Y-129942881D01*
X155576909Y-129822687D01*
X155577092Y-129613033D01*
X155497030Y-129419268D01*
X155348912Y-129270891D01*
X155181470Y-129201363D01*
X156164464Y-128218369D01*
X156164467Y-128218367D01*
X156322060Y-127982511D01*
X156322061Y-127982510D01*
X156377401Y-127704300D01*
X156377400Y-127704295D01*
X156377400Y-123797634D01*
X156598000Y-123577034D01*
X156598000Y-132915131D01*
X156598000Y-132915131D01*
G37*
X156598000Y-132915131D02*
X155964485Y-132281615D01*
X155964488Y-132277994D01*
X155887465Y-132091583D01*
X155744968Y-131948837D01*
X155558691Y-131871488D01*
X155356994Y-131871312D01*
X155170583Y-131948335D01*
X155027837Y-132090832D01*
X154950488Y-132277109D01*
X154950312Y-132478806D01*
X154999595Y-132598081D01*
X154463478Y-132704721D01*
X154008636Y-133008636D01*
X153704721Y-133463478D01*
X153598000Y-134000000D01*
X153704721Y-134536522D01*
X154008636Y-134991364D01*
X154463478Y-135295279D01*
X155000000Y-135402000D01*
X155536522Y-135295279D01*
X155991364Y-134991364D01*
X156272700Y-134570314D01*
X156272700Y-145135195D01*
X156272699Y-145135200D01*
X156305203Y-145298606D01*
X156397765Y-145437135D01*
X159280963Y-148320332D01*
X159280965Y-148320335D01*
X159331449Y-148354067D01*
X159419494Y-148412897D01*
X159582900Y-148445401D01*
X159582905Y-148445400D01*
X161896573Y-148445400D01*
X161899132Y-148447963D01*
X162085409Y-148525312D01*
X162287106Y-148525488D01*
X162473517Y-148448465D01*
X162616263Y-148305968D01*
X162693612Y-148119691D01*
X162693788Y-147917994D01*
X162616765Y-147731583D01*
X162474268Y-147588837D01*
X162287991Y-147511488D01*
X162086294Y-147511312D01*
X161899883Y-147588335D01*
X161896813Y-147591400D01*
X159759769Y-147591400D01*
X157570370Y-145402000D01*
X164250000Y-145402000D01*
X164288832Y-145394276D01*
X164328426Y-145394276D01*
X164519768Y-145356216D01*
X164519770Y-145356216D01*
X164604658Y-145321054D01*
X164664682Y-145296191D01*
X164664683Y-145296190D01*
X164826894Y-145187803D01*
X164882348Y-145132348D01*
X164887696Y-145127000D01*
X165112304Y-145127000D01*
X165117652Y-145132348D01*
X165173106Y-145187803D01*
X165335317Y-145296190D01*
X165335319Y-145296191D01*
X165360180Y-145306489D01*
X165480230Y-145356216D01*
X165480232Y-145356216D01*
X165671575Y-145394276D01*
X165711168Y-145394276D01*
X165750000Y-145402000D01*
X169510161Y-145402000D01*
X168631758Y-149818033D01*
X165902562Y-153902562D01*
X161818033Y-156631758D01*
X156960405Y-157598000D01*
X129039596Y-157598000D01*
X124181967Y-156631758D01*
X120097438Y-153902562D01*
X119327321Y-152750000D01*
X121916594Y-152750000D01*
X121916594Y-154250000D01*
X121939395Y-154371179D01*
X122011012Y-154482474D01*
X122120286Y-154557138D01*
X122250000Y-154583406D01*
X123750000Y-154583406D01*
X123871179Y-154560605D01*
X123982474Y-154488988D01*
X124057138Y-154379714D01*
X124083406Y-154250000D01*
X124083406Y-152750000D01*
X124060605Y-152628821D01*
X123988988Y-152517526D01*
X123879714Y-152442862D01*
X123750000Y-152416594D01*
X122250000Y-152416594D01*
X122128821Y-152439395D01*
X122017526Y-152511012D01*
X121942862Y-152620286D01*
X121916594Y-152750000D01*
X119327321Y-152750000D01*
X117368242Y-149818033D01*
X117158023Y-148761185D01*
X121657682Y-148761185D01*
X121809575Y-149127914D01*
X122171098Y-149529583D01*
X122658813Y-149762328D01*
X122873000Y-149640425D01*
X122873000Y-148547000D01*
X123127000Y-148547000D01*
X123127000Y-149640425D01*
X123341187Y-149762328D01*
X123828902Y-149529583D01*
X124190425Y-149127914D01*
X124342318Y-148761185D01*
X124219656Y-148547000D01*
X123127000Y-148547000D01*
X122873000Y-148547000D01*
X121780344Y-148547000D01*
X121657682Y-148761185D01*
X117158023Y-148761185D01*
X117022292Y-148078815D01*
X121657682Y-148078815D01*
X121780344Y-148293000D01*
X122873000Y-148293000D01*
X122873000Y-147199575D01*
X123127000Y-147199575D01*
X123127000Y-148293000D01*
X124219656Y-148293000D01*
X124342318Y-148078815D01*
X124190425Y-147712086D01*
X123828902Y-147310417D01*
X123341187Y-147077672D01*
X123127000Y-147199575D01*
X122873000Y-147199575D01*
X122658813Y-147077672D01*
X122171098Y-147310417D01*
X121809575Y-147712086D01*
X121657682Y-148078815D01*
X117022292Y-148078815D01*
X116489839Y-145402000D01*
X120250000Y-145402000D01*
X120288832Y-145394276D01*
X120328426Y-145394276D01*
X120519768Y-145356216D01*
X120519770Y-145356216D01*
X120604658Y-145321054D01*
X120664682Y-145296191D01*
X120664683Y-145296190D01*
X120826894Y-145187803D01*
X120882348Y-145132348D01*
X120887696Y-145127000D01*
X121112304Y-145127000D01*
X121117652Y-145132348D01*
X121173106Y-145187803D01*
X121335317Y-145296190D01*
X121335319Y-145296191D01*
X121360180Y-145306489D01*
X121480230Y-145356216D01*
X121480232Y-145356216D01*
X121671575Y-145394276D01*
X121711168Y-145394276D01*
X121750000Y-145402000D01*
X129000000Y-145402000D01*
X129153839Y-145371400D01*
X129236900Y-145315900D01*
X129236900Y-147802994D01*
X127636400Y-147802994D01*
X127515221Y-147825795D01*
X127403926Y-147897412D01*
X127329262Y-148006686D01*
X127302994Y-148136400D01*
X127302994Y-149863600D01*
X127325795Y-149984779D01*
X127397412Y-150096074D01*
X127506686Y-150170738D01*
X127636400Y-150197006D01*
X127902058Y-150197006D01*
X127611510Y-150333179D01*
X127217312Y-150765053D01*
X127045042Y-151180974D01*
X127166183Y-151413000D01*
X128373000Y-151413000D01*
X128373000Y-151393000D01*
X128627000Y-151393000D01*
X128627000Y-151413000D01*
X128647000Y-151413000D01*
X128647000Y-151667000D01*
X128627000Y-151667000D01*
X128627000Y-151687000D01*
X128373000Y-151687000D01*
X128373000Y-151667000D01*
X127166183Y-151667000D01*
X127045042Y-151899026D01*
X127217312Y-152314947D01*
X127611510Y-152746821D01*
X128073000Y-152963111D01*
X128073000Y-152969696D01*
X128021052Y-152980029D01*
X127634794Y-153238119D01*
X127376704Y-153624377D01*
X127301703Y-154001434D01*
X124477300Y-151177030D01*
X124477300Y-150960000D01*
X124444797Y-150796594D01*
X124352235Y-150658065D01*
X124213706Y-150565503D01*
X124050300Y-150533000D01*
X124006196Y-150533000D01*
X123782654Y-150198446D01*
X123433250Y-149964982D01*
X123021100Y-149883000D01*
X122978900Y-149883000D01*
X122566750Y-149964982D01*
X122217346Y-150198446D01*
X121983882Y-150547850D01*
X121901900Y-150960000D01*
X121983882Y-151372150D01*
X122217346Y-151721554D01*
X122566750Y-151955018D01*
X122978900Y-152037000D01*
X123021100Y-152037000D01*
X123433250Y-151955018D01*
X123782654Y-151721554D01*
X123795243Y-151702713D01*
X127669363Y-155576832D01*
X127669365Y-155576835D01*
X127807894Y-155669397D01*
X127971300Y-155701900D01*
X128959795Y-155701900D01*
X128959800Y-155701901D01*
X129123206Y-155669397D01*
X129261735Y-155576835D01*
X129463569Y-155375000D01*
X135691594Y-155375000D01*
X135691594Y-156625000D01*
X135714395Y-156746179D01*
X135786012Y-156857474D01*
X135895286Y-156932138D01*
X136025000Y-156958406D01*
X136975000Y-156958406D01*
X137096179Y-156935605D01*
X137207474Y-156863988D01*
X137259928Y-156787219D01*
X137443088Y-156909602D01*
X137750000Y-156970651D01*
X138056912Y-156909602D01*
X138317100Y-156735751D01*
X138322947Y-156727000D01*
X140710786Y-156727000D01*
X140714395Y-156746179D01*
X140786012Y-156857474D01*
X140895286Y-156932138D01*
X141025000Y-156958406D01*
X141975000Y-156958406D01*
X142004799Y-156952799D01*
X142078179Y-157035552D01*
X142452062Y-157219268D01*
X142623000Y-157092734D01*
X142623000Y-156127000D01*
X142877000Y-156127000D01*
X142877000Y-157092734D01*
X143047938Y-157219268D01*
X143421821Y-157035552D01*
X143709568Y-156711049D01*
X143851229Y-156301131D01*
X143702563Y-156127000D01*
X142877000Y-156127000D01*
X142623000Y-156127000D01*
X142603000Y-156127000D01*
X142603000Y-155873000D01*
X142623000Y-155873000D01*
X142623000Y-154907266D01*
X142877000Y-154907266D01*
X142877000Y-155873000D01*
X143702563Y-155873000D01*
X143851229Y-155698869D01*
X143709568Y-155288951D01*
X143421821Y-154964448D01*
X143047938Y-154780732D01*
X142877000Y-154907266D01*
X142623000Y-154907266D01*
X142452062Y-154780732D01*
X142078179Y-154964448D01*
X142004478Y-155047563D01*
X141975000Y-155041594D01*
X141025000Y-155041594D01*
X140903821Y-155064395D01*
X140792526Y-155136012D01*
X140717862Y-155245286D01*
X140712250Y-155273000D01*
X138322947Y-155273000D01*
X138317100Y-155264249D01*
X138056912Y-155090398D01*
X137750000Y-155029349D01*
X137443088Y-155090398D01*
X137259416Y-155213123D01*
X137213988Y-155142526D01*
X137104714Y-155067862D01*
X136975000Y-155041594D01*
X136025000Y-155041594D01*
X135903821Y-155064395D01*
X135792526Y-155136012D01*
X135717862Y-155245286D01*
X135691594Y-155375000D01*
X129463569Y-155375000D01*
X130071411Y-154767158D01*
X130174794Y-154921881D01*
X130561052Y-155179971D01*
X131016675Y-155270600D01*
X131063325Y-155270600D01*
X131518948Y-155179971D01*
X131905206Y-154921881D01*
X132163296Y-154535623D01*
X132253925Y-154080000D01*
X132163296Y-153624377D01*
X131905206Y-153238119D01*
X131900359Y-153234881D01*
X132053106Y-153204497D01*
X132191635Y-153111935D01*
X134157884Y-151145685D01*
X134161506Y-151145688D01*
X134347917Y-151068665D01*
X134490663Y-150926168D01*
X134568012Y-150739891D01*
X134568188Y-150538194D01*
X134491165Y-150351783D01*
X134348668Y-150209037D01*
X134162391Y-150131688D01*
X133960694Y-150131512D01*
X133774283Y-150208535D01*
X133631537Y-150351032D01*
X133554188Y-150537309D01*
X133554184Y-150541647D01*
X132178961Y-151916869D01*
X132253925Y-151540000D01*
X132163296Y-151084377D01*
X131944420Y-150756807D01*
X132106145Y-150648745D01*
X137928291Y-144826600D01*
X140756510Y-144826600D01*
X147896504Y-151966594D01*
X147500000Y-151966594D01*
X147378821Y-151989395D01*
X147337105Y-152016239D01*
X147229714Y-151942862D01*
X147100000Y-151916594D01*
X146400000Y-151916594D01*
X146278821Y-151939395D01*
X146167526Y-152011012D01*
X146092862Y-152120286D01*
X146066594Y-152250000D01*
X146066594Y-153350000D01*
X146088033Y-153463942D01*
X145961673Y-153590301D01*
X145865000Y-153823690D01*
X145865000Y-154214250D01*
X146023750Y-154373000D01*
X146673000Y-154373000D01*
X146673000Y-154353000D01*
X146927000Y-154353000D01*
X146927000Y-154373000D01*
X147576250Y-154373000D01*
X147735000Y-154214250D01*
X147735000Y-153823690D01*
X147656182Y-153633406D01*
X148043818Y-153633406D01*
X147965000Y-153823690D01*
X147965000Y-154214250D01*
X148123750Y-154373000D01*
X148873000Y-154373000D01*
X148873000Y-154353000D01*
X149127000Y-154353000D01*
X149127000Y-154373000D01*
X150023000Y-154373000D01*
X150023000Y-154353000D01*
X150277000Y-154353000D01*
X150277000Y-154373000D01*
X151073000Y-154373000D01*
X151073000Y-154353000D01*
X151327000Y-154353000D01*
X151327000Y-154373000D01*
X151347000Y-154373000D01*
X151347000Y-154627000D01*
X151327000Y-154627000D01*
X151327000Y-154647000D01*
X151073000Y-154647000D01*
X151073000Y-154627000D01*
X150277000Y-154627000D01*
X150277000Y-154647000D01*
X150023000Y-154647000D01*
X150023000Y-154627000D01*
X149127000Y-154627000D01*
X149127000Y-154647000D01*
X148873000Y-154647000D01*
X148873000Y-154627000D01*
X148123750Y-154627000D01*
X147965000Y-154785750D01*
X147965000Y-155176310D01*
X148043818Y-155366594D01*
X147656182Y-155366594D01*
X147735000Y-155176310D01*
X147735000Y-154785750D01*
X147576250Y-154627000D01*
X146927000Y-154627000D01*
X146927000Y-154647000D01*
X146673000Y-154647000D01*
X146673000Y-154627000D01*
X146023750Y-154627000D01*
X145865000Y-154785750D01*
X145865000Y-155176310D01*
X145961673Y-155409699D01*
X146089393Y-155537418D01*
X146066594Y-155650000D01*
X146066594Y-156750000D01*
X146089395Y-156871179D01*
X146161012Y-156982474D01*
X146270286Y-157057138D01*
X146400000Y-157083406D01*
X147100000Y-157083406D01*
X147221179Y-157060605D01*
X147332474Y-156988988D01*
X147336054Y-156983748D01*
X147370286Y-157007138D01*
X147500000Y-157033406D01*
X148200000Y-157033406D01*
X148321179Y-157010605D01*
X148362895Y-156983761D01*
X148470286Y-157057138D01*
X148600000Y-157083406D01*
X149400000Y-157083406D01*
X149521179Y-157060605D01*
X149632474Y-156988988D01*
X149636054Y-156983748D01*
X149670286Y-157007138D01*
X149800000Y-157033406D01*
X150500000Y-157033406D01*
X150621179Y-157010605D01*
X150662895Y-156983761D01*
X150770286Y-157057138D01*
X150900000Y-157083406D01*
X151600000Y-157083406D01*
X151721179Y-157060605D01*
X151832474Y-156988988D01*
X151907138Y-156879714D01*
X151933406Y-156750000D01*
X151933406Y-156544728D01*
X153169967Y-155308167D01*
X153199312Y-155264249D01*
X153327560Y-155072311D01*
X153336742Y-155026152D01*
X153382901Y-154794100D01*
X153382900Y-154794095D01*
X153382900Y-152000000D01*
X153598000Y-152000000D01*
X153704721Y-152536522D01*
X154008636Y-152991364D01*
X154463478Y-153295279D01*
X155000000Y-153402000D01*
X155536522Y-153295279D01*
X155991364Y-152991364D01*
X156295279Y-152536522D01*
X156402000Y-152000000D01*
X156295279Y-151463478D01*
X155991364Y-151008636D01*
X155536522Y-150704721D01*
X155000000Y-150598000D01*
X154463478Y-150704721D01*
X154008636Y-151008636D01*
X153704721Y-151463478D01*
X153598000Y-152000000D01*
X153382900Y-152000000D01*
X153382900Y-132464544D01*
X153445913Y-132490709D01*
X153655567Y-132490892D01*
X153849332Y-132410830D01*
X153997709Y-132262712D01*
X154048013Y-132141567D01*
X155387290Y-130802290D01*
X155490691Y-130647541D01*
X155527000Y-130465000D01*
X155527000Y-129942881D01*
X155576909Y-129822687D01*
X155577092Y-129613033D01*
X155497030Y-129419268D01*
X155348912Y-129270891D01*
X155181470Y-129201363D01*
X156164464Y-128218369D01*
X156164467Y-128218367D01*
X156322060Y-127982511D01*
X156322061Y-127982510D01*
X156377401Y-127704300D01*
X156377400Y-127704295D01*
X156377400Y-123797634D01*
X156598000Y-123577034D01*
X156598000Y-132915131D01*
G36*
X138239400Y-130753795D02*
X138239399Y-130753800D01*
X138271903Y-130917206D01*
X138364465Y-131055735D01*
X142292915Y-134984184D01*
X142292912Y-134987806D01*
X142369935Y-135174217D01*
X142512432Y-135316963D01*
X142698709Y-135394312D01*
X142900406Y-135394488D01*
X143086817Y-135317465D01*
X143229563Y-135174968D01*
X143306912Y-134988691D01*
X143307088Y-134786994D01*
X143230065Y-134600583D01*
X143087568Y-134457837D01*
X142901291Y-134380488D01*
X142896953Y-134380484D01*
X141420919Y-132904449D01*
X141426609Y-132906812D01*
X141628306Y-132906988D01*
X141814717Y-132829965D01*
X141817787Y-132826900D01*
X142321195Y-132826900D01*
X142321200Y-132826901D01*
X142484606Y-132794397D01*
X142623135Y-132701835D01*
X143487235Y-131837735D01*
X143579797Y-131699206D01*
X143587369Y-131661138D01*
X144076600Y-132150369D01*
X144076600Y-135220073D01*
X144074037Y-135222632D01*
X143996688Y-135408909D01*
X143996512Y-135610606D01*
X144073535Y-135797017D01*
X144136208Y-135859800D01*
X142625481Y-135859800D01*
X142505287Y-135809891D01*
X142295633Y-135809708D01*
X142101868Y-135889770D01*
X141953491Y-136037888D01*
X141873091Y-136231513D01*
X141872908Y-136441167D01*
X141952970Y-136634932D01*
X142101088Y-136783309D01*
X142294713Y-136863709D01*
X142504367Y-136863892D01*
X142625599Y-136813800D01*
X144251184Y-136813800D01*
X144277270Y-136876932D01*
X144425388Y-137025309D01*
X144619013Y-137105709D01*
X144828667Y-137105892D01*
X144830300Y-137105217D01*
X144830300Y-141511000D01*
X144862803Y-141674406D01*
X144955365Y-141812935D01*
X144955666Y-141813136D01*
X151345615Y-148203084D01*
X151345612Y-148206706D01*
X151422635Y-148393117D01*
X151565132Y-148535863D01*
X151751409Y-148613212D01*
X151928900Y-148613367D01*
X151928900Y-152226052D01*
X151910605Y-152128821D01*
X151838988Y-152017526D01*
X151729714Y-151942862D01*
X151600000Y-151916594D01*
X150900000Y-151916594D01*
X150778821Y-151939395D01*
X150667526Y-152011012D01*
X150663946Y-152016252D01*
X150629714Y-151992862D01*
X150500000Y-151966594D01*
X149800000Y-151966594D01*
X149678821Y-151989395D01*
X149637105Y-152016239D01*
X149529714Y-151942862D01*
X149400000Y-151916594D01*
X149337084Y-151916594D01*
X141347445Y-143926955D01*
X141176475Y-143812715D01*
X140974800Y-143772600D01*
X138237000Y-143772600D01*
X138237000Y-135128147D01*
X138286900Y-135007976D01*
X138287100Y-134778431D01*
X138199442Y-134566283D01*
X138037271Y-134403829D01*
X137825276Y-134315800D01*
X137595731Y-134315600D01*
X137383583Y-134403258D01*
X137311900Y-134474816D01*
X137311900Y-122057970D01*
X138239400Y-121130469D01*
X138239400Y-130753795D01*
X138239400Y-130753795D01*
G37*
X138239400Y-130753795D02*
X138239399Y-130753800D01*
X138271903Y-130917206D01*
X138364465Y-131055735D01*
X142292915Y-134984184D01*
X142292912Y-134987806D01*
X142369935Y-135174217D01*
X142512432Y-135316963D01*
X142698709Y-135394312D01*
X142900406Y-135394488D01*
X143086817Y-135317465D01*
X143229563Y-135174968D01*
X143306912Y-134988691D01*
X143307088Y-134786994D01*
X143230065Y-134600583D01*
X143087568Y-134457837D01*
X142901291Y-134380488D01*
X142896953Y-134380484D01*
X141420919Y-132904449D01*
X141426609Y-132906812D01*
X141628306Y-132906988D01*
X141814717Y-132829965D01*
X141817787Y-132826900D01*
X142321195Y-132826900D01*
X142321200Y-132826901D01*
X142484606Y-132794397D01*
X142623135Y-132701835D01*
X143487235Y-131837735D01*
X143579797Y-131699206D01*
X143587369Y-131661138D01*
X144076600Y-132150369D01*
X144076600Y-135220073D01*
X144074037Y-135222632D01*
X143996688Y-135408909D01*
X143996512Y-135610606D01*
X144073535Y-135797017D01*
X144136208Y-135859800D01*
X142625481Y-135859800D01*
X142505287Y-135809891D01*
X142295633Y-135809708D01*
X142101868Y-135889770D01*
X141953491Y-136037888D01*
X141873091Y-136231513D01*
X141872908Y-136441167D01*
X141952970Y-136634932D01*
X142101088Y-136783309D01*
X142294713Y-136863709D01*
X142504367Y-136863892D01*
X142625599Y-136813800D01*
X144251184Y-136813800D01*
X144277270Y-136876932D01*
X144425388Y-137025309D01*
X144619013Y-137105709D01*
X144828667Y-137105892D01*
X144830300Y-137105217D01*
X144830300Y-141511000D01*
X144862803Y-141674406D01*
X144955365Y-141812935D01*
X144955666Y-141813136D01*
X151345615Y-148203084D01*
X151345612Y-148206706D01*
X151422635Y-148393117D01*
X151565132Y-148535863D01*
X151751409Y-148613212D01*
X151928900Y-148613367D01*
X151928900Y-152226052D01*
X151910605Y-152128821D01*
X151838988Y-152017526D01*
X151729714Y-151942862D01*
X151600000Y-151916594D01*
X150900000Y-151916594D01*
X150778821Y-151939395D01*
X150667526Y-152011012D01*
X150663946Y-152016252D01*
X150629714Y-151992862D01*
X150500000Y-151966594D01*
X149800000Y-151966594D01*
X149678821Y-151989395D01*
X149637105Y-152016239D01*
X149529714Y-151942862D01*
X149400000Y-151916594D01*
X149337084Y-151916594D01*
X141347445Y-143926955D01*
X141176475Y-143812715D01*
X140974800Y-143772600D01*
X138237000Y-143772600D01*
X138237000Y-135128147D01*
X138286900Y-135007976D01*
X138287100Y-134778431D01*
X138199442Y-134566283D01*
X138037271Y-134403829D01*
X137825276Y-134315800D01*
X137595731Y-134315600D01*
X137383583Y-134403258D01*
X137311900Y-134474816D01*
X137311900Y-122057970D01*
X138239400Y-121130469D01*
X138239400Y-130753795D01*
G36*
X135127200Y-132578630D02*
X131194865Y-136510965D01*
X131102303Y-136649494D01*
X131069799Y-136812900D01*
X131069800Y-136812905D01*
X131069800Y-140958595D01*
X131069799Y-140958600D01*
X131102303Y-141122006D01*
X131194865Y-141260535D01*
X131967540Y-142033210D01*
X131877000Y-142123750D01*
X131877000Y-142873000D01*
X131897000Y-142873000D01*
X131897000Y-143127000D01*
X131877000Y-143127000D01*
X131877000Y-143876250D01*
X132035750Y-144035000D01*
X132676309Y-144035000D01*
X132909698Y-143938327D01*
X133088327Y-143759699D01*
X133185000Y-143526310D01*
X133185000Y-143285750D01*
X133026252Y-143127002D01*
X133061333Y-143127002D01*
X134151115Y-144216784D01*
X134151112Y-144220406D01*
X134228135Y-144406817D01*
X134370632Y-144549563D01*
X134556909Y-144626912D01*
X134758606Y-144627088D01*
X134945017Y-144550065D01*
X135087763Y-144407568D01*
X135165112Y-144221291D01*
X135165288Y-144019594D01*
X135088265Y-143833183D01*
X134945768Y-143690437D01*
X134759491Y-143613088D01*
X134755153Y-143613084D01*
X132648982Y-141506912D01*
X132850406Y-141507088D01*
X133036817Y-141430065D01*
X133179563Y-141287568D01*
X133256912Y-141101291D01*
X133257088Y-140899594D01*
X133180065Y-140713183D01*
X133037568Y-140570437D01*
X132961051Y-140538665D01*
X133115217Y-140474965D01*
X133257963Y-140332468D01*
X133335312Y-140146191D01*
X133335316Y-140141854D01*
X137183000Y-136294169D01*
X137183000Y-144081309D01*
X132251346Y-149012963D01*
X132253925Y-149000000D01*
X132223100Y-148845033D01*
X132714064Y-148354069D01*
X132714067Y-148354067D01*
X132871660Y-148118211D01*
X132893844Y-148006686D01*
X132927001Y-147840000D01*
X132927000Y-147839995D01*
X132927000Y-147000005D01*
X132927001Y-147000000D01*
X132871660Y-146721790D01*
X132871660Y-146721789D01*
X132725336Y-146502798D01*
X133227192Y-146000941D01*
X133467846Y-145901505D01*
X133700688Y-145669070D01*
X133826856Y-145365222D01*
X133827143Y-145036221D01*
X133701505Y-144732154D01*
X133469070Y-144499312D01*
X133165222Y-144373144D01*
X132836221Y-144372857D01*
X132532154Y-144498495D01*
X132299312Y-144730930D01*
X132198746Y-144973120D01*
X131472807Y-145699059D01*
X131232154Y-145798495D01*
X130999312Y-146030930D01*
X130873144Y-146334778D01*
X130872857Y-146663779D01*
X130998495Y-146967846D01*
X131230930Y-147200688D01*
X131473000Y-147301204D01*
X131473000Y-147538867D01*
X131179382Y-147832485D01*
X131063325Y-147809400D01*
X131016675Y-147809400D01*
X130561052Y-147900029D01*
X130174794Y-148158119D01*
X130090900Y-148283675D01*
X130090900Y-143285750D01*
X130315000Y-143285750D01*
X130315000Y-143526310D01*
X130411673Y-143759699D01*
X130590302Y-143938327D01*
X130823691Y-144035000D01*
X131464250Y-144035000D01*
X131623000Y-143876250D01*
X131623000Y-143127000D01*
X130473750Y-143127000D01*
X130315000Y-143285750D01*
X130090900Y-143285750D01*
X130090900Y-142473690D01*
X130315000Y-142473690D01*
X130315000Y-142714250D01*
X130473750Y-142873000D01*
X131623000Y-142873000D01*
X131623000Y-142123750D01*
X131464250Y-141965000D01*
X130823691Y-141965000D01*
X130590302Y-142061673D01*
X130411673Y-142240301D01*
X130315000Y-142473690D01*
X130090900Y-142473690D01*
X130090900Y-135046331D01*
X130463478Y-135295279D01*
X131000000Y-135402000D01*
X131536522Y-135295279D01*
X131991364Y-134991364D01*
X132295279Y-134536522D01*
X132402000Y-134000000D01*
X132295279Y-133463478D01*
X131991364Y-133008636D01*
X131536522Y-132704721D01*
X131000000Y-132598000D01*
X130658052Y-132666018D01*
X135127200Y-128196869D01*
X135127200Y-132578630D01*
X135127200Y-132578630D01*
G37*
X135127200Y-132578630D02*
X131194865Y-136510965D01*
X131102303Y-136649494D01*
X131069799Y-136812900D01*
X131069800Y-136812905D01*
X131069800Y-140958595D01*
X131069799Y-140958600D01*
X131102303Y-141122006D01*
X131194865Y-141260535D01*
X131967540Y-142033210D01*
X131877000Y-142123750D01*
X131877000Y-142873000D01*
X131897000Y-142873000D01*
X131897000Y-143127000D01*
X131877000Y-143127000D01*
X131877000Y-143876250D01*
X132035750Y-144035000D01*
X132676309Y-144035000D01*
X132909698Y-143938327D01*
X133088327Y-143759699D01*
X133185000Y-143526310D01*
X133185000Y-143285750D01*
X133026252Y-143127002D01*
X133061333Y-143127002D01*
X134151115Y-144216784D01*
X134151112Y-144220406D01*
X134228135Y-144406817D01*
X134370632Y-144549563D01*
X134556909Y-144626912D01*
X134758606Y-144627088D01*
X134945017Y-144550065D01*
X135087763Y-144407568D01*
X135165112Y-144221291D01*
X135165288Y-144019594D01*
X135088265Y-143833183D01*
X134945768Y-143690437D01*
X134759491Y-143613088D01*
X134755153Y-143613084D01*
X132648982Y-141506912D01*
X132850406Y-141507088D01*
X133036817Y-141430065D01*
X133179563Y-141287568D01*
X133256912Y-141101291D01*
X133257088Y-140899594D01*
X133180065Y-140713183D01*
X133037568Y-140570437D01*
X132961051Y-140538665D01*
X133115217Y-140474965D01*
X133257963Y-140332468D01*
X133335312Y-140146191D01*
X133335316Y-140141854D01*
X137183000Y-136294169D01*
X137183000Y-144081309D01*
X132251346Y-149012963D01*
X132253925Y-149000000D01*
X132223100Y-148845033D01*
X132714064Y-148354069D01*
X132714067Y-148354067D01*
X132871660Y-148118211D01*
X132893844Y-148006686D01*
X132927001Y-147840000D01*
X132927000Y-147839995D01*
X132927000Y-147000005D01*
X132927001Y-147000000D01*
X132871660Y-146721790D01*
X132871660Y-146721789D01*
X132725336Y-146502798D01*
X133227192Y-146000941D01*
X133467846Y-145901505D01*
X133700688Y-145669070D01*
X133826856Y-145365222D01*
X133827143Y-145036221D01*
X133701505Y-144732154D01*
X133469070Y-144499312D01*
X133165222Y-144373144D01*
X132836221Y-144372857D01*
X132532154Y-144498495D01*
X132299312Y-144730930D01*
X132198746Y-144973120D01*
X131472807Y-145699059D01*
X131232154Y-145798495D01*
X130999312Y-146030930D01*
X130873144Y-146334778D01*
X130872857Y-146663779D01*
X130998495Y-146967846D01*
X131230930Y-147200688D01*
X131473000Y-147301204D01*
X131473000Y-147538867D01*
X131179382Y-147832485D01*
X131063325Y-147809400D01*
X131016675Y-147809400D01*
X130561052Y-147900029D01*
X130174794Y-148158119D01*
X130090900Y-148283675D01*
X130090900Y-143285750D01*
X130315000Y-143285750D01*
X130315000Y-143526310D01*
X130411673Y-143759699D01*
X130590302Y-143938327D01*
X130823691Y-144035000D01*
X131464250Y-144035000D01*
X131623000Y-143876250D01*
X131623000Y-143127000D01*
X130473750Y-143127000D01*
X130315000Y-143285750D01*
X130090900Y-143285750D01*
X130090900Y-142473690D01*
X130315000Y-142473690D01*
X130315000Y-142714250D01*
X130473750Y-142873000D01*
X131623000Y-142873000D01*
X131623000Y-142123750D01*
X131464250Y-141965000D01*
X130823691Y-141965000D01*
X130590302Y-142061673D01*
X130411673Y-142240301D01*
X130315000Y-142473690D01*
X130090900Y-142473690D01*
X130090900Y-135046331D01*
X130463478Y-135295279D01*
X131000000Y-135402000D01*
X131536522Y-135295279D01*
X131991364Y-134991364D01*
X132295279Y-134536522D01*
X132402000Y-134000000D01*
X132295279Y-133463478D01*
X131991364Y-133008636D01*
X131536522Y-132704721D01*
X131000000Y-132598000D01*
X130658052Y-132666018D01*
X135127200Y-128196869D01*
X135127200Y-132578630D01*
G36*
X151324215Y-140740084D02*
X151324212Y-140743706D01*
X151401235Y-140930117D01*
X151543732Y-141072863D01*
X151730009Y-141150212D01*
X151928900Y-141150386D01*
X151928900Y-147578631D01*
X145684300Y-141334030D01*
X145684300Y-135100170D01*
X151324215Y-140740084D01*
X151324215Y-140740084D01*
G37*
X151324215Y-140740084D02*
X151324212Y-140743706D01*
X151401235Y-140930117D01*
X151543732Y-141072863D01*
X151730009Y-141150212D01*
X151928900Y-141150386D01*
X151928900Y-147578631D01*
X145684300Y-141334030D01*
X145684300Y-135100170D01*
X151324215Y-140740084D01*
G36*
X151089715Y-132282584D02*
X151089712Y-132286206D01*
X151166735Y-132472617D01*
X151309232Y-132615363D01*
X151495509Y-132692712D01*
X151697206Y-132692888D01*
X151883617Y-132615865D01*
X151928900Y-132570661D01*
X151928900Y-140136385D01*
X151928253Y-140136384D01*
X146197900Y-134406030D01*
X146197900Y-133320732D01*
X146312032Y-133435063D01*
X146498309Y-133512412D01*
X146700006Y-133512588D01*
X146886417Y-133435565D01*
X147029163Y-133293068D01*
X147106512Y-133106791D01*
X147106688Y-132905094D01*
X147029665Y-132718683D01*
X147026600Y-132715613D01*
X147026600Y-131673769D01*
X147623000Y-132270169D01*
X147623000Y-132909873D01*
X147620437Y-132912432D01*
X147543088Y-133098709D01*
X147542912Y-133300406D01*
X147619935Y-133486817D01*
X147762432Y-133629563D01*
X147948709Y-133706912D01*
X148150406Y-133707088D01*
X148336817Y-133630065D01*
X148479563Y-133487568D01*
X148556912Y-133301291D01*
X148557088Y-133099594D01*
X148480065Y-132913183D01*
X148477000Y-132910113D01*
X148477000Y-132333269D01*
X149026000Y-132882269D01*
X149026000Y-132915573D01*
X149023437Y-132918132D01*
X148946088Y-133104409D01*
X148945912Y-133306106D01*
X149022935Y-133492517D01*
X149165432Y-133635263D01*
X149351709Y-133712612D01*
X149553406Y-133712788D01*
X149739817Y-133635765D01*
X149882563Y-133493268D01*
X149959912Y-133306991D01*
X149960088Y-133105294D01*
X149883065Y-132918883D01*
X149880000Y-132915813D01*
X149880000Y-132705400D01*
X149847497Y-132541994D01*
X149754935Y-132403465D01*
X149754932Y-132403463D01*
X147456185Y-130104715D01*
X147456188Y-130101094D01*
X147379165Y-129914683D01*
X147236668Y-129771937D01*
X147050391Y-129694588D01*
X146848694Y-129694412D01*
X146662283Y-129771435D01*
X146519537Y-129913932D01*
X146506323Y-129945754D01*
X142008400Y-125447830D01*
X142008400Y-123201270D01*
X151089715Y-132282584D01*
X151089715Y-132282584D01*
G37*
X151089715Y-132282584D02*
X151089712Y-132286206D01*
X151166735Y-132472617D01*
X151309232Y-132615363D01*
X151495509Y-132692712D01*
X151697206Y-132692888D01*
X151883617Y-132615865D01*
X151928900Y-132570661D01*
X151928900Y-140136385D01*
X151928253Y-140136384D01*
X146197900Y-134406030D01*
X146197900Y-133320732D01*
X146312032Y-133435063D01*
X146498309Y-133512412D01*
X146700006Y-133512588D01*
X146886417Y-133435565D01*
X147029163Y-133293068D01*
X147106512Y-133106791D01*
X147106688Y-132905094D01*
X147029665Y-132718683D01*
X147026600Y-132715613D01*
X147026600Y-131673769D01*
X147623000Y-132270169D01*
X147623000Y-132909873D01*
X147620437Y-132912432D01*
X147543088Y-133098709D01*
X147542912Y-133300406D01*
X147619935Y-133486817D01*
X147762432Y-133629563D01*
X147948709Y-133706912D01*
X148150406Y-133707088D01*
X148336817Y-133630065D01*
X148479563Y-133487568D01*
X148556912Y-133301291D01*
X148557088Y-133099594D01*
X148480065Y-132913183D01*
X148477000Y-132910113D01*
X148477000Y-132333269D01*
X149026000Y-132882269D01*
X149026000Y-132915573D01*
X149023437Y-132918132D01*
X148946088Y-133104409D01*
X148945912Y-133306106D01*
X149022935Y-133492517D01*
X149165432Y-133635263D01*
X149351709Y-133712612D01*
X149553406Y-133712788D01*
X149739817Y-133635765D01*
X149882563Y-133493268D01*
X149959912Y-133306991D01*
X149960088Y-133105294D01*
X149883065Y-132918883D01*
X149880000Y-132915813D01*
X149880000Y-132705400D01*
X149847497Y-132541994D01*
X149754935Y-132403465D01*
X149754932Y-132403463D01*
X147456185Y-130104715D01*
X147456188Y-130101094D01*
X147379165Y-129914683D01*
X147236668Y-129771937D01*
X147050391Y-129694588D01*
X146848694Y-129694412D01*
X146662283Y-129771435D01*
X146519537Y-129913932D01*
X146506323Y-129945754D01*
X142008400Y-125447830D01*
X142008400Y-123201270D01*
X151089715Y-132282584D01*
G36*
X136457900Y-135811531D02*
X132731615Y-139537815D01*
X132727994Y-139537812D01*
X132541583Y-139614835D01*
X132427000Y-139729218D01*
X132427000Y-138729170D01*
X136457900Y-134698270D01*
X136457900Y-135811531D01*
X136457900Y-135811531D01*
G37*
X136457900Y-135811531D02*
X132731615Y-139537815D01*
X132727994Y-139537812D01*
X132541583Y-139614835D01*
X132427000Y-139729218D01*
X132427000Y-138729170D01*
X136457900Y-134698270D01*
X136457900Y-135811531D01*
G36*
X135648288Y-133537509D02*
X135841913Y-133617909D01*
X136027900Y-133618071D01*
X136027900Y-133920530D01*
X131923800Y-138024630D01*
X131923800Y-136989770D01*
X135512293Y-133401277D01*
X135648288Y-133537509D01*
X135648288Y-133537509D01*
G37*
X135648288Y-133537509D02*
X135841913Y-133617909D01*
X136027900Y-133618071D01*
X136027900Y-133920530D01*
X131923800Y-138024630D01*
X131923800Y-136989770D01*
X135512293Y-133401277D01*
X135648288Y-133537509D01*
G36*
X133236800Y-127408591D02*
X133236800Y-127490553D01*
X133186900Y-127610724D01*
X133186700Y-127840269D01*
X133274358Y-128052417D01*
X133436529Y-128214871D01*
X133648524Y-128302900D01*
X133813287Y-128303044D01*
X129402000Y-132714330D01*
X129402000Y-123573790D01*
X133236800Y-127408591D01*
X133236800Y-127408591D01*
G37*
X133236800Y-127408591D02*
X133236800Y-127490553D01*
X133186900Y-127610724D01*
X133186700Y-127840269D01*
X133274358Y-128052417D01*
X133436529Y-128214871D01*
X133648524Y-128302900D01*
X133813287Y-128303044D01*
X129402000Y-132714330D01*
X129402000Y-123573790D01*
X133236800Y-127408591D01*
G36*
X151301963Y-126946332D02*
X151301965Y-126946335D01*
X151431128Y-127032639D01*
X151440494Y-127038897D01*
X151603900Y-127071401D01*
X151603905Y-127071400D01*
X151911773Y-127071400D01*
X151914332Y-127073963D01*
X152100609Y-127151312D01*
X152302306Y-127151488D01*
X152488717Y-127074465D01*
X152604758Y-126958627D01*
X152742915Y-127096784D01*
X152742912Y-127100406D01*
X152819935Y-127286817D01*
X152962432Y-127429563D01*
X153148709Y-127506912D01*
X153153046Y-127506916D01*
X153492915Y-127846784D01*
X153492912Y-127850406D01*
X153569935Y-128036817D01*
X153712432Y-128179563D01*
X153898709Y-128256912D01*
X154069506Y-128257061D01*
X152141833Y-130184733D01*
X151984240Y-130420589D01*
X151984240Y-130420590D01*
X151928899Y-130698800D01*
X151928900Y-130698805D01*
X151928900Y-131800847D01*
X151884368Y-131756237D01*
X151698091Y-131678888D01*
X151693753Y-131678884D01*
X142442900Y-122428030D01*
X142442900Y-118087270D01*
X151301963Y-126946332D01*
X151301963Y-126946332D01*
G37*
X151301963Y-126946332D02*
X151301965Y-126946335D01*
X151431128Y-127032639D01*
X151440494Y-127038897D01*
X151603900Y-127071401D01*
X151603905Y-127071400D01*
X151911773Y-127071400D01*
X151914332Y-127073963D01*
X152100609Y-127151312D01*
X152302306Y-127151488D01*
X152488717Y-127074465D01*
X152604758Y-126958627D01*
X152742915Y-127096784D01*
X152742912Y-127100406D01*
X152819935Y-127286817D01*
X152962432Y-127429563D01*
X153148709Y-127506912D01*
X153153046Y-127506916D01*
X153492915Y-127846784D01*
X153492912Y-127850406D01*
X153569935Y-128036817D01*
X153712432Y-128179563D01*
X153898709Y-128256912D01*
X154069506Y-128257061D01*
X152141833Y-130184733D01*
X151984240Y-130420589D01*
X151984240Y-130420590D01*
X151928899Y-130698800D01*
X151928900Y-130698805D01*
X151928900Y-131800847D01*
X151884368Y-131756237D01*
X151698091Y-131678888D01*
X151693753Y-131678884D01*
X142442900Y-122428030D01*
X142442900Y-118087270D01*
X151301963Y-126946332D01*
G36*
X152815000Y-124473690D02*
X152815000Y-124714250D01*
X152973750Y-124873000D01*
X154123000Y-124873000D01*
X154123000Y-124853000D01*
X154377000Y-124853000D01*
X154377000Y-124873000D01*
X154397000Y-124873000D01*
X154397000Y-125127000D01*
X154377000Y-125127000D01*
X154377000Y-125876250D01*
X154535750Y-126035000D01*
X154923400Y-126035000D01*
X154923400Y-127403167D01*
X154506940Y-127819627D01*
X154507088Y-127649594D01*
X154430065Y-127463183D01*
X154287568Y-127320437D01*
X154101291Y-127243088D01*
X154096953Y-127243084D01*
X153757085Y-126903215D01*
X153757088Y-126899594D01*
X153680065Y-126713183D01*
X153537568Y-126570437D01*
X153351291Y-126493088D01*
X153346953Y-126493084D01*
X152139620Y-125285750D01*
X152815000Y-125285750D01*
X152815000Y-125526310D01*
X152911673Y-125759699D01*
X153090302Y-125938327D01*
X153323691Y-126035000D01*
X153964250Y-126035000D01*
X154123000Y-125876250D01*
X154123000Y-125127000D01*
X152973750Y-125127000D01*
X152815000Y-125285750D01*
X152139620Y-125285750D01*
X151296870Y-124443000D01*
X152827712Y-124443000D01*
X152815000Y-124473690D01*
X152815000Y-124473690D01*
G37*
X152815000Y-124473690D02*
X152815000Y-124714250D01*
X152973750Y-124873000D01*
X154123000Y-124873000D01*
X154123000Y-124853000D01*
X154377000Y-124853000D01*
X154377000Y-124873000D01*
X154397000Y-124873000D01*
X154397000Y-125127000D01*
X154377000Y-125127000D01*
X154377000Y-125876250D01*
X154535750Y-126035000D01*
X154923400Y-126035000D01*
X154923400Y-127403167D01*
X154506940Y-127819627D01*
X154507088Y-127649594D01*
X154430065Y-127463183D01*
X154287568Y-127320437D01*
X154101291Y-127243088D01*
X154096953Y-127243084D01*
X153757085Y-126903215D01*
X153757088Y-126899594D01*
X153680065Y-126713183D01*
X153537568Y-126570437D01*
X153351291Y-126493088D01*
X153346953Y-126493084D01*
X152139620Y-125285750D01*
X152815000Y-125285750D01*
X152815000Y-125526310D01*
X152911673Y-125759699D01*
X153090302Y-125938327D01*
X153323691Y-126035000D01*
X153964250Y-126035000D01*
X154123000Y-125876250D01*
X154123000Y-125127000D01*
X152973750Y-125127000D01*
X152815000Y-125285750D01*
X152139620Y-125285750D01*
X151296870Y-124443000D01*
X152827712Y-124443000D01*
X152815000Y-124473690D01*
G36*
X134561200Y-127555131D02*
X134340757Y-127775574D01*
X134340900Y-127611731D01*
X134290800Y-127490480D01*
X134290800Y-127190300D01*
X134250685Y-126988626D01*
X134136446Y-126817655D01*
X129738390Y-122419600D01*
X134094295Y-122419600D01*
X134094300Y-122419601D01*
X134257706Y-122387097D01*
X134396235Y-122294535D01*
X134561200Y-122129570D01*
X134561200Y-127555131D01*
X134561200Y-127555131D01*
G37*
X134561200Y-127555131D02*
X134340757Y-127775574D01*
X134340900Y-127611731D01*
X134290800Y-127490480D01*
X134290800Y-127190300D01*
X134250685Y-126988626D01*
X134136446Y-126817655D01*
X129738390Y-122419600D01*
X134094295Y-122419600D01*
X134094300Y-122419601D01*
X134257706Y-122387097D01*
X134396235Y-122294535D01*
X134561200Y-122129570D01*
X134561200Y-127555131D01*
G36*
X149172815Y-121927184D02*
X149311344Y-122019747D01*
X149474750Y-122052250D01*
X149477264Y-122051750D01*
X149798588Y-122051750D01*
X150392916Y-122646078D01*
X150392912Y-122650406D01*
X150469935Y-122836817D01*
X150612432Y-122979563D01*
X150730696Y-123028671D01*
X150548994Y-123028512D01*
X150362583Y-123105535D01*
X150219837Y-123248032D01*
X150170476Y-123366907D01*
X146212405Y-119408836D01*
X146321263Y-119300168D01*
X146387143Y-119141512D01*
X149172815Y-121927184D01*
X149172815Y-121927184D01*
G37*
X149172815Y-121927184D02*
X149311344Y-122019747D01*
X149474750Y-122052250D01*
X149477264Y-122051750D01*
X149798588Y-122051750D01*
X150392916Y-122646078D01*
X150392912Y-122650406D01*
X150469935Y-122836817D01*
X150612432Y-122979563D01*
X150730696Y-123028671D01*
X150548994Y-123028512D01*
X150362583Y-123105535D01*
X150219837Y-123248032D01*
X150170476Y-123366907D01*
X146212405Y-119408836D01*
X146321263Y-119300168D01*
X146387143Y-119141512D01*
X149172815Y-121927184D01*
G36*
X153836704Y-118544377D02*
X153746075Y-119000000D01*
X153776900Y-119154967D01*
X153235933Y-119695933D01*
X153078340Y-119931789D01*
X153073611Y-119955565D01*
X153022999Y-120210000D01*
X153023000Y-120210005D01*
X153023000Y-120999995D01*
X153022999Y-121000000D01*
X153049130Y-121131365D01*
X153078340Y-121278211D01*
X153195865Y-121454100D01*
X153224664Y-121497202D01*
X152772807Y-121949059D01*
X152532154Y-122048495D01*
X152299312Y-122280930D01*
X152173144Y-122584778D01*
X152172857Y-122913779D01*
X152253562Y-123109100D01*
X150940026Y-123109100D01*
X150936968Y-123106037D01*
X150818704Y-123056929D01*
X151000406Y-123057088D01*
X151186817Y-122980065D01*
X151329563Y-122837568D01*
X151406912Y-122651291D01*
X151407088Y-122449594D01*
X151330065Y-122263183D01*
X151187568Y-122120437D01*
X151001291Y-122043088D01*
X150996246Y-122043084D01*
X150276831Y-121323669D01*
X150138465Y-121231215D01*
X149975250Y-121198750D01*
X149652119Y-121198750D01*
X147398269Y-118944900D01*
X150787395Y-118944900D01*
X150787400Y-118944901D01*
X150950806Y-118912397D01*
X151089335Y-118819835D01*
X151668469Y-118240700D01*
X154039615Y-118240700D01*
X153836704Y-118544377D01*
X153836704Y-118544377D01*
G37*
X153836704Y-118544377D02*
X153746075Y-119000000D01*
X153776900Y-119154967D01*
X153235933Y-119695933D01*
X153078340Y-119931789D01*
X153073611Y-119955565D01*
X153022999Y-120210000D01*
X153023000Y-120210005D01*
X153023000Y-120999995D01*
X153022999Y-121000000D01*
X153049130Y-121131365D01*
X153078340Y-121278211D01*
X153195865Y-121454100D01*
X153224664Y-121497202D01*
X152772807Y-121949059D01*
X152532154Y-122048495D01*
X152299312Y-122280930D01*
X152173144Y-122584778D01*
X152172857Y-122913779D01*
X152253562Y-123109100D01*
X150940026Y-123109100D01*
X150936968Y-123106037D01*
X150818704Y-123056929D01*
X151000406Y-123057088D01*
X151186817Y-122980065D01*
X151329563Y-122837568D01*
X151406912Y-122651291D01*
X151407088Y-122449594D01*
X151330065Y-122263183D01*
X151187568Y-122120437D01*
X151001291Y-122043088D01*
X150996246Y-122043084D01*
X150276831Y-121323669D01*
X150138465Y-121231215D01*
X149975250Y-121198750D01*
X149652119Y-121198750D01*
X147398269Y-118944900D01*
X150787395Y-118944900D01*
X150787400Y-118944901D01*
X150950806Y-118912397D01*
X151089335Y-118819835D01*
X151668469Y-118240700D01*
X154039615Y-118240700D01*
X153836704Y-118544377D01*
G36*
X153175601Y-98433929D02*
X161802057Y-104197943D01*
X167566071Y-112824399D01*
X169510161Y-122598000D01*
X165750000Y-122598000D01*
X165711168Y-122605724D01*
X165671575Y-122605724D01*
X165480232Y-122643784D01*
X165480230Y-122643784D01*
X165360180Y-122693511D01*
X165335322Y-122703808D01*
X165335317Y-122703810D01*
X165173106Y-122812197D01*
X165117652Y-122867652D01*
X165112304Y-122873000D01*
X164887696Y-122873000D01*
X164882348Y-122867652D01*
X164826894Y-122812197D01*
X164664683Y-122703810D01*
X164664682Y-122703809D01*
X164572797Y-122665749D01*
X164519770Y-122643784D01*
X164519768Y-122643784D01*
X164328426Y-122605724D01*
X164288832Y-122605724D01*
X164250000Y-122598000D01*
X157577034Y-122598000D01*
X158348334Y-121826700D01*
X158669197Y-121826700D01*
X158909678Y-121926556D01*
X159238679Y-121926843D01*
X159542746Y-121801205D01*
X159775588Y-121568770D01*
X159901756Y-121264922D01*
X159902043Y-120935921D01*
X159805223Y-120701600D01*
X163867881Y-120701600D01*
X163870400Y-120702101D01*
X164033806Y-120669597D01*
X164172335Y-120577035D01*
X165067132Y-119682237D01*
X165067135Y-119682235D01*
X165159697Y-119543706D01*
X165192200Y-119380300D01*
X165192200Y-118437257D01*
X165289584Y-118397019D01*
X165550581Y-118136477D01*
X165692006Y-117795889D01*
X165692328Y-117427105D01*
X165551498Y-117086271D01*
X165290956Y-116825274D01*
X164950368Y-116683849D01*
X164581584Y-116683527D01*
X164448267Y-116738613D01*
X164550581Y-116636477D01*
X164692006Y-116295889D01*
X164692328Y-115927105D01*
X164551498Y-115586271D01*
X164292200Y-115326520D01*
X164292200Y-115252100D01*
X164257808Y-115079200D01*
X164252085Y-115050425D01*
X164137845Y-114879455D01*
X149133845Y-99875455D01*
X148962875Y-99761215D01*
X148761200Y-99721100D01*
X147965616Y-99721100D01*
X148021600Y-99586276D01*
X148021800Y-99356731D01*
X147934142Y-99144583D01*
X147771971Y-98982129D01*
X147559976Y-98894100D01*
X147330431Y-98893900D01*
X147209180Y-98944000D01*
X143066679Y-98944000D01*
X143056342Y-98918983D01*
X142894171Y-98756529D01*
X142682176Y-98668500D01*
X142452631Y-98668300D01*
X142240483Y-98755958D01*
X142078029Y-98918129D01*
X141990000Y-99130124D01*
X141989850Y-99302759D01*
X139569610Y-101723000D01*
X139527574Y-101723000D01*
X139647372Y-101434495D01*
X139647694Y-101065711D01*
X139506864Y-100724877D01*
X139246322Y-100463880D01*
X138905734Y-100322455D01*
X138536950Y-100322133D01*
X138196116Y-100462963D01*
X137935119Y-100723505D01*
X137793694Y-101064093D01*
X137793372Y-101432877D01*
X137848458Y-101566194D01*
X137746322Y-101463880D01*
X137405734Y-101322455D01*
X137036950Y-101322133D01*
X136696116Y-101462963D01*
X136435625Y-101723000D01*
X134677600Y-101723000D01*
X134475925Y-101763115D01*
X134304955Y-101877355D01*
X119829755Y-116352555D01*
X119715515Y-116523525D01*
X119677449Y-116714900D01*
X119675400Y-116725200D01*
X119675400Y-118060000D01*
X119715515Y-118261675D01*
X119829755Y-118432645D01*
X123995109Y-122598000D01*
X121750000Y-122598000D01*
X121711168Y-122605724D01*
X121671575Y-122605724D01*
X121480232Y-122643784D01*
X121480230Y-122643784D01*
X121360180Y-122693511D01*
X121335322Y-122703808D01*
X121335317Y-122703810D01*
X121173106Y-122812197D01*
X121117652Y-122867652D01*
X121112304Y-122873000D01*
X120887696Y-122873000D01*
X120882348Y-122867652D01*
X120826894Y-122812197D01*
X120664683Y-122703810D01*
X120664682Y-122703809D01*
X120572797Y-122665749D01*
X120519770Y-122643784D01*
X120519768Y-122643784D01*
X120328426Y-122605724D01*
X120288832Y-122605724D01*
X120250000Y-122598000D01*
X116489839Y-122598000D01*
X118433929Y-112824399D01*
X124197943Y-104197943D01*
X132824399Y-98433929D01*
X143000000Y-96409876D01*
X153175601Y-98433929D01*
X153175601Y-98433929D01*
G37*
X153175601Y-98433929D02*
X161802057Y-104197943D01*
X167566071Y-112824399D01*
X169510161Y-122598000D01*
X165750000Y-122598000D01*
X165711168Y-122605724D01*
X165671575Y-122605724D01*
X165480232Y-122643784D01*
X165480230Y-122643784D01*
X165360180Y-122693511D01*
X165335322Y-122703808D01*
X165335317Y-122703810D01*
X165173106Y-122812197D01*
X165117652Y-122867652D01*
X165112304Y-122873000D01*
X164887696Y-122873000D01*
X164882348Y-122867652D01*
X164826894Y-122812197D01*
X164664683Y-122703810D01*
X164664682Y-122703809D01*
X164572797Y-122665749D01*
X164519770Y-122643784D01*
X164519768Y-122643784D01*
X164328426Y-122605724D01*
X164288832Y-122605724D01*
X164250000Y-122598000D01*
X157577034Y-122598000D01*
X158348334Y-121826700D01*
X158669197Y-121826700D01*
X158909678Y-121926556D01*
X159238679Y-121926843D01*
X159542746Y-121801205D01*
X159775588Y-121568770D01*
X159901756Y-121264922D01*
X159902043Y-120935921D01*
X159805223Y-120701600D01*
X163867881Y-120701600D01*
X163870400Y-120702101D01*
X164033806Y-120669597D01*
X164172335Y-120577035D01*
X165067132Y-119682237D01*
X165067135Y-119682235D01*
X165159697Y-119543706D01*
X165192200Y-119380300D01*
X165192200Y-118437257D01*
X165289584Y-118397019D01*
X165550581Y-118136477D01*
X165692006Y-117795889D01*
X165692328Y-117427105D01*
X165551498Y-117086271D01*
X165290956Y-116825274D01*
X164950368Y-116683849D01*
X164581584Y-116683527D01*
X164448267Y-116738613D01*
X164550581Y-116636477D01*
X164692006Y-116295889D01*
X164692328Y-115927105D01*
X164551498Y-115586271D01*
X164292200Y-115326520D01*
X164292200Y-115252100D01*
X164257808Y-115079200D01*
X164252085Y-115050425D01*
X164137845Y-114879455D01*
X149133845Y-99875455D01*
X148962875Y-99761215D01*
X148761200Y-99721100D01*
X147965616Y-99721100D01*
X148021600Y-99586276D01*
X148021800Y-99356731D01*
X147934142Y-99144583D01*
X147771971Y-98982129D01*
X147559976Y-98894100D01*
X147330431Y-98893900D01*
X147209180Y-98944000D01*
X143066679Y-98944000D01*
X143056342Y-98918983D01*
X142894171Y-98756529D01*
X142682176Y-98668500D01*
X142452631Y-98668300D01*
X142240483Y-98755958D01*
X142078029Y-98918129D01*
X141990000Y-99130124D01*
X141989850Y-99302759D01*
X139569610Y-101723000D01*
X139527574Y-101723000D01*
X139647372Y-101434495D01*
X139647694Y-101065711D01*
X139506864Y-100724877D01*
X139246322Y-100463880D01*
X138905734Y-100322455D01*
X138536950Y-100322133D01*
X138196116Y-100462963D01*
X137935119Y-100723505D01*
X137793694Y-101064093D01*
X137793372Y-101432877D01*
X137848458Y-101566194D01*
X137746322Y-101463880D01*
X137405734Y-101322455D01*
X137036950Y-101322133D01*
X136696116Y-101462963D01*
X136435625Y-101723000D01*
X134677600Y-101723000D01*
X134475925Y-101763115D01*
X134304955Y-101877355D01*
X119829755Y-116352555D01*
X119715515Y-116523525D01*
X119677449Y-116714900D01*
X119675400Y-116725200D01*
X119675400Y-118060000D01*
X119715515Y-118261675D01*
X119829755Y-118432645D01*
X123995109Y-122598000D01*
X121750000Y-122598000D01*
X121711168Y-122605724D01*
X121671575Y-122605724D01*
X121480232Y-122643784D01*
X121480230Y-122643784D01*
X121360180Y-122693511D01*
X121335322Y-122703808D01*
X121335317Y-122703810D01*
X121173106Y-122812197D01*
X121117652Y-122867652D01*
X121112304Y-122873000D01*
X120887696Y-122873000D01*
X120882348Y-122867652D01*
X120826894Y-122812197D01*
X120664683Y-122703810D01*
X120664682Y-122703809D01*
X120572797Y-122665749D01*
X120519770Y-122643784D01*
X120519768Y-122643784D01*
X120328426Y-122605724D01*
X120288832Y-122605724D01*
X120250000Y-122598000D01*
X116489839Y-122598000D01*
X118433929Y-112824399D01*
X124197943Y-104197943D01*
X132824399Y-98433929D01*
X143000000Y-96409876D01*
X153175601Y-98433929D01*
G36*
X123552063Y-120588632D02*
X123552065Y-120588635D01*
X123678112Y-120672857D01*
X123690594Y-120681197D01*
X123854000Y-120713700D01*
X130308873Y-120713700D01*
X130311432Y-120716263D01*
X130497709Y-120793612D01*
X130699406Y-120793788D01*
X130885817Y-120716765D01*
X131026579Y-120576248D01*
X132015931Y-121565600D01*
X126093627Y-121565600D01*
X126091068Y-121563037D01*
X125904791Y-121485688D01*
X125703094Y-121485512D01*
X125516683Y-121562535D01*
X125373937Y-121705032D01*
X125296588Y-121891309D01*
X125296430Y-122072500D01*
X124960191Y-122072500D01*
X121423456Y-118535766D01*
X121477051Y-118513621D01*
X123552063Y-120588632D01*
X123552063Y-120588632D01*
G37*
X123552063Y-120588632D02*
X123552065Y-120588635D01*
X123678112Y-120672857D01*
X123690594Y-120681197D01*
X123854000Y-120713700D01*
X130308873Y-120713700D01*
X130311432Y-120716263D01*
X130497709Y-120793612D01*
X130699406Y-120793788D01*
X130885817Y-120716765D01*
X131026579Y-120576248D01*
X132015931Y-121565600D01*
X126093627Y-121565600D01*
X126091068Y-121563037D01*
X125904791Y-121485688D01*
X125703094Y-121485512D01*
X125516683Y-121562535D01*
X125373937Y-121705032D01*
X125296588Y-121891309D01*
X125296430Y-122072500D01*
X124960191Y-122072500D01*
X121423456Y-118535766D01*
X121477051Y-118513621D01*
X123552063Y-120588632D01*
G36*
X142492912Y-105664706D02*
X142569935Y-105851117D01*
X142712432Y-105993863D01*
X142898709Y-106071212D01*
X143100406Y-106071388D01*
X143286817Y-105994365D01*
X143289887Y-105991300D01*
X143663330Y-105991300D01*
X145069631Y-107397600D01*
X142302500Y-107397600D01*
X142139094Y-107430103D01*
X142000565Y-107522665D01*
X142000563Y-107522668D01*
X134686265Y-114836965D01*
X134593703Y-114975494D01*
X134561199Y-115138900D01*
X134561200Y-115138905D01*
X134561200Y-121110079D01*
X134369494Y-121109912D01*
X134183083Y-121186935D01*
X134040337Y-121329432D01*
X133962988Y-121515709D01*
X133962984Y-121520046D01*
X133917430Y-121565600D01*
X133050734Y-121565600D01*
X133050888Y-121389194D01*
X132973865Y-121202783D01*
X132831368Y-121060037D01*
X132645091Y-120982688D01*
X132640753Y-120982684D01*
X129644135Y-117986065D01*
X129505606Y-117893503D01*
X129342200Y-117860999D01*
X129342195Y-117861000D01*
X124573046Y-117861000D01*
X124692006Y-117574513D01*
X124692328Y-117205729D01*
X124551498Y-116864895D01*
X124448234Y-116761451D01*
X124579966Y-116816151D01*
X124948750Y-116816473D01*
X125289584Y-116675643D01*
X125550581Y-116415101D01*
X125692006Y-116074513D01*
X125692326Y-115707464D01*
X127403090Y-113996700D01*
X131664630Y-113996700D01*
X131402030Y-114259300D01*
X127790127Y-114259300D01*
X127787568Y-114256737D01*
X127601291Y-114179388D01*
X127399594Y-114179212D01*
X127213183Y-114256235D01*
X127070437Y-114398732D01*
X126993088Y-114585009D01*
X126992912Y-114786706D01*
X127069935Y-114973117D01*
X127212432Y-115115863D01*
X127398709Y-115193212D01*
X127600406Y-115193388D01*
X127786817Y-115116365D01*
X127789887Y-115113300D01*
X129938702Y-115113300D01*
X129704721Y-115463478D01*
X129598000Y-116000000D01*
X129704721Y-116536522D01*
X130008636Y-116991364D01*
X130463478Y-117295279D01*
X131000000Y-117402000D01*
X131536522Y-117295279D01*
X131991364Y-116991364D01*
X132295279Y-116536522D01*
X132402000Y-116000000D01*
X132295279Y-115463478D01*
X131991364Y-115008636D01*
X131912877Y-114956193D01*
X141358070Y-105511000D01*
X142493046Y-105511000D01*
X142492912Y-105664706D01*
X142492912Y-105664706D01*
G37*
X142492912Y-105664706D02*
X142569935Y-105851117D01*
X142712432Y-105993863D01*
X142898709Y-106071212D01*
X143100406Y-106071388D01*
X143286817Y-105994365D01*
X143289887Y-105991300D01*
X143663330Y-105991300D01*
X145069631Y-107397600D01*
X142302500Y-107397600D01*
X142139094Y-107430103D01*
X142000565Y-107522665D01*
X142000563Y-107522668D01*
X134686265Y-114836965D01*
X134593703Y-114975494D01*
X134561199Y-115138900D01*
X134561200Y-115138905D01*
X134561200Y-121110079D01*
X134369494Y-121109912D01*
X134183083Y-121186935D01*
X134040337Y-121329432D01*
X133962988Y-121515709D01*
X133962984Y-121520046D01*
X133917430Y-121565600D01*
X133050734Y-121565600D01*
X133050888Y-121389194D01*
X132973865Y-121202783D01*
X132831368Y-121060037D01*
X132645091Y-120982688D01*
X132640753Y-120982684D01*
X129644135Y-117986065D01*
X129505606Y-117893503D01*
X129342200Y-117860999D01*
X129342195Y-117861000D01*
X124573046Y-117861000D01*
X124692006Y-117574513D01*
X124692328Y-117205729D01*
X124551498Y-116864895D01*
X124448234Y-116761451D01*
X124579966Y-116816151D01*
X124948750Y-116816473D01*
X125289584Y-116675643D01*
X125550581Y-116415101D01*
X125692006Y-116074513D01*
X125692326Y-115707464D01*
X127403090Y-113996700D01*
X131664630Y-113996700D01*
X131402030Y-114259300D01*
X127790127Y-114259300D01*
X127787568Y-114256737D01*
X127601291Y-114179388D01*
X127399594Y-114179212D01*
X127213183Y-114256235D01*
X127070437Y-114398732D01*
X126993088Y-114585009D01*
X126992912Y-114786706D01*
X127069935Y-114973117D01*
X127212432Y-115115863D01*
X127398709Y-115193212D01*
X127600406Y-115193388D01*
X127786817Y-115116365D01*
X127789887Y-115113300D01*
X129938702Y-115113300D01*
X129704721Y-115463478D01*
X129598000Y-116000000D01*
X129704721Y-116536522D01*
X130008636Y-116991364D01*
X130463478Y-117295279D01*
X131000000Y-117402000D01*
X131536522Y-117295279D01*
X131991364Y-116991364D01*
X132295279Y-116536522D01*
X132402000Y-116000000D01*
X132295279Y-115463478D01*
X131991364Y-115008636D01*
X131912877Y-114956193D01*
X141358070Y-105511000D01*
X142493046Y-105511000D01*
X142492912Y-105664706D01*
G36*
X136695465Y-115604665D02*
X136602903Y-115743194D01*
X136570399Y-115906600D01*
X136570400Y-115906605D01*
X136570400Y-118711895D01*
X136570399Y-118711900D01*
X136602903Y-118875306D01*
X136695465Y-119013835D01*
X137426458Y-119744827D01*
X137302437Y-119868632D01*
X137225088Y-120054909D01*
X137225084Y-120059247D01*
X136481500Y-120802830D01*
X136481500Y-115595380D01*
X136500951Y-115575929D01*
X136548699Y-115556200D01*
X136743930Y-115556200D01*
X136695465Y-115604665D01*
X136695465Y-115604665D01*
G37*
X136695465Y-115604665D02*
X136602903Y-115743194D01*
X136570399Y-115906600D01*
X136570400Y-115906605D01*
X136570400Y-118711895D01*
X136570399Y-118711900D01*
X136602903Y-118875306D01*
X136695465Y-119013835D01*
X137426458Y-119744827D01*
X137302437Y-119868632D01*
X137225088Y-120054909D01*
X137225084Y-120059247D01*
X136481500Y-120802830D01*
X136481500Y-115595380D01*
X136500951Y-115575929D01*
X136548699Y-115556200D01*
X136743930Y-115556200D01*
X136695465Y-115604665D01*
G36*
X130309572Y-119859242D02*
X130309113Y-119859700D01*
X124030869Y-119859700D01*
X122888348Y-118717179D01*
X122890531Y-118715000D01*
X129165330Y-118715000D01*
X130309572Y-119859242D01*
X130309572Y-119859242D01*
G37*
X130309572Y-119859242D02*
X130309113Y-119859700D01*
X124030869Y-119859700D01*
X122888348Y-118717179D01*
X122890531Y-118715000D01*
X129165330Y-118715000D01*
X130309572Y-119859242D01*
G36*
X161431463Y-119827432D02*
X161431465Y-119827435D01*
X161463141Y-119848600D01*
X158697006Y-119848600D01*
X158697006Y-118240700D01*
X159844730Y-118240700D01*
X161431463Y-119827432D01*
X161431463Y-119827432D01*
G37*
X161431463Y-119827432D02*
X161431465Y-119827435D01*
X161463141Y-119848600D01*
X158697006Y-119848600D01*
X158697006Y-118240700D01*
X159844730Y-118240700D01*
X161431463Y-119827432D01*
G36*
X161807800Y-114607870D02*
X161807800Y-115151158D01*
X161760622Y-115103898D01*
X161420034Y-114962473D01*
X161051250Y-114962151D01*
X160710416Y-115102981D01*
X160449419Y-115363523D01*
X160307994Y-115704111D01*
X160307672Y-116072895D01*
X160448502Y-116413729D01*
X160709044Y-116674726D01*
X161049632Y-116816151D01*
X161418416Y-116816473D01*
X161551733Y-116761387D01*
X161449419Y-116863523D01*
X161307994Y-117204111D01*
X161307672Y-117572895D01*
X161448502Y-117913729D01*
X161709044Y-118174726D01*
X162049632Y-118316151D01*
X162418416Y-118316473D01*
X162759250Y-118175643D01*
X163020247Y-117915101D01*
X163161672Y-117574513D01*
X163161994Y-117205729D01*
X163021164Y-116864895D01*
X162760622Y-116603898D01*
X162661800Y-116562863D01*
X162661800Y-114893990D01*
X163166394Y-115398584D01*
X162979753Y-115584899D01*
X162838328Y-115925487D01*
X162838006Y-116294271D01*
X162978836Y-116635105D01*
X163239378Y-116896102D01*
X163579966Y-117037527D01*
X163948750Y-117037849D01*
X164082067Y-116982763D01*
X163979753Y-117084899D01*
X163838328Y-117425487D01*
X163838006Y-117794271D01*
X163978836Y-118135105D01*
X164239378Y-118396102D01*
X164338200Y-118437137D01*
X164338200Y-119203431D01*
X164326427Y-119215204D01*
X164207368Y-119095937D01*
X164021091Y-119018588D01*
X163819394Y-119018412D01*
X163632983Y-119095435D01*
X163629913Y-119098500D01*
X161910269Y-119098500D01*
X160323535Y-117511765D01*
X160185006Y-117419203D01*
X160021600Y-117386699D01*
X160021595Y-117386700D01*
X158644174Y-117386700D01*
X158782688Y-117234947D01*
X158954958Y-116819026D01*
X158833817Y-116587000D01*
X157627000Y-116587000D01*
X157627000Y-116607000D01*
X157373000Y-116607000D01*
X157373000Y-116587000D01*
X157353000Y-116587000D01*
X157353000Y-116333000D01*
X157373000Y-116333000D01*
X157373000Y-116313000D01*
X157627000Y-116313000D01*
X157627000Y-116333000D01*
X158833817Y-116333000D01*
X158954958Y-116100974D01*
X158782688Y-115685053D01*
X158543875Y-115423415D01*
X159152045Y-114815245D01*
X159266285Y-114644275D01*
X159276204Y-114594406D01*
X159306400Y-114442600D01*
X159306400Y-113252300D01*
X159275520Y-113097055D01*
X159266285Y-113050625D01*
X159152045Y-112879655D01*
X150650445Y-104378055D01*
X150479475Y-104263815D01*
X150277800Y-104223700D01*
X150004280Y-104223700D01*
X149746322Y-103965292D01*
X149405734Y-103823867D01*
X149036950Y-103823545D01*
X148696116Y-103964375D01*
X148592672Y-104067639D01*
X148647372Y-103935907D01*
X148647694Y-103567123D01*
X148506864Y-103226289D01*
X148359469Y-103078636D01*
X148594266Y-103176133D01*
X148963050Y-103176455D01*
X149303884Y-103035625D01*
X149564881Y-102775083D01*
X149685216Y-102485286D01*
X161807800Y-114607870D01*
X161807800Y-114607870D01*
G37*
X161807800Y-114607870D02*
X161807800Y-115151158D01*
X161760622Y-115103898D01*
X161420034Y-114962473D01*
X161051250Y-114962151D01*
X160710416Y-115102981D01*
X160449419Y-115363523D01*
X160307994Y-115704111D01*
X160307672Y-116072895D01*
X160448502Y-116413729D01*
X160709044Y-116674726D01*
X161049632Y-116816151D01*
X161418416Y-116816473D01*
X161551733Y-116761387D01*
X161449419Y-116863523D01*
X161307994Y-117204111D01*
X161307672Y-117572895D01*
X161448502Y-117913729D01*
X161709044Y-118174726D01*
X162049632Y-118316151D01*
X162418416Y-118316473D01*
X162759250Y-118175643D01*
X163020247Y-117915101D01*
X163161672Y-117574513D01*
X163161994Y-117205729D01*
X163021164Y-116864895D01*
X162760622Y-116603898D01*
X162661800Y-116562863D01*
X162661800Y-114893990D01*
X163166394Y-115398584D01*
X162979753Y-115584899D01*
X162838328Y-115925487D01*
X162838006Y-116294271D01*
X162978836Y-116635105D01*
X163239378Y-116896102D01*
X163579966Y-117037527D01*
X163948750Y-117037849D01*
X164082067Y-116982763D01*
X163979753Y-117084899D01*
X163838328Y-117425487D01*
X163838006Y-117794271D01*
X163978836Y-118135105D01*
X164239378Y-118396102D01*
X164338200Y-118437137D01*
X164338200Y-119203431D01*
X164326427Y-119215204D01*
X164207368Y-119095937D01*
X164021091Y-119018588D01*
X163819394Y-119018412D01*
X163632983Y-119095435D01*
X163629913Y-119098500D01*
X161910269Y-119098500D01*
X160323535Y-117511765D01*
X160185006Y-117419203D01*
X160021600Y-117386699D01*
X160021595Y-117386700D01*
X158644174Y-117386700D01*
X158782688Y-117234947D01*
X158954958Y-116819026D01*
X158833817Y-116587000D01*
X157627000Y-116587000D01*
X157627000Y-116607000D01*
X157373000Y-116607000D01*
X157373000Y-116587000D01*
X157353000Y-116587000D01*
X157353000Y-116333000D01*
X157373000Y-116333000D01*
X157373000Y-116313000D01*
X157627000Y-116313000D01*
X157627000Y-116333000D01*
X158833817Y-116333000D01*
X158954958Y-116100974D01*
X158782688Y-115685053D01*
X158543875Y-115423415D01*
X159152045Y-114815245D01*
X159266285Y-114644275D01*
X159276204Y-114594406D01*
X159306400Y-114442600D01*
X159306400Y-113252300D01*
X159275520Y-113097055D01*
X159266285Y-113050625D01*
X159152045Y-112879655D01*
X150650445Y-104378055D01*
X150479475Y-104263815D01*
X150277800Y-104223700D01*
X150004280Y-104223700D01*
X149746322Y-103965292D01*
X149405734Y-103823867D01*
X149036950Y-103823545D01*
X148696116Y-103964375D01*
X148592672Y-104067639D01*
X148647372Y-103935907D01*
X148647694Y-103567123D01*
X148506864Y-103226289D01*
X148359469Y-103078636D01*
X148594266Y-103176133D01*
X148963050Y-103176455D01*
X149303884Y-103035625D01*
X149564881Y-102775083D01*
X149685216Y-102485286D01*
X161807800Y-114607870D01*
G36*
X140746599Y-110556800D02*
X140746600Y-110556805D01*
X140746600Y-118589831D01*
X140048785Y-117892015D01*
X140048788Y-117888394D01*
X139971765Y-117701983D01*
X139829268Y-117559237D01*
X139642991Y-117481888D01*
X139488400Y-117481753D01*
X139488400Y-115452922D01*
X139502817Y-115446965D01*
X139645563Y-115304468D01*
X139722912Y-115118191D01*
X139723088Y-114916494D01*
X139646065Y-114730083D01*
X139503568Y-114587337D01*
X139317291Y-114509988D01*
X139115594Y-114509812D01*
X139021596Y-114548651D01*
X139062812Y-114449391D01*
X139062988Y-114247694D01*
X138985965Y-114061283D01*
X138843468Y-113918537D01*
X138728205Y-113870675D01*
X139986651Y-112612229D01*
X140106932Y-112562530D01*
X140255309Y-112414412D01*
X140335709Y-112220787D01*
X140335892Y-112011133D01*
X140255830Y-111817368D01*
X140107712Y-111668991D01*
X139914087Y-111588591D01*
X139710057Y-111588413D01*
X140747823Y-110550646D01*
X140746599Y-110556800D01*
X140746599Y-110556800D01*
G37*
X140746599Y-110556800D02*
X140746600Y-110556805D01*
X140746600Y-118589831D01*
X140048785Y-117892015D01*
X140048788Y-117888394D01*
X139971765Y-117701983D01*
X139829268Y-117559237D01*
X139642991Y-117481888D01*
X139488400Y-117481753D01*
X139488400Y-115452922D01*
X139502817Y-115446965D01*
X139645563Y-115304468D01*
X139722912Y-115118191D01*
X139723088Y-114916494D01*
X139646065Y-114730083D01*
X139503568Y-114587337D01*
X139317291Y-114509988D01*
X139115594Y-114509812D01*
X139021596Y-114548651D01*
X139062812Y-114449391D01*
X139062988Y-114247694D01*
X138985965Y-114061283D01*
X138843468Y-113918537D01*
X138728205Y-113870675D01*
X139986651Y-112612229D01*
X140106932Y-112562530D01*
X140255309Y-112414412D01*
X140335709Y-112220787D01*
X140335892Y-112011133D01*
X140255830Y-111817368D01*
X140107712Y-111668991D01*
X139914087Y-111588591D01*
X139710057Y-111588413D01*
X140747823Y-110550646D01*
X140746599Y-110556800D01*
G36*
X156984490Y-112844459D02*
X156634794Y-113078119D01*
X156376704Y-113464377D01*
X156286075Y-113920000D01*
X156376704Y-114375623D01*
X156634794Y-114761881D01*
X156657685Y-114777176D01*
X156597555Y-114817354D01*
X155851255Y-115563655D01*
X155818055Y-115613341D01*
X155438948Y-115360029D01*
X154983325Y-115269400D01*
X154936675Y-115269400D01*
X154481052Y-115360029D01*
X154094794Y-115618119D01*
X153836704Y-116004377D01*
X153746075Y-116460000D01*
X153836704Y-116915623D01*
X154094794Y-117301881D01*
X154221734Y-117386700D01*
X151491600Y-117386700D01*
X151328194Y-117419203D01*
X151189665Y-117511765D01*
X151189663Y-117511768D01*
X150610530Y-118090900D01*
X150562836Y-118090900D01*
X150562988Y-117916694D01*
X150485965Y-117730283D01*
X150343468Y-117587537D01*
X150223322Y-117537648D01*
X153761819Y-113999151D01*
X153836704Y-114375623D01*
X154094794Y-114761881D01*
X154481052Y-115019971D01*
X154936675Y-115110600D01*
X154983325Y-115110600D01*
X155438948Y-115019971D01*
X155825206Y-114761881D01*
X156083296Y-114375623D01*
X156173925Y-113920000D01*
X156083296Y-113464377D01*
X155825206Y-113078119D01*
X155586619Y-112918700D01*
X156209873Y-112918700D01*
X156212432Y-112921263D01*
X156398709Y-112998612D01*
X156600406Y-112998788D01*
X156786817Y-112921765D01*
X156924426Y-112784396D01*
X156984490Y-112844459D01*
X156984490Y-112844459D01*
G37*
X156984490Y-112844459D02*
X156634794Y-113078119D01*
X156376704Y-113464377D01*
X156286075Y-113920000D01*
X156376704Y-114375623D01*
X156634794Y-114761881D01*
X156657685Y-114777176D01*
X156597555Y-114817354D01*
X155851255Y-115563655D01*
X155818055Y-115613341D01*
X155438948Y-115360029D01*
X154983325Y-115269400D01*
X154936675Y-115269400D01*
X154481052Y-115360029D01*
X154094794Y-115618119D01*
X153836704Y-116004377D01*
X153746075Y-116460000D01*
X153836704Y-116915623D01*
X154094794Y-117301881D01*
X154221734Y-117386700D01*
X151491600Y-117386700D01*
X151328194Y-117419203D01*
X151189665Y-117511765D01*
X151189663Y-117511768D01*
X150610530Y-118090900D01*
X150562836Y-118090900D01*
X150562988Y-117916694D01*
X150485965Y-117730283D01*
X150343468Y-117587537D01*
X150223322Y-117537648D01*
X153761819Y-113999151D01*
X153836704Y-114375623D01*
X154094794Y-114761881D01*
X154481052Y-115019971D01*
X154936675Y-115110600D01*
X154983325Y-115110600D01*
X155438948Y-115019971D01*
X155825206Y-114761881D01*
X156083296Y-114375623D01*
X156173925Y-113920000D01*
X156083296Y-113464377D01*
X155825206Y-113078119D01*
X155586619Y-112918700D01*
X156209873Y-112918700D01*
X156212432Y-112921263D01*
X156398709Y-112998612D01*
X156600406Y-112998788D01*
X156786817Y-112921765D01*
X156924426Y-112784396D01*
X156984490Y-112844459D01*
G36*
X144272500Y-113209269D02*
X144272500Y-114453395D01*
X144272499Y-114453400D01*
X144305003Y-114616806D01*
X144397565Y-114755335D01*
X147411963Y-117769732D01*
X147411965Y-117769735D01*
X147548551Y-117860999D01*
X147550494Y-117862297D01*
X147713900Y-117894800D01*
X149348855Y-117894800D01*
X149387365Y-117952435D01*
X149525830Y-118090900D01*
X147278534Y-118090900D01*
X147214565Y-117936083D01*
X147072068Y-117793337D01*
X146885791Y-117715988D01*
X146684094Y-117715812D01*
X146497683Y-117792835D01*
X146371834Y-117918464D01*
X144774500Y-116321130D01*
X144774500Y-116131700D01*
X144741997Y-115968294D01*
X144649435Y-115829765D01*
X144649432Y-115829763D01*
X143403600Y-114583930D01*
X143403600Y-112340370D01*
X144272500Y-113209269D01*
X144272500Y-113209269D01*
G37*
X144272500Y-113209269D02*
X144272500Y-114453395D01*
X144272499Y-114453400D01*
X144305003Y-114616806D01*
X144397565Y-114755335D01*
X147411963Y-117769732D01*
X147411965Y-117769735D01*
X147548551Y-117860999D01*
X147550494Y-117862297D01*
X147713900Y-117894800D01*
X149348855Y-117894800D01*
X149387365Y-117952435D01*
X149525830Y-118090900D01*
X147278534Y-118090900D01*
X147214565Y-117936083D01*
X147072068Y-117793337D01*
X146885791Y-117715988D01*
X146684094Y-117715812D01*
X146497683Y-117792835D01*
X146371834Y-117918464D01*
X144774500Y-116321130D01*
X144774500Y-116131700D01*
X144741997Y-115968294D01*
X144649435Y-115829765D01*
X144649432Y-115829763D01*
X143403600Y-114583930D01*
X143403600Y-112340370D01*
X144272500Y-113209269D01*
G36*
X155173631Y-111033600D02*
X152849300Y-111033600D01*
X152685894Y-111066103D01*
X152547365Y-111158665D01*
X152547363Y-111158668D01*
X149502715Y-114203315D01*
X149499094Y-114203312D01*
X149312683Y-114280335D01*
X149169937Y-114422832D01*
X149092588Y-114609109D01*
X149092412Y-114810806D01*
X149169435Y-114997217D01*
X149311932Y-115139963D01*
X149498209Y-115217312D01*
X149699906Y-115217488D01*
X149886317Y-115140465D01*
X150029063Y-114997968D01*
X150106412Y-114811691D01*
X150106416Y-114807354D01*
X153026169Y-111887600D01*
X155209873Y-111887600D01*
X155212432Y-111890163D01*
X155398709Y-111967512D01*
X155600406Y-111967688D01*
X155786817Y-111890665D01*
X155908863Y-111768832D01*
X156204731Y-112064700D01*
X154665400Y-112064700D01*
X154501994Y-112097203D01*
X154363465Y-112189765D01*
X149512430Y-117040800D01*
X148031364Y-117040800D01*
X148069763Y-117002468D01*
X148147112Y-116816191D01*
X148147288Y-116614494D01*
X148070265Y-116428083D01*
X148067200Y-116425013D01*
X148067200Y-113715404D01*
X148110809Y-113733512D01*
X148312506Y-113733688D01*
X148498917Y-113656665D01*
X148641663Y-113514168D01*
X148719012Y-113327891D01*
X148719188Y-113126194D01*
X148642165Y-112939783D01*
X148639100Y-112936713D01*
X148639100Y-107876925D01*
X148720709Y-107910812D01*
X148922406Y-107910988D01*
X149108817Y-107833965D01*
X149111887Y-107830900D01*
X151970930Y-107830900D01*
X155173631Y-111033600D01*
X155173631Y-111033600D01*
G37*
X155173631Y-111033600D02*
X152849300Y-111033600D01*
X152685894Y-111066103D01*
X152547365Y-111158665D01*
X152547363Y-111158668D01*
X149502715Y-114203315D01*
X149499094Y-114203312D01*
X149312683Y-114280335D01*
X149169937Y-114422832D01*
X149092588Y-114609109D01*
X149092412Y-114810806D01*
X149169435Y-114997217D01*
X149311932Y-115139963D01*
X149498209Y-115217312D01*
X149699906Y-115217488D01*
X149886317Y-115140465D01*
X150029063Y-114997968D01*
X150106412Y-114811691D01*
X150106416Y-114807354D01*
X153026169Y-111887600D01*
X155209873Y-111887600D01*
X155212432Y-111890163D01*
X155398709Y-111967512D01*
X155600406Y-111967688D01*
X155786817Y-111890665D01*
X155908863Y-111768832D01*
X156204731Y-112064700D01*
X154665400Y-112064700D01*
X154501994Y-112097203D01*
X154363465Y-112189765D01*
X149512430Y-117040800D01*
X148031364Y-117040800D01*
X148069763Y-117002468D01*
X148147112Y-116816191D01*
X148147288Y-116614494D01*
X148070265Y-116428083D01*
X148067200Y-116425013D01*
X148067200Y-113715404D01*
X148110809Y-113733512D01*
X148312506Y-113733688D01*
X148498917Y-113656665D01*
X148641663Y-113514168D01*
X148719012Y-113327891D01*
X148719188Y-113126194D01*
X148642165Y-112939783D01*
X148639100Y-112936713D01*
X148639100Y-107876925D01*
X148720709Y-107910812D01*
X148922406Y-107910988D01*
X149108817Y-107833965D01*
X149111887Y-107830900D01*
X151970930Y-107830900D01*
X155173631Y-111033600D01*
G36*
X136694744Y-103034708D02*
X137035332Y-103176133D01*
X137404116Y-103176455D01*
X137640401Y-103078824D01*
X137494053Y-103224917D01*
X137453035Y-103323700D01*
X135555400Y-103323700D01*
X135391994Y-103356203D01*
X135253465Y-103448765D01*
X123339765Y-115362465D01*
X123247203Y-115500994D01*
X123214699Y-115664400D01*
X123214700Y-115664405D01*
X123214700Y-115872031D01*
X123161302Y-115925429D01*
X123021164Y-115586271D01*
X122760622Y-115325274D01*
X122468794Y-115204096D01*
X134895890Y-102777000D01*
X136437485Y-102777000D01*
X136694744Y-103034708D01*
X136694744Y-103034708D01*
G37*
X136694744Y-103034708D02*
X137035332Y-103176133D01*
X137404116Y-103176455D01*
X137640401Y-103078824D01*
X137494053Y-103224917D01*
X137453035Y-103323700D01*
X135555400Y-103323700D01*
X135391994Y-103356203D01*
X135253465Y-103448765D01*
X123339765Y-115362465D01*
X123247203Y-115500994D01*
X123214699Y-115664400D01*
X123214700Y-115664405D01*
X123214700Y-115872031D01*
X123161302Y-115925429D01*
X123021164Y-115586271D01*
X122760622Y-115325274D01*
X122468794Y-115204096D01*
X134895890Y-102777000D01*
X136437485Y-102777000D01*
X136694744Y-103034708D01*
G36*
X135994053Y-104224917D02*
X135893307Y-104467540D01*
X135849591Y-104449388D01*
X135647894Y-104449212D01*
X135461483Y-104526235D01*
X135318737Y-104668732D01*
X135241388Y-104855009D01*
X135241384Y-104859347D01*
X134476065Y-105624665D01*
X134383503Y-105763194D01*
X134350999Y-105926600D01*
X134351000Y-105926605D01*
X134351000Y-109579573D01*
X134348437Y-109582132D01*
X134271088Y-109768409D01*
X134270912Y-109970106D01*
X134347935Y-110156517D01*
X134468209Y-110277001D01*
X131802510Y-112942700D01*
X127184800Y-112942700D01*
X126983125Y-112982815D01*
X126814445Y-113095525D01*
X135732270Y-104177700D01*
X136041352Y-104177700D01*
X135994053Y-104224917D01*
X135994053Y-104224917D01*
G37*
X135994053Y-104224917D02*
X135893307Y-104467540D01*
X135849591Y-104449388D01*
X135647894Y-104449212D01*
X135461483Y-104526235D01*
X135318737Y-104668732D01*
X135241388Y-104855009D01*
X135241384Y-104859347D01*
X134476065Y-105624665D01*
X134383503Y-105763194D01*
X134350999Y-105926600D01*
X134351000Y-105926605D01*
X134351000Y-109579573D01*
X134348437Y-109582132D01*
X134271088Y-109768409D01*
X134270912Y-109970106D01*
X134347935Y-110156517D01*
X134468209Y-110277001D01*
X131802510Y-112942700D01*
X127184800Y-112942700D01*
X126983125Y-112982815D01*
X126814445Y-113095525D01*
X135732270Y-104177700D01*
X136041352Y-104177700D01*
X135994053Y-104224917D01*
G36*
X145920800Y-111916731D02*
X145111315Y-112726215D01*
X145107694Y-112726212D01*
X145022197Y-112761538D01*
X145001435Y-112730465D01*
X145001432Y-112730463D01*
X143311385Y-111040415D01*
X143311388Y-111036794D01*
X143234365Y-110850383D01*
X143091868Y-110707637D01*
X142905591Y-110630288D01*
X142703894Y-110630112D01*
X142517483Y-110707135D01*
X142374737Y-110849632D01*
X142324638Y-110970283D01*
X142252662Y-110940396D01*
X142293963Y-110899168D01*
X142371312Y-110712891D01*
X142371488Y-110511194D01*
X142294465Y-110324783D01*
X142152100Y-110182169D01*
X143094969Y-109239300D01*
X145302095Y-109239300D01*
X145302100Y-109239301D01*
X145465506Y-109206797D01*
X145604035Y-109114235D01*
X145920800Y-108797469D01*
X145920800Y-111916731D01*
X145920800Y-111916731D01*
G37*
X145920800Y-111916731D02*
X145111315Y-112726215D01*
X145107694Y-112726212D01*
X145022197Y-112761538D01*
X145001435Y-112730465D01*
X145001432Y-112730463D01*
X143311385Y-111040415D01*
X143311388Y-111036794D01*
X143234365Y-110850383D01*
X143091868Y-110707637D01*
X142905591Y-110630288D01*
X142703894Y-110630112D01*
X142517483Y-110707135D01*
X142374737Y-110849632D01*
X142324638Y-110970283D01*
X142252662Y-110940396D01*
X142293963Y-110899168D01*
X142371312Y-110712891D01*
X142371488Y-110511194D01*
X142294465Y-110324783D01*
X142152100Y-110182169D01*
X143094969Y-109239300D01*
X145302095Y-109239300D01*
X145302100Y-109239301D01*
X145465506Y-109206797D01*
X145604035Y-109114235D01*
X145920800Y-108797469D01*
X145920800Y-111916731D01*
G36*
X135205000Y-109540210D02*
X135205000Y-106103470D01*
X135845084Y-105463385D01*
X135848706Y-105463388D01*
X136035117Y-105386365D01*
X136069711Y-105351832D01*
X136253678Y-105536120D01*
X136594266Y-105677545D01*
X136963050Y-105677867D01*
X137303884Y-105537037D01*
X137511082Y-105330200D01*
X138742100Y-105330200D01*
X138943775Y-105290085D01*
X139114745Y-105175845D01*
X139978046Y-104312545D01*
X140064506Y-104183148D01*
X140084409Y-104191412D01*
X140286106Y-104191588D01*
X140472517Y-104114565D01*
X140615263Y-103972068D01*
X140692612Y-103785791D01*
X140692616Y-103781454D01*
X142797770Y-101676300D01*
X143068910Y-101676300D01*
X135205000Y-109540210D01*
X135205000Y-109540210D01*
G37*
X135205000Y-109540210D02*
X135205000Y-106103470D01*
X135845084Y-105463385D01*
X135848706Y-105463388D01*
X136035117Y-105386365D01*
X136069711Y-105351832D01*
X136253678Y-105536120D01*
X136594266Y-105677545D01*
X136963050Y-105677867D01*
X137303884Y-105537037D01*
X137511082Y-105330200D01*
X138742100Y-105330200D01*
X138943775Y-105290085D01*
X139114745Y-105175845D01*
X139978046Y-104312545D01*
X140064506Y-104183148D01*
X140084409Y-104191412D01*
X140286106Y-104191588D01*
X140472517Y-104114565D01*
X140615263Y-103972068D01*
X140692612Y-103785791D01*
X140692616Y-103781454D01*
X142797770Y-101676300D01*
X143068910Y-101676300D01*
X135205000Y-109540210D01*
G36*
X151758710Y-106976900D02*
X149112170Y-106976900D01*
X150183785Y-105905285D01*
X150187406Y-105905288D01*
X150373817Y-105828265D01*
X150492049Y-105710239D01*
X151758710Y-106976900D01*
X151758710Y-106976900D01*
G37*
X151758710Y-106976900D02*
X149112170Y-106976900D01*
X150183785Y-105905285D01*
X150187406Y-105905288D01*
X150373817Y-105828265D01*
X150492049Y-105710239D01*
X151758710Y-106976900D01*
G36*
X148293694Y-104565505D02*
X148293372Y-104934289D01*
X148434202Y-105275123D01*
X148694744Y-105536120D01*
X149035332Y-105677545D01*
X149203638Y-105677692D01*
X148067200Y-106814130D01*
X148067200Y-104610482D01*
X148244950Y-104537037D01*
X148348394Y-104433773D01*
X148293694Y-104565505D01*
X148293694Y-104565505D01*
G37*
X148293694Y-104565505D02*
X148293372Y-104934289D01*
X148434202Y-105275123D01*
X148694744Y-105536120D01*
X149035332Y-105677545D01*
X149203638Y-105677692D01*
X148067200Y-106814130D01*
X148067200Y-104610482D01*
X148244950Y-104537037D01*
X148348394Y-104433773D01*
X148293694Y-104565505D01*
G36*
X142762632Y-103719263D02*
X142948909Y-103796612D01*
X143150606Y-103796788D01*
X143337017Y-103719765D01*
X143340087Y-103716700D01*
X144139530Y-103716700D01*
X145079831Y-104657000D01*
X141578790Y-104657000D01*
X142639687Y-103596103D01*
X142762632Y-103719263D01*
X142762632Y-103719263D01*
G37*
X142762632Y-103719263D02*
X142948909Y-103796612D01*
X143150606Y-103796788D01*
X143337017Y-103719765D01*
X143340087Y-103716700D01*
X144139530Y-103716700D01*
X145079831Y-104657000D01*
X141578790Y-104657000D01*
X142639687Y-103596103D01*
X142762632Y-103719263D01*
G36*
X147196116Y-102964375D02*
X146935119Y-103224917D01*
X146793694Y-103565505D01*
X146793372Y-103934289D01*
X146844642Y-104058372D01*
X145615370Y-102829100D01*
X147523506Y-102829100D01*
X147196116Y-102964375D01*
X147196116Y-102964375D01*
G37*
X147196116Y-102964375D02*
X146935119Y-103224917D01*
X146793694Y-103565505D01*
X146793372Y-103934289D01*
X146844642Y-104058372D01*
X145615370Y-102829100D01*
X147523506Y-102829100D01*
X147196116Y-102964375D01*
G36*
X121117652Y-124132348D02*
X121173106Y-124187803D01*
X121335317Y-124296190D01*
X121335319Y-124296191D01*
X121360180Y-124306489D01*
X121480230Y-124356216D01*
X121480232Y-124356216D01*
X121671575Y-124394276D01*
X121711168Y-124394276D01*
X121750000Y-124402000D01*
X125478512Y-124402000D01*
X125315000Y-124973000D01*
X125315000Y-125873000D01*
X126723000Y-125873000D01*
X126723000Y-125853000D01*
X126977000Y-125853000D01*
X126977000Y-125873000D01*
X126997000Y-125873000D01*
X126997000Y-126127000D01*
X126977000Y-126127000D01*
X126977000Y-128270378D01*
X127214740Y-128391036D01*
X127320086Y-128366756D01*
X127598000Y-128212577D01*
X127598000Y-133250000D01*
X127605724Y-133288832D01*
X127605724Y-133328426D01*
X127643784Y-133519768D01*
X127643784Y-133519770D01*
X127667552Y-133577150D01*
X127703809Y-133664682D01*
X127703810Y-133664683D01*
X127812197Y-133826894D01*
X127867652Y-133882348D01*
X127873000Y-133887696D01*
X127873000Y-134112304D01*
X127867652Y-134117652D01*
X127812197Y-134173106D01*
X127703810Y-134335317D01*
X127703809Y-134335318D01*
X127690899Y-134366486D01*
X127643784Y-134480230D01*
X127643784Y-134480232D01*
X127605724Y-134671574D01*
X127605724Y-134711168D01*
X127598000Y-134750000D01*
X127598000Y-143598000D01*
X121750000Y-143598000D01*
X121711168Y-143605724D01*
X121671575Y-143605724D01*
X121480232Y-143643784D01*
X121480230Y-143643784D01*
X121360180Y-143693511D01*
X121335322Y-143703808D01*
X121335317Y-143703810D01*
X121173106Y-143812197D01*
X121117652Y-143867652D01*
X121112304Y-143873000D01*
X120887696Y-143873000D01*
X120882348Y-143867652D01*
X120826894Y-143812197D01*
X120664683Y-143703810D01*
X120664682Y-143703809D01*
X120572797Y-143665749D01*
X120519770Y-143643784D01*
X120519768Y-143643784D01*
X120328426Y-143605724D01*
X120288832Y-143605724D01*
X120250000Y-143598000D01*
X114402000Y-143598000D01*
X114402000Y-141375000D01*
X116941594Y-141375000D01*
X116941594Y-142625000D01*
X116964395Y-142746179D01*
X117036012Y-142857474D01*
X117145286Y-142932138D01*
X117275000Y-142958406D01*
X118225000Y-142958406D01*
X118254799Y-142952799D01*
X118328179Y-143035552D01*
X118702062Y-143219268D01*
X118873000Y-143092734D01*
X118873000Y-142127000D01*
X119127000Y-142127000D01*
X119127000Y-143092734D01*
X119297938Y-143219268D01*
X119671821Y-143035552D01*
X119959568Y-142711049D01*
X120101229Y-142301131D01*
X119952563Y-142127000D01*
X119127000Y-142127000D01*
X118873000Y-142127000D01*
X118853000Y-142127000D01*
X118853000Y-141873000D01*
X118873000Y-141873000D01*
X118873000Y-140907266D01*
X119127000Y-140907266D01*
X119127000Y-141873000D01*
X119952563Y-141873000D01*
X120101229Y-141698869D01*
X119989306Y-141375000D01*
X122191594Y-141375000D01*
X122191594Y-142625000D01*
X122214395Y-142746179D01*
X122286012Y-142857474D01*
X122395286Y-142932138D01*
X122525000Y-142958406D01*
X123475000Y-142958406D01*
X123504799Y-142952799D01*
X123578179Y-143035552D01*
X123952062Y-143219268D01*
X124123000Y-143092734D01*
X124123000Y-142127000D01*
X124377000Y-142127000D01*
X124377000Y-143092734D01*
X124547938Y-143219268D01*
X124921821Y-143035552D01*
X125209568Y-142711049D01*
X125351229Y-142301131D01*
X125202563Y-142127000D01*
X124377000Y-142127000D01*
X124123000Y-142127000D01*
X124103000Y-142127000D01*
X124103000Y-141873000D01*
X124123000Y-141873000D01*
X124123000Y-140907266D01*
X124377000Y-140907266D01*
X124377000Y-141873000D01*
X125202563Y-141873000D01*
X125351229Y-141698869D01*
X125209568Y-141288951D01*
X124921821Y-140964448D01*
X124547938Y-140780732D01*
X124377000Y-140907266D01*
X124123000Y-140907266D01*
X123952062Y-140780732D01*
X123578179Y-140964448D01*
X123504478Y-141047563D01*
X123475000Y-141041594D01*
X122525000Y-141041594D01*
X122403821Y-141064395D01*
X122292526Y-141136012D01*
X122217862Y-141245286D01*
X122191594Y-141375000D01*
X119989306Y-141375000D01*
X119959568Y-141288951D01*
X119671821Y-140964448D01*
X119297938Y-140780732D01*
X119127000Y-140907266D01*
X118873000Y-140907266D01*
X118702062Y-140780732D01*
X118328179Y-140964448D01*
X118254478Y-141047563D01*
X118225000Y-141041594D01*
X117275000Y-141041594D01*
X117153821Y-141064395D01*
X117042526Y-141136012D01*
X116967862Y-141245286D01*
X116941594Y-141375000D01*
X114402000Y-141375000D01*
X114402000Y-128603387D01*
X116972822Y-128603387D01*
X117128844Y-128980989D01*
X117417492Y-129270140D01*
X117794821Y-129426821D01*
X118203387Y-129427178D01*
X118580989Y-129271156D01*
X118870140Y-128982508D01*
X119000126Y-128669468D01*
X119128844Y-128980989D01*
X119417492Y-129270140D01*
X119794821Y-129426821D01*
X120203387Y-129427178D01*
X120580989Y-129271156D01*
X120870140Y-128982508D01*
X121000126Y-128669468D01*
X121128844Y-128980989D01*
X121417492Y-129270140D01*
X121794821Y-129426821D01*
X122203387Y-129427178D01*
X122425809Y-129335275D01*
X123244331Y-129335275D01*
X123306169Y-129571042D01*
X123807122Y-129747419D01*
X124337440Y-129718664D01*
X124693831Y-129571042D01*
X124755669Y-129335275D01*
X124000000Y-128579605D01*
X123244331Y-129335275D01*
X122425809Y-129335275D01*
X122580989Y-129271156D01*
X122808383Y-129044158D01*
X122828958Y-129093831D01*
X123064725Y-129155669D01*
X123820395Y-128400000D01*
X124179605Y-128400000D01*
X124935275Y-129155669D01*
X125171042Y-129093831D01*
X125347419Y-128592878D01*
X125318664Y-128062560D01*
X125171042Y-127706169D01*
X124935275Y-127644331D01*
X124179605Y-128400000D01*
X123820395Y-128400000D01*
X123064725Y-127644331D01*
X122828958Y-127706169D01*
X122810590Y-127758339D01*
X122582508Y-127529860D01*
X122425646Y-127464725D01*
X123244331Y-127464725D01*
X124000000Y-128220395D01*
X124755669Y-127464725D01*
X124693831Y-127228958D01*
X124192878Y-127052581D01*
X123662560Y-127081336D01*
X123306169Y-127228958D01*
X123244331Y-127464725D01*
X122425646Y-127464725D01*
X122205179Y-127373179D01*
X121796613Y-127372822D01*
X121419011Y-127528844D01*
X121129860Y-127817492D01*
X120999874Y-128130532D01*
X120871156Y-127819011D01*
X120582508Y-127529860D01*
X120205179Y-127373179D01*
X119796613Y-127372822D01*
X119419011Y-127528844D01*
X119129860Y-127817492D01*
X118999874Y-128130532D01*
X118871156Y-127819011D01*
X118582508Y-127529860D01*
X118205179Y-127373179D01*
X117796613Y-127372822D01*
X117419011Y-127528844D01*
X117129860Y-127817492D01*
X116973179Y-128194821D01*
X116972822Y-128603387D01*
X114402000Y-128603387D01*
X114402000Y-128212577D01*
X114679914Y-128366756D01*
X114785260Y-128391036D01*
X115023000Y-128270378D01*
X115023000Y-126127000D01*
X115277000Y-126127000D01*
X115277000Y-128270378D01*
X115514740Y-128391036D01*
X115620086Y-128366756D01*
X116145606Y-128075212D01*
X116519554Y-127604752D01*
X116685000Y-127027000D01*
X116685000Y-126193485D01*
X117772830Y-126193485D01*
X117921256Y-126552703D01*
X118195851Y-126827778D01*
X118554810Y-126976830D01*
X118943485Y-126977170D01*
X119302703Y-126828744D01*
X119577778Y-126554149D01*
X119726830Y-126195190D01*
X119726831Y-126193485D01*
X122272830Y-126193485D01*
X122421256Y-126552703D01*
X122695851Y-126827778D01*
X123054810Y-126976830D01*
X123443485Y-126977170D01*
X123802703Y-126828744D01*
X124077778Y-126554149D01*
X124226830Y-126195190D01*
X124226889Y-126127000D01*
X125315000Y-126127000D01*
X125315000Y-127027000D01*
X125480446Y-127604752D01*
X125854394Y-128075212D01*
X126379914Y-128366756D01*
X126485260Y-128391036D01*
X126723000Y-128270378D01*
X126723000Y-126127000D01*
X125315000Y-126127000D01*
X124226889Y-126127000D01*
X124227170Y-125806515D01*
X124078744Y-125447297D01*
X123804149Y-125172222D01*
X123445190Y-125023170D01*
X123056515Y-125022830D01*
X122697297Y-125171256D01*
X122422222Y-125445851D01*
X122273170Y-125804810D01*
X122272830Y-126193485D01*
X119726831Y-126193485D01*
X119727170Y-125806515D01*
X119578744Y-125447297D01*
X119304149Y-125172222D01*
X118945190Y-125023170D01*
X118556515Y-125022830D01*
X118197297Y-125171256D01*
X117922222Y-125445851D01*
X117773170Y-125804810D01*
X117772830Y-126193485D01*
X116685000Y-126193485D01*
X116685000Y-126127000D01*
X115277000Y-126127000D01*
X115023000Y-126127000D01*
X115003000Y-126127000D01*
X115003000Y-125873000D01*
X115023000Y-125873000D01*
X115023000Y-125853000D01*
X115277000Y-125853000D01*
X115277000Y-125873000D01*
X116685000Y-125873000D01*
X116685000Y-124973000D01*
X116521488Y-124402000D01*
X120250000Y-124402000D01*
X120288832Y-124394276D01*
X120328426Y-124394276D01*
X120519768Y-124356216D01*
X120519770Y-124356216D01*
X120604658Y-124321054D01*
X120664682Y-124296191D01*
X120664683Y-124296190D01*
X120826894Y-124187803D01*
X120882348Y-124132348D01*
X120887696Y-124127000D01*
X121112304Y-124127000D01*
X121117652Y-124132348D01*
X121117652Y-124132348D01*
G37*
X121117652Y-124132348D02*
X121173106Y-124187803D01*
X121335317Y-124296190D01*
X121335319Y-124296191D01*
X121360180Y-124306489D01*
X121480230Y-124356216D01*
X121480232Y-124356216D01*
X121671575Y-124394276D01*
X121711168Y-124394276D01*
X121750000Y-124402000D01*
X125478512Y-124402000D01*
X125315000Y-124973000D01*
X125315000Y-125873000D01*
X126723000Y-125873000D01*
X126723000Y-125853000D01*
X126977000Y-125853000D01*
X126977000Y-125873000D01*
X126997000Y-125873000D01*
X126997000Y-126127000D01*
X126977000Y-126127000D01*
X126977000Y-128270378D01*
X127214740Y-128391036D01*
X127320086Y-128366756D01*
X127598000Y-128212577D01*
X127598000Y-133250000D01*
X127605724Y-133288832D01*
X127605724Y-133328426D01*
X127643784Y-133519768D01*
X127643784Y-133519770D01*
X127667552Y-133577150D01*
X127703809Y-133664682D01*
X127703810Y-133664683D01*
X127812197Y-133826894D01*
X127867652Y-133882348D01*
X127873000Y-133887696D01*
X127873000Y-134112304D01*
X127867652Y-134117652D01*
X127812197Y-134173106D01*
X127703810Y-134335317D01*
X127703809Y-134335318D01*
X127690899Y-134366486D01*
X127643784Y-134480230D01*
X127643784Y-134480232D01*
X127605724Y-134671574D01*
X127605724Y-134711168D01*
X127598000Y-134750000D01*
X127598000Y-143598000D01*
X121750000Y-143598000D01*
X121711168Y-143605724D01*
X121671575Y-143605724D01*
X121480232Y-143643784D01*
X121480230Y-143643784D01*
X121360180Y-143693511D01*
X121335322Y-143703808D01*
X121335317Y-143703810D01*
X121173106Y-143812197D01*
X121117652Y-143867652D01*
X121112304Y-143873000D01*
X120887696Y-143873000D01*
X120882348Y-143867652D01*
X120826894Y-143812197D01*
X120664683Y-143703810D01*
X120664682Y-143703809D01*
X120572797Y-143665749D01*
X120519770Y-143643784D01*
X120519768Y-143643784D01*
X120328426Y-143605724D01*
X120288832Y-143605724D01*
X120250000Y-143598000D01*
X114402000Y-143598000D01*
X114402000Y-141375000D01*
X116941594Y-141375000D01*
X116941594Y-142625000D01*
X116964395Y-142746179D01*
X117036012Y-142857474D01*
X117145286Y-142932138D01*
X117275000Y-142958406D01*
X118225000Y-142958406D01*
X118254799Y-142952799D01*
X118328179Y-143035552D01*
X118702062Y-143219268D01*
X118873000Y-143092734D01*
X118873000Y-142127000D01*
X119127000Y-142127000D01*
X119127000Y-143092734D01*
X119297938Y-143219268D01*
X119671821Y-143035552D01*
X119959568Y-142711049D01*
X120101229Y-142301131D01*
X119952563Y-142127000D01*
X119127000Y-142127000D01*
X118873000Y-142127000D01*
X118853000Y-142127000D01*
X118853000Y-141873000D01*
X118873000Y-141873000D01*
X118873000Y-140907266D01*
X119127000Y-140907266D01*
X119127000Y-141873000D01*
X119952563Y-141873000D01*
X120101229Y-141698869D01*
X119989306Y-141375000D01*
X122191594Y-141375000D01*
X122191594Y-142625000D01*
X122214395Y-142746179D01*
X122286012Y-142857474D01*
X122395286Y-142932138D01*
X122525000Y-142958406D01*
X123475000Y-142958406D01*
X123504799Y-142952799D01*
X123578179Y-143035552D01*
X123952062Y-143219268D01*
X124123000Y-143092734D01*
X124123000Y-142127000D01*
X124377000Y-142127000D01*
X124377000Y-143092734D01*
X124547938Y-143219268D01*
X124921821Y-143035552D01*
X125209568Y-142711049D01*
X125351229Y-142301131D01*
X125202563Y-142127000D01*
X124377000Y-142127000D01*
X124123000Y-142127000D01*
X124103000Y-142127000D01*
X124103000Y-141873000D01*
X124123000Y-141873000D01*
X124123000Y-140907266D01*
X124377000Y-140907266D01*
X124377000Y-141873000D01*
X125202563Y-141873000D01*
X125351229Y-141698869D01*
X125209568Y-141288951D01*
X124921821Y-140964448D01*
X124547938Y-140780732D01*
X124377000Y-140907266D01*
X124123000Y-140907266D01*
X123952062Y-140780732D01*
X123578179Y-140964448D01*
X123504478Y-141047563D01*
X123475000Y-141041594D01*
X122525000Y-141041594D01*
X122403821Y-141064395D01*
X122292526Y-141136012D01*
X122217862Y-141245286D01*
X122191594Y-141375000D01*
X119989306Y-141375000D01*
X119959568Y-141288951D01*
X119671821Y-140964448D01*
X119297938Y-140780732D01*
X119127000Y-140907266D01*
X118873000Y-140907266D01*
X118702062Y-140780732D01*
X118328179Y-140964448D01*
X118254478Y-141047563D01*
X118225000Y-141041594D01*
X117275000Y-141041594D01*
X117153821Y-141064395D01*
X117042526Y-141136012D01*
X116967862Y-141245286D01*
X116941594Y-141375000D01*
X114402000Y-141375000D01*
X114402000Y-128603387D01*
X116972822Y-128603387D01*
X117128844Y-128980989D01*
X117417492Y-129270140D01*
X117794821Y-129426821D01*
X118203387Y-129427178D01*
X118580989Y-129271156D01*
X118870140Y-128982508D01*
X119000126Y-128669468D01*
X119128844Y-128980989D01*
X119417492Y-129270140D01*
X119794821Y-129426821D01*
X120203387Y-129427178D01*
X120580989Y-129271156D01*
X120870140Y-128982508D01*
X121000126Y-128669468D01*
X121128844Y-128980989D01*
X121417492Y-129270140D01*
X121794821Y-129426821D01*
X122203387Y-129427178D01*
X122425809Y-129335275D01*
X123244331Y-129335275D01*
X123306169Y-129571042D01*
X123807122Y-129747419D01*
X124337440Y-129718664D01*
X124693831Y-129571042D01*
X124755669Y-129335275D01*
X124000000Y-128579605D01*
X123244331Y-129335275D01*
X122425809Y-129335275D01*
X122580989Y-129271156D01*
X122808383Y-129044158D01*
X122828958Y-129093831D01*
X123064725Y-129155669D01*
X123820395Y-128400000D01*
X124179605Y-128400000D01*
X124935275Y-129155669D01*
X125171042Y-129093831D01*
X125347419Y-128592878D01*
X125318664Y-128062560D01*
X125171042Y-127706169D01*
X124935275Y-127644331D01*
X124179605Y-128400000D01*
X123820395Y-128400000D01*
X123064725Y-127644331D01*
X122828958Y-127706169D01*
X122810590Y-127758339D01*
X122582508Y-127529860D01*
X122425646Y-127464725D01*
X123244331Y-127464725D01*
X124000000Y-128220395D01*
X124755669Y-127464725D01*
X124693831Y-127228958D01*
X124192878Y-127052581D01*
X123662560Y-127081336D01*
X123306169Y-127228958D01*
X123244331Y-127464725D01*
X122425646Y-127464725D01*
X122205179Y-127373179D01*
X121796613Y-127372822D01*
X121419011Y-127528844D01*
X121129860Y-127817492D01*
X120999874Y-128130532D01*
X120871156Y-127819011D01*
X120582508Y-127529860D01*
X120205179Y-127373179D01*
X119796613Y-127372822D01*
X119419011Y-127528844D01*
X119129860Y-127817492D01*
X118999874Y-128130532D01*
X118871156Y-127819011D01*
X118582508Y-127529860D01*
X118205179Y-127373179D01*
X117796613Y-127372822D01*
X117419011Y-127528844D01*
X117129860Y-127817492D01*
X116973179Y-128194821D01*
X116972822Y-128603387D01*
X114402000Y-128603387D01*
X114402000Y-128212577D01*
X114679914Y-128366756D01*
X114785260Y-128391036D01*
X115023000Y-128270378D01*
X115023000Y-126127000D01*
X115277000Y-126127000D01*
X115277000Y-128270378D01*
X115514740Y-128391036D01*
X115620086Y-128366756D01*
X116145606Y-128075212D01*
X116519554Y-127604752D01*
X116685000Y-127027000D01*
X116685000Y-126193485D01*
X117772830Y-126193485D01*
X117921256Y-126552703D01*
X118195851Y-126827778D01*
X118554810Y-126976830D01*
X118943485Y-126977170D01*
X119302703Y-126828744D01*
X119577778Y-126554149D01*
X119726830Y-126195190D01*
X119726831Y-126193485D01*
X122272830Y-126193485D01*
X122421256Y-126552703D01*
X122695851Y-126827778D01*
X123054810Y-126976830D01*
X123443485Y-126977170D01*
X123802703Y-126828744D01*
X124077778Y-126554149D01*
X124226830Y-126195190D01*
X124226889Y-126127000D01*
X125315000Y-126127000D01*
X125315000Y-127027000D01*
X125480446Y-127604752D01*
X125854394Y-128075212D01*
X126379914Y-128366756D01*
X126485260Y-128391036D01*
X126723000Y-128270378D01*
X126723000Y-126127000D01*
X125315000Y-126127000D01*
X124226889Y-126127000D01*
X124227170Y-125806515D01*
X124078744Y-125447297D01*
X123804149Y-125172222D01*
X123445190Y-125023170D01*
X123056515Y-125022830D01*
X122697297Y-125171256D01*
X122422222Y-125445851D01*
X122273170Y-125804810D01*
X122272830Y-126193485D01*
X119726831Y-126193485D01*
X119727170Y-125806515D01*
X119578744Y-125447297D01*
X119304149Y-125172222D01*
X118945190Y-125023170D01*
X118556515Y-125022830D01*
X118197297Y-125171256D01*
X117922222Y-125445851D01*
X117773170Y-125804810D01*
X117772830Y-126193485D01*
X116685000Y-126193485D01*
X116685000Y-126127000D01*
X115277000Y-126127000D01*
X115023000Y-126127000D01*
X115003000Y-126127000D01*
X115003000Y-125873000D01*
X115023000Y-125873000D01*
X115023000Y-125853000D01*
X115277000Y-125853000D01*
X115277000Y-125873000D01*
X116685000Y-125873000D01*
X116685000Y-124973000D01*
X116521488Y-124402000D01*
X120250000Y-124402000D01*
X120288832Y-124394276D01*
X120328426Y-124394276D01*
X120519768Y-124356216D01*
X120519770Y-124356216D01*
X120604658Y-124321054D01*
X120664682Y-124296191D01*
X120664683Y-124296190D01*
X120826894Y-124187803D01*
X120882348Y-124132348D01*
X120887696Y-124127000D01*
X121112304Y-124127000D01*
X121117652Y-124132348D01*
G36*
X165117652Y-124132348D02*
X165173106Y-124187803D01*
X165335317Y-124296190D01*
X165335319Y-124296191D01*
X165360180Y-124306489D01*
X165480230Y-124356216D01*
X165480232Y-124356216D01*
X165671575Y-124394276D01*
X165711168Y-124394276D01*
X165750000Y-124402000D01*
X169478512Y-124402000D01*
X169315000Y-124973000D01*
X169315000Y-125873000D01*
X170723000Y-125873000D01*
X170723000Y-125853000D01*
X170977000Y-125853000D01*
X170977000Y-125873000D01*
X170997000Y-125873000D01*
X170997000Y-126127000D01*
X170977000Y-126127000D01*
X170977000Y-128270378D01*
X171214740Y-128391036D01*
X171320086Y-128366756D01*
X171598000Y-128212577D01*
X171598000Y-143598000D01*
X165750000Y-143598000D01*
X165711168Y-143605724D01*
X165671575Y-143605724D01*
X165480232Y-143643784D01*
X165480230Y-143643784D01*
X165360180Y-143693511D01*
X165335322Y-143703808D01*
X165335317Y-143703810D01*
X165173106Y-143812197D01*
X165117652Y-143867652D01*
X165112304Y-143873000D01*
X164887696Y-143873000D01*
X164882348Y-143867652D01*
X164826894Y-143812197D01*
X164664683Y-143703810D01*
X164664682Y-143703809D01*
X164572797Y-143665749D01*
X164519770Y-143643784D01*
X164519768Y-143643784D01*
X164328426Y-143605724D01*
X164288832Y-143605724D01*
X164250000Y-143598000D01*
X158402000Y-143598000D01*
X158402000Y-141375000D01*
X160941594Y-141375000D01*
X160941594Y-142625000D01*
X160964395Y-142746179D01*
X161036012Y-142857474D01*
X161145286Y-142932138D01*
X161275000Y-142958406D01*
X162225000Y-142958406D01*
X162254799Y-142952799D01*
X162328179Y-143035552D01*
X162702062Y-143219268D01*
X162873000Y-143092734D01*
X162873000Y-142127000D01*
X163127000Y-142127000D01*
X163127000Y-143092734D01*
X163297938Y-143219268D01*
X163671821Y-143035552D01*
X163959568Y-142711049D01*
X164101229Y-142301131D01*
X163952563Y-142127000D01*
X163127000Y-142127000D01*
X162873000Y-142127000D01*
X162853000Y-142127000D01*
X162853000Y-141873000D01*
X162873000Y-141873000D01*
X162873000Y-140907266D01*
X163127000Y-140907266D01*
X163127000Y-141873000D01*
X163952563Y-141873000D01*
X164101229Y-141698869D01*
X163989306Y-141375000D01*
X166191594Y-141375000D01*
X166191594Y-142625000D01*
X166214395Y-142746179D01*
X166286012Y-142857474D01*
X166395286Y-142932138D01*
X166525000Y-142958406D01*
X167475000Y-142958406D01*
X167504799Y-142952799D01*
X167578179Y-143035552D01*
X167952062Y-143219268D01*
X168123000Y-143092734D01*
X168123000Y-142127000D01*
X168377000Y-142127000D01*
X168377000Y-143092734D01*
X168547938Y-143219268D01*
X168921821Y-143035552D01*
X169209568Y-142711049D01*
X169351229Y-142301131D01*
X169202563Y-142127000D01*
X168377000Y-142127000D01*
X168123000Y-142127000D01*
X168103000Y-142127000D01*
X168103000Y-141873000D01*
X168123000Y-141873000D01*
X168123000Y-140907266D01*
X168377000Y-140907266D01*
X168377000Y-141873000D01*
X169202563Y-141873000D01*
X169351229Y-141698869D01*
X169209568Y-141288951D01*
X168921821Y-140964448D01*
X168547938Y-140780732D01*
X168377000Y-140907266D01*
X168123000Y-140907266D01*
X167952062Y-140780732D01*
X167578179Y-140964448D01*
X167504478Y-141047563D01*
X167475000Y-141041594D01*
X166525000Y-141041594D01*
X166403821Y-141064395D01*
X166292526Y-141136012D01*
X166217862Y-141245286D01*
X166191594Y-141375000D01*
X163989306Y-141375000D01*
X163959568Y-141288951D01*
X163671821Y-140964448D01*
X163297938Y-140780732D01*
X163127000Y-140907266D01*
X162873000Y-140907266D01*
X162702062Y-140780732D01*
X162328179Y-140964448D01*
X162254478Y-141047563D01*
X162225000Y-141041594D01*
X161275000Y-141041594D01*
X161153821Y-141064395D01*
X161042526Y-141136012D01*
X160967862Y-141245286D01*
X160941594Y-141375000D01*
X158402000Y-141375000D01*
X158402000Y-134750000D01*
X158394276Y-134711168D01*
X158394276Y-134671575D01*
X158356216Y-134480232D01*
X158356216Y-134480230D01*
X158296190Y-134335317D01*
X158187803Y-134173106D01*
X158132348Y-134117652D01*
X158127000Y-134112304D01*
X158127000Y-133887696D01*
X158132348Y-133882348D01*
X158187803Y-133826894D01*
X158296190Y-133664683D01*
X158356216Y-133519770D01*
X158356216Y-133519768D01*
X158394276Y-133328425D01*
X158394276Y-133288832D01*
X158402000Y-133250000D01*
X158402000Y-128603387D01*
X160972822Y-128603387D01*
X161128844Y-128980989D01*
X161417492Y-129270140D01*
X161794821Y-129426821D01*
X162203387Y-129427178D01*
X162580989Y-129271156D01*
X162870140Y-128982508D01*
X163000126Y-128669468D01*
X163128844Y-128980989D01*
X163417492Y-129270140D01*
X163794821Y-129426821D01*
X164203387Y-129427178D01*
X164580989Y-129271156D01*
X164870140Y-128982508D01*
X165000126Y-128669468D01*
X165128844Y-128980989D01*
X165417492Y-129270140D01*
X165794821Y-129426821D01*
X166203387Y-129427178D01*
X166425809Y-129335275D01*
X167244331Y-129335275D01*
X167306169Y-129571042D01*
X167807122Y-129747419D01*
X168337440Y-129718664D01*
X168693831Y-129571042D01*
X168755669Y-129335275D01*
X168000000Y-128579605D01*
X167244331Y-129335275D01*
X166425809Y-129335275D01*
X166580989Y-129271156D01*
X166808383Y-129044158D01*
X166828958Y-129093831D01*
X167064725Y-129155669D01*
X167820395Y-128400000D01*
X168179605Y-128400000D01*
X168935275Y-129155669D01*
X169171042Y-129093831D01*
X169347419Y-128592878D01*
X169318664Y-128062560D01*
X169171042Y-127706169D01*
X168935275Y-127644331D01*
X168179605Y-128400000D01*
X167820395Y-128400000D01*
X167064725Y-127644331D01*
X166828958Y-127706169D01*
X166810590Y-127758339D01*
X166582508Y-127529860D01*
X166425646Y-127464725D01*
X167244331Y-127464725D01*
X168000000Y-128220395D01*
X168755669Y-127464725D01*
X168693831Y-127228958D01*
X168192878Y-127052581D01*
X167662560Y-127081336D01*
X167306169Y-127228958D01*
X167244331Y-127464725D01*
X166425646Y-127464725D01*
X166205179Y-127373179D01*
X165796613Y-127372822D01*
X165419011Y-127528844D01*
X165129860Y-127817492D01*
X164999874Y-128130532D01*
X164871156Y-127819011D01*
X164582508Y-127529860D01*
X164205179Y-127373179D01*
X163796613Y-127372822D01*
X163419011Y-127528844D01*
X163129860Y-127817492D01*
X162999874Y-128130532D01*
X162871156Y-127819011D01*
X162582508Y-127529860D01*
X162205179Y-127373179D01*
X161796613Y-127372822D01*
X161419011Y-127528844D01*
X161129860Y-127817492D01*
X160973179Y-128194821D01*
X160972822Y-128603387D01*
X158402000Y-128603387D01*
X158402000Y-128212577D01*
X158679914Y-128366756D01*
X158785260Y-128391036D01*
X159023000Y-128270378D01*
X159023000Y-126127000D01*
X159277000Y-126127000D01*
X159277000Y-128270378D01*
X159514740Y-128391036D01*
X159620086Y-128366756D01*
X160145606Y-128075212D01*
X160519554Y-127604752D01*
X160685000Y-127027000D01*
X160685000Y-126193485D01*
X161772830Y-126193485D01*
X161921256Y-126552703D01*
X162195851Y-126827778D01*
X162554810Y-126976830D01*
X162943485Y-126977170D01*
X163302703Y-126828744D01*
X163577778Y-126554149D01*
X163726830Y-126195190D01*
X163726831Y-126193485D01*
X166272830Y-126193485D01*
X166421256Y-126552703D01*
X166695851Y-126827778D01*
X167054810Y-126976830D01*
X167443485Y-126977170D01*
X167802703Y-126828744D01*
X168077778Y-126554149D01*
X168226830Y-126195190D01*
X168226889Y-126127000D01*
X169315000Y-126127000D01*
X169315000Y-127027000D01*
X169480446Y-127604752D01*
X169854394Y-128075212D01*
X170379914Y-128366756D01*
X170485260Y-128391036D01*
X170723000Y-128270378D01*
X170723000Y-126127000D01*
X169315000Y-126127000D01*
X168226889Y-126127000D01*
X168227170Y-125806515D01*
X168078744Y-125447297D01*
X167804149Y-125172222D01*
X167445190Y-125023170D01*
X167056515Y-125022830D01*
X166697297Y-125171256D01*
X166422222Y-125445851D01*
X166273170Y-125804810D01*
X166272830Y-126193485D01*
X163726831Y-126193485D01*
X163727170Y-125806515D01*
X163578744Y-125447297D01*
X163304149Y-125172222D01*
X162945190Y-125023170D01*
X162556515Y-125022830D01*
X162197297Y-125171256D01*
X161922222Y-125445851D01*
X161773170Y-125804810D01*
X161772830Y-126193485D01*
X160685000Y-126193485D01*
X160685000Y-126127000D01*
X159277000Y-126127000D01*
X159023000Y-126127000D01*
X159003000Y-126127000D01*
X159003000Y-125873000D01*
X159023000Y-125873000D01*
X159023000Y-125853000D01*
X159277000Y-125853000D01*
X159277000Y-125873000D01*
X160685000Y-125873000D01*
X160685000Y-124973000D01*
X160521488Y-124402000D01*
X164250000Y-124402000D01*
X164288832Y-124394276D01*
X164328426Y-124394276D01*
X164519768Y-124356216D01*
X164519770Y-124356216D01*
X164604658Y-124321054D01*
X164664682Y-124296191D01*
X164664683Y-124296190D01*
X164826894Y-124187803D01*
X164882348Y-124132348D01*
X164887696Y-124127000D01*
X165112304Y-124127000D01*
X165117652Y-124132348D01*
X165117652Y-124132348D01*
G37*
X165117652Y-124132348D02*
X165173106Y-124187803D01*
X165335317Y-124296190D01*
X165335319Y-124296191D01*
X165360180Y-124306489D01*
X165480230Y-124356216D01*
X165480232Y-124356216D01*
X165671575Y-124394276D01*
X165711168Y-124394276D01*
X165750000Y-124402000D01*
X169478512Y-124402000D01*
X169315000Y-124973000D01*
X169315000Y-125873000D01*
X170723000Y-125873000D01*
X170723000Y-125853000D01*
X170977000Y-125853000D01*
X170977000Y-125873000D01*
X170997000Y-125873000D01*
X170997000Y-126127000D01*
X170977000Y-126127000D01*
X170977000Y-128270378D01*
X171214740Y-128391036D01*
X171320086Y-128366756D01*
X171598000Y-128212577D01*
X171598000Y-143598000D01*
X165750000Y-143598000D01*
X165711168Y-143605724D01*
X165671575Y-143605724D01*
X165480232Y-143643784D01*
X165480230Y-143643784D01*
X165360180Y-143693511D01*
X165335322Y-143703808D01*
X165335317Y-143703810D01*
X165173106Y-143812197D01*
X165117652Y-143867652D01*
X165112304Y-143873000D01*
X164887696Y-143873000D01*
X164882348Y-143867652D01*
X164826894Y-143812197D01*
X164664683Y-143703810D01*
X164664682Y-143703809D01*
X164572797Y-143665749D01*
X164519770Y-143643784D01*
X164519768Y-143643784D01*
X164328426Y-143605724D01*
X164288832Y-143605724D01*
X164250000Y-143598000D01*
X158402000Y-143598000D01*
X158402000Y-141375000D01*
X160941594Y-141375000D01*
X160941594Y-142625000D01*
X160964395Y-142746179D01*
X161036012Y-142857474D01*
X161145286Y-142932138D01*
X161275000Y-142958406D01*
X162225000Y-142958406D01*
X162254799Y-142952799D01*
X162328179Y-143035552D01*
X162702062Y-143219268D01*
X162873000Y-143092734D01*
X162873000Y-142127000D01*
X163127000Y-142127000D01*
X163127000Y-143092734D01*
X163297938Y-143219268D01*
X163671821Y-143035552D01*
X163959568Y-142711049D01*
X164101229Y-142301131D01*
X163952563Y-142127000D01*
X163127000Y-142127000D01*
X162873000Y-142127000D01*
X162853000Y-142127000D01*
X162853000Y-141873000D01*
X162873000Y-141873000D01*
X162873000Y-140907266D01*
X163127000Y-140907266D01*
X163127000Y-141873000D01*
X163952563Y-141873000D01*
X164101229Y-141698869D01*
X163989306Y-141375000D01*
X166191594Y-141375000D01*
X166191594Y-142625000D01*
X166214395Y-142746179D01*
X166286012Y-142857474D01*
X166395286Y-142932138D01*
X166525000Y-142958406D01*
X167475000Y-142958406D01*
X167504799Y-142952799D01*
X167578179Y-143035552D01*
X167952062Y-143219268D01*
X168123000Y-143092734D01*
X168123000Y-142127000D01*
X168377000Y-142127000D01*
X168377000Y-143092734D01*
X168547938Y-143219268D01*
X168921821Y-143035552D01*
X169209568Y-142711049D01*
X169351229Y-142301131D01*
X169202563Y-142127000D01*
X168377000Y-142127000D01*
X168123000Y-142127000D01*
X168103000Y-142127000D01*
X168103000Y-141873000D01*
X168123000Y-141873000D01*
X168123000Y-140907266D01*
X168377000Y-140907266D01*
X168377000Y-141873000D01*
X169202563Y-141873000D01*
X169351229Y-141698869D01*
X169209568Y-141288951D01*
X168921821Y-140964448D01*
X168547938Y-140780732D01*
X168377000Y-140907266D01*
X168123000Y-140907266D01*
X167952062Y-140780732D01*
X167578179Y-140964448D01*
X167504478Y-141047563D01*
X167475000Y-141041594D01*
X166525000Y-141041594D01*
X166403821Y-141064395D01*
X166292526Y-141136012D01*
X166217862Y-141245286D01*
X166191594Y-141375000D01*
X163989306Y-141375000D01*
X163959568Y-141288951D01*
X163671821Y-140964448D01*
X163297938Y-140780732D01*
X163127000Y-140907266D01*
X162873000Y-140907266D01*
X162702062Y-140780732D01*
X162328179Y-140964448D01*
X162254478Y-141047563D01*
X162225000Y-141041594D01*
X161275000Y-141041594D01*
X161153821Y-141064395D01*
X161042526Y-141136012D01*
X160967862Y-141245286D01*
X160941594Y-141375000D01*
X158402000Y-141375000D01*
X158402000Y-134750000D01*
X158394276Y-134711168D01*
X158394276Y-134671575D01*
X158356216Y-134480232D01*
X158356216Y-134480230D01*
X158296190Y-134335317D01*
X158187803Y-134173106D01*
X158132348Y-134117652D01*
X158127000Y-134112304D01*
X158127000Y-133887696D01*
X158132348Y-133882348D01*
X158187803Y-133826894D01*
X158296190Y-133664683D01*
X158356216Y-133519770D01*
X158356216Y-133519768D01*
X158394276Y-133328425D01*
X158394276Y-133288832D01*
X158402000Y-133250000D01*
X158402000Y-128603387D01*
X160972822Y-128603387D01*
X161128844Y-128980989D01*
X161417492Y-129270140D01*
X161794821Y-129426821D01*
X162203387Y-129427178D01*
X162580989Y-129271156D01*
X162870140Y-128982508D01*
X163000126Y-128669468D01*
X163128844Y-128980989D01*
X163417492Y-129270140D01*
X163794821Y-129426821D01*
X164203387Y-129427178D01*
X164580989Y-129271156D01*
X164870140Y-128982508D01*
X165000126Y-128669468D01*
X165128844Y-128980989D01*
X165417492Y-129270140D01*
X165794821Y-129426821D01*
X166203387Y-129427178D01*
X166425809Y-129335275D01*
X167244331Y-129335275D01*
X167306169Y-129571042D01*
X167807122Y-129747419D01*
X168337440Y-129718664D01*
X168693831Y-129571042D01*
X168755669Y-129335275D01*
X168000000Y-128579605D01*
X167244331Y-129335275D01*
X166425809Y-129335275D01*
X166580989Y-129271156D01*
X166808383Y-129044158D01*
X166828958Y-129093831D01*
X167064725Y-129155669D01*
X167820395Y-128400000D01*
X168179605Y-128400000D01*
X168935275Y-129155669D01*
X169171042Y-129093831D01*
X169347419Y-128592878D01*
X169318664Y-128062560D01*
X169171042Y-127706169D01*
X168935275Y-127644331D01*
X168179605Y-128400000D01*
X167820395Y-128400000D01*
X167064725Y-127644331D01*
X166828958Y-127706169D01*
X166810590Y-127758339D01*
X166582508Y-127529860D01*
X166425646Y-127464725D01*
X167244331Y-127464725D01*
X168000000Y-128220395D01*
X168755669Y-127464725D01*
X168693831Y-127228958D01*
X168192878Y-127052581D01*
X167662560Y-127081336D01*
X167306169Y-127228958D01*
X167244331Y-127464725D01*
X166425646Y-127464725D01*
X166205179Y-127373179D01*
X165796613Y-127372822D01*
X165419011Y-127528844D01*
X165129860Y-127817492D01*
X164999874Y-128130532D01*
X164871156Y-127819011D01*
X164582508Y-127529860D01*
X164205179Y-127373179D01*
X163796613Y-127372822D01*
X163419011Y-127528844D01*
X163129860Y-127817492D01*
X162999874Y-128130532D01*
X162871156Y-127819011D01*
X162582508Y-127529860D01*
X162205179Y-127373179D01*
X161796613Y-127372822D01*
X161419011Y-127528844D01*
X161129860Y-127817492D01*
X160973179Y-128194821D01*
X160972822Y-128603387D01*
X158402000Y-128603387D01*
X158402000Y-128212577D01*
X158679914Y-128366756D01*
X158785260Y-128391036D01*
X159023000Y-128270378D01*
X159023000Y-126127000D01*
X159277000Y-126127000D01*
X159277000Y-128270378D01*
X159514740Y-128391036D01*
X159620086Y-128366756D01*
X160145606Y-128075212D01*
X160519554Y-127604752D01*
X160685000Y-127027000D01*
X160685000Y-126193485D01*
X161772830Y-126193485D01*
X161921256Y-126552703D01*
X162195851Y-126827778D01*
X162554810Y-126976830D01*
X162943485Y-126977170D01*
X163302703Y-126828744D01*
X163577778Y-126554149D01*
X163726830Y-126195190D01*
X163726831Y-126193485D01*
X166272830Y-126193485D01*
X166421256Y-126552703D01*
X166695851Y-126827778D01*
X167054810Y-126976830D01*
X167443485Y-126977170D01*
X167802703Y-126828744D01*
X168077778Y-126554149D01*
X168226830Y-126195190D01*
X168226889Y-126127000D01*
X169315000Y-126127000D01*
X169315000Y-127027000D01*
X169480446Y-127604752D01*
X169854394Y-128075212D01*
X170379914Y-128366756D01*
X170485260Y-128391036D01*
X170723000Y-128270378D01*
X170723000Y-126127000D01*
X169315000Y-126127000D01*
X168226889Y-126127000D01*
X168227170Y-125806515D01*
X168078744Y-125447297D01*
X167804149Y-125172222D01*
X167445190Y-125023170D01*
X167056515Y-125022830D01*
X166697297Y-125171256D01*
X166422222Y-125445851D01*
X166273170Y-125804810D01*
X166272830Y-126193485D01*
X163726831Y-126193485D01*
X163727170Y-125806515D01*
X163578744Y-125447297D01*
X163304149Y-125172222D01*
X162945190Y-125023170D01*
X162556515Y-125022830D01*
X162197297Y-125171256D01*
X161922222Y-125445851D01*
X161773170Y-125804810D01*
X161772830Y-126193485D01*
X160685000Y-126193485D01*
X160685000Y-126127000D01*
X159277000Y-126127000D01*
X159023000Y-126127000D01*
X159003000Y-126127000D01*
X159003000Y-125873000D01*
X159023000Y-125873000D01*
X159023000Y-125853000D01*
X159277000Y-125853000D01*
X159277000Y-125873000D01*
X160685000Y-125873000D01*
X160685000Y-124973000D01*
X160521488Y-124402000D01*
X164250000Y-124402000D01*
X164288832Y-124394276D01*
X164328426Y-124394276D01*
X164519768Y-124356216D01*
X164519770Y-124356216D01*
X164604658Y-124321054D01*
X164664682Y-124296191D01*
X164664683Y-124296190D01*
X164826894Y-124187803D01*
X164882348Y-124132348D01*
X164887696Y-124127000D01*
X165112304Y-124127000D01*
X165117652Y-124132348D01*
M02*
