M48
;DRILL file {KiCad 4.0.1-stable} date 2016/09/09 20:04:33
;FORMAT={-:-/ absolute / metric / decimal}
FMAT,2
METRIC,TZ
T1C0.300
T2C0.400
T3C0.600
T4C0.700
T5C0.800
T6C1.001
T7C1.016
%
G90
G05
M71
T1
X116.797Y-81.531
X124.204Y-100.27
X124.966Y-101.032
X126.028Y-101.063
X129.915Y-100.381
X132.021Y-86.759
X132.349Y-102.664
X132.578Y-101.718
X133.393Y-101.317
X134.356Y-63.178
X134.779Y-98.856
X136.408Y-107.497
X137.775Y-71.122
X138.251Y-98.071
X138.464Y-105.037
X138.761Y-94.95
X139.081Y-105.088
X139.607Y-105.411
X139.769Y-75.893
X140.135Y-112.393
X140.254Y-105.04
X140.769Y-101.227
X140.907Y-53.227
X141.027Y-105.037
X141.109Y-108.467
X141.411Y-101.227
X141.479Y-76.403
X141.65Y-73.688
X142.051Y-81.475
X142.085Y-108.297
X142.565Y-77.645
X142.565Y-78.445
X142.945Y-102.582
X143.435Y-77.645
X143.435Y-78.445
X143.938Y-68.173
X144.495Y-118.133
X144.568Y-84.635
X144.832Y-71.964
X144.894Y-116.066
X144.982Y-90.485
X145.339Y-53.074
X145.549Y-108.939
X145.825Y-118.142
X145.827Y-73.843
X145.918Y-100.88
X146.13Y-53.323
X146.538Y-111.094
X146.547Y-111.811
X147.555Y-61.616
X147.555Y-67.739
X147.596Y-99.683
X147.791Y-99.083
X148.041Y-103.281
X148.405Y-119.887
X148.407Y-100.785
X148.59Y-110.568
X148.59Y-116.229
X149.867Y-116.234
X150.063Y-103.75
X150.332Y-97.137
X152.389Y-58.135
X153.515Y-80.27
X153.552Y-110.583
X153.557Y-111.632
X154.162Y-112.092
X154.904Y-107.206
X155.Y-106.
X158.494Y-100.524
X158.736Y-109.89
X159.256Y-101.286
X159.493Y-102.634
X160.762Y-106.609
X162.486Y-109.242
X164.129Y-101.965
X164.129Y-106.513
T2
X108.Y-84.
X108.Y-85.
X108.Y-86.
X108.Y-87.
X110.Y-112.
X111.Y-74.
X111.Y-75.
X112.Y-113.
X113.Y-116.
X113.155Y-86.935
X114.425Y-86.935
X115.Y-67.
X115.Y-81.
X115.Y-115.
X116.Y-66.
X116.Y-115.
X116.Y-120.
X116.Y-121.
X117.Y-65.
X118.Y-64.
X118.Y-70.
X118.Y-111.
X118.Y-112.
X119.Y-63.
X120.Y-62.
X120.Y-106.
X120.Y-109.
X120.Y-115.
X121.Y-61.
X121.Y-79.
X121.Y-83.
X121.Y-84.
X121.Y-85.
X121.Y-86.
X121.Y-87.
X121.Y-91.
X121.Y-92.
X121.Y-93.
X121.Y-94.
X121.Y-95.
X121.Y-96.
X121.Y-97.
X121.Y-101.
X121.Y-102.
X121.Y-103.
X121.Y-106.
X121.Y-115.
X122.Y-115.
X123.Y-65.
X123.Y-66.
X123.Y-115.
X124.Y-115.
X124.Y-121.
X125.Y-103.
X125.Y-111.
X125.Y-115.
X125.Y-121.
X126.Y-111.
X126.Y-115.
X126.Y-121.
X126.651Y-72.797
X127.Y-57.
X127.Y-111.
X127.Y-115.
X127.Y-121.
X128.Y-56.
X128.Y-80.
X128.Y-85.
X128.Y-86.
X128.Y-87.
X128.Y-88.
X128.Y-89.
X128.Y-90.
X128.Y-94.
X128.Y-95.
X128.Y-111.
X128.Y-115.
X128.Y-121.
X129.Y-78.
X129.Y-79.
X129.Y-95.
X129.Y-111.
X129.Y-115.
X129.Y-117.
X129.Y-121.
X129.5Y-102.
X130.Y-65.
X130.Y-95.
X130.Y-115.
X130.Y-117.
X130.Y-121.
X131.Y-82.
X131.Y-95.
X131.Y-115.
X131.Y-117.
X131.Y-118.22
X131.Y-119.
X131.Y-120.
X131.Y-121.
X132.Y-82.
X132.Y-95.
X132.Y-104.
X132.Y-115.
X132.Y-121.
X133.Y-82.
X133.Y-95.
X133.Y-115.
X133.Y-116.
X133.Y-117.
X133.Y-118.
X133.Y-119.
X133.Y-120.
X133.Y-121.
X134.Y-61.
X134.Y-82.
X134.Y-111.
X135.Y-61.
X135.Y-82.
X135.Y-104.
X135.Y-110.
X135.Y-112.
X136.Y-54.
X136.Y-61.
X136.Y-86.
X136.Y-87.
X136.Y-88.
X136.Y-89.
X136.Y-105.
X136.Y-111.
X137.Y-61.
X137.Y-121.
X138.Y-56.
X138.Y-121.
X139.Y-115.
X139.Y-121.
X140.Y-55.
X140.Y-63.
X140.Y-64.
X140.576Y-118.19
X141.Y-85.
X141.Y-86.
X141.Y-87.
X141.25Y-91.
X141.25Y-92.
X141.25Y-93.
X141.5Y-99.75
X142.Y-71.
X142.Y-106.
X142.Y-109.
X142.Y-113.
X142.Y-114.
X142.Y-118.
X142.25Y-96.5
X142.25Y-97.25
X143.Y-55.
X143.061Y-70.061
X143.5Y-84.
X143.75Y-96.5
X143.75Y-97.25
X143.878Y-81.203
X144.Y-106.
X144.Y-108.
X144.Y-110.
X144.Y-114.5
X144.28Y-68.841
X144.293Y-75.181
X145.Y-103.
X145.Y-106.
X145.Y-108.
X145.165Y-55.45
X145.25Y-92.
X145.25Y-93.
X145.25Y-94.
X145.25Y-95.
X146.Y-63.
X146.Y-64.
X148.Y-83.
X148.Y-84.
X148.Y-85.
X148.Y-86.
X148.Y-87.
X148.Y-88.
X148.Y-89.
X148.Y-90.
X148.Y-91.
X148.Y-92.
X148.Y-93.
X148.Y-94.
X149.Y-60.
X149.Y-61.
X149.Y-63.5
X150.Y-53.
X150.Y-102.
X151.Y-54.
X151.Y-102.
X151.Y-106.
X151.Y-110.5
X151.Y-113.5
X151.255Y-91.38
X151.255Y-92.65
X152.Y-55.
X152.Y-101.
X152.5Y-82.
X152.5Y-83.
X152.5Y-88.
X152.5Y-89.
X152.5Y-90.
X152.5Y-91.
X152.5Y-92.
X152.5Y-93.
X152.5Y-96.5
X152.5Y-108.5
X153.Y-56.
X153.Y-106.
X153.Y-117.
X153.Y-119.
X153.795Y-67.25
X154.Y-57.
X154.Y-117.
X154.Y-119.
X154.43Y-67.885
X154.43Y-70.425
X154.432Y-109.085
X155.Y-58.
X155.Y-79.
X155.Y-82.
X155.Y-94.
X155.Y-117.
X155.Y-119.
X156.Y-79.
X156.Y-82.
X156.Y-94.
X156.Y-117.
X156.Y-119.
X156.335Y-64.71
X156.335Y-65.345
X157.Y-79.
X157.Y-82.
X157.Y-88.
X157.Y-94.
X157.Y-111.
X157.Y-117.
X157.Y-119.
X158.Y-56.
X158.Y-79.
X158.Y-82.
X158.Y-88.
X158.Y-94.
X158.Y-104.
X158.Y-117.
X158.Y-119.
X159.Y-57.
X159.Y-82.
X159.Y-117.
X159.5Y-111.
X160.Y-108.
X162.Y-63.
X162.Y-64.
X162.Y-65.
X162.Y-66.
X164.Y-79.
X165.Y-61.
X165.Y-74.
X165.Y-75.
X165.Y-79.
X165.Y-82.
X165.Y-83.
X165.Y-84.
X165.Y-85.
X165.Y-86.
X165.Y-87.
X165.Y-88.
X165.Y-89.
X165.Y-90.
X165.Y-91.
X165.Y-92.
X165.Y-93.
X165.Y-94.
X165.Y-95.
X165.Y-96.
X165.Y-113.
X165.Y-115.
X165.Y-116.
X165.Y-117.
X165.Y-118.
X166.Y-62.
X166.Y-79.
X166.Y-101.
X166.Y-102.
X166.Y-108.
X166.Y-109.
X166.Y-113.
X167.Y-63.
X167.Y-72.
X168.Y-64.
X168.Y-71.
X168.5Y-115.
X168.5Y-116.
X168.5Y-117.
X168.5Y-118.
X169.Y-65.
X170.Y-66.
X170.Y-83.
X170.Y-84.
X170.Y-85.
X170.Y-86.
X170.Y-87.
X171.Y-67.
X172.Y-116.
X172.Y-117.
X172.Y-118.
X172.Y-119.
X176.Y-73.
X176.Y-74.
X176.Y-75.
X177.Y-111.
X177.Y-112.
X177.Y-113.
X177.Y-114.
X177.Y-115.
X177.Y-116.
X178.Y-85.
X178.Y-86.
X178.Y-87.
T3
X124.458Y-95.952
X125.56Y-106.62
X125.728Y-94.682
X129.96Y-106.62
X148.714Y-78.758
X158.748Y-95.952
X160.018Y-94.682
X163.328Y-96.932
T4
X118.87Y-119.32
X120.87Y-119.32
X125.51Y-104.92
X125.51Y-108.32
X126.61Y-104.92
X126.61Y-106.62
X126.61Y-108.32
X127.125Y-119.32
X128.91Y-104.92
X128.91Y-108.32
X129.125Y-119.32
X130.01Y-104.92
X130.01Y-108.32
T5
X124.855Y-98.365
X125.855Y-98.365
X126.855Y-98.365
X127.76Y-104.92
X127.76Y-106.62
X127.76Y-108.32
X159.145Y-98.365
X160.145Y-98.365
X161.145Y-98.365
T6
X111.293Y-85.994
X113.747Y-85.336
X115.103Y-78.374
X117.557Y-77.716
X131.241Y-63.397
X131.899Y-60.943
X138.861Y-59.587
X139.519Y-57.133
X146.481Y-57.133
X147.139Y-59.587
X154.101Y-60.943
X154.759Y-63.397
X168.443Y-77.716
X170.897Y-78.374
X172.253Y-85.971
X174.707Y-86.629
T7
X134.11Y-69.79
X134.11Y-72.33
X134.11Y-74.87
X136.65Y-69.79
X136.65Y-72.33
X136.65Y-74.87
X149.35Y-69.79
X149.35Y-72.33
X149.35Y-74.87
X151.89Y-69.79
X151.89Y-72.33
X151.89Y-74.87
X159.51Y-120.59
X162.05Y-120.59
X164.59Y-120.59
T0
M30
