M48
;DRILL file {KiCad 4.0.1-stable} date 2016/12/03 22:12:12
;FORMAT={-:-/ absolute / metric / decimal}
FMAT,2
METRIC,TZ
T1C0.300
T2C0.600
T3C0.700
T4C0.800
T5C0.930
T6C1.000
T7C1.016
%
G90
G05
M71
T1
X117.Y-122.
X117.Y-146.
X118.Y-115.
X118.Y-117.
X118.Y-121.
X118.Y-122.
X118.Y-147.
X118.Y-149.
X119.Y-112.
X119.Y-114.
X119.Y-117.
X119.Y-119.
X119.Y-121.
X119.Y-146.
X119.Y-148.
X119.Y-150.
X119.Y-152.
X120.Y-111.
X120.Y-113.
X120.Y-115.
X120.Y-119.
X120.Y-120.
X120.Y-121.
X120.Y-147.
X120.Y-149.
X120.Y-151.
X120.Y-153.
X121.Y-110.
X121.Y-112.
X121.Y-114.
X121.Y-146.
X121.Y-148.
X121.Y-150.
X121.Y-152.
X121.Y-154.
X122.Y-107.
X122.Y-109.
X122.Y-111.
X122.Y-113.
X122.Y-147.
X122.Y-155.
X122.576Y-118.313
X123.Y-106.
X123.Y-108.
X123.Y-110.
X123.Y-112.
X123.Y-146.
X123.5Y-114.5
X124.Y-105.
X124.Y-107.
X124.Y-109.
X124.Y-111.
X124.Y-147.
X124.Y-155.
X124.5Y-113.5
X125.Y-104.
X125.Y-106.
X125.Y-108.
X125.Y-110.
X125.Y-117.
X125.Y-119.
X125.Y-146.
X125.Y-148.
X125.Y-150.
X125.Y-154.
X125.Y-156.
X125.5Y-112.5
X125.5Y-117.5
X125.803Y-121.993
X126.Y-103.
X126.Y-105.
X126.Y-107.
X126.Y-109.
X126.Y-119.
X126.Y-121.
X126.Y-147.
X126.Y-149.
X126.Y-151.
X126.Y-155.
X126.Y-157.
X126.5Y-111.5
X126.5Y-115.5
X127.Y-104.
X127.Y-106.
X127.Y-146.
X127.Y-156.
X127.5Y-110.5
X127.5Y-114.686
X128.Y-103.
X128.Y-105.
X128.Y-157.
X128.5Y-147.5
X129.Y-102.
X129.Y-104.
X129.Y-106.
X129.Y-112.
X129.Y-116.
X129.Y-147.
X129.174Y-117.174
X130.Y-101.
X130.Y-103.
X130.Y-105.
X130.Y-108.5
X130.Y-112.
X130.Y-118.
X130.Y-121.
X130.Y-126.
X130.Y-128.
X130.Y-130.
X130.Y-132.
X130.Y-155.
X130.5Y-108.
X130.599Y-120.287
X131.Y-100.
X131.Y-102.
X131.Y-104.
X131.Y-107.5
X131.Y-112.
X131.Y-118.
X131.Y-119.
X131.Y-121.
X131.Y-123.
X131.Y-127.
X131.Y-129.
X131.Y-131.
X131.Y-136.
X131.Y-156.
X132.Y-99.
X132.Y-101.
X132.Y-103.
X132.Y-112.
X132.Y-115.
X132.Y-118.
X132.Y-119.
X132.Y-124.
X132.Y-128.
X132.Y-130.
X132.Y-132.
X132.Y-135.
X132.Y-140.25
X132.Y-155.
X132.544Y-121.49
X132.75Y-141.
X132.828Y-140.045
X133.Y-100.
X133.Y-102.
X133.Y-110.
X133.Y-114.
X133.Y-115.
X133.Y-116.
X133.Y-117.
X133.Y-123.
X133.Y-125.
X133.Y-129.
X133.Y-131.
X133.Y-133.
X133.Y-139.
X133.Y-154.
X133.Y-156.
X133.764Y-127.726
X134.Y-99.
X134.Y-101.
X134.Y-108.
X134.Y-110.
X134.Y-113.
X134.Y-114.
X134.Y-124.
X134.Y-126.
X134.Y-135.
X134.Y-138.
X134.Y-141.
X134.Y-153.
X134.Y-155.
X134.061Y-150.639
X134.47Y-121.617
X134.658Y-144.12
X134.778Y-109.87
X135.Y-114.
X135.Y-134.
X135.Y-140.
X135.Y-142.
X135.Y-154.
X135.Y-156.
X135.117Y-98.513
X135.5Y-106.5
X135.5Y-112.5
X135.748Y-104.956
X135.947Y-133.091
X136.Y-106.
X136.Y-112.
X136.Y-141.
X136.Y-143.
X136.Y-145.
X136.Y-147.
X136.Y-149.
X136.323Y-115.079
X136.5Y-112.5
X136.6Y-119.
X137.Y-119.5
X137.Y-101.
X137.Y-106.
X137.Y-140.
X137.Y-142.
X137.Y-144.
X137.Y-146.
X137.Y-148.
X137.479Y-116.329
X137.5Y-105.5
X137.5Y-106.5
X137.5Y-123.5
X137.71Y-134.893
X137.732Y-120.156
X138.Y-100.
X138.Y-106.
X138.Y-124.
X138.Y-125.
X138.Y-126.
X138.Y-129.
X138.Y-130.
X138.Y-145.
X138.Y-147.
X138.Y-149.
X138.Y-151.
X138.Y-153.
X138.Y-155.
X138.003Y-117.596
X138.186Y-120.58
X138.484Y-118.076
X138.556Y-114.348
X138.8Y-110.2
X139.Y-98.
X139.Y-99.
X139.Y-100.
X139.Y-132.
X139.Y-134.
X139.Y-138.
X139.Y-140.
X139.Y-142.
X139.Y-146.
X139.Y-148.
X139.Y-150.
X139.216Y-115.017
X139.542Y-117.989
X139.639Y-98.513
X139.809Y-112.115
X140.Y-100.
X140.Y-133.
X140.Y-135.
X140.Y-139.
X140.Y-141.
X140.Y-143.
X140.Y-145.
X140.Y-147.
X140.Y-149.
X140.Y-151.
X140.186Y-103.684
X140.5Y-112.
X140.5Y-115.25
X140.6Y-115.8
X141.Y-100.
X141.Y-108.
X141.Y-136.
X141.Y-140.
X141.Y-142.
X141.Y-146.
X141.Y-148.
X141.Y-150.
X141.Y-152.
X141.Y-154.
X141.188Y-127.068
X141.5Y-107.5
X141.528Y-132.4
X141.864Y-110.612
X142.Y-107.
X142.Y-138.
X142.Y-139.
X142.Y-143.
X142.Y-147.
X142.Y-149.
X142.Y-151.
X142.Y-153.
X142.101Y-111.427
X142.133Y-131.717
X142.137Y-140.863
X142.4Y-136.337
X142.496Y-112.572
X142.5Y-104.
X142.5Y-124.5
X142.5Y-125.5
X142.503Y-116.448
X142.506Y-115.643
X142.523Y-111.945
X142.567Y-99.245
X142.663Y-131.378
X142.8Y-134.887
X142.804Y-111.137
X143.Y-97.
X143.Y-98.
X143.Y-105.564
X143.Y-107.
X143.Y-109.5
X143.Y-121.
X143.Y-122.
X143.Y-125.
X143.Y-126.
X143.Y-134.
X143.Y-142.
X143.Y-144.
X143.Y-148.
X143.Y-150.
X143.Y-152.
X143.Y-154.
X143.05Y-103.29
X143.467Y-116.524
X143.5Y-104.
X143.5Y-110.
X143.5Y-111.
X143.5Y-113.
X144.Y-104.5
X144.Y-107.
X144.Y-109.5
X144.Y-110.5
X144.Y-111.5
X144.Y-120.
X144.Y-121.
X144.Y-122.
X144.Y-123.
X144.Y-126.
X144.Y-127.
X144.Y-137.
X144.Y-139.
X144.Y-141.
X144.Y-143.
X144.Y-145.
X144.Y-149.
X144.Y-153.
X144.Y-155.
X144.5Y-110.
X144.5Y-111.
X144.5Y-112.
X144.504Y-135.51
X144.704Y-102.521
X144.724Y-136.579
X145.Y-109.5
X145.Y-110.5
X145.Y-111.5
X145.Y-142.
X145.Y-144.
X145.Y-146.
X145.Y-154.
X145.Y-156.
X145.067Y-108.305
X145.208Y-113.233
X145.408Y-107.825
X145.5Y-110.
X145.5Y-111.
X145.5Y-112.
X145.581Y-113.863
X145.823Y-105.484
X145.892Y-119.013
X146.Y-103.
X146.Y-122.
X146.Y-123.
X146.Y-124.
X146.Y-143.
X146.Y-145.
X146.Y-147.
X146.Y-153.
X146.Y-155.
X146.361Y-98.513
X146.6Y-133.005
X146.784Y-118.223
X146.949Y-130.201
X147.Y-98.
X147.Y-123.
X147.Y-144.
X147.Y-146.
X147.Y-148.
X147.445Y-99.471
X147.5Y-134.
X147.5Y-135.
X147.64Y-116.715
X148.Y-125.
X148.Y-126.
X148.Y-143.
X148.Y-145.
X148.Y-147.
X148.05Y-133.2
X148.212Y-113.227
X148.4Y-105.6
X148.4Y-106.4
X148.75Y-134.
X148.75Y-135.
X148.822Y-107.404
X149.Y-116.
X149.Y-119.
X149.Y-120.
X149.Y-122.
X149.Y-125.
X149.Y-128.
X149.Y-139.
X149.Y-140.
X149.Y-144.
X149.Y-146.
X149.Y-148.
X149.453Y-133.206
X149.5Y-108.
X149.6Y-114.71
X149.6Y-115.4
X149.6Y-116.
X150.Y-106.5
X150.Y-119.
X150.Y-120.
X150.Y-121.
X150.Y-123.
X150.Y-129.
X150.Y-132.175
X150.Y-134.
X150.Y-135.
X150.Y-140.
X150.Y-141.
X150.Y-143.
X150.Y-145.
X150.Y-147.
X150.056Y-118.017
X150.087Y-105.398
X150.478Y-105.978
X150.5Y-108.
X150.649Y-123.536
X150.9Y-122.55
X150.939Y-98.69
X151.Y-100.
X151.Y-106.5
X151.Y-108.5
X151.Y-111.
X151.Y-112.
X151.Y-120.
X151.Y-121.
X151.Y-144.
X151.Y-146.
X151.Y-148.
X151.597Y-132.186
X151.831Y-140.643
X151.853Y-148.106
X152.Y-99.
X152.Y-101.
X152.Y-111.
X152.Y-113.
X152.Y-157.
X152.072Y-118.572
X152.202Y-126.644
X152.5Y-116.5
X153.Y-100.
X153.Y-102.
X153.Y-112.
X153.Y-113.
X153.Y-116.
X153.Y-117.
X153.Y-118.5
X153.Y-119.5
X153.Y-156.
X153.25Y-127.
X153.5Y-114.5
X153.5Y-115.5
X153.5Y-116.5
X153.551Y-131.964
X154.Y-99.
X154.Y-101.
X154.Y-103.
X154.Y-112.
X154.Y-127.75
X154.Y-143.
X154.Y-145.
X154.Y-147.
X154.Y-149.
X154.Y-153.
X154.Y-155.
X154.Y-157.
X155.Y-100.
X155.Y-102.
X155.Y-104.
X155.Y-136.
X155.Y-138.
X155.Y-140.
X155.Y-142.
X155.Y-144.
X155.Y-146.
X155.Y-150.
X155.Y-154.
X155.Y-156.
X155.05Y-129.717
X155.457Y-132.378
X155.5Y-111.461
X156.Y-101.
X156.Y-103.
X156.Y-105.
X156.Y-130.
X156.Y-132.
X156.Y-137.
X156.Y-139.
X156.Y-141.
X156.Y-143.
X156.Y-145.
X156.Y-147.
X156.Y-149.
X156.Y-151.
X156.Y-153.
X156.Y-155.
X156.Y-157.
X156.4Y-121.2
X156.5Y-112.492
X156.5Y-126.
X156.5Y-127.5
X156.5Y-129.
X156.5Y-131.
X157.Y-102.
X157.Y-104.
X157.Y-106.
X157.Y-107.
X157.Y-148.
X157.Y-150.
X157.Y-152.
X157.Y-154.
X157.Y-156.
X158.Y-103.
X158.Y-105.
X158.Y-153.
X158.Y-155.
X158.Y-157.
X159.Y-104.
X159.Y-106.
X159.Y-116.
X159.Y-119.
X159.Y-146.
X159.Y-152.
X159.Y-154.
X159.Y-156.
X160.Y-103.
X160.Y-105.
X160.Y-107.
X160.Y-109.
X160.Y-113.
X160.Y-115.
X160.Y-117.
X160.Y-119.
X160.Y-147.
X160.Y-153.
X160.Y-155.
X160.Y-157.
X161.Y-104.
X161.Y-106.
X161.Y-108.
X161.Y-110.
X161.Y-114.
X161.Y-118.
X161.Y-146.
X161.Y-150.
X161.Y-154.
X161.Y-156.
X162.Y-105.
X162.Y-107.
X162.Y-109.
X162.Y-111.
X162.Y-119.
X162.Y-122.
X162.Y-147.
X162.Y-151.
X162.Y-155.
X162.187Y-148.018
X163.Y-106.
X163.Y-108.
X163.Y-110.
X163.Y-112.
X163.Y-122.
X163.Y-146.
X163.Y-150.
X163.92Y-119.525
X164.Y-109.
X164.Y-111.
X164.Y-113.
X164.Y-122.
X164.Y-147.
X164.Y-151.
X165.Y-110.
X165.Y-112.
X165.Y-114.
X165.Y-116.
X165.Y-122.
X165.Y-146.
X165.Y-150.
X166.Y-111.
X166.Y-113.
X166.Y-116.
X166.Y-117.
X166.Y-119.
X166.Y-122.
X166.Y-147.
X166.Y-149.
X166.Y-151.
X166.Y-153.
X167.Y-112.
X167.Y-114.
X167.Y-119.
X167.Y-146.
X167.Y-148.
X167.Y-150.
X167.Y-152.
X168.Y-115.
X168.Y-117.
X168.Y-121.
X168.Y-122.
X168.Y-147.
X168.Y-149.
X168.Y-151.
X169.Y-122.
X169.Y-146.
X169.Y-148.
T2
X117.75Y-142.
X119.Y-142.
X123.Y-142.
X124.25Y-142.
X131.7Y-146.5
X133.Y-145.2
X136.5Y-156.
X137.75Y-156.
X141.5Y-156.
X142.75Y-156.
X146.8Y-154.5
X151.2Y-154.5
X153.Y-122.75
X154.25Y-121.5
X159.075Y-121.1
X161.75Y-142.
X163.Y-142.
X167.Y-142.
X168.25Y-142.
T3
X146.75Y-152.8
X146.75Y-156.2
X147.85Y-152.8
X147.85Y-156.2
X150.15Y-152.8
X150.15Y-154.5
X150.15Y-156.2
X151.25Y-152.8
X151.25Y-156.2
T4
X121.235Y-117.611
X122.235Y-116.111
X123.Y-148.42
X123.Y-150.96
X123.Y-153.5
X123.765Y-117.389
X124.765Y-115.889
X131.75Y-143.
X136.779Y-104.751
X137.221Y-102.249
X138.279Y-103.751
X138.721Y-101.249
X147.279Y-101.249
X147.721Y-103.751
X148.779Y-102.249
X149.Y-152.8
X149.Y-154.5
X149.Y-156.2
X149.221Y-104.751
X154.25Y-125.
X161.235Y-115.889
X162.235Y-117.389
X163.765Y-116.111
X164.765Y-117.611
T5
X118.Y-128.4
X120.Y-128.4
X122.Y-128.4
X124.Y-128.4
X162.Y-128.4
X164.Y-128.4
X166.Y-128.4
X168.Y-128.4
T7
X128.5Y-149.
X128.5Y-151.54
X128.5Y-154.08
X131.04Y-149.
X131.04Y-151.54
X131.04Y-154.08
X154.96Y-113.92
X154.96Y-116.46
X154.96Y-119.
X157.5Y-113.92
X157.5Y-116.46
X157.5Y-119.
T6
X115.15Y-125.25G85X115.15Y-126.75
G05
X126.85Y-125.25G85X126.85Y-126.75
G05
X159.15Y-125.25G85X159.15Y-126.75
G05
X170.85Y-125.25G85X170.85Y-126.75
G05
T0
M30
