G04 #@! TF.FileFunction,Soldermask,Top*
%FSLAX46Y46*%
G04 Gerber Fmt 4.6, Leading zero omitted, Abs format (unit mm)*
G04 Created by KiCad (PCBNEW 4.0.1-stable) date 2016/09/09 20:04:28*
%MOMM*%
G01*
G04 APERTURE LIST*
%ADD10C,0.100000*%
%ADD11R,1.000000X1.950000*%
%ADD12R,1.600000X2.200000*%
%ADD13R,1.150000X1.200000*%
%ADD14R,1.200000X1.150000*%
%ADD15R,1.400000X1.650000*%
%ADD16R,1.197560X1.197560*%
%ADD17R,2.127200X2.127200*%
%ADD18O,2.127200X2.127200*%
%ADD19R,1.200100X1.200100*%
%ADD20R,0.900000X1.300000*%
%ADD21R,1.300000X0.900000*%
%ADD22R,1.400000X2.000000*%
%ADD23R,1.450000X1.050000*%
%ADD24R,2.127200X2.432000*%
%ADD25O,2.127200X2.432000*%
%ADD26R,1.050000X1.460000*%
%ADD27R,1.950000X1.000000*%
%ADD28R,2.051000X3.448000*%
%ADD29R,6.496000X6.496000*%
%ADD30R,1.850000X0.850000*%
%ADD31C,2.300000*%
%ADD32R,1.000000X0.580000*%
%ADD33R,1.275000X1.200000*%
%ADD34R,0.580000X1.000000*%
%ADD35R,5.400000X1.300000*%
%ADD36C,1.200000*%
%ADD37R,0.680000X0.900000*%
%ADD38R,1.600000X2.100000*%
%ADD39O,1.600000X2.100000*%
%ADD40R,1.200000X1.500000*%
%ADD41R,1.100000X1.500000*%
%ADD42R,1.100000X1.400000*%
%ADD43R,1.000000X1.500000*%
G04 APERTURE END LIST*
D10*
D11*
X150715000Y-118692500D03*
X149715000Y-118692500D03*
X148715000Y-118692500D03*
X147715000Y-118692500D03*
X146715000Y-118692500D03*
D12*
X152015000Y-121217500D03*
X145415000Y-121217500D03*
D10*
G36*
X134658008Y-107798820D02*
X135471180Y-108611992D01*
X134622652Y-109460520D01*
X133809480Y-108647348D01*
X134658008Y-107798820D01*
X134658008Y-107798820D01*
G37*
G36*
X133597348Y-108859480D02*
X134410520Y-109672652D01*
X133561992Y-110521180D01*
X132748820Y-109708008D01*
X133597348Y-108859480D01*
X133597348Y-108859480D01*
G37*
G36*
X139103008Y-112243820D02*
X139916180Y-113056992D01*
X139067652Y-113905520D01*
X138254480Y-113092348D01*
X139103008Y-112243820D01*
X139103008Y-112243820D01*
G37*
G36*
X138042348Y-113304480D02*
X138855520Y-114117652D01*
X138006992Y-114966180D01*
X137193820Y-114153008D01*
X138042348Y-113304480D01*
X138042348Y-113304480D01*
G37*
G36*
X151798820Y-107341992D02*
X152611992Y-106528820D01*
X153460520Y-107377348D01*
X152647348Y-108190520D01*
X151798820Y-107341992D01*
X151798820Y-107341992D01*
G37*
G36*
X152859480Y-108402652D02*
X153672652Y-107589480D01*
X154521180Y-108438008D01*
X153708008Y-109251180D01*
X152859480Y-108402652D01*
X152859480Y-108402652D01*
G37*
G36*
X147531992Y-97821180D02*
X146718820Y-97008008D01*
X147567348Y-96159480D01*
X148380520Y-96972652D01*
X147531992Y-97821180D01*
X147531992Y-97821180D01*
G37*
G36*
X148592652Y-96760520D02*
X147779480Y-95947348D01*
X148628008Y-95098820D01*
X149441180Y-95911992D01*
X148592652Y-96760520D01*
X148592652Y-96760520D01*
G37*
G36*
X135466992Y-100996180D02*
X134653820Y-100183008D01*
X135502348Y-99334480D01*
X136315520Y-100147652D01*
X135466992Y-100996180D01*
X135466992Y-100996180D01*
G37*
G36*
X136527652Y-99935520D02*
X135714480Y-99122348D01*
X136563008Y-98273820D01*
X137376180Y-99086992D01*
X136527652Y-99935520D01*
X136527652Y-99935520D01*
G37*
G36*
X140551180Y-97008008D02*
X139738008Y-97821180D01*
X138889480Y-96972652D01*
X139702652Y-96159480D01*
X140551180Y-97008008D01*
X140551180Y-97008008D01*
G37*
G36*
X139490520Y-95947348D02*
X138677348Y-96760520D01*
X137828820Y-95911992D01*
X138641992Y-95098820D01*
X139490520Y-95947348D01*
X139490520Y-95947348D01*
G37*
D13*
X116330000Y-112220000D03*
X116330000Y-113720000D03*
D10*
G36*
X137833008Y-110973820D02*
X138646180Y-111786992D01*
X137797652Y-112635520D01*
X136984480Y-111822348D01*
X137833008Y-110973820D01*
X137833008Y-110973820D01*
G37*
G36*
X136772348Y-112034480D02*
X137585520Y-112847652D01*
X136736992Y-113696180D01*
X135923820Y-112883008D01*
X136772348Y-112034480D01*
X136772348Y-112034480D01*
G37*
G36*
X150528820Y-108611992D02*
X151341992Y-107798820D01*
X152190520Y-108647348D01*
X151377348Y-109460520D01*
X150528820Y-108611992D01*
X150528820Y-108611992D01*
G37*
G36*
X151589480Y-109672652D02*
X152402652Y-108859480D01*
X153251180Y-109708008D01*
X152438008Y-110521180D01*
X151589480Y-109672652D01*
X151589480Y-109672652D01*
G37*
D13*
X127760000Y-100790000D03*
X127760000Y-102290000D03*
X162050000Y-100790000D03*
X162050000Y-102290000D03*
D14*
X122160000Y-104715000D03*
X120660000Y-104715000D03*
X122160000Y-107890000D03*
X120660000Y-107890000D03*
D15*
X122410000Y-111065000D03*
X120410000Y-111065000D03*
D13*
X141730000Y-57205000D03*
X141730000Y-55705000D03*
D14*
X143750000Y-63948000D03*
X142250000Y-63948000D03*
D13*
X144270000Y-57205000D03*
X144270000Y-55705000D03*
X165860000Y-104600000D03*
X165860000Y-106100000D03*
X153795000Y-103965000D03*
X153795000Y-105465000D03*
X136650000Y-65865000D03*
X136650000Y-67365000D03*
X135380000Y-64190000D03*
X135380000Y-62690000D03*
X139190000Y-72850000D03*
X139190000Y-74350000D03*
X117600000Y-80470000D03*
X117600000Y-81970000D03*
X146810000Y-72850000D03*
X146810000Y-74350000D03*
X168400000Y-80470000D03*
X168400000Y-81970000D03*
X149350000Y-65865000D03*
X149350000Y-67365000D03*
X150620000Y-64190000D03*
X150620000Y-62690000D03*
X139190000Y-78160000D03*
X139190000Y-76660000D03*
X146810000Y-76660000D03*
X146810000Y-78160000D03*
D14*
X142250000Y-82490000D03*
X143750000Y-82490000D03*
X173365000Y-112970000D03*
X174865000Y-112970000D03*
D16*
X139190000Y-52530700D03*
X139190000Y-54029300D03*
X141730000Y-51895700D03*
X141730000Y-53394300D03*
X144270000Y-51895700D03*
X144270000Y-53394300D03*
X146810000Y-52530700D03*
X146810000Y-54029300D03*
D17*
X136650000Y-74870000D03*
D18*
X134110000Y-74870000D03*
X136650000Y-72330000D03*
X134110000Y-72330000D03*
X136650000Y-69790000D03*
X134110000Y-69790000D03*
D17*
X149350000Y-69790000D03*
D18*
X151890000Y-69790000D03*
X149350000Y-72330000D03*
X151890000Y-72330000D03*
X149350000Y-74870000D03*
X151890000Y-74870000D03*
D19*
X165590760Y-68835000D03*
X165590760Y-66935000D03*
X163591780Y-67885000D03*
X120409240Y-66935000D03*
X120409240Y-68835000D03*
X122408220Y-67885000D03*
X153525760Y-99950000D03*
X153525760Y-98050000D03*
X151526780Y-99000000D03*
D20*
X163435000Y-113605000D03*
X161935000Y-113605000D03*
X128915000Y-112970000D03*
X130415000Y-112970000D03*
X159625000Y-113605000D03*
X158125000Y-113605000D03*
X126605000Y-112970000D03*
X125105000Y-112970000D03*
X151775000Y-78045000D03*
X153275000Y-78045000D03*
X165340000Y-71060000D03*
X163840000Y-71060000D03*
D21*
X134110000Y-65865000D03*
X134110000Y-67365000D03*
X138555000Y-62690000D03*
X138555000Y-64190000D03*
X141730000Y-72850000D03*
X141730000Y-74350000D03*
X117600000Y-84280000D03*
X117600000Y-85780000D03*
X144270000Y-72850000D03*
X144270000Y-74350000D03*
X168400000Y-84280000D03*
X168400000Y-85780000D03*
X151890000Y-65865000D03*
X151890000Y-67365000D03*
X147445000Y-62690000D03*
X147445000Y-64190000D03*
D20*
X134225000Y-78045000D03*
X132725000Y-78045000D03*
X120660000Y-71060000D03*
X122160000Y-71060000D03*
X169555000Y-112970000D03*
X171055000Y-112970000D03*
D21*
X146810000Y-112855000D03*
X146810000Y-114355000D03*
X149350000Y-112855000D03*
X149350000Y-114355000D03*
X151890000Y-112855000D03*
X151890000Y-114355000D03*
X155065000Y-112855000D03*
X155065000Y-114355000D03*
X156335000Y-99750000D03*
X156335000Y-98250000D03*
D22*
X129570000Y-99000000D03*
X133570000Y-99000000D03*
D23*
X108540000Y-111895000D03*
X112690000Y-111895000D03*
X108540000Y-114045000D03*
X112690000Y-114045000D03*
D24*
X164590000Y-120590000D03*
D25*
X162050000Y-120590000D03*
X159510000Y-120590000D03*
D23*
X170135000Y-116340000D03*
X174285000Y-116340000D03*
X170135000Y-118490000D03*
X174285000Y-118490000D03*
D10*
G36*
X140896358Y-97767676D02*
X141355977Y-97308057D01*
X142345926Y-98298006D01*
X141886307Y-98757625D01*
X140896358Y-97767676D01*
X140896358Y-97767676D01*
G37*
G36*
X140542804Y-98121229D02*
X141002423Y-97661610D01*
X141992372Y-98651559D01*
X141532753Y-99111178D01*
X140542804Y-98121229D01*
X140542804Y-98121229D01*
G37*
G36*
X140189251Y-98474783D02*
X140648870Y-98015164D01*
X141638819Y-99005113D01*
X141179200Y-99464732D01*
X140189251Y-98474783D01*
X140189251Y-98474783D01*
G37*
G36*
X139835698Y-98828336D02*
X140295317Y-98368717D01*
X141285266Y-99358666D01*
X140825647Y-99818285D01*
X139835698Y-98828336D01*
X139835698Y-98828336D01*
G37*
G36*
X139482144Y-99181889D02*
X139941763Y-98722270D01*
X140931712Y-99712219D01*
X140472093Y-100171838D01*
X139482144Y-99181889D01*
X139482144Y-99181889D01*
G37*
G36*
X139128591Y-99535443D02*
X139588210Y-99075824D01*
X140578159Y-100065773D01*
X140118540Y-100525392D01*
X139128591Y-99535443D01*
X139128591Y-99535443D01*
G37*
G36*
X138775037Y-99888996D02*
X139234656Y-99429377D01*
X140224605Y-100419326D01*
X139764986Y-100878945D01*
X138775037Y-99888996D01*
X138775037Y-99888996D01*
G37*
G36*
X138421484Y-100242550D02*
X138881103Y-99782931D01*
X139871052Y-100772880D01*
X139411433Y-101232499D01*
X138421484Y-100242550D01*
X138421484Y-100242550D01*
G37*
G36*
X138067931Y-100596103D02*
X138527550Y-100136484D01*
X139517499Y-101126433D01*
X139057880Y-101586052D01*
X138067931Y-100596103D01*
X138067931Y-100596103D01*
G37*
G36*
X137714377Y-100949656D02*
X138173996Y-100490037D01*
X139163945Y-101479986D01*
X138704326Y-101939605D01*
X137714377Y-100949656D01*
X137714377Y-100949656D01*
G37*
G36*
X137360824Y-101303210D02*
X137820443Y-100843591D01*
X138810392Y-101833540D01*
X138350773Y-102293159D01*
X137360824Y-101303210D01*
X137360824Y-101303210D01*
G37*
G36*
X137007270Y-101656763D02*
X137466889Y-101197144D01*
X138456838Y-102187093D01*
X137997219Y-102646712D01*
X137007270Y-101656763D01*
X137007270Y-101656763D01*
G37*
G36*
X136653717Y-102010317D02*
X137113336Y-101550698D01*
X138103285Y-102540647D01*
X137643666Y-103000266D01*
X136653717Y-102010317D01*
X136653717Y-102010317D01*
G37*
G36*
X136300164Y-102363870D02*
X136759783Y-101904251D01*
X137749732Y-102894200D01*
X137290113Y-103353819D01*
X136300164Y-102363870D01*
X136300164Y-102363870D01*
G37*
G36*
X135946610Y-102717423D02*
X136406229Y-102257804D01*
X137396178Y-103247753D01*
X136936559Y-103707372D01*
X135946610Y-102717423D01*
X135946610Y-102717423D01*
G37*
G36*
X135593057Y-103070977D02*
X136052676Y-102611358D01*
X137042625Y-103601307D01*
X136583006Y-104060926D01*
X135593057Y-103070977D01*
X135593057Y-103070977D01*
G37*
G36*
X136052676Y-106818642D02*
X135593057Y-106359023D01*
X136583006Y-105369074D01*
X137042625Y-105828693D01*
X136052676Y-106818642D01*
X136052676Y-106818642D01*
G37*
G36*
X136406229Y-107172196D02*
X135946610Y-106712577D01*
X136936559Y-105722628D01*
X137396178Y-106182247D01*
X136406229Y-107172196D01*
X136406229Y-107172196D01*
G37*
G36*
X136759783Y-107525749D02*
X136300164Y-107066130D01*
X137290113Y-106076181D01*
X137749732Y-106535800D01*
X136759783Y-107525749D01*
X136759783Y-107525749D01*
G37*
G36*
X137113336Y-107879302D02*
X136653717Y-107419683D01*
X137643666Y-106429734D01*
X138103285Y-106889353D01*
X137113336Y-107879302D01*
X137113336Y-107879302D01*
G37*
G36*
X137466889Y-108232856D02*
X137007270Y-107773237D01*
X137997219Y-106783288D01*
X138456838Y-107242907D01*
X137466889Y-108232856D01*
X137466889Y-108232856D01*
G37*
G36*
X137820443Y-108586409D02*
X137360824Y-108126790D01*
X138350773Y-107136841D01*
X138810392Y-107596460D01*
X137820443Y-108586409D01*
X137820443Y-108586409D01*
G37*
G36*
X138173996Y-108939963D02*
X137714377Y-108480344D01*
X138704326Y-107490395D01*
X139163945Y-107950014D01*
X138173996Y-108939963D01*
X138173996Y-108939963D01*
G37*
G36*
X138527550Y-109293516D02*
X138067931Y-108833897D01*
X139057880Y-107843948D01*
X139517499Y-108303567D01*
X138527550Y-109293516D01*
X138527550Y-109293516D01*
G37*
G36*
X138881103Y-109647069D02*
X138421484Y-109187450D01*
X139411433Y-108197501D01*
X139871052Y-108657120D01*
X138881103Y-109647069D01*
X138881103Y-109647069D01*
G37*
G36*
X139234656Y-110000623D02*
X138775037Y-109541004D01*
X139764986Y-108551055D01*
X140224605Y-109010674D01*
X139234656Y-110000623D01*
X139234656Y-110000623D01*
G37*
G36*
X139588210Y-110354176D02*
X139128591Y-109894557D01*
X140118540Y-108904608D01*
X140578159Y-109364227D01*
X139588210Y-110354176D01*
X139588210Y-110354176D01*
G37*
G36*
X139941763Y-110707730D02*
X139482144Y-110248111D01*
X140472093Y-109258162D01*
X140931712Y-109717781D01*
X139941763Y-110707730D01*
X139941763Y-110707730D01*
G37*
G36*
X140295317Y-111061283D02*
X139835698Y-110601664D01*
X140825647Y-109611715D01*
X141285266Y-110071334D01*
X140295317Y-111061283D01*
X140295317Y-111061283D01*
G37*
G36*
X140648870Y-111414836D02*
X140189251Y-110955217D01*
X141179200Y-109965268D01*
X141638819Y-110424887D01*
X140648870Y-111414836D01*
X140648870Y-111414836D01*
G37*
G36*
X141002423Y-111768390D02*
X140542804Y-111308771D01*
X141532753Y-110318822D01*
X141992372Y-110778441D01*
X141002423Y-111768390D01*
X141002423Y-111768390D01*
G37*
G36*
X141355977Y-112121943D02*
X140896358Y-111662324D01*
X141886307Y-110672375D01*
X142345926Y-111131994D01*
X141355977Y-112121943D01*
X141355977Y-112121943D01*
G37*
G36*
X143654074Y-111131994D02*
X144113693Y-110672375D01*
X145103642Y-111662324D01*
X144644023Y-112121943D01*
X143654074Y-111131994D01*
X143654074Y-111131994D01*
G37*
G36*
X144007628Y-110778441D02*
X144467247Y-110318822D01*
X145457196Y-111308771D01*
X144997577Y-111768390D01*
X144007628Y-110778441D01*
X144007628Y-110778441D01*
G37*
G36*
X144361181Y-110424887D02*
X144820800Y-109965268D01*
X145810749Y-110955217D01*
X145351130Y-111414836D01*
X144361181Y-110424887D01*
X144361181Y-110424887D01*
G37*
G36*
X144714734Y-110071334D02*
X145174353Y-109611715D01*
X146164302Y-110601664D01*
X145704683Y-111061283D01*
X144714734Y-110071334D01*
X144714734Y-110071334D01*
G37*
G36*
X145068288Y-109717781D02*
X145527907Y-109258162D01*
X146517856Y-110248111D01*
X146058237Y-110707730D01*
X145068288Y-109717781D01*
X145068288Y-109717781D01*
G37*
G36*
X145421841Y-109364227D02*
X145881460Y-108904608D01*
X146871409Y-109894557D01*
X146411790Y-110354176D01*
X145421841Y-109364227D01*
X145421841Y-109364227D01*
G37*
G36*
X145775395Y-109010674D02*
X146235014Y-108551055D01*
X147224963Y-109541004D01*
X146765344Y-110000623D01*
X145775395Y-109010674D01*
X145775395Y-109010674D01*
G37*
G36*
X146128948Y-108657120D02*
X146588567Y-108197501D01*
X147578516Y-109187450D01*
X147118897Y-109647069D01*
X146128948Y-108657120D01*
X146128948Y-108657120D01*
G37*
G36*
X146482501Y-108303567D02*
X146942120Y-107843948D01*
X147932069Y-108833897D01*
X147472450Y-109293516D01*
X146482501Y-108303567D01*
X146482501Y-108303567D01*
G37*
G36*
X146836055Y-107950014D02*
X147295674Y-107490395D01*
X148285623Y-108480344D01*
X147826004Y-108939963D01*
X146836055Y-107950014D01*
X146836055Y-107950014D01*
G37*
G36*
X147189608Y-107596460D02*
X147649227Y-107136841D01*
X148639176Y-108126790D01*
X148179557Y-108586409D01*
X147189608Y-107596460D01*
X147189608Y-107596460D01*
G37*
G36*
X147543162Y-107242907D02*
X148002781Y-106783288D01*
X148992730Y-107773237D01*
X148533111Y-108232856D01*
X147543162Y-107242907D01*
X147543162Y-107242907D01*
G37*
G36*
X147896715Y-106889353D02*
X148356334Y-106429734D01*
X149346283Y-107419683D01*
X148886664Y-107879302D01*
X147896715Y-106889353D01*
X147896715Y-106889353D01*
G37*
G36*
X148250268Y-106535800D02*
X148709887Y-106076181D01*
X149699836Y-107066130D01*
X149240217Y-107525749D01*
X148250268Y-106535800D01*
X148250268Y-106535800D01*
G37*
G36*
X148603822Y-106182247D02*
X149063441Y-105722628D01*
X150053390Y-106712577D01*
X149593771Y-107172196D01*
X148603822Y-106182247D01*
X148603822Y-106182247D01*
G37*
G36*
X148957375Y-105828693D02*
X149416994Y-105369074D01*
X150406943Y-106359023D01*
X149947324Y-106818642D01*
X148957375Y-105828693D01*
X148957375Y-105828693D01*
G37*
G36*
X149416994Y-104060926D02*
X148957375Y-103601307D01*
X149947324Y-102611358D01*
X150406943Y-103070977D01*
X149416994Y-104060926D01*
X149416994Y-104060926D01*
G37*
G36*
X149063441Y-103707372D02*
X148603822Y-103247753D01*
X149593771Y-102257804D01*
X150053390Y-102717423D01*
X149063441Y-103707372D01*
X149063441Y-103707372D01*
G37*
G36*
X148709887Y-103353819D02*
X148250268Y-102894200D01*
X149240217Y-101904251D01*
X149699836Y-102363870D01*
X148709887Y-103353819D01*
X148709887Y-103353819D01*
G37*
G36*
X148356334Y-103000266D02*
X147896715Y-102540647D01*
X148886664Y-101550698D01*
X149346283Y-102010317D01*
X148356334Y-103000266D01*
X148356334Y-103000266D01*
G37*
G36*
X148002781Y-102646712D02*
X147543162Y-102187093D01*
X148533111Y-101197144D01*
X148992730Y-101656763D01*
X148002781Y-102646712D01*
X148002781Y-102646712D01*
G37*
G36*
X147649227Y-102293159D02*
X147189608Y-101833540D01*
X148179557Y-100843591D01*
X148639176Y-101303210D01*
X147649227Y-102293159D01*
X147649227Y-102293159D01*
G37*
G36*
X147295674Y-101939605D02*
X146836055Y-101479986D01*
X147826004Y-100490037D01*
X148285623Y-100949656D01*
X147295674Y-101939605D01*
X147295674Y-101939605D01*
G37*
G36*
X146942120Y-101586052D02*
X146482501Y-101126433D01*
X147472450Y-100136484D01*
X147932069Y-100596103D01*
X146942120Y-101586052D01*
X146942120Y-101586052D01*
G37*
G36*
X146588567Y-101232499D02*
X146128948Y-100772880D01*
X147118897Y-99782931D01*
X147578516Y-100242550D01*
X146588567Y-101232499D01*
X146588567Y-101232499D01*
G37*
G36*
X146235014Y-100878945D02*
X145775395Y-100419326D01*
X146765344Y-99429377D01*
X147224963Y-99888996D01*
X146235014Y-100878945D01*
X146235014Y-100878945D01*
G37*
G36*
X145881460Y-100525392D02*
X145421841Y-100065773D01*
X146411790Y-99075824D01*
X146871409Y-99535443D01*
X145881460Y-100525392D01*
X145881460Y-100525392D01*
G37*
G36*
X145527907Y-100171838D02*
X145068288Y-99712219D01*
X146058237Y-98722270D01*
X146517856Y-99181889D01*
X145527907Y-100171838D01*
X145527907Y-100171838D01*
G37*
G36*
X145174353Y-99818285D02*
X144714734Y-99358666D01*
X145704683Y-98368717D01*
X146164302Y-98828336D01*
X145174353Y-99818285D01*
X145174353Y-99818285D01*
G37*
G36*
X144820800Y-99464732D02*
X144361181Y-99005113D01*
X145351130Y-98015164D01*
X145810749Y-98474783D01*
X144820800Y-99464732D01*
X144820800Y-99464732D01*
G37*
G36*
X144467247Y-99111178D02*
X144007628Y-98651559D01*
X144997577Y-97661610D01*
X145457196Y-98121229D01*
X144467247Y-99111178D01*
X144467247Y-99111178D01*
G37*
G36*
X144113693Y-98757625D02*
X143654074Y-98298006D01*
X144644023Y-97308057D01*
X145103642Y-97767676D01*
X144113693Y-98757625D01*
X144113693Y-98757625D01*
G37*
D26*
X143950000Y-59292000D03*
X143000000Y-59292000D03*
X142050000Y-59292000D03*
X142050000Y-61492000D03*
X143950000Y-61492000D03*
D27*
X156810000Y-104715000D03*
X156810000Y-105985000D03*
X156810000Y-107255000D03*
X156810000Y-108525000D03*
X162210000Y-108525000D03*
X162210000Y-107255000D03*
X162210000Y-105985000D03*
X162210000Y-104715000D03*
D28*
X155954000Y-75505000D03*
D29*
X158240000Y-69155000D03*
D28*
X160526000Y-75505000D03*
D30*
X140050000Y-66570000D03*
X140050000Y-67220000D03*
X140050000Y-67870000D03*
X140050000Y-68520000D03*
X140050000Y-69170000D03*
X140050000Y-69820000D03*
X140050000Y-70470000D03*
X145950000Y-70470000D03*
X145950000Y-69820000D03*
X145950000Y-69170000D03*
X145950000Y-68520000D03*
X145950000Y-67870000D03*
X145950000Y-67220000D03*
X145950000Y-66570000D03*
D28*
X125474000Y-75505000D03*
D29*
X127760000Y-69155000D03*
D28*
X130046000Y-75505000D03*
D10*
G36*
X169243506Y-79173053D02*
X167021876Y-78577769D01*
X167643042Y-76259547D01*
X169864672Y-76854831D01*
X169243506Y-79173053D01*
X169243506Y-79173053D01*
G37*
D31*
X170896726Y-78373700D03*
D10*
G36*
X173053506Y-87428053D02*
X170831876Y-86832769D01*
X171453042Y-84514547D01*
X173674672Y-85109831D01*
X173053506Y-87428053D01*
X173053506Y-87428053D01*
G37*
D31*
X174706726Y-86628700D03*
D10*
G36*
X145619831Y-58554672D02*
X145024547Y-56333042D01*
X147342769Y-55711876D01*
X147938053Y-57933506D01*
X145619831Y-58554672D01*
X145619831Y-58554672D01*
G37*
D31*
X147138700Y-59586726D03*
D10*
G36*
X153239831Y-62364672D02*
X152644547Y-60143042D01*
X154962769Y-59521876D01*
X155558053Y-61743506D01*
X153239831Y-62364672D01*
X153239831Y-62364672D01*
G37*
D31*
X154758700Y-63396726D03*
D10*
G36*
X140318053Y-58786494D02*
X139722769Y-61008124D01*
X137404547Y-60386958D01*
X137999831Y-58165328D01*
X140318053Y-58786494D01*
X140318053Y-58786494D01*
G37*
D31*
X139518700Y-57133274D03*
D10*
G36*
X116524672Y-79235169D02*
X114303042Y-79830453D01*
X113681876Y-77512231D01*
X115903506Y-76916947D01*
X116524672Y-79235169D01*
X116524672Y-79235169D01*
G37*
D31*
X117556726Y-77716300D03*
D10*
G36*
X112714672Y-86855169D02*
X110493042Y-87450453D01*
X109871876Y-85132231D01*
X112093506Y-84536947D01*
X112714672Y-86855169D01*
X112714672Y-86855169D01*
G37*
D31*
X113746726Y-85336300D03*
D10*
G36*
X132698053Y-62596494D02*
X132102769Y-64818124D01*
X129784547Y-64196958D01*
X130379831Y-61975328D01*
X132698053Y-62596494D01*
X132698053Y-62596494D01*
G37*
D31*
X131898700Y-60943274D03*
D32*
X141400000Y-77045000D03*
D33*
X143435000Y-78445000D03*
X143435000Y-77645000D03*
X142565000Y-78445000D03*
X142565000Y-77645000D03*
D32*
X141400000Y-77445000D03*
X141400000Y-77845000D03*
X141400000Y-78245000D03*
X141400000Y-78645000D03*
X141400000Y-79045000D03*
D34*
X142000000Y-79645000D03*
X142400000Y-79645000D03*
X142800000Y-79645000D03*
X143200000Y-79645000D03*
X143600000Y-79645000D03*
X144000000Y-79645000D03*
D32*
X144600000Y-79045000D03*
X144600000Y-78645000D03*
X144600000Y-78245000D03*
X144600000Y-77845000D03*
X144600000Y-77445000D03*
X144600000Y-77045000D03*
D34*
X144000000Y-76445000D03*
X143600000Y-76445000D03*
X143200000Y-76445000D03*
X142800000Y-76445000D03*
X142400000Y-76445000D03*
X142000000Y-76445000D03*
D16*
X111250000Y-118799300D03*
X111250000Y-117300700D03*
D21*
X113790000Y-117300000D03*
X113790000Y-118800000D03*
D35*
X160145000Y-98365000D03*
D36*
X160145000Y-98365000D03*
D37*
X161395000Y-97415000D03*
D36*
X161145000Y-98365000D03*
X159145000Y-98365000D03*
D37*
X160895000Y-97415000D03*
X160395000Y-97415000D03*
X159895000Y-97415000D03*
X159395000Y-97415000D03*
X158895000Y-97415000D03*
X158895000Y-99315000D03*
X159395000Y-99315000D03*
X159895000Y-99315000D03*
X160395000Y-99315000D03*
X160895000Y-99315000D03*
X161395000Y-99315000D03*
D38*
X118870000Y-119320000D03*
D39*
X120870000Y-119320000D03*
D38*
X127125000Y-119320000D03*
D39*
X129125000Y-119320000D03*
D11*
X139420000Y-118692500D03*
X138420000Y-118692500D03*
X137420000Y-118692500D03*
X136420000Y-118692500D03*
D12*
X140720000Y-121217500D03*
X135120000Y-121217500D03*
D35*
X125855000Y-98365000D03*
D36*
X125855000Y-98365000D03*
D37*
X127105000Y-97415000D03*
D36*
X126855000Y-98365000D03*
X124855000Y-98365000D03*
D37*
X126605000Y-97415000D03*
X126105000Y-97415000D03*
X125605000Y-97415000D03*
X125105000Y-97415000D03*
X124605000Y-97415000D03*
X124605000Y-99315000D03*
X125105000Y-99315000D03*
X125605000Y-99315000D03*
X126105000Y-99315000D03*
X126605000Y-99315000D03*
X127105000Y-99315000D03*
D40*
X127760000Y-106620000D03*
D41*
X130010000Y-108320000D03*
D42*
X128910000Y-108320000D03*
D40*
X127760000Y-108320000D03*
D42*
X126610000Y-108320000D03*
D41*
X125510000Y-108320000D03*
D43*
X125560000Y-106620000D03*
D41*
X125510000Y-104920000D03*
D42*
X126610000Y-104920000D03*
D40*
X127760000Y-104920000D03*
D42*
X128910000Y-104920000D03*
D41*
X130010000Y-104920000D03*
D43*
X129960000Y-106620000D03*
D41*
X126610000Y-106620000D03*
M02*
