G04 #@! TF.FileFunction,Soldermask,Bot*
%FSLAX46Y46*%
G04 Gerber Fmt 4.6, Leading zero omitted, Abs format (unit mm)*
G04 Created by KiCad (PCBNEW 4.0.1-stable) date 2016/09/09 20:04:28*
%MOMM*%
G01*
G04 APERTURE LIST*
%ADD10C,0.100000*%
%ADD11R,2.127200X2.127200*%
%ADD12O,2.127200X2.127200*%
%ADD13R,2.127200X2.432000*%
%ADD14O,2.127200X2.432000*%
%ADD15C,2.300000*%
%ADD16R,1.275000X1.200000*%
%ADD17C,1.200000*%
%ADD18R,1.600000X2.100000*%
%ADD19O,1.600000X2.100000*%
%ADD20R,1.200000X1.500000*%
%ADD21R,1.100000X1.500000*%
%ADD22R,1.100000X1.400000*%
%ADD23R,1.000000X1.500000*%
G04 APERTURE END LIST*
D10*
D11*
X136650000Y-74870000D03*
D12*
X134110000Y-74870000D03*
X136650000Y-72330000D03*
X134110000Y-72330000D03*
X136650000Y-69790000D03*
X134110000Y-69790000D03*
D11*
X149350000Y-69790000D03*
D12*
X151890000Y-69790000D03*
X149350000Y-72330000D03*
X151890000Y-72330000D03*
X149350000Y-74870000D03*
X151890000Y-74870000D03*
D13*
X164590000Y-120590000D03*
D14*
X162050000Y-120590000D03*
X159510000Y-120590000D03*
D10*
G36*
X169243506Y-79173053D02*
X167021876Y-78577769D01*
X167643042Y-76259547D01*
X169864672Y-76854831D01*
X169243506Y-79173053D01*
X169243506Y-79173053D01*
G37*
D15*
X170896726Y-78373700D03*
D10*
G36*
X173053506Y-87428053D02*
X170831876Y-86832769D01*
X171453042Y-84514547D01*
X173674672Y-85109831D01*
X173053506Y-87428053D01*
X173053506Y-87428053D01*
G37*
D15*
X174706726Y-86628700D03*
D10*
G36*
X145619831Y-58554672D02*
X145024547Y-56333042D01*
X147342769Y-55711876D01*
X147938053Y-57933506D01*
X145619831Y-58554672D01*
X145619831Y-58554672D01*
G37*
D15*
X147138700Y-59586726D03*
D10*
G36*
X153239831Y-62364672D02*
X152644547Y-60143042D01*
X154962769Y-59521876D01*
X155558053Y-61743506D01*
X153239831Y-62364672D01*
X153239831Y-62364672D01*
G37*
D15*
X154758700Y-63396726D03*
D10*
G36*
X140318053Y-58786494D02*
X139722769Y-61008124D01*
X137404547Y-60386958D01*
X137999831Y-58165328D01*
X140318053Y-58786494D01*
X140318053Y-58786494D01*
G37*
D15*
X139518700Y-57133274D03*
D10*
G36*
X116524672Y-79235169D02*
X114303042Y-79830453D01*
X113681876Y-77512231D01*
X115903506Y-76916947D01*
X116524672Y-79235169D01*
X116524672Y-79235169D01*
G37*
D15*
X117556726Y-77716300D03*
D10*
G36*
X112714672Y-86855169D02*
X110493042Y-87450453D01*
X109871876Y-85132231D01*
X112093506Y-84536947D01*
X112714672Y-86855169D01*
X112714672Y-86855169D01*
G37*
D15*
X113746726Y-85336300D03*
D10*
G36*
X132698053Y-62596494D02*
X132102769Y-64818124D01*
X129784547Y-64196958D01*
X130379831Y-61975328D01*
X132698053Y-62596494D01*
X132698053Y-62596494D01*
G37*
D15*
X131898700Y-60943274D03*
D16*
X143435000Y-78445000D03*
X143435000Y-77645000D03*
X142565000Y-78445000D03*
X142565000Y-77645000D03*
D17*
X160145000Y-98365000D03*
X161145000Y-98365000D03*
X159145000Y-98365000D03*
D18*
X118870000Y-119320000D03*
D19*
X120870000Y-119320000D03*
D18*
X127125000Y-119320000D03*
D19*
X129125000Y-119320000D03*
D17*
X125855000Y-98365000D03*
X126855000Y-98365000D03*
X124855000Y-98365000D03*
D20*
X127760000Y-106620000D03*
D21*
X130010000Y-108320000D03*
D22*
X128910000Y-108320000D03*
D20*
X127760000Y-108320000D03*
D22*
X126610000Y-108320000D03*
D21*
X125510000Y-108320000D03*
D23*
X125560000Y-106620000D03*
D21*
X125510000Y-104920000D03*
D22*
X126610000Y-104920000D03*
D20*
X127760000Y-104920000D03*
D22*
X128910000Y-104920000D03*
D21*
X130010000Y-104920000D03*
D23*
X129960000Y-106620000D03*
D21*
X126610000Y-106620000D03*
M02*
